<svg width="8894" height="576" viewBox="0 0 8894 576" fill="none" xmlns="http://www.w3.org/2000/svg">
<path d="M982.63 187.469C981.38 187.809 980.17 188.239 978.98 188.739C978.67 188.799 978.35 188.849 978.03 188.879C976.84 188.989 974.68 189.239 974.53 187.609C974.41 186.279 975.13 184.819 975.52 183.589C976.04 181.959 976.57 180.319 977.09 178.689C977.24 178.219 976.59 177.839 976.25 178.199C973.96 180.679 972.83 184.129 970.15 186.249C968.99 187.159 967.55 187.749 966.07 187.449C965.25 187.289 964.49 186.889 963.96 186.299C963.72 185.819 963.48 185.349 963.25 184.869C962.99 184.339 962.23 184.729 962.34 185.259C962.47 185.859 962.74 186.379 963.11 186.829C963.51 187.639 963.91 188.449 964.31 189.259C964.47 189.589 964.65 189.909 964.79 190.249C964.97 190.679 964.85 190.879 964.49 191.119C963.9 191.499 963.26 191.819 962.64 192.159C960.15 193.499 957.56 194.649 954.91 195.609C954.42 195.789 954.44 196.629 955.04 196.589C957.08 196.449 959.11 196.299 961.15 196.159C961.88 196.109 962.62 196.059 963.35 195.999C963.48 196.029 963.61 196.069 963.73 196.099C963.79 196.129 963.85 196.149 963.91 196.179C964.48 196.509 965.04 196.859 965.58 197.219C965.62 197.259 965.66 197.299 965.69 197.339C966.35 198.129 966.74 199.109 967.07 200.079C967.28 201.149 967.48 202.219 967.68 203.289C967.78 203.829 968.48 203.689 968.64 203.289C970.16 199.649 974.36 197.399 978.23 198.119C978.68 198.199 979.12 197.639 978.72 197.279C977.68 196.349 976.65 195.419 975.61 194.489C975.18 194.099 974.49 193.609 974.43 192.989C974.37 192.359 975.02 191.919 975.49 191.619C976.65 190.889 977.87 190.259 979.13 189.719C980.48 189.479 981.79 189.029 983.01 188.379C983.52 188.109 983.17 187.319 982.62 187.469H982.63Z" fill="#FFFAD7"/>
<path d="M8197.38 127.151C8195.05 129.351 8192.75 131.591 8190.44 133.821C8190.26 133.711 8190.03 133.681 8189.83 133.851C8177.9 143.931 8165.97 154.011 8153.95 163.981C8141.93 173.951 8129.82 183.811 8117.53 193.451C8114.65 195.711 8111.38 198.611 8107.49 198.581C8104.56 198.561 8101.04 195.631 8102.32 192.481C8102.53 191.961 8101.65 191.581 8101.41 192.091C8100.04 195.031 8098.37 197.811 8096.43 200.401C8094.77 200.961 8093.02 200.231 8091.58 199.321C8089.84 198.221 8088.35 196.761 8086.8 195.431C8083.52 192.631 8080.18 189.911 8076.78 187.261C8070 181.991 8062.98 177.031 8055.74 172.411C8051.63 169.781 8047.44 167.271 8043.19 164.861C8042.63 164.541 8042.12 165.411 8042.69 165.721C8042.75 165.751 8042.81 165.791 8042.87 165.831C8042.56 165.981 8042.42 166.481 8042.8 166.731C8048.66 170.521 8054.52 174.331 8059.99 178.671C8065.4 182.951 8070.48 187.761 8074.5 193.401C8075.62 194.971 8076.67 196.601 8077.59 198.291C8078.08 199.201 8078.57 200.241 8078.46 201.311C8078.4 201.911 8078.09 202.551 8077.6 202.931C8077.38 203.031 8077.16 203.131 8076.94 203.231C8076.9 203.231 8076.86 203.251 8076.82 203.261C8076.67 203.281 8076.55 203.351 8076.47 203.451C8063.63 209.351 8050.86 215.411 8038.18 221.661C8024.97 228.161 8011.86 234.861 7998.85 241.731C7991.56 245.581 7984.29 249.501 7977.06 253.461C7976.56 253.731 7976.9 254.521 7977.45 254.371C7985.78 252.071 7993.94 249.221 8002.01 246.151C8010.11 243.071 8018.12 239.781 8026.17 236.601C8034.18 233.431 8042.25 230.371 8050.46 227.761C8058.59 225.171 8066.87 223.031 8075.3 221.691C8076.38 221.521 8077.46 221.361 8078.55 221.211C8079.61 221.071 8080.72 220.861 8081.8 220.941C8083.7 221.091 8084.49 222.681 8084.52 224.411C8084.55 226.241 8083.94 228.001 8083.35 229.711C8082.61 231.871 8081.73 233.991 8080.71 236.031C8080.22 237.021 8079.69 238.001 8079.14 238.961C8078.81 239.531 8079.64 239.981 8080 239.461C8083.28 234.871 8089.25 232.651 8094.74 233.611C8103.36 255.361 8111.97 277.111 8120.59 298.861L8128.13 317.901C8128.36 318.491 8129.25 318.271 8129.09 317.631C8125.2 302.051 8121.3 286.471 8117.94 270.761C8116.27 262.941 8114.72 255.101 8113.38 247.221C8112.7 243.261 8112.07 239.291 8111.51 235.301C8111.04 231.971 8110.74 228.201 8113.21 225.551C8115.16 223.451 8118.12 222.771 8120.88 222.661C8124 222.531 8127.11 223.051 8130.13 223.801C8130.58 223.911 8131.03 223.301 8130.62 222.961C8127.85 220.731 8124.79 218.071 8123.6 214.601C8123 212.841 8123.05 210.981 8123.84 209.291C8124.67 207.501 8126.05 205.991 8127.28 204.461C8132.57 197.891 8137.97 191.411 8143.48 185.021C8154.49 172.241 8165.92 159.821 8177.75 147.791C8184.41 141.011 8191.2 134.361 8198.11 127.831C8198.58 127.391 8197.87 126.681 8197.4 127.121L8197.38 127.151Z" fill="#FFFAD7"/>
<path d="M8714.52 200.659C8710.7 203.179 8706.88 205.699 8703.06 208.219C8700.12 210.159 8695.77 213.309 8692.74 209.849C8691.59 208.539 8690.78 206.899 8689.16 206.089C8688.81 205.909 8688.26 206.209 8688.43 206.649C8688.73 207.469 8689 208.309 8689.21 209.159C8689.31 209.549 8689.39 209.939 8689.47 210.329C8689.53 210.609 8689.73 211.219 8689.5 211.479C8689.11 211.929 8687.74 211.479 8687.27 211.399C8686.41 211.259 8685.56 211.129 8684.7 210.989C8681.24 210.439 8677.77 209.889 8674.31 209.339C8673.88 209.269 8673.39 209.819 8673.82 210.179C8675.16 211.259 8676.5 212.339 8677.84 213.409C8679 214.349 8680.38 215.219 8681.29 216.419C8681.64 216.879 8682.04 217.499 8681.97 218.109C8681.88 218.869 8681.14 219.119 8680.49 219.239C8679.16 219.479 8677.8 219.619 8676.45 219.769C8676.14 219.789 8675.83 219.829 8675.53 219.879C8675.51 219.879 8675.5 219.879 8675.48 219.879C8675.48 219.879 8675.39 219.889 8675.35 219.899C8675.32 219.899 8675.3 219.919 8675.27 219.929C8674.53 219.859 8673.79 219.789 8673.04 219.759C8672.4 219.729 8672.4 220.729 8673.04 220.759C8676.07 220.899 8679.05 221.399 8681.96 222.229C8683.23 223.699 8683.31 225.859 8682.67 227.639C8681.87 229.879 8680.06 231.609 8678.4 233.239C8678 233.629 8678.52 234.349 8679.01 234.029C8680.78 232.849 8682.55 231.659 8684.32 230.479C8685.21 229.889 8686.09 229.299 8686.98 228.709C8687.75 228.199 8688.56 227.659 8689.47 227.429C8691.7 226.879 8692.34 229.279 8693.03 230.879C8693.88 232.829 8694.73 234.779 8695.58 236.729C8695.79 237.209 8696.51 236.939 8696.51 236.479C8696.52 234.449 8696.53 232.409 8696.55 230.379C8696.55 229.439 8696.55 228.489 8696.57 227.549C8696.6 226.689 8696.75 225.799 8697.59 225.369C8698.31 224.999 8699.17 225.009 8699.96 224.979C8700.94 224.949 8701.91 224.919 8702.89 224.879C8704.92 224.809 8706.95 224.749 8708.98 224.679C8709.54 224.659 8709.67 223.849 8709.11 223.699C8706.98 223.109 8704.9 222.389 8702.87 221.509C8701.92 221.099 8700.92 220.689 8700.03 220.149C8699.6 219.889 8699.17 219.539 8699.46 219.019C8699.72 218.559 8700.2 218.159 8700.55 217.769C8703.64 214.299 8706.74 210.839 8709.83 207.369C8711.6 205.389 8713.36 203.409 8715.13 201.429C8715.49 201.029 8715.02 200.319 8714.52 200.639V200.659Z" fill="#FFFAD7"/>
<path d="M7669.49 38.6499C7658.67 51.8099 7647.99 65.0799 7637.47 78.4699C7637.52 78.0399 7636.99 77.6399 7636.65 78.0399C7626.66 89.5999 7616.17 100.74 7605.22 111.4C7594.27 122.06 7582.87 132.26 7571.04 141.94C7568.08 144.36 7565.11 146.78 7562.07 149.11C7559.22 151.3 7556.28 153.38 7553.1 155.06C7549.95 156.73 7546.53 157.99 7542.96 158.32C7539.98 158.59 7536.98 158.22 7534.15 157.24C7528.46 155.28 7523.83 151.08 7520.06 146.51C7515.94 141.52 7512.76 135.88 7509.74 130.18C7502.3 116.16 7495.66 101.71 7489.87 86.9299C7489.16 85.1199 7488.47 83.3099 7487.78 81.4899C7487.68 81.2199 7487.43 81.1299 7487.21 81.1599C7487.05 80.7899 7486.9 80.4199 7486.74 80.0499C7486.7 79.9499 7486.61 79.8899 7486.52 79.8599C7486.37 79.5199 7486.22 79.1899 7486.07 78.8499C7485.96 78.5999 7485.6 78.5499 7485.39 78.6699C7485.28 78.7299 7485.21 78.8299 7485.18 78.9399C7485.06 78.1799 7484.95 77.4199 7484.83 76.6499C7484.73 76.0199 7483.77 76.2899 7483.87 76.9199L7484.18 78.9399C7484.18 78.9399 7484.15 79.0399 7484.14 79.0999C7484.12 79.5099 7484.11 79.9099 7484.09 80.3199C7484.08 80.5899 7484.25 80.7399 7484.46 80.7799C7487.5 100.59 7490.54 120.4 7493.58 140.21C7494.23 144.43 7495.01 148.66 7495.11 152.95C7495.19 156.54 7494.85 160.36 7493.12 163.57C7491.2 167.13 7487.61 169.15 7483.58 169.26C7478.86 169.39 7474.32 167.52 7469.98 165.9C7450.35 158.56 7430.77 151.06 7411.26 143.4C7391.62 135.68 7372.05 127.8 7352.55 119.76C7333.09 111.73 7313.69 103.54 7294.37 95.1799C7292 94.1499 7289.62 93.1199 7287.25 92.0899C7286.67 91.8399 7286.16 92.6999 7286.75 92.9499C7290.32 94.4999 7293.9 96.0499 7297.48 97.5899C7297.23 97.7999 7297.21 98.3299 7297.63 98.4999C7309.51 103.27 7321.34 108.16 7333.11 113.19C7344.87 118.22 7356.58 123.37 7368.23 128.66C7379.83 133.93 7391.37 139.32 7402.85 144.84C7414.33 150.36 7425.75 156.01 7437.11 161.78C7442.24 164.39 7447.68 166.83 7452.09 170.6C7456.12 174.05 7459.25 179.02 7458.99 184.5C7458.93 185.73 7458.66 186.93 7458.23 188.08C7448.68 202.05 7436.35 213.8 7423.61 224.83C7409.42 237.13 7394.92 249.1 7380.56 261.21L7335.78 298.96C7320.91 311.5 7306.04 324.03 7291.17 336.57L7246.39 374.32C7244.56 375.86 7242.73 377.41 7240.9 378.95C7240.58 379.22 7240.77 379.6 7241.07 379.73C7240.49 380.15 7239.91 380.57 7239.34 380.99C7239.18 381.11 7239.12 381.27 7239.13 381.43C7238.85 381.67 7238.56 381.91 7238.28 382.16C7238.01 382.41 7238.16 382.81 7238.43 382.97C7236.53 384.4 7234.64 385.82 7232.74 387.25C7230.85 388.67 7228.96 390.09 7227.07 391.51C7226.56 391.89 7227.06 392.76 7227.57 392.37C7242.7 381 7257.84 369.64 7272.97 358.27C7288.1 346.9 7303.24 335.54 7318.37 324.17C7333.5 312.8 7348.64 301.44 7363.77 290.07C7378.34 279.13 7392.78 267.97 7407.56 257.3C7420.79 247.74 7434.85 238.76 7450.61 234.05C7451.04 233.92 7451.48 233.81 7451.92 233.68C7452.31 233.94 7452.69 234.23 7453.02 234.56C7455.13 236.65 7455.78 239.82 7456.1 242.66C7456.84 249.3 7456.64 256.08 7455.94 262.72C7454.49 276.37 7450.67 289.65 7446.5 302.69C7445.92 304.52 7445.32 306.34 7444.73 308.16C7444.43 309.07 7444.17 309.99 7443.84 310.89C7443.6 311.55 7443.03 311.82 7442.6 312.34C7442.39 312.59 7442.27 312.89 7442.23 313.18C7442.13 313.27 7442.03 313.36 7441.94 313.45C7441.47 313.89 7442.18 314.6 7442.65 314.16C7442.68 314.13 7442.72 314.1 7442.75 314.07C7442.87 314.11 7443.01 314.13 7443.18 314.12C7443.49 314.1 7443.91 313.98 7444.07 313.68C7444.22 313.4 7444.12 313.15 7443.91 312.99C7451.91 305.54 7460.38 298.59 7469.27 292.22C7477.82 286.1 7487.33 279.61 7498.24 279.42C7502.01 279.35 7505.83 280.07 7509.21 281.72C7518.12 290 7525.7 299.64 7532.45 309.76C7541.36 323.11 7549.08 337.25 7557.04 351.18C7566.02 366.9 7575.01 382.63 7583.99 398.35C7592.97 414.07 7601.96 429.8 7610.94 445.52C7619.92 461.24 7628.91 476.97 7637.89 492.69C7638.99 494.62 7640.1 496.56 7641.2 498.49C7641.52 499.05 7642.38 498.55 7642.06 497.99C7640.02 494.42 7637.98 490.85 7635.94 487.28C7636.22 487.24 7636.48 487 7636.35 486.68C7636.31 486.59 7636.28 486.49 7636.24 486.4C7636.58 486.84 7637.34 486.37 7637.05 485.83C7628.72 470.48 7620.62 454.99 7612.78 439.38C7604.91 423.7 7597.28 407.9 7589.92 391.97C7582.59 376.12 7575.5 360.14 7568.68 344.06C7561.81 327.88 7555.21 311.59 7548.87 295.19C7545.76 287.15 7542.03 278.94 7540.92 270.32C7540.01 263.29 7541.27 255.53 7546.21 250.14C7547.38 248.87 7548.72 247.8 7550.21 246.94C7550.33 246.87 7550.39 246.78 7550.42 246.67C7553.28 245.13 7556.21 243.71 7559.2 242.44C7566.46 239.37 7574.08 237.14 7581.85 235.79C7585.67 235.13 7589.52 234.71 7593.39 234.49C7594.18 234.99 7594.96 235.49 7595.75 235.98C7596.3 236.32 7596.8 235.45 7596.25 235.12C7595.86 234.88 7595.47 234.64 7595.09 234.4C7595.72 234.36 7595.72 233.38 7595.08 233.4C7594.6 233.42 7594.11 233.45 7593.63 233.48C7588.85 230.45 7584.18 227.22 7579.88 223.53C7575.06 219.39 7570.61 214.6 7567.73 208.88C7564.62 202.7 7563.93 195.83 7565.68 189.14C7566.72 185.14 7568.43 181.35 7570.25 177.66C7572.06 173.98 7573.98 170.35 7575.97 166.76C7583.91 152.43 7593.09 138.84 7602.73 125.6C7612.74 111.85 7623.15 98.3899 7633.61 84.9899C7644.27 71.3399 7655.09 57.7999 7666.06 44.3999C7667.44 42.7099 7668.82 41.0299 7670.21 39.3399C7670.62 38.8499 7669.91 38.1399 7669.5 38.6299L7669.49 38.6499Z" fill="#FFFAD7"/>
<path d="M7093.31 25.6597C7088.81 30.4997 7084.34 35.3697 7079.91 40.2797C7070.84 48.1197 7061.78 55.9497 7052.71 63.7897C7042.25 72.8297 7031.8 81.8597 7021.34 90.8997C7011.45 99.4397 7001.66 108.11 6991.62 116.48C6982.77 123.87 6973.56 130.95 6963.44 136.54C6959.88 138.51 6956.18 140.28 6952.39 141.77C6952.52 141.39 6952.12 140.89 6951.68 141.17C6947.78 143.6 6943.17 144.69 6938.6 144.41C6933.84 144.11 6929.49 142.23 6925.8 139.24C6922 136.15 6918.74 132.34 6915.56 128.64C6912.37 124.92 6909.32 121.09 6906.37 117.17C6900.48 109.33 6895.03 101.18 6889.68 92.9697C6884.31 84.7397 6879.04 76.4597 6873.52 68.3297C6868.05 60.2897 6862.32 52.3997 6856.05 44.9597C6855.94 44.8297 6855.83 44.7097 6855.73 44.5797C6855.71 44.4997 6855.69 44.4097 6855.66 44.3297C6855.59 44.0797 6855.4 43.9797 6855.21 43.9797C6854.7 43.3797 6854.19 42.7797 6853.67 42.1797C6853.25 41.6897 6852.54 42.3997 6852.96 42.8897C6853.59 43.6097 6854.2 44.3297 6854.82 45.0597C6858.88 60.2997 6862.43 75.6597 6865.46 91.1397C6866.97 98.8697 6868.36 106.63 6869.61 114.41C6870.24 118.34 6870.84 122.28 6871.41 126.22C6871.84 129.25 6872.28 132.27 6872.32 135.33C6872.35 137.89 6872.13 140.69 6871.33 143.22C6868.55 146.58 6863.81 147.85 6859.36 148.06C6852.15 148.4 6845.25 146.33 6838.36 144.51C6820.74 139.85 6803.25 134.7 6785.92 129.06C6768.59 123.42 6751.41 117.31 6734.42 110.71C6731.18 109.45 6727.96 108.17 6724.74 106.88C6714.53 102.36 6704.24 98.0297 6693.87 93.9097C6690.48 92.4197 6687.1 90.9197 6683.73 89.3897C6667.14 81.8497 6650.75 73.8597 6634.61 65.3997C6632.59 64.3397 6630.58 63.2797 6628.57 62.2097C6628 61.9097 6627.5 62.7697 6628.07 63.0697C6644.56 71.8397 6661.3 80.1497 6678.27 87.9697C6681.6 89.4997 6684.94 91.0097 6688.29 92.4997C6688.32 92.6597 6688.42 92.8097 6688.61 92.8797C6690.36 93.5597 6692.1 94.2597 6693.84 94.9597C6704.02 99.4397 6714.27 103.74 6724.59 107.87C6736.36 113.08 6748.02 118.55 6759.55 124.28C6771.11 130.02 6782.54 136.01 6793.84 142.25C6805.14 148.49 6816.3 154.98 6827.31 161.71C6831.8 164.45 6836.25 167.33 6840.11 170.92C6841.64 172.34 6843.08 173.9 6844.34 175.59C6844.29 175.69 6844.26 175.81 6844.3 175.95C6845.26 179.2 6846.08 182.49 6846.78 185.8C6846.68 185.91 6846.61 186.06 6846.64 186.24C6848.58 197.78 6844.23 209.4 6837.52 218.66C6830.67 228.11 6821.48 235.5 6812.51 242.82C6792.96 258.78 6773.62 275 6754.49 291.47C6735.43 307.89 6716.59 324.56 6697.98 341.48C6679.36 358.4 6660.97 375.56 6642.81 392.97C6624.65 410.38 6606.72 428.02 6589.03 445.91C6586.83 448.13 6584.64 450.35 6582.45 452.58C6582.33 452.7 6582.3 452.84 6582.32 452.96C6581.31 454 6580.36 455.1 6579.38 456.17C6579.26 456.3 6579.23 456.46 6579.26 456.6C6570.9 463.7 6562.58 470.85 6554.3 478.04C6552.06 479.98 6549.83 481.93 6547.6 483.88C6547.11 484.3 6547.82 485.01 6548.31 484.59C6566.29 468.88 6584.46 453.37 6602.8 438.08C6621.22 422.73 6639.81 407.6 6658.59 392.69C6677.4 377.75 6696.39 363.03 6715.55 348.54C6734.67 334.08 6753.96 319.84 6773.42 305.84C6782.64 299.2 6791.8 292.4 6801.39 286.32C6810.58 280.49 6820.39 275.35 6831.03 272.77C6833.46 272.18 6835.92 271.74 6838.4 271.44C6841.97 275.68 6844.77 280.54 6846.91 285.67C6849.67 292.32 6851.41 299.35 6852.7 306.42C6854.17 314.48 6855.14 322.63 6855.99 330.77C6856.92 339.69 6857.58 348.64 6857.98 357.59C6858.37 366.39 6858.51 375.19 6858.39 384C6858.22 384.65 6858.04 385.3 6857.86 385.95C6857.56 387.1 6857.26 388.26 6856.96 389.41C6856.8 390.03 6857.76 390.3 6857.92 389.68C6858.07 389.1 6858.23 388.52 6858.38 387.94C6858.59 388.32 6859.31 388.24 6859.32 387.7C6859.35 386.53 6859.35 385.35 6859.37 384.18C6861.33 376.84 6863.44 369.53 6865.7 362.28C6868.53 353.22 6871.61 344.23 6874.91 335.33C6878.21 326.46 6881.72 317.67 6885.5 308.99C6888.83 301.35 6892.61 293.56 6898.85 287.84C6902.72 284.29 6907.83 281.62 6913.13 280.94C6917.32 282.92 6920.95 286.16 6923.99 289.79C6929.74 296.65 6933.69 304.79 6937.91 312.63C6948.11 331.59 6958.54 350.43 6969.19 369.14C6979.85 387.85 6990.73 406.43 7001.83 424.88C7012.93 443.33 7024.26 461.64 7035.8 479.82C7047.34 497.99 7059.11 516.03 7071.09 533.92C7072.58 536.14 7074.07 538.36 7075.56 540.57C7075.92 541.1 7076.78 540.6 7076.42 540.07C7074.25 536.85 7072.1 533.63 7069.95 530.4C7070.08 530.56 7070.2 530.72 7070.33 530.88C7070.41 530.98 7070.51 531.02 7070.6 531.04C7071.61 532.45 7072.57 533.91 7073.44 535.42C7073.76 535.98 7074.62 535.48 7074.3 534.92C7073.26 533.08 7072.23 531.24 7071.19 529.4C7071.28 529.26 7071.31 529.09 7071.21 528.91C7061.44 510.21 7051.81 491.44 7042.33 472.59C7032.89 453.83 7023.59 434.99 7014.44 416.09C7005.25 397.1 6996.2 378.04 6987.3 358.91C6978.46 339.91 6969.73 320.84 6961.21 301.69C6953.89 285.23 6946.3 264.94 6956.44 247.92C6957.1 246.82 6957.84 245.77 6958.63 244.77C6966.26 238.99 6975.41 235.43 6984.53 232.64C6990.54 230.8 6996.62 229.21 7002.68 227.56C7009.48 225.7 7016.28 223.84 7023.08 221.98C7030.76 219.88 7038.44 217.78 7046.12 215.68C7046.74 215.51 7046.48 214.55 7045.85 214.72L7042.68 215.59C7042.61 215.52 7042.51 215.47 7042.39 215.46C7029.82 214.24 7016.9 212.97 7005.18 207.93C6999.86 205.64 6994.92 202.59 6990.77 198.53C6986.83 194.68 6983.56 190.05 6981.54 184.91C6979.57 179.88 6978.88 174.42 6979.91 169.13C6982.95 162.83 6986.82 156.89 6990.87 151.2C6998.41 140.61 7006.36 130.3 7014.33 120.04C7022.38 109.68 7030.57 99.4297 7038.91 89.3097C7047.25 79.1797 7055.73 69.1697 7064.35 59.2897C7069.75 53.0997 7075.23 46.9697 7080.74 40.8697C7082.04 39.7497 7083.33 38.6297 7084.63 37.5097C7084.93 37.2497 7084.78 36.8897 7084.5 36.7397C7086.55 34.4897 7088.57 32.2297 7090.63 29.9997C7091.74 28.7997 7092.86 27.5897 7093.97 26.3897C7094.41 25.9197 7093.7 25.2097 7093.26 25.6797L7093.31 25.6597ZM7068.38 525.6C7068.28 525.68 7068.22 525.79 7068.21 525.93C7067.64 524.82 7067.15 523.67 7066.75 522.48C7067.29 523.52 7067.84 524.56 7068.38 525.6Z" fill="#FFFAD7"/>
<g clip-path="url(#clip0_226_1603)">
<path d="M6521.14 0.840968C6516.43 5.23097 6511.78 9.68097 6507.17 14.181C6507.16 14.111 6507.13 14.051 6507.09 13.991C6507.13 13.961 6507.16 13.921 6507.2 13.891C6508.62 12.581 6510.04 11.271 6511.45 9.96097C6511.92 9.52097 6511.21 8.81097 6510.74 9.25097C6499.26 19.931 6487.53 30.331 6475.54 40.431C6463.54 50.541 6451.29 60.361 6438.8 69.871C6426.33 79.371 6413.62 88.551 6400.69 97.421C6387.85 106.231 6374.82 114.811 6361.51 122.901C6349.44 130.241 6334.93 137.951 6320.31 135.681C6315.81 130.181 6311.37 124.641 6307.01 119.031C6300.01 110.021 6293.19 100.861 6286.55 91.571C6279.94 82.321 6273.52 72.941 6267.29 63.431C6261.06 53.921 6255.02 44.291 6249.18 34.541C6243.43 24.951 6237.88 15.251 6232.52 5.44097C6232.4 5.03097 6232.28 4.62097 6232.15 4.20097C6231.76 2.92097 6231.36 1.63097 6230.97 0.350968C6230.78 -0.259032 6229.82 0.000968039 6230.01 0.620968C6230.06 0.800968 6230.12 0.980968 6230.17 1.15097C6229.83 0.730968 6229.08 1.19097 6229.37 1.73097C6230.09 3.07097 6230.83 4.40097 6231.56 5.74097C6234.11 14.131 6236.61 22.541 6239.01 30.981C6241.9 41.131 6244.69 51.311 6247.37 61.521C6250.04 71.681 6252.6 81.871 6255.05 92.091C6257.51 102.351 6259.87 112.641 6262.11 122.961C6262.67 125.541 6263.23 128.121 6263.77 130.701C6264.29 133.141 6264.89 135.581 6265.3 138.041C6265.57 139.671 6265.6 141.401 6265.3 143.041C6265.24 143.351 6265.17 143.671 6265.08 143.991C6260.34 147.211 6253.35 146.611 6247.9 145.401C6243.38 144.401 6239.02 142.751 6234.65 141.281C6229.47 139.531 6224.3 137.751 6219.14 135.941C6198.5 128.721 6178.02 121.061 6157.71 112.971C6137.26 104.831 6116.99 96.251 6096.91 87.251C6076.96 78.311 6057.2 68.941 6037.64 59.161C6018 49.341 5998.57 39.111 5979.36 28.461C5977.01 27.161 5974.66 25.851 5972.32 24.531C5971.76 24.211 5971.25 25.081 5971.82 25.391C5981.68 30.921 5991.6 36.341 6001.58 41.651C6001.58 41.791 6001.65 41.931 6001.8 42.031C6018.61 53.211 6035.95 63.551 6053.57 73.391C6071.28 83.281 6089.26 92.661 6107.3 101.931C6125.28 111.171 6143.33 120.301 6161.23 129.701C6179.18 139.131 6196.98 148.831 6214.41 159.191C6223.07 164.341 6231.65 169.641 6240.08 175.161C6246.04 179.061 6252.38 183.551 6256.28 189.691C6255.66 194.821 6253.11 199.561 6250.01 203.751C6245.9 209.311 6240.91 214.261 6236.03 219.141C6225.91 229.261 6215.11 238.671 6204.16 247.891C6182.28 266.321 6160.33 284.621 6138.94 303.621C6117.55 322.621 6096.54 342.061 6075.94 361.911C6055.27 381.831 6035.01 402.181 6015.17 422.931C5995.69 443.311 5976.62 464.091 5957.97 485.231C5950.69 492.091 5943.46 499.001 5936.33 506.011C5933.96 508.341 5931.59 510.691 5929.23 513.041C5928.77 513.491 5929.48 514.201 5929.94 513.751C5936.78 506.941 5943.71 500.221 5950.68 493.551C5950.5 493.761 5950.32 493.961 5950.14 494.171C5949.72 494.651 5950.42 495.361 5950.85 494.881C5953.56 491.771 5956.3 488.691 5959.03 485.591C5968.3 476.861 5977.68 468.241 5987.17 459.741C6006.71 442.241 6026.7 425.231 6047.04 408.671C6067.52 392.001 6088.36 375.791 6109.51 359.981C6130.62 344.201 6152.02 328.811 6173.66 313.771C6184.26 306.401 6194.82 298.871 6205.75 291.991C6216.32 285.341 6227.9 279.261 6240.5 277.891C6242.69 277.651 6244.89 277.571 6247.09 277.641C6250.52 282.151 6252.55 287.671 6253.67 293.281C6255.42 302.071 6255.19 311.081 6255.08 319.991C6254.93 331.661 6254.77 343.341 6254.62 355.011C6254.47 366.631 6254.31 378.251 6254.16 389.871L6253.7 424.891L6253.66 427.731C6253.39 428.521 6253.12 429.311 6252.85 430.101C6252.64 430.711 6253.61 430.971 6253.81 430.371C6253.88 430.171 6253.95 429.961 6254.02 429.761C6254.3 429.821 6254.63 429.671 6254.64 429.301C6254.64 428.841 6254.65 428.371 6254.66 427.911C6258.21 417.581 6261.76 407.251 6265.31 396.921C6269.14 385.771 6272.97 374.611 6276.81 363.461C6280.64 352.311 6284.47 341.151 6288.31 330.001C6291.96 319.371 6295.48 308.611 6300.53 298.541C6304.36 290.901 6309.8 282.461 6318.34 279.631C6320.8 280.261 6323.08 281.891 6324.94 283.701C6328.55 287.211 6331.01 291.641 6333.64 295.881C6339.64 305.561 6345.64 315.231 6351.64 324.911C6363.69 344.341 6375.74 363.771 6387.79 383.211C6399.79 402.561 6411.79 421.911 6423.79 441.261L6459.94 499.561C6471.94 518.911 6483.94 538.261 6495.94 557.611C6496.63 558.731 6497.33 559.841 6498.02 560.961C6498.89 562.921 6499.76 564.871 6500.62 566.831C6501.91 569.741 6503.2 572.651 6504.5 575.571C6504.76 576.161 6505.62 575.651 6505.36 575.071C6503.89 571.751 6502.41 568.421 6500.94 565.101C6501.25 565.041 6501.52 564.721 6501.31 564.371C6500.5 563.071 6499.7 561.771 6498.89 560.471C6490.76 542.141 6482.63 523.821 6474.5 505.491C6464.21 482.301 6453.92 459.101 6443.63 435.911C6433.29 412.611 6422.96 389.311 6412.62 366.011C6402.33 342.821 6392.04 319.621 6381.75 296.431C6376.67 284.991 6371.36 273.581 6367.56 261.631C6365.22 254.271 6363.45 244.261 6368.31 237.491C6368.34 237.451 6368.38 237.421 6368.41 237.381C6372.98 234.771 6377.87 232.741 6382.82 230.961C6390.39 228.251 6398.08 225.851 6405.75 223.451C6413.67 220.971 6421.62 218.581 6429.6 216.281C6437.58 213.981 6445.58 211.781 6453.61 209.671C6461.64 207.561 6469.69 205.541 6477.77 203.621C6478.8 203.371 6479.83 203.131 6480.86 202.891C6481.18 202.821 6481.25 202.541 6481.18 202.301C6481.66 202.261 6482.14 202.231 6482.62 202.211C6482.85 202.211 6483.08 202.211 6483.31 202.221C6484.46 202.241 6485.6 202.261 6486.75 202.281C6487.39 202.291 6487.39 201.291 6486.75 201.281C6485.64 201.261 6484.54 201.241 6483.43 201.221C6483.37 201.191 6483.3 201.181 6483.21 201.181C6483.02 201.181 6482.82 201.201 6482.63 201.211C6474.94 201.081 6467.25 200.921 6459.56 200.561C6450.49 200.141 6441.43 199.451 6432.43 198.211C6423.54 196.981 6414.72 195.221 6406.1 192.691C6399.22 190.661 6391.38 187.751 6388.7 180.411C6387.3 176.591 6387.3 172.381 6387.53 168.361C6387.72 165.071 6388.21 161.691 6389.52 158.631C6395.78 149.091 6402.21 139.661 6408.85 130.371C6416.93 119.061 6425.29 107.941 6433.91 97.031C6442.53 86.131 6451.41 75.431 6460.55 64.961C6469.66 54.521 6479.01 44.311 6488.61 34.331C6498.21 24.351 6508.05 14.601 6518.12 5.09097C6519.36 3.92097 6520.61 2.75097 6521.85 1.59097C6522.32 1.15097 6521.61 0.440968 6521.14 0.880968V0.840968Z" fill="#FFFAD7"/>
</g>
<path d="M5917.52 10.8706C5913.56 15.1106 5909.64 19.3706 5905.72 23.6406C5905.58 23.3906 5905.23 23.2506 5904.94 23.5106C5904.68 23.7406 5904.42 23.9806 5904.16 24.2106C5904.14 24.2206 5904.12 24.2306 5904.1 24.2406C5903.52 24.7106 5902.93 25.1806 5902.35 25.6506C5902.14 25.7906 5901.94 25.9306 5901.74 26.0706C5901.58 26.0106 5901.39 26.0206 5901.23 26.1506C5889.8 35.5706 5878.22 44.8106 5866.5 53.8706C5854.68 63.0106 5842.72 71.9606 5830.62 80.7306C5818.63 89.4206 5806.5 97.9306 5794.24 106.251C5781.94 114.601 5769.51 122.761 5756.95 130.731C5751.15 134.411 5745.19 138.561 5738.3 139.821C5733.59 140.681 5728.2 139.741 5724.5 136.571C5724.48 136.551 5724.46 136.531 5724.43 136.511C5723.92 136.061 5723.43 135.581 5722.99 135.041C5722.13 134.001 5721.49 132.801 5721.07 131.521C5720.87 130.911 5719.91 131.171 5720.11 131.791C5720.21 132.091 5720.32 132.381 5720.43 132.661C5717.74 129.761 5715.32 126.581 5713.06 123.351C5710.46 119.631 5708 115.811 5705.51 112.021C5702.75 107.831 5700 103.641 5697.26 99.4406C5691.78 91.0406 5686.32 82.6306 5680.9 74.2006C5675.48 65.7706 5670.08 57.3106 5664.71 48.8406C5659.34 40.3706 5654.01 31.8806 5648.7 23.3706C5648.39 22.8706 5648.08 22.3706 5647.76 21.8706C5647.53 21.1206 5647.31 20.3606 5647.08 19.6106C5646.89 19.0006 5645.93 19.2606 5646.12 19.8806C5646.14 19.9306 5646.15 19.9806 5646.17 20.0406C5645.89 20.1306 5645.69 20.4306 5645.88 20.7406C5646.19 21.2406 5646.51 21.7406 5646.82 22.2406C5649.23 30.2706 5651.57 38.3206 5653.83 46.4006C5656.31 55.2706 5658.7 64.1606 5661.01 73.0706C5663.3 81.9406 5665.5 90.8406 5667.62 99.7506C5669.74 108.711 5671.78 117.691 5673.72 126.691C5674.21 128.961 5674.69 131.231 5675.17 133.501C5675.53 135.211 5675.89 136.911 5676.06 138.651C5676.34 141.561 5676.3 145.071 5674.3 147.431C5673.98 147.811 5673.6 148.131 5673.2 148.421C5667.85 149.701 5661.95 148.671 5656.66 147.201C5647.93 144.781 5639.37 141.501 5630.82 138.501C5612.92 132.231 5595.13 125.671 5577.45 118.821C5559.65 111.931 5541.96 104.751 5524.4 97.2706C5506.95 89.8506 5489.62 82.1406 5472.42 74.1606C5455.22 66.1806 5438.15 57.9106 5421.22 49.3806C5419.12 48.3206 5417.03 47.2606 5414.93 46.1906C5414.36 45.9006 5413.85 46.7606 5414.43 47.0506C5414.62 47.1506 5414.81 47.2406 5415 47.3406C5414.94 47.3806 5414.9 47.4306 5414.86 47.4806C5414.34 47.1906 5413.82 46.9006 5413.3 46.6106C5411.01 45.3406 5408.73 44.0706 5406.44 42.8006C5405.88 42.4906 5405.37 43.3506 5405.94 43.6606C5424.01 53.7006 5442.07 63.7406 5460.18 73.7106C5478.29 83.6706 5496.44 93.5606 5514.67 103.301C5532.97 113.071 5551.36 122.691 5569.86 132.071C5588.21 141.371 5606.68 150.451 5625.3 159.211C5630.01 161.431 5634.74 163.621 5639.47 165.801C5643.58 167.691 5647.71 169.601 5651.59 171.951C5659.17 176.551 5666.15 183.571 5667.11 192.821C5667.18 193.541 5667.2 194.251 5667.19 194.971C5656.26 216.761 5637.88 233.401 5619.78 249.211C5598.57 267.751 5577.44 286.371 5556.48 305.191C5535.36 324.151 5514.39 343.281 5493.56 362.561C5472.73 381.841 5452.05 401.291 5431.53 420.881C5411 440.481 5390.62 460.241 5370.39 480.151C5369.07 481.451 5367.75 482.761 5366.42 484.061L5363.07 486.911C5360.67 488.951 5358.27 490.991 5355.87 493.031C5355.38 493.451 5356.09 494.151 5356.58 493.741L5362.9 488.371C5363.08 488.501 5363.32 488.531 5363.53 488.331C5364.75 487.131 5365.97 485.931 5367.19 484.721C5382.86 471.411 5398.53 458.091 5414.2 444.781C5433.19 428.641 5451.95 412.151 5471.43 396.601C5490.77 381.171 5511.28 367.251 5531.49 353.001C5552.01 338.531 5572.54 324.071 5593.06 309.611C5603.32 302.381 5613.58 295.141 5623.84 287.911C5628.59 284.561 5633.26 281.001 5638.27 278.041C5642.81 275.361 5647.96 272.941 5653.34 272.881C5654.95 272.861 5656.51 273.101 5658.01 273.571C5662.81 276.941 5665 283.081 5666.03 288.771C5666.73 292.651 5666.92 296.581 5667.04 300.511C5667.21 305.981 5667.36 311.451 5667.48 316.921C5667.72 327.861 5667.86 338.801 5667.9 349.741C5667.94 360.731 5667.88 371.721 5667.72 382.711C5667.56 393.511 5667.31 404.321 5666.96 415.121C5666.61 416.091 5666.26 417.061 5665.92 418.021C5665.71 418.611 5666.61 418.871 5666.86 418.331C5666.84 418.781 5666.83 419.221 5666.81 419.671C5666.79 420.311 5667.79 420.311 5667.81 419.671C5667.86 418.231 5667.89 416.791 5667.94 415.351C5671.31 405.981 5674.68 396.621 5678.05 387.251C5681.77 376.901 5685.5 366.551 5689.22 356.201C5692.94 345.851 5696.67 335.501 5700.39 325.151C5702.24 320.021 5704.08 314.891 5705.93 309.761C5707.56 305.221 5709.1 300.641 5710.91 296.171C5713.7 289.281 5717.62 281.691 5724.71 278.441C5724.88 278.361 5725.06 278.301 5725.24 278.231C5731.89 279.211 5737.34 284.901 5741.24 290.181C5744.17 294.151 5746.62 298.461 5749.19 302.661C5752.08 307.401 5754.97 312.141 5757.86 316.881C5769.66 336.231 5781.45 355.581 5793.25 374.931C5805 394.201 5816.75 413.471 5828.49 432.741C5840.29 452.091 5852.08 471.441 5863.88 490.791C5875.41 509.711 5886.94 528.621 5898.48 547.541C5899.98 550.871 5901.47 554.211 5902.97 557.541C5904.18 560.231 5905.39 562.911 5906.6 565.601C5906.86 566.191 5907.73 565.681 5907.46 565.101C5905.85 561.521 5904.24 557.931 5902.63 554.351L5903.46 555.711C5903.79 556.261 5904.66 555.761 5904.32 555.211C5902.66 552.491 5901 549.771 5899.35 547.051C5892.4 531.571 5885.47 516.091 5878.56 500.591C5868.97 479.071 5859.43 457.521 5849.91 435.971C5840.35 414.311 5830.82 392.651 5821.31 370.971C5811.84 349.391 5802.4 327.811 5792.96 306.221C5788.24 295.431 5783.52 284.631 5778.8 273.841C5776.57 268.731 5774.15 263.671 5772.31 258.401C5770.67 253.711 5769.41 248.651 5770.02 243.661C5770.12 242.821 5770.31 242.011 5770.53 241.211C5773.1 238.561 5776.21 236.421 5779.51 234.691C5785.26 231.661 5791.51 229.751 5797.68 227.791C5805.65 225.261 5813.62 222.741 5821.6 220.211C5829.57 217.681 5837.54 215.161 5845.52 212.631C5853.53 210.091 5861.54 207.551 5869.56 205.021C5870.45 204.741 5871.35 204.451 5872.24 204.171C5873.22 204.371 5874.19 204.581 5875.17 204.781C5875.8 204.911 5876.07 203.951 5875.44 203.821C5874.55 203.631 5873.66 203.451 5872.77 203.271C5872.66 203.131 5872.49 203.051 5872.27 203.121C5872.24 203.121 5872.21 203.141 5872.18 203.151C5858.79 200.381 5845.37 197.691 5832.02 194.741C5825.53 193.301 5819.06 191.681 5812.81 189.391C5809.61 188.221 5806.48 186.871 5803.45 185.301C5802.04 184.561 5800.64 183.791 5799.3 182.941C5797.95 182.091 5796.7 181.061 5796.03 179.581C5795.42 178.231 5795.28 176.721 5795.22 175.241C5795.27 175.161 5795.31 175.071 5795.3 174.951C5795.19 173.461 5795.18 171.991 5795.25 170.531C5795.25 170.341 5795.28 170.161 5795.29 169.971C5795.99 159.481 5801.18 149.791 5807.16 141.251C5810.88 135.941 5814.99 130.911 5819.06 125.871C5823.41 120.471 5827.8 115.091 5832.2 109.741C5841.05 98.9906 5850.01 88.3206 5859.07 77.7506C5868.13 67.1806 5877.3 56.6906 5886.58 46.3006C5895.85 35.9106 5905.23 25.6106 5914.71 15.4106C5915.89 14.1406 5917.07 12.8706 5918.26 11.6006C5918.7 11.1306 5917.99 10.4206 5917.55 10.8906L5917.52 10.8706Z" fill="#FFFAD7"/>
<path d="M5324.39 4.41011C5324.39 4.41011 5324.37 4.43011 5324.36 4.44011C5324.25 4.41011 5324.13 4.42011 5324.01 4.50011L5323.89 4.57011C5324.14 4.38011 5324.39 4.18011 5324.64 3.99011C5325.14 3.60011 5324.64 2.73011 5324.14 3.13011C5312.24 12.2901 5300.34 21.4601 5288.44 30.6201C5276.54 39.7801 5264.64 48.9501 5252.74 58.1101C5240.84 67.2701 5228.94 76.4401 5217.04 85.6001C5205.14 94.7601 5193.24 103.93 5181.34 113.09C5175.89 117.29 5170.51 121.6 5164.85 125.51C5159.58 129.15 5153.97 132.42 5147.84 134.36C5147.71 134.4 5147.59 134.43 5147.46 134.47C5140.23 134.04 5133.49 129.89 5128.02 125.14C5124.25 121.87 5120.89 118.19 5117.67 114.39C5114.13 110.23 5110.66 106.02 5107.26 101.76C5100.4 93.1801 5093.81 84.3801 5087.5 75.3901C5081.23 66.4601 5075.23 57.3301 5069.51 48.0301C5063.9 38.9001 5058.57 29.6001 5053.51 20.1401C5053.42 19.8201 5053.33 19.5001 5053.24 19.1701C5053.17 18.9201 5052.99 18.8201 5052.8 18.8201C5052.3 17.8801 5051.8 16.9401 5051.31 16.0001C5051.01 15.4301 5050.15 15.9301 5050.45 16.5001C5050.6 16.7901 5050.76 17.0901 5050.92 17.3801C5050.86 17.4801 5050.84 17.6101 5050.89 17.7601C5051 18.0601 5051.11 18.3601 5051.22 18.6601C5050.88 18.3601 5050.22 18.6201 5050.4 19.1401C5055.69 34.0601 5060.55 49.1401 5064.97 64.3401C5069.37 79.4601 5073.34 94.7101 5076.88 110.06C5078.26 116.04 5079.54 122.05 5080.79 128.06C5080.79 128.18 5080.81 128.29 5080.81 128.41C5080.81 129.35 5080.81 130.28 5080.81 131.22C5080.76 131.69 5080.76 132.17 5080.8 132.64C5080.78 132.97 5080.78 133.29 5080.77 133.62C5080.5 133.59 5080.21 133.74 5080.24 134.09C5080.57 138.17 5077.37 141.47 5073.72 142.74C5069.23 144.31 5064.26 142.86 5059.94 141.43C5050.76 138.38 5041.64 135.14 5032.51 131.92C5014.39 125.54 4996.34 118.97 4978.35 112.24C4960.28 105.47 4942.27 98.5301 4924.34 91.4201C4906.49 84.3401 4888.7 77.0801 4870.98 69.6501C4853.14 62.1701 4835.38 54.5101 4817.7 46.6801C4815.46 45.6901 4813.23 44.7001 4811 43.7001C4810.7 43.5601 4810.42 43.7301 4810.3 43.9601L4808.65 43.1201C4808.08 42.8301 4807.57 43.6901 4808.15 43.9801L4862.17 71.3101C4880.1 80.3801 4898.02 89.4501 4915.95 98.5301C4933.96 107.64 4951.96 116.75 4969.97 125.86C4987.9 134.93 5005.82 144 5023.75 153.08C5032.75 157.64 5041.76 162.19 5050.76 166.75C5054.73 168.76 5058.78 170.66 5062.64 172.89C5065.8 174.71 5068.93 176.87 5071.16 179.81C5071.63 190.67 5063.91 199.89 5056.87 207.41C5048.32 216.54 5039.6 225.5 5030.85 234.43C5013.33 252.32 4995.53 269.94 4977.66 287.47C4959.78 305.01 4941.82 322.46 4923.96 340.02C4906.11 357.57 4888.36 375.22 4870.9 393.16C4853.45 411.09 4836.29 429.31 4819.63 447.98C4818.26 449.52 4816.89 451.07 4815.52 452.61C4806.91 460.7 4798.44 468.94 4790.13 477.33C4788.07 479.42 4786.01 481.51 4783.97 483.62C4783.52 484.08 4784.23 484.79 4784.68 484.33C4794.12 474.61 4803.78 465.11 4813.61 455.8C4813.77 455.88 4813.97 455.86 4814.13 455.68C4814.85 454.87 4815.58 454.07 4816.29 453.25C4822.49 447.42 4828.76 441.67 4835.09 436C4852.43 420.46 4870.24 405.45 4888.37 390.84C4906.57 376.18 4925.09 361.94 4943.81 347.95C4962.51 333.98 4981.41 320.27 5000.39 306.67C5009.87 299.87 5019.38 293.11 5028.89 286.35C5033.55 283.04 5038.15 279.64 5042.9 276.47C5047.55 273.37 5052.55 270.47 5058.06 269.28C5060.46 268.76 5062.89 268.64 5065.3 268.96C5070.59 271.48 5072.48 278.44 5073.2 283.92C5073.79 288.44 5073.76 293.04 5073.93 297.58C5074.13 303.1 5074.33 308.62 5074.52 314.13C5074.9 325.12 5075.25 336.1 5075.58 347.09C5075.91 358.08 5076.21 369.07 5076.49 380.06C5076.77 391 5077.02 401.94 5077.25 412.88C5077.28 414.27 5077.31 415.67 5077.34 417.06C5077.35 417.7 5078.35 417.7 5078.34 417.06C5078.34 416.89 5078.34 416.71 5078.33 416.54C5078.35 416.5 5078.38 416.46 5078.39 416.41C5080.56 406.16 5082.92 395.95 5085.48 385.79C5088.04 375.63 5090.79 365.52 5093.73 355.46C5096.66 345.45 5099.78 335.49 5103.09 325.6C5104.75 320.63 5106.46 315.68 5108.21 310.74C5109.9 306 5111.55 301.23 5113.45 296.57C5115.21 292.24 5117.36 287.92 5120.6 284.5C5123.6 281.33 5127.66 278.83 5132.08 278.39C5132.29 278.37 5132.51 278.37 5132.72 278.36C5139.17 279.6 5145.16 283.12 5149.93 287.64C5156.98 294.31 5161.76 302.89 5166.51 311.24C5177.04 329.73 5187.86 348.06 5198.88 366.26C5209.95 384.53 5221.24 402.67 5232.66 420.72C5244.05 438.7 5255.58 456.6 5267.18 474.44C5278.78 492.29 5290.46 510.08 5302.15 527.87C5302.15 527.87 5302.15 527.87 5302.15 527.88C5303.03 530.15 5303.92 532.42 5304.79 534.69C5305.79 537.29 5306.79 539.9 5307.78 542.5C5308.01 543.1 5308.97 542.84 5308.74 542.23C5307.42 538.76 5306.08 535.29 5304.74 531.82C5305.33 532.72 5305.93 533.63 5306.52 534.53C5306.87 535.07 5307.74 534.57 5307.38 534.03C5305.93 531.83 5304.49 529.63 5303.05 527.43C5296.94 511.66 5290.68 495.94 5284.27 480.29C5275.92 459.89 5267.31 439.59 5258.46 419.4C5249.51 398.98 5240.3 378.66 5230.84 358.47C5221.42 338.36 5211.76 318.38 5201.85 298.51C5196.97 288.72 5191.77 279.06 5187.12 269.15C5182.77 259.89 5178.84 249.61 5179.9 239.19C5180.15 236.69 5180.75 234.26 5181.61 231.9C5182.94 230.65 5184.38 229.5 5185.9 228.48C5191.02 225.05 5196.8 222.72 5202.6 220.74C5210.22 218.13 5217.94 215.78 5225.61 213.32C5233.76 210.71 5241.91 208.09 5250.05 205.48L5274.61 197.6L5275.96 197.17C5276.54 197.19 5277.12 197.23 5277.7 197.24C5278.22 197.26 5278.31 196.62 5278 196.36C5278.16 196.01 5277.9 195.5 5277.44 195.65C5276.9 195.82 5276.36 196 5275.82 196.17C5263.87 195.7 5251.88 194.48 5240.14 192.17C5229.27 190.04 5218.29 186.47 5209.92 178.92C5206.56 175.89 5203.72 172.28 5201.75 168.22C5201.46 161.85 5203.38 155.66 5206.22 149.99C5209.56 143.31 5213.99 137.19 5218.23 131.07C5222.55 124.83 5226.95 118.64 5231.43 112.52C5240.44 100.22 5249.78 88.1701 5259.44 76.3801C5269.1 64.6001 5279.07 53.0801 5289.35 41.8401C5299.63 30.6001 5310.22 19.6401 5321.09 8.98011C5322.42 7.67011 5323.76 6.37011 5325.11 5.07011C5325.57 4.62011 5324.87 3.91011 5324.4 4.36011L5324.39 4.41011Z" fill="#FFFAD7"/>
<path d="M4717.66 537.16C4708.42 517.35 4699.19 497.54 4689.95 477.73C4680.71 457.92 4671.48 438.11 4662.24 418.3C4652.96 398.4 4643.68 378.5 4634.4 358.59C4625.16 338.78 4615.93 318.97 4606.69 299.16C4602.14 289.4 4597.32 279.73 4593.17 269.79C4589.39 260.74 4586.19 250.81 4587.3 240.88C4587.49 239.22 4587.81 237.59 4588.24 235.99C4590.29 233.85 4592.51 231.86 4594.86 230.05C4599.94 226.12 4605.57 222.92 4611.37 220.17C4617.26 217.37 4623.36 215.02 4629.51 212.83C4637.08 210.13 4644.71 207.58 4652.37 205.13C4660.19 202.63 4668.05 200.25 4675.94 197.99C4676.8 197.74 4677.67 197.5 4678.54 197.25C4678.66 197.27 4678.78 197.3 4678.9 197.32C4679.53 197.45 4679.8 196.48 4679.17 196.36C4679.16 196.36 4679.15 196.36 4679.14 196.36C4679.03 196.22 4678.86 196.13 4678.64 196.19C4678.6 196.2 4678.56 196.21 4678.52 196.23C4666.5 193.82 4654.56 190.95 4642.76 187.62C4636.79 185.93 4630.85 184.13 4624.95 182.21C4619.74 180.52 4614.18 178.92 4609.82 175.46C4607.19 173.36 4604.98 170.22 4604.28 166.85C4605.25 157.3 4611.81 148.89 4617.47 141.45C4625.45 130.96 4633.43 120.47 4641.41 109.97L4665.25 78.6203C4673.23 68.1303 4681.21 57.6403 4689.19 47.1403C4697.17 36.6503 4705.15 26.1603 4713.13 15.6603C4714.1 14.3903 4715.07 13.1103 4716.04 11.8403C4716.43 11.3303 4715.56 10.8303 4715.18 11.3403L4707.06 22.0203C4706.96 22.0203 4706.86 22.0503 4706.77 22.1203C4695.75 30.7003 4684.74 39.2903 4673.72 47.8703C4662.7 56.4503 4651.69 65.0403 4640.67 73.6203C4629.65 82.2003 4618.64 90.7903 4607.62 99.3703C4602.22 103.58 4596.82 107.8 4591.41 112C4586.65 115.69 4581.83 119.32 4576.78 122.62C4567.06 128.98 4556.16 134.35 4544.37 135.01C4544.12 135.02 4543.86 135.02 4543.61 135.03C4538.02 132.74 4533.26 127.91 4529.36 123.54C4522.39 115.72 4515.68 107.66 4509.14 99.4703C4502.58 91.2503 4496.22 82.8603 4490.08 74.3203C4483.96 65.8103 4478.05 57.1403 4472.36 48.3303C4466.65 39.4903 4461.16 30.5003 4455.91 21.3903C4455.26 20.2703 4454.62 19.1403 4453.98 18.0103C4453.66 17.4503 4452.8 17.9503 4453.12 18.5103C4453.57 19.3003 4454.03 20.0903 4454.49 20.8803C4454.43 20.8503 4454.37 20.8303 4454.3 20.8103C4454.26 20.6803 4454.22 20.5403 4454.18 20.4103C4453.99 19.8003 4453.03 20.0603 4453.22 20.6803C4456 29.7803 4458.78 38.8803 4461.55 47.9903C4464.32 57.0503 4467.08 66.1103 4469.85 75.1703L4478.18 102.48C4480.96 111.58 4483.74 120.68 4486.51 129.79C4487.2 132.05 4487.9 134.3 4488.57 136.56C4488.99 137.97 4489.29 139.43 4489.41 140.9C4489.6 143.31 4489.49 146.62 4487.32 148.19C4487.28 148.22 4487.24 148.24 4487.2 148.27C4479.44 150.29 4471.32 149.24 4463.62 147.13C4454.88 144.73 4446.44 141.24 4437.97 138.05C4420.38 131.43 4402.82 124.7 4385.31 117.86C4367.88 111.06 4350.49 104.15 4333.14 97.1403C4315.79 90.1303 4298.48 83.0103 4281.22 75.8003C4272.6 72.2003 4264 68.5703 4255.4 64.9103C4254.41 64.3603 4253.41 63.8103 4252.41 63.2503C4250.43 62.1403 4248.45 61.0303 4246.47 59.9103C4245.91 59.5903 4245.4 60.4603 4245.97 60.7703C4246.2 60.9003 4246.44 61.0303 4246.67 61.1603C4240.84 58.6703 4235.01 56.1803 4229.2 53.6703C4227.03 52.7303 4224.87 51.7903 4222.7 50.8503C4222.12 50.6003 4221.61 51.4603 4222.2 51.7103C4233.04 56.4203 4243.91 61.0703 4254.78 65.6903C4267.72 72.9003 4280.76 79.9303 4293.9 86.7703C4310.03 95.1603 4326.3 103.27 4342.71 111.09C4359.12 118.91 4375.67 126.44 4392.34 133.68C4400.58 137.26 4408.86 140.77 4417.16 144.2C4424.85 147.38 4432.62 150.39 4440.28 153.66C4452.96 159.09 4466.3 165.86 4474.16 177.68C4474.46 189.35 4468.97 200.05 4462.37 209.38C4455.21 219.5 4446.86 228.87 4438.6 238.1C4421.91 256.74 4404.11 274.35 4386.04 291.64C4367.94 308.97 4349.55 326 4331.63 343.53C4312.93 361.82 4294.94 380.8 4277.45 400.24C4260.42 419.18 4243.82 438.5 4227.29 457.88C4226.63 458.57 4225.97 459.26 4225.31 459.96C4225.19 460.08 4225.16 460.22 4225.18 460.35C4223.17 462.71 4221.16 465.07 4219.15 467.42C4218.73 467.91 4219.44 468.62 4219.86 468.13C4222.54 464.98 4225.23 461.83 4227.92 458.68C4241.76 444.14 4255.89 429.86 4270.31 415.88C4285.38 401.27 4300.77 386.98 4316.44 373.01C4332.06 359.1 4347.97 345.51 4364.16 332.27C4380.49 318.91 4397.11 305.89 4413.99 293.23C4422.17 287.1 4430.33 280.85 4438.87 275.22C4447.01 269.85 4455.78 265.08 4465.37 262.95C4467.29 262.52 4469.24 262.22 4471.2 262.02C4475.7 265.87 4477.96 271.87 4479.17 277.67C4480.01 281.71 4480.39 285.81 4480.7 289.91C4481.12 295.5 4481.52 301.08 4481.89 306.67C4482.64 317.95 4483.28 329.24 4483.81 340.53C4484.34 351.82 4484.77 363.12 4485.09 374.42C4485.41 385.67 4485.63 396.92 4485.73 408.18C4485.74 409.61 4485.76 411.03 4485.77 412.46C4485.77 412.61 4485.83 412.73 4485.92 412.81C4485.9 412.89 4485.88 412.98 4485.86 413.06C4485.78 413.4 4486.04 413.63 4486.3 413.67C4486.03 414.06 4485.81 414.47 4485.74 414.98C4485.65 415.61 4486.61 415.88 4486.7 415.25C4486.9 413.83 4488.33 413.08 4488.87 411.81C4489.13 411.18 4489.24 410.39 4488.99 409.75C4490.77 400.26 4492.74 390.8 4494.93 381.4C4497.25 371.42 4499.81 361.49 4502.59 351.63C4505.36 341.81 4508.36 332.05 4511.58 322.37C4513.2 317.51 4514.87 312.66 4516.6 307.84C4518.22 303.31 4519.8 298.74 4521.88 294.4C4523.82 290.35 4526.27 286.45 4529.65 283.44C4531.18 282.08 4532.92 280.88 4534.78 279.97C4534.88 280.04 4535.01 280.08 4535.17 280.04C4543.28 278.4 4550.51 282.9 4556 288.47C4562.33 294.89 4566.86 302.8 4571.67 310.35L4606.14 364.54C4617.63 382.6 4629.12 400.67 4640.61 418.73L4675.08 472.92C4686.57 490.98 4698.06 509.05 4709.55 527.11C4710.96 529.32 4712.37 531.54 4713.77 533.75C4714.11 534.29 4714.98 533.79 4714.63 533.25L4714.49 533.03C4714.54 533.02 4714.59 533 4714.64 532.97C4715.36 534.52 4716.09 536.08 4716.81 537.63C4717.08 538.21 4717.94 537.71 4717.67 537.13L4717.66 537.16ZM4486.88 412.95C4487 412.42 4487.12 411.88 4487.24 411.35C4487.32 411.35 4487.39 411.35 4487.48 411.34C4487.55 411.33 4487.61 411.29 4487.66 411.24C4487.66 411.25 4487.66 411.27 4487.66 411.28C4487.63 411.47 4487.69 411.62 4487.8 411.72C4487.56 412.17 4487.23 412.56 4486.89 412.95H4486.88Z" fill="#FFFAD7"/>
<path d="M4119.03 518.211C4108.11 500.321 4097.56 482.211 4087.39 463.891C4077.22 445.571 4067.43 427.041 4058.02 408.311C4048.61 389.581 4039.59 370.661 4030.97 351.561C4022.29 332.341 4014.01 312.941 4006.14 293.371C4002.35 283.951 3998.43 274.531 3995.1 264.941C3992.19 256.551 3989.66 246.941 3992.39 238.171C3992.93 236.431 3993.7 234.801 3994.65 233.261C3997.26 230.871 4000.31 228.921 4003.4 227.201C4006.26 225.611 4009.2 224.161 4012.11 222.681C4015.38 221.021 4018.66 219.371 4021.94 217.741C4034.88 211.351 4048.08 205.351 4061.89 201.101C4069.59 198.731 4077.48 196.911 4085.48 195.891C4086.11 195.811 4086.12 194.811 4085.48 194.891C4084.41 195.031 4083.34 195.181 4082.27 195.341C4082.26 195.101 4082.1 194.871 4081.79 194.871C4069.31 195.071 4056.83 193.871 4044.62 191.251C4034.44 189.061 4023.21 185.641 4017.19 176.451C4014.18 171.861 4012.69 166.171 4014.24 160.791C4014.29 160.601 4014.24 160.451 4014.13 160.341C4016.09 154.221 4019.65 148.331 4022.69 143.141C4029.07 132.261 4035.67 121.511 4042.46 110.881C4049.28 100.211 4056.3 89.671 4063.52 79.261C4070.71 68.901 4078.09 58.6709 4085.67 48.591C4092.94 38.9109 4100.39 29.3709 4108.01 19.9609L4109.31 18.771C4109.49 18.601 4109.5 18.401 4109.41 18.231C4110.32 17.121 4111.22 16.001 4112.14 14.891C4112.54 14.401 4111.84 13.681 4111.43 14.181C4110.05 15.861 4108.69 17.541 4107.33 19.231C4098.77 27.111 4090.21 34.981 4081.59 42.791C4072.57 50.961 4063.49 59.0609 4054.28 67.0309C4045.05 75.0109 4035.71 82.861 4026.18 90.481C4016.67 98.091 4006.99 105.491 3997.09 112.581C3994.26 114.611 3991.4 116.611 3988.53 118.591C3988.43 118.321 3988.14 118.121 3987.83 118.311C3983.13 121.261 3978.44 124.221 3973.74 127.171C3972.99 127.571 3972.26 127.991 3971.54 128.431C3971.52 128.061 3971.03 127.731 3970.69 128.081C3964.21 134.431 3953.74 134.431 3945.87 130.901C3936.44 126.671 3929.67 118.331 3923.25 110.531C3915.94 101.651 3908.9 92.561 3902.06 83.311C3895.27 74.121 3888.68 64.7809 3882.24 55.341C3875.8 45.901 3869.5 36.361 3863.28 26.761C3862.51 25.571 3861.74 24.381 3860.97 23.191C3860.62 22.651 3859.76 23.151 3860.11 23.691C3860.58 24.421 3861.06 25.1509 3861.54 25.8809C3861.43 25.9909 3861.37 26.141 3861.44 26.331C3864.26 34.121 3867.07 41.911 3869.82 49.721C3872.58 57.571 3875.27 65.451 3877.81 73.371C3880.34 81.251 3882.73 89.171 3884.9 97.151C3887.08 105.191 3889.08 113.291 3890.71 121.451C3892.36 129.671 3893.57 138.021 3893.54 146.421C3893.54 147.271 3893.51 148.121 3893.48 148.971C3892.49 150.481 3890.93 151.691 3889.26 152.331C3885.32 153.841 3880.87 152.481 3877.09 151.131C3868.79 148.181 3860.56 145.031 3852.29 141.981C3835.62 135.821 3818.95 129.671 3802.28 123.511C3785.69 117.381 3769.09 111.251 3752.5 105.131C3735.91 99.001 3719.31 92.871 3702.72 86.751C3686.13 80.621 3669.53 74.491 3652.94 68.371C3651.35 67.781 3649.76 67.201 3648.17 66.611C3648.09 66.551 3648 66.491 3647.92 66.431C3647.78 66.321 3647.64 66.321 3647.52 66.371C3647.23 66.261 3646.95 66.161 3646.66 66.051C3646.06 65.831 3645.79 66.791 3646.39 67.011C3646.83 67.171 3647.26 67.3309 3647.7 67.4909C3661.3 77.4209 3677.47 83.2909 3692.94 89.591C3709.48 96.3309 3726.08 102.891 3742.67 109.521C3759.28 116.151 3775.86 122.841 3792.33 129.811C3808.75 136.761 3825.06 144.001 3841.13 151.731C3848.9 155.471 3856.75 159.181 3864.29 163.361C3869.9 166.471 3876.41 170.771 3878.37 177.251C3878.48 177.631 3878.58 178.011 3878.65 178.401C3878.48 178.421 3878.32 178.531 3878.27 178.751C3875.59 190.271 3869.65 200.601 3863.37 210.491C3857.53 219.681 3851.3 228.621 3844.79 237.341C3831.73 254.831 3817.53 271.441 3802.89 287.631C3788.25 303.811 3773.17 319.571 3758.23 335.471C3743.27 351.381 3728.43 367.431 3714.35 384.141C3700.4 400.691 3687.19 417.901 3675.46 436.111C3674.03 438.321 3672.63 440.551 3671.25 442.791C3671.22 442.841 3671.21 442.891 3671.2 442.931C3670.14 444.141 3669.08 445.341 3668.03 446.551C3667.61 447.031 3668.31 447.741 3668.74 447.261C3681.28 432.871 3694.1 418.731 3707.21 404.851C3720.31 390.971 3733.69 377.351 3747.33 364.001C3760.97 350.651 3774.88 337.571 3789.03 324.771C3803.19 311.971 3817.6 299.451 3832.26 287.221C3839.56 281.131 3846.9 275.081 3854.35 269.161C3861.19 263.721 3868.83 258.081 3877.68 256.711C3878.94 256.511 3880.2 256.441 3881.47 256.451C3884.78 257.521 3887.48 260.131 3889.22 263.111C3891.71 267.371 3892.36 272.441 3892.85 277.261C3893.93 287.931 3894.74 298.631 3895.34 309.341C3895.95 320.031 3896.33 330.731 3896.49 341.441C3896.65 352.201 3896.58 362.961 3896.29 373.711C3896 384.461 3895.48 395.211 3894.74 405.951C3894.65 407.271 3894.55 408.591 3894.46 409.921C3894.41 410.561 3895.41 410.561 3895.46 409.921C3895.46 409.881 3895.46 409.841 3895.46 409.801C3895.71 409.971 3896.13 409.931 3896.26 409.551C3899.63 399.611 3903 389.661 3906.03 379.611C3909.05 369.581 3911.57 359.441 3913.8 349.211C3916.01 339.081 3918.24 328.951 3921.68 319.161C3923.42 314.191 3925.4 309.311 3927.47 304.471C3929.27 300.251 3931.01 295.971 3933.09 291.871C3935.57 286.971 3939 281.371 3943.99 278.591C3958.1 280.901 3968.03 293.851 3975.56 305.101C3986.7 321.741 3997.45 338.651 4008.38 355.431C4019.52 372.521 4030.65 389.611 4041.79 406.701C4052.93 423.791 4064.06 440.881 4075.2 457.971C4086.34 475.061 4097.47 492.151 4108.61 509.241C4109.99 511.361 4111.37 513.481 4112.75 515.601C4113.02 516.021 4113.59 515.811 4113.68 515.441C4114.85 516.871 4116.02 518.301 4117.19 519.731C4117.55 520.161 4118.31 519.581 4117.98 519.121C4117.34 518.241 4116.7 517.361 4116.06 516.491C4116.8 517.261 4117.53 518.031 4118.27 518.801C4118.66 519.211 4119.35 518.681 4119.06 518.191L4119.03 518.211Z" fill="#FFFAD7"/>
<path d="M3512.05 19.1597C3508.4 23.3297 3504.79 27.5397 3501.22 31.7797C3494.43 38.5197 3487.52 45.1497 3480.48 51.6397C3471.91 59.5397 3463.17 67.2497 3454.26 74.7597C3445.35 82.2697 3436.27 89.5797 3427.04 96.6897C3417.8 103.8 3408.41 110.7 3398.86 117.38C3390.91 122.95 3382.85 128.36 3374.7 133.63C3373.31 133.93 3371.96 134.41 3370.7 135.06C3370.61 135.03 3370.51 135.01 3370.4 135.06C3361.47 137.89 3352.81 132.85 3346.23 127.17C3342.62 124.05 3339.41 120.52 3336.23 116.97C3332.71 113.04 3329.23 109.08 3325.78 105.09C3318.88 97.1097 3312.1 89.0297 3305.46 80.8297C3298.82 72.6397 3292.31 64.3397 3285.94 55.9397C3279.78 47.8197 3273.76 39.5997 3267.86 31.2997C3267.8 31.1597 3267.73 31.0197 3267.67 30.8797C3267.6 30.7297 3267.49 30.6497 3267.37 30.6297C3267.32 30.5597 3267.27 30.4897 3267.22 30.4297C3266.47 29.3697 3265.72 28.3097 3264.97 27.2497C3264.6 26.7297 3263.74 27.2297 3264.11 27.7497C3265.04 29.0797 3266 30.3897 3266.94 31.7097C3270.61 39.8497 3274.1 48.0697 3277.4 56.3597C3280.73 64.7297 3283.88 73.1797 3286.84 81.6897C3289.8 90.1997 3292.56 98.7797 3295.14 107.41C3297.71 116.04 3300.1 124.74 3302.28 133.48C3303.13 136.89 3303.9 140.34 3303.96 143.87C3304.02 147.04 3303.5 150.41 3301.52 153C3301.41 153.15 3301.27 153.28 3301.15 153.42C3300.65 153.64 3300.14 153.83 3299.62 153.97C3296.36 154.88 3292.92 154.35 3289.69 153.57C3282.85 151.91 3276.09 149.85 3269.32 147.95C3255.63 144.09 3241.97 140.13 3228.33 136.06C3214.76 132.01 3201.23 127.86 3187.72 123.6C3174.22 119.34 3160.75 114.98 3147.31 110.52C3133.81 106.03 3120.35 101.45 3106.92 96.7497C3105.28 96.1797 3103.64 95.5997 3102 95.0297C3101.75 94.9397 3101.56 95.0597 3101.47 95.2397C3091.73 91.0397 3082.01 86.7997 3072.31 82.4997C3070.34 81.6197 3068.36 80.7497 3066.39 79.8697C3065.81 79.6097 3065.3 80.4697 3065.89 80.7297C3081.4 87.6497 3096.97 94.4397 3112.6 101.11C3128.13 107.74 3143.71 114.24 3159.35 120.62C3175.08 127.04 3190.86 133.33 3206.69 139.49C3222.24 145.54 3237.88 151.36 3253.47 157.29C3263.78 161.21 3275.17 165.99 3282.29 174.79C3282.65 175.85 3283.01 176.92 3283.37 177.98C3283.26 178.06 3283.19 178.18 3283.21 178.37C3285.25 197.23 3272.69 213.58 3261.72 227.55C3249.74 242.79 3237.51 257.83 3225.27 272.86C3213.02 287.89 3200.77 302.91 3188.74 318.12C3176.76 333.27 3165 348.61 3153.74 364.31C3142.47 380.01 3131.7 396.08 3121.71 412.63C3120.46 414.69 3119.23 416.76 3118.01 418.84C3117.68 419.4 3118.55 419.9 3118.87 419.34C3118.96 419.18 3119.06 419.02 3119.15 418.87C3119.21 419.17 3119.62 419.37 3119.92 419.2C3120 419.55 3120.57 419.75 3120.86 419.36C3131.29 405.15 3142.08 391.21 3153.23 377.56C3164.27 364.05 3175.65 350.83 3187.36 337.9C3199.15 324.89 3211.27 312.18 3223.71 299.8C3236.04 287.53 3248.65 275.52 3261.63 263.93C3267.73 258.48 3274.36 252.99 3282.41 250.78C3286.94 249.53 3292.11 249.53 3296.63 251.14C3300.93 256.22 3302.78 263.06 3303.55 269.64C3304.04 273.85 3304.16 278.1 3304.16 282.34C3304.16 288.11 3304.16 293.88 3304.16 299.64C3304.16 311.32 3304.16 323 3304.15 334.69C3304.15 346.32 3304.15 357.95 3304.14 369.58C3304.14 381.26 3304.14 392.94 3304.13 404.63C3304.13 406.08 3304.13 407.54 3304.13 408.99C3304.13 409.56 3304.95 409.66 3305.11 409.12C3311.32 389.08 3317.53 369.05 3323.74 349.01C3326.86 338.94 3329.98 328.87 3333.1 318.8C3334.66 313.77 3336.22 308.73 3337.78 303.7C3339.22 299.06 3340.55 294.38 3342.14 289.79C3343.69 285.32 3345.84 280.57 3349.87 277.8C3351.66 276.57 3353.79 275.72 3355.95 275.5C3367.48 285.34 3377.46 296.84 3386.38 309.08C3395.86 322.1 3404.21 335.88 3412.5 349.67C3421.4 364.48 3430.43 379.2 3439.95 393.63C3449.77 408.5 3460 423.1 3470.63 437.4C3481.2 451.63 3492.16 465.58 3503.5 479.22C3504.92 480.93 3506.35 482.64 3507.79 484.34C3508.21 484.83 3508.91 484.12 3508.5 483.63C3507.84 482.85 3507.19 482.05 3506.54 481.27C3506.83 481.2 3507.08 480.88 3506.88 480.54C3497.39 464.03 3488.13 447.39 3479.11 430.62C3470.13 413.92 3461.4 397.09 3452.91 380.13C3444.42 363.18 3436.17 346.1 3428.18 328.91C3420.18 311.72 3412.43 294.41 3404.93 276.99C3401.65 269.37 3397.98 261.77 3395.98 253.69C3394.35 247.14 3393.58 239.46 3397.18 233.39C3397.46 232.93 3397.76 232.49 3398.08 232.06C3405.38 225.99 3414.74 222.4 3423.45 218.91C3437.82 213.16 3452.18 207.4 3466.55 201.65C3474.66 198.4 3482.77 195.15 3490.88 191.91C3490.91 191.9 3490.93 191.88 3490.96 191.86C3491.88 192.01 3492.81 192.16 3493.73 192.3C3494.36 192.4 3494.63 191.43 3494 191.34C3481.28 189.38 3468.63 186.96 3456.09 184.06C3449.86 182.62 3443.66 181.07 3437.48 179.4C3432.05 177.93 3426.46 176.41 3421.79 173.15C3417.97 170.49 3414.78 166.23 3414.23 161.54C3415.89 153.8 3419.83 146.5 3423.93 139.78C3430.19 129.52 3436.83 119.48 3443.58 109.53C3450.36 99.5297 3457.34 89.6597 3464.51 79.9297C3471.71 70.1597 3479.1 60.5297 3486.68 51.0497C3491.68 44.7897 3496.78 38.6097 3501.94 32.4897C3502.4 32.0297 3502.87 31.5797 3503.33 31.1197C3504.34 30.1097 3505.35 29.0997 3506.36 28.0797C3506.6 27.8397 3506.51 27.5197 3506.31 27.3497C3507.47 25.9997 3508.62 24.6397 3509.79 23.2997C3510.78 22.1497 3511.78 21.0097 3512.78 19.8697C3513.2 19.3897 3512.5 18.6797 3512.07 19.1597H3512.05Z" fill="#FFFAD7"/>
<path d="M2893.99 34.0702C2892.48 36.0202 2890.99 37.9902 2889.49 39.9502C2881.64 47.6302 2873.72 55.2502 2865.72 62.7902C2857.42 70.6202 2849.04 78.3702 2840.59 86.0402C2832.11 93.7402 2823.55 101.36 2814.92 108.89C2806.32 116.4 2797.65 123.82 2788.91 131.16C2784.88 134.55 2780.78 137.9 2776.19 140.5C2771.9 142.93 2767.07 144.74 2762.08 144.47C2756.15 142.39 2751.33 138 2747.19 133.33C2744.6 130.41 2742.2 127.34 2739.76 124.29C2736.9 120.72 2734.04 117.15 2731.18 113.58C2725.49 106.47 2719.8 99.3702 2714.11 92.2602C2708.42 85.1502 2702.73 78.0502 2697.04 70.9402C2691.32 63.8002 2685.61 56.6602 2679.89 49.5202C2679.54 49.0802 2679.18 48.6402 2678.83 48.2002C2678.52 47.5602 2678.21 46.9202 2677.9 46.2902C2677.62 45.7102 2676.75 46.2202 2677.04 46.7902C2677.06 46.8302 2677.08 46.8702 2677.1 46.9202C2676.95 47.1002 2676.89 47.3702 2677.08 47.6002L2677.96 48.7002C2681.31 55.6102 2684.54 62.5702 2687.62 69.6002C2691 77.3102 2694.22 85.0902 2697.28 92.9402C2700.32 100.75 2703.2 108.63 2705.92 116.56C2708.64 124.49 2711.18 132.48 2713.57 140.52C2714.77 144.58 2716.28 148.77 2716.36 153.05C2716.42 156.4 2715.37 159.95 2712.71 162.14C2712.69 162.16 2712.67 162.17 2712.65 162.18C2702.36 165.58 2690.92 164.1 2680.39 162.67C2667.9 160.97 2655.52 158.52 2643.23 155.68C2630.98 152.85 2618.81 149.64 2606.66 146.41C2594.5 143.17 2582.35 139.91 2570.11 136.98C2557.9 134.05 2545.6 131.45 2533.18 129.54C2532.39 129.42 2531.59 129.31 2530.8 129.19C2530.8 129.17 2530.83 129.15 2530.83 129.13C2530.89 128.87 2530.75 128.58 2530.48 128.51C2529.62 128.29 2528.76 128.07 2527.9 127.85C2527.65 127.78 2527.35 127.93 2527.29 128.2C2527.23 128.46 2527.37 128.75 2527.64 128.82C2527.74 128.85 2527.84 128.87 2527.93 128.9C2527.9 128.96 2527.89 129.02 2527.89 129.09C2527.89 129.12 2527.9 129.15 2527.91 129.19C2527.78 129.45 2527.85 129.78 2528.21 129.83C2528.38 129.85 2528.55 129.88 2528.72 129.9C2528.78 129.98 2528.85 130.04 2528.96 130.08C2540.45 133.94 2551.94 137.8 2563.43 141.67C2574.87 145.51 2586.31 149.36 2597.75 153.2L2632.22 164.79C2643.66 168.63 2655.1 172.48 2666.54 176.32C2671.49 177.98 2676.56 179.47 2681.37 181.53C2684.86 183.03 2688.37 184.96 2690.93 187.82C2691.7 200.67 2687.86 213.29 2682.74 224.96C2677.54 236.82 2671.21 248.2 2664.62 259.34C2658.04 270.46 2651.07 281.34 2644.1 292.22C2637.16 303.05 2630.21 313.87 2623.65 324.94C2617.3 335.65 2611.31 346.6 2606.08 357.91C2605.66 358.62 2605.23 359.33 2604.82 360.04C2604.7 360.25 2604.74 360.45 2604.86 360.59C2604.45 361.51 2604.03 362.43 2603.63 363.35C2603.37 363.93 2604.24 364.44 2604.49 363.85C2605.27 362.07 2606.07 360.3 2606.89 358.53C2612.52 349.06 2618.57 339.85 2624.99 330.9C2631.87 321.31 2639.13 312.01 2646.66 302.93C2654.19 293.85 2661.97 284.99 2669.91 276.26C2677.88 267.49 2686 258.87 2694.17 250.29C2698.19 246.06 2702.17 241.79 2706.27 237.63C2708.23 235.65 2710.32 233.76 2712.67 232.26C2714.32 231.2 2716.15 230.31 2718.08 229.92C2721.1 231.28 2722.87 234.22 2723.88 237.3C2725.15 241.18 2725.43 245.3 2725.86 249.33C2726.97 259.82 2728.09 270.31 2729.2 280.8C2730.32 291.34 2731.44 301.88 2732.56 312.42C2733.67 322.91 2734.79 333.4 2735.9 343.89C2737.02 354.43 2738.14 364.97 2739.26 375.51L2739.67 379.39C2739.7 379.7 2739.97 379.86 2740.21 379.87C2740.16 380.39 2740.11 380.91 2740.06 381.43C2740 382.07 2741 382.07 2741.06 381.43C2741.83 373.02 2742.77 364.62 2743.88 356.25C2744.99 347.84 2746.28 339.45 2747.73 331.09C2749.17 322.77 2750.79 314.47 2752.56 306.21C2753.45 302.08 2754.38 297.96 2755.35 293.85C2756.28 289.91 2757.17 285.95 2758.3 282.07C2759.32 278.55 2760.69 274.95 2763.19 272.2C2765.29 269.89 2768.27 268.13 2771.44 267.97C2779.63 272.56 2785.95 279.74 2791.79 286.96C2798.81 295.64 2805.69 304.45 2812.52 313.28C2819.5 322.31 2826.4 331.4 2833.22 340.55C2839.99 349.63 2846.68 358.77 2853.28 367.97C2859.89 377.17 2866.41 386.43 2872.86 395.74C2873.66 396.9 2874.46 398.05 2875.25 399.21C2875.61 399.74 2876.48 399.24 2876.11 398.71C2874.73 396.7 2873.32 394.7 2871.93 392.7C2872.19 392.59 2872.37 392.31 2872.18 392.01C2865.56 381.59 2859.38 370.89 2853.59 359.98C2847.83 349.12 2842.46 338.05 2837.41 326.84C2832.33 315.55 2827.59 304.12 2823.1 292.58C2818.62 281.05 2814.4 269.41 2810.37 257.71C2809.38 254.84 2808.4 251.96 2807.44 249.08C2806.43 246.06 2805.39 243.03 2804.72 239.91C2803.57 234.52 2803.68 228.49 2807.08 223.89C2807.27 223.63 2807.47 223.38 2807.69 223.13C2815.73 216.66 2825.25 212.23 2834.63 208.09C2845.1 203.46 2855.81 199.39 2866.58 195.5C2872.25 193.46 2877.95 191.47 2883.64 189.48C2884.52 189.62 2885.4 189.77 2886.28 189.91C2886.91 190.01 2887.18 189.04 2886.55 188.95C2886.05 188.87 2885.55 188.79 2885.04 188.71C2885.09 188.38 2884.85 188.01 2884.44 188.15C2884.14 188.26 2883.83 188.36 2883.53 188.47C2871.66 186.58 2859.83 184.44 2848.05 182.01C2841.7 180.7 2835.38 179.32 2829.06 177.85C2826.01 177.14 2822.85 176.56 2819.89 175.51C2817.53 174.67 2815.48 173.32 2813.89 171.38C2811.27 168.18 2810.11 163.72 2810.95 159.66C2811.16 159.74 2811.4 159.71 2811.54 159.46C2816.37 150.96 2821.31 142.52 2826.37 134.16C2831.41 125.83 2836.57 117.57 2841.85 109.39C2847.12 101.2 2852.51 93.0902 2858.01 85.0602C2863.53 76.9902 2869.17 69.0002 2874.91 61.0902C2879.9 54.2202 2884.99 47.4202 2890.15 40.6702C2890.5 40.3302 2890.85 39.9802 2891.21 39.6402C2891.37 39.4802 2891.38 39.3002 2891.32 39.1402C2891.69 38.6602 2892.04 38.1802 2892.41 37.7002C2893.17 36.7102 2893.93 35.7202 2894.7 34.7402C2895.09 34.2402 2894.39 33.5202 2893.99 34.0302V34.0702Z" fill="#FFFAD7"/>
<path d="M2247.74 190.21C2247.36 190.23 2246.97 190.24 2246.58 190.26C2246.6 189.95 2246.35 189.61 2245.96 189.72C2245.19 189.92 2244.43 190.14 2243.66 190.35C2236.32 190.45 2228.87 189.62 2221.84 187.59C2215.63 185.8 2208.84 182.47 2206.3 176.09C2203.07 167.97 2207.78 159.17 2211.11 151.9C2214.98 143.46 2218.85 135.03 2222.72 126.59L2234.38 101.17C2234.69 100.5 2234.99 99.8302 2235.3 99.1602C2235.49 98.9702 2235.68 98.7802 2235.87 98.5902C2236.09 98.3602 2236.03 98.0702 2235.86 97.9002C2236.01 97.3602 2235.23 96.9302 2234.98 97.4802C2234.81 97.8402 2234.65 98.2002 2234.48 98.5702C2226.1 107.02 2217.52 115.28 2208.74 123.3C2199.75 131.52 2190.54 139.51 2181.14 147.27C2176.2 151.35 2171.19 155.35 2166.14 159.3C2166.01 159.11 2165.78 159.02 2165.54 159.2C2161.27 162.45 2155.67 163 2150.56 161.82C2145 160.54 2140.27 157.22 2136.21 153.33C2131.77 149.07 2127.94 144.18 2123.98 139.48C2119.55 134.21 2115.11 128.95 2110.68 123.68C2106.3 118.48 2101.93 113.28 2097.55 108.08C2096.97 106.68 2096.41 105.26 2095.88 103.84C2095.66 103.24 2094.69 103.5 2094.92 104.11C2095.13 104.69 2095.37 105.27 2095.59 105.85C2095.19 105.7 2094.72 106.27 2095.07 106.69C2095.61 107.34 2096.16 107.98 2096.7 108.63C2099.65 115.72 2103.22 122.54 2106.98 129.23C2111.52 137.33 2116.31 145.29 2120.54 153.55C2122.37 157.12 2124.12 160.77 2125.29 164.6C2125.29 164.6 2125.29 164.58 2125.28 164.58C2124.91 164.06 2124.04 164.56 2124.42 165.08C2126.73 168.32 2125.21 172.75 2122.55 175.27C2119.18 178.46 2114.06 179 2109.66 179.42C2098.85 180.45 2088.02 181.36 2077.16 181.57C2070.99 181.69 2064.81 181.57 2058.65 181.1C2058.56 181.1 2058.48 181.11 2058.42 181.14C2051.5 180.43 2044.57 179.86 2037.63 179.45C2028.54 178.91 2019.44 178.63 2010.33 178.61C2009.69 178.61 2009.69 179.61 2010.33 179.61C2026.33 179.66 2042.32 180.49 2058.23 182.11C2066.18 182.92 2074.12 183.93 2082.02 185.14C2088.81 186.18 2095.66 187.21 2102.28 189.1C2108.12 190.77 2113.8 193.22 2118.52 197.05C2121.02 200.76 2120.39 205.7 2119.23 209.85C2118.48 212.54 2117.43 215.13 2116.43 217.74C2115.27 220.77 2114.11 223.79 2112.95 226.82L2098.85 263.59L2094.92 273.83C2094.6 274.66 2094.14 275.53 2093.94 276.39C2093.85 276.78 2093.99 277.12 2094.34 277.28C2094.1 277.82 2094.91 278.28 2095.22 277.74C2100.19 268.81 2105.1 259.86 2110.13 250.96C2112.42 246.91 2114.82 242.9 2117.67 239.21C2120.36 235.74 2123.48 232.35 2127.4 230.26C2130.62 228.54 2134.56 227.9 2137.99 229.09C2138.29 229.37 2138.59 229.66 2138.86 229.98C2140.84 232.29 2141.64 235.38 2142.14 238.31C2142.69 241.56 2143.04 244.85 2143.41 248.12C2143.8 251.56 2144.15 255 2144.46 258.45C2144.8 262.31 2145.09 266.17 2145.32 270.03C2145.35 270.47 2146.03 270.77 2146.25 270.28C2150.91 259.73 2156.29 247.91 2167.65 243.2C2167.68 243.19 2167.71 243.18 2167.73 243.17C2171.56 242.43 2175.57 242.65 2179.29 243.9C2184.37 245.61 2188.53 249.18 2192.34 252.83C2201.2 261.32 2209.88 270 2218.65 278.58L2233.63 293.25C2233.76 293.38 2233.91 293.41 2234.05 293.38C2234.56 294.33 2235.07 295.28 2235.58 296.22C2235.88 296.79 2236.75 296.28 2236.44 295.72C2232.18 287.78 2227.93 279.83 2223.98 271.73C2220.03 263.65 2216.38 255.42 2213.32 246.95C2210.42 238.9 2207.91 230.22 2208.98 221.58C2209.96 213.71 2214.36 207.02 2220.45 202.09C2227.02 196.77 2235.12 193.8 2243.16 191.52C2243.37 191.46 2243.59 191.4 2243.81 191.34C2243.96 191.34 2244.11 191.34 2244.26 191.34C2245.42 191.32 2246.58 191.27 2247.74 191.2C2248.38 191.16 2248.38 190.16 2247.74 190.2V190.21Z" fill="#FFFAD7"/>
<path d="M1600.27 179.001C1597.32 180.421 1594.28 181.651 1591.17 182.661C1589.63 183.161 1588.07 183.611 1586.5 184.011C1585.06 184.381 1583.56 184.831 1582.07 184.861C1580.7 184.891 1579.41 184.391 1578.98 182.981C1578.59 181.681 1578.86 180.261 1579.05 178.951C1579.54 175.511 1580.04 172.081 1580.53 168.641L1582.19 157.101C1582.26 156.601 1581.52 156.141 1581.28 156.711C1579.65 160.481 1577.67 164.091 1575.35 167.481C1573.08 170.791 1570.51 174.111 1567.5 176.781C1566.15 177.981 1564.57 179.011 1562.79 179.241C1562.72 179.201 1562.65 179.171 1562.55 179.161C1561.32 179.041 1560.12 178.761 1558.96 178.341C1558.87 178.311 1558.77 178.321 1558.68 178.351C1558.28 178.161 1557.89 177.931 1557.51 177.671C1557.36 177.571 1557.17 177.591 1557.02 177.671C1555.44 176.401 1553.87 175.101 1552.3 173.811C1548.77 170.931 1545.25 168.061 1541.72 165.181C1541.5 164.791 1541.29 164.401 1541.06 164.021C1540.75 163.491 1539.95 163.931 1540.17 164.461C1539.94 164.631 1539.84 164.941 1540.12 165.171C1540.39 165.391 1540.66 165.611 1540.93 165.831C1542.74 169.021 1544.44 172.281 1545.99 175.611C1546.87 177.501 1547.78 179.411 1548.5 181.381C1549.08 182.961 1549.64 184.941 1548.76 186.521C1547.83 188.181 1545.6 188.741 1543.95 189.391C1541.96 190.171 1539.97 190.921 1537.96 191.661C1533.92 193.151 1529.85 194.561 1525.75 195.891C1521.16 197.381 1516.53 198.781 1511.87 200.071C1511.34 200.221 1511.43 201.101 1512 201.051C1518.28 200.511 1524.57 200.071 1530.86 199.751C1534.03 199.591 1537.2 199.451 1540.37 199.341C1543.13 199.251 1545.91 199.151 1548.67 199.371C1550.17 199.491 1551.67 199.711 1553.12 200.091C1558.15 204.921 1561.26 211.651 1561.74 218.611C1561.74 218.751 1561.74 218.891 1561.76 219.021C1561.49 220.941 1561.44 222.901 1561.47 224.831C1561.47 225.371 1562.36 225.541 1562.45 224.961C1562.45 224.921 1562.46 224.871 1562.47 224.831C1562.76 222.911 1562.85 220.971 1562.75 219.041C1563.19 215.851 1564.25 212.771 1566.63 210.581C1571.2 206.391 1578.02 208.051 1583.23 209.861C1586.7 211.061 1590.14 212.411 1593.83 212.751C1594.38 212.801 1594.43 212.081 1594.08 211.821C1589.35 208.271 1585.34 203.791 1582.34 198.691C1581.61 197.461 1580.58 196.001 1580.58 194.521C1580.58 193.201 1581.52 192.171 1582.49 191.391C1583.69 190.421 1585.08 189.661 1586.39 188.851C1587.87 187.921 1589.35 187.001 1590.83 186.071C1594.14 184.001 1597.46 181.921 1600.77 179.851C1601.32 179.511 1600.84 178.711 1600.27 178.991V179.001Z" fill="#FFFAD7"/>
<defs>
<clipPath id="clip0_226_1603">
<rect width="592.91" height="575.82" fill="white" transform="translate(5929.1)"/>
</clipPath>
</defs>
</svg>
