<svg width="9330" height="625" viewBox="0 0 9330 625" fill="none" xmlns="http://www.w3.org/2000/svg">
<path d="M832.23 296.24L822.29 294.43C823.46 291.8 824.72 289.22 826.11 286.7C826.37 286.22 825.71 285.65 825.32 286.09C823.73 287.93 822.15 289.78 820.56 291.62C820.06 292.2 819.15 293.72 818.23 293.49C817.4 293.28 817.31 291.86 817.23 291.2C816.65 286.42 816.44 281.61 816.58 276.8C816.6 276.15 815.63 276.17 815.58 276.8C815.37 279.32 815.06 281.83 814.62 284.33C814.25 286.46 813.86 288.63 813.14 290.68C812.5 292.5 811.45 294.31 809.72 295.28C808.16 296.15 806.05 296.38 804.59 295.17C804.1 294.76 803.39 295.47 803.88 295.88C805.29 297.05 807.1 297.23 808.76 296.75C808.79 296.98 808.94 297.19 809.23 297.19C812.08 297.25 813.9 301.28 812.01 303.44C811.62 303.89 812.1 304.45 812.62 304.23C814.48 303.43 816.14 302.24 817.52 300.76C820.08 302.33 822.22 304.49 823.76 307.08C823.98 307.45 824.56 307.37 824.67 306.96C825 305.81 824.53 304.7 823.96 303.72C823.39 302.75 822.46 301.77 822.23 300.64C822.12 300.13 822.31 299.7 822.75 299.42C823.16 299.16 823.68 299.09 824.14 298.99C824.65 298.88 825.17 298.76 825.68 298.65C827.86 298.17 830.03 297.69 832.21 297.22C832.68 297.12 832.7 296.34 832.21 296.26L832.23 296.24Z" fill="#FFFAD7"/>
<path d="M4965.33 476.12C4943.91 463.94 4922.49 451.75 4901.07 439.57C4879.65 427.39 4858.23 415.2 4836.81 403.02C4815.39 390.84 4793.97 378.65 4772.55 366.47C4751.22 354.34 4729.9 342.21 4708.57 330.08C4689.89 319.46 4670.12 309.37 4654.75 294.06C4653.58 292.9 4652.46 291.69 4651.35 290.47C4651.35 290.14 4651.33 289.81 4651.35 289.48C4651.57 285.13 4653.97 281.57 4657.3 278.9C4660.93 275.98 4665.33 274.18 4669.58 272.37C4674.93 270.1 4680.29 267.83 4685.65 265.57C4706.54 256.77 4727.49 248.08 4748.48 239.52C4769.38 230.99 4790.34 222.58 4811.33 214.29C4832.42 205.96 4853.55 197.75 4874.73 189.66C4895.91 181.57 4917.14 173.6 4938.41 165.75C4941.02 164.79 4943.64 163.82 4946.25 162.86C4946.39 162.81 4946.49 162.71 4946.54 162.6C4947.76 162.33 4948.98 162.06 4950.21 161.79C4950.84 161.65 4950.57 160.69 4949.94 160.83C4928.92 165.45 4907.91 170.14 4886.92 174.9C4865.93 179.66 4844.95 184.49 4823.99 189.38C4803.03 194.27 4782.08 199.24 4761.16 204.27C4740.13 209.33 4719.11 214.45 4698.11 219.64C4677.72 224.68 4657.35 229.79 4637 234.96C4636.97 234.72 4636.76 234.52 4636.51 234.52C4635.62 234.51 4634.73 234.5 4633.85 234.49C4633.69 234.49 4633.57 234.56 4633.49 234.65C4633.45 234.65 4633.42 234.66 4633.39 234.67C4633.4 234.37 4633.15 234.04 4632.77 234.11C4627.2 235.22 4622.62 230.09 4621.41 225.12C4619.87 218.82 4623.36 212.38 4626.59 207.22C4630.29 201.32 4634.22 195.55 4638.09 189.75C4642.05 183.83 4646.03 177.92 4650.06 172.04C4658.1 160.28 4666.28 148.61 4674.59 137.04C4682.87 125.51 4691.27 114.08 4699.81 102.74C4708.42 91.2997 4717.16 79.9697 4726.02 68.7297C4727.1 67.3597 4728.18 65.9997 4729.26 64.6397C4729.42 64.4297 4729.39 64.1897 4729.28 64.0197C4729.34 63.9297 4729.38 63.8397 4729.39 63.7297C4729.42 63.3097 4729.09 62.9597 4728.7 62.8597C4728.65 62.8497 4728.6 62.8497 4728.55 62.8397L4731.55 59.7097C4731.99 59.2397 4731.29 58.5397 4730.84 58.9997C4718.83 71.5597 4706.81 84.1097 4694.8 96.6697C4682.79 109.23 4670.77 121.78 4658.76 134.34C4646.7 146.94 4634.65 159.54 4622.59 172.14L4586.55 209.81C4581.31 215.28 4576.2 220.95 4570.45 225.9C4567.01 228.86 4563.26 231.59 4559.15 233.55C4559.04 233.31 4558.75 233.13 4558.44 233.27C4551.42 236.62 4543.13 235.18 4536.53 231.51C4529.44 227.57 4524.22 221.03 4519.72 214.44C4514.66 207.03 4509.92 199.39 4505.04 191.86C4499.9 183.91 4494.76 175.96 4489.62 168.01L4459.01 120.68C4448.77 104.84 4438.53 89.0097 4428.29 73.1697C4418.09 57.3897 4407.89 41.6097 4397.68 25.8397C4396.4 23.8697 4395.13 21.8997 4393.85 19.9197C4393.5 19.3797 4392.64 19.8797 4392.99 20.4197C4393.54 21.2697 4394.09 22.1097 4394.63 22.9597C4394.42 23.0897 4394.3 23.3497 4394.46 23.6197C4394.47 23.6397 4394.49 23.6697 4394.5 23.6897C4394.46 23.7197 4394.42 23.7597 4394.4 23.8097C4394.21 23.2497 4394.02 22.6997 4393.82 22.1397C4393.61 21.5397 4392.64 21.7997 4392.86 22.4097C4399.14 40.5997 4405.38 58.8197 4411.56 77.0397C4417.71 95.1797 4423.82 113.34 4429.87 131.51C4435.95 149.77 4441.98 168.05 4447.97 186.35C4453.89 204.47 4459.83 222.6 4465.59 240.77C4471.19 258.42 4476.39 276.44 4477.49 295.02C4475.77 303.2 4471.69 310.75 4466.8 317.51C4460.72 325.91 4453.41 333.46 4446 340.68C4438.33 348.16 4430.25 355.22 4421.94 361.97C4413.54 368.79 4404.9 375.29 4396.13 381.63C4387.92 387.56 4379.6 393.35 4371.27 399.11C4370.3 399.48 4369.33 399.85 4368.36 400.22C4367.9 400.4 4367.95 401.01 4368.28 401.17C4367.68 401.58 4367.09 401.99 4366.49 402.4C4365.96 402.76 4366.46 403.63 4366.99 403.26C4368.55 402.18 4370.12 401.1 4371.68 400.02C4380.92 396.51 4390.2 393.09 4399.52 389.8C4409.87 386.15 4420.27 382.63 4430.71 379.26C4440.92 375.96 4451.15 372.71 4461.53 369.98C4471.84 367.27 4482.33 365.09 4492.96 364.18C4503.33 363.29 4513.84 363.64 4524.02 365.92C4540.26 370.73 4554.07 380.97 4565.71 393.15C4578.72 406.76 4589.31 422.44 4600.09 437.81C4606.26 446.6 4612.59 455.27 4619.27 463.69C4626.72 473.07 4634.48 482.19 4642.38 491.19C4658.72 509.81 4675.43 528.1 4692 546.51L4742.82 602.98C4744.07 604.36 4745.31 605.75 4746.56 607.13C4747.23 608.16 4747.89 609.2 4748.56 610.23C4748.84 610.66 4749.44 610.42 4749.49 610.03C4749.81 609.94 4750.05 609.51 4749.75 609.19C4748.96 608.31 4748.17 607.43 4747.37 606.55C4737.22 590.84 4727.22 575.03 4717.4 559.11C4706.92 542.12 4696.62 525.01 4686.52 507.79C4676.46 490.64 4666.59 473.38 4656.91 456.02C4647.19 438.58 4637.67 421.03 4628.34 403.38C4623.92 395.01 4618.72 386.56 4616.25 377.35C4614.18 369.63 4614.57 360.64 4619.85 354.21C4620.32 353.64 4620.83 353.12 4621.36 352.62C4643.74 353.3 4665.07 360.94 4685.76 368.92C4708.15 377.56 4730.5 386.28 4752.87 394.96C4775.23 403.64 4797.59 412.32 4819.95 421C4842.42 429.72 4864.88 438.44 4887.35 447.16C4909.82 455.88 4932.28 464.6 4954.75 473.32L4963.05 476.54C4963.34 476.65 4963.54 476.49 4963.62 476.26C4964.02 476.49 4964.42 476.72 4964.82 476.94C4965.38 477.26 4965.88 476.4 4965.32 476.08L4965.33 476.12ZM4724.8 68.1097C4724.8 68.1097 4724.84 68.0897 4724.86 68.0697C4725.24 67.7697 4725.57 67.4297 4725.89 67.0697C4726.17 66.7997 4726.46 66.5197 4726.74 66.2497C4726.16 66.9897 4725.59 67.7297 4725.01 68.4597C4724.99 68.3997 4724.95 68.3497 4724.91 68.2997C4724.85 68.2397 4724.78 68.1997 4724.71 68.1797C4724.74 68.1497 4724.77 68.1197 4724.8 68.0997V68.1097Z" fill="#FFFAD7"/>
<path d="M8354.77 326.369C8354.42 326.199 8354.08 326.019 8353.73 325.849C8346.63 320.629 8339.54 315.409 8332.44 310.189C8330.57 308.809 8328.7 307.439 8326.83 306.059C8325.23 304.879 8323.59 303.729 8322.09 302.419C8320.72 301.239 8319.44 299.919 8318.51 298.349C8317.49 296.629 8316.98 294.679 8316.97 292.689C8316.94 288.029 8319.18 283.619 8321.3 279.609C8321.6 279.039 8320.74 278.539 8320.44 279.109C8320.35 279.269 8320.27 279.439 8320.19 279.599C8320.09 279.599 8319.99 279.639 8319.9 279.709C8318.23 281.129 8316.49 282.459 8314.68 283.699C8312.93 284.899 8311.11 286.109 8309.19 287.009C8307.33 287.879 8305.11 288.339 8303.37 286.949C8301.9 285.779 8301.07 283.909 8300.21 282.279C8296.12 274.549 8292.69 266.469 8289.94 258.169C8288.4 253.499 8287.08 248.769 8285.97 243.979C8285.84 243.419 8285.05 243.579 8285 244.069C8284.75 244.069 8284.51 244.219 8284.54 244.549C8285.54 254.339 8286.53 264.139 8286.75 273.979C8286.85 278.459 8286.87 283.099 8284.85 287.219C8283.1 290.769 8280.24 293.679 8277.01 295.909C8272.83 298.799 8268.07 300.669 8263.37 302.499C8262.89 302.689 8262.97 303.359 8263.35 303.469C8263.41 303.719 8263.63 303.949 8263.96 303.899C8266.96 303.449 8270.03 303.419 8273.04 303.789C8274.54 303.969 8276.03 304.259 8277.49 304.659C8278.74 304.999 8279.99 305.439 8281.07 306.189C8283.2 307.669 8283.92 310.249 8284.38 312.669C8284.94 315.609 8285.41 318.579 8285.91 321.539C8287.99 333.829 8289.93 346.149 8291.73 358.479C8292.75 365.459 8293.72 372.449 8294.66 379.439C8294.74 380.069 8295.74 380.079 8295.66 379.439C8295.62 379.149 8295.58 378.859 8295.54 378.579C8295.82 378.769 8296.33 378.649 8296.35 378.189C8296.81 367.749 8297.39 357.319 8298.11 346.899C8298.77 337.239 8299.08 327.229 8302.33 318.009C8303.75 313.989 8306 308.819 8310.69 307.929C8310.88 307.889 8310.98 307.779 8311.02 307.649C8316.4 308.379 8321.45 310.679 8326.28 313.089C8332.23 316.049 8338.14 319.079 8344.08 322.069L8353.24 326.699L8354.19 327.399C8354.51 327.639 8354.83 327.399 8354.9 327.079C8355.08 326.859 8355.1 326.519 8354.78 326.359L8354.77 326.369Z" fill="#FFFAD7"/>
<path d="M8938.82 304.489C8934.22 303.469 8929.77 301.919 8925.52 299.889C8926.41 298.359 8927.43 296.899 8928.58 295.549C8928.91 295.159 8928.59 294.629 8928.09 294.709C8926.71 294.949 8926.02 296.129 8924.92 296.849C8924.38 297.199 8923.52 297.559 8922.99 296.999C8922.49 296.469 8922.34 295.449 8922.13 294.769C8921.12 291.569 8920.25 288.329 8919.52 285.059C8919.4 284.519 8918.48 284.629 8918.54 285.189C8918.76 287.299 8918.97 289.419 8919.19 291.529C8919.3 292.589 8919.41 293.639 8919.52 294.699C8919.62 295.659 8919.78 296.629 8919.76 297.589C8919.74 298.479 8919.47 299.309 8918.73 299.859C8918.12 300.309 8917.37 300.519 8916.64 300.669C8915.34 300.939 8914.02 301.099 8912.7 301.249C8912.27 301.149 8911.84 301.049 8911.41 300.949C8911.03 300.859 8910.78 301.179 8910.79 301.479C8910.76 301.479 8910.73 301.479 8910.69 301.489C8910.18 301.559 8909.95 302.339 8910.56 302.469C8911.38 302.649 8912.2 302.729 8913.03 302.719C8913.05 302.849 8913.12 302.969 8913.26 303.049C8914.44 303.799 8916 303.019 8917.08 303.969C8917.98 304.759 8918.25 306.139 8918.36 307.279C8918.52 308.939 8918.41 310.639 8918.41 312.309C8918.41 314.279 8918.4 316.249 8918.39 318.229C8918.39 318.789 8919.23 318.909 8919.37 318.359C8919.98 315.999 8920.72 313.669 8921.59 311.399C8922.05 310.189 8922.55 308.999 8923.08 307.819C8923.5 306.889 8923.92 305.909 8924.57 305.109C8926.18 303.129 8928.79 303.819 8930.97 304.179C8933.51 304.599 8936.05 305.019 8938.59 305.439C8939.21 305.539 8939.49 304.619 8938.86 304.479L8938.82 304.489Z" fill="#FFFAD7"/>
<path d="M7906.75 447.42C7893.1 439.62 7879.63 431.51 7866.36 423.1C7853.08 414.69 7840 405.97 7827.12 396.96C7814.29 387.98 7801.66 378.71 7789.25 369.15C7776.78 359.55 7764.54 349.67 7752.53 339.51C7746.64 334.53 7740.75 329.52 7735.03 324.35C7729.94 319.75 7724.88 314.69 7722.04 308.34C7721.34 306.77 7720.81 305.13 7720.43 303.44C7720.39 303.25 7720.26 303.15 7720.12 303.11C7720.59 301.93 7721.28 300.82 7722.06 299.89C7723.32 298.38 7724.8 297.08 7726.25 295.77C7727.84 294.34 7729.43 292.92 7731.04 291.51C7737.5 285.85 7744.12 280.37 7750.9 275.1C7754.74 272.11 7758.63 269.19 7762.57 266.34C7762.77 266.19 7762.81 265.98 7762.77 265.78C7763.26 265.56 7763.75 265.33 7764.22 265.08C7764.46 264.95 7764.53 264.62 7764.4 264.4C7764.26 264.16 7763.95 264.09 7763.72 264.22C7763.58 264.3 7763.43 264.36 7763.29 264.43C7763.18 264.36 7763.04 264.34 7762.9 264.37C7762.83 264.39 7762.76 264.42 7762.68 264.44C7762.67 264.41 7762.67 264.38 7762.65 264.36C7762.51 264.11 7762.21 264.06 7761.97 264.18C7761.92 264.21 7761.86 264.23 7761.81 264.26C7761.75 264.24 7761.7 264.22 7761.63 264.23C7761.45 264.24 7761.27 264.28 7761.1 264.33C7761.09 264.33 7761.08 264.33 7761.07 264.33C7755.26 265.4 7749.46 266.47 7743.65 267.54L7735.06 269.12C7732.39 269.61 7729.72 270.19 7727.03 270.57C7723.68 271.04 7719.1 271.28 7716.54 268.6C7714.84 266.81 7714.9 264.27 7715.22 261.98C7715.6 259.27 7716.11 256.57 7716.69 253.89C7718.02 247.73 7719.83 241.69 7722.09 235.81C7722.28 235.31 7721.59 235.02 7721.25 235.32C7714.39 241.38 7707.43 247.32 7700.37 253.15C7698.07 254.63 7695.77 256.1 7693.47 257.58C7692.63 258.07 7691.8 258.59 7691 259.16C7690.82 259.03 7690.59 259.01 7690.41 259.23C7688.85 261.1 7686.38 261.67 7684.04 261.28C7681.48 260.86 7679.4 259.36 7677.74 257.43C7675.89 255.28 7674.59 252.7 7673.27 250.21C7671.75 247.33 7670.24 244.44 7668.74 241.55C7662.68 229.89 7656.74 218.17 7650.93 206.38C7645.12 194.59 7639.44 182.75 7633.89 170.84C7628.34 158.93 7622.91 146.96 7617.62 134.94C7612.3 122.86 7607.11 110.71 7602.06 98.5202C7601.45 97.0402 7600.84 95.5602 7600.23 94.0802C7600.06 93.6602 7599.53 93.6802 7599.32 93.9302C7598.81 92.1502 7598.33 90.3702 7597.91 88.5602C7597.81 88.1202 7597.32 88.1302 7597.07 88.3702C7596.39 86.5402 7595.72 84.7102 7595.04 82.8802C7594.89 82.4702 7594.39 82.4702 7594.16 82.7002C7589.8 70.9302 7585.45 59.1602 7581.09 47.3902C7580.41 45.5602 7579.74 43.7302 7579.06 41.9102C7578.84 41.3102 7577.87 41.5702 7578.1 42.1802L7594.49 86.4802C7599.98 101.32 7605.47 116.15 7610.96 130.99C7616.39 145.66 7621.84 160.33 7627.24 175.01C7632.54 189.42 7637.72 203.88 7642.33 218.53C7644.65 225.92 7646.83 233.36 7648.79 240.85C7650.62 247.85 7652.46 255.22 7651.4 262.49C7651.15 264.21 7650.72 265.89 7650.13 267.53C7650.06 267.73 7650.13 267.9 7650.25 268C7647.38 273.78 7642.68 278.56 7637.61 282.57C7634.18 285.28 7630.53 287.69 7626.84 290.02C7622.3 292.9 7617.7 295.7 7613.06 298.41C7607.87 301.45 7602.61 304.39 7597.31 307.24C7597.26 307.27 7597.23 307.3 7597.2 307.33C7596.79 307.55 7597.06 308.32 7597.62 308.24C7614.03 306.03 7629.69 314.56 7640.47 326.41C7652.73 339.87 7658.32 357.72 7661.68 375.26C7663.46 384.55 7664.67 393.94 7666.02 403.3C7667.48 413.43 7669.08 423.54 7670.81 433.62C7674.3 453.87 7678.35 474.02 7682.96 494.05C7687.57 514.07 7692.74 533.97 7698.46 553.71C7698.56 554.07 7698.67 554.43 7698.78 554.79C7699.01 556.39 7699.23 558 7699.46 559.6C7699.76 561.7 7700.06 563.79 7700.36 565.89C7700.45 566.52 7701.42 566.25 7701.32 565.62C7701.11 564.14 7700.9 562.66 7700.69 561.17C7700.98 561.56 7701.73 561.3 7701.57 560.74C7700.94 558.62 7700.35 556.5 7699.73 554.38C7697.93 541.71 7696.17 529.03 7694.46 516.35C7692.26 499.95 7690.13 483.54 7688.09 467.12C7686.05 450.78 7684.1 434.43 7682.21 418.07C7680.33 401.76 7678.47 385.44 7676.82 369.11C7676.04 361.4 7675.47 353.34 7677.78 345.82C7679.58 339.99 7683.3 334.41 7688.73 331.43C7690.07 330.69 7691.5 330.15 7692.98 329.78C7693.52 329.64 7693.39 328.9 7692.94 328.81C7701.29 328.42 7709.58 330.49 7717.32 333.6C7726.57 337.32 7735.19 342.45 7743.8 347.43C7752.9 352.7 7761.96 358.04 7770.98 363.44C7779.96 368.82 7788.9 374.27 7797.8 379.78C7806.74 385.32 7815.64 390.92 7824.49 396.59C7825.6 397.3 7826.7 398.01 7827.81 398.72C7827.85 398.75 7827.89 398.75 7827.93 398.77C7838.69 406.28 7849.59 413.59 7860.63 420.68C7873.95 429.23 7887.47 437.48 7901.17 445.41C7902.85 446.38 7904.52 447.34 7906.21 448.31C7906.77 448.63 7907.27 447.77 7906.71 447.45L7906.75 447.42Z" fill="#FFFAD7"/>
<path d="M7302.39 455.521C7302.39 455.521 7302.36 455.501 7302.34 455.491C7302.34 455.371 7302.3 455.251 7302.17 455.151C7289.73 445.441 7277.28 435.731 7264.84 426.021C7252.44 416.351 7240.05 406.681 7227.65 397.001C7215.25 387.331 7202.86 377.661 7190.46 367.981C7178.76 358.851 7166.91 349.891 7155.45 340.471C7145.02 331.891 7134.98 322.621 7127.03 311.641C7126.97 311.551 7126.91 311.461 7126.85 311.371C7127.33 311.491 7127.7 310.761 7127.21 310.451C7124.65 308.891 7123.83 305.691 7124.24 302.861C7124.74 299.451 7127.07 296.771 7129.75 294.771C7132.79 292.491 7136.28 290.791 7139.63 289.021C7143.27 287.111 7146.94 285.271 7150.65 283.511C7158.1 279.971 7165.7 276.741 7173.42 273.821C7181.07 270.931 7188.84 268.351 7196.7 266.091C7204.6 263.821 7212.59 261.861 7220.64 260.241C7221.65 260.041 7222.66 259.841 7223.66 259.651C7224.29 259.531 7224.02 258.571 7223.39 258.691C7223.21 258.721 7223.03 258.771 7222.84 258.801C7222.81 258.651 7222.7 258.521 7222.56 258.451C7224.1 258.041 7225.64 257.631 7227.18 257.221C7227.8 257.051 7227.54 256.091 7226.91 256.261L7222.86 257.341C7222.91 257.061 7222.76 256.751 7222.39 256.771C7210.28 257.461 7198.13 257.381 7186.02 256.531C7173.88 255.671 7161.8 254.041 7149.88 251.651C7145 250.671 7140.15 249.561 7135.33 248.321C7129.53 245.731 7123.42 241.921 7123.57 234.851C7123.66 230.541 7125.91 226.541 7128.2 223.031C7130.77 219.091 7133.56 215.291 7136.25 211.441C7139.37 206.971 7142.49 202.491 7145.62 198.021C7145.9 197.621 7145.34 197.051 7144.94 197.341C7135.74 204.001 7126.2 210.211 7116.13 215.491C7106.21 220.691 7095.76 224.971 7084.86 227.611C7079.64 228.881 7074.33 229.751 7068.97 230.191C7057.64 226.211 7050.18 215.821 7044.1 205.981C7036.21 193.201 7028.73 180.151 7021.27 167.121C7013.59 153.721 7006.07 140.241 6998.68 126.671C6991.33 113.161 6984.12 99.5709 6977.06 85.9109C6969.97 72.1909 6963.04 58.3908 6956.25 44.5208C6955.63 43.2508 6955.01 41.9708 6954.38 40.6908C6954.28 40.3708 6954.19 40.0608 6954.1 39.7408C6954.04 39.5508 6953.91 39.4508 6953.76 39.4208C6953.76 39.4108 6953.75 39.3908 6953.74 39.3808C6953.46 38.8008 6952.6 39.3108 6952.88 39.8808C6953.06 40.2608 6953.25 40.6308 6953.43 41.0108C6957.28 53.8108 6961.01 66.6408 6964.6 79.5208C6968.29 92.7308 6971.84 105.971 6975.26 119.251C6978.68 132.531 6981.96 145.841 6985.11 159.191C6988.26 172.541 6991.27 185.921 6994.14 199.321C6995.58 206.021 6996.98 212.741 6998.35 219.451C6998.95 222.401 6999.7 225.371 7000 228.371C7000.2 230.301 7000.24 232.381 6999.67 234.271C6999.34 234.981 6999.02 235.691 6998.67 236.391C6998.21 237.041 6997.64 237.601 6996.96 238.041C6996.45 238.371 6996.88 239.171 6997.4 238.931C6995.14 243.311 6992.59 247.541 6989.81 251.601C6985.31 258.181 6980.21 264.331 6974.71 270.101C6969.06 276.011 6962.99 281.511 6956.65 286.671C6949.81 292.241 6942.67 297.431 6935.39 302.411C6928.13 307.381 6920.72 312.131 6913.3 316.861C6912.39 317.441 6911.47 318.031 6910.56 318.611C6910.11 318.901 6910.34 319.481 6910.81 319.541C6911.34 319.611 6911.86 319.671 6912.39 319.741C6912.3 319.761 6912.2 319.771 6912.1 319.791C6911.47 319.921 6911.74 320.881 6912.37 320.751C6913.49 320.521 6914.62 320.331 6915.74 320.161C6916.06 320.201 6916.39 320.241 6916.71 320.281C6916.97 320.311 6917.12 320.161 6917.17 319.961C6935.41 317.511 6953.93 321.771 6970.22 330.221C6988.42 339.671 7003.89 353.941 7015.56 370.731C7028.17 388.861 7036.86 409.361 7043.73 430.261C7050.99 452.351 7056.51 475.001 7062.42 497.481C7068.92 522.201 7075.42 546.921 7081.92 571.641C7081.94 573.601 7081.95 575.561 7081.97 577.521C7081.99 579.611 7082.01 581.701 7082.03 583.791C7082.03 584.431 7083.04 584.431 7083.03 583.791C7083.01 581.051 7082.98 578.311 7082.96 575.571C7083.43 577.351 7083.9 579.131 7084.36 580.911C7084.52 581.531 7085.49 581.271 7085.32 580.641C7084.52 577.591 7083.72 574.551 7082.92 571.501C7082.81 559.091 7082.7 546.671 7082.59 534.261C7082.45 517.831 7082.3 501.391 7082.16 484.961C7082.01 468.451 7081.87 451.941 7081.72 435.431C7081.65 427.211 7081.58 419.001 7081.5 410.781C7081.44 403.811 7081.14 396.801 7081.53 389.831C7082.09 379.911 7084.13 367.321 7093.38 361.651C7093.44 361.611 7093.5 361.591 7093.56 361.551C7093.66 361.711 7093.85 361.811 7094.08 361.741C7108.04 357.841 7122.62 359.481 7136.29 363.741C7150.32 368.111 7163.42 374.941 7176.25 382.001C7189.91 389.511 7203.5 397.171 7217.01 404.961C7230.52 412.751 7243.94 420.681 7257.29 428.741C7270.58 436.771 7283.78 444.931 7296.9 453.231C7298.55 454.281 7300.21 455.321 7301.86 456.381C7302.4 456.731 7302.91 455.861 7302.36 455.521H7302.39Z" fill="#FFFAD7"/>
<path d="M6818.49 183.82C6818.19 183.94 6817.88 184.03 6817.58 184.14C6817.48 184.07 6817.36 184.03 6817.21 184.06C6782.03 189.17 6746.89 194.62 6711.82 200.42C6676.94 206.19 6642.12 212.29 6607.37 218.74C6589.89 221.98 6572.43 225.31 6554.98 228.72C6547.91 230.1 6540.82 231.69 6533.59 231.85C6527.11 231.99 6520.17 230.97 6515.05 226.69C6509.68 222.2 6507.7 215.2 6508.26 208.39C6508.9 200.57 6512.91 193.6 6517.7 187.57C6522.71 181.26 6528.47 175.51 6534.01 169.68C6539.81 163.58 6545.68 157.53 6551.6 151.54C6575.42 127.45 6600.2 104.29 6625.85 82.1498C6628.93 79.4898 6632.02 76.8498 6635.12 74.2198C6635.61 73.7998 6634.9 73.0998 6634.41 73.5098C6633.03 74.6798 6631.67 75.8598 6630.3 77.0298C6630.18 76.9798 6630.04 76.9798 6629.89 77.0798C6630.18 76.7698 6630.48 76.4798 6630.76 76.1598C6630.84 76.0698 6630.88 75.9598 6630.89 75.8398C6631.56 75.2998 6632.24 74.7598 6632.91 74.2198C6633.41 73.8198 6632.7 73.1098 6632.2 73.5098C6619.39 83.7998 6606.53 94.0398 6593.63 104.22C6580.73 114.4 6567.79 124.53 6554.81 134.61C6541.76 144.74 6528.66 154.81 6515.52 164.83C6502.45 174.79 6489.34 184.7 6476.19 194.56C6470.16 199.08 6464.2 203.75 6457.77 207.71C6453.99 210.04 6449.99 212.13 6445.78 213.59C6446.06 213.42 6446.34 213.26 6446.6 213.07C6447.13 212.71 6446.63 211.84 6446.1 212.21C6439.59 216.66 6431.76 214.14 6425.64 210.28C6418.8 205.96 6413.46 199.79 6408.11 193.82C6396.65 181 6385.98 167.49 6375.97 153.51C6366.02 139.61 6356.72 125.25 6347.87 110.62C6338.96 95.8798 6330.51 80.8698 6322.32 65.7298C6314.15 50.6298 6306.23 35.3998 6298.35 20.1498C6298.17 19.7998 6297.99 19.4498 6297.81 19.1098C6297.29 17.2498 6296.77 15.3998 6296.24 13.5398C6296.06 12.9198 6295.1 13.1798 6295.28 13.8098C6295.36 14.0998 6295.44 14.3898 6295.52 14.6798C6295.5 14.6398 6295.48 14.6098 6295.46 14.5698C6295.16 13.9998 6294.3 14.4998 6294.6 15.0698C6295.35 16.5198 6296.09 17.9598 6296.84 19.4098C6300.61 32.9098 6304.18 46.4598 6307.51 60.0698C6311.32 75.6398 6314.84 91.2798 6318.07 106.98C6321.28 122.61 6324.2 138.29 6326.83 154.02C6329.48 169.86 6331.83 185.76 6333.88 201.69C6335.92 217.51 6337.66 233.37 6339.11 249.26C6339.17 249.95 6339.23 250.63 6339.29 251.32C6337.71 259.62 6334.46 267.53 6330.23 274.85C6324.94 284.01 6318.23 292.27 6311.11 300.05C6303.4 308.46 6295.23 316.47 6286.93 324.31C6278.35 332.41 6269.54 340.26 6260.51 347.85C6251.45 355.46 6242.17 362.81 6232.68 369.88C6231.51 370.75 6230.34 371.61 6229.17 372.48C6228.82 372.74 6228.94 373.21 6229.22 373.38C6227.04 374.96 6224.86 376.55 6222.68 378.13C6222.26 378.44 6222.49 379.24 6223.07 379.04C6232.18 376.03 6241.37 373.24 6250.62 370.67C6259.87 368.1 6269.18 365.76 6278.54 363.65C6287.9 361.54 6297.32 359.65 6306.77 358C6315.75 356.43 6324.79 355.04 6333.92 354.74C6342.85 354.45 6351.88 355.23 6360.4 358.05C6361.44 358.39 6362.47 358.77 6363.49 359.17C6363.49 359.17 6363.51 359.17 6363.52 359.17C6376.32 364.67 6387.74 373.13 6397.83 382.82C6412.28 396.69 6424.28 412.82 6436.35 428.72C6451.22 448.31 6466.09 467.89 6480.96 487.48C6495.83 507.07 6510.7 526.65 6525.57 546.24L6570.18 605C6572.05 607.47 6573.92 609.93 6575.8 612.4C6576.18 612.91 6577.05 612.4 6576.66 611.9C6576.36 611.51 6576.06 611.12 6575.77 610.72C6575.94 610.58 6576.04 610.35 6575.93 610.09C6568.64 593.82 6561.52 577.47 6554.57 561.05C6547.55 544.45 6540.7 527.77 6534.04 511.01C6527.45 494.44 6521.03 477.81 6514.79 461.11C6508.55 444.41 6502.48 427.64 6496.6 410.81C6493.65 402.38 6490.59 393.96 6487.9 385.44C6485.6 378.15 6484.16 368.85 6490.78 363.27C6490.82 363.24 6490.86 363.22 6490.9 363.19C6512.54 362.16 6533.07 370.8 6552.12 380.21C6573.23 390.64 6594.13 401.52 6615.12 412.2L6678.91 444.64C6699.39 455.06 6719.86 465.58 6741.05 474.51C6762 483.35 6783.64 490.53 6805.72 495.96C6807.68 496.44 6809.65 496.89 6811.61 497.34L6814.14 499.1C6814.67 499.47 6815.17 498.6 6814.64 498.24C6814.5 498.14 6814.35 498.04 6814.21 497.94C6814.79 498.01 6815.03 497.11 6814.42 496.97C6813.61 496.79 6812.81 496.59 6812.01 496.4C6793.46 483.48 6774.9 470.57 6756.34 457.65C6736.91 444.12 6717.47 430.59 6698.04 417.06C6678.68 403.58 6659.33 390.11 6639.97 376.63C6620.61 363.15 6601.26 349.68 6581.9 336.2C6577 332.79 6572.11 329.38 6567.21 325.98C6562.74 322.87 6558.16 319.87 6553.88 316.51C6547.07 311.15 6539.21 303.74 6538.49 294.53C6538.44 293.95 6538.44 293.37 6538.46 292.79C6544.73 282.18 6557.48 275.9 6568.47 271.22C6587.64 263.06 6607.06 255.44 6626.53 248.02C6646.08 240.56 6665.74 233.41 6685.51 226.58C6705.28 219.74 6725.16 213.21 6745.14 207C6765.12 200.79 6785.19 194.89 6805.35 189.31C6807.84 188.62 6810.33 187.94 6812.82 187.26C6813.15 187.17 6813.22 186.87 6813.14 186.62C6815.03 186.1 6816.91 185.49 6818.74 184.78C6819.33 184.55 6819.08 183.58 6818.47 183.82H6818.49Z" fill="#FFFAD7"/>
<g clip-path="url(#clip0_226_1135)">
<path d="M6213.55 503.01C6212.8 502.48 6212.04 501.95 6211.29 501.42C6211.32 501.19 6211.24 500.94 6210.96 500.85C6210.64 500.74 6210.33 500.63 6210.01 500.52C6189.82 486.32 6169.52 472.27 6149.11 458.39C6127.42 443.65 6105.61 429.09 6083.67 414.72C6061.82 400.4 6039.84 386.28 6017.74 372.34C5995.64 358.4 5973.43 344.65 5951.1 331.09C5941.48 325.25 5931.46 319.8 5922.76 312.59C5915.49 306.56 5908.48 298.83 5906.91 289.18C5906.78 288.35 5906.7 287.52 5906.66 286.69C5916.57 275.5 5930.63 268.58 5944.32 262.92C5964.28 254.67 5984.54 247.11 6004.74 239.46C6025.73 231.51 6046.78 223.73 6067.89 216.12C6088.91 208.54 6109.98 201.12 6131.12 193.87C6152.25 186.62 6173.45 179.54 6194.69 172.62C6197.31 171.77 6199.93 170.92 6202.55 170.07C6203.16 169.87 6202.9 168.91 6202.28 169.11C6201.84 169.25 6201.4 169.4 6200.96 169.54C6200.96 169.25 6200.71 168.95 6200.35 169.05C6197.96 169.72 6195.58 170.39 6193.19 171.06C6193.08 170.92 6192.91 170.82 6192.68 170.87C6171.48 175.48 6150.27 180.09 6129.07 184.7C6107.97 189.29 6086.87 193.88 6065.77 198.46C6044.58 203.07 6023.4 207.68 6002.21 212.28C5981.49 216.78 5960.73 221.24 5939.73 224.25C5929.1 225.78 5918.41 226.92 5907.69 227.51C5902.67 227.78 5897.63 228 5892.6 227.92C5888.38 227.85 5884.1 227.48 5880.08 226.16C5878.54 224.33 5877.35 222.16 5876.59 219.91C5874.32 213.15 5876.12 206.06 5879.19 199.85C5882.6 192.96 5887.29 186.67 5891.66 180.37C5896.1 173.97 5900.64 167.64 5905.28 161.37C5914.62 148.74 5924.33 136.4 5934.41 124.36C5944.44 112.37 5954.83 100.67 5965.56 89.3003C5976.25 77.9603 5987.28 66.9403 5998.62 56.2603C6000.04 54.9203 6001.46 53.6003 6002.89 52.2703C6003.12 52.0503 6003.07 51.7703 6002.89 51.5903C6004.3 50.3003 6005.71 49.0203 6007.11 47.7303C6007.59 47.3003 6006.88 46.5903 6006.4 47.0203L5964.92 84.9103C5951.14 97.4903 5937.37 110.08 5923.59 122.66L5882.11 160.55C5869.13 172.41 5856.3 184.48 5842.99 195.98C5830.49 206.77 5817.31 216.95 5802.64 224.63C5801.83 225.05 5801.01 225.47 5800.2 225.88C5795.48 225.74 5790.81 222.57 5787.34 219.33C5784.45 216.62 5782.04 213.54 5779.77 210.31C5777.06 206.45 5774.36 202.58 5771.66 198.7C5760.84 183.14 5750.17 167.48 5739.63 151.73C5729.13 136.04 5718.77 120.25 5708.56 104.38C5698.34 88.5003 5688.27 72.5403 5678.33 56.4803C5668.4 40.4303 5658.6 24.2803 5648.96 8.05034C5647.98 6.40034 5647 4.75034 5646.02 3.10034C5645.76 2.18034 5645.5 1.27034 5645.23 0.35034C5645.05 -0.26966 5644.09 -0.00965983 5644.27 0.62034L5644.62 1.84034C5644.44 1.98034 5644.33 2.21034 5644.48 2.47034C5644.68 2.81034 5644.89 3.14034 5645.09 3.48034L5680.61 127.69C5686.67 148.87 5692.72 170.05 5698.78 191.23C5701.8 201.81 5704.83 212.38 5707.85 222.96C5710.8 233.28 5713.73 243.68 5715.11 254.35C5716.28 263.41 5716.19 273.03 5714.07 282.06C5708.88 290.89 5703.09 299.35 5696.81 307.43C5690.18 315.95 5683.03 324.06 5675.52 331.82C5667.96 339.63 5660.05 347.09 5651.91 354.29C5643.73 361.53 5635.32 368.52 5626.8 375.36C5618.27 382.21 5609.62 388.92 5600.96 395.6C5599.9 396.41 5598.85 397.23 5597.79 398.04C5597.29 398.43 5597.79 399.3 5598.29 398.9C5598.29 398.9 5598.3 398.9 5598.31 398.89C5598.75 398.97 5599.19 399 5599.64 399.01C5599.23 399.32 5599.48 400.1 5600.04 399.89C5609.73 396.33 5619.52 393.06 5629.4 390.08C5639.28 387.1 5649.25 384.42 5659.29 382.03C5669.33 379.64 5679.44 377.55 5689.6 375.76C5699.86 373.95 5710.18 372.45 5720.54 371.26C5730.39 370.13 5740.28 369.29 5750.17 368.72C5750.22 368.74 5750.28 368.76 5750.34 368.76C5769.09 368.93 5784.84 380.24 5797.4 393.2C5803.92 399.92 5809.81 407.23 5815.5 414.66C5822.75 424.12 5829.98 433.59 5837.21 443.06C5851.84 462.19 5866.46 481.32 5881.09 500.46L5924.97 557.86C5939.6 576.99 5954.22 596.12 5968.85 615.26C5970.65 617.61 5972.44 619.96 5974.24 622.31C5974.45 622.59 5974.81 622.56 5975.02 622.39C5975.03 622.41 5975.05 622.43 5975.06 622.46C5974.96 622.65 5974.98 622.88 5975.14 623.04C5975.67 623.57 5976.2 624.09 5976.73 624.62C5976.97 624.86 5977.27 624.77 5977.45 624.58C5977.83 624.72 5978.33 624.32 5978.06 623.87C5967.94 606.56 5958.12 589.08 5948.61 571.43C5939.1 553.78 5929.9 535.97 5921.01 518C5912.12 500.03 5903.54 481.9 5895.29 463.64C5887.01 445.33 5879.06 426.88 5871.43 408.29C5869.51 403.61 5867.61 398.93 5865.73 394.24C5863.91 389.68 5862.02 385.11 5860.79 380.35C5858.93 373.16 5858.87 364.89 5863.07 358.61C5872.23 353.78 5883.63 355.93 5893.25 358.65C5905.21 362.03 5916.99 366.15 5928.62 370.5C5952.33 379.38 5975.42 389.81 5998.16 400.93C6020.76 411.99 6043.01 423.73 6065.28 435.42C6087.65 447.16 6110.05 458.85 6132.85 469.73C6155.43 480.5 6178.41 490.48 6201.99 498.85C6204.5 499.74 6207.03 500.61 6209.55 501.46C6210.71 502.27 6211.86 503.09 6213.02 503.9C6213.55 504.27 6214.05 503.4 6213.52 503.04L6213.55 503.01ZM5599.47 398.01C5599.8 397.76 5600.13 397.5 5600.46 397.25C5600.32 397.48 5600.36 397.83 5600.62 397.96C5600.24 398.01 5599.86 398.03 5599.48 398.02L5599.47 398.01Z" fill="#FFFAD7"/>
</g>
<g clip-path="url(#clip1_226_1135)">
<path d="M5597.35 485.621C5575.5 473.101 5553.68 460.541 5531.88 447.941C5510.08 435.341 5488.3 422.701 5466.54 410.031C5444.69 397.301 5422.87 384.531 5401.07 371.731C5379.36 358.981 5357.67 346.181 5336.01 333.351C5325.22 326.961 5314.44 320.561 5303.66 314.151C5298.98 311.371 5294.27 308.711 5290.25 304.991C5286.87 301.851 5283.41 297.771 5282.86 293.011C5282.6 290.751 5283.15 288.611 5284.31 286.671C5284.46 286.421 5284.36 286.181 5284.18 286.051C5298.56 275.891 5314.53 268.241 5330.81 261.611C5349.78 253.881 5369.11 247.011 5388.29 239.831C5408.43 232.301 5428.56 224.771 5448.7 217.241L5509.39 194.541C5529.62 186.971 5549.85 179.411 5570.08 171.841C5572.59 170.901 5575.09 169.971 5577.6 169.031C5578.2 168.811 5577.94 167.841 5577.33 168.071C5576.26 168.471 5575.18 168.871 5574.11 169.281C5574 169.191 5573.86 169.131 5573.68 169.171C5551.18 174.081 5528.67 178.991 5506.17 183.881C5483.56 188.791 5460.94 193.691 5438.31 198.541C5415.79 203.371 5393.26 208.161 5370.72 212.881C5348.18 217.611 5325.62 222.271 5303.05 226.861C5297.41 228.011 5291.76 229.151 5286.12 230.281C5280.66 231.381 5275.18 232.691 5269.62 233.131C5264.54 233.541 5259.04 233.191 5254.55 230.551C5250.8 228.341 5247.64 224.621 5246.72 220.301C5246.64 219.911 5246.58 219.531 5246.54 219.141C5246.79 217.171 5247.28 215.231 5247.94 213.371C5250.33 206.611 5254.72 200.731 5258.82 194.931C5263.21 188.721 5267.66 182.561 5272.17 176.441C5281.21 164.201 5290.51 152.161 5300.05 140.311C5309.56 128.521 5319.32 116.921 5329.31 105.541C5337.13 96.6309 5345.11 87.8509 5353.23 79.2009C5353.48 78.9909 5353.74 78.7909 5353.98 78.5709C5354.09 78.4709 5354.13 78.3609 5354.13 78.2509C5356.05 76.2109 5357.97 74.1709 5359.9 72.1409C5361.21 70.7709 5362.53 69.4009 5363.85 68.0309C5364.3 67.5709 5363.59 66.8609 5363.14 67.3209C5361.8 68.7109 5360.47 70.1109 5359.14 71.5109C5359.03 71.2009 5358.62 70.9909 5358.31 71.2809C5346.99 81.7509 5335.65 92.2009 5324.28 102.611C5312.91 113.031 5301.52 123.411 5290.1 133.771C5278.64 144.171 5267.15 154.541 5255.63 164.881C5244.16 175.181 5232.66 185.461 5221.14 195.701C5209.62 205.941 5198.07 216.161 5186.49 226.351C5185.64 227.101 5184.8 227.841 5183.95 228.581C5178.97 230.991 5172.76 230.791 5167.58 228.851C5159.16 225.681 5153.13 218.211 5147.78 211.341C5135.27 195.271 5123.12 178.921 5111.25 162.381C5099.45 145.931 5087.95 129.261 5076.77 112.381C5065.55 95.4409 5054.64 78.3009 5044.06 60.9609C5033.51 43.6809 5023.29 26.2009 5013.39 8.54089C5012.59 7.11089 5011.79 5.68089 5011 4.24089L5010.3 2.18089C5010.2 1.88089 5009.9 1.79089 5009.66 1.86089C5009.33 1.35089 5008.51 1.84089 5008.82 2.39089C5009.23 3.14089 5009.66 3.88089 5010.07 4.63089C5016.61 23.9409 5023.14 43.2609 5029.68 62.5709C5036.43 82.5109 5043.18 102.451 5049.92 122.401L5070.26 182.521C5076.87 202.041 5083.96 221.481 5089.59 241.321C5092.35 251.021 5094.69 260.881 5096.08 270.881C5097.44 280.681 5097.81 290.801 5095.75 300.531C5095.39 302.221 5094.93 303.881 5094.42 305.531C5090.7 312.291 5085.6 318.221 5080.12 323.651C5073.03 330.691 5065.45 337.281 5057.9 343.811C5050.06 350.601 5042.09 357.231 5034.03 363.761C5025.94 370.311 5017.76 376.761 5009.54 383.151C5001.29 389.561 4992.99 395.921 4984.68 402.271C4983.67 403.051 4982.65 403.821 4981.64 404.601C4981.44 404.751 4981.4 404.981 4981.45 405.171C4981.44 405.181 4981.42 405.191 4981.41 405.211C4979.89 406.031 4978.45 406.981 4977.11 408.081C4976.61 408.491 4977.32 409.191 4977.82 408.791C4978.59 408.161 4979.41 407.581 4980.25 407.051C4980.02 407.411 4980.25 407.991 4980.76 407.831C4981.34 407.651 4981.87 407.381 4982.37 407.081C4982.47 407.261 4982.65 407.391 4982.91 407.301C4993.17 403.971 5003.42 400.641 5013.68 397.301C5023.94 393.971 5034.19 390.641 5044.45 387.301C5054.71 383.971 5064.96 380.641 5075.22 377.301C5085.08 374.101 5094.92 370.771 5104.93 368.061C5114.86 365.371 5125.02 363.311 5135.33 362.871C5135.98 362.841 5136.62 362.841 5137.27 362.831C5154.11 367.791 5168.37 378.711 5180.41 391.361C5194.71 406.381 5206.39 423.671 5218.73 440.281C5233.01 459.481 5247.66 478.401 5262.68 497.031C5277.77 515.751 5293.23 534.161 5309.05 552.271C5324.87 570.371 5341.05 588.171 5357.57 605.631C5358.99 607.131 5360.41 608.621 5361.84 610.121C5361.91 610.221 5361.99 610.331 5362.06 610.431C5362.13 610.531 5362.22 610.581 5362.32 610.621C5362.8 611.121 5363.27 611.621 5363.75 612.121C5364.2 612.591 5364.9 611.881 5364.46 611.411C5363.86 610.781 5363.27 610.151 5362.68 609.521C5362.59 609.381 5362.5 609.241 5362.41 609.101C5362.79 609.221 5363.27 608.821 5363 608.391C5361.8 606.461 5360.61 604.521 5359.42 602.581C5359.43 602.531 5359.46 602.491 5359.46 602.441C5359.57 601.861 5359.46 601.251 5359.07 600.791C5358.81 600.471 5358.42 600.331 5358.03 600.331C5349.32 586.181 5340.76 571.931 5332.39 557.581C5322.46 540.581 5312.77 523.441 5303.32 506.171C5293.83 488.831 5284.58 471.351 5275.57 453.751C5266.6 436.221 5257.86 418.581 5249.4 400.801C5245.87 393.391 5242.7 385.711 5240.99 377.661C5239.47 370.521 5239.14 362.771 5241.93 355.911C5251.78 352.611 5262.48 354.501 5272.21 357.901C5283.81 361.951 5294.73 367.911 5305.8 373.191C5328.59 384.051 5351.56 394.511 5374.7 404.581C5397.68 414.571 5420.82 424.181 5444.12 433.391C5467.59 442.671 5491.23 451.541 5515 460.001C5538.78 468.471 5562.7 476.521 5586.76 484.171C5589.79 485.131 5592.83 486.091 5595.87 487.041C5596.38 487.201 5596.64 486.571 5596.37 486.241C5596.54 486.331 5596.7 486.431 5596.87 486.521C5597.43 486.841 5597.93 485.981 5597.37 485.661L5597.35 485.621ZM5356.21 74.5909C5355 75.8709 5353.8 77.1509 5352.6 78.4309C5352.54 78.4809 5352.48 78.5309 5352.42 78.5809C5352.29 78.4709 5352.12 78.4309 5351.96 78.5109C5352.91 77.6309 5353.87 76.7609 5354.82 75.8809C5355.29 75.4509 5355.75 75.0209 5356.22 74.5909H5356.21ZM5357.41 601.981C5357.41 601.971 5357.41 601.951 5357.41 601.941C5357.41 601.951 5357.41 601.961 5357.41 601.981C5357.41 601.931 5357.43 601.891 5357.44 601.841C5357.45 601.801 5357.47 601.751 5357.48 601.711C5357.48 601.691 5357.5 601.681 5357.5 601.661C5357.52 601.621 5357.54 601.581 5357.57 601.541C5357.77 601.871 5357.97 602.201 5358.18 602.531C5358.19 602.551 5358.2 602.571 5358.22 602.591C5358.2 602.601 5358.18 602.611 5358.16 602.631C5358.13 602.631 5358.11 602.651 5358.08 602.651C5357.99 602.671 5357.92 602.731 5357.86 602.791L5357.41 602.071C5357.41 602.071 5357.41 602.041 5357.41 602.021C5357.41 602.011 5357.41 602.001 5357.41 601.991C5357.41 602.021 5357.4 602.041 5357.41 601.991V601.981Z" fill="#FFFAD7"/>
</g>
<path d="M4322.05 460.441C4321.79 460.301 4321.53 460.161 4321.26 460.031C4321.2 459.941 4321.11 459.871 4320.97 459.841C4320.92 459.841 4320.88 459.821 4320.83 459.811C4300.54 449.161 4280.24 438.511 4259.95 427.871C4239.25 417.011 4218.56 406.151 4197.86 395.291L4136.02 362.841C4115.32 351.981 4094.63 341.121 4073.93 330.261C4064.87 325.511 4055.06 321.211 4047.13 314.621C4039.93 308.631 4034.27 299.501 4035.87 289.781C4036.12 288.231 4036.59 286.751 4037.23 285.341C4051.14 276.141 4065.39 267.431 4079.93 259.271C4095.52 250.521 4111.45 242.381 4127.67 234.871C4144.55 227.061 4161.77 220.021 4179.16 213.431C4196.89 206.711 4214.76 200.371 4232.6 193.941C4247.78 188.471 4262.96 183.001 4278.14 177.531C4278.9 177.351 4279.66 177.181 4280.42 177.001C4280.66 176.941 4280.77 176.771 4280.77 176.581C4282.83 175.841 4284.9 175.091 4286.96 174.351C4289.24 173.531 4291.51 172.711 4293.79 171.891C4294.39 171.671 4294.13 170.711 4293.52 170.931C4288.3 172.811 4283.08 174.691 4277.87 176.571C4259.51 180.811 4241.14 185.061 4222.78 189.301C4203.75 193.701 4184.71 198.101 4165.68 202.491C4146.65 206.891 4127.61 211.291 4108.58 215.681C4089.46 220.101 4070.33 224.521 4051.21 228.941C4046.47 230.031 4041.74 231.131 4037 232.221C4033.16 233.111 4029.33 234.111 4025.4 234.581C4019.64 235.271 4012.31 235.371 4007.78 231.131C4006.63 230.061 4005.78 228.751 4005.2 227.301C4005.16 227.211 4005.11 227.151 4005.05 227.091C4004.9 225.251 4005.16 223.371 4005.67 221.561C4006.59 218.311 4008.2 215.301 4009.7 212.291C4011.24 209.221 4012.79 206.151 4014.37 203.091C4020.6 190.961 4027.08 178.951 4033.8 167.081C4040.54 155.161 4047.53 143.381 4054.75 131.741C4061.94 120.151 4069.36 108.701 4077.01 97.4106C4084.69 86.0706 4092.6 74.8906 4100.73 63.8806C4101.67 62.6106 4102.62 61.3406 4103.56 60.0706C4103.94 59.5506 4103.08 59.0506 4102.7 59.5706C4101.93 60.6106 4101.17 61.6506 4100.4 62.6906C4100.25 62.6406 4100.08 62.6606 4099.94 62.8306C4089.3 75.7206 4078.49 88.4706 4067.49 101.061C4056.57 113.571 4045.48 125.921 4034.21 138.121C4022.87 150.401 4011.36 162.521 3999.68 174.481C3988.08 186.361 3976.31 198.071 3964.38 209.621C3961.4 212.511 3958.41 215.381 3955.4 218.251C3952.55 220.971 3949.72 223.741 3946.72 226.291C3942.49 229.891 3937.56 233.471 3932.1 235.051C3917.44 234.331 3904.96 224.981 3894.83 215.061C3882.85 203.331 3872.25 190.141 3862.13 176.801C3851.65 163.001 3841.64 148.831 3831.51 134.771C3820.88 120.011 3810.26 105.261 3799.63 90.5006C3789.03 75.7906 3778.44 61.0706 3767.84 46.3606C3766.86 44.3906 3765.87 42.4206 3764.88 40.4506C3764.59 39.8806 3763.73 40.3806 3764.02 40.9506C3764.07 41.0506 3764.12 41.1506 3764.17 41.2406C3764.08 41.1206 3763.99 40.9906 3763.9 40.8706C3763.53 40.3506 3762.66 40.8506 3763.04 41.3706C3764.34 43.1706 3765.64 44.9806 3766.94 46.7806C3773.71 60.3506 3780.29 74.0006 3786.65 87.7706C3793.97 103.611 3801.02 119.571 3807.79 135.651C3814.52 151.621 3820.97 167.711 3827.15 183.911C3833.32 200.091 3839.28 216.371 3844.83 232.771C3850.38 249.151 3855.33 265.971 3856.43 283.321C3856.56 285.441 3856.64 287.551 3856.66 289.671C3856.66 290.021 3856.95 290.171 3857.22 290.141C3854.98 298.481 3851.51 306.461 3847.17 313.941C3841.84 323.111 3835.3 331.521 3828.26 339.421C3821.11 347.431 3813.43 354.941 3805.63 362.311C3797.14 370.341 3788.62 378.361 3779.79 386.011C3770.8 393.801 3761.41 401.171 3751.31 407.481C3750.06 408.261 3748.81 409.021 3747.54 409.771C3747.1 410.031 3747.33 410.611 3747.71 410.691L3747.56 410.751C3746.97 410.981 3747.22 411.951 3747.83 411.711C3757.89 407.851 3767.96 403.991 3778.02 400.131C3788.07 396.281 3798.12 392.421 3808.17 388.571C3818.18 384.741 3828.19 380.921 3838.24 377.211C3847.96 373.621 3857.71 370.041 3867.79 367.581C3876.68 365.411 3885.87 364.151 3895.02 364.781C3911.57 368.991 3925.86 380.151 3938.53 391.291C3955.67 406.361 3972.13 422.231 3988.19 438.441C4004.43 454.831 4020.23 471.661 4035.78 488.711C4051.28 505.721 4066.54 522.951 4081.74 540.231C4097.63 558.291 4113.5 576.361 4129.38 594.431C4131.36 596.691 4133.35 598.941 4135.33 601.201C4135.76 601.681 4136.46 600.971 4136.04 600.491C4135.88 600.311 4135.73 600.131 4135.57 599.951C4135.58 599.951 4135.59 599.951 4135.61 599.941C4135.66 599.911 4135.7 599.871 4135.73 599.831C4135.75 599.851 4135.77 599.881 4135.79 599.901C4136.18 600.401 4137.05 599.901 4136.65 599.401C4124.8 584.051 4113.24 568.481 4101.97 552.691C4090.71 536.901 4079.74 520.901 4069.08 504.701C4058.42 488.501 4048.07 472.101 4038.03 455.501C4028.03 438.971 4018.34 422.261 4008.97 405.371C4004.28 396.921 3999.55 388.471 3995.16 379.871C3991.35 372.411 3988.07 362.691 3993.87 355.281C3994.26 354.791 3994.69 354.351 3995.14 353.931C4015.37 354.201 4035.24 358.941 4054.26 365.731C4075.36 373.261 4095.52 383.131 4115.81 392.561C4136.63 402.231 4157.76 411.211 4179.21 419.371C4200.8 427.581 4222.69 434.991 4244.83 441.591C4267.07 448.211 4289.55 454.011 4312.21 458.971C4314.97 459.571 4317.74 460.161 4320.5 460.741C4320.85 460.921 4321.2 461.111 4321.55 461.291C4322.12 461.591 4322.63 460.731 4322.05 460.431V460.441Z" fill="#FFFAD7"/>
<path d="M3692.89 442.75C3692.11 442.62 3691.34 442.47 3690.56 442.33C3670.05 434.68 3649.72 426.57 3629.58 417.99C3608.89 409.17 3588.41 399.86 3568.16 390.07C3547.83 380.25 3527.73 369.94 3507.89 359.17C3488.12 348.44 3468.61 337.24 3449.37 325.59C3440.96 320.5 3432.35 315.53 3424.85 309.13C3418.25 303.51 3412.13 296.48 3410.17 287.81C3409.84 286.37 3409.66 284.9 3409.58 283.43C3410.52 280.42 3412.12 277.58 3414.12 275.25C3419.66 268.83 3427.64 265.06 3435 261.16C3451.6 252.35 3468.36 243.83 3485.26 235.6C3502.23 227.34 3519.34 219.38 3536.59 211.73C3553.87 204.06 3571.28 196.7 3588.81 189.64C3606.32 182.6 3623.95 175.86 3641.69 169.44C3643.88 168.65 3646.07 167.86 3648.27 167.07C3648.87 166.86 3648.61 165.89 3648 166.11C3647.39 166.33 3646.78 166.55 3646.17 166.77C3648.05 165.99 3649.94 165.21 3651.82 164.43C3652.41 164.19 3652.15 163.22 3651.55 163.47C3634.38 170.63 3617.07 177.46 3599.64 183.95C3582.29 190.41 3564.81 196.54 3547.22 202.33C3529.63 208.12 3511.93 213.57 3494.13 218.69C3476.25 223.83 3458.27 228.62 3440.21 233.06C3422.7 237.37 3405.11 241.34 3387.45 244.99C3387.37 244.89 3387.25 244.83 3387.08 244.84C3385.44 244.9 3383.8 244.96 3382.16 245.02C3382.08 244.81 3381.88 244.67 3381.61 244.78C3381.31 244.91 3381 245 3380.7 245.07C3379.97 245.1 3379.25 245.12 3378.52 245.15C3378.48 245.15 3378.45 245.17 3378.41 245.18C3376.94 244.98 3375.53 244.31 3374.34 243.32C3372.02 241.36 3370.85 238.62 3370.7 235.61C3370.53 232.09 3371.58 228.63 3372.74 225.35C3373.87 222.13 3375.1 218.94 3376.35 215.77C3381.33 203.1 3386.99 190.7 3393.14 178.55C3399.28 166.44 3405.9 154.59 3412.85 142.93C3419.81 131.23 3427.1 119.73 3434.55 108.33C3441.21 98.1397 3448.01 88.0297 3454.84 77.9397C3456.13 76.3397 3457.43 74.7497 3458.71 73.1397C3459.75 71.8397 3460.79 70.5497 3461.82 69.2497C3462.22 68.7497 3461.51 68.0397 3461.11 68.5397C3460.8 68.9297 3460.48 69.3197 3460.17 69.7097C3460.03 69.3997 3459.52 69.2397 3459.26 69.6197C3457.51 72.1997 3455.76 74.7797 3454.01 77.3597C3447.89 84.9697 3441.73 92.5597 3435.52 100.1C3426.94 110.51 3418.28 120.86 3409.54 131.14C3400.76 141.46 3391.91 151.7 3382.97 161.87C3374.07 172.01 3365.08 182.07 3356.02 192.07C3347.17 201.83 3338.23 211.53 3329.23 221.15C3323.76 225.47 3316.84 227.52 3309.91 227.75C3302.05 228 3294.4 225.96 3287.35 222.59C3279.74 218.96 3272.87 213.98 3266.24 208.81C3259.47 203.54 3252.8 198.13 3246.22 192.62C3233.04 181.61 3220.22 170.19 3207.77 158.36C3195.32 146.54 3183.25 134.32 3171.58 121.73C3159.87 109.1 3148.56 96.0897 3137.68 82.7297C3136.33 81.0697 3134.99 79.4097 3133.65 77.7397C3133.25 77.2397 3132.54 77.9497 3132.94 78.4497C3132.96 78.4697 3132.97 78.4897 3132.99 78.5097C3132.83 78.6497 3132.74 78.8797 3132.86 79.1197C3140.43 93.6497 3148 108.19 3155.57 122.72C3163.17 137.32 3170.78 151.92 3178.38 166.52C3185.86 180.87 3193.35 195.21 3200.8 209.58C3207.78 223.04 3214.64 236.58 3220.56 250.55C3225.62 262.48 3229.98 274.75 3233.07 287.35C3232.78 287.29 3232.45 287.43 3232.49 287.81C3233.66 300.02 3229.05 311.89 3223.14 322.34C3218.07 331.31 3211.78 339.52 3204.87 347.14C3197.92 354.8 3190.35 361.88 3182.63 368.77C3174.82 375.73 3166.83 382.5 3159.05 389.49C3151.3 396.45 3143.74 403.64 3136.81 411.43C3135.99 412.35 3135.19 413.28 3134.39 414.21C3133.76 414.53 3133.13 414.84 3132.5 415.15C3131.87 415.47 3131.24 415.79 3130.61 416.11C3130.99 415.62 3131.36 415.14 3131.74 414.65C3132.13 414.15 3131.43 413.44 3131.03 413.94C3130.19 415.03 3129.34 416.11 3128.5 417.2C3128.16 417.64 3128.57 418.26 3129.11 417.99C3130.93 417.07 3132.76 416.16 3134.58 415.24C3134.71 415.26 3134.84 415.22 3134.95 415.08C3134.97 415.06 3134.98 415.04 3135 415.03C3143.26 410.87 3151.54 406.76 3159.86 402.72C3170.11 397.75 3180.41 392.87 3190.75 388.09C3201.1 383.3 3211.5 378.6 3221.95 374.02C3231.88 369.66 3241.97 365.47 3252.57 363.04C3257.81 361.84 3263.19 361.06 3268.58 361.01C3272.62 360.97 3277.24 361.48 3280.47 364.16C3281.25 364.8 3281.9 365.56 3282.44 366.41C3282.78 366.95 3283.65 366.45 3283.3 365.91C3283.08 365.56 3282.83 365.24 3282.58 364.93C3293.94 371.44 3304.55 379.23 3314.53 387.72C3329.47 400.44 3343.07 414.62 3356.56 428.84C3371.22 444.3 3386.02 459.58 3401.5 474.22C3417.88 489.72 3434.77 504.67 3451.91 519.33C3469.06 534 3486.46 548.36 3503.89 562.7C3506.04 564.47 3508.19 566.23 3510.34 568C3510.83 568.41 3511.54 567.7 3511.05 567.29C3510.34 566.7 3509.62 566.11 3508.91 565.53C3508.89 565.48 3508.86 565.44 3508.82 565.39C3496.05 552.57 3483.73 539.32 3471.88 525.65C3459.97 511.92 3448.54 497.77 3437.62 483.24C3426.79 468.83 3416.45 454.05 3406.63 438.93C3396.81 423.81 3387.52 408.35 3378.76 392.59C3374.9 385.65 3370.63 378.7 3368.31 371.05C3366.53 365.15 3365.4 357.7 3369.23 352.33C3369.65 351.74 3370.14 351.21 3370.66 350.72C3377.05 349.13 3383.9 349.24 3390.45 350.02C3401.41 351.31 3412.28 354 3422.87 357.04C3444.8 363.33 3465.9 372.1 3486.88 380.99C3507.8 389.86 3528.75 398.58 3550.16 406.23C3571.94 414.01 3594.03 420.91 3616.36 426.91C3638.69 432.91 3661.27 438.01 3684.01 442.19C3686.1 442.57 3688.2 442.94 3690.3 443.31C3691.08 443.6 3691.87 443.9 3692.65 444.19C3693.11 444.36 3693.37 443.84 3693.2 443.49C3693.37 443.22 3693.32 442.84 3692.93 442.77L3692.89 442.75Z" fill="#FFFAD7"/>
<path d="M3009.4 414.02C3009.19 413.96 3008.98 413.9 3008.77 413.84C3008.71 413.74 3008.62 413.66 3008.48 413.64C3008.27 413.6 3008.07 413.55 3007.87 413.5C3007.94 413.29 3007.89 413.05 3007.66 412.95C3007.65 412.76 3007.54 412.58 3007.33 412.5C2990.94 406.37 2975.16 398.75 2959.82 390.36C2944.61 382.04 2929.82 372.96 2915.12 363.77C2900.27 354.49 2885.5 345.07 2870.43 336.15C2862.96 331.73 2855.43 327.43 2847.78 323.33C2840 319.16 2832.01 315.4 2824.19 311.3C2813.31 305.59 2802.02 298.1 2795.54 287.5C2792.57 280.79 2796.14 273.18 2800.53 267.85C2802.88 265 2805.52 262.37 2808.15 259.77C2810.77 257.18 2813.46 254.65 2816.21 252.18C2827.14 242.38 2838.98 233.63 2851.24 225.57C2863.52 217.5 2876.23 210.1 2889.06 202.92C2901.97 195.69 2914.99 188.68 2927.88 181.42C2940.77 174.15 2953.52 166.62 2965.82 158.37C2966.65 157.82 2967.47 157.25 2968.29 156.69C2969.12 156.38 2969.95 156.08 2970.78 155.77C2971.38 155.55 2971.12 154.59 2970.52 154.81C2970.47 154.49 2970.14 154.22 2969.8 154.46C2969.14 154.92 2968.47 155.36 2967.81 155.82C2952.85 161.33 2937.94 167 2923.1 172.84C2907.37 179.03 2891.71 185.41 2876.13 191.97C2860.65 198.49 2845.24 205.19 2829.92 212.07C2814.56 218.96 2799.29 226.03 2784.1 233.28C2768.84 240.56 2753.67 248.02 2738.59 255.66C2737.94 255.99 2737.3 256.32 2736.65 256.65C2737.04 256.21 2736.37 255.56 2735.91 255.99C2734.23 257.55 2731.8 257.07 2730.07 255.86C2727.75 254.25 2727 251.62 2727.29 248.9C2727.64 245.64 2729.19 242.63 2730.55 239.7C2731.93 236.74 2733.31 233.78 2734.71 230.83C2740.33 218.97 2746.14 207.2 2752.13 195.53C2758.12 183.86 2764.3 172.28 2770.67 160.8C2777.03 149.32 2783.58 137.95 2790.3 126.68C2794.96 118.87 2799.72 111.11 2804.55 103.4C2808.22 98.3999 2811.9 93.3999 2815.57 88.3999C2816.64 86.9499 2817.7 85.4999 2818.77 84.0399C2819.15 83.5199 2818.28 83.0199 2817.91 83.5399L2812.44 90.9799C2812.85 90.3499 2813.25 89.7199 2813.66 89.0799C2814.01 88.5399 2813.15 88.0399 2812.8 88.5799C2809.74 93.3199 2806.71 98.0799 2803.72 102.86L2792.1 118.67C2783.5 130.38 2774.89 142.09 2766.29 153.81C2757.69 165.52 2749.08 177.23 2740.48 188.95C2732.12 200.33 2723.82 211.76 2715.36 223.08C2707.74 233.28 2699.85 243.31 2691.16 252.63C2691.01 252.29 2690.5 252.14 2690.28 252.55C2687.74 257.51 2681.56 256.93 2677.04 255.52C2674.34 254.68 2671.84 253.42 2669.42 251.98C2666.2 250.07 2663 248.14 2659.81 246.19C2647.09 238.41 2634.58 230.29 2622.29 221.86C2610 213.42 2597.93 204.66 2586.09 195.59C2574.16 186.45 2562.48 176.99 2551.05 167.23C2539.67 157.51 2528.55 147.5 2517.7 137.19C2516.38 135.94 2515.07 134.68 2513.76 133.42C2513.3 132.97 2512.59 133.68 2513.05 134.13C2513.51 134.57 2513.97 135 2514.43 135.44C2514.2 135.56 2514.06 135.82 2514.26 136.09C2522.34 146.9 2530.43 157.72 2538.51 168.53C2546.56 179.3 2554.61 190.07 2562.67 200.84C2570.72 211.61 2578.77 222.38 2586.83 233.15C2593.76 242.42 2600.65 251.77 2606.38 261.84C2611.99 271.7 2616.45 282.34 2618.11 293.63C2618.32 295.08 2618.48 296.53 2618.6 297.99C2618.61 298.14 2618.68 298.26 2618.78 298.34C2616.98 306.04 2613.88 313.37 2609.94 320.24C2605.19 328.53 2599.33 336.13 2593.14 343.38C2586.69 350.92 2579.89 358.16 2573.13 365.41C2565.91 373.16 2558.59 380.83 2551 388.22C2543.4 395.62 2535.52 402.75 2527.21 409.36C2526.16 410.2 2525.1 411.02 2524.04 411.84C2523.67 412.12 2523.84 412.66 2524.16 412.78C2523.51 413.13 2522.87 413.48 2522.22 413.84C2521.65 414.15 2522.16 415.01 2522.72 414.7C2532.78 409.22 2542.84 403.74 2552.95 398.34C2563.06 392.95 2573.22 387.65 2583.46 382.52C2593.46 377.52 2603.52 372.49 2613.92 368.37C2623.75 364.48 2634.07 361.46 2644.67 360.81C2649.98 360.49 2655.37 360.75 2660.62 361.73C2670.58 365.55 2679.95 370.73 2688.6 377.11C2694.67 381.58 2700.42 386.46 2706.2 391.31C2712.31 396.44 2718.43 401.58 2724.54 406.71C2736.82 417.02 2749.09 427.33 2761.37 437.64C2773.6 447.91 2785.83 458.18 2798.06 468.44C2810.34 478.75 2822.61 489.06 2834.89 499.37L2839.4 503.16C2839.64 503.36 2839.93 503.29 2840.11 503.13C2841.82 504.43 2843.53 505.74 2845.24 507.04C2845.07 507.25 2845.04 507.61 2845.32 507.82C2847.82 509.68 2850.31 511.55 2852.81 513.41C2853.33 513.8 2853.83 512.93 2853.31 512.55C2851.51 511.2 2849.7 509.86 2847.9 508.51C2848.04 508.31 2848.05 508.02 2847.85 507.82C2847.83 507.74 2847.8 507.66 2847.73 507.59C2838.14 497.08 2828.87 486.29 2819.93 475.22C2810.95 464.1 2802.31 452.72 2794.02 441.08C2785.77 429.49 2777.86 417.66 2770.32 405.6C2762.78 393.54 2755.59 381.25 2748.79 368.76C2745.37 362.49 2742.05 356.17 2738.83 349.8C2737.21 346.59 2735.34 343.37 2734.18 339.96C2733.06 336.69 2732.93 332.95 2735.62 330.4C2735.78 330.25 2735.94 330.11 2736.11 329.99C2753.82 331.57 2771.29 335.14 2788.44 339.78C2805.64 344.43 2822.54 350.14 2839.36 356.01C2856.93 362.14 2874.48 368.34 2892.04 374.51L2997.86 411.7C3000.05 412.47 3002.25 413.24 3004.44 414.01C3004.58 414.06 3004.71 414.04 3004.8 413.99C3005.72 414.3 3006.67 414.5 3007.64 414.6C3008.15 414.75 3008.67 414.89 3009.18 415.04C3009.8 415.22 3010.06 414.25 3009.45 414.08L3009.4 414.02Z" fill="#FFFAD7"/>
<path d="M2207.01 230.481C2204.98 231.421 2202.97 232.371 2200.94 233.321C2200.99 232.991 2200.75 232.611 2200.35 232.761C2185.98 238.031 2171.61 243.291 2157.24 248.561C2142.95 253.801 2128.66 259.031 2114.37 264.271C2110.43 265.721 2106.49 267.191 2102.53 268.601C2099.15 269.811 2095.7 270.911 2092.12 271.261C2092.2 270.941 2091.95 270.521 2091.52 270.631C2088.46 271.361 2085.66 268.691 2084.85 265.921C2083.78 262.291 2085.18 258.421 2086.3 254.981C2088.6 247.901 2091.09 240.881 2093.77 233.931C2099.15 220.011 2105.31 206.391 2112.21 193.151C2116.08 185.731 2120.17 178.431 2124.49 171.261C2124.82 170.711 2123.96 170.201 2123.63 170.761C2123.46 171.041 2123.29 171.331 2123.12 171.621C2123.01 171.271 2122.45 171.081 2122.21 171.501C2114.21 185.001 2106.23 198.501 2098.21 211.991C2090.69 224.631 2083.06 237.221 2074.62 249.271C2071.8 253.301 2068.88 257.251 2065.87 261.131C2065.68 261.091 2065.48 261.141 2065.36 261.361C2062.01 266.961 2055.44 269.221 2049.35 270.351C2045.54 271.051 2041.64 271.401 2037.78 271.691C2033.45 272.011 2029.1 272.151 2024.76 272.111C2016.05 272.041 2007.38 271.191 1998.77 269.881C1990.18 268.571 1981.64 266.911 1973.09 265.321C1964.45 263.721 1955.81 262.111 1947.17 260.511C1946.11 260.311 1945.05 260.121 1943.99 259.921C1943.75 259.881 1943.56 259.991 1943.46 260.151C1943.28 260.171 1943.12 260.311 1943.06 260.481C1942.94 260.451 1942.83 260.421 1942.71 260.401C1942.45 260.341 1942.17 260.481 1942.09 260.751C1942.02 261.001 1942.17 261.311 1942.44 261.371C1942.85 261.461 1943.26 261.561 1943.67 261.661C1943.72 261.781 1943.81 261.901 1943.97 261.951C1956.24 266.461 1968.4 271.251 1980.44 276.321C1992.45 281.371 2004.33 286.701 2016.09 292.311C2021.03 294.661 2026.12 297.081 2030.14 300.841C2034.48 314.941 2027.84 329.661 2021.68 342.261C2019.69 346.341 2017.62 350.391 2015.5 354.401C2015.28 354.821 2015.74 355.371 2016.18 355.081C2021.16 351.891 2026.24 348.861 2031.43 346.031C2034.06 344.591 2036.71 343.201 2039.39 341.861C2041.97 340.571 2044.57 339.231 2047.3 338.291C2050.28 337.271 2053.48 336.781 2056.5 337.901C2056.87 338.041 2057.1 337.731 2057.1 337.421C2065.13 340.151 2072.86 343.681 2080.32 347.711C2088.43 352.101 2096.23 357.041 2103.88 362.181C2108.18 365.061 2112.44 368.001 2116.7 370.951C2117.2 371.291 2117.64 370.571 2117.31 370.161C2112.11 363.901 2107.34 357.291 2103.04 350.391C2100.9 346.951 2098.87 343.441 2096.96 339.871C2095.05 336.291 2093.07 332.631 2091.6 328.841C2090.83 326.851 2090.25 324.661 2090.62 322.511C2090.84 321.261 2091.34 320.071 2092.16 319.131C2092.25 319.181 2092.36 319.201 2092.49 319.161C2104.55 315.971 2117.11 315.941 2129.5 316.151C2142.45 316.371 2155.39 316.631 2168.34 316.871C2175.67 317.011 2183 317.141 2190.33 317.281C2190.5 317.281 2190.62 317.211 2190.7 317.111C2191.91 317.111 2193.11 317.101 2194.32 317.091C2194.88 317.091 2195 316.251 2194.45 316.111L2156.05 305.881C2149.69 304.181 2143.33 302.491 2136.97 300.791L2127.31 298.221C2124.5 297.471 2121.67 296.771 2118.89 295.921C2114.4 294.551 2109.59 292.541 2107 288.471C2106.98 286.561 2107.97 284.571 2109.27 283.231C2110.46 282.001 2111.91 281.071 2113.37 280.201C2115.07 279.191 2116.79 278.221 2118.5 277.231C2125.53 273.201 2132.61 269.241 2139.73 265.361C2146.81 261.501 2153.94 257.711 2161.1 254.011C2168.3 250.281 2175.54 246.631 2182.82 243.061C2190.1 239.491 2197.41 236.001 2204.77 232.581C2205.68 232.161 2206.59 231.741 2207.5 231.321C2208.08 231.051 2207.58 230.191 2207 230.461L2207.01 230.481Z" fill="#FFFAD7"/>
<path d="M1478.39 297.05C1478.31 297.06 1478.23 297.07 1478.15 297.08C1478.17 296.82 1478.02 296.52 1477.68 296.48C1472.55 295.95 1467.41 295.41 1462.28 294.88C1459.71 294.61 1457.15 294.35 1454.58 294.08C1452.08 293.82 1449.55 293.65 1447.07 293.29C1446.21 293.16 1445.22 292.97 1444.59 292.31C1443.77 291.46 1444.12 290.28 1444.66 289.39C1445.28 288.38 1446.16 287.54 1446.97 286.68C1447.85 285.74 1448.73 284.8 1449.61 283.86C1453.12 280.1 1456.64 276.34 1460.15 272.59C1464.12 268.35 1468.08 264.1 1472.05 259.86C1472.33 259.56 1472.14 259.17 1471.86 259.04C1471.74 258.82 1471.48 258.69 1471.21 258.87C1470.65 259.25 1470.09 259.64 1469.52 260.02C1469.47 260.06 1469.43 260.1 1469.4 260.14C1462.3 265.09 1455.4 270.33 1448.75 275.86C1446.95 277.36 1445.16 278.88 1443.39 280.42C1442.48 281.22 1441.57 282.02 1440.66 282.83C1439.92 283.48 1438.97 284.31 1437.93 284.32C1435.74 284.35 1435.94 280.98 1435.88 279.55C1435.77 277.07 1435.71 274.59 1435.71 272.11C1435.69 266.48 1435.94 260.86 1436.44 255.26C1436.49 254.68 1435.61 254.6 1435.46 255.13C1433.19 262.8 1430.91 270.51 1427.58 277.79C1425.96 281.33 1424.16 284.94 1421.76 288.02C1419.53 290.87 1416.62 292.91 1413.25 294.2C1409.56 295.62 1405.62 296.24 1401.72 296.78C1401.33 296.83 1401.29 297.21 1401.45 297.48C1401.48 297.64 1401.58 297.78 1401.8 297.82C1406.78 298.81 1411.72 299.99 1416.61 301.36C1418.66 301.94 1420.78 302.45 1422.72 303.34C1424.2 304.02 1425.63 304.99 1426.34 306.48C1426.45 311.09 1426.15 315.7 1425.39 320.25C1425.3 320.82 1425.96 321.1 1426.3 320.64C1427.66 318.8 1429.18 317.08 1430.85 315.52C1431.65 314.77 1432.48 313.95 1433.45 313.42C1434.24 312.99 1435.14 312.87 1436.03 312.83C1436.06 312.85 1436.07 312.87 1436.1 312.89C1443.63 316.41 1451.02 320.23 1458.23 324.35C1460.06 325.4 1461.88 326.47 1463.69 327.55L1464.75 328.87C1465.15 329.37 1465.86 328.66 1465.46 328.16L1465.02 327.61C1465.08 327.41 1465.04 327.18 1464.81 327.05C1464.66 326.96 1464.5 326.87 1464.35 326.78C1459.65 320.91 1454.95 315.04 1450.25 309.17C1449.31 308 1447.54 306.22 1449.26 304.92C1449.81 304.5 1450.49 304.26 1451.14 304.06C1452.05 303.77 1452.98 303.5 1453.9 303.23C1457.66 302.14 1461.47 301.18 1465.3 300.35C1469.63 299.42 1474.01 298.65 1478.4 298.06C1479.03 297.98 1479.04 296.97 1478.4 297.06L1478.39 297.05Z" fill="#FFFAD7"/>
<defs>
<clipPath id="clip0_226_1135">
<rect width="621.95" height="624.74" fill="white" transform="translate(5597.6)"/>
</clipPath>
<clipPath id="clip1_226_1135">
<rect width="621.95" height="624.74" fill="white" transform="translate(4975.65)"/>
</clipPath>
</defs>
</svg>
