<svg width="9065" height="666" viewBox="0 0 9065 666" fill="none" xmlns="http://www.w3.org/2000/svg">
<path d="M954.96 350.636C953.5 351.026 952.03 351.416 950.57 351.806C949.88 351.986 949.18 352.176 948.49 352.356C947.78 352.546 946.83 352.646 946.18 352.976C946.11 353.016 946.06 353.036 946.02 353.046C946.04 352.896 946.07 352.746 946.11 352.586C946.25 351.956 946.54 351.356 946.76 350.746C947.33 349.206 947.89 347.666 948.46 346.126C949.03 344.586 946.98 343.806 945.95 344.666C944.59 345.806 943.23 346.956 941.87 348.096C941.45 348.446 940.57 349.376 940 349.076C939.54 348.836 939.35 347.796 939.21 347.356C938.13 343.976 937.26 340.536 936.55 337.066C936.21 335.396 933.59 335.796 933.6 337.466C933.62 339.706 933.6 341.946 933.51 344.186C933.47 345.306 933.41 346.426 933.34 347.546C933.29 348.346 933.37 349.446 933 350.196C932.6 351.016 931.79 350.236 931.19 349.906C930.29 349.416 929.41 348.886 928.55 348.316C926.81 347.166 925.21 345.866 923.71 344.426C922.31 343.096 920.19 345.216 921.59 346.546C923.43 348.296 925.44 349.886 927.6 351.246C927.4 351.756 927.45 352.346 927.94 352.766C928.74 353.446 930.41 354.696 930.11 355.926C929.85 357.006 928.18 357.396 927.29 357.696C924.14 358.756 920.95 359.696 917.74 360.546C915.86 361.046 916.66 363.826 918.54 363.436C922.79 362.556 927.1 362.066 931.44 361.996C932.35 361.986 933.61 361.756 934.47 362.016C934.43 362.166 934.39 362.316 934.34 362.466C934.18 362.856 933.94 363.246 933.74 363.616C932.69 365.586 931.64 367.546 930.59 369.516C929.78 371.046 931.67 372.466 932.95 371.336C936.36 368.306 942.36 363.336 946.94 367.256C948.43 368.536 950.24 366.636 949.06 365.136C947.62 363.296 944.99 359.786 947.39 357.626C948.49 356.636 950.13 356.096 951.46 355.476C953.01 354.756 954.57 354.056 956.14 353.366C957.73 352.676 956.58 350.196 954.98 350.626L954.96 350.636Z" fill="#FFFAD7"/>
<path d="M6013.08 202.907C6012.95 202.687 6012.62 202.577 6012.4 202.727C6012.23 202.847 6012.06 202.957 6011.89 203.077C6011.76 202.867 6011.5 202.737 6011.22 202.887C5984.55 217.177 5957.88 231.477 5931.21 245.767C5918.66 252.497 5906.12 259.317 5893.09 265.097C5886.69 267.937 5880.12 270.697 5873.4 272.707C5869.18 273.967 5862.35 275.097 5859.65 270.507C5857.8 267.367 5859.25 263.537 5860.66 260.537C5862.12 257.447 5863.71 254.417 5865.25 251.367C5868.44 245.057 5871.67 238.767 5874.93 232.507C5881.47 219.977 5888.16 207.527 5895.02 195.157C5908.8 170.307 5923.22 145.807 5938.25 121.697C5953.21 97.707 5968.78 74.097 5984.95 50.907C5986.93 48.067 5988.92 45.237 5990.92 42.407C5991.29 41.877 5990.43 41.377 5990.06 41.907C5990.06 41.907 5990.05 41.927 5990.04 41.927C5990.02 41.547 5989.4 41.297 5989.09 41.707C5975.44 59.527 5961.76 77.337 5948.05 95.117C5934.26 112.997 5920.45 130.857 5906.6 148.697C5892.89 166.367 5879.14 184.007 5865.37 201.637C5851.76 219.057 5838.21 236.537 5824.42 253.817C5817.92 261.957 5811.27 269.997 5804.21 277.667C5800.66 281.527 5797 285.287 5793.22 288.917C5789.62 292.367 5785.91 296.097 5781.3 298.187C5780.68 298.467 5780.04 298.707 5779.39 298.897C5777.79 298.687 5776.23 298.227 5774.85 297.527C5768.2 294.137 5764.2 287.137 5760.17 281.177C5750.74 267.237 5741.51 253.147 5732.49 238.937C5723.51 224.777 5714.73 210.477 5706.17 196.057C5697.58 181.577 5689.2 166.977 5681.04 152.247C5672.91 137.577 5665 122.787 5657.31 107.877C5656.35 106.007 5655.38 104.137 5654.43 102.257C5654.25 101.907 5653.85 101.957 5653.64 102.187C5653.6 102.087 5653.56 101.987 5653.53 101.887C5653.33 101.277 5652.36 101.537 5652.57 102.157C5652.98 103.357 5653.47 104.527 5654 105.677C5654 105.737 5654.01 105.797 5654.04 105.867C5659.54 118.697 5665.02 131.527 5670.46 144.377C5675.96 157.367 5681.44 170.367 5686.89 183.387C5692.28 196.267 5697.63 209.147 5702.96 222.047C5708.16 234.637 5713.47 247.207 5718.36 259.917C5723.12 272.287 5727.36 284.897 5729.98 297.907C5730.23 299.167 5730.46 300.427 5730.68 301.687C5730.44 302.277 5730.01 302.777 5729.35 303.077C5728.05 303.657 5726.62 303.467 5725.32 302.987C5722.61 301.977 5720.5 299.907 5718.46 297.947C5713.73 293.397 5709 288.837 5704.27 284.287C5694.87 275.237 5685.47 266.187 5676.07 257.137C5670.73 251.987 5665.38 246.847 5660.04 241.697C5659.64 241.307 5658.95 241.807 5659.25 242.307C5671.44 262.417 5683.62 282.537 5695.81 302.647C5698.87 307.697 5701.95 312.727 5704.98 317.787C5706.18 319.787 5707.42 322.437 5705.32 324.307C5703.93 325.537 5701.87 325.897 5700.09 325.997C5697.83 326.127 5695.56 325.777 5693.32 325.537C5690.68 325.247 5688.05 324.927 5685.42 324.577C5679.98 323.857 5674.56 322.997 5669.16 322.037C5648.11 318.287 5627.39 312.887 5606.85 306.957C5586.14 300.987 5565.59 294.477 5544.89 288.507C5524.24 282.557 5503.4 277.127 5482.22 273.367C5480.21 273.007 5478.2 272.687 5476.19 272.357C5475.86 272.227 5475.52 272.107 5475.19 271.977C5474.97 271.897 5474.8 271.977 5474.7 272.107C5474.59 272.087 5474.47 272.067 5474.36 272.047C5473.73 271.947 5473.46 272.907 5474.09 273.007C5474.7 273.107 5475.31 273.217 5475.92 273.317C5491.81 279.327 5507.67 285.397 5523.51 291.527C5539.61 297.757 5555.69 304.047 5571.74 310.397C5587.87 316.777 5603.97 323.217 5620.04 329.727C5636.12 336.227 5652.17 342.797 5668.2 349.417C5676.21 352.727 5684.22 356.057 5692.22 359.407C5695.66 360.847 5699.18 362.187 5702.49 363.897C5704.55 364.967 5706.6 366.217 5708.3 367.827C5717.17 384.357 5708.21 403.597 5699.35 418.097C5694.28 426.387 5688.69 434.387 5683.23 442.417C5677.61 450.677 5671.92 458.897 5666.16 467.067C5654.64 483.397 5642.84 499.537 5630.77 515.477C5618.63 531.497 5606.22 547.317 5593.55 562.917C5580.94 578.427 5568.07 593.727 5554.95 608.807C5553.32 610.677 5551.69 612.547 5550.05 614.407C5549.81 614.677 5549.93 615.007 5550.16 615.177C5549.27 616.107 5548.38 617.037 5547.49 617.977C5547.05 618.447 5547.75 619.157 5548.2 618.687C5561.66 604.497 5575.48 590.637 5589.63 577.127C5603.79 563.627 5618.28 550.477 5633.09 537.697C5647.9 524.917 5663.04 512.517 5678.47 500.497C5693.98 488.417 5709.81 476.727 5725.91 465.447C5733.87 459.867 5741.83 454.227 5750.07 449.057C5758.12 444.007 5767.09 439.267 5776.78 438.787C5779.17 438.667 5781.56 438.837 5783.91 439.277C5784.2 439.327 5784.4 439.157 5784.49 438.937C5794.23 443.577 5802.73 451.777 5809.91 459.297C5825.09 475.187 5840 491.337 5855.04 507.367C5870.19 523.517 5885.35 539.657 5900.5 555.807C5915.65 571.957 5930.81 588.097 5945.96 604.247C5961.11 620.397 5976.27 636.537 5991.42 652.687C5992.91 654.267 5994.39 655.857 5995.88 657.437C5995.86 657.627 5995.97 657.797 5996.12 657.917C5996.36 658.107 5996.61 658.287 5996.85 658.477C5996.95 658.577 5997.04 658.677 5997.14 658.787C5997.23 658.887 5997.34 658.917 5997.44 658.927C5998.15 659.477 5998.87 660.017 5999.58 660.567C6000.23 661.117 6000.89 661.637 6001.6 662.107C6001.62 662.127 6001.65 662.127 6001.67 662.137L6003.38 663.687C6003.86 664.117 6004.56 663.417 6004.09 662.977C6003.46 662.407 6002.84 661.837 6002.21 661.267C6002.28 661.107 6002.27 660.907 6002.1 660.747C5999.81 658.587 5997.73 656.207 5995.9 653.657C5995.82 653.547 5995.72 653.497 5995.61 653.467C5981.62 635.177 5968.3 616.377 5955.48 597.247C5942.52 577.897 5930.06 558.207 5917.91 538.337C5905.75 518.447 5893.9 498.377 5882.13 478.267C5876.3 468.297 5870.45 458.347 5864.69 448.337C5859.05 438.527 5853.6 428.547 5849.49 417.977C5842.28 399.467 5839.29 377.857 5847.45 359.187C5851.43 352.167 5856.2 345.587 5861.01 339.107C5870.76 325.987 5881.37 313.517 5892.6 301.647C5903.81 289.797 5915.65 278.547 5927.93 267.807C5940.3 256.987 5953.12 246.677 5966.24 236.777C5979.32 226.907 5992.69 217.427 6006.24 208.217C6007.93 207.067 6009.62 205.927 6011.32 204.787C6011.41 204.727 6011.47 204.647 6011.5 204.567C6011.96 204.257 6012.43 203.937 6012.89 203.627C6013.11 203.477 6013.21 203.187 6013.07 202.947L6013.08 202.907Z" fill="#FFFAD7"/>
<path d="M7825.75 227.856C7824.55 228.506 7823.36 229.156 7822.17 229.806C7822.05 229.576 7821.78 229.406 7821.48 229.566C7813.5 233.766 7805.39 237.726 7797.17 241.426C7797.11 241.456 7797.08 241.486 7797.04 241.516C7796.65 241.666 7796.27 241.816 7795.89 241.966C7795.82 241.966 7795.75 241.986 7795.68 242.026L7795.45 242.146C7795.16 242.266 7794.86 242.386 7794.57 242.516C7794.53 242.536 7794.49 242.546 7794.45 242.566C7794.34 242.616 7794.27 242.696 7794.24 242.786C7782.41 249.016 7770.58 255.256 7758.75 261.486L7721.81 280.956C7709.5 287.446 7697.18 293.936 7684.87 300.426C7672.56 306.916 7660.24 313.406 7647.93 319.896L7611.97 338.846C7611.6 338.806 7611.25 338.696 7610.91 338.556C7610.66 338.386 7610.41 338.206 7610.16 338.036C7610.22 337.666 7610.31 337.306 7610.44 336.936C7611.32 334.476 7612.28 332.036 7613.27 329.616C7613.29 329.576 7613.3 329.536 7613.32 329.496C7613.64 329.216 7613.95 328.936 7614.29 328.686C7614.7 328.376 7614.45 327.756 7614.07 327.736C7615.96 323.296 7618.01 318.936 7620.22 314.646C7625.19 304.976 7630.88 295.676 7636.98 286.676C7649.54 268.116 7663.7 250.676 7677.7 233.196C7692.44 214.796 7707.37 196.556 7722.48 178.476C7737.65 160.316 7753.01 142.326 7768.56 124.486C7781.71 109.396 7795.01 94.4163 7808.42 79.5563C7809.44 78.5563 7810.45 77.5363 7811.47 76.5363C7813.56 74.4963 7815.66 72.4563 7817.76 70.4163C7818.1 70.0863 7817.81 69.6263 7817.45 69.5763C7818.8 68.0863 7820.15 66.6063 7821.51 65.1163C7821.94 64.6463 7821.24 63.9363 7820.8 64.4063C7816.39 69.2363 7812 74.0763 7807.61 78.9363C7793.95 92.3663 7780.48 105.996 7767.25 119.856C7751.03 136.836 7735.15 154.126 7719.6 171.726C7704.05 189.326 7688.85 207.216 7674 225.396C7659.22 243.486 7644.79 261.866 7630.72 280.506C7623.62 289.906 7616.62 299.376 7609.71 308.916C7606.28 313.656 7602.87 318.406 7599.48 323.176C7597.83 325.496 7596.22 327.846 7594.55 330.146C7593.06 332.196 7591.2 334.526 7588.62 335.186C7586.48 335.726 7583.97 335.116 7582.92 333.066C7576.35 319.686 7569.85 306.276 7563.43 292.826C7556.29 277.846 7549.24 262.816 7542.28 247.736C7535.36 232.726 7528.53 217.686 7521.81 202.586C7515.08 187.496 7508.45 172.356 7501.91 157.186C7495.3 141.836 7488.79 126.456 7482.39 111.026C7481.61 109.146 7480.83 107.266 7480.05 105.376C7479.81 104.786 7478.84 105.046 7479.09 105.646C7481.25 110.866 7483.43 116.066 7485.61 121.276C7485.31 121.226 7484.99 121.466 7485.05 121.876C7485.35 124.076 7486.09 126.166 7487.18 128.096C7487.36 128.586 7487.53 129.076 7487.72 129.566C7487.62 129.666 7487.57 129.816 7487.65 129.996C7492.94 143.066 7498.23 156.136 7503.52 169.196C7508.84 182.326 7514.15 195.456 7519.47 208.586C7524.76 221.656 7530.05 234.726 7535.34 247.786C7540.63 260.856 7545.92 273.926 7551.21 286.986C7553.88 293.576 7556.55 300.166 7559.22 306.766C7561.69 312.856 7564.16 318.996 7565.62 325.416C7565.69 325.726 7565.75 326.026 7565.81 326.336C7565.55 326.976 7564.96 327.486 7564.32 327.766C7563.19 328.266 7561.95 327.936 7560.9 327.376C7559.72 326.746 7558.7 325.846 7557.67 324.996C7556.52 324.046 7555.36 323.096 7554.21 322.146C7549.53 318.286 7544.85 314.436 7540.16 310.576C7530.86 302.916 7521.56 295.256 7512.26 287.596C7509.63 285.426 7507 283.266 7504.37 281.096C7503.9 280.706 7503.39 280.166 7502.76 280.106C7502.63 280.096 7502.49 280.106 7502.36 280.146C7501.75 279.376 7501.15 278.616 7500.54 277.846C7500.14 277.346 7499.44 278.056 7499.83 278.556C7500.47 279.356 7501.1 280.156 7501.74 280.966C7501.78 281.276 7502.01 281.526 7502.28 281.646C7509.11 290.256 7515.93 298.866 7522.76 307.476C7530.4 317.116 7538.05 326.756 7545.69 336.396C7547.53 338.716 7549.47 341.076 7550.6 343.836C7551.11 345.076 7551.58 346.576 7551.44 347.936C7551.35 348.826 7550.8 350.426 7549.64 350.146C7549.4 350.086 7549.22 350.196 7549.11 350.346C7547.6 350.366 7545.97 349.966 7544.77 349.626C7540.77 348.486 7536.77 347.316 7532.78 346.136C7524.72 343.746 7516.69 341.286 7508.68 338.746C7492.73 333.686 7476.88 328.336 7461.13 322.686C7448.43 318.126 7435.8 313.376 7423.24 308.436C7418.87 306.636 7414.5 304.846 7410.11 303.096C7408.83 302.586 7407.54 302.076 7406.26 301.566C7406.18 301.536 7406.11 301.526 7406.04 301.536C7393.25 296.306 7380.54 290.886 7367.91 285.256C7352.63 278.446 7337.47 271.346 7322.46 263.976C7320.59 263.056 7318.72 262.136 7316.86 261.206C7316.29 260.916 7315.78 261.786 7316.36 262.066C7331.68 269.676 7347.14 276.996 7362.73 284.016C7378.16 290.966 7393.72 297.616 7409.41 303.976C7414.01 305.836 7418.61 307.666 7423.23 309.486C7427.73 311.346 7432.22 313.216 7436.69 315.126C7446.82 319.446 7456.89 323.916 7466.9 328.516C7476.91 333.116 7486.85 337.856 7496.73 342.726C7501.69 345.176 7506.63 347.656 7511.55 350.166C7515.89 352.376 7520.25 354.566 7524.49 356.966C7531.85 361.146 7539.28 366.306 7543.29 373.996C7543.79 374.956 7544.23 375.956 7544.61 376.966C7544.68 377.146 7544.81 377.236 7544.95 377.276C7545.03 394.106 7538.06 410.326 7528.36 423.876C7517.29 439.336 7502.8 451.876 7488.89 464.686C7485.39 467.906 7481.91 471.146 7478.44 474.406C7477.68 474.946 7476.92 475.476 7476.15 475.996C7475.88 476.176 7475.88 476.486 7476.01 476.706C7465.99 486.146 7456.1 495.726 7446.36 505.446C7432.41 519.366 7418.73 533.566 7405.35 548.026C7391.97 562.496 7378.87 577.226 7366.08 592.226C7364.52 594.056 7362.97 595.886 7361.42 597.716C7361.01 598.206 7361.71 598.916 7362.13 598.426C7374.99 583.206 7388.15 568.256 7401.61 553.566C7414.98 538.986 7428.64 524.676 7442.58 510.656C7454.57 498.586 7466.79 486.746 7479.19 475.106C7486.31 470.046 7492.88 464.256 7499.13 458.156C7506.17 451.276 7512.82 444.006 7519.57 436.836C7526.12 429.876 7532.78 422.996 7540 416.716C7547.06 410.566 7554.63 404.946 7562.87 400.466C7570.09 396.526 7577.85 393.516 7585.93 391.946C7598.23 396.206 7607.64 407.416 7614.87 417.936C7620.57 426.236 7625.71 434.936 7631.04 443.486C7637.03 453.086 7643.02 462.686 7649.01 472.286C7660.9 491.336 7672.78 510.386 7684.67 529.436C7696.6 548.566 7708.53 567.686 7720.47 586.816C7732.4 605.946 7744.33 625.066 7756.27 644.196C7757.74 646.556 7759.22 648.926 7760.69 651.286C7761.03 651.826 7761.9 651.326 7761.55 650.786L7728.05 597.096C7728.11 596.966 7728.12 596.816 7728.02 596.666C7727.1 595.096 7726.18 593.526 7725.29 591.946C7725.34 591.826 7725.34 591.686 7725.26 591.536C7723.89 588.876 7722.52 586.206 7721.15 583.546C7721.07 583.396 7720.96 583.326 7720.84 583.306C7712.93 570.036 7705.23 556.646 7697.76 543.126C7689.87 528.846 7682.22 514.436 7674.82 499.886C7667.45 485.406 7660.33 470.806 7653.46 456.086C7646.56 441.296 7639.91 426.396 7633.52 411.386C7630.32 403.856 7627.06 396.326 7624.14 388.686C7621.29 381.226 7618.82 373.236 7619.51 365.156C7619.53 364.926 7619.56 364.696 7619.59 364.476C7625.87 353.606 7634.41 344.226 7643.97 336.096C7655.11 326.616 7667.52 318.746 7680.06 311.266C7695.06 302.326 7710.21 293.616 7725.36 284.936C7741.11 275.906 7756.91 266.976 7772.77 258.136C7788.63 249.296 7804.53 240.546 7820.49 231.896C7822.42 230.846 7824.36 229.796 7826.3 228.756C7826.87 228.446 7826.36 227.586 7825.8 227.896L7825.75 227.856ZM7486.9 467.896C7491.1 464.016 7495.36 460.176 7499.58 456.296C7495.51 460.326 7491.3 464.236 7486.9 467.896Z" fill="#FFFAD7"/>
<path d="M8270.54 311.866C8255.76 319.676 8240.97 327.486 8226.19 335.296C8222.46 337.266 8218.73 339.236 8215 341.206C8219.1 331.766 8223.39 322.406 8227.87 313.136C8229.2 310.386 8230.55 307.646 8231.91 304.916C8232.15 304.436 8231.52 303.856 8231.12 304.306C8222.9 313.776 8214.09 322.736 8204.74 331.106C8202.39 333.206 8200.02 335.266 8197.61 337.296C8195.54 339.036 8192.78 341.596 8189.87 340.246C8187.45 339.116 8186.17 336.256 8184.98 334.036C8183.47 331.246 8182.05 328.406 8180.71 325.526C8177.68 319.006 8175.1 312.286 8172.96 305.426C8172.75 304.826 8171.8 305.076 8172 305.696C8175.94 317.166 8177.8 329.276 8177.49 341.396C8177.49 341.616 8177.6 341.746 8177.74 341.816C8174.29 343.536 8169.4 340.846 8166.58 338.756C8164.07 336.896 8161.93 334.536 8159.7 332.356C8157.1 329.816 8154.49 327.276 8151.89 324.736C8141.52 314.616 8131.15 304.506 8120.79 294.386C8114.93 288.666 8109.07 282.956 8103.22 277.236C8102.75 276.776 8102.11 277.456 8102.51 277.946C8111.16 288.356 8119.81 298.766 8128.46 309.176C8137.11 319.586 8145.76 329.996 8154.41 340.406C8156.83 343.316 8159.3 346.196 8161.67 349.156C8163.66 351.636 8165.8 354.816 8164.89 358.106C8140.84 355.596 8117.99 347.036 8095.86 337.706C8073.52 328.296 8051.3 318.576 8029.05 308.966C8016.12 302.936 8003.16 296.996 7990.14 291.166C7974.75 284.276 7959.3 277.526 7943.8 270.916C7941.85 270.086 7939.91 269.256 7937.96 268.436C7937.37 268.186 7936.86 269.046 7937.46 269.296C7952.92 275.846 7968.32 282.536 7983.66 289.356C7984.44 289.706 7985.22 290.066 7986.01 290.416C7985.65 290.266 7985.29 290.106 7984.93 289.956C7984.35 289.706 7983.84 290.566 7984.43 290.816C7996.45 295.996 8008.47 301.176 8020.48 306.346L8029.09 310.056C8029.22 310.116 8029.36 310.176 8029.49 310.236C8044.64 317.306 8059.73 324.506 8074.75 331.846C8089.5 339.046 8104.24 346.296 8118.81 353.856C8130.86 360.116 8143.11 367.186 8151.62 378.036C8152.01 378.536 8152.38 379.056 8152.76 379.576C8154.11 384.416 8154.01 389.636 8152.9 394.546C8151.33 401.506 8147.75 407.776 8143.62 413.526C8141.2 416.906 8138.57 420.126 8135.94 423.346C8135.54 423.836 8136.16 424.486 8136.65 424.056C8142.5 418.806 8148.64 413.876 8155.04 409.306C8161.44 404.736 8168.09 400.506 8174.96 396.666C8178.25 394.826 8181.6 393.096 8184.98 391.426C8194.34 393.566 8202.93 398.656 8209.32 405.876C8211.49 408.326 8213.44 410.966 8215.33 413.636C8217.29 416.386 8219.22 419.156 8221.14 421.926C8224.96 427.446 8228.71 433.026 8232.39 438.646C8236.56 445.006 8240.64 451.436 8244.63 457.906C8244.72 458.056 8244.86 458.126 8244.99 458.136C8245.42 459.376 8245.85 460.616 8246.29 461.866C8246.5 462.466 8247.47 462.206 8247.25 461.596C8243.26 450.146 8239.28 438.696 8235.29 427.236C8233.3 421.506 8231.3 415.786 8229.31 410.056C8227.35 404.426 8225.27 398.826 8223.49 393.136C8221.79 387.726 8220.54 382.036 8221.38 376.356C8222.06 371.736 8223.96 367.416 8226.46 363.496C8231.79 355.156 8239.44 348.576 8246.28 341.526C8254.22 333.356 8261.72 324.756 8268.74 315.786C8269.58 314.706 8270.42 313.626 8271.25 312.536C8271.58 312.106 8270.97 311.636 8270.57 311.856L8270.54 311.866Z" fill="#FFFAD7"/>
<path d="M8831.77 335.167C8826.59 342.457 8819.76 348.547 8811.95 352.887C8809.97 353.987 8807.92 354.967 8805.82 355.837C8806.75 349.187 8808.63 342.677 8811.41 336.567C8811.67 335.987 8810.9 335.517 8810.55 336.067C8806.05 342.947 8801.34 350.087 8794.39 354.717C8792.77 346.497 8790.53 338.397 8787.68 330.517C8786.85 328.217 8785.96 325.927 8785.02 323.667C8784.78 323.087 8783.89 323.287 8784.06 323.937C8785.21 328.397 8786.21 332.897 8787.05 337.427C8787.48 339.727 8787.86 342.047 8788.21 344.367C8788.52 346.427 8788.91 348.527 8788.97 350.617C8789.02 352.087 8788.9 353.897 8787.73 354.947C8786.12 356.407 8783.83 355.347 8782.26 354.397C8778.47 352.107 8774.85 349.457 8771.29 346.827C8767.19 343.797 8763.2 340.627 8759.32 337.317C8758.84 336.907 8758.15 337.567 8758.61 338.027C8765.3 344.697 8771.58 351.777 8777.4 359.227C8778.89 361.127 8780.34 363.067 8781.77 365.017C8772.06 364.537 8762.3 365.717 8752.99 368.517C8752.41 368.687 8752.59 369.427 8753.12 369.497C8757.32 370.047 8761.52 370.597 8765.71 371.137C8767.81 371.407 8769.91 371.687 8772.01 371.957C8773.84 372.197 8775.68 372.377 8777.48 372.777C8779.14 373.147 8780.76 373.727 8782.07 374.827C8775.03 380.357 8768.92 387.027 8764.02 394.527C8763.71 394.997 8764.45 395.577 8764.81 395.137C8770.16 388.487 8776.89 382.977 8784.47 379.047C8786.65 377.917 8788.89 376.927 8791.18 376.067C8791.35 376.007 8791.44 375.887 8791.48 375.747C8800.23 375.117 8808.05 380.567 8814.28 386.207C8816.23 387.977 8818.1 389.837 8819.95 391.717C8820.41 392.187 8821.06 391.497 8820.66 391.007C8814.83 384.057 8809.66 374.667 8811.68 365.287C8813.37 357.407 8819.77 351.897 8825.03 346.277C8828.01 343.097 8830.86 339.687 8832.63 335.667C8832.89 335.077 8832.14 334.627 8831.77 335.167Z" fill="#FFFAD7"/>
<path d="M7228.45 221.286C7228.17 221.416 7227.88 221.536 7227.6 221.656C7227.48 221.606 7227.33 221.596 7227.18 221.676C7226.59 221.986 7226.01 222.296 7225.42 222.606C7210.53 229.156 7195.61 235.636 7180.64 242.006C7164.48 248.886 7148.27 255.666 7132.02 262.336C7115.95 268.936 7099.84 275.426 7083.69 281.816C7075.61 285.016 7067.53 288.176 7059.43 291.326C7055.66 292.786 7051.91 294.436 7048.05 295.636C7045.03 296.576 7041.28 297.356 7038.39 295.636C7036.25 292.466 7037.55 288.106 7039.13 284.906C7041.07 280.966 7043.53 277.246 7045.83 273.526C7048.15 269.776 7050.52 266.066 7052.94 262.386C7062.67 247.576 7073.15 233.286 7084.06 219.326C7094.89 205.456 7106.14 191.916 7117.5 178.486C7129.41 164.406 7141.41 150.406 7153.38 136.366C7165.69 121.936 7177.99 107.506 7190.3 93.0763L7194.93 87.6463C7194.93 87.6463 7194.99 87.5463 7195.01 87.4963C7195.14 87.4963 7195.27 87.4363 7195.36 87.3463C7195.45 87.2563 7195.51 87.1163 7195.51 86.9963C7195.51 86.8763 7195.46 86.7663 7195.38 86.6763C7199.51 82.3463 7203.65 78.0163 7207.79 73.6963C7210.5 70.8663 7213.22 68.0363 7215.93 65.2163C7216.38 64.7563 7215.68 64.0563 7215.22 64.5063C7200 79.7063 7185.16 95.2763 7170.59 111.096C7166.28 115.776 7161.99 120.486 7157.72 125.206C7154.47 128.726 7151.24 132.256 7148.02 135.796C7137.02 147.896 7126.19 160.156 7115.61 172.626C7113.81 174.746 7112.03 176.886 7110.24 179.026C7101.99 188.536 7093.76 198.066 7085.54 207.596C7071.58 223.776 7057.62 239.966 7043.52 256.026C7031.13 270.136 7018.63 284.136 7005.94 297.976C7003.21 300.166 7000.49 302.346 6997.76 304.536C6997.66 304.616 6997.61 304.716 6997.6 304.816C6996.87 305.356 6996.14 305.896 6995.41 306.426C6995.23 306.316 6995 306.296 6994.8 306.456C6989.53 310.666 6982.04 308.266 6977.48 304.226C6974.97 302.006 6972.96 299.296 6971.08 296.546C6969.06 293.576 6967.11 290.546 6965.15 287.526C6957.06 275.056 6949.23 262.406 6941.68 249.596C6934.13 236.786 6926.85 223.816 6919.85 210.696C6912.85 197.576 6906.14 184.306 6899.71 170.896C6893.28 157.486 6887.14 143.946 6881.29 130.276C6880.54 128.536 6879.8 126.786 6879.07 125.036C6878.83 124.456 6877.87 124.696 6878.11 125.306C6883.14 138.186 6888.16 151.056 6893.19 163.936C6898.22 176.816 6903.24 189.686 6908.27 202.566C6913.3 215.446 6918.32 228.316 6923.35 241.196C6928.38 254.076 6933.4 266.946 6938.43 279.826C6940.93 286.236 6943.43 292.646 6945.93 299.046C6946.92 301.596 6948.15 304.146 6948.65 306.846C6949 308.736 6949.16 311.116 6948.08 312.816C6947.56 313.626 6946.8 314.056 6945.87 314.236C6945.76 314.256 6945.68 314.316 6945.63 314.376C6938.56 311.656 6932.77 306.226 6927.46 300.896C6919.78 293.176 6912.16 285.396 6904.51 277.646C6900.09 273.176 6895.68 268.696 6891.26 264.226C6890.8 263.766 6890.14 264.446 6890.55 264.936C6903.19 279.826 6915.95 294.906 6925.22 312.206C6927.54 316.546 6929.64 321.006 6931.42 325.596C6932.37 328.056 6933.43 330.856 6932.56 333.496C6932.02 335.146 6930.78 336.376 6929.24 337.116C6925.99 338.696 6921.89 338.436 6918.43 337.856C6913.28 336.996 6908.16 335.886 6903.06 334.786C6882.54 330.376 6862.29 324.776 6842.3 318.396C6822.26 312.006 6802.48 304.836 6782.86 297.256C6771.15 292.736 6759.51 288.066 6747.89 283.336C6736.75 278.416 6725.62 273.456 6714.53 268.426C6712.52 267.516 6710.5 266.596 6708.49 265.676C6707.91 265.416 6707.4 266.276 6707.99 266.536C6711.28 268.036 6714.58 269.506 6717.88 270.996C6717.55 270.856 6717.21 270.726 6716.88 270.586C6716.29 270.336 6716.03 271.306 6716.61 271.546C6726.96 275.826 6737.31 280.096 6747.69 284.326C6750.75 285.676 6753.8 287.046 6756.87 288.386C6773.14 295.526 6789.47 302.556 6805.84 309.466C6822.11 316.336 6838.43 323.086 6854.79 329.726C6863.06 333.086 6871.34 336.406 6879.63 339.706C6886.97 342.626 6894.36 345.446 6901.63 348.556C6912.73 353.306 6923.8 358.916 6932.87 366.986C6932.68 367.166 6932.61 367.446 6932.87 367.656C6937.75 371.636 6940.35 377.626 6940.94 383.816C6941.58 390.486 6940.01 397.036 6937.02 402.986C6933.64 409.706 6928.76 415.526 6923.71 421.046C6918.12 427.156 6912.4 433.156 6906.72 439.176C6894.96 451.656 6883.13 464.066 6871.25 476.426C6859.32 488.826 6847.33 501.176 6835.28 513.466C6823.23 525.756 6811.12 537.976 6798.95 550.146C6797.47 551.626 6795.99 553.096 6794.51 554.576C6794.34 554.746 6794.33 554.946 6794.41 555.106C6783.35 565.666 6772.34 576.276 6761.42 586.976C6759.65 588.706 6757.89 590.446 6756.13 592.176C6755.67 592.626 6756.38 593.336 6756.84 592.886C6770.99 578.946 6785.26 565.136 6799.65 551.446C6814.04 537.756 6828.55 524.196 6843.18 510.766C6857.81 497.336 6872.56 484.036 6887.42 470.856C6901.28 458.576 6915.11 446.126 6930.31 435.496C6937.75 430.286 6945.52 425.536 6953.69 421.556C6962.19 417.416 6971.26 413.986 6980.73 412.986C6983.04 412.746 6985.35 412.656 6987.67 412.726C6995.72 417.196 7003.07 422.876 7009.71 429.286C7019.58 438.816 7027.93 449.786 7035.6 461.126C7044.13 473.736 7051.93 486.836 7059.92 499.786L7087.72 544.896C7096.96 559.876 7106.19 574.866 7115.43 589.846C7116.58 591.716 7117.73 593.576 7118.88 595.446C7118.98 595.606 7119.12 595.666 7119.27 595.676C7131.2 615.796 7143.83 635.486 7157.16 654.706C7158.87 657.176 7160.59 659.626 7162.32 662.076C7162.69 662.596 7163.56 662.096 7163.18 661.576C7149.15 641.726 7135.85 621.376 7123.32 600.546C7110.79 579.726 7099.03 558.436 7088.07 536.746C7077.08 515.006 7066.9 492.856 7057.55 470.366C7052.83 458.996 7048.24 447.556 7044.05 435.986C7039.82 424.286 7036.13 412.326 7034.26 399.996C7031.02 378.666 7033.85 354.986 7047.9 337.796C7049.5 335.836 7051.24 333.996 7053.09 332.266C7053.33 332.036 7053.26 331.736 7053.07 331.566C7058.51 325.766 7064.29 320.286 7070.33 315.116C7080.78 306.176 7091.97 298.136 7103.53 290.696C7115.14 283.216 7127.13 276.316 7139.23 269.676C7152.24 262.526 7165.39 255.626 7178.5 248.656C7193.08 240.906 7207.67 233.146 7222.25 225.396C7223.45 224.756 7224.64 224.126 7225.84 223.486C7226.87 223.036 7227.9 222.586 7228.94 222.126C7229.53 221.866 7229.02 221.006 7228.44 221.266L7228.45 221.286Z" fill="#FFFAD7"/>
<path d="M6616.03 229.756C6599.37 236.576 6582.6 243.116 6565.72 249.366C6548.84 255.616 6531.85 261.576 6514.77 267.246C6505.78 270.226 6496.77 273.116 6487.73 275.946C6488.02 275.606 6487.77 274.946 6487.25 275.136C6482.56 276.866 6477.75 278.226 6472.84 279.176C6468.37 280.036 6463.22 281.146 6458.74 279.766C6454.72 278.536 6452.36 274.936 6451.71 270.926C6450.99 266.456 6452.52 262.076 6454.61 258.176C6456.86 253.996 6459.6 250.066 6462.18 246.076C6464.81 242.016 6467.45 237.966 6470.12 233.926C6475.53 225.736 6481.04 217.606 6486.72 209.606C6498.05 193.636 6510.09 178.146 6523.31 163.686C6530.22 156.126 6537.43 148.846 6544.59 141.516C6551.69 134.246 6558.72 126.896 6565.68 119.486C6579.64 104.606 6593.29 89.4262 6606.62 73.9862C6608.27 72.0762 6609.91 70.1662 6611.55 68.2462C6611.96 67.7662 6611.31 67.0762 6610.84 67.5362C6596.15 82.1362 6581.45 96.7462 6566.95 111.536C6552.45 126.326 6538.15 141.306 6524.25 156.656C6510.21 172.156 6496.82 188.206 6483.14 204.026C6469.61 219.676 6455.48 234.776 6440.92 249.476C6426.42 264.116 6411.55 278.386 6396.65 292.616C6394.84 294.346 6393.03 296.066 6391.22 297.796C6391.14 297.876 6391.1 297.966 6391.09 298.046C6386.74 301.356 6380.5 301.216 6375.59 299.086C6369.26 296.336 6364.99 290.376 6361.45 284.706C6357.33 278.096 6353.41 271.356 6349.42 264.666C6345.31 257.796 6341.22 250.916 6337.16 244.016C6329.04 230.226 6321.04 216.356 6313.3 202.336C6305.57 188.336 6298.11 174.196 6291.06 159.856C6283.98 145.456 6277.31 130.846 6271.22 115.996C6270.46 114.146 6269.71 112.296 6268.97 110.436C6268.73 109.846 6267.77 110.106 6268.01 110.706C6268.14 111.036 6268.28 111.366 6268.41 111.696C6268.37 111.786 6268.36 111.886 6268.41 112.006C6272.78 124.656 6277.15 137.306 6281.51 149.956C6285.87 162.606 6290.22 175.266 6294.57 187.926C6298.92 200.586 6303.25 213.246 6307.59 225.906C6311.9 238.506 6316.2 251.116 6320.5 263.716C6322.67 270.076 6324.84 276.446 6327 282.816C6329.04 288.796 6331.73 295.036 6331.83 301.446C6331.85 302.826 6331.72 304.196 6331.43 305.546C6323.94 301.616 6317.35 296.226 6311.27 290.356C6303.92 283.246 6297.07 275.606 6290.07 268.146C6285.77 263.566 6281.46 258.976 6277.16 254.396C6276.78 253.996 6276.03 254.536 6276.37 255.006C6288.12 271.016 6298.7 287.876 6308 305.426C6310.33 309.826 6312.58 314.276 6314.75 318.756C6316.46 322.296 6318.38 326.036 6318.33 330.086C6318.31 331.866 6317.8 333.656 6316.44 334.876C6314.62 336.506 6312.05 336.556 6309.74 336.486C6304.57 336.336 6299.42 335.686 6294.35 334.696C6284.33 332.746 6274.61 329.496 6265.03 326.016C6255.15 322.426 6245.31 318.706 6235.48 314.976C6215.58 307.426 6195.74 299.686 6175.95 291.856C6156.22 284.056 6136.53 276.156 6116.85 268.246C6114.37 267.246 6111.89 266.256 6109.42 265.256C6109.19 265.166 6109.01 265.256 6108.91 265.406C6107.81 264.916 6106.72 264.436 6105.62 263.946C6105.3 263.806 6105.01 263.996 6104.91 264.236C6104.8 264.196 6104.7 264.146 6104.59 264.106C6104.06 263.886 6103.73 264.736 6104.2 265.016C6105.84 265.976 6107.53 266.846 6109.26 267.636C6109.28 267.756 6109.36 267.866 6109.51 267.936C6124.24 274.186 6138.92 280.536 6153.55 287.006C6168.18 293.466 6182.77 300.036 6197.31 306.706C6211.85 313.376 6226.34 320.156 6240.78 327.046C6255.22 333.926 6269.61 340.916 6283.95 348.006C6295.87 353.906 6308.09 359.556 6319.32 366.736C6319.33 366.826 6319.36 366.926 6319.43 367.016C6328.36 377.466 6328.27 392.866 6323.51 405.136C6317.85 419.716 6306.62 431.366 6296.53 442.976C6285.15 456.076 6273.76 469.166 6262.38 482.266C6250.99 495.356 6239.6 508.446 6228.2 521.536C6216.8 534.626 6205.41 547.706 6194 560.786C6192.61 562.386 6191.21 563.986 6189.82 565.576C6189.8 565.596 6189.8 565.616 6189.79 565.626C6180.67 574.376 6171.56 583.126 6162.44 591.876C6160.56 593.686 6158.67 595.496 6156.79 597.296C6156.32 597.746 6157.03 598.446 6157.5 598.006C6172.29 583.806 6187.09 569.616 6201.88 555.416C6215.93 541.926 6229.92 528.376 6244.09 514.996C6257.24 502.586 6270.62 490.396 6284.68 479.006C6298.73 467.626 6313.47 457.066 6329.15 448.046C6337.17 443.436 6345.42 439.056 6354.15 435.946C6360.28 433.766 6366.75 432.186 6373.27 431.926C6380.11 432.936 6386.93 434.166 6393.47 436.426C6401.34 439.136 6408.39 443.546 6414.63 449.006C6420.67 454.286 6425.95 460.376 6430.98 466.606C6436.71 473.716 6442.26 480.976 6447.82 488.226C6459.31 503.226 6470.6 518.366 6481.76 533.616C6492.92 548.866 6503.93 564.216 6514.87 579.626C6525.85 595.086 6536.76 610.596 6547.66 626.116C6549.01 628.046 6550.37 629.966 6551.72 631.896C6551.84 632.076 6552.02 632.126 6552.19 632.106C6553.79 634.316 6555.4 636.516 6557 638.726C6557.14 638.916 6557.35 638.966 6557.54 638.926C6557.74 639.236 6557.93 639.556 6558.13 639.866C6558.47 640.406 6559.34 639.906 6558.99 639.366C6546.33 619.116 6534.19 598.526 6522.6 577.636C6511.01 556.746 6499.98 535.556 6489.5 514.086C6478.98 492.526 6469.03 470.696 6459.67 448.606C6454.97 437.516 6450.41 426.356 6446 415.146C6441.64 404.046 6437.09 392.546 6437.32 380.406C6437.73 358.946 6452.13 340.916 6466.48 326.316C6467.23 325.556 6468 324.816 6468.77 324.056C6476.51 317.826 6484.35 311.736 6492.33 305.816C6501.62 298.916 6511.07 292.226 6520.66 285.756C6530.25 279.286 6540 273.036 6549.88 267.016C6559.8 260.966 6569.86 255.146 6580.04 249.556C6590.65 243.736 6601.43 238.216 6612.24 232.776C6613.63 232.076 6615.02 231.376 6616.41 230.686C6616.91 230.436 6616.55 229.556 6616.02 229.776L6616.03 229.756Z" fill="#FFFAD7"/>
<path d="M5419.15 664.686C5418.35 663.886 5417.55 663.086 5416.75 662.286C5401.6 643.086 5386.74 623.646 5372.2 603.976C5357.38 583.926 5342.88 563.646 5328.7 543.136C5314.58 522.706 5300.79 502.056 5287.33 481.186C5280.6 470.756 5273.95 460.266 5267.39 449.726C5260.94 439.366 5254.34 429.046 5248.36 418.406C5242.56 408.096 5237.8 397.046 5237.2 385.086C5236.65 374.156 5239.21 363.076 5244.55 353.516C5245.85 351.176 5247.33 348.946 5248.94 346.816C5249.12 346.576 5249.02 346.346 5248.84 346.216C5255.03 338.396 5261.39 330.716 5267.94 323.196C5277.61 312.086 5287.67 301.306 5298.08 290.886C5308.45 280.496 5319.18 270.456 5330.24 260.786C5341.33 251.086 5352.76 241.766 5364.49 232.846C5376.22 223.926 5388.25 215.416 5400.56 207.326C5402.07 206.336 5403.58 205.346 5405.1 204.366C5405.65 204.016 5405.17 203.236 5404.6 203.506C5393.5 208.656 5382.38 213.766 5371.25 218.836C5360.12 223.906 5348.96 228.936 5337.79 233.926C5326.57 238.946 5315.33 243.916 5304.08 248.856C5292.88 253.776 5281.66 258.646 5270.42 263.486C5264.83 265.896 5259.26 268.446 5253.6 270.676C5251.14 271.646 5247.96 272.666 5245.44 271.346C5245.3 271.266 5245.16 271.176 5245.02 271.086C5244.9 264.606 5247.04 258.146 5249.72 252.226C5253.56 243.756 5258.26 235.626 5262.66 227.436C5271.7 210.616 5280.89 193.886 5290.22 177.226C5299.59 160.496 5309.12 143.856 5318.79 127.296C5328.42 110.806 5338.19 94.4058 5348.11 78.0958C5358.03 61.7858 5368.09 45.5558 5378.29 29.4158C5379.38 27.6858 5380.48 25.9558 5381.58 24.2258C5381.65 24.1258 5381.72 24.0358 5381.77 23.9258C5381.89 23.7358 5382 23.5558 5382.12 23.3658C5382.18 23.2758 5382.19 23.1958 5382.19 23.1158C5382.32 22.8758 5382.45 22.6358 5382.58 22.4058C5383.36 20.9758 5384.14 19.5458 5384.92 18.1158C5385.18 17.6358 5384.51 17.0558 5384.13 17.5058C5383.33 18.4858 5382.52 19.4658 5381.72 20.4458C5381.64 20.4758 5381.56 20.5258 5381.5 20.6158C5367.46 39.6158 5353.58 58.7358 5339.86 77.9758C5326.14 97.2158 5312.59 116.576 5299.21 136.046C5285.83 155.516 5272.61 175.096 5259.56 194.796C5247.01 213.736 5234.86 232.946 5222.3 251.886C5213.47 265.196 5203.82 278.456 5191.64 288.896C5191.84 288.616 5192.04 288.326 5192.22 288.026C5192.56 287.476 5191.7 286.976 5191.36 287.526C5187.94 292.956 5181.62 295.376 5175.4 295.396C5168.54 295.416 5162.31 292.646 5157.18 288.186C5151.37 283.136 5147.16 276.546 5143.31 269.956C5138.77 262.206 5134.37 254.386 5129.94 246.576C5120.75 230.386 5111.65 214.136 5102.65 197.836C5093.65 181.536 5084.74 165.186 5075.93 148.786C5067.12 132.386 5058.41 115.926 5049.79 99.4258C5048.71 97.3458 5047.62 95.2658 5046.54 93.1858C5046.24 92.6158 5045.38 93.1158 5045.68 93.6858C5046.1 94.4858 5046.52 95.2758 5046.93 96.0758C5046.81 96.1858 5046.75 96.3358 5046.81 96.5358C5053.01 116.046 5059.44 135.486 5066.13 154.826C5072.82 174.166 5079.75 193.436 5086.92 212.616C5094.09 231.786 5101.51 250.876 5109.17 269.856C5113.02 279.416 5116.94 288.946 5120.91 298.446C5121.38 299.566 5121.86 300.676 5122.31 301.796C5122.81 303.046 5123.35 304.526 5122.69 305.826C5121.95 307.276 5120.2 307.316 5118.8 307.006C5117.14 306.646 5115.55 305.816 5114.2 304.786C5112.22 303.256 5110.34 301.566 5108.43 299.956L5060.13 259.436C5060.07 259.386 5060.02 259.336 5059.96 259.296C5058.24 257.336 5056.51 255.386 5054.76 253.456C5054.33 252.976 5053.62 253.686 5054.05 254.166C5054.26 254.396 5054.47 254.636 5054.68 254.866C5054.47 254.696 5054.26 254.516 5054.06 254.346C5053.57 253.936 5052.86 254.636 5053.35 255.056C5055.31 256.706 5057.28 258.356 5059.24 259.996C5071.88 274.486 5083.42 289.916 5093.72 306.156C5096.37 310.326 5099.27 314.526 5101.05 319.156C5102.49 322.906 5103.55 327.656 5101.22 331.286C5098.43 335.626 5092.73 335.656 5088.14 335.586C5082.4 335.506 5076.67 335.056 5070.98 334.346C5059.44 332.916 5048.06 330.436 5036.74 327.816C5025.41 325.196 5014.09 322.516 5002.77 319.866C4979.69 314.456 4956.6 309.046 4933.52 303.646C4910.6 298.276 4887.67 292.906 4864.75 287.536C4861.9 286.866 4859.06 286.206 4856.21 285.536C4855.82 285.446 4855.57 285.786 4855.59 286.086C4854.81 285.786 4854.02 285.486 4853.24 285.186C4852.64 284.956 4852.38 285.926 4852.97 286.146C4871.08 293.076 4889.24 299.836 4907.47 306.436C4925.62 313.006 4943.82 319.416 4962.09 325.656C4980.43 331.926 4998.83 338.026 5017.29 343.966C5035.66 349.876 5054.09 355.626 5072.56 361.196C5080.38 363.556 5088.37 365.636 5095.96 368.686C5100.84 370.656 5105.7 373.146 5109.7 376.616C5111.37 380.696 5111.74 385.396 5111 389.676C5109.37 399.156 5103.51 407.286 5098.44 415.216C5086.97 433.136 5075.49 451.066 5064.02 468.986C5052.59 486.836 5041.17 504.686 5029.74 522.536C5018.27 540.456 5006.79 558.386 4995.32 576.306C4983.89 594.156 4972.47 612.006 4961.04 629.856C4960.85 630.156 4960.66 630.446 4960.47 630.746C4960.16 631.136 4959.84 631.516 4959.53 631.896C4957.96 633.846 4956.4 635.796 4954.84 637.746C4954.44 638.246 4955.15 638.956 4955.55 638.456C4955.92 637.996 4956.29 637.536 4956.66 637.076C4956.81 637.386 4957.31 637.526 4957.55 637.146L4961.23 631.386C4972.01 618.026 4983 604.846 4994.22 591.866C5007.43 576.596 5020.94 561.596 5034.75 546.866C5048.51 532.186 5062.57 517.786 5076.91 503.676C5091.13 489.676 5105.57 475.856 5120.43 462.536C5133.46 450.856 5148.75 438.576 5166.87 436.986C5167.98 436.886 5169.09 436.836 5170.2 436.826C5185.28 439.176 5198.85 448.116 5210.42 458.006C5218.26 464.706 5225.49 472.076 5232.77 479.376C5241.35 487.966 5249.93 496.566 5258.51 505.156C5275.55 522.226 5292.58 539.286 5309.62 556.356C5326.72 573.486 5343.81 590.606 5360.91 607.736C5378.01 624.866 5395.1 641.986 5412.2 659.116C5413.48 660.396 5414.75 661.676 5416.03 662.956C5416.43 663.456 5416.82 663.966 5417.22 664.466C5417.36 664.636 5417.53 664.666 5417.68 664.606C5417.94 664.866 5418.19 665.126 5418.45 665.376C5418.91 665.836 5419.61 665.126 5419.16 664.666L5419.15 664.686Z" fill="#FFFAD7"/>
<path d="M4832.24 649.125C4830.34 646.985 4828.43 644.845 4826.53 642.705C4826.53 642.595 4826.48 642.485 4826.36 642.385C4826.22 642.275 4826.08 642.155 4825.94 642.045C4818.12 633.265 4810.31 624.475 4802.49 615.695C4792.57 604.555 4782.66 593.405 4772.74 582.265C4772.2 581.655 4771.65 581.045 4771.11 580.435C4756.39 561.215 4740.21 543.115 4723.83 525.295C4699.95 499.315 4675.5 473.735 4654.21 445.535C4643.47 431.305 4632.6 416.345 4625.81 399.755C4622.37 391.335 4620.08 382.325 4620.22 373.175C4620.35 364.085 4623.03 355.355 4627.21 347.335C4631.33 339.445 4636.71 332.285 4642.36 325.435C4648.25 318.305 4654.38 311.355 4660.53 304.445C4673.12 290.295 4686.07 276.455 4699.36 262.965C4725.76 236.155 4753.51 210.675 4782.46 186.655C4786.1 183.635 4789.77 180.635 4793.45 177.655C4793.95 177.255 4793.24 176.545 4792.74 176.945C4792.5 177.135 4792.26 177.335 4792.02 177.535C4791.89 177.475 4791.74 177.465 4791.58 177.575C4766.54 194.665 4740.99 211.025 4714.99 226.615C4701.99 234.415 4688.87 242.015 4675.65 249.425C4669.12 253.085 4662.56 256.695 4655.97 260.265C4653.18 261.775 4650.44 263.405 4647.34 264.195C4644.79 264.845 4641.56 265.055 4639.7 262.815C4637.42 260.085 4638.85 256.195 4639.98 253.295C4641.38 249.725 4642.83 246.175 4644.29 242.625C4647.21 235.485 4650.21 228.385 4653.27 221.305C4659.25 207.495 4665.48 193.785 4671.91 180.175C4684.86 152.775 4698.62 125.755 4712.79 98.9651C4726.97 72.1551 4741.58 45.5751 4756.23 19.0151C4757.99 15.8151 4759.76 12.6151 4761.52 9.42511C4761.83 8.85511 4761.02 8.39511 4760.66 8.92511C4747.7 27.8551 4734.93 46.9151 4722.35 66.1051C4709.82 85.2151 4697.49 104.455 4685.35 123.815C4673.21 143.175 4661.27 162.655 4649.52 182.255C4638.03 201.415 4626.92 220.795 4615.56 240.035C4605.01 257.905 4593.76 275.585 4579.43 290.695C4578.94 291.215 4578.43 291.725 4577.93 292.235C4578 292.025 4578.06 291.825 4578.11 291.605C4578.25 290.975 4577.29 290.715 4577.15 291.335C4576.48 294.305 4573.93 296.175 4571.08 296.865C4567.87 297.645 4564.72 296.865 4561.98 295.095C4558.76 293.015 4556.33 289.925 4554.07 286.885C4551.5 283.435 4548.97 279.945 4546.43 276.465C4536.06 262.235 4525.87 247.865 4515.85 233.385C4505.87 218.955 4496.06 204.405 4486.43 189.735C4476.8 175.065 4467.35 160.285 4458.08 145.385C4449.21 131.135 4440.52 116.785 4431.98 102.335C4431.79 101.915 4431.6 101.495 4431.42 101.075C4430.67 99.3951 4429.92 97.7151 4429.16 96.0351C4428.97 95.6051 4428.47 95.7651 4428.3 96.1051C4428 95.5851 4427.69 95.0651 4427.39 94.5551C4427.07 93.9951 4426.2 94.5051 4426.53 95.0551C4428.05 97.6451 4429.58 100.235 4431.11 102.815C4436.16 114.115 4441.21 125.405 4446.27 136.705C4452.23 150.035 4458.19 163.355 4464.15 176.685C4470.14 190.075 4476.12 203.465 4482.11 216.845L4500.07 257.005C4502.99 263.535 4505.98 270.045 4508.81 276.615C4511.5 282.865 4513.96 289.385 4514.63 296.215C4514.79 297.885 4514.84 299.555 4514.78 301.225C4514.78 301.435 4514.88 301.565 4515.02 301.645C4514.75 302.185 4514.44 302.655 4514.11 302.765C4513.62 302.935 4512.5 302.275 4512.03 302.095C4511.06 301.725 4510.1 301.325 4509.15 300.915C4507.61 300.245 4506.1 299.515 4504.6 298.735C4498.29 295.455 4492.45 291.345 4486.93 286.895C4475.88 278.005 4465.98 267.795 4454.91 258.925C4453.54 257.825 4452.15 256.755 4450.75 255.715C4449.32 254.585 4447.89 253.455 4446.47 252.325C4446.58 252.125 4446.55 251.855 4446.28 251.695C4445.25 251.075 4444.24 250.415 4443.23 249.775C4439.97 247.195 4436.7 244.625 4433.42 242.075C4432.13 241.075 4430.81 240.115 4429.42 239.275C4429.23 239.105 4429.04 238.925 4428.85 238.755C4428.7 238.625 4428.5 238.605 4428.33 238.665C4428.07 238.525 4427.82 238.385 4427.56 238.255C4427.08 238.025 4426.49 238.645 4426.95 239.045C4427.76 239.735 4428.6 240.385 4429.43 241.055C4429.6 241.265 4429.77 241.475 4429.94 241.685C4429.95 241.775 4429.99 241.875 4430.08 241.955C4430.22 242.085 4430.35 242.215 4430.49 242.335C4432.68 244.915 4435.02 247.365 4437.52 249.655C4437.61 249.745 4437.71 249.775 4437.81 249.785C4453.96 264.705 4468.98 280.835 4482.66 298.055C4486.34 302.695 4490.17 307.355 4493.41 312.315C4496.3 316.745 4498.59 322.845 4494.39 327.265C4491.5 330.295 4486.91 331.155 4482.91 331.425C4477.7 331.775 4472.41 331.125 4467.21 330.755C4442.32 328.985 4417.47 326.525 4392.71 323.375C4367.82 320.205 4343.02 316.325 4318.34 311.755C4293.8 307.215 4269.39 301.985 4245.14 296.075C4242.15 295.345 4239.17 294.605 4236.19 293.855C4235.57 293.695 4235.3 294.665 4235.92 294.815C4236.52 294.965 4237.13 295.115 4237.73 295.265C4237.78 295.385 4237.88 295.495 4238.04 295.545C4256.18 301.535 4274.44 307.195 4292.78 312.525C4311.13 317.855 4329.57 322.855 4348.1 327.515C4366.55 332.155 4385.08 336.465 4403.68 340.435C4413.06 342.435 4422.47 344.355 4431.89 346.185C4439.67 347.695 4447.47 349.135 4455.19 350.985C4470.06 354.545 4485.19 359.695 4496.85 369.965C4497.33 370.395 4497.8 370.835 4498.27 371.275C4500.77 377.175 4501.33 383.865 4500.51 390.235C4499.22 400.135 4494.57 409.255 4489.65 417.795C4478.74 436.715 4467.35 455.375 4456.2 474.145C4444.87 493.215 4433.53 512.285 4422.2 531.355C4410.87 550.425 4399.53 569.495 4388.2 588.565C4376.92 607.555 4365.63 626.545 4354.35 645.535C4352.93 647.925 4351.5 650.325 4350.08 652.715C4349.75 653.265 4350.61 653.775 4350.94 653.215C4351.64 652.045 4352.33 650.875 4353.03 649.705C4353.13 649.705 4353.24 649.655 4353.33 649.545C4366.4 633.355 4379.68 617.335 4393.16 601.485C4406.64 585.635 4420.32 569.965 4434.21 554.465C4448.05 539.015 4462.08 523.755 4476.3 508.665C4490.57 493.525 4505.04 478.575 4519.7 463.805C4527 456.445 4534.35 449.135 4541.75 441.865C4545.28 438.405 4548.74 434.835 4552.73 431.885C4556.32 429.235 4560.5 426.835 4565.04 426.475C4565.09 426.475 4565.13 426.475 4565.18 426.475C4581.47 432.545 4595.74 443.115 4608.82 454.485C4616.79 461.415 4624.45 468.685 4632.2 475.855C4640.86 483.865 4649.56 491.825 4658.29 499.755C4675.69 515.545 4693.24 531.175 4710.94 546.645C4728.63 562.115 4746.47 577.425 4764.44 592.565C4782.41 607.705 4800.52 622.685 4818.77 637.495C4820.92 639.245 4823.07 640.985 4825.23 642.725L4831.53 649.805C4831.96 650.285 4832.66 649.575 4832.24 649.095V649.125ZM4515.13 292.685C4515.89 294.105 4516.29 295.675 4516.22 297.315C4516.19 298.115 4516.04 298.905 4515.81 299.665C4515.79 297.315 4515.55 294.985 4515.13 292.685Z" fill="#FFFAD7"/>
<path d="M4229.82 639.827C4222.78 631.947 4215.72 624.077 4208.64 616.227C4208.9 615.727 4208.89 615.107 4208.33 614.597C4206.26 612.737 4204.19 610.867 4202.12 609.007C4185.75 590.887 4169.31 572.827 4152.76 554.867C4126.86 526.737 4100.74 498.817 4074.42 471.087C4062.32 458.347 4049.64 445.977 4038.45 432.417C4028.55 420.427 4019.66 406.717 4017.06 391.117C4014.34 374.737 4020.08 359.007 4028.68 345.267C4038.04 330.317 4050.08 317.047 4061.27 303.477C4086.04 273.447 4110.81 243.417 4135.58 213.377C4138.65 209.647 4141.73 205.927 4144.8 202.197C4144.88 202.097 4144.95 201.987 4145 201.887C4147.86 198.727 4150.67 195.527 4153.41 192.267C4154.49 191.167 4155.57 190.067 4156.65 188.967C4156.76 188.857 4156.79 188.727 4156.78 188.587C4157.98 187.507 4159.17 186.427 4160.37 185.347C4160.85 184.917 4160.14 184.207 4159.66 184.637C4159.2 185.047 4158.75 185.467 4158.29 185.877C4158.12 185.697 4157.82 185.637 4157.57 185.827C4156.37 186.777 4155.16 187.717 4153.96 188.667C4152.57 189.637 4151.22 190.637 4149.89 191.677C4149.83 191.687 4149.76 191.717 4149.69 191.757L4143.96 195.587C4143.52 195.847 4143.09 196.107 4142.67 196.377C4142.65 196.377 4142.64 196.377 4142.62 196.387C4141.38 196.997 4140.21 197.727 4139.11 198.557C4139.04 198.587 4138.97 198.617 4138.9 198.667L4064.89 248.017C4058.72 252.127 4052.56 256.247 4046.39 260.357C4043.31 262.417 4040.22 264.467 4037.14 266.527C4034.71 268.147 4032.27 269.947 4029.38 270.627C4026.67 271.267 4024.26 270.067 4024.16 267.067C4024.06 264.047 4025.41 260.957 4026.32 258.137C4028.43 251.617 4030.81 245.187 4033.38 238.837C4043.74 213.307 4057.38 189.257 4071.1 165.417C4085.83 139.827 4100.59 114.247 4115.34 88.6667C4130.15 62.9667 4144.97 37.2667 4159.78 11.5667C4161.58 8.43668 4163.38 5.31668 4165.19 2.18668C4166.17 0.476678 4163.71 -0.863322 4162.6 0.676678C4148.58 20.0467 4135.26 39.9167 4122.38 60.0667C4109.49 80.2267 4097.03 100.657 4084.68 121.147C4072.37 141.577 4060.18 162.067 4047.79 182.437C4035.31 202.957 4022.62 223.347 4009.42 243.417C4002.87 253.367 3996.2 263.237 3989.36 272.987C3983.79 280.927 3978.33 289.867 3970.74 296.137C3967.77 296.367 3964.7 295.847 3961.96 294.787C3955.47 292.287 3950.59 286.827 3946.28 281.587C3936.34 269.507 3926.74 257.117 3917.27 244.667C3907.76 232.177 3898.45 219.537 3889.33 206.757C3880.21 193.977 3871.29 181.057 3862.58 167.997C3861.42 166.267 3860.28 164.527 3859.13 162.787C3858.6 161.647 3858.08 160.487 3857.54 159.347C3857.27 158.777 3856.81 158.557 3856.34 158.577C3849.79 148.607 3843.35 138.557 3837.03 128.427C3836.01 126.787 3834.98 125.137 3833.97 123.497C3833.63 122.947 3832.77 123.457 3833.11 123.997C3838.89 133.337 3844.78 142.617 3850.77 151.827C3850.75 151.927 3850.75 152.037 3850.8 152.157C3852.08 154.937 3853.36 157.717 3854.83 160.407C3854.85 160.557 3854.89 160.697 3854.96 160.847C3863.91 179.977 3872.52 199.257 3880.78 218.697C3889.02 238.087 3896.91 257.627 3904.44 277.307C3906.52 282.727 3908.66 288.137 3910.57 293.617C3912.07 297.927 3913.48 302.917 3911.89 307.347C3890.96 294.857 3870.92 280.867 3852.03 265.457C3846.58 261.007 3841.23 256.447 3835.97 251.787C3834.5 250.487 3832.64 252.427 3833.85 253.907C3847.95 271.267 3861.82 288.827 3875.42 306.587C3878.42 310.507 3881.4 314.447 3884.38 318.387C3883.77 318.907 3883.53 319.817 3884.3 320.497C3886.43 322.377 3885.05 325.817 3882.98 327.157C3879.76 329.237 3875.34 328.587 3871.72 328.407C3862.82 327.957 3853.93 327.427 3845.05 326.817C3827.36 325.597 3809.7 324.037 3792.07 322.157C3774.32 320.257 3756.61 318.027 3738.95 315.457C3721.41 312.907 3703.91 310.027 3686.47 306.817C3668.95 303.597 3651.49 300.037 3634.11 296.157C3631.98 295.677 3629.85 295.197 3627.72 294.717C3625.84 294.287 3625.04 297.177 3626.92 297.607C3627.33 297.697 3627.74 297.787 3628.15 297.877C3627.76 298.647 3627.94 299.737 3629.02 300.037C3645.1 304.517 3661.24 308.797 3677.44 312.867C3693.63 316.937 3709.88 320.787 3726.18 324.437C3742.47 328.077 3758.82 331.517 3775.2 334.737C3791.58 337.957 3808.01 340.967 3824.47 343.757C3837.28 345.927 3850.11 347.967 3862.95 349.887C3867.99 351.847 3873.02 353.817 3878.06 355.777C3878.28 355.977 3878.58 356.117 3878.96 356.127C3881.28 357.027 3883.6 357.937 3885.92 358.837C3886.45 359.047 3886.92 358.877 3887.26 358.557C3891.18 361.077 3894.13 365.267 3895.65 369.667C3898.81 378.797 3895.8 388.727 3892.14 397.237C3888.05 406.747 3883.26 415.987 3878.64 425.247C3874.01 434.507 3869.3 443.727 3864.54 452.927C3854.93 471.467 3845.12 489.907 3835.4 508.397C3825.73 526.797 3816.16 545.247 3806.99 563.897C3797.85 582.497 3789.11 601.307 3781.08 620.407C3780.09 622.777 3779.1 625.147 3778.13 627.517C3777.46 629.157 3779.99 630.027 3780.87 628.677C3791.14 612.977 3801.77 597.507 3812.75 582.297C3823.7 567.117 3835.01 552.197 3846.65 537.537C3858.32 522.847 3870.33 508.427 3882.67 494.287C3894.95 480.217 3907.56 466.417 3920.47 452.927C3926.88 446.227 3933.3 439.507 3939.95 433.047C3945.74 427.427 3952.63 421.437 3960.9 420.187C3961.68 420.067 3962.47 420.017 3963.26 420.007C3978.55 421.767 3992.66 428.967 4005.22 437.807C4012.87 443.197 4020.06 449.227 4027.07 455.417C4034.97 462.387 4042.75 469.497 4050.58 476.537C4067.23 491.527 4083.88 506.527 4100.53 521.517C4117.12 536.457 4133.71 551.397 4150.3 566.327C4166.89 581.267 4183.48 596.207 4200.07 611.137C4200.08 611.147 4200.09 611.157 4200.11 611.167C4206.07 617.767 4212.02 624.377 4217.96 630.997C4221.22 634.637 4224.48 638.277 4227.74 641.927C4229.03 643.367 4231.14 641.247 4229.86 639.807L4229.82 639.827Z" fill="#FFFAD7"/>
<path d="M3585.12 587.425C3571.3 573.925 3557.71 560.195 3544.36 546.235C3531.01 532.275 3517.89 518.095 3505.01 503.695C3492.14 489.295 3479.5 474.675 3467.12 459.845C3454.78 445.065 3442.67 430.095 3430.86 414.895C3427.08 410.025 3423.3 405.045 3419.78 399.885C3417.15 395.725 3414.58 391.515 3412.05 387.285C3408.91 381.435 3406.31 375.315 3404.58 368.855C3404.36 368.055 3404.18 367.245 3403.99 366.435C3403.99 361.325 3404.71 356.185 3406.01 351.275C3406.95 348.615 3407.9 345.955 3408.67 343.265C3413.13 332.065 3420.19 321.945 3427.43 312.385C3436.88 299.895 3446.72 287.695 3456.79 275.705C3458.67 273.475 3460.56 271.255 3462.46 269.035C3465.28 266.265 3467.88 263.265 3470.22 260.055C3476.02 253.425 3481.9 246.865 3487.88 240.385C3498.51 228.855 3509.42 217.575 3520.58 206.545C3521.97 205.175 3523.36 203.805 3524.76 202.445C3525.7 201.525 3524.33 200.245 3523.35 201.035C3507.63 213.695 3491.8 226.205 3475.86 238.585C3471.09 242.295 3466.28 245.955 3461.49 249.635C3460.29 250.295 3459.1 250.965 3457.89 251.605C3457.52 251.795 3457.6 252.215 3457.87 252.425C3447.79 260.135 3437.69 267.815 3427.52 275.415C3421.62 279.825 3415.7 284.215 3409.77 288.585C3409.42 288.375 3408.96 288.335 3408.56 288.675C3406.21 290.745 3403.38 292.205 3400.36 292.975C3399.5 292.015 3398.9 290.815 3398.63 289.385C3397.79 285.005 3399.76 280.445 3401.51 276.535C3403.47 272.155 3405.45 267.775 3407.43 263.405C3415.3 245.935 3423.17 228.465 3431.04 210.995C3438.94 193.445 3446.85 175.905 3454.75 158.355C3462.62 140.885 3470.49 123.415 3478.36 105.945C3486.26 88.3951 3494.17 70.8551 3502.07 53.3051C3503.04 51.1551 3504.01 48.9951 3504.98 46.8451C3505.5 45.6951 3503.88 44.6851 3503.25 45.8351C3497.21 56.9751 3491.11 68.0851 3485 79.1751C3484.6 79.1751 3484.19 79.3751 3484 79.8351C3483.29 81.5251 3482.56 83.2151 3481.83 84.8951C3478.88 90.2251 3475.95 95.5651 3472.99 100.885C3462.8 119.185 3452.52 137.425 3442.14 155.615C3431.76 173.805 3421.28 191.935 3410.7 210.005C3409.67 211.765 3408.64 213.515 3407.6 215.265C3405.93 217.965 3404.29 220.685 3402.71 223.445C3402.65 223.545 3402.62 223.655 3402.59 223.755C3394.67 237.215 3386.71 250.655 3378.67 264.055C3373.5 272.675 3368.53 281.495 3363.01 289.895C3360.52 293.685 3357.14 297.605 3353.07 299.745C3352.71 299.595 3352.28 299.555 3351.78 299.715C3347.97 300.935 3344.09 299.625 3340.57 297.935C3337.66 294.735 3334.86 291.435 3332.03 288.185C3322.88 277.685 3313.95 266.995 3305.26 256.115C3287.83 234.305 3271.35 211.735 3255.86 188.505C3247.2 175.515 3238.86 162.315 3230.83 148.935C3230.17 147.825 3228.51 148.805 3229.1 149.945C3229.99 151.635 3230.91 153.315 3231.82 154.995C3231.53 155.275 3231.4 155.695 3231.68 156.145C3233.96 159.855 3236.27 163.535 3238.6 167.215C3238.72 167.425 3238.84 167.625 3238.96 167.835C3247.06 185.575 3255.16 203.325 3263.27 221.065C3267.8 230.985 3272.33 240.905 3276.86 250.825C3281.17 260.255 3285.62 269.635 3289.42 279.285C3293.45 289.515 3296.67 300.145 3297.76 311.115C3289.35 310.615 3281.89 306.085 3275.28 301.145C3268.09 295.765 3261.22 289.895 3254.52 283.915C3254.2 283.515 3253.89 283.105 3253.58 282.695C3253.2 282.195 3252.68 281.845 3252.11 281.745C3248.42 278.405 3244.79 275.015 3241.22 271.545C3240.28 270.635 3238.98 271.995 3239.81 272.955C3252.61 287.955 3264.65 303.595 3275.86 319.825C3276.91 321.345 3277.95 322.885 3278.99 324.425C3279.48 325.875 3279.86 327.345 3280.12 328.855C3280.31 330.545 3280.37 332.255 3280.3 333.975C3280.3 334.045 3280.3 334.125 3280.3 334.195C3279.98 335.415 3279.52 336.605 3278.92 337.745C3270.2 341.395 3260.56 342.315 3251.18 342.915C3238.95 343.695 3226.71 344.245 3214.46 344.595C3189.76 345.305 3165.05 345.155 3140.36 344.155C3126.49 343.595 3112.63 342.765 3098.79 341.665C3097.51 341.565 3097.51 343.565 3098.79 343.665C3098.84 343.665 3098.89 343.665 3098.94 343.675C3098.97 344.145 3099.28 344.625 3099.89 344.665C3125.02 346.485 3150.12 348.795 3175.16 351.595C3200.11 354.385 3225.01 357.655 3249.84 361.415C3263.09 363.425 3276.33 365.565 3289.54 367.845C3294.85 369.825 3298.73 374.405 3300.82 379.625C3303.49 386.295 3303.13 393.495 3301.33 400.345C3300.18 404.715 3298.54 408.935 3296.73 413.085C3291.21 423.955 3286.12 435.035 3281.49 446.315C3278.38 452.965 3275.22 459.605 3272.04 466.225C3271.97 466.305 3271.91 466.375 3271.84 466.475C3263.39 479.185 3257.17 493.185 3251.53 507.325C3251.23 508.085 3250.93 508.845 3250.63 509.595C3246.23 518.285 3241.77 526.945 3237.25 535.575C3229.48 550.415 3221.55 565.175 3213.45 579.845C3212.44 581.675 3211.42 583.505 3210.41 585.345C3210.31 585.525 3210.29 585.695 3210.3 585.865C3208.87 588.005 3207.44 590.145 3206.01 592.285C3205.78 592.625 3206.04 592.945 3206.35 593.005C3203.92 596.575 3201.5 600.155 3199.11 603.755C3197.87 605.615 3196.64 607.485 3195.41 609.355C3194.7 610.435 3196.43 611.435 3197.14 610.365C3206.93 595.475 3217.02 580.775 3227.4 566.285C3237.82 551.735 3248.53 537.395 3259.53 523.285C3270.48 509.225 3281.72 495.385 3293.23 481.775C3295.37 479.235 3297.54 476.715 3299.7 474.195C3300.72 473.115 3301.75 472.045 3302.77 470.965C3302.95 470.775 3303.02 470.555 3303.03 470.325C3311.4 460.645 3319.91 451.075 3328.56 441.645C3334.27 435.405 3339.85 428.855 3346.38 423.445C3351.46 419.235 3357.72 415.225 3364.48 414.755C3365.29 414.855 3366.1 414.875 3366.91 414.855C3377.26 417.165 3387.1 421.535 3396.24 427.015C3409.74 435.115 3421.82 445.335 3433.61 455.705C3447.73 468.115 3461.81 480.575 3475.91 493.005C3490.06 505.485 3504.21 517.965 3518.36 530.435C3526.37 537.495 3534.38 544.565 3542.39 551.625C3542.51 551.775 3542.63 551.915 3542.75 552.065C3542.9 552.255 3543.08 552.365 3543.26 552.395C3549.11 557.555 3554.96 562.705 3560.81 567.865C3562.56 569.405 3564.3 570.945 3566.05 572.485C3566.46 572.845 3566.95 572.785 3567.31 572.545C3571.05 576.295 3574.8 580.035 3578.57 583.755C3580.3 585.455 3582.03 587.155 3583.76 588.845C3584.68 589.745 3586.1 588.335 3585.17 587.435L3585.12 587.425ZM3476.3 250.035C3476.57 249.785 3476.84 249.545 3477.12 249.295C3475.08 251.575 3473.03 253.855 3471 256.155C3470.98 256.135 3470.96 256.115 3470.93 256.095C3472.74 254.095 3474.53 252.075 3476.3 250.035ZM3492.55 69.5351L3491.26 72.3951C3491.2 72.3351 3491.13 72.2751 3491.05 72.2551C3491.55 71.3451 3492.05 70.4451 3492.55 69.5351ZM3452.62 142.885C3452.28 143.635 3451.95 144.375 3451.62 145.125C3451.35 145.615 3451.08 146.095 3450.81 146.585C3450.69 146.725 3450.56 146.875 3450.44 147.015C3451.15 145.625 3451.87 144.245 3452.62 142.885ZM3419.6 231.015C3420.04 230.215 3420.47 229.405 3420.9 228.605C3420.15 230.285 3419.39 231.955 3418.64 233.635C3418.97 232.765 3419.29 231.895 3419.6 231.025V231.015ZM3403.07 268.085C3404.18 265.425 3405.27 262.755 3406.34 260.075C3407.07 258.755 3407.8 257.445 3408.5 256.115L3404.32 265.395C3403.9 266.335 3403.46 267.285 3403.03 268.225C3403.04 268.175 3403.05 268.135 3403.07 268.085ZM3283.37 233.485C3282.39 232.195 3281.42 230.895 3280.43 229.605C3281.44 230.895 3282.48 232.165 3283.5 233.445C3283.46 233.445 3283.41 233.465 3283.37 233.475V233.485ZM3290.12 267.355C3289.65 266.265 3289.19 265.165 3288.72 264.075C3289.28 265.125 3289.84 266.175 3290.4 267.225C3290.31 267.265 3290.22 267.315 3290.13 267.355H3290.12ZM3297.03 264.725C3296.45 263.835 3295.86 262.945 3295.29 262.045C3295.93 262.895 3296.6 263.735 3297.24 264.595C3297.17 264.635 3297.1 264.685 3297.03 264.725ZM3299.5 356.235C3299.87 356.165 3300.23 356.075 3300.59 355.965C3300.71 355.965 3300.83 355.965 3300.95 355.965C3300.99 356.085 3301.03 356.205 3301.07 356.325C3300.55 356.295 3300.02 356.265 3299.5 356.235ZM3227.02 563.335C3227.02 563.335 3227.01 563.325 3227 563.315C3227.53 562.485 3228.05 561.645 3228.58 560.815C3228.77 560.565 3228.95 560.315 3229.14 560.065C3229.18 560.105 3229.23 560.145 3229.28 560.185C3228.52 561.235 3227.77 562.285 3227.02 563.335ZM3266.4 500.475C3266.57 500.155 3266.73 499.835 3266.9 499.525C3267.31 499.395 3267.67 499.115 3267.87 498.625C3267.88 498.595 3267.89 498.565 3267.91 498.545C3268 498.575 3268.09 498.595 3268.17 498.615C3267.58 499.235 3266.99 499.855 3266.4 500.475ZM3399.77 295.135C3399.94 295.275 3400.12 295.415 3400.3 295.545C3400.21 295.615 3400.12 295.675 3400.03 295.745C3399.91 295.835 3399.83 295.935 3399.76 296.045C3399.62 295.755 3399.47 295.485 3399.3 295.225C3399.46 295.195 3399.62 295.175 3399.77 295.145V295.135ZM3401.18 427.775C3400.52 427.345 3399.85 426.935 3399.18 426.525C3399.81 426.795 3400.44 427.065 3401.07 427.335C3401.47 427.675 3401.86 428.025 3402.27 428.365C3402.47 428.545 3402.66 428.725 3402.86 428.905C3402.3 428.535 3401.75 428.155 3401.19 427.785L3401.18 427.775ZM3478.64 478.165C3477.98 477.535 3477.31 476.915 3476.64 476.295C3476.23 475.735 3475.81 475.175 3475.4 474.615C3476.5 475.775 3477.59 476.955 3478.64 478.165ZM3462.95 458.075C3462.93 458.005 3462.91 457.925 3462.88 457.855C3465.44 460.935 3468 463.995 3470.58 467.055C3469.74 466.275 3468.9 465.485 3468.03 464.725C3466.34 462.505 3464.66 460.275 3462.95 458.075ZM3470.25 485.415C3472.49 487.245 3474.71 489.095 3476.92 490.965C3477.51 491.605 3478.11 492.245 3478.71 492.875C3475.89 490.395 3473.07 487.905 3470.26 485.425L3470.25 485.415ZM3499.59 500.905C3498.62 499.695 3497.64 498.485 3496.65 497.295C3497.2 497.915 3497.74 498.535 3498.29 499.155C3498.8 499.735 3499.32 500.305 3499.83 500.885C3499.75 500.885 3499.67 500.885 3499.6 500.905H3499.59ZM3533.84 538.165C3528.97 532.905 3524.01 527.745 3518.96 522.665C3519.05 522.565 3519.13 522.455 3519.2 522.335C3524.07 527.635 3528.98 532.905 3533.92 538.145C3533.89 538.145 3533.87 538.155 3533.84 538.165Z" fill="#FFFAD7"/>
<path d="M2985.31 538.605C2982.27 536.305 2979.23 533.995 2976.18 531.695C2976.25 531.525 2976.25 531.325 2976.11 531.155C2976.06 531.095 2976.02 531.045 2975.97 530.995C2975.98 530.865 2975.94 530.735 2975.82 530.625C2975.58 530.415 2975.34 530.205 2975.11 529.985C2972.37 526.805 2969.45 523.795 2966.33 520.975C2962.33 516.495 2957.37 512.995 2951.82 510.665C2950.68 509.815 2949.54 508.965 2948.4 508.115C2948.36 507.955 2948.29 507.805 2948.13 507.675C2944.93 505.135 2941.73 502.595 2938.52 500.055C2938.48 499.885 2938.41 499.735 2938.25 499.595L2912.65 478.705C2912.63 478.425 2912.51 478.145 2912.23 477.935C2911.16 477.125 2910.09 476.295 2909.04 475.455C2901.69 468.595 2894.34 461.735 2887 454.875C2886.79 454.675 2886.56 454.605 2886.33 454.605C2869.04 438.135 2852.31 421.095 2836.14 403.535L2818.31 383.205C2816.89 379.015 2815.56 374.785 2814.5 370.485C2812.18 361.145 2811.07 351.345 2812.76 341.805C2813.11 340.675 2813.47 339.545 2813.85 338.415C2816.88 331.115 2820.08 323.885 2823.35 316.685C2823.74 315.825 2824.13 314.975 2824.53 314.125C2834.17 299.815 2843.71 285.435 2853.1 270.965C2857.81 263.705 2862.48 256.425 2867.13 249.125C2867.34 248.805 2867.44 248.465 2867.47 248.135C2869.58 245.265 2871.7 242.405 2873.84 239.555C2874.23 239.035 2874.28 238.375 2874.11 237.755C2875.3 236.155 2876.44 234.515 2877.54 232.855C2878.53 231.355 2879.47 229.825 2880.38 228.285C2880.38 228.275 2880.4 228.265 2880.41 228.255C2880.42 228.235 2880.42 228.225 2880.43 228.205C2880.6 227.925 2880.77 227.645 2880.93 227.365C2881.07 227.115 2880.98 226.885 2880.81 226.755C2881.9 225.225 2882.99 223.685 2884.08 222.155C2884.45 221.625 2883.59 221.125 2883.22 221.655C2882.13 223.185 2881.05 224.715 2879.96 226.235C2879.88 226.275 2879.81 226.325 2879.76 226.415C2879.58 226.705 2879.39 226.995 2879.21 227.295C2879.18 227.335 2879.15 227.385 2879.12 227.425C2878.88 227.645 2878.64 227.865 2878.4 228.095C2878.23 228.035 2878.04 228.055 2877.91 228.215C2877.39 228.845 2876.88 229.485 2876.36 230.115C2876.19 229.975 2875.94 229.945 2875.74 230.165C2872.08 234.185 2868.42 238.195 2864.75 242.215C2860.41 245.625 2856.28 249.305 2852.42 253.255C2851.27 254.425 2850.15 255.635 2849.05 256.855C2844.68 260.395 2840.45 264.135 2836.43 268.065C2834.82 269.445 2833.23 270.855 2831.66 272.275C2829.15 274.555 2826.67 276.875 2824.19 279.195C2820.64 281.645 2817.31 284.415 2814.05 287.275C2810.89 289.505 2807.77 291.785 2804.82 294.285C2804.79 294.315 2804.76 294.335 2804.73 294.365C2802.97 295.435 2801.22 296.525 2799.52 297.685C2799.14 297.895 2798.76 298.095 2798.38 298.305C2798.12 298.215 2797.81 298.205 2797.47 298.325C2794.04 299.495 2790.1 298.985 2787.2 296.745C2786.22 295.985 2785.41 295.065 2784.75 294.035C2784.69 292.135 2784.63 290.245 2784.6 288.345C2785.31 285.485 2786.04 282.625 2786.81 279.785C2790.3 269.895 2793.28 259.815 2796.23 249.745C2796.32 249.435 2796.31 249.155 2796.24 248.915C2797.22 246.085 2798.19 243.245 2799.14 240.395C2803.89 229.975 2808.28 219.385 2812.23 208.625C2813.27 205.795 2814.27 202.955 2815.25 200.105C2816.62 196.855 2817.94 193.585 2819.22 190.295C2822.05 183.885 2824.88 177.475 2827.73 171.075C2835 154.765 2842.37 138.505 2849.82 122.275C2853.62 114.005 2857.44 105.755 2861.29 97.5054C2861.83 96.6154 2862.35 95.7154 2862.9 94.8254C2863.53 93.8054 2862.77 92.8454 2861.87 92.6454C2861.23 92.2854 2860.39 92.3454 2859.99 93.2054C2859.56 94.1254 2859.14 95.0354 2858.72 95.9554C2851.79 107.495 2845.64 119.495 2840.32 131.855C2831.98 147.825 2823.85 163.915 2815.98 180.135C2812.71 186.875 2809.48 193.645 2806.29 200.425C2806.18 200.655 2806.14 200.885 2806.14 201.095C2805.31 202.745 2804.49 204.395 2803.66 206.045L2794.71 223.905C2791.79 227.925 2790 232.515 2788.27 237.135C2785.95 241.135 2783.66 245.145 2781.41 249.185C2774.87 260.915 2768.58 272.795 2762.53 284.785C2760.28 288.865 2758.04 292.955 2755.79 297.035C2755.5 297.555 2755.21 298.085 2754.92 298.605C2750.76 301.865 2746.06 304.405 2740.98 306.145C2733.46 303.265 2726.41 299.045 2719.65 294.545C2710.96 287.515 2702.8 279.855 2694.88 271.975C2694.66 271.755 2694.45 271.535 2694.23 271.325C2693.69 270.665 2693.15 270.015 2692.61 269.355C2683.28 257.765 2674.73 245.565 2666.5 233.185C2664.48 229.595 2662.45 226.005 2660.43 222.425C2660.31 222.205 2660.15 222.065 2659.99 221.945C2659.46 221.015 2658.91 220.085 2658.35 219.165C2658.24 218.975 2658.13 218.775 2658.03 218.585C2657.97 218.275 2657.81 217.985 2657.57 217.775C2656.21 215.385 2654.8 213.025 2653.31 210.715C2653.12 210.415 2652.79 210.435 2652.58 210.595C2652.35 210.295 2652.14 209.985 2651.91 209.685C2651.69 209.395 2651.37 209.405 2651.18 209.575C2651.18 209.565 2651.16 209.545 2651.15 209.535C2650.11 207.905 2647.65 209.335 2648.56 211.045C2654.92 223.055 2661.97 234.705 2669.66 245.905C2676.36 258.645 2682.72 271.565 2688.74 284.645C2692.54 294.675 2696.61 304.595 2700.96 314.395C2701.18 314.895 2701.41 315.385 2701.63 315.885C2701.59 316.005 2701.56 316.115 2701.52 316.235C2699.78 320.995 2694.28 320.385 2690.35 319.195C2685.5 317.725 2680.77 315.525 2676.22 313.315C2671.45 310.995 2666.8 308.425 2662.31 305.605C2657.24 302.425 2652.36 298.925 2647.72 295.145C2647.3 294.805 2646.83 294.735 2646.41 294.825C2645.13 294.005 2643.84 293.185 2642.56 292.365C2642.5 292.325 2642.43 292.305 2642.37 292.295C2641.67 291.845 2640.98 291.395 2640.28 290.945C2640.13 290.855 2640 290.845 2639.88 290.885C2637.79 289.435 2635.71 287.985 2633.62 286.525C2633.09 286.155 2632.61 287.015 2633.12 287.385C2633.91 287.975 2634.7 288.565 2635.49 289.155C2635.04 289.085 2634.75 289.775 2635.19 290.105C2635.98 290.685 2636.77 291.275 2637.56 291.855C2638.78 292.945 2640.04 293.985 2641.36 294.945C2641.43 295.285 2641.61 295.625 2641.95 295.875C2643.57 297.105 2645.16 298.365 2646.76 299.605C2646.8 299.645 2646.83 299.685 2646.88 299.725C2651.48 303.525 2656.07 307.325 2660.67 311.125C2669.13 319.305 2677.59 327.485 2686.05 335.675C2687.42 338.435 2686.1 341.735 2683.92 343.795C2680.97 346.605 2676.75 347.915 2673.03 349.365C2664.17 352.815 2655.2 355.995 2646.18 359.015C2627.98 365.095 2609.57 370.505 2591.19 376.005C2580.59 379.175 2569.98 382.355 2559.38 385.525C2558.9 385.665 2558.57 385.915 2558.34 386.225C2555.87 386.955 2553.42 387.765 2551 388.665C2550.9 388.705 2550.83 388.765 2550.78 388.835C2549.72 389.195 2548.65 389.535 2547.6 389.915C2547.06 390.105 2547.22 390.905 2547.7 390.905C2547.78 391.125 2547.99 391.315 2548.29 391.265C2552.34 390.635 2556.38 390.015 2560.43 389.385C2560.44 389.385 2560.45 389.385 2560.47 389.385C2560.49 389.385 2560.51 389.385 2560.53 389.375C2562.11 389.135 2563.7 388.885 2565.28 388.645C2565.45 388.615 2565.55 388.525 2565.6 388.405C2586.2 384.505 2606.72 380.185 2627.14 375.425C2641.18 374.685 2654.59 370.195 2668.37 367.755C2674.65 366.645 2681.34 365.865 2687.57 367.655C2693.43 369.345 2697.88 373.575 2700.83 378.815C2702.8 382.315 2704.05 386.115 2704.95 390.015C2704.83 392.865 2704.71 395.725 2704.6 398.575C2703.77 402.815 2702.94 407.055 2702.1 411.305C2698.88 419.245 2696.04 427.325 2693.59 435.535C2693.29 436.415 2693 437.295 2692.71 438.175C2685.09 455.835 2677.48 473.495 2669.86 491.165C2660.8 512.175 2651.74 533.185 2642.68 554.195C2642.46 554.665 2642.24 555.125 2642.02 555.585C2641.97 555.695 2641.95 555.805 2641.94 555.905C2640.03 560.325 2638.13 564.745 2636.22 569.175C2629.89 583.855 2623.55 598.545 2617.22 613.225C2616.72 614.395 2618.43 615.415 2618.95 614.235C2626.45 597.015 2634.21 579.905 2642.2 562.905C2651.23 545.175 2660.44 527.545 2669.84 510.005C2676.4 497.755 2683.07 485.565 2689.81 473.415C2699.97 457.765 2710.37 442.265 2721.04 426.955C2723.1 424.005 2725.17 421.055 2727.25 418.115C2728.69 416.835 2730.11 415.535 2731.51 414.225C2734.67 411.865 2738.01 409.755 2741.5 407.905C2742.52 407.485 2743.56 407.105 2744.6 406.755C2747.94 405.815 2751.35 405.125 2754.79 404.685C2760.72 405.475 2766.58 406.695 2772.31 408.335C2779.28 411.315 2786.24 414.295 2793.21 417.275C2809.08 427.165 2825.46 436.215 2842.28 444.415C2847.08 446.925 2851.91 449.385 2856.76 451.805C2868.77 460.415 2881.13 468.535 2893.85 476.085C2897.85 478.465 2901.89 480.765 2905.95 483.035C2914.83 489.815 2923.97 496.255 2933.32 502.365C2936.51 504.735 2939.79 506.985 2943.14 509.115C2952.27 516.035 2961.41 522.955 2970.54 529.875L2984.41 540.385C2985.44 541.165 2986.43 539.425 2985.42 538.655L2985.31 538.605ZM2824.38 287.905C2823.84 288.515 2823.32 289.125 2822.8 289.745C2822.62 289.615 2822.43 289.505 2822.23 289.415C2822.96 288.925 2823.67 288.415 2824.38 287.905ZM2686.74 363.335C2687.04 363.325 2687.33 363.305 2687.63 363.295C2688.43 363.605 2689.23 363.925 2690.02 364.265C2688.94 363.885 2687.85 363.575 2686.74 363.335ZM2703.18 449.345C2704.08 447.755 2704.99 446.175 2705.89 444.585C2706.62 443.765 2707.36 442.955 2708.07 442.125C2706.44 444.535 2704.8 446.935 2703.18 449.345ZM2776.4 276.495C2776.32 276.445 2776.23 276.395 2776.15 276.345C2776.64 275.395 2777.14 274.435 2777.63 273.485C2777.22 274.485 2776.81 275.495 2776.4 276.495ZM2791.17 309.335C2791.12 309.285 2791.06 309.235 2791.01 309.185C2791.42 309.105 2791.83 309.035 2792.23 308.955C2792.28 309.055 2792.32 309.155 2792.38 309.255C2791.98 309.285 2791.57 309.325 2791.16 309.345L2791.17 309.335ZM2802.94 349.355C2802.9 349.885 2802.87 350.405 2802.85 350.935C2802.42 352.025 2802 353.125 2801.58 354.225C2802.01 352.445 2802.48 350.675 2802.95 348.905C2802.95 349.055 2802.95 349.205 2802.94 349.355ZM2956.46 516.745C2956.68 516.855 2956.91 516.965 2957.13 517.075C2958.13 517.815 2959.13 518.565 2960.13 519.305C2960.17 519.375 2960.22 519.445 2960.31 519.505C2960.47 519.605 2960.63 519.705 2960.79 519.805C2962.48 521.065 2964.18 522.325 2965.87 523.585C2966.62 524.255 2967.37 524.925 2968.12 525.595C2964.23 522.645 2960.34 519.705 2956.45 516.755L2956.46 516.745Z" fill="#FFFAD7"/>
<path d="M2257.67 363.766C2257.73 363.226 2257.43 362.646 2256.73 362.666C2244.98 363.056 2233.21 362.216 2221.65 360.066C2215.91 359.006 2210.22 357.626 2204.63 355.956C2200.09 354.596 2193.54 353.366 2192.02 348.126C2191.31 345.686 2191.57 343.046 2191.92 340.566C2192.25 338.206 2192.72 335.856 2193.32 333.546C2194.49 328.966 2196.14 324.506 2198.08 320.196C2202.06 311.346 2207.18 303.066 2212.13 294.736C2217.68 285.406 2223.09 275.926 2226.63 265.616C2227.01 264.516 2225.38 263.906 2224.8 264.846C2217.04 277.396 2208.63 289.546 2199.59 301.196C2195.14 306.936 2190.53 312.556 2185.78 318.056C2183.84 320.296 2181.43 323.636 2178.18 323.866C2175.33 324.076 2173.69 321.496 2172.9 319.116C2171.94 316.206 2171.79 313.096 2171.46 310.076C2171.03 306.106 2170.59 302.126 2170.16 298.156C2169.31 290.376 2168.46 282.586 2167.61 274.806C2165.89 259.076 2164.17 243.336 2162.45 227.606C2160.7 211.606 2158.95 195.596 2157.2 179.596C2157.16 177.106 2157.11 174.616 2157.04 172.136C2157.01 170.856 2155.01 170.846 2155.04 172.136C2155.06 172.806 2155.07 173.466 2155.08 174.136C2154.82 174.286 2154.64 174.546 2154.69 174.946C2154.86 176.516 2155.03 178.086 2155.21 179.656C2155.55 199.006 2155.23 218.356 2154.23 237.676C2153.11 259.336 2151.14 280.966 2148.34 302.476C2147.71 307.276 2147.27 312.216 2145.63 316.806C2145.03 318.476 2144.23 320.106 2143.16 321.496C2142.69 321.676 2142.2 321.816 2141.71 321.916C2140.61 321.856 2139.51 321.926 2138.42 322.116C2138.16 322.096 2137.9 322.046 2137.64 322.016C2137.48 321.856 2137.27 321.736 2137 321.686C2134.73 321.236 2132.5 320.636 2130.31 319.926C2124.53 317.586 2119.09 314.356 2114.02 310.756C2103.67 303.396 2094.68 294.356 2085.24 285.906C2085.12 285.746 2085 285.596 2084.89 285.446C2084.67 285.146 2084.38 284.956 2084.08 284.866C2083.85 284.666 2083.63 284.456 2083.4 284.266C2077.73 279.276 2071.84 274.516 2065.44 270.486C2064.46 269.866 2063.45 271.256 2064.23 272.056C2078.99 287.266 2093.86 302.386 2108.51 317.696C2111.78 321.116 2115 324.626 2117.77 328.476C2119.47 330.846 2125.42 338.286 2120.24 339.856C2118.23 340.466 2115.92 340.146 2113.85 340.096C2111.2 340.036 2108.56 339.966 2105.91 339.906C2100.53 339.776 2095.15 339.646 2089.78 339.516L2076.61 339.196C2076.37 339.156 2076.15 339.146 2075.94 339.176L2053.8 338.636C2053.05 338.616 2052.75 339.286 2052.88 339.866C2052.72 340.356 2052.88 340.946 2053.53 341.096C2061.87 343.006 2070.08 345.476 2078.09 348.506C2082.16 350.046 2086.21 351.706 2090.14 353.576C2093.69 355.266 2097.03 357.286 2099.71 360.206C2101.45 362.116 2102.85 364.286 2103.9 366.616C2103.57 366.756 2103.29 367.036 2103.25 367.476C2101.18 389.346 2090.31 408.766 2079.6 427.576C2079.02 428.506 2078.45 429.436 2077.91 430.396C2077.82 430.546 2077.77 430.696 2077.74 430.846C2077.16 431.866 2076.58 432.896 2076 433.916C2072.62 439.896 2069.31 445.916 2066.28 452.086C2065.72 453.226 2067.35 454.216 2068.01 453.096C2074.87 441.406 2083.45 430.866 2092.63 420.916C2096.76 416.436 2100.94 411.956 2105.4 407.796C2107.23 406.516 2109.09 405.276 2111 404.106C2111.69 403.686 2111.85 403.056 2111.68 402.506C2114.96 400.126 2118.53 398.146 2122.45 397.066C2123.94 396.656 2125.48 396.366 2127.04 396.226C2130.83 396.596 2134.59 397.226 2138.25 398.336C2138.61 398.446 2138.95 398.576 2139.3 398.696C2139.94 399.076 2140.57 399.506 2141.16 399.986C2141.63 400.366 2142.18 400.246 2142.54 399.946C2147.89 402.286 2152.61 405.746 2156.61 410.106C2161.46 415.396 2165.19 421.606 2168.5 427.946C2172.27 435.156 2175.62 442.586 2179.11 449.926C2183.54 459.266 2187.98 468.606 2192.41 477.946C2192.96 479.106 2194.69 478.096 2194.14 476.936C2193.97 476.576 2193.8 476.226 2193.63 475.866C2193.75 475.666 2193.81 475.426 2193.75 475.146C2191.32 463.776 2188.89 452.406 2186.46 441.036C2185.25 435.366 2184.03 429.686 2182.82 424.016C2181.63 418.396 2180.47 412.746 2179.99 407.016C2179.55 401.696 2179.53 396.076 2181.05 390.916C2182.41 386.336 2185.33 382.876 2189.56 380.686C2193.53 378.626 2198.01 377.716 2202.36 376.836C2207.97 375.706 2213.57 374.576 2219.18 373.446C2232.02 370.856 2244.85 368.276 2257.69 365.686C2258.76 365.466 2258.53 364.056 2257.66 363.786L2257.67 363.766ZM2217.71 280.666C2217.73 280.606 2217.74 280.536 2217.74 280.486C2218.38 279.326 2219.02 278.176 2219.65 277.016C2219.73 276.856 2219.72 276.706 2219.66 276.566C2219.95 276.126 2220.25 275.696 2220.54 275.256C2219.54 277.386 2218.47 279.476 2217.37 281.546C2217.49 281.246 2217.61 280.956 2217.72 280.666H2217.71ZM2210.13 294.166C2210.19 294.086 2210.24 294.006 2210.3 293.926C2207.6 298.456 2204.87 302.966 2202.3 307.566C2203.52 305.186 2204.76 302.816 2206 300.456C2207.41 298.376 2208.82 296.296 2210.12 294.176L2210.13 294.166ZM2203.79 298.926C2202.51 300.736 2201.33 302.616 2200.22 304.536C2200.05 304.416 2199.86 304.326 2199.67 304.286C2201.06 302.516 2202.43 300.716 2203.79 298.926ZM2075.74 281.026L2073.07 278.276C2074.04 279.026 2075 279.786 2075.95 280.556C2075.86 280.696 2075.78 280.856 2075.74 281.026ZM2062.95 341.446C2062.18 341.236 2061.42 341.016 2060.65 340.806C2061.45 340.826 2062.25 340.846 2063.04 340.866C2062.99 341.056 2062.95 341.256 2062.95 341.446ZM2093.79 353.176C2092.94 352.716 2092.08 352.286 2091.21 351.856C2092.73 352.416 2094.25 352.986 2095.77 353.546C2095.88 353.936 2096.08 354.306 2096.38 354.606C2096.59 354.806 2096.8 355.016 2097.01 355.216C2095.99 354.466 2094.91 353.786 2093.79 353.166V353.176ZM2093.08 341.676C2092.73 341.636 2092.39 341.606 2092.04 341.576C2093.75 341.616 2095.47 341.656 2097.18 341.706C2095.81 341.706 2094.44 341.706 2093.08 341.686V341.676ZM2124.41 337.886C2124.37 337.986 2124.34 338.086 2124.3 338.186C2124.53 336.886 2124.19 335.546 2123.65 334.316C2123.9 334.656 2124.18 334.966 2124.44 335.296C2124.5 335.796 2124.59 336.286 2124.72 336.776C2124.63 337.146 2124.53 337.516 2124.4 337.886H2124.41ZM2099.58 391.926C2099.56 392.026 2099.55 392.126 2099.55 392.216C2098.7 394.196 2097.89 396.186 2097.08 398.176C2097.05 398.226 2097.02 398.266 2096.99 398.316C2097.94 396.056 2098.85 393.776 2099.68 391.466C2099.65 391.616 2099.61 391.766 2099.58 391.916V391.926ZM2123.8 325.716C2124.1 325.906 2124.4 326.116 2124.71 326.306C2124.72 326.366 2124.71 326.426 2124.74 326.486C2124.57 326.446 2124.39 326.416 2124.22 326.376C2124.12 326.356 2124.03 326.366 2123.93 326.366C2123.79 326.206 2123.66 326.036 2123.53 325.876C2123.62 325.836 2123.71 325.776 2123.8 325.716ZM2116.07 362.096C2115.69 362.616 2115.51 363.256 2115.6 363.876C2115.55 363.876 2115.49 363.876 2115.44 363.876C2115.52 363.196 2115.35 362.486 2114.79 361.896C2114.62 361.706 2114.43 361.536 2114.25 361.346C2114.86 361.596 2115.46 361.846 2116.07 362.086V362.096ZM2076.97 436.316C2077.68 435.066 2078.38 433.816 2079.09 432.566C2079.44 432.596 2079.8 432.506 2080.12 432.276C2080.09 432.316 2080.05 432.356 2080.02 432.396C2078.98 433.686 2077.97 434.996 2076.97 436.306V436.316ZM2127.11 394.216C2125.9 394.106 2124.68 394.016 2123.46 393.956C2123.46 393.776 2123.41 393.596 2123.35 393.426C2125.2 393.576 2127.04 393.726 2128.89 393.876C2128.97 393.966 2129.05 394.046 2129.15 394.126C2128.47 394.126 2127.79 394.146 2127.11 394.206V394.216ZM2130.71 339.606C2130.51 339.316 2130.31 339.016 2130.11 338.726C2130.11 338.576 2130.05 338.416 2129.96 338.266C2130.02 338.216 2130.08 338.156 2130.15 338.096C2130.38 338.596 2130.62 339.096 2130.85 339.586C2130.8 339.586 2130.76 339.596 2130.71 339.606ZM2137.31 377.776C2138.02 378.076 2138.72 378.376 2139.43 378.686C2139.76 379.146 2140.09 379.596 2140.42 380.056C2139.39 379.296 2138.35 378.536 2137.32 377.786L2137.31 377.776ZM2143.5 372.076C2143.6 372.316 2143.7 372.566 2143.79 372.806C2143.79 372.816 2143.8 372.836 2143.81 372.846C2143.41 372.566 2143.01 372.286 2142.61 372.006C2142.93 372.086 2143.22 372.096 2143.5 372.066V372.076ZM2142.08 397.566C2143.17 397.836 2144.25 398.096 2145.34 398.366C2145.34 398.606 2145.36 398.846 2145.43 399.086C2144.35 398.536 2143.23 398.026 2142.08 397.566ZM2147.08 318.576C2147.63 317.246 2148.07 315.856 2148.42 314.456C2148.47 315.986 2147.95 317.396 2147.08 318.576ZM2156.96 224.246C2156.96 222.576 2156.98 220.906 2157.02 219.246C2157.06 219.966 2157.09 220.686 2157.15 221.396C2157.11 222.346 2157.04 223.296 2156.96 224.246ZM2157.28 202.846C2157.29 201.586 2157.32 200.316 2157.32 199.056C2157.46 200.296 2157.59 201.526 2157.73 202.766C2157.57 202.726 2157.41 202.756 2157.28 202.846ZM2159.15 221.436C2159.02 219.086 2158.88 216.746 2158.75 214.396C2158.66 212.796 2158.57 211.186 2158.47 209.586C2158.92 213.676 2159.36 217.776 2159.81 221.866C2159.63 221.666 2159.39 221.526 2159.15 221.436ZM2162.07 245.406C2162.07 245.406 2162.07 245.356 2162.07 245.326C2161.95 243.796 2161.74 242.286 2161.42 240.786C2161.37 238.606 2161.29 236.436 2161.17 234.256C2161.59 238.116 2162.01 241.986 2162.44 245.846C2162.34 245.686 2162.21 245.536 2162.07 245.406ZM2170.73 321.396C2170.68 320.926 2170.62 320.456 2170.57 319.986C2170.7 319.826 2170.82 319.646 2170.89 319.446C2171.09 320.076 2171.33 320.716 2171.62 321.326C2171.32 321.266 2171.01 321.296 2170.73 321.396ZM2183.38 436.206C2185.72 447.166 2188.06 458.126 2190.41 469.086C2190.26 468.776 2190.12 468.466 2189.97 468.156C2189.97 468.116 2189.97 468.086 2189.97 468.046C2189.05 464.436 2188.14 460.826 2187.22 457.216C2187.24 457.126 2187.26 457.046 2187.25 456.946C2186.87 453.176 2186.03 449.516 2184.74 445.976C2184.25 443.616 2183.8 441.246 2183.39 438.866C2183.24 437.946 2183.08 437.026 2182.92 436.116C2182.61 434.136 2182.31 432.156 2182.05 430.166C2182.51 432.186 2182.96 434.206 2183.39 436.216L2183.38 436.206ZM2181.97 429.846C2181.9 429.596 2181.78 429.396 2181.6 429.256C2180.7 424.876 2179.67 420.526 2178.51 416.206C2178.44 414.286 2178.37 412.366 2178.31 410.446C2179.07 416.966 2180.53 423.436 2181.97 429.846ZM2180.69 325.316C2180.37 325.646 2180.06 325.986 2179.78 326.356C2179.29 326.306 2178.81 326.226 2178.33 326.106C2178.25 326.016 2178.17 325.946 2178.09 325.866C2179.01 325.816 2179.93 325.576 2180.8 325.186C2180.76 325.236 2180.73 325.276 2180.69 325.326V325.316ZM2182.1 369.696C2181.94 369.696 2181.78 369.726 2181.62 369.766C2181.56 369.436 2181.49 369.096 2181.43 368.766C2181.5 368.766 2181.57 368.756 2181.64 368.756C2181.97 368.866 2182.31 368.966 2182.64 369.066C2182.47 369.286 2182.29 369.496 2182.1 369.696ZM2182.87 347.436C2182.77 347.196 2182.67 346.956 2182.56 346.716C2182.58 346.676 2182.61 346.646 2182.63 346.606C2182.73 346.366 2182.83 346.126 2182.93 345.886C2182.94 345.926 2182.95 345.976 2182.97 346.016C2182.94 346.486 2182.9 346.966 2182.87 347.446V347.436ZM2189.71 346.816C2189.72 346.896 2189.74 346.976 2189.75 347.056C2189.64 346.796 2189.53 346.526 2189.43 346.266C2189.29 345.716 2189.18 345.166 2189.08 344.606C2189.18 343.276 2189.3 341.946 2189.42 340.616C2189.61 340.206 2189.78 339.786 2189.96 339.376C2189.56 341.876 2189.4 344.396 2189.71 346.806V346.816ZM2249.5 365.296C2249.54 365.126 2249.56 364.936 2249.55 364.756C2250.41 364.766 2251.27 364.776 2252.13 364.766C2251.26 364.946 2250.38 365.116 2249.51 365.296H2249.5Z" fill="#FFFAD7"/>
<path d="M1606.82 325.027C1602.39 326.487 1598.1 328.337 1594.01 330.557C1593.61 330.337 1593.11 330.277 1592.58 330.517C1586.1 333.467 1579.55 336.397 1572.61 338.087C1569.73 338.787 1566.79 339.237 1563.83 339.357C1563.42 339.247 1563.02 339.117 1562.63 338.967C1561.66 338.327 1560.76 337.577 1559.95 336.747C1559.72 335.927 1559.48 335.107 1559.22 334.287C1559.16 330.257 1559.21 326.217 1559.36 322.187C1559.44 321.527 1559.52 320.867 1559.61 320.207C1559.69 319.597 1559.79 318.987 1559.88 318.377C1560.34 316.067 1560.73 313.757 1560.93 311.417C1561.22 309.607 1561.52 307.797 1561.82 305.987C1562.28 303.277 1562.76 300.567 1563.26 297.857C1563.33 297.467 1562.99 297.217 1562.69 297.237L1555.95 319.107C1555.1 322.597 1554.07 326.037 1552.83 329.407C1552.18 331.167 1551.51 332.937 1550.71 334.637C1550.16 335.807 1549.43 337.327 1548.14 337.827C1547.37 338.127 1546.57 337.957 1545.87 337.567C1545.54 336.467 1545.22 335.357 1544.89 334.257C1544.89 334.087 1544.89 333.917 1544.84 333.727C1543.09 327.427 1541.35 321.127 1539.6 314.817C1539.54 314.567 1539.48 314.317 1539.43 314.067C1537.39 304.877 1535.61 295.617 1534.09 286.327C1534 285.787 1533.71 285.467 1533.34 285.327C1532.66 281.477 1532.02 277.627 1531.44 273.757C1530.52 267.547 1529.73 261.317 1529.08 255.067C1528.97 254.007 1527.99 253.517 1527.18 253.647C1526.59 249.327 1526.04 244.997 1525.56 240.667C1525.35 238.767 1522.35 238.747 1522.56 240.667C1523.83 252.047 1525.49 263.387 1527.49 274.657C1528.96 291.227 1531.1 307.737 1533.43 324.207C1533.71 326.167 1534 328.117 1534.28 330.077C1534.34 331.567 1534.37 333.057 1534.4 334.547C1534.36 334.797 1534.32 335.047 1534.28 335.287C1534.24 335.507 1534.18 335.727 1534.11 335.947C1533.8 336.117 1533.48 336.287 1533.16 336.437C1533.07 336.457 1532.97 336.467 1532.88 336.487C1532.36 336.607 1531.85 336.807 1531.35 336.997C1529.93 336.857 1528.54 336.447 1527.21 335.947C1524.59 334.947 1522.08 333.597 1519.64 332.237C1517.18 330.857 1514.78 329.357 1512.45 327.757C1509.85 325.967 1507.36 324.037 1504.96 321.977C1504.56 321.637 1503.81 322.097 1504.17 322.587C1504.2 322.617 1504.22 322.657 1504.25 322.687C1504.25 322.687 1504.25 322.687 1504.26 322.687C1506.53 325.637 1509.43 327.957 1512.19 330.417C1513.29 331.397 1514.37 332.427 1515.36 333.517C1516.33 335.217 1517.22 336.967 1518.01 338.757C1518.58 340.987 1518.8 343.287 1518.63 345.567C1517.94 346.757 1517.24 347.947 1516.55 349.137C1516.23 349.467 1515.95 349.837 1515.7 350.227C1514.99 350.697 1514.34 351.257 1513.75 351.867C1512.2 352.707 1510.63 353.527 1509.08 354.357C1505.22 356.417 1501.37 358.477 1497.51 360.527C1497.06 360.587 1496.61 360.637 1496.16 360.697C1495.75 360.757 1495.61 361.197 1495.74 361.477C1495.71 361.497 1495.68 361.507 1495.65 361.527C1495.08 361.827 1495.59 362.697 1496.15 362.387C1496.71 362.087 1497.28 361.787 1497.84 361.487C1502.78 360.857 1507.75 360.357 1512.72 360.007C1512.91 359.997 1513.1 359.977 1513.29 359.967C1514.28 360.007 1515.28 360.037 1516.27 360.077C1516.72 360.097 1517.17 360.107 1517.62 360.127C1518.17 360.447 1518.77 360.677 1519.39 360.787C1519.52 360.867 1519.65 360.937 1519.77 361.027C1521.57 362.397 1522.54 364.627 1523.04 366.777C1524.19 371.717 1522.71 376.837 1520.88 381.417C1520.22 383.077 1519.49 384.717 1518.75 386.347C1518.67 386.417 1518.6 386.497 1518.53 386.567C1518 387.047 1517.85 387.617 1517.93 388.147C1516.67 390.857 1515.37 393.537 1514.11 396.237C1513.42 397.727 1512.73 399.217 1512.03 400.697C1511.06 402.537 1510.13 404.397 1509.24 406.267C1508.11 408.657 1507.06 411.087 1506.06 413.537C1505.97 413.757 1506.08 413.937 1506.24 414.057C1505.84 415.017 1505.44 415.977 1505.07 416.947C1504.87 417.467 1505.76 417.857 1505.98 417.337C1511.18 405.217 1518.71 394.307 1526.66 383.847C1528.18 381.847 1529.72 379.877 1531.26 377.897C1534.4 375.847 1537.68 374.017 1541.09 372.467C1541.82 372.337 1542.55 372.247 1543.29 372.207C1546.25 372.037 1549.18 372.627 1551.93 373.727C1555.18 375.047 1558.08 377.017 1560.75 379.277C1562.33 380.997 1563.99 382.647 1565.73 384.217C1565.87 384.347 1566.03 384.407 1566.18 384.447C1566.29 384.567 1566.41 384.677 1566.52 384.797C1566.55 384.827 1566.58 384.857 1566.61 384.897C1568.05 386.567 1569.6 388.157 1571.18 389.717C1572.24 390.817 1573.32 391.897 1574.43 392.937C1574.85 393.357 1575.26 393.767 1575.67 394.187C1575.8 394.327 1575.95 394.397 1576.09 394.447C1577.94 396.067 1579.9 397.557 1582.04 398.807C1582.54 399.097 1583.03 398.437 1582.65 398.017C1582 397.327 1581.34 396.627 1580.69 395.937C1580.84 395.757 1580.89 395.487 1580.69 395.267C1577.29 391.637 1573.89 388.007 1570.49 384.377C1566.84 379.797 1563.56 374.947 1561.06 369.617C1560.22 367.827 1559.5 365.987 1558.88 364.107C1558.88 364.027 1558.9 363.947 1558.91 363.857C1559.53 362.337 1560.01 360.787 1560.37 359.187C1569.16 347.887 1581.88 340.287 1594.07 333.077C1594.23 332.987 1594.35 332.877 1594.45 332.767C1598.04 331.037 1601.62 329.307 1605.21 327.577C1605.62 327.377 1605.48 326.897 1605.16 326.727C1605.79 326.477 1606.42 326.197 1607.06 325.957C1607.65 325.727 1607.42 324.787 1606.79 324.997L1606.82 325.027ZM1512.78 329.277C1512.63 329.207 1512.49 329.207 1512.37 329.257C1511.67 328.637 1510.96 328.027 1510.25 327.407C1511.35 328.207 1512.48 328.977 1513.61 329.727C1513.34 329.567 1513.06 329.417 1512.78 329.277ZM1517.7 332.387C1517.7 332.387 1517.68 332.457 1517.66 332.487C1517.57 332.447 1517.48 332.437 1517.39 332.457C1516.73 331.897 1516.05 331.357 1515.35 330.847C1516.14 331.347 1516.94 331.837 1517.75 332.307C1517.73 332.327 1517.7 332.347 1517.69 332.377L1517.7 332.387ZM1501.9 360.057C1501.37 360.117 1500.83 360.167 1500.3 360.227C1500.74 359.987 1501.19 359.757 1501.63 359.517C1501.68 359.637 1501.78 359.727 1501.93 359.767C1501.89 359.857 1501.89 359.957 1501.9 360.057ZM1511.11 354.657C1510.33 355.057 1509.57 355.487 1508.85 355.967C1508.45 356.197 1508.05 356.427 1507.65 356.647C1506.86 356.967 1506.06 357.277 1505.25 357.577L1508.61 355.787C1509.53 355.297 1510.44 354.807 1511.36 354.317C1511.26 354.417 1511.18 354.527 1511.1 354.647L1511.11 354.657ZM1526.32 339.047C1525.35 338.317 1524.37 337.597 1523.4 336.877C1523.58 336.967 1523.76 337.037 1523.95 337.117C1524.86 337.637 1525.79 338.127 1526.75 338.547C1526.59 338.697 1526.45 338.857 1526.33 339.037L1526.32 339.047ZM1529.06 337.727C1529.06 337.727 1528.88 337.757 1528.77 337.777C1528.69 337.777 1528.59 337.797 1528.53 337.807C1528.33 337.717 1528.12 337.627 1527.92 337.537C1527.52 337.307 1527.13 337.077 1526.73 336.857C1527.03 336.967 1527.32 337.097 1527.62 337.207C1528.16 337.397 1528.72 337.557 1529.28 337.697C1529.21 337.707 1529.14 337.727 1529.07 337.737L1529.06 337.727ZM1532.33 357.707C1532.15 357.917 1532 358.147 1531.83 358.357C1531.79 358.307 1531.75 358.257 1531.71 358.217C1531.9 357.867 1532.08 357.507 1532.24 357.147C1532.3 357.307 1532.36 357.457 1532.43 357.607C1532.4 357.637 1532.36 357.667 1532.34 357.697L1532.33 357.707ZM1551.27 339.887C1550.88 339.907 1550.51 339.997 1550.18 340.147C1550.59 339.877 1550.96 339.547 1551.31 339.177C1551.3 339.417 1551.28 339.657 1551.28 339.897L1551.27 339.887ZM1577.32 393.757C1577.84 394.327 1578.35 394.897 1578.87 395.457C1578.29 395.007 1577.74 394.527 1577.18 394.047C1577.24 393.957 1577.29 393.857 1577.32 393.757ZM1553.89 373.537C1555.07 374.037 1556.23 374.607 1557.35 375.237C1557.48 375.407 1557.61 375.577 1557.75 375.747C1556.53 374.927 1555.25 374.187 1553.89 373.537Z" fill="#FFFAD7"/>
</svg>
