<svg width="55" height="61" viewBox="0 0 55 61" fill="none" xmlns="http://www.w3.org/2000/svg">
<path d="M54.3903 29.2601C48.9703 29.1501 43.6403 27.0901 39.5003 23.6001C35.2903 20.0401 32.5103 15.0301 31.5803 9.60006C31.0503 6.52006 31.1203 3.34006 31.8303 0.290059C31.9003 5.87702e-05 31.4803 -0.109941 31.3903 0.170059C29.2603 6.35006 26.8203 12.5101 23.1603 17.9601C19.7903 22.9901 15.3003 27.3301 9.78029 29.9301C6.79029 31.3401 3.53029 32.1701 0.220289 32.2301C-0.0697107 32.2301 -0.0797107 32.6901 0.220289 32.6901C0.420289 32.6901 0.630289 32.6701 0.830289 32.6601C0.870289 32.7101 0.920289 32.7401 1.00029 32.7401C6.53029 32.9001 11.9703 34.7801 16.4603 38.0201C20.9803 41.2801 24.3803 45.9201 26.2303 51.1601C27.2703 54.1201 27.8203 57.2401 27.8203 60.3801C27.8203 60.6401 28.1903 60.6801 28.2703 60.4401C30.1003 54.8101 32.0803 49.1601 35.1103 44.0501C37.8603 39.4301 41.5303 35.3001 46.2103 32.5801C48.7203 31.1201 51.5003 30.1001 54.3903 29.7301C54.6703 29.6901 54.6903 29.2801 54.3903 29.2701V29.2601Z" fill="#FFFAD7"/>
</svg>
