<svg width="48" height="70" viewBox="0 0 48 70" fill="none" xmlns="http://www.w3.org/2000/svg">
<path d="M47.3404 28.6604C42.2704 27.4404 37.6004 24.8504 33.7404 21.3604C29.9104 17.8904 26.8604 13.5304 25.0004 8.70042C23.9504 5.98042 23.2804 3.12042 23.0504 0.220423C23.0304 -0.0195767 22.6404 -0.109577 22.6004 0.160423C21.7604 5.44042 20.7104 10.7504 18.5804 15.6804C16.7304 19.9504 14.0304 23.8904 10.3404 26.7804C8.34035 28.3504 6.07035 29.5604 3.62035 30.2604C3.57035 30.2704 3.54035 30.3004 3.51035 30.3304C3.44035 30.3504 3.38035 30.3704 3.31035 30.3904C3.23035 30.4204 3.15035 30.4404 3.07035 30.4804C3.07035 30.4804 3.06035 30.4804 3.05035 30.4904C3.02035 30.5004 2.98035 30.5104 2.95035 30.5204C2.05035 30.6904 1.14035 30.7904 0.210352 30.7904C-0.00964813 30.7904 -0.109648 31.1104 0.0903519 31.2204C4.88035 33.6304 8.69035 37.6004 11.4904 42.1304C14.6404 47.2204 16.4704 52.9804 17.7504 58.7904C18.5204 62.3004 19.1104 65.8404 19.6904 69.3904C19.7404 69.6704 20.1104 69.5604 20.1404 69.3304C20.9804 62.8104 23.0803 56.4804 26.2104 50.7004C29.3303 44.9504 33.4504 39.7504 38.3604 35.4304C41.1304 33.0004 44.1504 30.8604 47.3604 29.0604C47.5304 28.9704 47.5004 28.6904 47.3104 28.6404L47.3404 28.6604Z" fill="#FFFAD7"/>
</svg>
