<svg width="55" height="61" viewBox="0 0 55 61" fill="none" xmlns="http://www.w3.org/2000/svg">
<path d="M54.69 23.5299C49.57 24.8099 44.01 23.9499 39.46 21.2999C34.88 18.6299 31.62 14.1499 30.28 9.03994C29.63 6.56994 29.44 3.97994 29.75 1.44994C29.75 1.39994 29.77 1.34994 29.78 1.29994C29.83 0.98994 29.87 0.68994 29.92 0.37994C29.92 0.34994 29.92 0.31994 29.93 0.28994C29.93 0.26994 29.93 0.24994 29.93 0.22994C29.96 -0.0200597 29.53 -0.0800598 29.48 0.16994C29.41 0.55994 29.35 0.95994 29.3 1.34994C28.88 3.81994 28.16 6.23994 27.17 8.53994C26.04 11.1599 24.58 13.6399 22.85 15.9099C21.1 18.1999 19.06 20.2799 16.82 22.0899C14.59 23.8899 12.14 25.4199 9.54 26.6199C6.93 27.8299 4.16 28.6899 1.32 29.1599C1.21 29.1799 1.11 29.1899 1 29.2099C0.880004 29.1699 0.770004 29.1299 0.650004 29.0899C0.530004 29.0499 0.440004 29.1099 0.400004 29.1999L0.290004 29.1799C0.170004 29.1599 0.0400037 29.2099 0.0100037 29.3399C-0.00999626 29.3999 0.0100037 29.4699 0.0400037 29.5199C0.0100037 29.6499 0.0800037 29.7999 0.250004 29.7699C0.310004 29.7699 0.370004 29.7499 0.430004 29.7399C0.920004 29.7999 1.4 29.8899 1.88 30.0099C4.27 30.8599 6.59 31.8699 8.83 33.0599C11.48 34.4699 14.01 36.1099 16.39 37.9399C18.79 39.7899 21.03 41.8399 23.09 44.0599C25.14 46.2699 27.01 48.6399 28.66 51.1599C30.31 53.6699 31.74 56.3199 32.94 59.0699C33.09 59.4199 33.24 59.7799 33.39 60.1399C33.48 60.3599 33.86 60.3599 33.84 60.0799C33.47 54.3299 34.55 48.5299 36.82 43.2399C39.08 37.9499 42.5 33.1599 46.81 29.3399C49.24 27.1899 51.95 25.3599 54.87 23.9399C55.11 23.8199 54.94 23.4599 54.69 23.5199V23.5299Z" fill="#FFFAD7"/>
</svg>
