<svg width="59" height="70" viewBox="0 0 59 70" fill="none" xmlns="http://www.w3.org/2000/svg">
<path d="M57.9704 35.4501C52.2304 33.8901 47.1204 30.4901 43.1904 26.0601C39.2604 21.6201 36.4904 16.1301 35.3604 10.3001C34.7204 7.01006 34.6304 3.61006 35.1404 0.290059C35.1804 5.87702e-05 34.8004 -0.109941 34.7004 0.170059C32.3104 6.65006 29.8204 13.1901 25.9904 18.9801C22.4104 24.4001 17.5204 29.0701 11.4404 31.5501C8.16042 32.8801 4.62042 33.5001 1.09042 33.1501C1.01042 33.1501 0.960419 33.1701 0.930419 33.2101C0.680419 33.2101 0.420419 33.2601 0.180419 33.3401C0.0704186 33.3801 -0.0195814 33.5001 0.0204186 33.6201C0.0204186 33.6201 0.0204186 33.6301 0.0204186 33.6401C0.0104186 33.7401 0.0504186 33.8401 0.180419 33.8601C0.570419 33.9401 0.960419 34.0301 1.35042 34.1101C1.39042 34.1501 1.43042 34.1801 1.50042 34.1901C1.72042 34.2201 1.95042 34.2501 2.17042 34.2901C2.25042 34.3101 2.34042 34.3301 2.42042 34.3401C2.46042 34.3401 2.50042 34.3401 2.53042 34.3401C8.25042 35.2601 13.6704 37.9301 17.9204 41.8701C22.6004 46.2101 25.6904 52.0501 26.7704 58.3301C27.3904 61.9301 27.3404 65.6401 26.6004 69.2101C26.5404 69.5001 26.9504 69.6101 27.0404 69.3301C29.0004 63.0501 31.4504 56.8601 35.1004 51.3601C38.4704 46.2601 42.9104 41.8201 48.3404 38.9401C51.3104 37.3601 54.5504 36.2901 57.9004 35.9201C58.1404 35.8901 58.2304 35.5401 57.9604 35.4701L57.9704 35.4501Z" fill="#FFFAD7"/>
</svg>
