<svg width="58" height="74" viewBox="0 0 58 74" fill="none" xmlns="http://www.w3.org/2000/svg">
<path d="M57.8302 37.5203C51.7302 36.2403 46.1302 32.8603 42.1802 28.0403C38.1402 23.1103 36.0002 16.9503 34.6502 10.8003C33.8802 7.29035 33.3402 3.73035 32.8202 0.180346C32.7802 -0.0596539 32.4402 -0.00965388 32.3802 0.180346C29.9602 7.54035 27.5102 14.9603 23.7902 21.7903C20.4802 27.8603 16.0902 33.4403 10.3702 37.4103C7.80023 39.2003 4.98023 40.6103 1.99023 41.5403C1.89023 41.5403 1.80023 41.5303 1.70023 41.5303C1.58023 41.5303 1.51023 41.6103 1.49023 41.7003C1.06023 41.8303 0.620232 41.9403 0.180232 42.0403C-0.109768 42.1103 0.0102323 42.5503 0.300232 42.4803C0.660232 42.3903 1.03023 42.3003 1.38023 42.1903C1.97023 42.1703 2.56023 42.1203 3.15023 42.0503C9.09023 42.4403 14.9002 44.4503 19.8402 47.8003C25.1502 51.4003 29.3002 56.5703 31.7702 62.4803C33.1502 65.7903 34.0102 69.3103 34.2702 72.8903C34.2902 73.1403 34.6502 73.2103 34.7202 72.9503C36.3802 67.1103 38.2202 61.2803 40.9302 55.8303C43.3402 50.9903 46.4702 46.4703 50.5202 42.8503C52.7302 40.8803 55.2002 39.2103 57.8902 37.9603C58.0702 37.8803 58.0202 37.5803 57.8402 37.5403L57.8302 37.5203Z" fill="#FFFAD7"/>
</svg>
