<svg width="97" height="165" viewBox="0 0 97 165" fill="none" xmlns="http://www.w3.org/2000/svg">
<g clip-path="url(#clip0_136_1400)">
<path d="M94.7013 157.52C94.7013 157.52 94.6745 157.467 94.6611 157.44C93.8031 155.577 91.9532 153.847 90.5188 152.735C88.4946 151.153 86.1353 150.081 83.6285 149.571C83.1191 149.236 82.6231 148.901 82.1539 148.539C81.4569 147.842 80.7866 147.118 80.1297 146.367C80.0493 145.751 79.9689 145.134 79.8884 144.517C79.5265 141.729 79.178 138.941 78.816 136.152C78.3736 125.696 77.328 115.267 76.1484 104.864C76.0947 104.127 76.0411 103.403 75.9607 102.679C76.7516 102.438 77.4755 101.875 78.0251 101.165C78.9367 99.9715 79.4058 98.4835 79.4997 96.9821C79.808 95.1456 79.7008 93.2421 79.2048 91.4592C78.7088 88.9792 77.2878 86.6735 74.9419 85.0782C74.5129 84.7833 74.0705 84.6358 73.6416 84.5822C72.167 83.2551 70.5181 82.1023 68.9095 80.9628C66.4027 79.1933 63.8959 77.4372 61.3891 75.6677C60.9333 75.346 60.4507 75.1985 59.9816 75.1583C59.9145 75.1047 59.8609 75.0511 59.7939 74.9974C59.1772 73.6703 58.641 72.3164 58.1718 70.9356C58.1718 70.8552 58.1718 70.7748 58.1718 70.6809C58.0244 69.26 57.8635 67.8524 57.7161 66.4315C57.582 61.1632 59.0432 55.8681 58.641 50.5864C58.1987 44.8757 56.1208 39.3393 51.1341 36.1086C50.9196 35.9746 50.6917 35.8808 50.4638 35.8003C49.445 34.7413 48.2787 33.9772 46.898 33.8029C44.3778 32.3552 41.4554 31.7385 38.6269 32.3686C38.5867 32.3149 38.5465 32.2747 38.5063 32.2211C40.2221 31.1487 41.2007 28.8296 41.9112 26.8322C42.9032 24.0439 43.6539 21.1885 44.1901 18.2796C44.284 17.7702 44.2705 17.2474 44.1901 16.7648C44.2303 16.5637 44.2571 16.3492 44.284 16.1482C45.1151 14.4591 45.5038 12.5823 45.2357 10.719C45.3028 8.56075 44.6593 6.33547 42.5279 5.37029C42.501 5.37029 42.4876 5.35688 42.4608 5.34348C42.3 5.18261 42.1123 5.02175 41.938 4.87429C41.9246 4.84748 41.9112 4.83407 41.8978 4.80726C41.6163 4.45873 41.2275 4.21743 40.812 4.05657C40.6779 3.97614 40.5573 3.8823 40.4098 3.80187C39.1363 2.71604 37.6751 1.89831 36.0129 1.54978C34.8198 1.29507 33.5999 1.28167 32.4069 1.46934C29.9135 1.26826 27.4603 2.22004 25.7176 4.09678C23.8677 6.08077 23.0365 8.65459 22.3797 11.2284C22.2188 11.845 22.2456 12.4349 22.4065 12.9577C22.2993 13.4135 22.2188 13.8827 22.1786 14.3518C22.125 14.5663 22.058 14.7808 22.0311 15.0087C22.0311 15.0891 22.0177 15.1696 22.0043 15.25C21.9239 15.7192 21.8703 16.2018 21.8569 16.6844C21.3207 18.4807 21.6826 20.5049 23.251 21.9258C23.5191 22.1671 23.8006 22.3548 24.1224 22.5157C24.1894 23.7624 24.3905 24.9957 24.7256 26.1083C24.9267 26.792 25.1948 27.4622 25.4897 28.1191C24.8999 28.8966 24.3235 29.6741 23.7336 30.4516C23.5057 30.5186 23.2778 30.5991 23.05 30.7063C22.8489 30.8001 22.6344 30.894 22.4333 31.0012C22.3797 31.028 22.2858 31.0683 22.2188 31.0951C21.8167 31.2559 21.4279 31.4034 21.0257 31.5508C20.6102 31.3498 20.141 31.2291 19.6316 31.2157C18.157 31.1621 16.8969 31.6313 15.8379 32.449C15.6502 32.4222 15.4625 32.3954 15.2749 32.3686C12.8217 32.1273 10.4087 32.8646 8.45157 34.2587C8.04941 34.4732 7.64725 34.7145 7.27191 34.996C6.40056 35.6663 5.70349 36.4706 5.19408 37.3687C5.01982 37.5296 4.85895 37.6905 4.71149 37.8781C4.05463 38.6691 3.63907 39.5538 3.37096 40.4788C3.35756 40.519 3.34415 40.5592 3.33075 40.5994C2.99561 41.5646 2.84816 42.6102 2.91518 43.6558C2.9554 44.192 3.11626 44.7149 3.35756 45.1974C3.31734 45.6666 3.29053 46.1492 3.25032 46.6184C3.11626 46.9804 3.00902 47.3423 2.9554 47.7445C1.58806 58.1604 1.57465 68.5763 2.84816 78.8716C3.2101 82.4776 3.78653 86.0434 4.63106 89.5288C5.07344 91.5932 5.55603 93.6576 6.10564 95.722C5.39516 99.7034 4.96619 103.698 4.77852 107.693C2.86156 119.811 2.74091 131.97 3.54523 144.209C2.86156 148.767 2.16449 153.325 1.48081 157.882C1.40038 158.392 1.48081 158.888 1.66849 159.317C0.649686 159.571 0.435201 161.301 1.42719 161.743C3.57204 162.682 6.09224 162.48 8.46498 162.333C9.524 162.467 10.5696 162.547 11.6286 162.615C11.8565 162.789 12.1514 162.896 12.4732 162.936C14.9129 163.231 17.3527 163.325 19.8059 163.218C20.771 163.566 21.7899 163.647 22.4869 162.829C22.5674 162.735 22.6076 162.655 22.6612 162.561C22.7952 162.467 22.9025 162.346 22.9963 162.212C23.6532 162.051 24.2028 161.462 23.9883 160.604C23.5728 158.982 23.1706 157.346 22.755 155.724C22.4199 154.102 22.1786 152.467 22.0043 150.818C21.9641 150.456 21.8033 150.174 21.5888 149.973C21.6424 148.083 21.629 146.193 21.5351 144.289C21.5351 143.566 21.562 142.828 21.5754 142.104C21.5754 141.85 21.5486 141.622 21.5217 141.381C22.5003 130.536 23.3315 119.677 23.9347 108.806C27.5005 108.229 31.0663 107.773 34.6589 107.452C38.6269 107.398 42.5949 107.358 46.5629 107.344C50.0885 107.532 53.6006 107.68 57.1262 107.787C58.1987 109.918 59.2711 112.05 60.3435 114.181C61.0138 117.747 61.684 121.313 62.3543 124.879C62.7833 130.951 63.4267 136.997 64.4991 142.989C63.8691 144.263 63.8289 145.764 64.4857 147.118C64.2579 147.56 64.1238 148.056 64.164 148.579C64.3517 150.885 64.6466 153.191 65.0354 155.483C65.0756 155.818 65.1158 156.167 65.156 156.502C65.1962 156.931 65.3035 157.333 65.4509 157.708C65.5582 158.218 65.652 158.727 65.7592 159.236C65.7861 159.33 65.8263 159.424 65.8665 159.518C65.6654 159.933 65.719 160.416 65.9335 160.791C65.8397 161.609 66.4965 162.507 67.5824 162.293C68.695 162.065 69.8076 161.85 70.9337 161.636C71.0946 161.73 71.2822 161.81 71.4967 161.837C74.4727 162.212 77.4487 162.011 80.4381 161.743C81.9529 161.609 83.4542 161.475 84.969 161.328C86.256 161.448 87.5563 161.569 88.8432 161.69C91.0819 161.891 95.5726 162.615 95.1437 158.928C95.0901 158.445 94.9292 157.976 94.7147 157.507L94.7013 157.52ZM59.2041 89.7299C57.5284 89.5958 55.8527 89.4349 54.1771 89.2607L52.7561 89.0596C52.421 87.089 52.0724 85.1318 51.6569 83.1747C53.3459 84.6359 55.1154 86.03 56.9117 87.3705C57.6624 88.1614 58.4265 88.9524 59.2041 89.7165V89.7299ZM5.82413 157.427C5.89116 157.561 5.97159 157.681 6.06543 157.802C5.95819 157.775 5.85094 157.775 5.75711 157.762C5.75711 157.735 5.77051 157.722 5.78392 157.695C5.79732 157.614 5.82413 157.52 5.83754 157.44L5.82413 157.427Z" fill="#944EBE"/>
<path d="M24.4038 23.3599C25.1947 26.2018 26.3476 29.0169 28.412 31.1885C30.2753 33.1591 33.0502 34.4728 35.7983 34.2852C42.139 33.8428 43.4259 27.0061 44.619 22.0059C45.0078 20.3571 45.3965 18.7216 45.7853 17.0728C46.174 15.4239 46.6566 13.7348 46.8711 12.0324C47.2732 8.92234 45.8657 6.3083 43.6538 4.20367C39.9137 0.624456 34.069 -1.10483 29.0957 0.758508C23.5593 2.82293 19.913 8.70785 20.9586 14.5794C21.0793 15.2765 21.964 15.7188 22.6075 15.5177C23.9614 15.0888 25.302 15.9735 25.5567 17.3409C25.6773 18.0111 26.5621 18.5071 27.2055 18.2792C29.1359 17.5822 30.396 16.0406 31.1601 14.1772C31.6024 13.078 31.8437 11.9385 32.1387 10.7991C32.2191 10.5042 32.2995 9.64623 32.5274 9.44515C32.3397 9.60601 32.6481 9.55239 32.8357 9.5926C33.1441 9.65963 33.4658 9.74006 33.7741 9.82049C35.9592 10.3567 38.1442 11.0136 40.3561 11.4157C42.2597 11.7643 44.2302 11.6302 45.4099 9.91433C46.3751 8.47996 44.056 7.13943 43.0908 8.5604C42.3937 9.5792 39.6858 8.52018 38.8547 8.30569C37.7689 8.03759 36.6697 7.76948 35.5838 7.50138C34.565 7.24668 33.4658 6.84452 32.4202 6.83111C29.967 6.8043 29.6855 9.63282 29.2297 11.4291C28.8275 12.9976 28.2243 15.0754 26.5084 15.692L28.1573 16.6304C27.6479 13.8689 24.5513 12.0994 21.9104 12.9305L23.5593 13.8689C22.8488 9.86071 25.2885 5.74528 28.7605 3.84173C32.514 1.77731 37.2059 2.66206 40.5572 5.07502C42.206 6.25468 44.0962 8.19845 44.2973 10.3165C44.4179 11.7106 43.989 13.1182 43.6672 14.4453C43.3321 15.8797 42.997 17.3141 42.6484 18.7484C42.0452 21.2954 41.5492 23.9095 40.7583 26.4163C40.1684 28.293 39.2435 30.3038 37.3801 31.202C35.2755 32.2208 32.5676 31.3628 30.9054 29.8748C28.8141 27.9847 27.7551 25.317 27.0044 22.6628C26.5352 21.0005 23.948 21.711 24.4172 23.3733L24.4038 23.3599Z" fill="black"/>
<path d="M21.5618 13.3864C21.1864 13.5607 20.8245 13.7082 20.5966 14.0835C20.3821 14.4455 20.3821 14.9012 20.3419 15.3034C20.2883 15.7994 20.2749 16.2954 20.2883 16.7914C20.3285 17.9174 20.5028 19.0703 20.8379 20.1561C21.173 21.2419 21.5752 22.301 22.4599 22.998C23.4519 23.7621 24.9533 23.8158 25.8515 22.864C26.3341 22.3546 26.4011 21.4698 25.8515 20.9738C25.3019 20.4778 24.4707 20.4242 23.9613 20.9738C23.8407 21.0945 23.9345 21.0006 24.015 20.947C24.1088 20.8934 24.2294 20.8934 24.0686 20.9202C24.1624 20.9202 24.2965 20.9202 24.1356 20.9068C23.9747 20.8934 24.0954 20.9068 24.1892 20.9068C24.0418 20.88 24.1222 20.88 24.2294 20.947C24.2294 20.947 23.9747 20.7728 24.1088 20.88C24.2428 20.9872 24.0552 20.813 24.0418 20.7996C24.1222 20.947 23.9077 20.7057 24.0418 20.7996C23.9613 20.6655 23.8809 20.5449 23.8139 20.4108C23.7737 20.3438 23.7469 20.2768 23.72 20.2097C23.7871 20.4242 23.6262 20.0355 23.72 20.2097C23.5994 19.8478 23.4519 19.4858 23.3581 19.1105C23.2643 18.762 23.1838 18.4134 23.1168 18.0515C23.1034 17.9576 23.09 17.8772 23.0766 17.7834C23.1034 17.9308 23.0766 17.8236 23.0766 17.7297C23.0632 17.5555 23.0364 17.3678 23.023 17.1935C22.9962 16.8048 22.9962 16.4294 23.0096 16.0407C23.0096 15.853 23.023 15.6787 23.0364 15.5045C23.0364 15.4106 23.0498 15.3302 23.0632 15.2364C23.0632 15.1961 23.1034 14.9012 23.0632 15.1157L22.4465 15.92L22.9291 15.7056C23.5726 15.4106 23.7737 14.432 23.4117 13.869C22.9827 13.2122 22.2589 13.0781 21.5752 13.3864H21.5618Z" fill="black"/>
<path d="M7.19131 97.3303C8.61227 94.3007 12.0172 92.3033 15.3685 93.0942C16.9772 93.4695 18.425 94.3677 19.4974 95.6278C20.7575 97.1024 21.1864 99.0327 21.2803 100.936C21.4009 103.229 21.2535 105.548 21.2133 107.84C21.173 110.132 21.1194 112.518 21.0792 114.864C20.9854 119.664 20.8915 124.463 20.7977 129.248C20.6905 134.597 20.5832 139.959 20.476 145.308C20.4358 147.037 23.1168 147.037 23.157 145.308C23.3581 134.932 23.5592 124.556 23.7737 114.181C23.8273 111.5 23.8809 108.832 23.9345 106.151C23.9882 103.738 24.1356 101.298 23.7603 98.8987C23.1168 94.8503 20.1408 91.4319 16.0924 90.4936C11.6419 89.4614 6.82937 91.8207 4.8856 95.9629C4.57728 96.6198 4.69793 97.4107 5.36819 97.7995C5.94462 98.1346 6.8964 97.9737 7.20472 97.3169L7.19131 97.3303Z" fill="black"/>
<path d="M23.7069 24.4456C24.8329 26.0944 23.8812 28.2929 22.4066 29.3921C20.3422 30.9337 17.4734 30.9605 15.0202 31.0946C12.4062 31.242 9.64472 31.4833 7.35242 32.8641C5.23438 34.1376 3.89385 36.2288 3.07613 38.5077C2.20478 40.9475 1.93667 43.5883 1.64176 46.1487C1.29322 49.2052 1.02511 52.2616 0.864251 55.3314C0.529118 61.5246 0.582739 67.7313 1.01171 73.9245C1.4943 80.9221 2.47289 87.8929 3.90725 94.7698C4.16196 96.0031 6.3068 96.0969 6.49448 94.7698C7.08431 90.6141 9.60451 86.0161 14.3232 85.8687C16.2267 85.8016 18.0498 86.5657 19.0016 88.2816C19.7523 89.6221 19.94 91.5525 18.9346 92.826C18.4922 93.389 18.385 94.1665 18.9346 94.7162C19.4038 95.1853 20.3824 95.2926 20.8247 94.7162C23.3852 91.4587 22.3529 86.5121 18.8542 84.3404C14.9666 81.9141 9.71175 83.4825 6.93685 86.8607C5.24778 88.9251 4.25579 91.4185 3.89385 94.0459H6.48107C3.92066 81.8069 2.91526 69.2729 3.46488 56.7792C3.59893 53.6557 3.84023 50.5323 4.16195 47.4223C4.44347 44.835 4.68476 42.1808 5.48908 39.6874C6.18616 37.5023 7.48647 35.5586 9.68494 34.6738C12.0711 33.7086 14.7253 33.8561 17.2455 33.6282C20.1143 33.3869 23.2511 32.73 25.1815 30.4109C26.8571 28.4001 27.5944 25.3973 26.026 23.0916C25.0608 21.6707 22.7283 23.0112 23.7069 24.4456Z" fill="black"/>
<path d="M2.16446 69.8099C6.60161 68.161 11.2935 67.5578 16.0121 68.0002C16.736 68.0672 17.3527 67.3299 17.3527 66.6596C17.3527 65.8821 16.736 65.3861 16.0121 65.3191C11.0924 64.8499 6.07881 65.5068 1.45398 67.2227C0.770307 67.4774 0.314527 68.1342 0.515606 68.8715C0.689875 69.5284 1.48079 70.0646 2.16446 69.8099Z" fill="black"/>
<path d="M17.5002 66.5382C17.3796 59.4602 17.6209 52.3956 18.2375 45.3444C18.385 43.6285 15.7039 43.6419 15.5565 45.3444C14.9398 52.3956 14.6985 59.4736 14.8192 66.5382C14.846 68.2675 17.527 68.2675 17.5002 66.5382Z" fill="black"/>
<path d="M21.361 32.0333C23.7606 36.0013 26.3746 39.8352 29.2031 43.5082C30.356 45.0096 32.2461 48.3341 34.5652 46.9534C35.517 46.3904 35.7449 45.2509 36.013 44.2723C36.3347 43.1061 36.6431 41.9264 36.938 40.7601C37.6082 38.0791 38.2249 35.3846 38.7611 32.6767C39.0962 30.9877 36.5224 30.2772 36.1739 31.9663C35.6377 34.6205 35.0478 37.2748 34.391 39.9022C34.0558 41.2159 33.7207 42.5296 33.3588 43.8434C33.2917 44.0713 33.1577 44.3528 33.1443 44.5941C33.1443 44.6879 33.1175 44.7549 33.0504 44.8085C33.533 44.7683 33.6805 44.7013 33.4928 44.5673C33.4928 44.46 33.1041 44.1651 33.0236 44.0713C32.8091 43.83 32.6215 43.5619 32.4204 43.3072C29.2299 39.299 26.321 35.0629 23.6667 30.6794C22.7686 29.2048 20.4495 30.5453 21.3476 32.0333H21.361Z" fill="black"/>
<path d="M14.886 65.7746C13.7331 72.0751 12.7009 78.7375 15.516 84.7565C15.8243 85.4133 16.7627 85.5742 17.3525 85.2391C18.0228 84.8503 18.1434 84.0594 17.8351 83.4026C15.3685 78.1209 16.4678 71.9812 17.4732 66.4851C17.7815 64.796 15.1943 64.0721 14.886 65.7746Z" fill="black"/>
<path d="M46.1739 47.5967L45.1953 56.7391C44.8735 59.7821 44.3776 62.8787 44.4044 65.9485C44.4312 69.0183 45.2221 71.686 46.2543 74.4207C47.2865 77.1553 48.493 80.0643 49.619 82.8794C49.8871 83.5497 50.5172 84.0189 51.2679 83.8178C51.9113 83.6435 52.4744 82.8392 52.2063 82.1689C51.107 79.394 49.9676 76.6325 48.8951 73.8576C47.8227 71.0827 47.072 68.5089 47.0854 65.6402C47.0988 62.7715 47.5546 59.7016 47.8763 56.7525L48.8549 47.6101C48.9354 46.8862 48.1847 46.2695 47.5144 46.2695C46.7235 46.2695 46.2543 46.8862 46.1739 47.6101V47.5967Z" fill="black"/>
<path d="M23.4384 109.396C35.0608 108.565 46.7368 108.565 58.3458 109.423C60.0617 109.543 60.0617 106.862 58.3458 106.742C46.7234 105.884 35.0608 105.884 23.4384 106.715C21.7225 106.835 21.7091 109.516 23.4384 109.396Z" fill="black"/>
<path d="M49.4581 91.4721C54.5521 90.7214 59.7534 90.5874 64.8742 91.0566C66.0405 91.1638 67.2067 91.2979 68.3596 91.4721C69.5124 91.6464 70.9334 91.7537 72.0326 92.2765C73.7619 93.0942 73.8692 95.3731 74.03 97.0353C75.022 107.545 76.0006 118.055 76.9792 128.551C77.5422 134.53 78.0918 140.495 78.6548 146.474C78.7219 147.198 79.2179 147.815 79.9954 147.815C80.6656 147.815 81.4029 147.198 81.3359 146.474C80.2903 135.361 79.2581 124.248 78.2125 113.135C77.6897 107.585 77.2071 102.022 76.6441 96.4723C76.4296 94.3811 76.0542 92.0486 74.3383 90.6276C72.408 89.0324 69.4722 88.9251 67.0995 88.6302C60.9867 87.8661 54.8068 88.0002 48.7208 88.8983C48.0103 89.0056 47.6082 89.9037 47.7824 90.5472C47.9969 91.3113 48.7074 91.5928 49.4313 91.4855L49.4581 91.4721Z" fill="black"/>
<path d="M57.0992 108.751C59.8205 115.642 61.0001 122.988 61.657 130.334C61.9921 134.047 62.2066 137.774 62.4479 141.5C62.5015 142.372 62.5551 143.23 62.6222 144.101C62.6892 144.972 62.6624 145.991 62.9171 146.849C63.4131 148.538 65.0351 149.048 66.6035 149.249C70.92 149.785 75.3304 149.503 79.5665 148.565C81.2555 148.19 80.5317 145.616 78.856 145.978C75.3572 146.742 71.7646 146.997 68.1854 146.715C67.4615 146.661 66.684 146.648 65.9869 146.42C65.3971 146.219 65.4373 145.897 65.3971 145.307C65.263 143.578 65.1558 141.849 65.0485 140.12C64.6062 133.135 64.1772 126.138 62.8635 119.248C62.1396 115.427 61.1074 111.66 59.6864 108.027C59.4183 107.357 58.7882 106.888 58.0376 107.089C57.3941 107.263 56.8311 108.054 57.0992 108.738V108.751Z" fill="black"/>
<path d="M63.3193 147.159C63.4802 149.907 63.6947 152.641 63.9896 155.389C64.1371 156.703 64.2845 158.017 64.4588 159.317C64.6062 160.403 64.6196 161.677 65.4374 162.508C66.2551 163.339 67.3945 163.339 68.467 163.272C69.9013 163.191 71.3357 163.097 72.7835 163.004C75.4243 162.843 78.0518 162.669 80.6926 162.548C83.3335 162.427 86.162 162.4 88.8832 162.601C90.0629 162.682 91.2292 162.843 92.4088 162.99C93.5885 163.138 94.7548 162.963 95.6127 162.092C97.0337 160.631 96.8058 158.339 96.0149 156.636C95.1435 154.759 93.5081 153.352 91.7788 152.266C89.8886 151.086 87.784 150.322 85.8268 149.263C83.9903 148.271 82.0599 146.984 81.3227 144.92C80.7462 143.311 78.159 144.008 78.7354 145.63C80.0358 149.236 83.3871 151.14 86.6982 152.668C88.3336 153.419 90.0093 154.17 91.4437 155.269C92.6099 156.154 93.8566 157.494 93.9773 159.022C94.0041 159.465 93.9773 160.108 93.5349 160.336C93.1863 160.51 92.5429 160.323 92.1809 160.269C91.5241 160.175 90.8672 160.095 90.197 160.028C87.8108 159.786 85.3979 159.746 82.9983 159.786C78.2126 159.88 73.4269 160.269 68.6546 160.564C68.3865 160.577 67.542 160.738 67.3543 160.591C67.2069 160.483 67.1801 159.505 67.1532 159.29C66.979 157.977 66.8181 156.676 66.6841 155.363C66.3891 152.628 66.1747 149.88 66.0138 147.132C65.92 145.416 63.2389 145.402 63.3327 147.132L63.3193 147.159Z" fill="black"/>
<path d="M39.9004 34.0171C45.0748 32.9044 50.2627 36.1083 53.0108 40.3578C56.2951 45.4384 56.8849 51.6585 56.9251 57.5702C56.952 61.0288 56.8045 64.4739 56.8983 67.9325C56.9385 69.5143 56.9654 71.1632 57.3407 72.7182C57.716 74.2732 58.574 75.5333 59.7268 76.5923C64.2042 80.7212 70.2232 82.7588 74.5531 87.0887C76.5371 89.0727 78.2262 91.6197 78.4407 94.4884C78.6283 96.9684 77.891 99.7165 75.773 101.231C75.1832 101.647 74.9016 102.398 75.2904 103.068C75.6255 103.644 76.5371 103.966 77.1269 103.55C81.8456 100.186 82.0869 93.5769 79.3388 88.8716C76.0277 83.228 69.9015 80.4799 64.6734 76.9945C63.3597 76.1231 61.9923 75.1982 60.9333 74.0051C59.8743 72.812 59.7402 71.257 59.6598 69.7422C59.4453 66.0155 59.6062 62.2889 59.6062 58.5622C59.6062 52.1008 59.07 45.2909 55.6918 39.6071C52.3137 33.9232 45.839 30.0089 39.1899 31.4433C37.5009 31.8052 38.2113 34.3924 39.9004 34.0305V34.0171Z" fill="black"/>
<path d="M49.6728 81.5651C52.3538 84.836 55.3968 87.7851 58.7213 90.3857C59.2978 90.8281 60.0619 90.9488 60.6115 90.3857C61.0807 89.9166 61.1879 88.938 60.6115 88.4956C57.2736 85.895 54.244 82.9458 51.5629 79.6749C51.1071 79.1119 50.1419 79.1923 49.6728 79.6749C49.1231 80.2245 49.217 81.0154 49.6728 81.5651Z" fill="black"/>
<path d="M47.4341 71.9401C50.6111 70.4253 54.1233 69.688 57.6355 69.7283C59.3648 69.7417 59.3648 67.0606 57.6355 67.0472C53.6273 67.007 49.6996 67.9051 46.0802 69.621C45.4233 69.9293 45.2624 70.8677 45.5976 71.4575C45.9863 72.1278 46.7772 72.2484 47.4341 71.9401Z" fill="black"/>
<path d="M49.2036 81.4177C50.1822 83.8977 51.1608 86.3777 52.126 88.8711C52.3807 89.528 53.0376 90.0508 53.7749 89.8095C54.4049 89.6084 54.9813 88.8577 54.7132 88.1606C53.7346 85.6806 52.7561 83.2007 51.7909 80.7073C51.5362 80.0504 50.8793 79.5276 50.142 79.7689C49.512 79.97 48.9355 80.7207 49.2036 81.4177Z" fill="black"/>
<path d="M21.589 91.0033L49.0832 91.1106C50.8125 91.1106 50.8125 88.4429 49.0832 88.4295L21.589 88.3223C19.8597 88.3223 19.8597 90.9899 21.589 91.0033Z" fill="black"/>
<path d="M4.69825 95.883C3.39793 106.661 2.5534 117.479 2.15124 128.324C1.96357 133.632 1.86973 138.954 1.89654 144.263C1.89654 145.456 1.65524 147.024 2.25848 148.097C2.86172 149.169 4.12182 149.303 5.22106 149.37C7.8485 149.518 10.4893 149.652 13.1168 149.786C14.6048 149.866 16.0928 149.987 17.5807 150.014C18.8274 150.04 20.1278 149.92 21.2404 149.33C23.3316 148.217 24.203 145.402 22.5675 143.539C21.4281 142.239 19.5379 144.142 20.6774 145.429C20.9857 145.777 20.6103 146.421 20.3556 146.676C19.739 147.306 18.68 147.319 17.8623 147.319C15.6236 147.319 13.3715 147.105 11.1328 146.984C9.97994 146.917 8.82708 146.863 7.67423 146.796C7.12461 146.769 6.57499 146.743 6.02537 146.702C5.75727 146.689 5.47576 146.676 5.20765 146.662C5.12722 146.662 4.60441 146.555 4.49717 146.595L4.38993 146.568C4.5776 146.863 4.64463 146.85 4.59101 146.568C4.68484 146.381 4.59101 145.791 4.59101 145.576C4.59101 145.027 4.59101 144.464 4.59101 143.914C4.59101 142.694 4.59101 141.474 4.59101 140.255C4.64463 130.79 5.03338 121.326 5.78408 111.889C6.19964 106.54 6.73586 101.191 7.37931 95.8562C7.45974 95.1323 6.69564 94.5156 6.03878 94.5156C5.24787 94.5156 4.77868 95.1323 4.69825 95.8562V95.883Z" fill="black"/>
<path d="M20.2348 148.284C20.342 153.311 20.9989 158.324 22.1785 163.204L23.4654 161.501C17.3928 161.689 11.3202 161.501 5.27443 160.912C4.51033 160.831 3.73282 160.764 2.96872 160.67C2.76764 160.644 2.64699 160.63 2.47272 160.59C2.64699 160.912 2.71402 160.912 2.6738 160.603C2.6738 160.496 2.68721 160.389 2.70061 160.282C2.84807 158.834 3.08937 157.373 3.29045 155.925C3.70601 152.868 4.12158 149.812 4.53714 146.756C4.63098 146.045 4.36287 145.321 3.59877 145.107C2.96872 144.933 2.04375 145.321 1.94992 146.045C1.49414 149.423 1.03836 152.815 0.569171 156.193C0.448524 157.064 0.327876 157.936 0.220633 158.807C0.126796 159.544 -0.0608779 160.295 0.0195539 161.046C0.180418 162.708 1.52095 163.177 2.98213 163.351C9.77862 164.142 16.6421 164.397 23.4788 164.183C24.3636 164.156 24.9802 163.351 24.7657 162.48C23.6397 157.815 23.0231 153.07 22.9158 148.27C22.8756 146.541 20.1945 146.541 20.2348 148.27V148.284Z" fill="black"/>
<mask id="mask0_136_1400" style="mask-type:alpha" maskUnits="userSpaceOnUse" x="-1" y="0" width="99" height="165">
<path d="M81 90.5L75 83L60.5 73V60.5L56 39L48.5 24.5L46.5 0.5H24.5L20.5 13L22.5 27.5L20.5 29L4 34.5L-1 56L4 95.5L-1 164H4L64.5 165L93.5 164L96.5 161L98 158L91 151.5L81 146L79 118.5V102L81 95.5V90.5Z" fill="#D9D9D9"/>
</mask>
<g mask="url(#mask0_136_1400)">
<rect x="-522.092" y="44.2383" width="815.042" height="130.031" fill="url(#paint0_linear_136_1400)"/>
</g>
</g>
<defs>
<linearGradient id="paint0_linear_136_1400" x1="-114.571" y1="174.27" x2="-114.571" y2="44.2383" gradientUnits="userSpaceOnUse">
<stop stop-color="#191817"/>
<stop offset="1" stop-color="#191817" stop-opacity="0"/>
</linearGradient>
<clipPath id="clip0_136_1400">
<rect width="96.6446" height="164.255" fill="white"/>
</clipPath>
</defs>
</svg>
