<svg width="131" height="127" viewBox="0 0 131 127" fill="none" xmlns="http://www.w3.org/2000/svg">
<path d="M128.329 28.339C127.789 27.619 127.009 27.189 126.319 26.639C126.129 26.489 125.939 26.319 125.759 26.149C125.539 25.939 125.429 25.909 125.569 25.629C125.689 25.389 125.909 25.189 126.159 25.029C126.319 24.919 126.479 24.819 126.659 24.739C126.829 24.649 126.899 24.519 126.909 24.379C126.989 24.289 127.059 24.199 127.109 24.089C127.439 23.309 126.789 22.819 126.109 22.639C126.009 22.609 125.909 22.599 125.809 22.579C125.489 22.419 125.129 22.379 124.789 22.449C124.669 22.449 124.549 22.449 124.429 22.449C124.139 22.379 123.849 22.399 123.559 22.509C122.499 22.639 121.439 22.929 120.539 23.289C120.399 23.339 120.309 23.429 120.249 23.529C120.169 23.559 120.089 23.579 120.019 23.629C119.679 23.699 119.329 23.749 118.989 23.809C118.529 23.889 118.059 23.979 117.599 24.059C117.409 24.099 117.209 24.209 117.039 24.359C116.749 24.379 116.459 24.389 116.169 24.419C116.119 24.419 116.079 24.439 116.039 24.449C115.869 24.359 115.669 24.299 115.439 24.269C106.459 23.369 97.4592 22.479 88.4392 22.519H88.3392C88.4092 22.199 88.3992 21.869 88.2792 21.539C88.1492 21.199 87.8192 21.109 87.5292 21.279C87.4392 21.279 87.3592 21.319 87.2892 21.369C87.1492 21.329 86.9992 21.299 86.8292 21.289C86.3992 21.279 85.9792 21.289 85.5492 21.289C83.1092 21.119 80.6692 20.959 78.2292 20.789C77.4892 20.679 76.7592 20.569 76.0192 20.459C76.0092 20.459 75.9992 20.459 75.9892 20.459C74.7992 20.189 73.5992 19.929 72.3992 19.699C73.1092 16.249 72.6392 11.829 72.3992 9.75898C72.1792 7.93898 71.9492 5.90898 71.0892 4.24898C71.0892 4.10898 71.0792 3.96898 71.0392 3.82898C71.0392 3.82898 71.0392 3.82898 71.0392 3.81898C71.0292 3.65898 71.0092 3.48898 70.9692 3.32898C70.9492 3.23898 70.9292 3.15898 70.8892 3.07898C70.8092 2.88898 70.7392 2.67898 70.6292 2.50898C70.5192 2.33898 70.3892 2.16898 70.2492 2.01898C70.1092 1.86898 69.9192 1.73898 69.7592 1.61898C69.6892 1.56898 69.6192 1.52898 69.5392 1.48898C69.3492 1.40898 69.1492 1.29898 68.9392 1.25898C68.8092 1.23898 68.6692 1.21898 68.5392 1.20898C68.3292 1.20898 68.1392 1.24898 67.9592 1.33898C67.9192 1.34898 67.8892 1.38898 67.8492 1.39898C67.7792 1.37898 67.7192 1.35898 67.6492 1.33898C66.9392 0.878979 66.0192 0.698979 64.9492 0.998979C63.9992 1.26898 63.0592 1.52898 62.1092 1.79898C61.3092 1.91898 60.5292 2.13898 59.7292 2.46898C59.4392 2.58898 59.1892 2.73898 58.9492 2.90898C58.8392 2.94898 58.7292 2.97898 58.6192 3.02898C55.4592 4.38898 55.8692 8.60898 56.0792 11.419C56.1492 12.369 56.2592 13.309 56.3892 14.249C55.7892 16.199 56.3892 18.569 57.6492 20.479C57.6892 20.659 57.7192 20.829 57.7692 21.009C56.1792 21.899 54.5992 22.789 53.0092 23.679C52.8192 23.789 52.6592 23.919 52.5292 24.069C52.0392 24.239 51.5592 24.419 51.0792 24.579C49.9592 24.949 48.8392 25.299 47.7092 25.639C47.5192 25.679 47.3392 25.719 47.1492 25.769C45.7792 26.069 44.4192 26.459 43.0992 26.949C42.6092 27.129 42.2692 27.439 42.0392 27.789C40.2592 28.539 38.5392 29.439 36.9092 30.489C36.7392 30.599 36.6092 30.719 36.4892 30.839C34.2892 31.949 32.1892 33.249 30.2792 34.889C30.0492 35.089 29.8992 35.339 29.8092 35.619C28.5692 36.049 27.3292 36.469 26.0792 36.899C23.5392 37.519 20.9792 38.019 18.3892 38.389C15.6492 38.779 12.7092 38.719 9.96924 39.299C9.05924 38.789 8.04924 38.489 7.01924 38.319C6.42924 38.219 5.81924 38.139 5.21924 38.069C5.08924 38.059 4.94924 38.049 4.81924 38.059C4.65924 38.039 4.49924 38.019 4.33924 38.009C3.77924 37.969 3.34924 38.539 3.33924 39.069C3.27924 39.319 3.28924 39.579 3.42924 39.789C3.77924 40.299 4.12924 40.809 4.47924 41.319C4.53924 41.739 4.50924 42.169 4.39924 42.599C4.32924 42.639 4.25924 42.679 4.20924 42.739C3.79924 43.209 3.39924 43.689 3.00924 44.169C2.60924 44.669 2.14924 45.169 1.93924 45.779C1.50924 47.009 2.37924 48.239 3.60924 48.499C4.61924 48.709 5.80924 48.529 6.78924 48.219C7.26924 48.069 7.70924 47.859 8.11924 47.589C9.13924 47.229 10.0792 46.679 10.9892 46.089C11.0292 46.069 11.0692 46.049 11.1092 46.029C12.4092 45.809 13.6992 45.579 14.9992 45.359C16.3292 45.299 17.6592 45.329 18.9592 45.299C21.9692 45.219 24.9692 45.079 27.9592 44.679C28.0692 44.669 28.1692 44.649 28.2792 44.629C28.5192 44.719 28.7892 44.749 29.0892 44.699C30.8292 44.399 32.5392 43.959 34.2092 43.409C35.0292 43.259 35.7992 43.019 36.5392 42.689C37.3492 42.389 38.1292 42.019 38.8892 41.599C39.7892 41.169 40.6692 40.689 41.5192 40.149C42.2292 40.779 42.9892 41.389 43.8392 41.579C44.5992 41.759 45.4092 41.489 45.9692 40.969C46.6392 40.719 47.3192 40.459 47.9892 40.209C48.1892 40.239 48.3992 40.239 48.6292 40.209C48.8292 40.179 49.0192 40.119 49.2092 40.059C49.2792 40.099 49.3392 40.139 49.4192 40.179C49.6992 40.299 49.9692 40.399 50.2292 40.489C50.1992 40.779 50.2192 41.079 50.3092 41.369C50.9092 43.189 51.3592 45.049 51.6992 46.929C51.8592 49.239 51.8892 51.549 51.7592 53.849C50.9392 56.889 50.1292 59.939 49.3092 62.979C49.3092 62.979 49.3092 62.979 49.3092 62.989C44.3092 65.229 41.0992 70.199 39.9992 75.519C39.0592 80.099 39.6092 84.679 40.4792 89.219C40.0592 97.399 40.3692 105.539 41.3392 113.689C40.2392 115.339 39.4092 117.129 38.8892 119.029C38.3792 120.319 37.9192 121.629 37.5592 122.969C37.3892 123.589 37.8692 124.249 38.5192 124.239C40.1392 124.209 41.7592 124.189 43.3792 124.159C44.9992 124.129 46.7692 124.309 48.3692 124.069C48.4392 124.059 48.4892 124.029 48.5592 124.019C48.6792 124.659 49.3492 124.819 49.8692 124.639C50.5092 124.889 51.3692 124.359 51.2292 123.459L50.8592 121.089C50.8692 120.709 50.7992 120.319 50.6792 119.949C50.6792 119.909 50.6692 119.869 50.6592 119.829C50.6592 119.829 50.6492 119.829 50.6392 119.829C50.6092 119.749 50.5892 119.659 50.5592 119.579C50.4892 119.439 50.4092 119.329 50.3192 119.249C50.2492 116.999 50.2392 114.749 50.2892 112.499C50.3792 111.659 50.4792 110.819 50.5692 109.989C51.4192 105.729 52.5792 101.489 53.0492 97.159C53.1492 96.199 52.8492 95.479 52.3392 94.999C52.4492 93.059 52.5492 91.109 52.6592 89.169C52.9692 87.399 53.3092 85.629 53.7092 83.869C54.1592 83.399 54.6292 82.939 55.0892 82.489C56.2392 81.699 57.3892 80.899 58.5092 80.089C60.4092 79.009 62.3992 78.109 64.4492 77.339C65.7992 77.279 67.1592 77.229 68.5092 77.169C71.7092 77.389 75.2692 77.399 78.5592 78.049C78.9992 78.709 79.4092 79.379 79.8192 80.049C80.3092 81.769 80.6992 83.499 81.0192 85.239C80.8292 90.669 80.7092 96.099 80.6792 101.529C80.1992 105.629 79.9492 109.759 79.9292 113.899C79.9292 113.909 79.9092 113.919 79.9092 113.939C79.8092 114.589 79.7092 115.239 79.5992 115.889C79.5792 115.929 79.5492 115.959 79.5392 116.009C79.2292 116.809 79.1092 117.689 79.1892 118.539C79.1892 118.579 79.2092 118.609 79.2092 118.639C79.1592 119.069 79.0992 119.509 79.0492 119.939C78.9792 120.519 78.9092 121.099 78.8392 121.679C78.7792 122.199 78.6592 122.739 78.7292 123.259C78.8792 124.329 80.0092 124.859 80.8592 124.329C80.8592 124.329 80.8792 124.329 80.8892 124.329C82.9792 124.559 85.0692 124.589 87.1592 124.439C87.2192 124.449 87.2692 124.479 87.3392 124.479C88.4992 124.539 89.6492 124.679 90.7892 124.909C91.1492 124.979 91.4692 124.879 91.6992 124.679C92.0092 124.549 92.2392 124.269 92.2292 123.799C92.1392 119.619 91.6292 115.449 90.7392 111.359C91.7992 102.839 92.7192 94.309 92.8492 85.749C92.9492 85.569 93.0292 85.379 93.0692 85.139C93.6792 81.219 93.8692 77.279 93.5292 73.339C93.5592 72.929 93.5692 72.529 93.5592 72.119C93.9692 71.689 94.1692 71.069 93.8992 70.329C93.5692 69.409 93.0992 68.629 92.4892 67.989C92.3292 67.769 92.1492 67.599 91.9392 67.479C91.4992 67.119 91.0092 66.809 90.4592 66.569C90.3592 66.449 90.2392 66.339 90.0992 66.239C89.6792 65.929 89.2392 65.629 88.8092 65.339C86.8792 63.889 84.6192 62.809 82.4392 61.839C82.3992 61.819 82.3692 61.809 82.3292 61.799C81.4792 60.989 80.6392 60.189 79.7892 59.379C79.6492 59.249 79.4992 59.139 79.3592 59.059C78.9092 56.899 78.6192 54.729 78.4792 52.539C78.5592 51.149 78.6692 49.759 78.8192 48.369C79.3892 44.209 80.4692 40.139 82.0392 36.209C83.7192 36.049 85.4092 35.889 87.0892 35.729C87.9792 35.649 88.4792 35.099 88.5892 34.229C88.6792 33.499 88.7692 32.769 88.8592 32.029C90.1192 31.929 91.3692 31.759 92.6092 31.529C92.7792 31.549 92.9592 31.559 93.1592 31.529C95.4092 31.149 97.6492 30.779 99.8992 30.399C105.239 30.599 110.579 30.679 115.919 30.629C116.559 30.629 116.979 30.299 117.199 29.869C117.279 29.899 117.349 29.929 117.439 29.959C117.649 30.009 117.849 30.079 118.059 30.139C118.709 30.569 119.479 30.829 120.189 31.119C121.339 31.599 122.499 32.069 123.649 32.549C125.069 33.129 126.819 33.729 128.149 32.949C128.259 32.949 128.359 32.899 128.459 32.799C128.549 32.699 128.629 32.599 128.719 32.509C128.749 32.479 128.769 32.449 128.799 32.419C128.839 32.369 128.879 32.329 128.919 32.279C128.919 32.279 128.979 32.209 128.999 32.179C129.139 31.989 129.089 31.789 128.959 31.639C129.229 30.509 129.029 29.269 128.319 28.319L128.329 28.339ZM85.3092 121.799C85.3092 121.799 85.3792 121.889 85.4192 121.939C85.3292 121.939 85.2392 121.939 85.1492 121.939C85.2092 121.889 85.2592 121.849 85.3192 121.789L85.3092 121.799ZM43.5892 119.029C43.5092 119.209 43.4292 119.389 43.3692 119.569C43.3292 119.619 43.2892 119.659 43.2592 119.709C43.3692 119.479 43.4892 119.259 43.5992 119.029H43.5892Z" fill="#673B82"/>
<path d="M58.8592 1.75897C56.3992 2.60897 55.3492 4.99897 55.0892 7.41897C54.8192 9.95897 54.9492 12.649 55.2792 15.179C55.8792 19.799 57.6192 25.859 63.0192 26.579C65.1292 26.859 67.3592 26.299 69.0892 25.059C71.0592 23.649 72.2292 21.599 72.6992 19.239C73.2092 16.689 73.2092 13.979 73.1492 11.379C73.0892 8.77897 72.8992 5.91897 72.0792 3.39897C71.6592 2.11897 70.8892 1.06897 69.6192 0.528966C68.4492 0.0189658 67.1492 -0.0410342 65.8992 0.0189658C62.9092 0.148966 59.9992 0.898966 57.2892 2.15897C56.7992 2.38897 56.6792 3.08897 56.9292 3.52897C57.2192 4.02897 57.8092 4.11897 58.2992 3.88897C60.3292 2.94897 62.5392 2.31897 64.7592 2.10897C66.2992 1.95897 68.8092 1.64897 69.7992 3.18897C70.3492 4.04897 70.4892 5.23897 70.6692 6.22897C70.8692 7.34897 70.9892 8.47897 71.0592 9.60897C71.2092 11.939 71.1792 14.289 71.0192 16.619C70.8792 18.589 70.5192 20.749 69.1792 22.299C68.0792 23.569 66.4992 24.429 64.8292 24.629C62.9492 24.849 61.0792 24.239 59.8992 22.709C58.6092 21.029 57.9492 18.839 57.5292 16.799C57.0292 14.399 56.9292 11.929 56.9692 9.48897C56.9992 7.50897 57.0792 4.48897 59.3592 3.69897C60.5692 3.27897 60.0492 1.34897 58.8292 1.76897L58.8592 1.75897Z" fill="#191817"/>
<path d="M57.2792 15.0392L58.4692 11.7592C58.8192 10.7892 59.1092 9.74924 59.5592 8.81924C59.6692 8.58924 59.8392 8.18924 60.0892 8.06924C60.3392 7.93924 60.7092 8.19924 60.9592 8.29924C61.8692 8.64924 62.8892 8.68924 63.8292 8.45924C64.2792 8.34924 64.7192 8.15924 65.1192 7.93924C65.4892 7.72924 65.8892 7.35924 66.3392 7.31924C67.1392 7.23924 67.8792 8.15924 68.3492 8.68924C69.6292 10.1492 70.5492 11.8992 71.0992 13.7492C71.4692 14.9792 73.3992 14.4592 73.0292 13.2192C72.5092 11.4892 71.7192 9.83924 70.6392 8.37924C69.6392 7.02924 68.2892 5.34924 66.4492 5.32924C65.5092 5.31924 64.7992 5.83924 64.0192 6.26924C63.2792 6.67924 62.3992 6.70924 61.6092 6.42924C60.7792 6.12924 60.0492 5.84924 59.1992 6.28924C58.5292 6.62924 58.0592 7.30924 57.7592 7.97924C56.7992 10.0792 56.1392 12.3592 55.3492 14.5292C54.9092 15.7392 56.8392 16.2592 57.2792 15.0592V15.0392Z" fill="#191817"/>
<path d="M55.5492 14.0787C55.7492 16.2787 56.6392 18.5687 58.2992 20.0887C59.1992 20.9087 60.3392 21.1187 61.4492 20.6187C61.9392 20.3987 62.3792 20.0787 62.7492 19.6987C63.0692 19.3687 63.3192 18.9687 63.6692 18.6587C64.4292 17.9987 65.5292 18.7887 66.2492 19.1587C67.3392 19.7087 68.5692 20.1387 69.7492 19.6087C71.6792 18.7587 72.9192 16.3287 73.2792 14.3487C73.3692 13.8187 73.1392 13.2687 72.5792 13.1187C72.0992 12.9887 71.4492 13.2787 71.3492 13.8187C71.1992 14.6687 70.9192 15.4587 70.4692 16.1887C70.1092 16.7687 69.4892 17.6887 68.7692 17.8487C67.9392 18.0287 67.0092 17.2687 66.3092 16.9487C65.4292 16.5387 64.4492 16.2387 63.4892 16.5187C62.6092 16.7787 62.0992 17.4187 61.5292 18.0787C61.1092 18.5587 60.4092 19.2187 59.7792 18.7287C58.4492 17.6987 57.6992 15.7087 57.5492 14.0887C57.4992 13.5487 57.1192 13.0887 56.5492 13.0887C56.0492 13.0887 55.4992 13.5487 55.5492 14.0887V14.0787Z" fill="#191817"/>
<path d="M56.7192 20.5286C55.0792 21.9186 53.4692 23.0586 51.3592 23.6286C49.3992 24.1586 47.3592 24.3786 45.4192 25.0086C41.4192 26.3086 37.9692 28.7886 34.6292 31.2686C34.1792 31.5986 33.9992 32.1086 34.2692 32.6386C35.5392 35.0686 37.1692 37.3286 39.0892 39.2886C40.0392 40.2686 41.0792 41.1586 42.1592 41.9886C42.7092 42.4086 43.2392 42.8586 43.9392 42.9786C44.7092 43.1086 45.3692 42.7086 46.0192 42.3586C46.6692 42.0086 47.3192 41.6586 47.9592 41.3086C48.1692 41.1886 48.6492 40.7986 48.9192 40.8086C49.0392 40.8086 49.1092 40.9186 49.1992 41.0886C49.4892 41.6086 49.6192 42.2386 49.7692 42.8086C49.9592 43.5086 50.1292 44.2186 50.2792 44.9286C50.8392 47.7286 50.9792 50.6086 50.7392 53.4586C50.4692 56.6386 49.6692 59.8086 48.3892 62.7386C48.1692 63.2286 48.2392 63.8086 48.7492 64.1086C49.1692 64.3586 49.8992 64.2486 50.1192 63.7486C52.5392 58.1986 53.3692 52.1086 52.4992 46.1186C52.2892 44.6386 51.9692 43.1786 51.5492 41.7586C51.1892 40.5586 50.7192 39.0786 49.3092 38.8386C48.5192 38.6986 47.8392 39.1186 47.1692 39.4786C46.4492 39.8686 45.7292 40.2586 45.0092 40.6486C44.8492 40.7386 44.4692 41.0386 44.2892 41.0386C44.0592 41.0386 43.6992 40.6686 43.5092 40.5286C42.9092 40.0886 42.3392 39.6086 41.7892 39.1086C39.4192 36.9886 37.4792 34.4586 36.0092 31.6486L35.6492 33.0186C39.0092 30.5186 42.5092 27.9386 46.5892 26.7686C48.6092 26.1886 50.7292 25.9986 52.7292 25.3286C54.7292 24.6586 56.4792 23.3686 58.1392 21.9586C59.1192 21.1286 57.6992 19.7186 56.7292 20.5486L56.7192 20.5286Z" fill="#191817"/>
<path d="M72.3192 21.0887C73.3892 20.5587 74.6692 20.8587 75.7792 21.0887C77.1492 21.3787 78.5292 21.6087 79.9292 21.7787C82.7192 22.1287 85.5492 22.1887 88.3492 21.9987L87.3892 21.2687C87.8192 23.6287 87.8992 26.0287 87.8192 28.4187C87.7792 29.6287 87.6992 30.8287 87.5892 32.0287C87.5392 32.5887 87.4892 33.1487 87.4392 33.7087C87.4092 34.0287 87.3792 34.3487 87.3492 34.6687C87.3292 34.8687 87.3592 35.1887 87.2492 35.3487L87.6092 34.9887C87.4292 35.0987 86.4892 34.9987 86.1592 35.0087C85.6192 35.0187 85.0892 35.0287 84.5492 35.0387C83.4392 35.0587 82.3292 35.0887 81.2092 35.1087C79.9192 35.1387 79.9192 37.1387 81.2092 37.1087C83.2692 37.0687 85.3292 37.0387 87.3892 36.9787C88.3192 36.9487 89.0792 36.6587 89.2392 35.6487C89.3992 34.6387 89.4492 33.6287 89.5392 32.6187C89.8992 28.6487 90.0292 24.6687 89.3192 20.7287C89.2492 20.3287 88.7592 19.9687 88.3592 19.9987C85.3992 20.1987 82.4192 20.1287 79.4792 19.7187C78.0992 19.5287 76.7392 19.1987 75.3592 18.9687C73.9792 18.7387 72.6092 18.7087 71.3092 19.3587C70.1592 19.9287 71.1692 21.6587 72.3192 21.0887Z" fill="#191817"/>
<path d="M81.2091 35.2086C77.9291 40.1286 77.5991 46.2486 77.7891 51.9886C77.8791 54.7586 77.6591 58.0486 79.4191 60.3786C80.9691 62.4286 83.4091 63.3786 85.6591 64.4286C88.5291 65.7786 90.9891 67.7086 92.7591 70.3686C93.4691 71.4386 95.1991 70.4386 94.4891 69.3586C92.9391 67.0386 90.8991 65.0586 88.4891 63.6486C86.4091 62.4286 83.9591 61.7686 82.0591 60.2486C81.1291 59.4986 80.4891 58.5586 80.1991 57.3886C79.8691 56.0486 79.8991 54.6086 79.8391 53.2386C79.7191 50.4186 79.6691 47.5886 79.9991 44.7786C80.3491 41.7486 81.2391 38.7886 82.9391 36.2286C83.6591 35.1586 81.9191 34.1486 81.2091 35.2186V35.2086Z" fill="#191817"/>
<path d="M88.6992 23.2894C98.2692 24.1594 107.849 24.8594 117.449 25.3994C118.739 25.4694 118.729 23.4694 117.449 23.3994C107.859 22.8594 98.2692 22.1494 88.6992 21.2894C88.1592 21.2394 87.6992 21.7794 87.6992 22.2894C87.6992 22.8694 88.1592 23.2394 88.6992 23.2894Z" fill="#191817"/>
<path d="M89.1692 33.0289C91.5092 33.1489 93.8092 32.6289 96.0792 32.1089C98.3492 31.5889 100.539 31.1789 102.859 31.3389C105.299 31.4989 107.719 31.8289 110.169 31.8089C112.619 31.7889 115.209 31.5489 117.689 31.1189C118.219 31.0289 118.519 30.3689 118.389 29.8889C118.239 29.3289 117.689 29.0989 117.159 29.1889C114.769 29.6089 112.349 29.8089 109.929 29.8089C107.509 29.8089 105.059 29.4589 102.619 29.3189C100.179 29.1789 98.0292 29.6189 95.7692 30.1289C93.5092 30.6389 91.4192 31.1389 89.1692 31.0289C87.8792 30.9689 87.8892 32.9689 89.1692 33.0289Z" fill="#191817"/>
<path d="M118.419 25.1293C120.439 24.1993 122.669 23.6193 124.889 23.4893C125.249 23.4693 125.789 23.3993 126.099 23.6193C126.179 23.6793 126.279 23.7593 126.279 23.8693C126.279 23.8593 126.299 23.8393 126.179 23.8993C125.259 24.3593 124.419 25.2693 124.799 26.3693C125.109 27.2793 126.259 27.6393 126.879 28.3193C127.499 28.9993 127.869 29.8093 128.009 30.6793C128.129 31.4493 128.069 32.3593 127.149 32.4893C126.299 32.5993 125.359 32.2193 124.559 31.9693C122.139 31.1993 119.829 30.1693 117.629 28.9193C116.509 28.2793 115.499 30.0093 116.619 30.6493C118.999 31.9993 121.519 33.1093 124.129 33.9393C125.249 34.2893 126.409 34.6293 127.599 34.4393C128.789 34.2493 129.709 33.3493 129.959 32.1693C130.469 29.7693 129.039 27.1893 127.069 25.8893C127.019 25.8493 126.849 25.7193 126.769 25.6993L126.619 25.6093C126.559 25.9993 126.579 26.1193 126.679 25.9893C126.759 25.9893 127.099 25.7093 127.189 25.6493C127.759 25.2793 128.199 24.7693 128.259 24.0693C128.369 22.8593 127.409 21.8293 126.269 21.5893C124.859 21.2893 123.239 21.6293 121.849 21.9193C120.309 22.2393 118.829 22.7693 117.409 23.4193C116.919 23.6493 116.799 24.3593 117.049 24.7893C117.339 25.2893 117.929 25.3693 118.419 25.1493V25.1293Z" fill="#191817"/>
<path d="M35.0391 31.7288C33.0391 32.3388 31.3491 33.5188 29.5591 34.5588C27.6691 35.6588 25.6191 36.4088 23.4991 36.9188C21.3791 37.4288 19.2291 37.6588 17.0591 37.7988C14.7791 37.9388 12.4791 38.0388 10.2691 38.6788C9.03907 39.0388 9.55907 40.9688 10.7991 40.6088C12.9591 39.9888 15.1791 39.9188 17.4091 39.7788C19.6391 39.6388 21.8591 39.3688 24.0391 38.8488C26.2191 38.3288 28.2191 37.5988 30.1191 36.5488C31.9191 35.5588 33.5891 34.2688 35.5791 33.6588C36.8091 33.2888 36.2791 31.3488 35.0491 31.7288H35.0391Z" fill="#191817"/>
<path d="M11.5192 46.8786C19.5392 45.5686 27.8992 46.9385 35.7092 44.2585C37.7292 43.5685 39.6492 42.6185 41.3692 41.3485C41.7992 41.0285 42.0192 40.4785 41.7292 39.9785C41.4792 39.5485 40.7992 39.2985 40.3592 39.6185C33.9992 44.3185 25.7492 43.9785 18.2392 44.2685C15.8092 44.3685 13.3892 44.5485 10.9892 44.9385C10.4592 45.0285 10.1592 45.6885 10.2892 46.1685C10.4492 46.7385 10.9892 46.9585 11.5192 46.8685V46.8786Z" fill="#191817"/>
<path d="M10.1792 38.3993C9.21918 37.8793 8.18918 37.4693 7.11918 37.2393C6.04918 37.0093 4.91918 36.8093 3.90918 37.1993C2.95918 37.5593 2.24918 38.4793 2.36918 39.5293C2.42918 40.0293 2.66918 40.4393 2.97918 40.8193C3.16918 41.0593 3.48918 41.2993 3.56918 41.5993C3.74918 42.2993 2.83918 43.0493 2.41918 43.4893C1.72918 44.2093 1.11918 44.9893 0.999177 46.0093C0.769177 48.0393 2.72918 49.4993 4.57918 49.5993C5.80918 49.6693 6.98918 49.2093 8.08918 48.7293C9.26918 48.2193 10.4492 47.6893 11.6192 47.1593C12.1092 46.9393 12.2292 46.2193 11.9792 45.7893C11.6792 45.2793 11.1092 45.2093 10.6092 45.4293C9.75918 45.8093 8.90918 46.1793 8.05918 46.5593C7.28918 46.8993 6.51918 47.2593 5.69918 47.4693C5.05918 47.6293 4.36918 47.6793 3.76918 47.3593C3.33918 47.1293 2.88918 46.6893 2.96918 46.1593C3.05918 45.5893 3.60918 45.1193 3.98918 44.7293C4.57918 44.1293 5.10918 43.4893 5.39918 42.6793C5.68918 41.8693 5.61918 41.0493 5.16918 40.3593C5.02918 40.1493 4.24918 39.4493 4.36918 39.2193C4.62918 38.6993 5.96918 39.0393 6.37918 39.1293C7.34918 39.3293 8.26918 39.6593 9.14918 40.1293C10.2792 40.7393 11.2892 39.0093 10.1592 38.3993H10.1792Z" fill="#191817"/>
<path d="M56.6991 82.1392C58.9591 79.5792 62.0991 78.0092 65.5091 77.7792C69.4891 77.5092 73.4192 78.5692 77.3992 78.3992C78.6792 78.3392 78.6892 76.3392 77.3992 76.3992C73.1892 76.5792 69.0191 75.3792 64.8091 75.8392C61.1391 76.2492 57.7391 77.9492 55.2891 80.7192C54.4391 81.6792 55.8491 83.0992 56.6991 82.1292V82.1392Z" fill="#191817"/>
<path d="M50.2592 61.6591C57.5192 65.4791 66.3492 66.0491 74.0792 63.2991C76.2592 62.5291 78.3492 61.4991 80.2792 60.2291C81.3492 59.5291 80.3492 57.7891 79.2692 58.4991C72.8792 62.7091 64.7792 64.0291 57.3492 62.2091C55.2392 61.6891 53.1992 60.9291 51.2692 59.9191C50.1292 59.3191 49.1192 61.0491 50.2592 61.6491V61.6591Z" fill="#191817"/>
<path d="M76.6092 78.1893C79.1192 79.0093 80.0892 81.8593 80.2392 84.2593C80.3392 85.9093 80.1992 87.5693 80.1092 89.2193C80.0192 90.8693 79.9192 92.5293 79.8292 94.1793C79.6392 97.5693 79.4492 100.959 79.2592 104.349C79.1692 105.999 79.0692 107.659 78.9792 109.309C78.9092 110.599 78.5292 112.619 80.1092 113.189C80.8692 113.459 81.7992 113.279 82.5892 113.239C83.5792 113.189 84.5692 113.139 85.5592 113.089C87.4592 112.989 89.3492 112.889 91.2492 112.799C92.5292 112.729 92.5392 110.729 91.2492 110.799C87.8692 110.969 84.4892 111.189 81.1092 111.319C81.0292 111.319 80.8892 111.349 80.8192 111.319C80.9992 111.379 80.9192 111.439 80.9092 111.289C80.8892 110.999 80.9092 110.709 80.9292 110.419C80.9792 109.549 81.0292 108.679 81.0792 107.819C81.1692 106.169 81.2692 104.509 81.3592 102.859C81.5492 99.4693 81.7392 96.0793 81.9292 92.6893C82.0192 91.0393 82.1192 89.3893 82.2092 87.7493C82.2992 86.1893 82.3492 84.6293 82.1392 83.0693C81.7292 80.1193 80.1292 77.2293 77.1592 76.2593C75.9292 75.8593 75.4092 77.7893 76.6292 78.1893H76.6092Z" fill="#191817"/>
<path d="M92.0291 112.019C92.8891 100.729 93.7491 89.4294 94.6191 78.1394C94.7391 76.5794 94.8591 75.0294 94.9791 73.4694C95.0791 72.0494 95.0991 70.5994 94.5991 69.2494C94.4091 68.7394 93.9191 68.3994 93.3691 68.5494C92.8791 68.6794 92.4791 69.2693 92.6691 69.7793C93.0991 70.9393 93.0791 72.1394 92.9891 73.3594C92.8891 74.7494 92.7791 76.1293 92.6691 77.5193C92.4591 80.2893 92.2491 83.0594 92.0391 85.8294C91.6091 91.4094 91.1891 96.9994 90.7591 102.579L90.0391 112.009C89.9391 113.289 91.9391 113.289 92.0391 112.009L92.0291 112.019Z" fill="#191817"/>
<path d="M89.8192 112.449C90.6192 116.619 91.0892 120.839 91.2292 125.079L92.2292 124.079C87.7992 123.789 83.3592 123.499 78.9292 123.199L79.9292 124.199C79.9392 122.209 80.0592 120.219 80.2892 118.249C80.3992 117.289 80.5392 116.339 80.7092 115.379C80.7892 114.899 80.8792 114.419 80.9792 113.939C81.0492 113.609 81.1192 112.869 81.2592 112.659L80.6592 113.119L80.7592 113.089L79.7892 112.829L79.8392 112.869L79.5492 112.159V112.229C79.5892 112.059 79.6292 111.889 79.6792 111.729L79.6392 111.779L81.0092 111.419L80.9692 111.399C79.8592 110.739 78.8592 112.469 79.9592 113.129L79.9992 113.149C80.4992 113.449 81.0492 113.219 81.3692 112.789C81.7092 112.329 81.5492 111.659 81.1092 111.339C80.5592 110.939 79.7992 111.169 79.4792 111.749C79.1792 112.289 79.1292 113.049 79.0092 113.649C78.8692 114.369 78.7392 115.089 78.6292 115.809C78.1992 118.589 77.9592 121.389 77.9392 124.199C77.9392 124.769 78.3992 125.159 78.9392 125.199C83.3692 125.489 87.8092 125.779 92.2392 126.079C92.7692 126.109 93.2592 125.589 93.2392 125.079C93.0892 120.659 92.5892 116.259 91.7592 111.909C91.5192 110.649 89.5892 111.179 89.8292 112.439L89.8192 112.449Z" fill="#191817"/>
<path d="M55.1392 80.1587C51.2092 84.6687 51.8392 90.7887 51.7092 96.3387C51.6392 99.5087 50.9292 102.539 50.3292 105.629C49.7292 108.719 49.4392 111.629 49.4192 114.659C49.4092 118.159 49.7892 121.659 50.5392 125.079L51.4992 123.809C46.7692 123.309 42.0092 123.159 37.2592 123.359L38.2192 124.629C38.8992 120.469 40.5592 116.489 43.1492 113.149C43.4792 112.719 43.5692 112.149 43.1492 111.739C42.8092 111.399 42.0692 111.309 41.7392 111.739C38.9392 115.359 37.0292 119.579 36.2992 124.099C36.1992 124.709 36.5592 125.399 37.2592 125.369C42.0092 125.169 46.7692 125.319 51.4992 125.819C52.1892 125.889 52.5892 125.129 52.4592 124.549C51.2192 118.839 51.0592 112.869 52.0692 107.109C52.5892 104.169 53.3692 101.279 53.5992 98.2887C53.8292 95.2987 53.5692 92.2787 53.7992 89.2687C54.0092 86.5387 54.6992 83.6687 56.5392 81.5587C57.3792 80.5887 55.9692 79.1687 55.1292 80.1487L55.1392 80.1587Z" fill="#191817"/>
<path d="M41.1492 113.149C41.6292 113.869 42.3492 114.009 43.1592 114.009C43.9692 114.009 44.7592 114.009 45.5592 114.009C47.1892 114.009 48.8192 114.009 50.4392 114.009C51.7292 114.009 51.7292 112.009 50.4392 112.009C49.0292 112.009 47.6292 112.009 46.2192 112.009C45.5292 112.009 44.8392 112.009 44.1492 112.009C43.8192 112.009 43.4892 112.009 43.1592 112.009C43.0292 112.009 42.8992 112.009 42.7692 112.009C42.8392 112.019 42.8192 112.009 42.6992 111.989C42.7792 112.019 42.8392 112.069 42.8792 112.139C42.5792 111.689 41.9992 111.499 41.5092 111.779C41.0592 112.039 40.8492 112.699 41.1492 113.149Z" fill="#191817"/>
<path d="M48.9691 61.6788C46.9791 64.3488 44.0391 66.0988 41.8391 68.5788C40.7791 69.7688 39.8891 71.0988 39.3491 72.6088C38.7491 74.2788 38.7991 76.0788 38.8391 77.8288C38.9791 85.4588 38.9891 93.1088 39.3691 100.729C39.5791 104.949 39.9491 109.149 40.6391 113.319C40.7291 113.849 41.3891 114.149 41.8691 114.019C42.4391 113.859 42.6591 113.319 42.5691 112.789C41.3691 105.509 41.2091 98.1188 41.0791 90.7588C41.0091 87.0288 40.9391 83.2988 40.8691 79.5688C40.8391 77.8588 40.6391 76.0288 40.9491 74.3388C41.2291 72.8288 42.0091 71.4688 42.9891 70.2988C45.3291 67.5188 48.5091 65.6188 50.6991 62.6888C51.0191 62.2588 50.7691 61.5688 50.3391 61.3188C49.8291 61.0188 49.2991 61.2388 48.9691 61.6788Z" fill="#191817"/>
</svg>
