<svg width="71" height="123" viewBox="0 0 71 123" fill="none" xmlns="http://www.w3.org/2000/svg">
<path d="M69.1893 74.4122C68.6493 72.5322 67.4393 70.9522 65.8293 69.9322C65.1793 69.2422 64.2693 68.8222 63.3093 68.9422C63.1393 68.9622 62.9793 69.0022 62.8293 69.0422C62.6693 68.9422 62.4993 68.8622 62.3093 68.8222C60.0393 68.3522 57.7793 67.9722 55.4893 68.3722C54.9393 68.3722 54.3893 68.3622 53.8393 68.3722C53.8293 68.3722 53.8193 68.3722 53.8093 68.3722C50.9493 67.9322 48.0993 67.3922 45.2593 66.7822C45.1993 66.4822 45.1493 66.1722 45.0893 65.8722C45.2693 65.9122 45.4493 65.9322 45.6493 65.9422C46.1793 66.1322 46.7593 66.1622 47.3093 65.9822C48.0893 65.7322 48.7393 65.0722 49.1193 64.3622C49.3493 63.9222 49.5193 63.4222 49.5993 62.9022C49.7193 62.6522 49.7893 62.3722 49.7593 62.0722C49.7293 61.7522 49.6893 61.4422 49.6293 61.1422C49.5393 60.4722 49.4293 59.8122 49.2993 59.1522C49.4293 58.4522 49.5593 57.7422 49.6693 57.0422C50.3293 54.2922 50.6793 51.4822 50.6993 48.6622C50.6993 48.4922 50.6993 48.3322 50.6993 48.1622C50.8493 46.0622 50.7893 43.9522 50.3493 41.8722C50.5193 41.5022 50.5893 41.0722 50.4893 40.6122C49.3693 35.6522 45.2393 31.5922 40.2393 30.6022C39.9193 30.5422 39.6093 30.5522 39.3393 30.6122C37.3493 30.1122 35.2593 29.8622 33.2293 29.7122C33.5193 27.4122 33.7693 25.1022 33.9693 22.7922C33.9993 22.6122 34.0393 22.4422 34.0693 22.2622C34.3293 22.1722 34.5793 22.0622 34.8293 21.9422C35.3693 22.0922 35.9593 22.0522 36.3893 21.7522C37.7093 20.8222 38.4193 18.9122 37.4593 17.6122C37.2993 17.2422 37.0493 16.9622 36.7193 16.7722C36.7493 16.6722 36.7693 16.5722 36.7993 16.4722C37.4893 14.0722 38.1293 11.6622 38.7293 9.24222C38.8693 8.80222 38.9893 8.36222 39.0693 7.90222C39.1293 7.56222 39.1093 7.22222 39.0393 6.91222C39.0593 6.74222 39.0893 6.57222 39.1193 6.39222C39.2093 5.66222 38.5893 4.89222 37.9593 4.60222C37.2993 3.48222 36.0893 2.63222 34.7993 2.11222C32.5693 1.21222 30.3393 0.572222 27.9193 0.972222C27.7993 0.992222 27.7093 1.04222 27.6093 1.08222C26.6493 0.932222 25.6793 1.17222 24.9693 1.93222C24.4793 2.45222 24.1693 3.12222 23.8893 3.79222C22.0293 6.81222 20.9193 10.2122 19.9193 13.6122C18.1193 14.6722 18.2793 17.6722 20.1993 18.5322C20.8693 19.1422 21.3693 19.8222 21.7593 20.6822C21.8293 20.8222 21.9193 20.9422 22.0193 21.0622C22.0893 21.8922 22.1493 22.7222 22.1793 23.5522C22.0793 24.6622 21.8893 25.7722 21.7393 26.8822C17.7593 27.8222 13.8293 28.9522 9.97928 30.3122C9.70928 30.4122 9.47928 30.5422 9.28928 30.7022C8.92928 30.8422 8.56928 30.9922 8.21928 31.1522C6.51928 31.7122 4.98928 32.7322 3.85928 34.1622C3.45928 34.6722 3.23928 35.3022 3.31928 35.8922C2.87928 36.4822 2.58928 37.2022 2.51928 38.0322C2.23928 41.6322 2.49928 45.0822 3.29928 48.5122C2.71928 49.6322 2.63928 50.9722 3.43928 52.1722C3.60928 52.4322 3.75928 52.6722 3.90928 52.9222C3.74928 53.3322 3.65928 53.7922 3.66928 54.2922C3.72928 56.4322 4.69928 58.0622 6.20928 58.8822C6.26928 58.9522 6.33928 59.0222 6.39928 59.0822C6.95928 59.6322 7.56928 59.9722 8.17928 60.1422C8.98928 61.1222 9.81928 61.9122 10.7593 62.5522C10.7593 64.3822 10.7593 66.2122 10.7593 68.0522C10.6393 68.0722 10.5093 68.0822 10.3893 68.1222C9.31928 68.3922 8.30928 68.7222 7.31928 69.1122C7.09928 69.1422 6.86928 69.1922 6.63928 69.2822C6.22928 69.4522 5.85928 69.6322 5.49928 69.8222C4.24928 69.7322 2.90928 70.3522 2.31928 71.8722L1.12928 74.9022C0.809277 75.7422 0.879277 76.4722 1.18928 77.0522C0.999277 79.9922 1.73928 82.4722 3.53928 84.9122C3.59928 84.9922 3.65928 85.0522 3.71928 85.1222C4.18928 86.0122 4.66928 86.8822 5.18928 87.7322C5.59928 88.4422 5.99928 89.1522 6.42928 89.8522C7.46928 91.7222 8.53928 93.5722 9.64928 95.3922C10.0693 96.6322 10.5593 97.8622 11.1593 99.0722C12.0693 100.922 13.4193 102.592 14.7493 104.262C15.6893 106.022 16.6893 107.752 17.7993 109.452C17.8993 109.602 17.9993 109.722 18.1093 109.842C18.3693 110.312 18.6393 110.782 18.8993 111.252C19.1393 111.682 19.4593 112.002 19.8193 112.232C19.7893 112.452 19.7493 112.662 19.7093 112.882C19.3293 113.392 18.9593 113.912 18.6193 114.452C18.5293 114.592 18.4593 114.732 18.3693 114.872C18.0893 115.102 17.8093 115.332 17.5293 115.572C16.9193 115.782 16.3893 116.172 15.9993 116.702C15.8593 116.622 15.6793 116.602 15.5193 116.682C14.4893 117.232 13.8693 118.332 13.9393 119.492C13.5093 119.922 13.3793 120.602 13.7493 121.162C13.8393 121.302 13.9993 121.422 14.1793 121.412C14.2793 121.412 14.3693 121.392 14.4693 121.382C14.5493 121.442 14.6493 121.482 14.7693 121.482C14.9393 121.482 15.1193 121.482 15.2893 121.482C15.5493 121.612 15.8393 121.692 16.1393 121.662C16.9293 121.592 17.6993 121.472 18.4793 121.332C19.4693 121.232 20.4493 121.072 21.4293 120.882C21.4793 120.992 21.5693 121.092 21.7193 121.132C23.3993 121.512 25.1393 121.232 26.5893 120.342C27.5193 120.132 28.3693 119.712 29.0893 119.122C29.4693 118.912 29.8293 118.662 30.1393 118.342C30.8093 118.072 31.3293 117.512 31.5393 116.762C31.5393 116.742 31.5393 116.732 31.5393 116.712C31.6693 116.352 31.6993 115.962 31.5393 115.592C31.4693 115.432 31.3993 115.272 31.3293 115.112C30.0793 112.362 29.0693 109.392 28.3193 106.402C28.1393 105.682 27.5293 105.172 26.8393 105.002C23.7493 97.8422 21.0193 90.5522 18.5793 83.1422C19.6793 83.2822 20.8093 83.2522 21.9493 83.1122C22.9693 82.9822 23.9893 82.7722 24.9993 82.5722C25.3493 82.5722 25.6993 82.5722 26.0493 82.5622C29.7893 82.7022 33.5493 83.0322 37.2493 82.7722C37.5793 83.0222 37.9693 83.1622 38.3893 83.1222C43.2293 82.6522 48.0993 82.4422 52.9593 82.4722C49.0793 88.0522 45.4593 93.8322 43.2493 100.282C42.4393 101.292 41.8593 102.442 41.6793 103.752C41.6093 104.272 41.6493 104.762 41.8593 105.182C41.7993 105.302 41.7393 105.432 41.6693 105.552C41.2093 106.112 40.7593 106.682 40.3393 107.282C40.0493 107.662 39.7593 108.042 39.4693 108.422C38.4793 109.162 37.6393 110.062 37.0093 111.102C36.6993 111.532 36.4493 112.002 36.3093 112.492C36.1993 112.762 36.0993 113.042 36.0093 113.332C35.9893 113.392 35.9893 113.452 35.9893 113.512C35.5693 113.872 35.3993 114.462 35.9393 114.892C35.9593 114.902 35.9693 114.912 35.9893 114.932C36.1293 115.572 36.6593 115.922 37.2693 116.072C37.6893 116.952 38.6793 117.372 39.5693 117.732C41.0493 118.322 42.5393 118.892 44.0193 119.462C46.3493 120.362 48.9493 121.512 51.4693 120.982C52.4093 121.042 53.4593 121.002 54.1893 120.522C54.3893 120.392 54.5393 120.222 54.6693 120.042C55.0693 120.102 55.5193 119.912 55.6893 119.562C56.3693 118.192 55.6893 117.102 54.6593 116.242C54.2493 115.632 53.7093 115.102 53.1093 114.652C52.4293 114.002 51.5893 113.562 50.6593 113.362C50.6593 113.362 50.6493 113.362 50.6393 113.362C49.8793 112.342 49.1393 111.202 48.8093 109.992C48.8593 109.872 48.8793 109.732 48.8693 109.572C48.8593 109.412 48.8493 109.252 48.8393 109.092C49.2893 109.202 49.7393 109.302 50.1893 109.372C50.2293 109.372 50.2693 109.372 50.3093 109.372C50.4593 109.412 50.6093 109.452 50.7593 109.492C51.4193 109.672 51.9793 109.172 52.0293 108.532C52.0393 108.372 52.0193 108.232 51.9793 108.092C52.2493 107.942 52.4893 107.722 52.6693 107.412C52.8293 107.142 52.9893 106.872 53.1493 106.602C53.6193 105.992 54.0293 105.332 54.3293 104.622C54.5593 104.082 54.6193 103.502 54.4693 102.992C58.2593 96.3622 62.4093 89.9522 66.9493 83.8122C67.2893 83.3422 67.3493 82.8422 67.2093 82.3822C67.4893 81.8922 67.7393 81.3822 67.9593 80.8722C68.0093 80.7722 68.0493 80.6622 68.0893 80.5622C68.1093 80.5022 68.1393 80.4422 68.1593 80.3822C68.6593 79.1422 69.0193 77.8322 69.2193 76.4522C69.2193 76.4122 69.2393 76.3722 69.2493 76.3222C69.2793 76.1422 69.3093 75.9722 69.3293 75.7922C69.3693 75.4822 69.3093 75.2022 69.2093 74.9522C69.2093 74.7822 69.1893 74.6122 69.1393 74.4422L69.1893 74.4122ZM28.5193 71.4022C28.5193 71.4022 28.5293 71.4422 28.5393 71.4522H28.5193C28.5193 71.4322 28.5193 71.4122 28.5193 71.4022Z" fill="#673B82"/>
<path d="M25.2593 7.34176C25.6993 6.97176 25.9293 6.42176 25.8793 5.85176C25.8093 5.06176 24.7993 4.44176 24.1693 5.14176C22.5993 6.91176 21.3893 8.94176 20.6293 11.1918C20.2693 12.2718 20.0193 13.2618 19.3493 14.1918C18.7693 15.0018 18.1293 15.8718 18.1393 16.9218C18.1493 17.9718 18.7593 18.8218 19.5293 19.4818C19.8693 19.7818 20.2393 20.0618 20.5493 20.4018C20.9393 20.8418 21.1693 21.4018 21.4593 21.9018C22.5093 23.7418 24.2593 25.1218 26.2893 25.7418C28.3193 26.3618 30.6193 26.0818 32.5193 25.0618C33.4593 24.5618 34.2293 23.8618 34.9393 23.0718C35.3493 22.6118 35.6193 22.5518 36.1893 22.3818C36.7193 22.2218 37.2093 21.9418 37.6193 21.5518C38.4193 20.7918 38.7893 19.6718 38.6193 18.5818C38.5493 18.1218 38.3793 17.6618 38.1293 17.2718C37.9893 17.0518 37.8193 16.8418 37.6393 16.6618C37.5493 16.5718 37.4493 16.4818 37.3393 16.4118C37.2193 16.3218 37.1893 16.2218 37.2193 16.3618C37.1693 16.1518 37.2793 15.7918 37.2993 15.5818C37.3393 15.3018 37.3693 15.0218 37.3993 14.7518C37.4593 14.1918 37.5193 13.6318 37.5393 13.0718C37.5893 11.9318 37.5193 10.7518 37.1793 9.65176C36.4693 7.29176 34.5793 5.61176 32.2793 4.85176C29.6193 3.97176 26.7193 4.48176 24.1593 5.43176C22.9593 5.87176 23.4793 7.81176 24.6893 7.36176C26.6593 6.63176 28.8393 6.09176 30.9393 6.56176C32.5493 6.92176 34.0793 7.81176 34.8793 9.30176C35.7993 11.0118 35.5793 13.1218 35.3593 14.9718C35.2493 15.9118 34.9693 16.9618 35.7393 17.7118C36.2593 18.2218 36.8393 18.6318 36.6093 19.4718C36.3693 20.3618 35.5793 20.3918 34.8493 20.6718C33.8893 21.0318 33.3793 21.9318 32.6393 22.5818C31.3593 23.7018 29.5593 24.2618 27.8693 24.0618C26.1793 23.8618 24.5893 22.9218 23.5993 21.5718C23.0193 20.7718 22.6793 19.8318 22.0193 19.0718C21.5193 18.5018 20.8093 18.1218 20.3593 17.5218C19.8093 16.7918 20.5493 15.9818 20.9793 15.3818C21.6593 14.4418 22.0393 13.4618 22.3793 12.3618C23.0193 10.2218 24.1093 8.25176 25.5993 6.58176L23.8893 5.87176C23.9393 5.96176 23.9293 5.98176 23.8593 5.95176C22.8693 6.78176 24.2893 8.18176 25.2693 7.36176L25.2593 7.34176Z" fill="#191817"/>
<path d="M20.7592 14.562C21.3692 12.062 22.1692 9.60204 23.1892 7.24204C23.6892 6.09204 24.2292 4.96204 24.8192 3.85204C25.0692 3.37204 25.3192 2.74204 25.7292 2.36204C26.0992 2.02204 26.6592 2.04204 27.1392 2.03204C29.5792 1.94204 32.1392 1.97204 34.4092 2.94204C35.4092 3.37204 36.3392 3.97204 37.0792 4.77204C37.9592 5.71204 38.2392 6.66204 37.9892 7.92204C37.3592 10.992 36.5992 14.042 35.9092 17.092C35.6292 18.342 37.5492 18.882 37.8392 17.622C38.5392 14.532 39.3292 11.442 39.9392 8.33204C40.2392 6.81204 40.0792 5.43204 39.1592 4.16204C38.4092 3.12204 37.4192 2.27204 36.2992 1.64204C33.8292 0.262036 30.9592 -0.0279639 28.1892 0.00203611C26.8292 0.0220361 25.2592 -0.057964 24.2492 1.02204C23.3192 2.01204 22.7492 3.46204 22.1692 4.67204C20.7392 7.67204 19.6192 10.802 18.8292 14.032C18.5192 15.282 20.4492 15.812 20.7592 14.562Z" fill="#191817"/>
<path d="M33.2993 22.9521C32.8193 24.8921 32.4193 26.8421 32.1093 28.8121C32.0293 29.3221 32.2393 29.9121 32.8093 30.0421C33.2893 30.1521 33.9493 29.8921 34.0393 29.3421C34.3493 27.3721 34.7493 25.4121 35.2293 23.4821C35.3593 22.9721 35.0693 22.3721 34.5293 22.2521C33.9893 22.1321 33.4293 22.4121 33.2993 22.9521Z" fill="#191817"/>
<path d="M21.0993 21.4121C21.1893 22.3421 21.2093 23.2821 21.1393 24.2221C21.0693 25.1621 20.8293 26.0321 20.7093 26.9421C20.4993 28.5721 21.0693 30.1121 22.2793 31.2221C24.5193 33.2821 27.8293 33.4521 30.5193 32.2521C31.9993 31.5921 33.2593 30.4621 34.0893 29.0721C34.7493 27.9621 33.0193 26.9521 32.3593 28.0621C30.9293 30.4821 27.6793 31.7121 25.0293 30.6421C23.7093 30.1121 22.5693 28.9521 22.6493 27.4521C22.6993 26.4821 22.9993 25.5121 23.0993 24.5421C23.2093 23.5021 23.1993 22.4521 23.0993 21.4121C23.0493 20.8721 22.6793 20.4121 22.0993 20.4121C21.5993 20.4121 21.0493 20.8721 21.0993 21.4121Z" fill="#191817"/>
<path d="M33.1292 30.7217C37.0392 30.9917 41.2992 31.3317 44.6592 33.5617C48.1892 35.9117 49.3892 40.2117 49.7492 44.2217C50.1792 49.0717 49.5992 53.9717 48.0492 58.5917C47.8692 59.1317 47.6692 59.6717 47.4692 60.2017C47.2992 60.6317 47.1392 61.1517 46.7892 61.4717C46.4592 61.7717 46.0292 61.7617 45.6092 61.7517C44.9692 61.7317 44.3392 61.6617 43.6992 61.6017C41.2392 61.3817 38.7792 61.0417 36.3492 60.5917C30.8892 59.5917 25.5292 58.0417 20.3692 55.9917C19.8692 55.7917 19.2692 56.2117 19.1392 56.6917C18.9792 57.2617 19.3292 57.7217 19.8392 57.9217C24.8192 59.9017 29.9792 61.4117 35.2492 62.4117C37.8492 62.9117 40.4792 63.2817 43.1192 63.5417C44.3092 63.6617 45.6692 63.9317 46.8492 63.6417C48.1192 63.3217 48.7592 62.2817 49.2292 61.1417C51.1992 56.3317 52.0792 51.0117 51.8492 45.8217C51.6492 41.2417 50.6892 36.1517 47.1092 32.9517C43.3192 29.5617 37.9692 29.0617 33.1192 28.7217C31.8392 28.6317 31.8392 30.6317 33.1192 30.7217H33.1292Z" fill="#191817"/>
<path d="M17.0592 51.9317C22.0592 52.3017 27.0692 52.6117 32.0792 52.8517C33.3492 52.9117 34.6292 52.9717 35.8992 53.0217C37.1692 53.0717 38.3992 53.2417 39.6092 53.1517C40.7392 53.0617 41.3392 52.2717 41.6292 51.2517C41.9492 50.1217 42.1092 48.9217 42.1792 47.7417C42.3392 44.9717 41.9192 42.1917 41.5092 39.4617C41.4292 38.9317 40.7592 38.6317 40.2792 38.7617C39.7092 38.9217 39.4992 39.4517 39.5792 39.9917C39.8992 42.1717 40.2192 44.3617 40.2092 46.5717C40.2092 47.6517 40.1292 48.7417 39.9192 49.8017C39.8592 50.1117 39.8092 50.8517 39.5792 51.0717C39.3892 51.2517 38.9092 51.1417 38.6092 51.1317C34.0092 50.9617 29.4092 50.7317 24.8092 50.4517C22.2192 50.2917 19.6392 50.1217 17.0592 49.9317C15.7792 49.8417 15.7792 51.8417 17.0592 51.9317Z" fill="#191817"/>
<path d="M42.4592 48.8721C43.5592 47.9721 44.9992 47.4821 46.4092 47.4321C47.1392 47.4121 47.8392 47.4921 48.5392 47.7121C48.8392 47.8021 49.1292 47.9121 49.3892 48.0921C49.4892 48.1621 49.6092 48.2521 49.6792 48.3321C49.6992 48.3521 49.7992 48.5921 49.7892 48.5021C49.8592 49.0421 50.1992 49.5021 50.7892 49.5021C51.2792 49.5021 51.8592 49.0421 51.7892 48.5021C51.4892 46.1821 48.8292 45.4821 46.8292 45.4321C44.7192 45.3821 42.6792 46.1221 41.0492 47.4521C40.6292 47.7921 40.6992 48.5121 41.0492 48.8621C41.4592 49.2721 42.0392 49.2021 42.4592 48.8621V48.8721Z" fill="#191817"/>
<path d="M18.1292 49.7719C16.7992 49.1519 15.4792 48.4819 14.1092 47.9319C12.7392 47.3819 11.3892 47.5919 10.0492 48.2419C8.70922 48.8919 7.46922 49.5719 6.18922 50.2519C5.08922 50.8419 3.99922 51.6019 3.59922 52.8419C3.19922 54.0819 3.52922 55.5919 3.92922 56.8319C4.32922 58.0719 4.86922 59.4519 5.99922 60.1819C7.22922 60.9719 8.38922 60.3419 9.52922 59.7519C10.7292 59.1319 12.0492 58.8319 13.3992 58.8219C14.8092 58.8119 16.2192 59.0119 17.6292 58.8519C18.8392 58.7119 21.3192 58.1519 21.1392 56.5019C21.0792 55.9619 20.7192 55.5019 20.1392 55.5019C19.6392 55.5019 19.0792 55.9619 19.1392 56.5019L19.1592 56.6719L19.2992 56.1719C19.1592 56.5019 18.5392 56.6419 18.2192 56.7219C17.7692 56.8419 17.3092 56.8919 16.8492 56.9019C15.8292 56.9319 14.8192 56.8319 13.8092 56.8219C12.6892 56.8019 11.5692 56.9219 10.4892 57.2319C9.98922 57.3819 9.49922 57.5719 9.01922 57.7819C8.53922 57.9919 8.08922 58.3319 7.58922 58.5119C6.78922 58.8019 6.32922 57.5119 6.09922 56.9519C5.71922 56.0119 5.32922 54.8519 5.42922 53.8219C5.51922 52.8919 6.36922 52.4219 7.11922 52.0219C8.15922 51.4619 9.21922 50.9219 10.2692 50.3719C11.3192 49.8219 12.2692 49.3419 13.4592 49.8119C14.6492 50.2819 15.9092 50.9419 17.1192 51.5019C17.6092 51.7319 18.1992 51.6419 18.4892 51.1419C18.7392 50.7119 18.6192 50.0019 18.1292 49.7719Z" fill="#191817"/>
<path d="M15.7992 48.8821C15.5192 45.0021 15.2292 41.1221 14.9492 37.2421C14.8592 35.9621 12.8592 35.9521 12.9492 37.2421C13.2292 41.1221 13.5192 45.0021 13.7992 48.8821C13.8892 50.1621 15.8892 50.1721 15.7992 48.8821Z" fill="#191817"/>
<path d="M5.00924 53.2016C4.47924 50.6116 4.10924 47.9916 3.90924 45.3516C3.73924 43.1316 3.60924 40.8516 3.92924 38.6416C4.20924 36.6916 4.86924 34.7216 6.30924 33.3116C7.91924 31.7316 10.2192 31.1316 12.3292 30.5516C15.2392 29.7516 18.1792 29.0616 21.1292 28.4816C22.3892 28.2316 21.8592 26.3016 20.5992 26.5516C17.7592 27.1116 14.9392 27.7616 12.1492 28.5216C9.77924 29.1716 7.34924 29.8516 5.40924 31.4316C1.70924 34.4516 1.56924 39.7816 1.81924 44.1416C1.99924 47.3616 2.42924 50.5616 3.06924 53.7216C3.32924 54.9816 5.24924 54.4516 4.99924 53.1916L5.00924 53.2016Z" fill="#191817"/>
<path d="M7.08932 60.3621C9.56932 64.2421 14.3293 65.2721 18.6393 65.0121C23.6993 64.7121 28.7993 63.6421 33.6893 62.3821C34.9393 62.0621 34.4093 60.1321 33.1593 60.4521C28.6493 61.6121 23.9993 62.5721 19.3493 62.9521C15.5993 63.2621 11.0493 62.8221 8.80932 59.3421C8.11932 58.2621 6.38932 59.2621 7.07932 60.3521L7.08932 60.3621Z" fill="#191817"/>
<path d="M40.4993 63.4719C41.3893 64.5219 42.3293 65.6019 43.5493 66.2719C44.7693 66.9419 46.2593 67.2419 47.5793 66.7219C48.8993 66.2019 49.7493 65.2219 50.2293 63.9719C50.7693 62.5819 50.6393 60.9919 50.1893 59.6019C50.0193 59.0919 49.4993 58.7519 48.9593 58.9019C48.4593 59.0419 48.0893 59.6119 48.2593 60.1319C48.5993 61.1619 48.7493 62.2919 48.3493 63.3319C48.0893 63.9919 47.4993 64.6619 46.8293 64.8719C44.7893 65.5219 43.0693 63.4219 41.9193 62.0519C41.5693 61.6419 40.8693 61.6919 40.5093 62.0519C40.0993 62.4619 40.1593 63.0519 40.5093 63.4619L40.4993 63.4719Z" fill="#191817"/>
<path d="M9.48931 62.2322C9.84931 64.0022 9.96931 65.8522 9.82931 67.7522C9.78931 68.2722 10.3193 68.7722 10.8293 68.7522C11.3993 68.7222 11.7893 68.3122 11.8293 67.7522C11.9793 65.7222 11.8293 63.6922 11.4193 61.6922C11.3093 61.1822 10.6793 60.8322 10.1893 60.9922C9.64931 61.1722 9.37931 61.6722 9.48931 62.2222V62.2322Z" fill="#191817"/>
<path d="M3.38925 71.572C5.38925 70.622 7.43925 69.762 9.60925 69.262C11.7792 68.762 14.0892 68.702 16.3392 68.632C21.0392 68.482 25.7292 68.382 30.4292 68.362C39.8992 68.322 49.3792 68.612 58.8092 69.512C60.0892 69.632 61.3792 69.752 62.6592 69.912C63.7092 70.052 64.7993 70.272 65.6093 70.992C66.4193 71.712 66.9993 72.652 67.5393 73.542C68.1193 74.502 68.6592 75.572 68.2992 76.702C67.9092 77.932 69.8392 78.462 70.2292 77.232C70.9392 75.002 69.5792 72.872 68.3292 71.122C67.7092 70.252 67.0193 69.422 66.0993 68.872C65.1793 68.322 64.0593 68.082 62.9793 67.942C58.0493 67.292 53.0593 66.972 48.0993 66.722C38.0993 66.212 28.0792 66.272 18.0692 66.562C15.3392 66.642 12.5792 66.652 9.87925 67.152C7.17925 67.652 4.77925 68.692 2.37925 69.832C1.21925 70.382 2.22925 72.112 3.38925 71.562V71.572Z" fill="#191817"/>
<path d="M68.1693 77.1221C67.7193 81.4421 64.6693 84.9921 62.3093 88.4321C59.5093 92.5121 56.9993 96.7921 54.6393 101.132C53.2993 103.592 52.0293 106.072 50.8093 108.592C50.2493 109.742 51.9693 110.762 52.5393 109.602C54.7593 105.042 57.1593 100.572 59.7493 96.2121C61.0293 94.0521 62.3593 91.9221 63.7693 89.8421C65.0593 87.9421 66.4493 86.1221 67.6293 84.1521C68.9393 81.9821 69.9093 79.6621 70.1693 77.1221C70.2293 76.5821 69.6693 76.1221 69.1693 76.1221C68.5793 76.1221 68.2293 76.5821 68.1693 77.1221Z" fill="#191817"/>
<path d="M41.2992 106.062C42.9492 107.402 44.7392 108.482 46.6992 109.292C47.6292 109.682 48.5992 109.992 49.5792 110.232C50.6192 110.482 51.7592 110.742 52.7292 110.142C53.8192 109.462 52.8192 107.732 51.7192 108.412C51.1692 108.752 50.1792 108.332 49.6092 108.172C48.7692 107.942 47.9492 107.662 47.1492 107.322C45.5592 106.642 44.0492 105.732 42.7092 104.642C42.2892 104.302 41.6992 104.232 41.2992 104.642C40.9492 104.992 40.8792 105.712 41.2992 106.052V106.062Z" fill="#191817"/>
<path d="M42.5292 104.942C42.9092 102.932 44.0692 101.082 44.9892 99.2818C46.0092 97.3018 47.0492 95.3218 48.1192 93.3618C50.2092 89.5018 52.3792 85.6918 54.6292 81.9318C55.9192 79.7718 57.2292 77.6318 58.5692 75.5118C59.2592 74.4218 57.5292 73.4118 56.8392 74.5018C52.0792 82.0618 47.6392 89.8118 43.5392 97.7418C42.4492 99.8518 41.0392 102.052 40.5992 104.412C40.3592 105.672 42.2892 106.212 42.5292 104.942Z" fill="#191817"/>
<path d="M18.5692 83.5324C27.2792 84.0024 36.0092 83.9824 44.7192 83.4624C47.1092 83.3224 49.5492 83.0424 51.9392 83.3724C52.4692 83.4424 53.0092 83.2424 53.1692 82.6724C53.2992 82.2024 53.0092 81.5124 52.4692 81.4424C50.2892 81.1424 48.1292 81.2424 45.9392 81.3824C43.7492 81.5224 41.5092 81.6324 39.2892 81.7124C34.8892 81.8724 30.4892 81.9024 26.0892 81.8024C23.5792 81.7524 21.0692 81.6524 18.5692 81.5124C17.2792 81.4424 17.2892 83.4424 18.5692 83.5124V83.5324Z" fill="#191817"/>
<path d="M15.9693 75.7817C17.3493 84.0717 19.8693 92.1417 23.4193 99.7617C24.4193 101.912 25.4993 104.012 26.6693 106.082C27.2993 107.202 29.0293 106.192 28.3993 105.072C24.3493 97.8617 21.2893 90.1317 19.3093 82.1017C18.7493 79.8417 18.2893 77.5517 17.8993 75.2517C17.8093 74.7217 17.1493 74.4217 16.6693 74.5517C16.0993 74.7117 15.8793 75.2517 15.9693 75.7817Z" fill="#191817"/>
<path d="M2.37928 69.9124C0.179279 72.5124 -0.350722 75.9724 0.209278 79.2624C0.849278 82.9724 2.89928 86.2624 4.76928 89.4524C6.88928 93.0524 9.00928 96.6424 11.1293 100.242C12.1793 102.022 13.2293 103.802 14.2793 105.582C14.8293 106.512 15.3693 107.432 15.9193 108.362C16.3993 109.182 16.8393 110.062 17.4093 110.832C18.0293 111.672 18.9593 112.052 19.9393 111.602C20.9193 111.152 21.7993 110.592 22.6993 110.062C24.6493 108.922 26.5693 107.712 28.4393 106.432C29.4993 105.712 28.4993 103.982 27.4293 104.702C25.9093 105.732 24.3693 106.722 22.7993 107.672C22.0293 108.132 21.2593 108.592 20.4693 109.032C20.1293 109.222 19.7893 109.412 19.4493 109.602C19.0693 109.812 19.1793 109.892 18.9693 109.602C18.4493 108.862 18.0293 108.022 17.5693 107.242C17.0693 106.392 16.5593 105.532 16.0593 104.682C15.0893 103.042 14.1293 101.412 13.1593 99.7724C11.2293 96.5024 9.29928 93.2224 7.36928 89.9524C5.61928 86.9824 3.62928 84.0024 2.59928 80.6824C1.64928 77.6224 1.59928 73.9124 3.77928 71.3424C4.60928 70.3624 3.19928 68.9424 2.36928 69.9324L2.37928 69.9124Z" fill="#191817"/>
<path d="M26.5293 106.432C28.3293 110.132 29.7593 114.002 30.8093 117.982L31.5093 116.752C30.5293 116.922 29.7593 117.532 29.0193 118.152C28.2793 118.772 27.5493 119.232 26.5993 119.482C24.4093 120.052 22.0293 120.152 19.7893 120.292C18.5693 120.362 17.3593 120.412 16.1393 120.432C15.6193 120.432 15.0193 120.522 14.5093 120.432C14.3593 120.402 14.4993 120.522 14.4793 120.492C14.4093 120.352 14.5093 120.032 14.5393 119.892C14.7593 119.062 15.2093 118.302 15.8193 117.702C16.5293 117.002 17.4593 116.682 18.2793 116.162C20.2593 114.902 20.6993 112.682 20.7893 110.492C20.8393 109.202 18.8393 109.212 18.7893 110.492C18.7493 111.402 18.6993 112.372 18.3193 113.222C17.8593 114.242 16.9393 114.632 16.0093 115.132C14.1793 116.122 12.6593 118.022 12.4793 120.142C12.3893 121.212 12.9693 122.202 14.0693 122.392C15.2693 122.592 16.6193 122.442 17.8393 122.392C20.4593 122.302 23.0793 122.082 25.6693 121.702C26.9293 121.522 28.2193 121.212 29.2793 120.482C30.1793 119.872 30.9293 118.882 32.0393 118.682C32.5793 118.592 32.8693 117.932 32.7393 117.452C31.6493 113.302 30.1393 109.282 28.2593 105.432C27.6993 104.272 25.9693 105.292 26.5293 106.442V106.432Z" fill="#191817"/>
<path d="M40.7693 104.832C40.3293 106.222 39.1193 107.192 38.0993 108.162C36.8993 109.312 35.9093 110.572 35.2893 112.132C34.9893 112.882 34.6893 113.762 34.6893 114.582C34.6893 115.492 35.2893 116.022 35.9993 116.482C37.4893 117.462 39.0593 118.332 40.6693 119.092C43.9693 120.652 47.7593 122.132 51.4593 122.102C52.9393 122.092 54.5793 121.792 55.6793 120.712C56.8593 119.552 56.9093 117.802 56.0993 116.422C55.1693 114.842 53.5793 114.052 52.0793 113.132C51.4493 112.752 50.7993 112.322 50.3793 111.692C49.8293 110.882 49.9493 109.882 50.0293 108.952C50.1393 107.672 48.1393 107.682 48.0293 108.952C47.8893 110.552 48.0293 112.042 49.1093 113.302C49.9693 114.302 51.1793 114.922 52.2993 115.572C53.2693 116.132 54.6893 117.112 54.6693 118.382C54.6493 119.532 53.2693 119.942 52.3393 120.052C50.6693 120.252 48.9393 119.912 47.3393 119.462C45.7393 119.012 44.2793 118.502 42.8093 117.862C41.3393 117.222 39.9093 116.502 38.5393 115.692C38.2193 115.502 37.8993 115.312 37.5893 115.112C37.3593 114.962 36.7793 114.732 36.6593 114.482C36.6993 114.572 36.6993 114.622 36.7193 114.482C36.7593 114.272 36.7993 114.062 36.8493 113.862C36.9493 113.452 37.0793 113.042 37.2393 112.652C38.4793 109.752 41.7493 108.402 42.7193 105.352C43.1093 104.122 41.1793 103.592 40.7893 104.822L40.7693 104.832Z" fill="#191817"/>
<path d="M38.6992 107.602C38.3792 108.472 39.2592 109.122 40.0292 109.162C40.6292 109.192 41.2492 109.142 41.8392 109.112C43.0792 109.042 44.3192 108.922 45.5592 108.752C46.0792 108.682 46.4092 107.992 46.2592 107.522C46.0692 106.952 45.5892 106.752 45.0292 106.822C45.1792 106.802 44.8892 106.842 44.8592 106.842C44.7292 106.862 44.6092 106.872 44.4792 106.892C44.2592 106.922 44.0392 106.942 43.8192 106.962C43.3592 107.012 42.9092 107.042 42.4492 107.072C41.9892 107.102 41.5692 107.122 41.1292 107.142C40.9092 107.142 40.6892 107.152 40.4692 107.162C40.3492 107.162 40.2092 107.152 40.0792 107.162C39.9792 107.162 40.0092 107.162 40.1592 107.182C40.3092 107.232 40.4192 107.332 40.5092 107.472L40.6492 107.972L40.6292 108.132C40.8092 107.642 40.4292 107.012 39.9292 106.902C39.3592 106.772 38.8892 107.072 38.6992 107.602Z" fill="#191817"/>
<path d="M23.2693 109.912C25.0793 110.172 26.8693 110.562 28.6193 111.092C29.1193 111.242 29.7293 110.912 29.8493 110.392C29.9693 109.872 29.6893 109.322 29.1493 109.162C27.3993 108.632 25.6093 108.242 23.7993 107.982C23.2793 107.912 22.6993 108.112 22.5693 108.682C22.4593 109.152 22.7093 109.832 23.2693 109.912Z" fill="#191817"/>
</svg>
