<svg width="62" height="122" viewBox="0 0 62 122" fill="none" xmlns="http://www.w3.org/2000/svg">
<path d="M60.1393 73.4845C60.1393 73.3945 60.1393 73.3045 60.1293 73.2145C60.3593 69.5345 59.5193 65.9345 56.1193 64.3645C56.4493 64.1745 56.7793 63.9745 57.0993 63.7645C57.3193 63.7045 57.5493 63.6345 57.7693 63.4945C58.3993 63.1245 58.8793 62.6845 59.3193 62.1545C59.4493 61.9945 59.5793 61.8245 59.7093 61.6545C60.1393 61.0745 60.1493 60.2945 59.8993 59.6145C59.9393 59.0345 59.8993 58.4545 59.7693 57.8545C59.7293 57.6845 59.6693 57.5145 59.5893 57.3645C59.4093 54.5545 58.9293 51.7745 58.1593 49.0645C57.6093 44.0745 57.0293 39.0845 56.3793 34.0945C56.2893 33.4145 56.0193 32.7745 55.5893 32.3145C54.9693 30.1645 53.6093 28.2845 51.7193 27.0245C51.4593 26.8245 51.1993 26.6345 50.9093 26.4645C48.5693 25.0645 45.7893 24.1845 43.1293 23.6045C43.0393 23.5845 42.9493 23.5845 42.8693 23.5745C41.7393 23.0545 40.6293 22.5045 39.5193 21.9145C39.3493 21.8245 39.1793 21.7645 39.0093 21.7145C39.9893 18.4445 40.3593 15.1545 40.0893 11.7245C40.0593 11.2945 39.9493 10.9145 39.7993 10.5645C39.7693 9.87454 39.7193 9.18454 39.6493 8.49454C39.6793 8.37454 39.7093 8.24454 39.7093 8.11454C39.7393 6.98454 39.5893 5.84454 39.2793 4.75454C39.2393 4.34454 39.1193 3.92454 38.9193 3.54454C38.7793 3.27454 38.5793 3.03454 38.3593 2.82454C38.3193 2.75454 38.2793 2.68454 38.2393 2.62454C37.6393 1.77454 36.8793 1.30454 35.8393 1.19454C35.5093 1.16454 35.2093 1.28454 34.9493 1.48454C33.8493 0.85454 32.4193 0.54454 30.5593 0.68454C23.6393 1.19454 22.9093 7.69454 23.6193 13.5545C23.5993 13.5645 23.5693 13.5745 23.5393 13.5845C23.2193 13.7645 23.0293 14.0745 22.8993 14.4045C22.8093 14.6445 22.7793 14.9145 22.7693 15.1845C22.6993 15.3945 22.6593 15.6245 22.6693 15.8445C22.6893 16.2845 22.7693 16.7345 22.9193 17.1445C23.0893 17.6145 23.2993 18.0845 23.6293 18.4645C23.8593 18.7345 24.1793 18.8945 24.4993 18.9245C24.6893 19.9445 24.9493 20.9045 25.2793 21.7545C20.5793 24.1545 15.6093 26.4945 11.8193 30.0745C11.0493 30.8045 10.8293 31.7145 10.9893 32.5645C10.5093 33.7245 10.2493 34.9445 10.0893 36.3445C10.0593 36.4445 10.0393 36.5345 10.0093 36.6345C8.42926 41.6145 7.21926 46.6545 6.39926 51.8245C6.33926 52.1845 6.35926 52.5145 6.39926 52.8345C6.35926 53.0145 6.31926 53.1845 6.30926 53.3545C5.65926 55.0745 5.54926 56.5245 5.76926 58.2045C5.57926 58.8745 5.66926 59.6145 6.19926 60.3245C7.02926 61.4345 7.84926 62.3045 8.77926 63.0145C9.21926 63.5745 9.68926 64.1045 10.1693 64.6145C9.70926 64.9845 9.26926 65.3545 8.81926 65.7345C8.70926 65.7545 8.58926 65.7745 8.47926 65.8145C8.31926 65.8745 8.16926 65.9545 8.00926 66.0245C7.99926 66.0245 7.98926 66.0445 7.96926 66.0545C7.02926 66.4645 6.15926 66.9745 5.37926 67.5945C4.91926 67.5945 4.42926 67.7645 4.00926 68.2045C2.68926 69.5645 1.95926 71.1445 1.67926 72.9645C1.64926 73.1445 1.62926 73.3145 1.60926 73.4945C1.52926 74.2945 1.89926 74.8545 2.43926 75.1545C2.72926 76.5645 3.03926 77.9745 3.35926 79.3745C3.83926 82.9345 4.68926 86.4445 5.66926 89.9245C5.76926 90.5445 5.87926 91.1545 5.98926 91.7745C5.98926 91.8545 5.98926 91.9445 6.00926 92.0345C6.55926 95.2245 7.28926 98.3845 8.13926 101.505C8.74926 104.195 9.34926 106.885 9.95926 109.575C9.95926 109.585 9.94926 109.595 9.93926 109.605C9.89926 109.635 9.84926 109.665 9.80926 109.705C8.14926 111.315 6.52926 112.995 5.47926 115.045C5.21926 115.345 4.95926 115.635 4.70926 115.925C4.32926 116.365 4.17926 116.985 4.35926 117.525C4.29926 117.605 4.22926 117.675 4.17926 117.755C4.10926 117.895 4.06926 118.045 4.03926 118.205C3.91926 118.415 3.81926 118.645 3.81926 118.885C3.81926 119.135 3.93926 119.355 4.12926 119.495C4.17926 119.545 4.23926 119.595 4.29926 119.625C4.38926 119.665 4.46926 119.675 4.55926 119.655C4.58926 119.655 4.60926 119.635 4.63926 119.635C4.69926 119.635 4.75926 119.615 4.81926 119.595C4.87926 119.625 4.93926 119.645 4.99926 119.665C5.21926 119.715 5.42926 119.725 5.64926 119.685C5.66926 119.685 5.67926 119.675 5.69926 119.665C5.85926 119.805 6.05926 119.905 6.32926 119.905C7.85926 119.875 9.38926 119.885 10.9093 119.905C11.6793 119.985 12.4593 120.035 13.2393 120.065C14.2393 120.165 15.2293 120.275 16.2293 120.375C16.7193 120.425 17.1593 119.955 17.2093 119.505C17.2093 119.495 17.2093 119.485 17.2093 119.475C17.3393 119.395 17.4293 119.265 17.4293 119.075C17.4293 118.475 17.4193 117.885 17.4093 117.285C17.6093 115.195 17.6793 113.095 17.6393 110.995C17.7293 110.765 17.7993 110.515 17.7993 110.225C17.9793 103.265 17.6593 96.3145 16.8893 89.4145C16.6793 86.7545 16.3993 84.0945 16.0593 81.4545C18.8893 81.4345 21.7193 81.4145 24.5493 81.3945C27.5493 81.5845 30.5593 81.6345 33.5793 81.5045C37.8793 82.0245 42.1793 82.3945 46.5093 82.5845C46.3493 84.1045 46.1993 85.6245 46.0493 87.1345C45.8793 87.4045 45.7393 87.7245 45.6793 88.1045C44.9393 92.6445 44.3993 97.1845 44.0793 101.765C44.0493 102.195 44.1093 102.565 44.2093 102.895C43.8893 105.595 43.5793 108.295 43.2593 110.995C43.2393 111.135 43.2593 111.265 43.2593 111.395C43.2193 111.505 43.1793 111.635 43.1793 111.785C43.1693 113.365 43.1493 114.935 43.1393 116.515C43.0993 116.675 43.0593 116.835 43.0193 116.995C42.9493 117.155 42.9193 117.315 42.8993 117.475C42.8593 117.625 42.8193 117.775 42.7893 117.935C42.6493 118.495 43.0793 119.085 43.5993 119.195C44.1393 119.645 44.8593 119.815 45.5793 119.785C46.1493 119.765 46.7193 119.735 47.2893 119.695C47.5093 119.695 47.7293 119.695 47.9493 119.695C48.6393 119.675 49.3193 119.645 50.0093 119.625C51.3993 119.675 52.7993 119.695 54.1893 119.625C54.7993 119.595 55.3793 119.005 55.1493 118.355C54.9893 117.875 54.8193 117.405 54.6493 116.925C54.2593 114.245 53.0193 111.755 51.0593 109.865C52.1593 106.295 52.9993 102.715 53.5793 99.0145C53.5793 98.9845 53.5793 98.9645 53.5793 98.9345C55.7593 93.3845 58.1693 87.9445 58.7993 81.9245C59.3293 80.2745 59.7693 78.6145 60.1193 76.8845C60.2593 76.1845 60.1893 75.5545 59.9693 75.0245C60.0193 74.5045 60.0593 73.9845 60.0893 73.4645L60.1393 73.4845ZM47.3193 114.415C47.3793 114.405 47.4293 114.375 47.4793 114.355C47.5193 114.425 47.5693 114.505 47.6193 114.575C47.5193 114.525 47.4193 114.465 47.3193 114.415Z" fill="#673B82"/>
<path d="M23.7193 19.6434C24.5393 23.3734 26.5293 27.6534 30.7293 28.3834C34.9293 29.1134 38.2993 25.6834 39.7593 22.1434C40.5893 20.1334 40.8693 17.9334 40.8793 15.7734C40.8893 13.6134 40.8093 11.3434 40.2293 9.28344C39.6993 7.41344 38.4693 5.70344 36.5093 5.16344C35.5893 4.91344 34.6293 4.99344 33.7793 5.42344C33.0993 5.76344 32.3893 6.61344 31.5693 6.49344C30.5193 6.33344 29.7093 5.58344 28.5993 5.61344C27.4893 5.64344 26.4093 6.25344 25.6993 7.11344C24.9493 8.03344 24.5693 9.15344 24.3093 10.2934C24.0093 11.6034 23.7593 12.9234 23.4893 14.2434L25.4493 14.5134C25.4393 13.3934 24.3293 12.6934 23.2793 12.9434C22.0693 13.2334 21.7193 14.4834 21.6893 15.5734C21.6593 16.6634 21.7193 17.9734 22.4793 18.8934C23.2393 19.8134 24.5093 20.1634 25.5893 19.5934C26.7293 18.9934 25.7193 17.2634 24.5793 17.8634C23.8893 18.2234 23.6993 16.6534 23.6893 16.3434C23.6693 15.9534 23.6393 15.5034 23.7193 15.1134C23.7293 15.0234 23.7593 14.9434 23.7993 14.8634C23.8893 14.7634 23.8693 14.7734 23.7493 14.8734C23.6393 14.7034 23.4593 14.9534 23.4493 14.5034C23.4593 15.5934 25.1793 15.9034 25.4093 14.7734C25.6093 13.8234 25.7993 12.8834 25.9993 11.9334C26.1993 10.9834 26.3393 10.0534 26.7293 9.19344C27.0293 8.53344 27.5093 7.90344 28.2093 7.67344C28.9793 7.41344 29.7393 7.94344 30.4393 8.21344C31.1993 8.50344 32.0093 8.60344 32.7893 8.30344C33.5693 8.00344 34.1293 7.37344 34.8893 7.09344C36.2193 6.59344 37.5093 7.85344 38.0093 8.95344C38.7393 10.5534 38.7693 12.5134 38.8493 14.2334C38.9393 16.1534 38.8693 18.0934 38.3793 19.9634C37.6293 22.8134 35.5593 25.9934 32.3893 26.4334C30.6293 26.6734 28.9593 25.6834 27.8593 24.3734C26.6193 22.8834 26.0493 20.9534 25.6393 19.0934C25.3593 17.8334 23.4293 18.3734 23.7093 19.6234L23.7193 19.6434Z" fill="#191817"/>
<path d="M24.8694 13.6439C24.8694 11.3539 24.6894 8.99388 24.9394 6.71388C25.1494 4.77388 26.1694 3.25388 27.9994 2.52388C30.0594 1.69388 32.3394 1.99388 34.4594 2.41388C35.4094 2.60388 36.5894 2.70388 37.4094 3.25388C38.0894 3.71388 38.3594 4.51388 38.5094 5.27388C38.7294 6.36388 38.6994 7.50388 38.7394 8.60388C38.7894 9.96388 38.8394 11.3339 38.8794 12.6939C38.9294 13.9739 40.9294 13.9839 40.8794 12.6939C40.8294 11.2939 40.7794 9.88388 40.7294 8.48388C40.6894 7.32388 40.6794 6.15388 40.4794 5.01388C40.2994 3.96388 39.9094 2.92388 39.1694 2.14388C38.3494 1.27388 37.1894 0.943884 36.0494 0.703884C33.4694 0.153884 30.7394 -0.376116 28.1494 0.363884C25.8894 1.00388 24.0194 2.53388 23.2894 4.81388C22.8794 6.10388 22.8494 7.50388 22.8494 8.84388C22.8494 10.4439 22.8494 12.0539 22.8594 13.6539C22.8594 14.9439 24.8594 14.9439 24.8594 13.6539L24.8694 13.6439Z" fill="#191817"/>
<path d="M38.6393 22.8539C41.8793 24.5139 45.5093 25.0939 48.8393 26.5239C50.3893 27.1839 51.8493 28.0739 52.9393 29.3739C54.2793 30.9739 54.7593 33.0839 55.1193 35.0939C55.9993 40.0139 56.7293 44.9739 57.5393 49.9139C57.9493 52.4439 58.3593 54.9639 58.7693 57.4939C58.9393 58.5339 59.3093 59.8339 58.8693 60.8539C58.5393 61.6239 57.7793 62.1339 57.0893 62.5539C55.9393 63.2639 54.7393 63.9139 53.5693 64.5939C52.9593 64.9439 52.3593 65.2939 51.7493 65.6439C51.2993 65.9039 50.6993 66.4039 50.1493 66.4139C49.5993 66.4239 49.0293 66.0039 48.5693 65.7839C47.9493 65.4839 47.3193 65.1939 46.6993 64.8939C45.3793 64.2639 44.0593 63.6339 42.7393 63.0039L43.0993 64.3739C43.8593 62.7939 44.8893 61.3839 46.1893 60.2039C46.8193 59.6339 47.4993 59.1439 48.2293 58.7139C48.9593 58.2839 49.7193 57.8539 50.0993 57.0639C50.5393 56.1339 50.2793 55.0339 50.1793 54.0639C50.0593 52.9539 49.9493 51.8439 49.8293 50.7339C49.5993 48.5539 49.3793 46.3839 49.1493 44.2039C48.8893 41.7439 48.6393 39.2739 48.3793 36.8139C48.3193 36.2739 47.9593 35.8139 47.3793 35.8139C46.8793 35.8139 46.3193 36.2739 46.3793 36.8139C46.8193 41.0439 47.2593 45.2739 47.6993 49.5039C47.8093 50.5339 47.9093 51.5539 48.0193 52.5839C48.1293 53.6139 48.3093 54.6839 48.3393 55.7239C48.3693 56.5539 47.5693 56.7739 46.9593 57.1439C46.2393 57.5839 45.5493 58.1039 44.9193 58.6639C43.4293 59.9639 42.2193 61.5839 41.3693 63.3739C41.1493 63.8239 41.2093 64.4939 41.7293 64.7439C42.9793 65.3339 44.2193 65.9339 45.4693 66.5239C46.6393 67.0839 47.8093 67.7239 49.0193 68.1939C50.2293 68.6639 51.2593 68.2439 52.3193 67.6239C53.4993 66.9439 54.6693 66.2739 55.8493 65.5939C57.7293 64.5039 60.1593 63.4539 60.8493 61.1939C61.2193 59.9839 60.9593 58.6839 60.7593 57.4639C60.5393 56.1239 60.3193 54.7739 60.0993 53.4339C59.2193 48.0139 58.3393 42.5939 57.4593 37.1739C57.0693 34.7839 56.7593 32.3439 55.7193 30.1239C54.8693 28.3139 53.4493 26.8539 51.7593 25.8139C48.0393 23.5039 43.4993 23.1339 39.6293 21.1539C38.4893 20.5739 37.4693 22.2939 38.6193 22.8839L38.6393 22.8539Z" fill="#191817"/>
<path d="M42.8894 63.7438C38.7894 68.1238 34.4094 73.5038 35.0194 79.9238C35.1394 81.2538 35.4994 82.8038 37.0894 82.9338C38.3094 83.0338 39.6494 82.6038 40.7594 82.1238C43.0594 81.1338 45.0594 79.2738 46.1294 77.0038C46.4294 76.3538 46.6894 75.6838 46.8494 74.9938C47.0494 74.1338 47.1394 73.2538 47.3994 72.4038C47.8894 70.8238 49.0194 69.5338 50.0794 68.3038C50.9194 67.3338 49.5094 65.9138 48.6694 66.8938C47.8294 67.8738 46.9094 68.9438 46.2494 70.1138C45.5894 71.2838 45.3094 72.5638 45.0494 73.8938C44.6394 76.0438 43.5194 77.9438 41.7594 79.2638C40.8894 79.9138 39.8894 80.4138 38.8394 80.6938C38.3894 80.8138 37.9194 80.9138 37.4494 80.9338C37.3894 80.9338 37.1494 80.8838 37.2194 80.9338C37.2894 80.9838 37.2994 81.0338 37.1894 80.8338C37.0794 80.6338 37.0794 80.3538 37.0494 80.1338C36.7194 77.4638 37.4794 74.7438 38.7294 72.4038C40.1694 69.6838 42.2294 67.3838 44.3194 65.1538C45.1994 64.2138 43.7893 62.7938 42.9093 63.7438H42.8894Z" fill="#191817"/>
<path d="M38.1693 22.0939C37.2893 28.1939 36.4193 34.3039 35.5393 40.4039C35.0993 43.4539 34.6493 46.5039 34.2193 49.5539C34.0093 51.0639 33.9293 52.5039 34.4293 53.9639C34.8793 55.2839 35.5493 56.5439 36.2093 57.7739C37.6993 60.5439 39.4893 63.1439 41.4993 65.5639C42.3193 66.5539 43.7293 65.1339 42.9093 64.1539C41.2193 62.1239 39.7193 59.9439 38.4193 57.6539C37.7793 56.5139 37.1493 55.3539 36.6393 54.1539C36.0593 52.8039 35.9493 51.5439 36.1493 50.0939C36.9393 44.2339 37.8293 38.3839 38.6693 32.5339L40.0893 22.6339C40.1693 22.1039 39.9593 21.5639 39.3893 21.4039C38.9193 21.2739 38.2393 21.5639 38.1593 22.1039L38.1693 22.0939Z" fill="#191817"/>
<path d="M27.0193 25.7741C27.2693 31.4341 27.5293 37.0941 27.7793 42.7541C27.8993 45.5241 28.0793 48.3041 28.1193 51.0741C28.1493 53.5241 28.0093 56.0641 27.0493 58.3541C26.1793 60.4141 24.6293 62.3241 22.4793 63.0841C21.2693 63.5141 21.7893 65.4441 23.0093 65.0141C27.8493 63.3041 29.7993 58.1741 30.0793 53.4341C30.2493 50.5941 29.9993 47.7241 29.8793 44.8841L29.4793 35.8941L29.0293 25.7841C28.9693 24.5041 26.9693 24.4941 27.0293 25.7841L27.0193 25.7741Z" fill="#191817"/>
<path d="M25.3894 21.7835L19.3694 24.5135C17.4594 25.3835 15.4894 26.1735 13.6294 27.1435C11.8794 28.0535 10.8394 29.4135 10.2594 31.2835C9.63936 33.2535 9.13936 35.2635 8.62936 37.2635C7.56936 41.4235 6.63936 45.6235 5.83936 49.8335C5.44936 51.9235 5.04936 54.0135 4.75936 56.1235C4.46936 58.2335 4.74936 60.0035 6.00936 61.6735C7.38936 63.5035 9.14936 65.0935 10.7394 66.7335C12.4694 68.5235 14.2094 70.3135 15.9494 72.0935C16.4894 72.6435 17.3994 72.3535 17.6194 71.6535C18.3594 69.2735 20.6094 67.4635 23.1094 67.3135C23.8794 67.2635 24.3394 66.5035 23.9694 65.8135C23.0894 64.1435 21.7994 62.7535 20.5594 61.3435C19.3194 59.9335 18.2194 58.5835 17.7394 56.8235C17.1294 54.6035 17.3894 52.1435 17.3994 49.8635C17.4194 47.4235 17.4294 44.9935 17.4494 42.5535C17.4694 39.7435 17.4894 36.9335 17.4994 34.1235C17.4994 32.8335 15.5094 32.8335 15.4994 34.1235C15.4694 39.1635 15.4294 44.2035 15.3994 49.2435C15.3794 51.6735 15.1894 54.1835 15.6294 56.5835C15.9894 58.5635 17.0394 60.2335 18.2894 61.7635C19.6494 63.4235 21.2194 64.9035 22.2294 66.8235L23.0894 65.3235C19.6794 65.5435 16.6794 67.8635 15.6694 71.1335L17.3394 70.6935C14.4594 67.7435 11.5694 64.7935 8.71936 61.8135C8.12936 61.2035 7.55936 60.5735 7.13936 59.8235C6.69936 59.0435 6.56936 58.2035 6.61936 57.3135C6.71936 55.3635 7.19936 53.3835 7.54936 51.4635C8.28936 47.4435 9.14936 43.4335 10.1194 39.4635C10.5994 37.4935 11.1194 35.5335 11.6594 33.5835C12.1194 31.9235 12.4494 30.2035 14.0094 29.2335C14.8594 28.7035 15.8094 28.3235 16.7294 27.9135L19.9094 26.4735L26.3894 23.5335C26.8794 23.3135 26.9994 22.5935 26.7494 22.1635C26.4494 21.6535 25.8794 21.5835 25.3794 21.8035L25.3894 21.7835Z" fill="#191817"/>
<path d="M22.7593 66.7143C24.1493 68.1943 25.3193 69.8543 26.2493 71.6543C26.7093 72.5443 27.1293 73.4743 27.4293 74.4343C27.6593 75.1843 27.8893 76.1643 27.3093 76.8243C26.6993 77.5243 25.6493 76.8643 25.0493 76.4843C24.1693 75.9243 23.3093 75.3043 22.4893 74.6643C20.8093 73.3443 19.2593 71.8743 17.8293 70.2943C16.9693 69.3343 15.5493 70.7543 16.4193 71.7043C17.7493 73.1843 19.1993 74.5543 20.7493 75.8043C21.5293 76.4343 22.3393 77.0443 23.1693 77.6243C23.9993 78.2043 24.7993 78.7543 25.7493 79.0043C27.7293 79.5143 29.4193 78.1443 29.6393 76.1743C29.8593 74.2043 28.8193 72.2643 27.9793 70.6343C26.9693 68.6843 25.6793 66.8843 24.1693 65.2843C23.2893 64.3443 21.8693 65.7643 22.7593 66.6943V66.7143Z" fill="#191817"/>
<path d="M27.9993 28.8937C28.9193 30.9637 30.4593 32.6937 32.3593 33.9037C32.8093 34.1937 33.4693 34.0037 33.7293 33.5437C35.4393 30.5837 37.1493 27.6237 38.8493 24.6637C39.4893 23.5437 37.7693 22.5337 37.1193 23.6537C35.4093 26.6137 33.6993 29.5737 31.9993 32.5337L33.3693 32.1737C31.7393 31.1337 30.5093 29.6437 29.7193 27.8737C29.4993 27.3837 28.7793 27.2637 28.3493 27.5137C27.8393 27.8137 27.7693 28.3837 27.9893 28.8837L27.9993 28.8937Z" fill="#191817"/>
<path d="M28.4594 33.2335C28.8194 33.0835 28.8994 33.1035 29.2394 33.2135C29.5794 33.3235 29.8994 33.4835 30.2394 33.6335C31.1294 34.0235 32.0794 34.3435 33.0394 34.0235C33.9994 33.7035 34.6294 33.0435 35.2794 32.3535C35.6694 31.9435 36.4694 31.0935 37.0594 31.4335C38.1794 32.0735 39.1894 30.3435 38.0694 29.7035C37.0194 29.1035 35.7994 29.3735 34.8594 30.0535C34.0894 30.6035 33.5494 31.4835 32.7394 31.9735C32.0694 32.3735 31.4294 31.9935 30.7694 31.6935C29.8794 31.2935 28.8894 30.9135 27.9194 31.3135C27.4194 31.5235 27.0694 31.9735 27.2194 32.5435C27.3494 33.0135 27.9494 33.4535 28.4494 33.2435L28.4594 33.2335Z" fill="#191817"/>
<path d="M23.0794 65.6542C26.0994 66.6742 29.2994 67.0442 32.4694 66.7842C35.6394 66.5242 38.8994 66.2542 41.8194 65.0542C42.3194 64.8442 42.6694 64.3942 42.5194 63.8242C42.3894 63.3542 41.7894 62.9142 41.2894 63.1242C38.5194 64.2642 35.4294 64.5442 32.4694 64.7842C29.5094 65.0242 26.4794 64.6942 23.6094 63.7242C22.3894 63.3142 21.8594 65.2442 23.0794 65.6542Z" fill="#191817"/>
<path d="M55.9493 65.614C59.9693 68.984 59.5393 74.954 58.5193 79.564C57.8193 82.744 56.7993 85.844 55.8493 88.954C54.8993 92.064 53.8893 95.384 52.9093 98.604C51.8193 102.174 50.7393 105.754 49.6493 109.324C49.2693 110.554 51.1993 111.084 51.5793 109.854C53.6093 103.184 55.6393 96.514 57.6693 89.834C58.6393 86.644 59.6893 83.464 60.4193 80.204C61.0393 77.444 61.4293 74.584 61.0693 71.754C60.7093 68.924 59.6193 66.084 57.3593 64.194C56.3793 63.374 54.9593 64.784 55.9493 65.604V65.614Z" fill="#191817"/>
<path d="M46.8593 74.4135C45.5293 82.1035 44.4393 89.8435 43.5693 97.5935C43.1393 101.423 42.7693 105.273 42.4593 109.113C42.3093 110.993 42.1693 112.873 42.0393 114.763C41.9793 115.673 41.8893 116.593 41.8693 117.513C41.8493 118.383 42.0393 119.243 42.7393 119.823C43.4393 120.403 44.3793 120.483 45.2593 120.593C46.2993 120.713 47.3393 120.793 48.3893 120.843C50.5593 120.933 52.7393 120.843 54.8993 120.603C55.4693 120.543 55.8493 120.193 55.8993 119.603C56.4193 112.973 50.5493 106.753 43.9393 106.763C42.6493 106.763 42.6493 108.763 43.9393 108.763C49.5293 108.763 54.3393 114.053 53.8993 119.603L54.8993 118.603C53.0593 118.813 51.2093 118.903 49.3593 118.873C48.5593 118.863 47.7493 118.823 46.9493 118.763C46.1493 118.703 45.1593 118.693 44.3493 118.443C43.7693 118.263 43.8693 117.753 43.8893 117.223C43.9393 116.243 44.0093 115.253 44.0793 114.273C44.1993 112.473 44.3393 110.673 44.4893 108.873C45.0893 101.603 45.8893 94.3435 46.8993 87.1135C47.4693 83.0435 48.0993 78.9935 48.7993 74.9435C48.8893 74.4135 48.6593 73.8635 48.0993 73.7135C47.6193 73.5835 46.9593 73.8735 46.8693 74.4135H46.8593Z" fill="#191817"/>
<path d="M16.1294 82.2542L46.3294 83.0242C47.6194 83.0542 47.6194 81.0542 46.3294 81.0242L16.1294 80.2542C14.8394 80.2242 14.8394 82.2242 16.1294 82.2542Z" fill="#191817"/>
<path d="M13.6594 73.5937C16.1194 85.5237 17.1894 97.7237 16.8694 109.894C16.7794 113.364 16.5694 116.824 16.2494 120.284L17.2494 119.284C15.1094 119.204 12.9694 119.124 10.8394 119.054L7.62936 118.934L6.02936 118.874C5.58936 118.854 5.07936 118.914 4.64936 118.814C4.62936 118.814 4.68936 118.984 4.64936 118.904C4.60936 118.804 4.66936 118.634 4.69936 118.534C4.79936 118.144 5.04936 117.794 5.25936 117.454C5.79936 116.584 6.35936 115.734 6.93936 114.884C8.08936 113.194 9.30936 111.564 10.5894 109.974C10.9294 109.554 10.9994 108.974 10.5894 108.564C10.2394 108.214 9.51936 108.144 9.17936 108.564C7.63936 110.464 6.17936 112.434 4.81936 114.464C4.20936 115.374 3.51936 116.294 3.04936 117.284C2.65936 118.104 2.42936 119.124 2.96936 119.944C3.61936 120.934 4.86936 120.824 5.89936 120.864L9.59936 121.004C12.1494 121.094 14.6994 121.194 17.2494 121.284C17.8294 121.304 18.1994 120.804 18.2494 120.284C19.3794 107.974 19.0694 95.5537 17.3694 83.3137C16.8894 79.8737 16.2994 76.4537 15.5994 73.0537C15.3394 71.7937 13.4094 72.3237 13.6694 73.5837L13.6594 73.5937Z" fill="#191817"/>
<path d="M9.17932 110.584C11.9393 110.734 14.7093 110.764 17.4693 110.664C18.7493 110.624 18.7593 108.614 17.4693 108.664C14.7093 108.764 11.9393 108.734 9.17932 108.584C8.63932 108.554 8.17932 109.064 8.17932 109.584C8.17932 110.154 8.63932 110.554 9.17932 110.584Z" fill="#191817"/>
<path d="M8.8993 64.3341C6.9793 65.8841 4.46931 66.5541 2.70931 68.3441C1.71931 69.3541 1.15931 70.6041 1.01931 72.0041C0.859305 73.6241 1.28931 75.2641 1.63931 76.8341C3.21931 83.8841 4.7993 90.9341 6.3793 97.9941C7.2693 101.964 8.15931 105.934 9.04931 109.914C9.32931 111.174 11.2593 110.634 10.9793 109.384C9.45931 102.574 7.92931 95.7641 6.40931 88.9541C5.64931 85.5541 4.88931 82.1441 4.11931 78.7441C3.75931 77.1241 3.28931 75.4841 3.06931 73.8341C2.88931 72.5341 2.96931 71.1841 3.80931 70.1241C4.57931 69.1541 5.70931 68.5441 6.76931 67.9641C7.99931 67.2941 9.21931 66.6441 10.3093 65.7641C10.7293 65.4241 10.6593 64.7041 10.3093 64.3541C9.88931 63.9341 9.3193 64.0141 8.8993 64.3541V64.3341Z" fill="#191817"/>
</svg>
