<svg width="67" height="121" viewBox="0 0 67 121" fill="none" xmlns="http://www.w3.org/2000/svg">
<path d="M64.9992 115.654C64.9392 115.564 64.8792 115.484 64.8192 115.404C64.9492 115.124 64.9692 114.794 64.7792 114.514C63.5792 112.754 62.0392 111.264 60.2392 110.164C60.3792 105.264 60.5192 100.364 60.6692 95.4544C60.7292 94.8844 60.7792 94.3044 60.8292 93.7344C61.5092 87.4944 61.9092 81.2244 61.2892 74.9544C61.2692 74.7144 61.2092 74.5144 61.1292 74.3244C61.1292 73.9044 61.1092 73.4844 61.0992 73.0644C61.0992 73.0344 61.0992 73.0144 61.0992 72.9944C61.2492 72.6444 61.3092 72.2344 61.2092 71.7744C61.1592 71.5544 61.0992 71.3344 61.0392 71.1244C60.9692 69.6544 60.6092 68.2244 59.2192 67.4944C59.3392 67.4144 59.4592 67.3344 59.5792 67.2444C59.7892 67.0844 59.9792 66.9144 60.1392 66.7244C61.1092 66.5544 61.6792 65.7244 61.7892 64.7544C62.2692 60.5644 62.3492 56.3444 62.0892 52.1344C62.0892 50.3444 61.9392 48.5644 61.6492 46.7844C61.2992 44.6144 60.6692 42.5144 59.0992 40.9044C58.9992 40.8044 58.8992 40.7244 58.7792 40.6544C58.7392 40.5344 58.6992 40.4244 58.6392 40.3044C56.7492 36.6144 54.4492 33.1644 51.7892 29.9944C51.0892 28.9344 50.3892 27.8844 49.6792 26.8244C49.4592 26.4944 49.1892 26.2744 48.8992 26.1244C48.4692 25.5744 47.8892 25.1544 47.2592 24.8344C47.0292 24.6244 46.8092 24.4144 46.5792 24.2044C46.1492 23.8144 45.6692 23.6644 45.1992 23.6744C45.0592 23.6044 44.9192 23.5544 44.7492 23.5144C44.1592 23.3644 43.5792 23.2844 42.9992 23.2244C42.3092 23.1044 41.6092 22.9944 40.9192 22.8744C40.7192 22.8444 40.5292 22.8444 40.3492 22.8544C40.4292 22.6144 40.4892 22.3544 40.4992 22.0744C40.6892 18.5944 40.5692 15.1644 40.1792 11.7444C40.0892 10.1044 39.8592 8.47437 39.4392 6.78437C39.2392 5.97437 38.8192 5.42437 38.3092 5.07437C38.3092 4.93437 38.2992 4.78437 38.2692 4.63437C38.1792 3.46437 37.7192 2.37437 36.8092 1.51437C36.0992 0.844368 35.1892 0.844368 34.4792 1.21437C33.7592 0.994368 32.9992 0.874368 32.2392 0.884368C29.7292 0.934368 27.2792 2.07437 25.1492 3.32437C23.0992 4.51437 20.7192 6.01437 20.4492 8.58437C20.4492 8.62437 20.4492 8.66437 20.4492 8.70437C19.9892 9.19437 19.8392 9.91437 19.9392 10.6344C20.2292 12.6944 20.7792 14.6944 21.5792 16.6244C22.2792 18.3144 23.2292 20.5744 25.1192 20.8144C24.8392 21.8544 24.5692 22.8944 24.3092 23.9344C23.9992 24.3444 23.6592 24.7444 23.3292 25.1344C22.9392 25.4444 22.5592 25.7644 22.1792 26.0944C20.3592 27.5144 18.4992 28.8844 16.5992 30.1944C15.2892 30.9644 14.0092 31.7844 12.7592 32.6644C12.2392 33.0344 11.9592 33.5044 11.8692 33.9944C11.3992 34.7444 11.0292 35.4744 10.7692 36.2244C10.6492 36.4644 10.5492 36.7344 10.5092 37.0444C10.5092 37.1144 10.4992 37.1844 10.4892 37.2444C10.3592 37.8244 10.2892 38.4244 10.2792 39.0544C10.1692 40.0044 10.0792 40.9544 9.99921 41.8944C9.92921 42.1244 9.87921 42.3644 9.85921 42.6244C9.58921 46.5044 9.48921 50.3844 9.54921 54.2644C9.54921 54.3344 9.52921 54.3944 9.52921 54.4644L9.69921 59.1644C9.71921 59.5044 9.78921 59.7944 9.88921 60.0744C9.87921 60.1844 9.86921 60.3044 9.86921 60.4244C9.88921 60.9144 9.94921 61.3544 10.0192 61.7744C9.88921 62.3044 9.97921 62.8844 10.3192 63.4744C10.3392 63.5244 10.3592 63.5844 10.3692 63.6344C10.4492 63.8644 10.5592 64.0944 10.6992 64.3244C11.0692 65.3544 11.9192 65.8944 12.8692 66.0144C12.9192 66.0544 12.9692 66.0944 13.0292 66.1344C13.3592 66.3744 13.7092 66.5244 14.0492 66.5944C14.9692 67.1444 15.9992 67.5444 17.0992 67.8944C17.5292 68.3944 18.0592 68.7744 18.6592 69.0844C14.7392 71.0544 10.0092 74.2344 10.4692 78.8444C10.3292 80.7744 10.3492 82.7344 10.3592 84.6744C10.3892 88.8144 10.5992 92.9544 10.8192 97.0844C10.8392 97.5544 10.9892 97.9244 11.2092 98.2244C11.2792 101.374 11.4092 104.534 11.5892 107.674C11.5592 109.484 11.5492 111.294 11.5692 113.104C11.4792 113.104 11.3892 113.104 11.2992 113.104C11.2192 112.974 11.0792 112.884 10.8992 112.904C10.3492 112.964 9.80921 113.064 9.27921 113.184C6.85921 113.534 4.59921 114.564 2.74921 116.194C2.61921 116.304 2.57921 116.434 2.59921 116.554C2.31921 116.804 2.03921 117.064 1.78921 117.354C1.73921 117.414 1.70921 117.474 1.68921 117.544C1.54921 117.644 1.40921 117.724 1.26921 117.824C0.839206 118.144 1.06921 118.894 1.65921 118.734C1.67921 118.734 1.69921 118.724 1.72921 118.714C1.77921 118.734 1.82921 118.744 1.88921 118.754C2.31921 118.774 2.73921 118.774 3.16921 118.784C3.24921 118.874 3.36921 118.924 3.51921 118.924C4.03921 118.924 4.55921 118.924 5.07921 118.914C6.65921 119.164 8.26921 119.154 9.86921 119.004C9.97921 119.134 10.1392 119.214 10.3592 119.164C10.4492 119.144 10.5392 119.124 10.6292 119.104C11.9492 119.414 13.3192 119.244 14.6792 119.104C16.2392 118.934 17.7992 118.714 19.3592 118.494C19.8692 118.554 20.3792 118.514 20.7792 118.284C21.1092 118.724 21.7392 118.384 21.6592 117.864C21.6392 117.714 21.6392 117.564 21.6292 117.414C21.7792 117.344 21.8892 117.194 21.8892 116.974C21.8892 116.214 21.9492 115.454 22.0792 114.704C22.1292 114.434 21.9992 114.244 21.8192 114.154C22.2492 104.474 23.0392 94.8144 24.2092 85.1944C24.2392 84.9344 24.2092 84.6944 24.1392 84.4844C24.2492 83.9044 24.3692 83.3344 24.4892 82.7644C25.5592 82.1044 26.6592 81.5144 27.7892 80.9944C30.7792 80.3844 33.6992 79.5244 36.5392 78.3744C36.8692 78.2444 37.1292 78.0644 37.3392 77.8544C37.3892 77.8544 37.4392 77.8744 37.4992 77.8744C39.9592 78.0144 42.3792 78.4144 44.7592 79.0944C45.8192 79.3944 46.9692 79.6944 47.9492 80.2044C48.4292 80.4544 48.7192 80.8244 48.9292 81.2644C49.2992 85.2444 49.6692 89.2244 50.0392 93.2044C49.6192 97.0144 49.5292 100.844 49.7892 104.664C49.7892 104.664 49.7892 104.664 49.7892 104.674C49.6692 105.954 49.5792 107.224 49.5592 108.504C49.4092 110.634 49.3792 112.764 49.5292 114.904C49.5392 115.044 49.5792 115.174 49.6292 115.284C49.6092 115.324 49.5792 115.364 49.5592 115.404C49.4892 115.594 49.4792 115.774 49.4992 115.944C49.4592 117.114 50.6692 117.354 51.9392 117.334C52.1392 117.384 52.3392 117.424 52.5292 117.444C53.6892 117.534 54.8692 117.494 56.0292 117.484C58.4492 117.484 60.8792 117.394 63.2992 117.234C63.4192 117.234 63.5192 117.194 63.6192 117.154H64.1392C64.8592 117.154 65.4392 116.284 64.9992 115.644V115.654ZM51.1192 44.7544C51.6892 45.6344 52.2292 46.5344 52.7592 47.4444C53.3692 48.6844 53.8392 49.9644 54.1892 51.2844C53.7692 52.7244 54.1692 54.5644 54.2292 55.9544C54.2392 56.1444 54.2892 56.3144 54.3392 56.4844C54.2792 58.3944 54.2192 60.3044 54.1692 62.2144C54.0792 62.2344 53.9992 62.2444 53.9092 62.2744C53.6592 62.3444 53.4092 62.4344 53.1592 62.5244C52.6692 62.0444 52.1892 61.5444 51.7392 61.0244C51.5892 60.8444 51.4292 60.6644 51.2792 60.4744C51.2192 60.4044 51.1692 60.3344 51.1092 60.2644C51.0992 60.2444 51.0892 60.2344 51.0692 60.2144C50.9392 60.0444 50.8192 59.8544 50.6892 59.6844C50.2592 56.1144 49.6792 52.5744 48.9692 49.0444C49.0592 46.8044 48.9292 44.5544 48.6092 42.3344L50.8892 44.2644C50.9392 44.4344 50.9992 44.6044 51.0992 44.7644L51.1192 44.7544ZM18.3492 59.5544C18.5192 59.1244 18.6392 58.6344 18.6492 58.0844C18.6792 56.9544 18.7392 55.8244 18.8192 54.7144C18.9692 53.4344 19.1292 52.1444 19.2892 50.8644C20.1292 54.2344 21.0492 57.5744 22.0492 60.8844L18.4492 59.5844C18.4492 59.5844 18.3792 59.5644 18.3392 59.5544H18.3492Z" fill="#673B82"/>
<path d="M38.3093 7.55392C38.6893 9.79392 38.9993 12.0439 39.2293 14.3039C39.4593 16.5639 39.7693 18.8039 39.3293 20.9739C39.1693 21.7539 38.9293 22.5939 38.3493 23.1739C37.6893 23.8239 36.8593 23.5739 36.0493 23.4039C35.1393 23.2039 33.9393 22.9339 33.3393 23.8739C33.0893 24.2639 32.9593 24.7439 32.7893 25.1739C32.5593 25.7439 32.3293 26.3239 32.0993 26.8939C31.8993 27.3939 32.3193 27.9939 32.7993 28.1239C33.3693 28.2839 33.8293 27.9339 34.0293 27.4239C34.2693 26.8139 34.5193 26.1939 34.7593 25.5839C34.7893 25.5039 35.0093 25.0139 34.9893 25.0039C34.6293 25.1639 34.6093 25.2339 34.9293 25.2139C35.0593 25.2339 35.1793 25.2539 35.2993 25.2839C36.2993 25.4839 37.3093 25.7739 38.3193 25.4739C40.2093 24.8939 41.0493 22.8339 41.3293 21.0439C41.6893 18.7339 41.4293 16.3739 41.1893 14.0639C40.9493 11.7539 40.6293 9.36392 40.2293 7.03392C40.1393 6.50392 39.4793 6.20392 38.9993 6.33392C38.4393 6.48392 38.2093 7.03392 38.2993 7.56392L38.3093 7.55392Z" fill="#191817"/>
<path d="M30.6492 15.2541C30.4792 14.8741 30.2692 14.4941 29.9492 14.2141C29.5492 13.8741 29.0192 13.6741 28.4892 13.7041C27.5392 13.7741 26.6992 14.3341 26.2292 15.1641C25.7992 15.9141 25.6792 16.8141 25.8692 17.6641C26.0592 18.5141 26.6192 19.2041 27.3292 19.6341C28.1292 20.1241 29.1692 20.2741 30.0592 19.9741C30.5592 19.8141 30.9292 19.2741 30.7592 18.7441C30.5992 18.2441 30.0592 17.8741 29.5292 18.0441C29.4692 18.0641 29.3992 18.0841 29.3392 18.1041C29.2992 18.1041 29.0992 18.1441 29.2792 18.1241C29.4592 18.1041 29.2292 18.1241 29.1792 18.1241C29.1092 18.1241 29.0492 18.1241 28.9792 18.1241C28.9392 18.1241 28.8992 18.1241 28.8692 18.1241C28.7592 18.1241 28.9992 18.1441 28.9892 18.1441C28.9392 18.1241 28.8792 18.1241 28.8192 18.1141C28.7492 18.0941 28.6892 18.0841 28.6292 18.0641C28.5992 18.0641 28.5792 18.0441 28.5492 18.0341C28.3792 17.9841 28.7092 18.1141 28.5992 18.0541C28.4892 17.9941 28.3792 17.9441 28.2692 17.8741C28.2492 17.8541 28.2192 17.8441 28.1992 17.8241C28.1092 17.7641 28.2892 17.8941 28.2892 17.8941C28.2392 17.8341 28.1692 17.7941 28.1192 17.7441C28.0792 17.7041 28.0392 17.6641 27.9992 17.6141C28.1192 17.7941 27.8892 17.4841 27.9992 17.6141C27.9692 17.5641 27.9392 17.5141 27.9092 17.4641C27.8892 17.4341 27.8792 17.3941 27.8592 17.3641C27.7992 17.2541 27.9292 17.5641 27.8892 17.4441C27.8492 17.3241 27.8092 17.2141 27.7892 17.0841C27.7892 17.0541 27.7892 17.0241 27.7692 17.0041C27.7392 16.8741 27.7892 17.2241 27.7792 17.0941C27.7792 17.0241 27.7792 16.9641 27.7792 16.8941C27.7792 16.8241 27.7792 16.7641 27.7792 16.6941C27.7792 16.6641 27.7792 16.6341 27.7792 16.6041C27.7792 16.6041 27.7392 16.8341 27.7592 16.7241C27.7892 16.5841 27.8192 16.4441 27.8692 16.3041C27.9192 16.1341 27.7792 16.4841 27.8592 16.3341C27.8892 16.2741 27.9192 16.2141 27.9492 16.1541C27.9792 16.1041 28.0092 16.0541 28.0392 16.0141C28.0892 15.9241 27.9692 16.1041 27.9692 16.1041C27.9992 16.0741 28.0292 16.0341 28.0592 15.9941C28.0992 15.9541 28.1392 15.9141 28.1792 15.8741C28.2092 15.8441 28.3092 15.7641 28.1892 15.8541C28.1592 15.8741 28.0692 15.9441 28.1892 15.8541C28.2392 15.8241 28.2892 15.7941 28.3392 15.7641C28.3692 15.7441 28.4192 15.7341 28.4492 15.7141C28.4092 15.7341 28.2492 15.7841 28.3792 15.7541C28.4492 15.7341 28.5392 15.7241 28.6092 15.6941C28.6092 15.6941 28.3892 15.7041 28.4892 15.7141C28.5292 15.7141 28.5692 15.7141 28.5992 15.7141C28.6292 15.7141 28.6592 15.7141 28.6892 15.7141C28.4592 15.7141 28.5192 15.7141 28.6192 15.7141C28.7092 15.7141 28.5192 15.6641 28.5092 15.6641C28.5392 15.6841 28.5792 15.7041 28.6092 15.7141C28.7492 15.7841 28.5592 15.6941 28.5492 15.6641C28.5492 15.6841 28.6192 15.7341 28.6392 15.7541C28.7292 15.8641 28.6592 15.7741 28.6392 15.7541C28.5392 15.6341 28.6392 15.7741 28.6692 15.8041C28.7592 15.9541 28.8292 16.1041 28.8992 16.2641C29.1092 16.7441 29.8492 16.8941 30.2692 16.6241C30.7692 16.3041 30.8592 15.7641 30.6292 15.2541H30.6492Z" fill="#191817"/>
<path d="M30.2992 16.3142C32.0092 14.9642 31.9392 12.6442 31.9192 10.6842C31.9192 10.1642 31.9192 9.63421 32.0192 9.12421C32.0492 8.96421 32.0992 8.58421 32.2092 8.47421C32.2692 8.41421 32.1892 8.47421 32.1992 8.46421C32.2192 8.45421 32.5492 8.49421 32.5592 8.49421C33.7892 8.59421 35.0092 8.67421 36.2492 8.65421C37.2092 8.64421 38.2692 8.57421 39.0292 7.91421C39.9492 7.12421 39.8492 5.96421 39.5792 4.89421C39.3392 3.91421 39.0292 2.94421 38.4092 2.13421C37.7892 1.32421 36.8692 0.744212 35.8792 0.424212C33.8992 -0.225788 31.5992 -0.0357882 29.5892 0.374212C27.4292 0.814212 25.3192 1.69421 23.5092 2.95421C21.6992 4.21421 20.1792 5.73421 19.5492 7.79421C18.8592 10.0542 19.6092 12.5242 20.1592 14.7342C20.4792 16.0142 20.8692 17.2642 21.4192 18.4642C21.8792 19.4642 22.5192 20.4842 23.5092 21.0442C24.4992 21.6042 25.6892 21.5742 26.5992 20.8242C27.4592 20.1242 27.7892 18.9842 27.2292 17.9842C26.5992 16.8642 24.8692 17.8642 25.4992 18.9942C25.6392 19.2442 24.9892 19.4542 24.8392 19.4342C24.1992 19.3442 23.7492 18.5942 23.4692 18.0842C22.5692 16.4542 22.1692 14.5842 21.7592 12.7842C21.3492 10.9842 20.9292 9.17421 21.8292 7.49421C22.6292 6.02421 23.9992 4.93421 25.4192 4.09421C26.9692 3.17421 28.6692 2.55421 30.4392 2.23421C32.0192 1.94421 33.7992 1.84421 35.3492 2.34421C36.8992 2.84421 37.5892 4.45421 37.7892 6.00421C37.8692 6.61421 37.1592 6.61421 36.6892 6.63421C35.6692 6.67421 34.6492 6.63421 33.6292 6.57421C32.6092 6.51421 31.5692 6.23421 30.7992 7.02421C30.0992 7.74421 29.9692 8.96421 29.9192 9.91421C29.8392 11.5442 30.3492 13.7242 28.8792 14.8942C28.4592 15.2342 28.5292 15.9542 28.8792 16.3042C29.2992 16.7242 29.8692 16.6442 30.2892 16.3042L30.2992 16.3142Z" fill="#191817"/>
<path d="M23.9993 21.0643C23.7593 25.0643 19.4093 27.1943 16.3893 28.9543C14.7193 29.9243 13.0293 30.9943 11.7293 32.4443C10.2193 34.1143 9.50929 36.1143 9.20929 38.3243C8.87929 40.8243 8.77929 43.3743 8.67929 45.8943C8.57929 48.4143 8.54929 51.1043 8.58929 53.7043C8.62929 56.3043 8.72929 58.8843 8.91929 61.4643C8.99929 62.5543 9.13929 63.6343 9.61929 64.6243C10.0793 65.5643 10.8993 66.2843 11.7893 66.8043C12.9093 67.4443 14.1693 67.8743 15.3793 68.3143C16.6693 68.7843 17.9693 69.2143 19.2893 69.5943C21.9593 70.3743 24.6793 70.9643 27.4293 71.3743C27.9793 71.4543 28.4793 71.2443 28.6593 70.6743C29.4793 68.0843 30.9493 65.7743 32.9193 63.9043C33.8593 63.0143 32.4393 61.6043 31.5093 62.4943C29.2893 64.6043 27.6593 67.2343 26.7393 70.1443L27.9693 69.4443C23.2393 68.7343 18.5993 67.4843 14.1593 65.7143C13.3193 65.3743 12.4193 64.9843 11.7993 64.3043C11.1293 63.5643 11.0093 62.5143 10.9293 61.5643C10.7393 59.0743 10.6393 56.5743 10.5993 54.0743C10.5093 49.1243 10.6193 44.1443 11.1093 39.2143C11.3093 37.1743 11.8393 35.2543 13.2693 33.7243C14.5593 32.3443 16.1993 31.3743 17.8193 30.4443C21.4593 28.3443 25.7193 25.7343 26.0093 21.0643C26.0893 19.7743 24.0893 19.7843 24.0093 21.0643H23.9993Z" fill="#191817"/>
<path d="M17.7792 40.2743C19.1092 45.1043 18.3692 50.1544 17.7392 55.0344C17.5892 56.1944 17.3092 57.4443 17.3492 58.6143C17.3892 59.7843 18.0392 60.5943 19.1492 60.9443C20.3492 61.3243 21.6192 61.5543 22.8392 61.8443C24.0592 62.1343 25.3792 62.4643 26.6492 62.7643C28.0792 63.1143 29.5092 63.4543 30.9392 63.8043C31.5192 63.9443 32.1092 64.1143 32.6192 63.6843C33.2492 63.1543 33.0592 62.2943 32.4192 61.8843C32.0092 61.6143 31.5492 61.7743 31.2092 62.0443L31.1492 62.0943C30.7192 62.4243 30.7992 63.1643 31.1492 63.5043C31.5692 63.9243 32.1392 63.8343 32.5592 63.5043L32.6192 63.4543L31.4092 63.6143L31.4992 63.6743L30.9992 62.8143V62.9143C31.1692 62.6243 31.3392 62.3343 31.4992 62.0543L31.4092 62.1143L31.9092 61.9743C31.6392 61.9943 30.9992 61.7743 30.6192 61.6843C30.0592 61.5543 29.5092 61.4143 28.9492 61.2843C27.8392 61.0143 26.7292 60.7443 25.6092 60.4743C24.4892 60.2043 23.4592 59.9543 22.3892 59.6943C21.8692 59.5643 21.3592 59.4443 20.8392 59.3143C20.4692 59.2243 19.7192 59.1943 19.4392 58.9343C19.2492 58.7543 19.3192 58.4043 19.3392 58.1543C19.3792 57.6243 19.4592 57.0943 19.5192 56.5643C19.6492 55.4643 19.7992 54.3743 19.9392 53.2743C20.2092 51.1643 20.4392 49.0543 20.4892 46.9243C20.5392 44.5043 20.3192 42.0743 19.6792 39.7443C19.3392 38.5043 17.4092 39.0343 17.7492 40.2743H17.7792Z" fill="#191817"/>
<path d="M21.9893 26.544C26.5493 33.534 29.8593 41.284 31.7393 49.414C32.2793 51.724 32.6993 54.064 32.9993 56.414C33.0693 56.954 33.4093 57.414 33.9993 57.414C34.4893 57.414 35.0693 56.954 34.9993 56.414C33.9193 47.834 31.3493 39.494 27.3793 31.814C26.2693 29.654 25.0393 27.564 23.7093 25.534C23.0093 24.464 21.2793 25.464 21.9793 26.544H21.9893Z" fill="#191817"/>
<path d="M19.9693 28.0344L19.4193 32.4944C19.3693 32.8944 19.7593 33.3844 20.1493 33.4544C20.8393 33.5844 21.5293 33.6544 22.2393 33.6144L21.2793 32.8844C21.3593 33.3844 20.7993 34.0744 20.6093 34.5144C20.2793 35.2744 20.1793 36.0644 20.5093 36.8444C20.8693 37.6944 21.5293 38.4444 22.0593 39.1844C22.6593 40.0244 23.2593 40.8544 23.8793 41.6744C25.0593 43.2644 26.2693 44.8444 27.5093 46.3944C28.1493 47.2044 28.7993 47.9944 29.4493 48.7944C29.7493 49.1644 30.0593 49.5244 30.3593 49.8944C30.5093 50.0744 30.6693 50.2544 30.8193 50.4344C30.9493 50.5844 31.2793 50.8544 31.3493 51.0244V50.4944L31.3193 50.6544L31.7793 50.0544L31.7093 50.1044L32.4793 50.0044L32.5493 50.0344L32.9093 50.3944L32.8793 50.3244L32.7193 51.5344L32.7693 51.4744C33.5793 50.4844 32.1693 49.0644 31.3593 50.0644L31.3093 50.1244C30.9993 50.5044 30.9493 50.8944 31.1493 51.3344C31.6693 52.4744 33.3093 51.9144 33.3093 50.7544C33.3093 50.1944 32.8793 49.7744 32.5393 49.3844C32.1293 48.9044 31.7193 48.4144 31.3193 47.9344C29.8593 46.1744 28.4293 44.3844 27.0393 42.5644C25.6493 40.7444 24.2893 38.8944 22.9693 37.0144C22.7293 36.6644 22.2793 36.2244 22.2893 35.7744C22.2893 35.4844 22.4893 35.1744 22.6193 34.9244C23.0493 34.0744 23.3593 33.3144 23.2093 32.3444C23.1393 31.9344 22.6493 31.5944 22.2493 31.6144C21.7193 31.6344 21.2093 31.6144 20.6893 31.5244L21.4193 32.4844L21.9693 28.0244C22.0393 27.4844 21.4593 27.0244 20.9693 27.0244C20.3693 27.0244 20.0393 27.4844 19.9693 28.0244V28.0344Z" fill="#191817"/>
<path d="M33.1893 26.0141C34.7593 35.6741 35.5393 45.4541 35.5693 55.2341C35.5693 56.5241 37.5693 56.5241 37.5693 55.2341C37.5393 45.2641 36.7093 35.3141 35.1193 25.4841C35.0293 24.9541 34.3693 24.6541 33.8893 24.7841C33.3193 24.9441 33.0993 25.4841 33.1893 26.0141Z" fill="#191817"/>
<path d="M37.9392 51.2146C39.0392 46.9646 39.9492 42.6745 40.6592 38.3445C40.8392 37.2745 40.9992 36.1946 41.1492 35.1246C41.2892 34.1246 41.5092 33.0946 41.3792 32.0746C41.1392 30.1446 39.5692 29.0545 37.9792 28.2045L37.7392 30.0346C39.9692 29.0946 40.7892 25.9145 38.8792 24.2045C37.9192 23.3445 36.4992 24.7546 37.4692 25.6146C38.1392 26.2146 38.1592 27.7046 37.2192 28.1046C36.4992 28.4146 36.1392 29.4846 36.9792 29.9346C37.6392 30.2846 38.3192 30.6346 38.8492 31.1746C39.4292 31.7646 39.4792 32.4746 39.4092 33.2646C39.2392 35.1846 38.8692 37.1045 38.5492 39.0045C37.8692 42.9345 37.0292 46.8245 36.0292 50.6845C35.7092 51.9345 37.6392 52.4646 37.9592 51.2146H37.9392Z" fill="#191817"/>
<path d="M40.2092 23.9341C43.0192 23.9341 46.0092 24.4341 48.0692 26.5241C49.2292 27.7041 50.0992 29.1641 51.0292 30.5341C52.0192 31.9841 52.9992 33.4241 53.9892 34.8741C54.9792 36.3241 56.0292 37.8541 57.0392 39.3541C57.9092 40.6441 58.7692 41.9541 59.4192 43.3741C60.8092 46.4341 60.8192 50.0041 60.9192 53.3041C61.0492 57.3441 60.9392 61.3941 60.5992 65.4241C60.4892 66.7041 62.4892 66.7041 62.5992 65.4241C62.9192 61.6441 63.0392 57.8441 62.9392 54.0441C62.8492 50.5441 62.8592 46.7341 61.5892 43.4241C60.3192 40.1141 58.0892 37.3441 56.1392 34.4941C55.0592 32.9141 53.9792 31.3241 52.8992 29.7441C51.9092 28.2841 50.9692 26.7541 49.7792 25.4441C47.3292 22.7441 43.7092 21.9641 40.2092 21.9541C38.9192 21.9541 38.9192 23.9541 40.2092 23.9541V23.9341Z" fill="#191817"/>
<path d="M22.9493 26.0342C24.5193 27.8542 26.5493 29.4542 29.0093 29.7342C31.1593 29.9842 33.5393 29.0342 34.5693 27.0542C35.1693 25.9142 33.4393 24.9042 32.8393 26.0442C32.1293 27.4042 30.4693 27.9642 28.9993 27.7242C27.0893 27.4142 25.5693 26.0242 24.3593 24.6142C24.0093 24.2042 23.3093 24.2542 22.9493 24.6142C22.5393 25.0242 22.5993 25.6142 22.9493 26.0242V26.0342Z" fill="#191817"/>
<path d="M47.8293 42.6446C50.1693 44.8446 52.6593 47.2346 52.9993 50.6046C53.1893 52.4846 53.0793 54.4146 53.0793 56.3146C53.0793 58.2146 53.0793 60.2246 53.0793 62.1846C53.0793 63.4746 55.0793 63.4746 55.0793 62.1846C55.0793 60.1046 55.0793 58.0246 55.0793 55.9446C55.0793 53.8646 55.1993 51.8846 54.9093 49.8846C54.3893 46.2646 51.7993 43.6246 49.2493 41.2246C48.3093 40.3446 46.8993 41.7546 47.8393 42.6346L47.8293 42.6446Z" fill="#191817"/>
<path d="M54.3892 63.174C54.1792 63.204 54.4892 63.174 54.4992 63.174C54.5792 63.174 54.6592 63.164 54.7392 63.164C54.8992 63.164 55.0592 63.164 55.2092 63.164C55.2892 63.164 55.3692 63.164 55.4492 63.174C55.4692 63.174 55.7692 63.214 55.5592 63.174C55.7192 63.194 55.8692 63.224 56.0292 63.264C56.3492 63.334 56.6692 63.434 56.9792 63.564C57.0792 63.604 56.8892 63.514 57.0492 63.594C57.1192 63.634 57.1892 63.664 57.2592 63.694C57.4192 63.774 57.5692 63.854 57.7192 63.954C57.8592 64.034 57.9792 64.124 58.1192 64.214C58.3692 64.384 58.0492 64.154 58.1792 64.264C58.2392 64.314 58.2992 64.364 58.3592 64.414C58.6092 64.634 58.8392 64.874 59.0592 65.124C59.0992 65.174 59.1892 65.294 59.1092 65.184C59.1692 65.264 59.2192 65.334 59.2692 65.414C59.3592 65.544 59.4392 65.684 59.5192 65.824C59.7092 66.174 59.7792 66.374 59.9192 66.754C60.0992 67.264 60.5992 67.604 61.1492 67.454C61.6392 67.324 62.0292 66.734 61.8492 66.224C61.5292 65.344 61.1492 64.554 60.5692 63.824C60.0692 63.184 59.4292 62.654 58.7392 62.224C57.2692 61.324 55.5692 60.994 53.8692 61.244C53.3392 61.324 53.0392 62.004 53.1692 62.474C53.3292 63.044 53.8592 63.254 54.3992 63.174H54.3892Z" fill="#191817"/>
<path d="M54.4592 61.2643C52.3692 61.3543 50.4392 62.3043 48.9892 63.7943C48.2992 64.5143 47.7092 65.3443 47.2392 66.2243C46.7692 67.1043 46.0692 68.3443 46.3092 69.3943C46.5492 70.4443 47.5292 71.0143 48.5192 71.0543C49.5992 71.0943 50.6392 70.5643 51.5692 70.0743C52.4992 69.5843 53.4392 69.0543 54.5292 68.8843C55.6192 68.7143 56.7092 68.7643 57.7892 68.6343C59.8592 68.3943 61.8992 67.4943 62.6792 65.4243C63.1292 64.2143 61.1992 63.6943 60.7492 64.8943C60.1592 66.4743 57.9492 66.6643 56.5392 66.7343C55.3992 66.7943 54.2192 66.8243 53.1192 67.1543C52.1092 67.4543 51.2092 68.0143 50.2792 68.4943C49.8292 68.7243 49.3192 68.9943 48.8192 69.0543C48.7192 69.0643 48.4892 69.0843 48.3892 69.0243C48.2092 68.9143 48.2892 68.9143 48.3292 68.6943C48.4792 67.8043 49.1692 66.8043 49.6692 66.0943C50.7792 64.5243 52.5092 63.3443 54.4692 63.2543C55.7492 63.1943 55.7592 61.1943 54.4692 61.2543L54.4592 61.2643Z" fill="#191817"/>
<path d="M31.9893 64.4942C33.8693 64.6542 35.7593 64.6442 37.6393 64.4342C38.5693 64.3342 39.4893 64.1942 40.3993 64.0042C40.5693 63.9742 41.1493 63.7542 41.2093 63.9842C41.2393 64.0942 41.0693 64.2142 40.9493 64.2542C39.7093 64.6542 40.2193 66.4242 41.4793 66.1842C42.2393 66.0442 42.9993 65.8942 43.7593 65.7642C44.4093 65.6442 45.1893 65.3842 45.8493 65.4642L45.3493 65.3242C45.1093 65.2242 45.3893 64.9442 45.2693 65.3242C45.2093 65.5042 45.1693 65.6842 45.1093 65.8542C44.9993 66.1842 44.8493 66.4942 44.6793 66.7942C44.3593 67.3742 43.9493 67.8842 43.4693 68.3442C42.3693 69.4042 40.9393 70.0442 39.4393 70.2642C37.7693 70.5042 36.1193 70.2042 34.5593 69.6242C32.8293 68.9842 31.1393 68.2042 29.4393 67.4742C28.9393 67.2642 28.3693 67.3242 28.0693 67.8342C27.8193 68.2542 27.9293 68.9942 28.4293 69.2042C30.4293 70.0542 32.4093 71.0042 34.4693 71.7042C36.3693 72.3542 38.4093 72.5142 40.3793 72.1142C42.1893 71.7442 43.8893 70.8342 45.1593 69.4942C46.2193 68.3742 47.4393 66.5342 47.2693 64.9142C47.2093 64.3642 46.9293 63.8942 46.4393 63.6342C45.9093 63.3442 45.3493 63.4642 44.7893 63.5542C43.5093 63.7742 42.2293 64.0142 40.9493 64.2542L41.4793 66.1842C42.6093 65.8242 43.4193 64.7542 43.1493 63.5442C42.8393 62.1242 41.4693 61.7642 40.2093 62.0042C37.4793 62.5342 34.7593 62.7342 31.9893 62.4942C30.7093 62.3842 30.7193 64.3842 31.9893 64.4942Z" fill="#191817"/>
<path d="M32.9193 55.934C33.2893 58.194 33.7493 60.444 34.2993 62.674C34.4293 63.194 35.0193 63.514 35.5293 63.374C36.0393 63.234 36.3593 62.674 36.2293 62.144C35.6793 59.914 35.2193 57.674 34.8493 55.404C34.7593 54.874 34.0993 54.574 33.6193 54.704C33.0493 54.864 32.8293 55.404 32.9193 55.934Z" fill="#191817"/>
<path d="M35.9092 54.5046C35.8792 57.4146 35.9592 60.3246 36.1592 63.2346C36.1992 63.7746 36.5892 64.2346 37.1592 64.2346C37.6692 64.2346 38.1992 63.7746 38.1592 63.2346C37.9592 60.3246 37.8792 57.4146 37.9092 54.5046C37.9192 53.2146 35.9192 53.2146 35.9092 54.5046Z" fill="#191817"/>
<path d="M47.0093 36.0644C47.4293 40.8744 47.8493 45.6844 48.2693 50.4944C48.6293 54.5944 48.8593 58.9444 51.1393 62.5144C51.8293 63.5944 53.5593 62.5944 52.8693 61.5044C50.6993 58.1044 50.5693 53.9044 50.2293 50.0044C49.8293 45.3644 49.4193 40.7144 49.0193 36.0744C48.9093 34.8044 46.9093 34.7944 47.0193 36.0744L47.0093 36.0644Z" fill="#191817"/>
<path d="M18.8093 48.9041C19.3093 52.6841 20.1193 56.4041 21.2793 60.0441C21.6693 61.2641 23.5993 60.7441 23.2093 59.5141C22.1093 56.0541 21.2893 52.5041 20.8093 48.9141C20.7393 48.3741 20.3993 47.9141 19.8093 47.9141C19.3293 47.9141 18.7393 48.3741 18.8093 48.9141V48.9041Z" fill="#191817"/>
<path d="M29.6293 29.1547L27.8793 31.9647C27.7293 32.1947 27.5893 32.4347 27.4393 32.6647C27.1593 33.1247 27.0893 33.7647 27.5293 34.1647C27.9993 34.5947 28.7193 34.5547 29.1093 34.0447C29.5593 33.4647 29.2993 32.6047 28.5793 32.4047C28.0793 32.2647 27.4693 32.5747 27.3493 33.1047C27.2293 33.6347 27.5093 34.1847 28.0493 34.3347H28.0693C27.8693 34.1847 27.6693 34.0347 27.4693 33.8847V33.9047C27.4393 33.6447 27.4093 33.3947 27.3793 33.1347L27.7793 32.6147L28.2793 32.4747H28.2593C28.4293 32.5247 28.5993 32.5647 28.7593 32.6147H28.7393C28.8593 32.7247 28.9793 32.8447 29.0993 32.9647L29.0793 32.9247L29.2193 33.4247C29.2193 33.5347 29.1793 33.6447 29.1393 33.7447L29.2193 33.6147L29.3593 33.3947L29.6593 32.9147L30.2193 32.0247L31.3793 30.1747C31.6593 29.7347 31.4893 29.0547 31.0193 28.8047C30.5293 28.5447 29.9493 28.6847 29.6493 29.1647L29.6293 29.1547Z" fill="#191817"/>
<path d="M29.9593 30.0145C31.2793 31.1045 32.5593 32.2445 33.7893 33.4245C34.1693 33.7845 34.8293 33.8245 35.1993 33.4245C35.5693 33.0245 35.5993 32.3945 35.1993 32.0145C33.9693 30.8345 32.6893 29.6945 31.3693 28.6045C31.1593 28.4345 30.9393 28.3145 30.6593 28.3145C30.4093 28.3145 30.1193 28.4245 29.9493 28.6045C29.6093 28.9745 29.5193 29.6645 29.9493 30.0145H29.9593Z" fill="#191817"/>
<path d="M18.9692 67.8144C16.3592 69.1244 13.7692 70.8244 11.7492 72.9544C10.7292 74.0244 9.92918 75.2844 9.65918 76.7544C9.37918 78.3144 9.51918 79.9144 9.56918 81.4944C9.77918 88.1644 9.98918 94.8344 10.1992 101.494C10.3192 105.224 10.4292 108.954 10.5492 112.674C10.5892 113.954 12.5892 113.964 12.5492 112.674C12.3492 106.294 12.1492 99.9144 11.9492 93.5444C11.8492 90.3144 11.7492 87.0844 11.6492 83.8544C11.5992 82.3044 11.5292 80.7444 11.5092 79.1944C11.4892 77.7844 11.6092 76.4744 12.4192 75.2844C13.2692 74.0344 14.5692 73.0144 15.7692 72.1244C17.0992 71.1444 18.5092 70.2844 19.9792 69.5444C21.1292 68.9644 20.1192 67.2444 18.9692 67.8144Z" fill="#191817"/>
<path d="M19.7992 117.524C18.3092 117.414 16.8392 117.734 15.3692 117.914C13.7992 118.104 12.2192 118.234 10.6292 118.294C7.50923 118.404 4.37923 118.254 1.29923 117.824L1.99923 119.054C2.05923 118.624 2.41923 118.274 2.69923 117.954C3.03923 117.564 3.39923 117.194 3.77923 116.854C4.48923 116.214 5.26923 115.684 6.10923 115.234C7.83923 114.304 9.76923 113.834 11.7392 113.844C13.0292 113.844 13.0292 111.854 11.7392 111.844C9.35923 111.834 7.00923 112.444 4.92923 113.604C3.92923 114.164 2.98923 114.854 2.15923 115.644C1.38923 116.374 0.239229 117.434 0.0792295 118.534C0.00922947 119.014 0.189229 119.684 0.779229 119.764C3.96923 120.204 7.17923 120.414 10.3992 120.314C11.9792 120.264 13.5592 120.144 15.1392 119.964C16.7192 119.784 18.2492 119.434 19.8092 119.544C21.0892 119.634 21.0892 117.634 19.8092 117.544L19.7992 117.524Z" fill="#191817"/>
<path d="M38.0592 78.764C39.6392 78.934 41.2192 79.134 42.7892 79.384C43.5592 79.504 44.3292 79.634 45.0892 79.764C45.7292 79.874 46.4392 79.944 47.0492 80.184C48.1692 80.624 48.1292 82.454 48.2592 83.454C48.4592 84.954 48.5892 86.474 48.6792 87.984C49.0392 94.154 48.5992 100.334 48.4292 106.504C48.3392 110.014 48.3392 113.534 48.6092 117.034C48.7092 118.314 50.7092 118.324 50.6092 117.034C50.0992 110.414 50.5692 103.784 50.7492 97.164C50.8392 93.944 50.8592 90.714 50.6492 87.504C50.5392 85.814 50.3592 84.124 50.1192 82.444C49.9192 81.084 49.7392 79.604 48.5392 78.734C47.9592 78.314 47.2692 78.144 46.5792 78.014C45.6092 77.834 44.6392 77.664 43.6692 77.514C41.7992 77.214 39.9192 76.974 38.0392 76.774C37.4992 76.714 37.0392 77.274 37.0392 77.774C37.0392 78.364 37.4992 78.714 38.0392 78.774L38.0592 78.764Z" fill="#191817"/>
<path d="M49.4292 117.974C52.0392 118.254 54.6592 118.404 57.2892 118.394C59.9192 118.384 62.4292 118.354 64.9192 117.954C67.4092 117.554 65.6492 114.314 64.8092 113.084C63.6692 111.404 62.0992 110.034 60.2492 109.194C59.7592 108.974 59.1692 109.054 58.8792 109.554C58.6292 109.984 58.7492 110.694 59.2392 110.924C60.4692 111.484 61.5392 112.264 62.4392 113.274C62.8792 113.764 63.2492 114.304 63.5692 114.884C63.7192 115.154 63.8592 115.434 63.9792 115.714C64.0392 115.864 64.0992 116.014 64.1492 116.164L64.2092 116.344C64.2592 116.594 64.2892 116.584 64.3192 116.304L64.6792 115.944C64.3792 116.164 63.5792 116.104 63.1892 116.134C62.5392 116.194 61.8792 116.234 61.2292 116.274C59.9192 116.354 58.6092 116.394 57.2992 116.394C54.6692 116.394 52.0492 116.254 49.4392 115.974C48.8992 115.914 48.4392 116.474 48.4392 116.974C48.4392 117.564 48.8992 117.914 49.4392 117.974H49.4292Z" fill="#191817"/>
<path d="M11.0192 113.204C12.4892 113.984 14.0992 114.304 15.7492 114.394C16.5192 114.434 17.2792 114.434 18.0492 114.414C18.9992 114.394 19.9292 114.374 20.3192 113.344C20.5092 112.844 20.1092 112.244 19.6192 112.114C19.0592 111.964 18.5792 112.304 18.3892 112.814L18.3592 112.894L18.6192 112.454C18.6692 112.394 18.9592 112.384 18.7292 112.394C18.5992 112.394 18.4592 112.394 18.3292 112.404C18.0092 112.404 17.6992 112.424 17.3792 112.424C16.7292 112.424 16.0692 112.424 15.4192 112.374C14.2492 112.284 13.0792 112.034 12.0292 111.474C10.8892 110.874 9.87921 112.594 11.0192 113.204Z" fill="#191817"/>
<path d="M58.6092 68.8845C59.2192 68.7945 59.6092 70.0746 59.7292 70.4746C60.0792 71.7346 60.1792 73.0945 60.3092 74.3845C60.5992 77.2345 60.6592 80.1046 60.6092 82.9746C60.4992 88.7546 59.8992 94.5045 59.5692 100.275C59.3892 103.555 59.2992 106.845 59.4292 110.125C59.4792 111.405 61.4792 111.415 61.4292 110.125C60.9292 97.7245 63.7192 85.3345 62.1492 72.9645C61.8592 70.6545 61.3892 66.4445 58.0792 66.9545C57.5492 67.0345 57.2492 67.7046 57.3792 68.1846C57.5392 68.7546 58.0692 68.9645 58.6092 68.8845Z" fill="#191817"/>
<path d="M48.8792 111.824C50.1892 113.174 52.2993 113.064 54.0093 112.844C56.0393 112.584 57.9693 111.954 59.8993 111.314C61.1093 110.904 60.5893 108.974 59.3693 109.384C57.7093 109.944 56.0293 110.494 54.2993 110.794C53.4993 110.934 52.6693 111.004 51.8493 110.964C51.2793 110.934 50.6992 110.834 50.2892 110.414C49.3892 109.484 47.9792 110.904 48.8792 111.824Z" fill="#191817"/>
<path d="M41.5292 64.5846C44.2592 64.4846 46.9892 64.5146 49.7192 64.6646C50.2592 64.6946 50.7192 64.1846 50.7192 63.6646C50.7192 63.0946 50.2592 62.6946 49.7192 62.6646C46.9892 62.5146 44.2592 62.4846 41.5292 62.5846C40.2492 62.6246 40.2392 64.6346 41.5292 64.5846Z" fill="#191817"/>
<path d="M38.5592 76.9237C35.1792 77.3337 31.8592 78.1037 28.6692 79.2937C27.2592 79.8237 25.7292 80.3537 24.4692 81.1937C23.1392 82.0937 22.4992 83.3237 22.3392 84.9037C22.1592 86.6637 22.1592 88.4537 22.0792 90.2237C21.9992 91.9937 21.9192 93.7837 21.8392 95.5637C21.6792 99.1637 21.5092 102.764 21.3492 106.364C21.1692 110.424 20.9792 114.474 20.7992 118.534L21.7992 117.534C21.2092 117.484 20.6092 117.434 20.0192 117.384C18.7392 117.284 18.7392 119.284 20.0192 119.384C20.6092 119.434 21.2092 119.484 21.7992 119.534C22.3592 119.584 22.7792 119.034 22.7992 118.534C23.1092 111.704 23.4192 104.874 23.7292 98.0537C23.8792 94.6637 24.0392 91.2637 24.1892 87.8737C24.2292 87.1037 24.2492 86.3237 24.2992 85.5537C24.3392 84.8737 24.3792 84.1237 24.7992 83.5537C25.5492 82.5337 27.1092 82.0537 28.2292 81.6037C31.5392 80.2737 35.0192 79.3537 38.5592 78.9237C39.0992 78.8637 39.5592 78.5137 39.5592 77.9237C39.5592 77.4337 39.0992 76.8537 38.5592 76.9237Z" fill="#191817"/>
</svg>
