<svg width="84" height="179" viewBox="0 0 84 179" fill="none" xmlns="http://www.w3.org/2000/svg">
<g id="nb-1" clip-path="url(#clip0_141_1484)">
<g id="fill">
<path id="Vector" d="M80.4066 143.539C79.7742 142.087 78.6818 141.039 77.1438 140.478C75.2896 138.61 73.3922 136.771 71.4518 134.99C71.2937 134.803 71.1356 134.63 70.9631 134.458C70.6325 133.984 70.3019 133.51 69.9857 133.021C69.0801 131.484 68.1746 129.946 67.269 128.409C67.269 127.791 67.1253 127.159 66.8522 126.57C65.3573 123.322 63.8768 120.09 62.382 116.842C61.807 115.592 61.2752 114.199 60.6428 112.877C63.5031 112.862 66.5503 111.023 66.9097 107.374C67.5565 100.491 66.9816 93.7095 65.3861 86.9851C65.3142 86.7121 65.2136 86.4679 65.113 86.2236C65.2711 86.1805 65.4148 86.123 65.5586 86.0656C68.9795 87.6461 73.7372 84.4563 73.4354 80.6487L72.3142 67.042C72.6304 64.039 72.7167 61.0791 72.5442 58.1049C74.2834 53.5358 72.6448 49.5127 69.3676 46.4666C68.6777 45.3602 67.8727 44.3257 66.9384 43.3918C66.7803 43.2337 66.6366 43.0757 66.4785 42.9176C66.4497 42.8889 66.421 42.8601 66.3922 42.8314C65.5154 41.998 64.5237 41.2509 63.3881 40.5756C62.9713 40.317 62.5401 40.0727 62.0945 39.8572C60.2978 38.9807 58.5729 39.0813 57.1212 39.7422C56.6756 39.498 56.2156 39.3112 55.7701 39.0957C55.1951 38.6646 54.5195 38.3341 53.6859 38.1473C53.3409 38.0755 52.9959 38.0037 52.651 37.9175C51.7885 37.6732 50.8974 37.472 49.9775 37.3427C49.8768 37.3284 49.7906 37.3427 49.7044 37.3284C50.3224 33.6788 50.998 30.0436 51.7598 26.4372C51.8173 26.4372 51.8604 26.4372 51.9179 26.4228C52.1766 26.4228 52.421 26.351 52.6366 26.2217C52.8809 26.1498 53.0966 26.0349 53.269 25.8481C53.5853 25.6469 53.8296 25.3739 54.0165 25.0435C54.2321 24.7274 54.4333 24.4113 54.6489 24.0952C54.8645 23.7647 54.9795 23.4055 54.9939 23.0319C55.0657 22.7302 55.0514 22.4141 54.9939 22.1124C54.9939 22.0836 54.9939 22.0549 54.9939 22.0405C54.9939 21.9256 54.9939 21.7962 54.9939 21.6813C54.9651 21.4227 54.922 21.1784 54.8933 20.9198L54.6058 20.2301C54.4621 20.0433 54.3039 19.8422 54.1602 19.6554C54.1171 19.6123 54.0596 19.5692 54.0165 19.5261C55.3532 15.6323 56.0863 11.3649 55.8419 7.26992C55.6694 4.41063 53.8584 3.2468 51.2855 2.6146C48.9569 2.03987 46.5278 1.72377 44.1274 1.66629C41.9282 1.62319 39.4559 1.63756 37.4867 2.75828C35.6612 3.7928 34.5976 5.68941 34.2814 7.71534C34.0801 8.99411 34.0226 10.6321 34.2814 12.1695C33.8933 13.2615 33.7064 14.4541 33.6633 15.546C33.6345 16.1351 33.6345 16.7386 33.6345 17.3277C33.2033 20.6468 33.0021 23.9946 33.2177 27.3137C33.3902 30.0293 34.3963 32.7592 36.3943 34.2392C36.1643 35.0007 35.9487 35.7622 35.7187 36.5237C32.1397 36.7393 28.5175 36.8255 24.9672 37.2278C24.306 37.2996 23.6736 37.4577 23.0555 37.6588C22.5668 37.5151 22.0637 37.5008 21.6037 37.6876C19.074 38.7077 17.1623 40.5181 16.3286 43.1188C12.9651 47.5442 10.3491 52.4869 8.52366 57.7744C7.76185 58.0618 7.10066 58.7371 6.81319 59.4124C6.3676 60.4613 6.58321 61.7401 7.40251 62.5447C7.5175 62.6596 7.63249 62.7746 7.74748 62.8895C7.28752 63.2487 6.92818 63.7516 6.68382 64.3695C6.39635 65.1166 6.10887 65.8494 5.8214 66.5965C5.56267 67.0276 5.30395 67.4586 5.05959 67.904C3.52161 70.5765 2.31421 73.3927 2.17048 76.5106C2.17048 76.6256 2.17048 76.7549 2.19922 76.8699C2.02674 77.2865 1.9405 77.7463 1.91175 78.2348C1.86863 79.6429 2.50107 81.1229 3.29163 82.2723C3.55035 82.6459 3.83783 82.9907 4.13968 83.3212C4.26904 83.7954 4.51339 84.2408 4.84399 84.6575C7.86247 88.4507 12.3327 90.6203 17.0042 91.1088C15.2218 92.8186 13.8419 94.9308 13.037 97.2872C12.6489 97.7757 12.3758 98.3073 12.2321 98.8677C10.7947 101.282 9.4867 104.112 10.5935 106.813C12.1602 110.621 16.961 110.104 20.3532 110.204C21.6469 110.247 22.9549 110.247 24.2485 110.262C24.9097 110.42 25.5853 110.578 26.2465 110.75C27.3676 111.023 28.5319 111.44 29.6961 111.454C29.7824 111.454 29.8686 111.426 29.9549 111.426C29.7968 112.058 29.653 112.704 29.5093 113.337C27.2239 119.845 25.269 126.455 23.6448 133.15C22.1931 136.513 20.8132 139.918 19.5339 143.352C18.3697 145.435 17.651 147.648 17.3347 150.148C17.1766 151.427 18.3553 152.562 19.4477 152.921C19.7208 153.007 19.9939 153.079 20.267 153.165C18.9159 155.867 17.6941 158.625 16.6161 161.456C16.0986 162.821 15.3512 164.516 14.9056 166.197C14.2156 167.764 13.5257 169.344 12.8501 170.91C12.7064 171.241 12.6058 171.571 12.5483 171.902C11.1828 172.347 10.421 174.014 10.7803 175.35C11.2403 177.002 12.7783 177.577 14.3163 177.362L17.9528 176.844C18.9877 177.017 20.0514 176.988 21.0863 176.772C21.5606 176.816 22.035 176.873 22.5237 176.959C25.154 177.462 28.1294 177.706 30.0842 175.479C31.0042 174.445 31.1191 173.224 30.5298 172.002C30.0411 170.953 29.768 169.818 29.5955 168.683C29.5524 168.396 29.4374 168.152 29.2937 167.907C29.1068 163.97 29.7536 159.99 30.4148 156.125C30.4723 155.78 30.4723 155.421 30.4436 155.091C30.5011 154.861 30.5586 154.631 30.6161 154.401C31.1048 154.372 31.6078 154.344 32.0966 154.286C32.959 154.588 33.9076 154.516 34.6407 153.97C36.538 153.64 36.9692 151.441 36.3943 149.947C37.8604 144.947 39.3122 139.932 40.7352 134.918C41.7557 132.806 42.7762 130.693 43.8255 128.596C45.1191 126.024 46.3265 122.92 48.6551 121.067C49.345 122.015 50.0493 122.963 50.7536 123.912C50.8974 124.429 51.0986 124.96 51.4292 125.492C52.3204 126.728 53.0247 128.078 53.5421 129.515C54.6633 132.087 57.2362 132.734 59.5935 132.145C59.6653 132.231 59.7228 132.331 59.7947 132.418C60.7865 134.444 61.7783 136.455 62.7701 138.481C63.3738 139.803 63.9631 141.139 64.5237 142.475C64.4949 142.734 64.5093 142.993 64.5668 143.266C65.343 146.7 66.3635 150.076 67.6284 153.352C68.2464 154.933 69.9138 155.392 71.2362 154.3C72.0124 153.668 72.7742 153.036 73.5503 152.39C74.0822 152.548 74.6715 152.504 75.2321 152.231C77.3019 151.183 79.1705 149.731 80.7228 148.007C81.9015 147.418 82.6058 145.78 81.4128 144.544C81.0822 144.2 80.7516 143.855 80.421 143.496L80.4066 143.539ZM21.3019 66.3379C21.9918 66.0505 22.5668 65.7344 22.9692 65.0879C23.1561 66.8695 23.3573 68.6512 23.5873 70.4185C23.9179 73.7663 24.2629 77.1141 24.5935 80.4619C24.191 80.347 23.7885 80.232 23.3861 80.1171C20.7701 79.1544 18.0966 78.3498 15.3799 77.7176C16.3717 73.8381 17.6078 70.0162 19.0883 66.2948C19.807 66.5678 20.5976 66.654 21.3163 66.3666L21.3019 66.3379ZM35.1582 100.506C35.1582 100.506 35.1582 100.52 35.1725 100.534C35.1438 100.534 35.115 100.534 35.0863 100.534C35.115 100.534 35.1294 100.52 35.1582 100.52V100.506ZM22.4805 60.3751C22.4805 60.3751 22.4662 60.3751 22.4518 60.3607C22.4518 60.3607 22.4518 60.3607 22.4662 60.3607C22.4662 60.3607 22.4662 60.3751 22.4662 60.3894L22.4805 60.3751ZM54.3327 100.132C54.3327 100.132 54.3327 100.247 54.3471 100.29C54.3183 100.233 54.2896 100.175 54.2608 100.118C54.2752 100.118 54.3039 100.118 54.3183 100.132H54.3327ZM16.1848 104.328C16.1705 104.328 16.0842 104.328 15.998 104.328C15.998 104.285 16.0124 104.241 16.0267 104.227C16.0842 104.27 16.1417 104.299 16.1992 104.342L16.1848 104.328ZM40.4477 7.6866C40.3471 7.9596 40.2608 8.24696 40.189 8.53433C40.1171 8.50559 40.0308 8.47686 39.959 8.46249C39.9733 8.39065 39.9877 8.30444 40.0165 8.23259C40.1315 7.88776 40.1315 7.78718 40.4477 7.67223V7.6866Z" fill="#B22700"/>
</g>
<g id="outline">
<path id="Vector_2" d="M31.9319 16.1587C31.6463 19.4562 31.2179 22.7681 31.1322 26.0657C31.0608 28.8922 31.5749 31.8615 33.6313 33.96C35.3736 35.7444 37.9298 36.6295 40.3861 36.6437C43.0137 36.6437 45.4415 35.6302 47.4408 33.96C49.7828 32.0185 51.3394 29.2491 52.2676 26.3798C52.8389 24.6239 50.0827 23.8816 49.5115 25.6232C48.2833 29.4347 45.3272 33.5032 40.9859 33.7744C39.1437 33.8886 37.1729 33.4175 35.8163 32.1042C34.1454 30.5053 33.9312 28.1071 34.0026 25.9087C34.1026 22.6539 34.5167 19.3849 34.8023 16.1444C34.9594 14.3171 32.1033 14.3314 31.9462 16.1444L31.9319 16.1587Z" fill="black"/>
<path id="Vector_3" d="M53.8243 21.0843C53.6529 21.3841 53.6672 20.9844 53.8243 21.4412C54.0242 21.9836 53.71 22.8116 53.5101 23.3112C52.9246 24.7102 51.8964 25.5096 50.7254 26.3947C49.2116 27.5367 49.0545 29.1784 48.7546 30.92C48.4262 32.8043 48.0834 34.7029 47.755 36.5873C47.6265 37.3439 47.9549 38.129 48.7546 38.3431C49.4401 38.5287 50.3826 38.1147 50.5112 37.3439C50.9396 34.9313 51.3394 32.5188 51.7821 30.1063C51.8678 29.6352 51.9107 29.1498 52.2534 28.8072C52.5676 28.4932 53.0246 28.2648 53.3816 27.9935C54.2099 27.3654 54.8953 26.5946 55.4666 25.7238C56.5233 24.0821 57.2945 21.6125 56.2234 19.7995C55.1524 17.9866 52.4248 17.801 51.368 19.6568C50.454 21.2556 52.9246 22.6974 53.8386 21.0986L53.8243 21.0843Z" fill="black"/>
<path id="Vector_4" d="M34.2026 34.2035L33.5457 35.9023C33.4885 36.0879 33.4743 36.2877 33.5171 36.4733C33.5171 36.6589 33.5885 36.8445 33.6885 37.0015C33.7742 37.1728 33.9027 37.3013 34.0598 37.4012C34.2026 37.5297 34.3597 37.6153 34.5453 37.6582C34.9166 37.7438 35.3165 37.7295 35.6449 37.5154L35.9305 37.287C36.1019 37.1157 36.2304 36.9016 36.3018 36.6589L36.9587 34.9601C37.0159 34.7746 37.0302 34.5747 36.9873 34.3891C36.9873 34.2035 36.9159 34.018 36.8159 33.8609C36.7303 33.6896 36.6017 33.5611 36.4446 33.4612C36.3018 33.3327 36.1448 33.2471 35.9591 33.2043C35.5878 33.1186 35.1879 33.1329 34.8595 33.347L34.5739 33.5754C34.4025 33.7467 34.274 33.9609 34.2026 34.2035Z" fill="black"/>
<path id="Vector_5" d="M34.3311 17.3444C34.8167 14.2038 35.1594 11.0061 35.8306 7.89411C36.1019 6.6236 36.5447 5.43875 37.5157 4.53941C38.3869 3.73999 39.5293 3.28318 40.6575 3.0405C43.5136 2.41239 46.6411 3.28318 49.3973 3.99695C50.5398 4.29673 51.7393 4.65361 52.6676 5.42448C53.6387 6.25244 54.0671 7.48012 54.267 8.7078C54.8382 12.2338 53.6387 15.874 52.6247 19.2002C52.0821 20.956 54.8382 21.7126 55.3809 19.9567C57.2231 13.9183 59.508 4.71071 51.8679 1.77C50.3398 1.18471 48.6833 0.856377 47.0838 0.528045C45.2987 0.156887 43.4422 -0.12862 41.6143 0.0284087C38.5582 0.285364 35.4165 1.68435 33.9741 4.52513C33.1173 6.20962 32.8888 8.09396 32.6032 9.93548L31.575 16.5592C31.4607 17.3158 31.7749 18.101 32.5746 18.3151C33.2458 18.5007 34.2169 18.0867 34.3311 17.3158V17.3444Z" fill="black"/>
<path id="Vector_6" d="M34.645 13.2188C38.458 12.9047 42.3138 13.0332 46.0839 13.7041C46.9122 13.8469 47.7976 13.9611 48.5973 14.2323C49.2828 14.4607 49.2399 15.1602 49.3256 15.8169C49.5684 17.7583 49.5827 19.714 49.4256 21.6698C49.3399 22.669 50.3967 23.1972 51.2392 23.0402C52.8672 22.7547 54.0668 21.5698 54.6095 20.0424C55.2378 18.3151 52.4674 17.5585 51.8533 19.2858C51.6248 19.8996 51.0964 20.1709 50.4823 20.2851L52.296 21.6555C52.4816 19.4 52.4102 17.1588 52.0818 14.9318C51.939 13.9611 51.6962 12.9904 50.9393 12.3052C50.1824 11.6199 49.1542 11.4058 48.1974 11.206C43.7561 10.2781 39.1863 9.99256 34.6593 10.3637C32.8456 10.5207 32.8314 13.3758 34.6593 13.2188H34.645Z" fill="black"/>
<path id="Vector_7" d="M48.3831 37.3436C53.7098 39.4135 59.5649 40.1987 64.506 43.1965C66.6196 44.4813 68.4904 46.1658 69.6757 48.3499C70.9609 50.7053 71.318 53.4319 71.3751 56.0728C71.4465 59.0706 71.218 62.0685 71.0752 65.052C70.9181 68.3068 70.7753 71.5473 70.6182 74.802C70.5468 76.3295 70.504 77.8712 70.404 79.3987C70.3469 80.3551 70.2326 81.3687 69.8613 82.268C69.49 83.1674 68.8474 83.7812 67.8477 83.7669C66.4768 83.7669 65.0487 83.1816 63.7635 82.7534C57.6227 80.6977 52.2389 77.3145 47.3692 73.1033C45.984 71.9042 43.9561 73.917 45.3556 75.1161C50.1825 79.2845 55.4092 82.682 61.4071 84.9375C64.0205 85.9082 67.6192 87.5213 70.2897 86.0082C72.5604 84.7234 73.0888 81.8826 73.2601 79.5129C73.5029 76.0583 73.5886 72.5894 73.76 69.1205C73.9313 65.6516 74.1313 62.2683 74.2312 58.828C74.3169 55.7873 74.2312 52.6468 73.3315 49.7203C72.4318 46.7939 70.8324 44.4956 68.6046 42.6255C63.0494 37.9575 55.7091 37.1295 49.1543 34.5885C48.4402 34.303 47.5834 34.9025 47.3978 35.5878C47.1693 36.4015 47.6691 37.0581 48.3974 37.3436H48.3831Z" fill="black"/>
<path id="Vector_8" d="M31.732 37.5726C30.7609 40.1993 31.1179 43.2399 32.5317 45.6382C33.9455 48.0364 36.8731 50.2919 39.9006 49.3212C42.6996 48.4219 45.3415 46.6089 47.5551 44.7246C49.7686 42.8402 51.825 40.3849 53.353 37.7725C54.2813 36.1879 51.8107 34.7461 50.8825 36.3307C48.4262 40.5133 44.7846 43.8966 40.4147 46.0093C39.3008 46.5518 38.3011 47.0086 37.1444 46.3519C36.2447 45.838 35.5164 45.0672 35.0023 44.1821C33.9455 42.3834 33.7742 40.2564 34.4882 38.3149C35.1308 36.5876 32.3747 35.8453 31.732 37.5584V37.5726Z" fill="black"/>
<path id="Vector_9" d="M61.7498 66.7369C65.2201 66.794 68.6189 67.4078 71.8892 68.5356C72.6175 68.7783 73.4458 68.2501 73.6457 67.5363C73.8599 66.7512 73.3743 66.0374 72.646 65.7805C69.133 64.5813 65.4486 63.9532 61.7498 63.8818C60.9787 63.8818 60.3218 64.5528 60.3218 65.3094C60.3218 66.066 60.9787 66.7226 61.7498 66.7369Z" fill="black"/>
<path id="Vector_10" d="M57.1515 49.8484L55.8234 56.201C55.3807 58.2852 54.8237 60.3979 54.5381 62.5107C54.281 64.4378 54.9951 66.2508 57.0087 66.7647C59.0222 67.2786 61.35 67.3072 63.4493 67.2358C65.2772 67.1787 65.2915 64.3236 63.4493 64.3807C61.707 64.4378 59.9505 64.3807 58.2225 64.0952C57.9797 64.0524 57.5656 64.0381 57.3657 63.8525C57.4799 63.9525 57.3228 63.6241 57.3086 63.4956C57.2514 62.7819 57.5085 62.0253 57.6513 61.3544L59.9076 50.6193C60.2789 48.8206 57.537 48.064 57.1515 49.8627V49.8484Z" fill="black"/>
<path id="Vector_11" d="M58.8226 65.7808L57.6801 71.9763L59.7794 71.1198C56.3377 68.7929 52.6818 67.0085 48.8261 65.4668C47.1695 64.8101 45.5986 64.0392 44.599 62.5118C43.5993 60.9843 42.5997 59.7566 40.8431 59.0857C37.8727 57.958 33.6028 58.8573 31.3465 61.1128C28.119 64.339 31.932 68.536 34.8167 70.3061C35.7021 70.8486 36.6874 71.2911 37.6871 71.6052C38.801 71.962 39.9577 72.0762 41.0859 72.4046C43.1995 73.0184 44.9703 74.4602 46.6554 75.8164C47.2552 76.3017 48.0835 76.4017 48.669 75.8164C49.1688 75.3167 49.2688 74.2889 48.669 73.8036C47.2695 72.6758 45.8699 71.5195 44.2705 70.663C42.5711 69.7494 40.8146 69.4781 38.9724 69.0071C37.5157 68.6216 36.1162 67.9079 34.9738 66.9086C34.174 66.2091 32.3604 64.5817 33.1458 63.3826C33.8456 62.3119 35.6164 61.8266 36.7874 61.5982C37.9584 61.3698 39.2865 61.4126 40.3576 61.9979C41.7285 62.7402 42.2284 64.4104 43.2994 65.481C44.4847 66.6802 46.0128 67.3939 47.5408 68.0221C51.3252 69.5781 54.9239 71.2911 58.3227 73.5894C59.0511 74.0748 60.2649 73.618 60.422 72.7329L61.5645 66.5374C61.8929 64.7387 59.151 63.9679 58.8083 65.7808H58.8226Z" fill="black"/>
<path id="Vector_12" d="M6.78349 63.3394C10.9392 64.6813 15.0806 66.0232 19.2363 67.3793C19.9646 67.622 20.7929 67.1081 20.9928 66.3801C21.207 65.6092 20.7358 64.8669 19.9932 64.6242C15.8375 63.2823 11.6961 61.9404 7.54037 60.5843C6.81205 60.3416 5.98377 60.8555 5.78384 61.5835C5.56963 62.3544 6.0409 63.0967 6.78349 63.3394Z" fill="black"/>
<path id="Vector_13" d="M25.2915 78.6709C24.2347 70.7623 23.3493 62.811 22.6496 54.8596L21.2215 56.2872C25.6771 56.2586 30.1327 56.2443 34.5882 56.2158H37.7586C38.3584 56.2015 39.5865 55.9588 40.0006 56.5441C40.3148 56.9867 40.2291 57.7718 40.2434 58.2857C40.272 59.128 40.3005 59.9845 40.529 60.8124C41.0146 62.5826 43.7707 61.826 43.2852 60.0558C42.8282 58.3999 43.3709 56.587 42.4141 55.0452C41.1288 52.9753 38.444 53.3465 36.3448 53.3607C31.3037 53.3893 26.2626 53.4178 21.2215 53.4464C20.4932 53.4464 19.722 54.103 19.7934 54.8739C20.5075 62.8253 21.3786 70.7623 22.4354 78.6851C22.5353 79.456 23.0209 80.1127 23.8634 80.1127C24.5489 80.1127 25.3915 79.456 25.2915 78.6851V78.6709Z" fill="black"/>
<path id="Vector_14" d="M42.3568 72.9748L43.7134 85.9368L45.5271 84.5663C41.1144 83.5956 36.7016 82.6392 32.2889 81.6684C31.532 81.4971 30.7466 81.8968 30.5323 82.6677C30.3324 83.3815 30.7751 84.2523 31.532 84.4236C35.9447 85.3943 40.3575 86.3507 44.7702 87.3215C45.5842 87.507 46.6838 86.9218 46.5839 85.951L45.2272 72.9891C45.1415 72.2182 44.6274 71.5615 43.7991 71.5615C43.0851 71.5615 42.2854 72.2182 42.3711 72.9891L42.3568 72.9748Z" fill="black"/>
<path id="Vector_15" d="M24.5772 51.4623L23.7632 53.6607C23.7061 53.8463 23.6918 54.0462 23.7346 54.2317C23.7346 54.4173 23.806 54.6029 23.906 54.7599C24.0774 55.0597 24.4201 55.3452 24.7628 55.4166C25.1341 55.5022 25.534 55.488 25.8625 55.2738L26.1481 55.0454C26.3194 54.8741 26.448 54.66 26.5194 54.4173L27.3334 52.2189C27.3905 52.0333 27.4048 51.8335 27.3619 51.6479C27.3619 51.4623 27.2905 51.2768 27.1906 51.1197C27.0192 50.8199 26.6765 50.5344 26.3337 50.4631C25.9624 50.3774 25.5626 50.3917 25.2341 50.6058L24.9485 50.8342C24.7771 51.0055 24.6486 51.2196 24.5772 51.4623Z" fill="black"/>
<path id="Vector_16" d="M20.4502 64.1108C20.3931 64.4248 20.3074 64.7389 20.1789 65.0244L20.3217 64.6818C20.1932 64.9958 20.0218 65.2956 19.8076 65.5668L20.0361 65.2813C20.0361 65.2813 19.9789 65.3527 19.9504 65.3813L21.3356 65.0101C21.0786 64.9387 20.8215 64.8531 20.5502 64.7817C20.3645 64.7246 20.1646 64.7103 19.9789 64.7532C19.7933 64.7532 19.6076 64.8245 19.4506 64.9245C19.2792 65.0101 19.1507 65.1386 19.0507 65.2956C18.9222 65.4384 18.8365 65.5954 18.7936 65.781C18.708 66.1521 18.7222 66.5518 18.9364 66.8802C19.1507 67.2085 19.422 67.4226 19.7933 67.5368C20.0503 67.6082 20.3074 67.6939 20.5787 67.7652C20.8358 67.8366 21.0786 67.8366 21.3356 67.7652C21.5784 67.6939 21.7926 67.5797 21.964 67.3941C22.2639 67.0229 22.5495 66.6518 22.7351 66.2092C22.9208 65.7667 23.1064 65.3384 23.1778 64.8674C23.2349 64.6818 23.2492 64.4819 23.2064 64.2963C23.2064 64.1108 23.135 63.9252 23.035 63.7682C22.9493 63.5969 22.8208 63.4684 22.6637 63.3684C22.5209 63.24 22.3638 63.1543 22.1782 63.1115C21.8069 63.0258 21.407 63.0401 21.0786 63.2542L20.7929 63.4827C20.6216 63.654 20.493 63.8681 20.4216 64.1108H20.4502Z" fill="black"/>
<path id="Vector_17" d="M63.9207 85.4949C64.7205 90.477 65.306 95.5304 65.4202 100.57C65.4631 102.654 65.3774 104.767 64.7633 106.765C64.4063 107.936 63.1782 111.148 61.4787 110.505C60.7647 110.234 59.9079 110.805 59.7222 111.505C59.508 112.304 59.9936 112.989 60.7219 113.26C63.2781 114.231 65.5059 111.876 66.577 109.82C67.7765 107.507 68.1907 104.895 68.2764 102.311C68.3621 99.5275 68.105 96.7296 67.8479 93.9602C67.5623 90.8624 67.1625 87.7932 66.6769 84.724C66.5484 83.9674 65.6059 83.5392 64.9204 83.7248C64.1064 83.9532 63.8065 84.7098 63.9207 85.4806V85.4949Z" fill="black"/>
<path id="Vector_18" d="M46.4126 87.5219C48.9831 86.9795 51.5251 88.1501 53.553 89.6632C55.5808 91.1764 57.6515 93.2178 59.4509 95.1592C62.864 98.8423 64.3635 103.839 63.1496 108.764C62.7069 110.548 65.4631 111.305 65.9058 109.52C67.3767 103.582 65.5773 97.586 61.4645 93.1321C57.3516 88.6782 52.1106 83.4107 45.6557 84.7668C43.8563 85.138 44.6132 87.8931 46.4126 87.5219Z" fill="black"/>
<path id="Vector_19" d="M12.7241 93.1177C9.82513 97.1005 8.36849 102.825 9.75372 107.664C10.5534 110.476 12.9526 111.076 15.566 111.247C18.5792 111.447 21.6067 111.647 24.62 111.861C25.9623 111.947 27.5618 112.304 28.8756 111.961C30.0895 111.647 30.8035 110.619 31.1891 109.491C31.7746 107.778 31.9174 105.666 33.5168 104.495C35.2876 103.196 36.8157 105.694 37.5868 106.979C39.1577 109.563 40.7143 112.161 42.2995 114.73C45.8982 120.583 49.5684 126.379 53.3242 132.132C54.3238 133.66 56.7944 132.232 55.7948 130.69C52.5816 125.765 49.4398 120.812 46.3409 115.815C44.8129 113.346 43.2848 110.862 41.7854 108.378C40.5144 106.265 39.3576 103.71 37.3155 102.225C35.4876 100.898 33.1455 101.069 31.4604 102.511C29.8895 103.853 29.1184 105.98 28.6471 107.935C28.5757 108.264 28.5186 108.806 28.2901 109.063C28.0188 109.363 27.4333 109.206 27.0477 109.177C25.591 109.077 24.1487 108.978 22.6921 108.892C21.2354 108.806 19.6788 108.692 18.1651 108.592C16.8798 108.506 15.5517 108.506 14.2807 108.307C12.9383 108.092 12.5527 107.422 12.3243 106.122C12.0958 104.823 12.0815 103.467 12.21 102.168C12.4671 99.4131 13.5524 96.8007 15.1804 94.5738C15.6374 93.9456 15.2804 92.9892 14.6663 92.618C13.938 92.1898 13.1668 92.5038 12.7098 93.1319L12.7241 93.1177Z" fill="black"/>
<path id="Vector_20" d="M45.2701 86.5941C52.6961 97.8573 58.7369 110.006 63.1496 122.753C63.4495 123.624 63.7351 124.481 64.0207 125.352C64.3063 126.222 64.4777 127.279 65.0775 127.978C66.4913 129.634 69.1618 128.035 68.1193 126.037C67.2767 124.409 64.8062 125.851 65.6487 127.479L65.7201 127.621L65.5773 126.522L65.5345 126.679L65.9058 126.051C66.1485 125.994 66.3913 125.923 66.6198 125.851H66.4342C66.6769 125.908 66.9197 125.965 67.1482 126.037C67.3053 126.137 67.2053 126.151 67.2196 125.965C67.2339 125.78 67.0768 125.537 67.0197 125.352C66.9197 125.037 66.8197 124.738 66.7198 124.438C66.4627 123.667 66.2057 122.91 65.9486 122.14C65.4773 120.769 64.9775 119.399 64.4777 118.043C63.4209 115.202 62.2642 112.404 61.0503 109.634C58.6797 104.21 56.0092 98.9279 53.0674 93.7888C51.3823 90.8481 49.5972 87.9645 47.7264 85.138C46.7125 83.6105 44.2419 85.0381 45.2559 86.5798L45.2701 86.5941Z" fill="black"/>
<path id="Vector_21" d="M54.8524 132.918C59.0938 132.075 63.1781 130.676 67.0624 128.792C67.6194 128.521 67.8764 127.75 67.7193 127.179C67.5765 126.679 67.448 126.18 67.3052 125.68C66.8196 123.91 64.0635 124.667 64.549 126.437C64.6918 126.936 64.8203 127.436 64.9632 127.936L65.6201 126.322C61.9642 128.107 58.0798 129.377 54.0812 130.163C53.3244 130.305 52.8959 131.219 53.0816 131.918C53.2958 132.704 54.0812 133.06 54.8381 132.918H54.8524Z" fill="black"/>
<path id="Vector_22" d="M65.1488 127.607C66.9339 130.462 68.9046 133.203 71.0182 135.844C71.4894 136.429 72.5605 136.372 73.0317 135.844C73.603 135.23 73.5316 134.445 73.0317 133.831C72.4891 133.16 72.1463 132.718 71.6893 132.104C71.2038 131.461 70.7325 130.819 70.2756 130.162C69.3473 128.863 68.4619 127.521 67.6193 126.165C67.2195 125.537 66.3198 125.223 65.6629 125.651C65.006 126.079 64.7346 126.922 65.1488 127.607Z" fill="black"/>
<path id="Vector_23" d="M56.7946 132.203C59.1223 135.601 61.3358 139.013 62.364 143.053C63.2637 146.664 63.6065 150.69 65.7771 153.831C66.3198 154.63 67.0624 155.301 68.0621 155.401C69.1331 155.501 70.1042 154.915 71.0324 154.459C72.9318 153.531 74.774 152.503 76.5734 151.404C78.3727 150.305 80.015 149.205 81.6287 147.963C83.2425 146.721 84.0279 144.923 82.7998 143.081C82.1571 142.125 81.2289 141.34 80.4149 140.54C79.5152 139.669 78.6155 138.799 77.7015 137.942C75.8736 136.229 74.0028 134.573 72.0892 132.946C70.6897 131.761 68.6618 133.774 70.0756 134.959C72.9746 137.428 75.8022 139.998 78.5155 142.667C79.1011 143.238 79.758 143.809 80.2721 144.437C80.7862 145.065 80.4292 145.28 79.8436 145.736C78.4299 146.821 76.9161 147.806 75.4166 148.734C73.9172 149.662 72.2463 150.604 70.6183 151.447C70.2327 151.646 69.8471 151.832 69.4616 152.032C69.1902 152.16 68.719 152.517 68.4191 152.517C68.4191 152.517 68.7618 152.746 68.3762 152.489C68.2763 152.417 68.162 152.203 68.1049 152.132C67.8621 151.761 67.6622 151.361 67.4623 150.961C66.0199 147.978 65.7914 144.552 64.8917 141.382C63.7778 137.457 61.5501 134.059 59.2651 130.719C58.2369 129.206 55.7521 130.633 56.7946 132.161V132.203Z" fill="black"/>
<path id="Vector_24" d="M70.5898 133.089C67.1053 133.717 63.8493 135.387 61.2359 137.785C60.679 138.285 60.679 139.299 61.2359 139.798C61.8215 140.341 62.664 140.341 63.2495 139.798C63.5351 139.541 63.835 139.284 64.1349 139.042C64.1778 138.999 64.3063 138.899 64.1921 138.999C64.292 138.927 64.392 138.856 64.4777 138.785C64.6348 138.67 64.7918 138.556 64.9489 138.456C65.6058 138.014 66.3056 137.6 67.0196 137.243C67.191 137.157 67.3624 137.072 67.548 137C67.6337 136.957 67.7194 136.915 67.8194 136.886C67.6766 136.943 67.8194 136.886 67.8765 136.857C68.2335 136.715 68.6048 136.572 68.9618 136.458C69.7473 136.201 70.547 136.001 71.3467 135.858C72.0893 135.73 72.5606 134.788 72.3463 134.102C72.0893 133.317 71.3753 132.96 70.5898 133.103V133.089Z" fill="black"/>
<path id="Vector_25" d="M29.3186 107.178C24.8059 121.325 20.2932 135.457 15.7804 149.604C15.6091 150.161 15.8804 150.96 16.4374 151.217C22.1354 153.887 28.3903 155.172 34.6881 154.872C35.3307 154.843 35.8877 154.444 36.0591 153.83C39.3293 142.395 43.328 131.175 48.0549 120.268C48.3548 119.555 48.2691 118.741 47.5408 118.313C46.941 117.956 45.8985 118.113 45.5843 118.827C40.7574 129.961 36.6446 141.396 33.3029 153.073L34.6738 152.031C28.8901 152.302 23.1207 151.217 17.8654 148.762L18.5223 150.375C23.0351 136.228 27.5478 122.096 32.0605 107.949C32.6174 106.193 29.8612 105.436 29.3043 107.192L29.3186 107.178Z" fill="black"/>
<path id="Vector_26" d="M18.5079 151.261C14.6521 158.97 11.5818 167.064 9.42537 175.401C9.254 176.086 9.65386 177.028 10.425 177.156C13.5097 177.656 16.6086 177.899 19.736 177.813C22.8635 177.727 25.9482 177.47 28.8757 176.657C31.4891 175.929 32.3602 173.616 32.0317 171.118C31.8747 169.962 31.5462 168.877 31.2606 167.749C30.9178 166.379 30.7322 164.994 30.7036 163.595C30.618 160.483 31.2463 157.357 32.5601 154.544C32.8886 153.845 32.7601 153.003 32.046 152.589C31.432 152.232 30.418 152.403 30.0896 153.102C27.8332 157.899 27.2191 163.352 28.5044 168.52C28.7472 169.505 29.0899 170.49 29.2184 171.518C29.3041 172.174 29.3898 173.145 28.8043 173.63C28.433 173.944 27.8475 174.002 27.4048 174.087C26.6908 174.244 25.9624 174.373 25.2484 174.487C23.8203 174.715 22.378 174.858 20.9213 174.944C17.6796 175.115 14.4093 174.958 11.1962 174.444L12.1958 176.2C14.3094 168.092 17.2369 160.226 20.9927 152.746C21.821 151.104 19.3505 149.662 18.5222 151.304L18.5079 151.261Z" fill="black"/>
<path id="Vector_27" d="M16.5371 164.294C17.6939 162.381 19.8931 161.153 22.0495 160.996C23.1491 160.91 24.2059 161.039 25.2055 161.467C26.2052 161.895 27.4333 162.766 27.5333 163.951C27.5904 164.722 28.1473 165.378 28.9613 165.378C29.6897 165.378 30.4465 164.722 30.3894 163.951C30.0895 160.068 25.9481 158.012 22.4065 158.127C18.8649 158.241 15.8231 159.968 14.0666 162.852C13.1097 164.422 15.5803 165.864 16.5371 164.294Z" fill="black"/>
<path id="Vector_28" d="M34.0599 34.4601C32.0463 35.7592 29.6186 35.6164 27.3194 35.4879C24.8916 35.3594 22.3068 35.1596 19.9934 36.0589C17.3086 37.101 15.7234 39.3565 14.2668 41.712C12.596 44.4385 10.9965 47.208 9.46847 50.0202C7.74051 53.2321 6.11251 56.5012 4.58447 59.8131C4.25601 60.5126 4.38454 61.3548 5.09857 61.7688C5.71264 62.1257 6.72658 61.9544 7.05503 61.2549C9.65412 55.5876 12.5674 50.0773 15.7806 44.7383C17.0515 42.6256 18.3511 39.8419 20.7645 38.8141C22.8781 37.9147 25.3772 38.2431 27.5907 38.3573C30.304 38.5 33.1459 38.4572 35.5022 36.9297C37.0445 35.9305 35.6022 33.4608 34.0599 34.4601Z" fill="black"/>
<path id="Vector_29" d="M6.01236 61.3702C4.92703 64.0968 3.89882 66.8519 2.92773 69.6213C1.95664 72.3907 0.828461 75.1316 0.185829 77.9581C-0.128347 79.3856 0.0287408 80.6847 0.785619 81.9409C1.41397 82.983 2.21369 83.9537 3.04197 84.8245C4.64141 86.509 6.56931 87.9365 8.65429 88.9501C11.0963 90.1349 13.6954 90.8344 16.4087 90.9914C18.2509 91.1057 18.2367 88.2506 16.4087 88.1364C11.2962 87.8366 6.24085 85.0672 3.41327 80.756C2.97057 80.0708 2.75636 79.5284 2.92773 78.7147C3.08481 77.9438 3.38471 77.1872 3.62748 76.4306C4.14159 74.8461 4.66997 73.2615 5.21264 71.6769C6.32654 68.465 7.51184 65.2816 8.75426 62.1125C9.03987 61.3987 8.44008 60.5422 7.75461 60.3566C6.94061 60.1282 6.28369 60.6279 5.99808 61.3559L6.01236 61.3702Z" fill="black"/>
<path id="Vector_30" d="M14.3093 95.5588C19.1362 89.4633 26.048 85.352 33.7168 84.0244C34.4737 83.8959 34.9021 82.9537 34.7164 82.2685C34.5022 81.4691 33.7168 81.1408 32.9599 81.2692C24.8913 82.6682 17.3939 87.1078 12.2957 93.5317C11.8102 94.1313 11.7102 94.9593 12.2957 95.5446C12.7955 96.0442 13.838 96.1584 14.3093 95.5446V95.5588Z" fill="black"/>
<path id="Vector_31" d="M17.0228 65.5523L13.5526 76.1018C13.2955 76.8869 13.8667 77.5864 14.5522 77.8576C17.0656 78.8426 19.579 79.8276 22.0924 80.8126C23.3348 81.298 24.5915 81.8833 25.9482 81.8833C27.1621 81.8833 28.2474 81.3979 29.3899 81.0839C32.9743 80.0989 37.0443 81.712 39.0436 84.8383C40.029 86.38 42.4996 84.9525 41.5142 83.3965C39.2007 79.7705 34.8165 77.5436 30.4895 78.0004C29.2899 78.1289 28.2189 78.5 27.0621 78.8284C25.7626 79.1995 24.7344 78.7855 23.5205 78.3145C20.7929 77.2438 18.051 76.1732 15.3234 75.1025L16.323 76.8584L19.7932 66.3089C20.3645 64.5531 17.6083 63.8107 17.0371 65.5523H17.0228Z" fill="black"/>
</g>
<g id="Mask group">
<mask id="mask0_141_1484" style="mask-type:alpha" maskUnits="userSpaceOnUse" x="-1" y="-5" width="85" height="183">
<path id="Vector 16" d="M67.5 123.5L63 113.5L67.5 109.5L72.5 92.5L76 78.5L74.5 46L62 30L63.5 10L50.5 -4L31 -5L12 16.5L3.5 61L5 62.5L-0.5 77.5L0.5 81L5 87L14.5 91.5L12 94L9 99.5V107.5L12 111L26.5 112.5L15 150.5L17 153L8.5 176.5L13 178H29L32.5 175L31.5 169V160L32.5 155.5H36L47 123.5L53 133H57L61.5 142.5L63 149.5L66.5 155.5H70L75 153L83.5 147V142.5L80 139.5L73 132L67.5 123.5Z" fill="#D9D9D9"/>
</mask>
<g mask="url(#mask0_141_1484)">
<rect id="Rectangle 45" x="-518" y="50.9404" width="815.042" height="130.031" fill="url(#paint0_linear_141_1484)"/>
</g>
</g>
</g>
<defs>
<linearGradient id="paint0_linear_141_1484" x1="-110.479" y1="180.972" x2="-110.479" y2="50.9404" gradientUnits="userSpaceOnUse">
<stop stop-color="#191817"/>
<stop offset="1" stop-color="#191817" stop-opacity="0"/>
</linearGradient>
<clipPath id="clip0_141_1484">
<rect width="84" height="179" fill="white"/>
</clipPath>
</defs>
</svg>
