<svg width="89" height="157" viewBox="0 0 89 157" fill="none" xmlns="http://www.w3.org/2000/svg">
<g clip-path="url(#clip0_141_1518)">
<path d="M87.4285 152.053C86.3761 147.417 81.6196 146.797 77.8592 145.501C75.3897 144.655 74.8425 142.964 74.183 140.582C73.8042 139.187 73.4113 137.806 73.0324 136.411C73.5937 136.073 74.0006 135.495 73.9445 134.706C73.0886 122.573 71.8258 110.496 70.1841 98.4471C70.1841 98.4471 70.1841 98.433 70.1841 98.419C70.1841 98.3203 70.1561 98.2358 70.142 98.1371C71.3066 91.4997 71.1944 84.8624 69.7071 78.2673C69.4124 76.9567 68.5986 76.2098 67.6445 75.8998C67.2937 75.4629 66.8447 75.0965 66.2834 74.8711C65.1188 74.3779 63.5754 74.5751 62.5792 75.4348H62.5231C62.1302 75.5334 61.7373 75.632 61.3445 75.7166C60.6289 75.8857 59.8992 76.0548 59.1836 76.2239C59.0293 76.2662 58.875 76.2944 58.7066 76.3366C57.991 75.9984 57.1631 75.8998 56.3072 76.0971C52.6732 76.9426 49.1092 78.0418 45.6155 79.3805C45.1945 79.5356 44.8016 79.7751 44.4368 80.057C43.0898 77.6472 41.7428 75.2516 40.3818 72.8418C40.2134 72.4331 40.0591 72.0245 39.9048 71.6158C42.262 72.5177 44.7596 72.9827 47.3132 72.9686C47.7763 72.9686 48.1832 72.8841 48.548 72.7573C49.5723 72.6163 50.5544 72.2781 51.4244 71.5876C54.862 68.8397 53.1081 64.0483 52.2382 60.469C51.1999 56.1709 49.895 51.9573 48.3936 47.8143C48.0288 43.5866 46.3591 39.7677 43.5248 36.5547C43.0477 36.0051 42.3742 35.7091 41.6727 35.5964C41.2518 35.0609 40.6905 34.6382 39.9468 34.455C37.4914 33.8772 34.9798 33.5249 32.4542 33.4121C32.0894 33.3558 31.7386 33.3135 31.3738 33.2712C32.5103 32.8907 33.5346 32.1298 34.1239 31.101C35.1622 29.2691 36.0181 27.3948 36.6916 25.436C38.7402 26.2111 41.1676 25.3233 42.3602 23.4631C43.6651 21.4339 43.5108 18.6859 43.6651 16.3607C43.8475 13.6973 44.044 11.0339 44.2264 8.37049C44.3807 6.10166 41.6446 4.9743 39.9468 5.94665C38.4315 4.48107 36.5653 3.35371 34.601 2.67729C30.2232 1.16943 24.9755 2.1277 21.2152 4.77701C17.3987 7.48269 14.1996 12.3445 14.3539 17.2062C14.3539 17.3894 14.382 17.5726 14.41 17.7417C12.1089 21.7439 15.8412 27.2257 20.7101 26.7466C21.2713 26.6902 21.7624 26.5634 22.2254 26.4084C22.4359 26.8734 22.6604 27.3384 22.913 27.7753C22.8849 28.2403 22.8568 28.7054 22.8288 29.1704C22.7867 29.2127 22.7305 29.255 22.6885 29.3113C21.3836 31.0165 19.8261 33.3135 17.6092 33.849C15.0134 34.469 12.2212 33.1444 9.56927 33.3276C7.07171 33.4967 4.57416 34.4268 3.11491 36.5829C1.54341 38.894 1.88016 41.7124 2.04854 44.3335C2.38529 49.3926 2.72204 54.4516 3.05878 59.5107C2.98863 60.0885 2.9325 60.6803 2.87638 61.2581C2.84832 61.6245 2.80622 61.9909 2.77816 62.3573C2.42738 67.1063 2.55366 71.8413 2.96057 76.6185C3.43763 82.1426 3.62003 88.1599 5.402 93.4444C7.07171 98.433 10.4953 102.196 15.5185 103.859C20.3873 105.465 25.6911 105.014 30.7143 104.746C37.9544 104.352 45.1805 103.957 52.4206 103.577C52.4206 103.816 52.4206 104.07 52.4346 104.309C52.3504 104.464 52.2803 104.634 52.2382 104.831C51.7611 107.832 51.3823 110.848 51.1578 113.878C51.0455 115.358 50.9754 116.837 50.9333 118.303C50.8912 119.642 50.6527 121.276 51.0876 122.559C51.4103 123.545 52.2242 124.123 53.1222 124.25C53.6413 125.053 54.4271 125.589 55.311 125.856C55.311 125.87 55.283 125.884 55.283 125.913C53.8658 129.21 52.4487 132.522 51.0315 135.819C50.3861 137.341 51.4103 138.722 52.617 138.976C53.2063 139.667 53.9781 140.216 54.8761 140.597C56.181 141.16 57.6121 141.118 59.0153 141.188C58.9872 141.4 58.9732 141.625 58.9872 141.851C59.0714 145.782 59.4783 149.728 59.7309 153.646C59.801 154.745 60.6429 155.816 61.8355 155.76C69.693 155.407 77.5365 155.041 85.394 154.689C86.7971 154.618 87.7372 153.392 87.4285 152.011V152.053ZM80.034 150.503C80.2585 150.574 80.483 150.644 80.7075 150.729C80.4409 150.729 80.1743 150.757 79.8937 150.771C79.9498 150.687 79.9919 150.602 80.034 150.517V150.503ZM51.9576 120.952C51.9856 121.178 51.8593 121.135 51.9576 120.952Z" fill="#B22700"/>
<path d="M19.9945 22.9424C19.7279 25.7608 20.5557 28.6919 22.2395 30.9608C24.0074 33.3423 26.8698 35.3434 29.9566 35.1461C36.1584 34.7656 38.3052 26.9586 39.6101 22.0546C40.6203 18.2638 41.2237 14.3744 41.4622 10.4568C41.5745 8.63888 38.7682 8.65298 38.656 10.4568C38.3052 16.1359 37.1687 21.9982 34.9377 27.2404C34.166 29.0442 33.0435 31.1721 31.1633 32.0177C28.9885 32.99 26.5891 31.6513 25.1018 30.0589C23.3199 28.1423 22.5341 25.5353 22.7867 22.9564C22.8568 22.1955 22.0851 21.5472 21.3835 21.5472C20.5697 21.5472 20.0506 22.1955 19.9804 22.9564L19.9945 22.9424Z" fill="black"/>
<path d="M39.2453 8.70927C36.5373 10.9781 32.9453 11.0204 29.662 10.358C27.6275 9.94937 26.5751 11.0767 25.5508 12.6691C24.5266 14.2616 22.941 15.4876 21.4397 16.6713C20.8363 17.1363 20.9486 18.1792 21.4397 18.6583C22.029 19.2502 22.8288 19.1233 23.4181 18.6583C24.9335 17.4746 26.4067 16.2626 27.5573 14.6984C27.8379 14.3179 28.2869 13.1624 28.778 13.0215C28.8482 13.0074 29.4936 13.2187 29.69 13.261C30.1671 13.3597 30.6442 13.4301 31.1353 13.4865C34.7413 13.9233 38.4034 13.0778 41.2237 10.7103C42.6128 9.5407 40.6204 7.55372 39.2453 8.72336V8.70927Z" fill="black"/>
<path d="M23.7127 17.7559C23.7127 16.1353 22.7165 14.712 21.2433 14.106C19.8542 13.5423 18.0722 13.9651 17.09 15.0925C16.1078 16.2198 15.8132 17.6995 15.9535 19.1369C16.0938 20.5743 16.5007 22.1244 17.6232 23.125C18.2967 23.7309 19.0965 24.0691 19.9945 24.1678C20.8925 24.2664 21.7343 23.9282 22.4359 23.3645C23.0112 22.8995 22.9551 21.8426 22.4359 21.3775C21.8185 20.8138 21.0749 20.8843 20.4575 21.3775C20.696 21.1802 20.4575 21.293 20.4294 21.3775C20.4294 21.3775 20.696 21.293 20.5557 21.3212C20.5136 21.3212 20.4715 21.3493 20.4294 21.3634C20.3874 21.3775 20.3312 21.3775 20.2891 21.3916C20.1067 21.448 20.5698 21.3916 20.3874 21.3775C20.3032 21.3775 20.1348 21.3493 20.0506 21.3775C20.0506 21.3775 20.3312 21.4339 20.1909 21.3916C20.1488 21.3916 20.0927 21.3775 20.0506 21.3634C19.9804 21.3493 19.8401 21.2648 19.77 21.2789C19.784 21.2789 20.0085 21.4057 19.8822 21.3212C19.8401 21.293 19.798 21.2789 19.7559 21.2507C19.7139 21.2225 19.6718 21.1943 19.6297 21.1802C19.5735 21.138 19.4613 21.0111 19.5735 21.1521C19.6858 21.293 19.6016 21.1662 19.5735 21.1521C19.5174 21.0957 19.4753 21.0534 19.4192 20.997C19.3771 20.9548 19.349 20.9125 19.3069 20.8702C19.1947 20.7434 19.3631 20.9407 19.3631 20.9407C19.335 20.9407 19.2087 20.7011 19.1947 20.6729C19.1666 20.6307 19.1386 20.5743 19.1245 20.532C19.1105 20.5038 18.9983 20.2924 19.0824 20.4475C19.1666 20.6025 19.0404 20.3065 19.0123 20.2643C18.9702 20.1656 18.9421 20.0529 18.9141 19.9542C18.886 19.8274 18.8439 19.7006 18.8299 19.5737C18.8299 19.5174 18.8018 19.461 18.8018 19.4046C18.8018 19.3624 18.7457 19.1228 18.7878 19.3201C18.8299 19.5174 18.7878 19.1933 18.7738 19.1369C18.7738 19.0382 18.7597 18.9255 18.7597 18.8269C18.7597 18.6014 18.7597 18.3618 18.7597 18.1364C18.7597 18.0941 18.7878 17.9532 18.7738 17.925C18.7738 17.925 18.7176 18.1927 18.7738 18.0377C18.8018 17.9391 18.8159 17.8404 18.8439 17.7277C18.872 17.6149 18.9141 17.5304 18.9281 17.4317C18.9702 17.2767 18.9 17.5163 18.886 17.5304C18.9141 17.5304 18.9562 17.3754 18.9702 17.3472C18.9702 17.319 19.1245 17.0935 19.1245 17.0935C19.1245 17.0935 18.9421 17.2908 19.0544 17.1781C19.0824 17.1358 19.1245 17.0935 19.1526 17.0654C19.1666 17.0513 19.2929 16.9244 19.3069 16.9244C19.3069 16.9244 19.0824 17.0654 19.2228 16.9808C19.2508 16.9667 19.5314 16.7976 19.5314 16.7976C19.5314 16.7976 19.2789 16.8822 19.4332 16.8399C19.4753 16.8258 19.5314 16.8117 19.5735 16.7835C19.6156 16.7553 19.8542 16.7412 19.8682 16.713C19.8682 16.713 19.5876 16.7271 19.7419 16.7271C19.798 16.7271 19.8401 16.7271 19.8963 16.7271C19.9524 16.7271 20.3172 16.7271 20.1208 16.7271C19.9243 16.7271 20.1208 16.7271 20.1769 16.7553C20.247 16.7694 20.3032 16.7976 20.3733 16.8117C20.5277 16.854 20.2751 16.7835 20.2751 16.7694C20.2751 16.7835 20.4294 16.854 20.4435 16.8681C20.4856 16.8962 20.5277 16.9244 20.5698 16.9526C20.7241 17.0372 20.4014 16.7835 20.5136 16.9103C20.5417 16.9385 20.7241 17.164 20.7522 17.164C20.7381 17.164 20.6119 16.9385 20.682 17.0794C20.7101 17.1358 20.7522 17.1922 20.7943 17.2485C20.8223 17.2908 20.8364 17.3331 20.8644 17.3754C21.0188 17.6431 20.8223 17.1922 20.8644 17.3613C20.8644 17.4177 20.9205 17.6572 20.9486 17.6995C20.9486 17.6995 20.9346 17.4177 20.9346 17.5727C20.9346 17.6572 20.9346 17.7418 20.9346 17.8122C20.9346 18.545 21.58 19.2496 22.3377 19.2214C23.0954 19.1933 23.7408 18.6014 23.7408 17.8122L23.7127 17.7559Z" fill="black"/>
<path d="M38.8524 3.49502C36.5232 1.12755 33.1417 -0.239384 29.8163 0.0283658C27.9502 0.183379 26.2103 0.789339 24.5125 1.5785C22.8147 2.36765 21.2152 3.18499 19.7559 4.22781C18.2967 5.27062 17.076 6.553 16.2341 8.14541C15.3361 9.83646 14.7468 11.6825 14.1154 13.4863C12.9508 16.8261 11.0987 20.8565 12.8245 24.2949C14.2978 27.2402 17.988 28.8749 21.131 27.8884C22.8428 27.3529 22.1132 24.6332 20.3873 25.1687C18.4651 25.7746 16.3183 24.8304 15.3501 23.0689C14.7047 21.8993 14.8731 20.5324 15.1958 19.2782C15.6027 17.6717 16.164 16.0934 16.7112 14.5291C17.6653 11.7671 18.4931 8.73728 20.8784 6.86303C22.029 5.96114 23.362 5.28472 24.6528 4.62239C25.9437 3.96006 27.3889 3.29773 28.8762 2.97361C31.7667 2.35356 34.8114 3.36819 36.874 5.46791C38.1509 6.76439 40.1293 4.76331 38.8524 3.48093V3.49502Z" fill="black"/>
<path d="M36.9722 5.1438C38.5016 6.45437 40.8729 6.86304 41.827 8.76547C42.711 10.5129 42.5005 12.7113 42.3742 14.5855C42.2058 16.9389 42.1497 19.405 41.5885 21.7161C41.2096 23.3085 40.1573 25.5351 38.1368 25.2391C37.3931 25.1264 36.6354 25.4223 36.4109 26.2256C36.2285 26.8879 36.6354 27.8462 37.3931 27.9589C40.2134 28.3676 42.5847 26.8034 43.6931 24.2245C44.8016 21.6456 44.8437 18.6863 45.0682 15.9383C45.2646 13.3595 45.5593 10.5693 44.5771 8.10314C44.1001 6.90532 43.3704 5.90478 42.3321 5.12971C41.2938 4.35465 39.9328 3.98825 38.9366 3.12864C37.5755 1.95899 35.5831 3.94598 36.9582 5.11562L36.9722 5.1438Z" fill="black"/>
<path d="M20.1488 28.0014C21.0187 30.4957 17.9599 31.7217 16.0377 31.8062C13.0771 31.9331 10.0463 31.0171 7.14187 31.9894C1.82404 33.751 -0.252578 39.726 0.0280462 44.8978C0.196421 48.1672 0.9962 51.3943 1.6697 54.5791C2.3432 57.7639 2.87638 60.8641 3.66213 63.9503C4.34966 66.6278 5.87906 68.6993 8.44677 69.8267C11.0145 70.9541 13.961 71.3346 16.7533 71.7151C23.9092 72.7156 31.1352 72.8001 38.3052 71.9264C39.0629 71.8278 39.7083 71.3487 39.7083 70.5172C39.7083 69.8267 39.0629 69.0094 38.3052 69.108C32.1736 69.8549 25.9577 69.9254 19.8121 69.2771C16.9637 68.9812 14.0452 68.6007 11.267 67.8397C10.1866 67.5438 9.09221 67.1492 8.20824 66.4446C7.25412 65.6977 6.77706 64.6126 6.45434 63.4712C5.64053 60.54 5.14944 57.482 4.53207 54.4945C3.91469 51.507 3.07282 48.3504 2.86235 45.2219C2.67995 42.6008 2.9746 39.9797 4.36369 37.7108C5.6265 35.6534 7.56281 34.4133 9.99021 34.3287C13.1051 34.2301 16.2622 35.1884 19.2789 33.9623C21.8326 32.9195 23.8671 30.0588 22.8709 27.2404C22.2816 25.5353 19.5595 26.2681 20.1628 27.9873L20.1488 28.0014Z" fill="black"/>
<path d="M12.0387 42.798C12.7403 46.321 13.5962 49.8159 14.6485 53.2543C15.1116 54.7763 15.5606 56.3405 16.2341 57.7779C16.9076 59.2153 18.0301 60.3286 19.363 61.2164C22.1552 63.0765 25.1579 64.683 28.1045 66.2895C31.2194 67.9947 34.3764 69.6011 37.5755 71.1372C39.2032 71.9123 40.6203 69.4884 38.9927 68.6993C33.0154 65.8245 27.1363 62.696 21.4958 59.2153C20.261 58.4543 19.2929 57.6792 18.6615 56.3405C18.002 54.9172 17.6091 53.3389 17.1601 51.8451C16.192 48.618 15.3922 45.3346 14.7467 42.037C14.396 40.2614 11.6879 41.0083 12.0387 42.7839V42.798Z" fill="black"/>
<path d="M15.8272 56.0017L15.771 56.0722L17.3566 55.4239L17.2303 55.3816L18.2125 56.3681L18.1704 56.2553L17.8056 57.6223L17.9599 57.4955L16.9637 57.9041C18.2405 57.7491 19.6156 57.9041 20.9065 57.9041C22.1973 57.9041 23.376 57.9041 24.6107 57.9323C27.2486 57.9746 29.6479 58.4396 32.1595 59.257C37.0564 60.8494 41.9954 61.9626 47.1308 62.329C48.9268 62.4559 48.9268 59.6375 47.1308 59.5106C44.521 59.3274 41.9393 58.961 39.3715 58.3833C36.8038 57.8055 34.2221 56.9177 31.6403 56.1426C29.0586 55.3675 26.4628 55.128 23.7688 55.1139C22.4218 55.1139 21.0608 55.0998 19.7138 55.0857C18.437 55.0857 16.8374 54.7475 15.8131 55.6353C15.4623 55.9453 15.294 56.5654 15.4483 57.0022C15.6588 57.5941 15.9815 57.9464 16.5848 58.1437C17.1882 58.341 17.8196 58.0028 18.1704 57.4955L18.2265 57.425C19.2648 55.9453 16.8374 54.5361 15.7991 56.0017H15.8272Z" fill="black"/>
<path d="M40.3958 59.7362C41.6025 59.1161 42.8092 58.4679 44.0299 57.9042C45.0682 57.411 46.0785 57.0869 47.1449 57.1291C47.4395 57.1291 48.0008 57.256 48.2674 57.3687C48.4357 57.4392 48.7304 57.6364 48.8005 57.6928C48.8567 57.7351 49.025 57.9183 49.011 57.9042C48.9829 57.876 48.997 57.9042 49.0391 57.9606C49.0812 58.0451 49.0952 58.0592 49.0531 57.9887C48.8847 58.0169 49.4039 57.5378 48.9829 57.9042C48.7584 58.1015 48.5339 58.3129 48.2954 58.5102C47.8464 58.8906 47.3834 59.2429 46.9063 59.5812C46.289 60.018 45.9943 60.8072 46.4012 61.5118C46.752 62.1318 47.7061 62.4559 48.3235 62.0191C49.0531 61.4977 49.7547 60.9622 50.4282 60.3844C51.1437 59.7784 51.8032 59.0738 51.8453 58.0874C51.9295 56.2836 50.2177 54.9871 48.6462 54.5503C45.2226 53.5779 41.8832 55.8186 38.9647 57.3123C38.2912 57.6505 38.0947 58.6088 38.4595 59.2429C38.8664 59.9335 39.6943 60.0885 40.3818 59.7503L40.3958 59.7362Z" fill="black"/>
<path d="M24.4985 58.0177C24.3161 57.609 24.4985 58.0318 24.5406 58.1445C24.5827 58.2713 24.6248 58.4123 24.6668 58.5391C24.737 58.8068 24.7931 59.0746 24.8352 59.3423L24.7791 58.9619C24.8493 59.5115 24.8493 60.061 24.7791 60.6106L24.8352 60.2302C24.7651 60.7516 24.6248 61.2589 24.4283 61.738C24.302 62.048 24.4003 62.5413 24.5686 62.8231C24.737 63.1049 25.0738 63.4009 25.4105 63.4713C25.7753 63.5559 26.1682 63.5418 26.4909 63.3304C26.8136 63.119 26.996 62.8513 27.1363 62.4849C27.5012 61.5971 27.6555 60.6106 27.6415 59.6524C27.6134 58.5673 27.3608 57.5667 26.9259 56.5803C26.7996 56.2844 26.3927 56.0166 26.084 55.9321C25.7472 55.8334 25.2982 55.8757 25.0036 56.073C24.7089 56.2703 24.4423 56.5521 24.3582 56.9185C24.274 57.3131 24.3441 57.6372 24.4985 58.0036V58.0177Z" fill="black"/>
<path d="M37.4914 71.8414C41.3641 73.8988 45.826 76.0126 50.2037 74.2088C52.0138 73.4619 53.5151 72.1655 54.2587 70.3335C55.1708 68.121 54.8481 65.6972 54.357 63.4143C53.2906 58.4116 51.9857 53.4371 50.6247 48.5189C49.9512 46.0951 49.3198 43.6431 48.4919 41.2615C47.7763 39.1759 46.7661 37.1748 45.1104 35.6951C41.7148 32.6372 37.0144 31.9607 32.6507 31.4534C31.893 31.3689 31.2476 32.1721 31.2476 32.8626C31.2476 33.6941 31.893 34.1873 32.6507 34.2718C35.92 34.6664 39.4278 35.1455 42.234 37.0057C45.5173 39.19 46.261 43.4176 47.2712 46.9547C48.534 51.3515 49.6846 55.7905 50.7509 60.2436C51.242 62.2869 51.8875 64.4007 52.0278 66.5005C52.14 68.1915 51.8033 69.8826 50.3721 70.9395C46.8222 73.5747 42.234 71.179 38.9086 69.4034C37.309 68.5579 35.8919 70.9817 37.4914 71.8414Z" fill="black"/>
<path d="M16.9217 34.4554C18.9702 38.8381 21.2994 43.0798 23.8812 47.1665C24.4705 48.0825 25.0317 49.1958 26.0981 49.6185C27.1645 50.0413 28.3852 49.6326 29.1288 48.7871C29.9286 47.8852 30.083 46.6733 30.3215 45.5318C30.5741 44.2776 30.8407 43.0375 31.1213 41.7974C31.7387 39.0213 32.4262 36.2592 33.1698 33.5254C33.6469 31.7779 30.9389 31.0311 30.4618 32.7785C29.7462 35.4278 29.0868 38.0912 28.4834 40.7687C28.1888 42.1074 27.8941 43.4462 27.6275 44.799C27.5153 45.3768 27.4872 46.1378 27.2066 46.6733C27.2066 46.6733 26.8839 47.1383 26.8979 47.0397C26.9821 46.9833 27.0803 46.9833 27.1645 47.0397C27.1364 47.0115 27.1084 46.9692 27.0803 46.941C27.0803 46.8142 26.6874 46.3492 26.6173 46.2364C26.4349 45.9546 26.2665 45.6727 26.0841 45.3909C25.7333 44.8272 25.3825 44.2635 25.0458 43.6998C24.3582 42.5584 23.6988 41.4169 23.0533 40.2614C21.7344 37.908 20.5137 35.4982 19.3631 33.0462C19.0404 32.3557 18.0582 32.1866 17.4408 32.5389C16.7393 32.9476 16.613 33.779 16.9357 34.4695L16.9217 34.4554Z" fill="black"/>
<path d="M1.68371 54.3816C1.16456 66.7121 0.673466 79.24 3.40955 91.3733C4.02693 94.1072 4.72849 96.9679 6.22983 99.3494C7.73117 101.731 9.9481 103.366 12.4737 104.451C17.9459 106.818 24.0635 107.072 29.9285 106.832C37.0003 106.536 44.058 105.902 51.1157 105.409C52.9117 105.282 52.9257 102.464 51.1157 102.591C45.0823 103.013 39.0488 103.464 33.0154 103.845C27.3187 104.211 21.4677 104.408 15.9394 102.732C13.5401 102.013 11.1688 100.928 9.47104 99.0253C7.77326 97.1229 7.05767 94.5017 6.45433 92.0779C5.02314 86.3142 4.39174 80.3956 4.16724 74.4769C3.92871 67.7691 4.1953 61.0753 4.48996 54.3816C4.56011 52.5637 1.75387 52.5778 1.68371 54.3816Z" fill="black"/>
<path d="M7.61894 96.4609C14.5363 88.1606 24.5125 82.6929 35.1903 81.1991C38.207 80.7764 41.2798 80.7059 44.3106 80.9455C46.1066 81.0864 46.1066 78.268 44.3106 78.1271C32.9734 77.2534 21.4537 80.8891 12.4878 87.8647C9.97619 89.8235 7.67507 92.0219 5.64054 94.4739C4.48998 95.8549 6.46838 97.856 7.61894 96.4609Z" fill="black"/>
<path d="M45.4892 79.0005C44.6333 77.8309 43.9037 76.5626 43.3144 75.2379C43.2863 75.1815 43.2582 75.1111 43.2302 75.0547C43.2863 75.1815 43.2723 75.1675 43.2162 75.0124C43.146 74.8433 43.0758 74.6742 43.0197 74.491C42.8934 74.1387 42.7672 73.8005 42.6549 73.4482C42.4304 72.7436 42.248 72.0249 42.1077 71.3062C41.9674 70.5875 41.0694 70.0943 40.3818 70.3198C39.6101 70.5734 39.2453 71.278 39.3997 72.0531C40.003 75.0688 41.2658 77.9577 43.0618 80.4379C43.4968 81.0298 44.2966 81.3821 44.9841 80.9452C45.5734 80.5647 45.9522 79.6487 45.4892 79.0146V79.0005Z" fill="black"/>
<path d="M31.4579 85.0321C38.3332 86.4695 45.1524 88.1606 51.9154 90.0912C53.6553 90.5844 54.399 87.8646 52.6591 87.3714C45.896 85.4549 39.0769 83.7638 32.2016 82.3123C30.4336 81.9459 29.69 84.6516 31.4579 85.0321Z" fill="black"/>
<path d="M44.7736 80.7338C49.025 79.1414 53.4168 77.9154 57.8928 77.1262C60.0816 76.7316 62.2986 76.4639 64.5155 76.2807C65.3995 76.2102 66.4799 76.0129 67.3217 76.3793C67.9952 76.6753 68.3881 77.394 68.6407 78.0422C69.3422 79.9164 69.4124 82.1007 69.4826 84.0736C69.5667 86.427 69.4545 88.7804 69.2581 91.1197C68.8511 95.8264 68.1075 100.519 67.4761 105.198C66.7465 110.609 66.0028 116.02 65.2732 121.446C65.175 122.193 65.4556 122.954 66.2554 123.179C66.9148 123.362 67.883 122.954 67.9812 122.193C68.6828 117.007 69.3843 111.821 70.0859 106.635C70.7875 101.449 71.5732 96.531 72.0222 91.4579C72.2467 88.9495 72.373 86.4129 72.2748 83.8904C72.1906 81.6779 72.0783 79.2541 71.2926 77.1544C70.5068 75.0547 69.1458 73.6455 66.9569 73.3918C64.7681 73.1381 62.1583 73.6173 59.8992 73.9273C54.4691 74.6742 49.1513 76.0411 44.0159 77.9717C43.3003 78.2395 42.8232 78.93 43.0337 79.7051C43.2161 80.3956 44.044 80.9593 44.7595 80.6915L44.7736 80.7338Z" fill="black"/>
<path d="M51.4946 85.8496C50.3159 98.913 49.7828 112.033 49.895 125.152C49.895 126.252 51.0736 126.872 51.9997 126.364C56.4757 123.955 61.4988 122.884 66.5641 123.208C68.3741 123.321 68.3601 120.502 66.5641 120.389C61.0218 120.051 55.4794 121.305 50.5825 123.941L52.6872 125.152C52.575 112.033 53.1082 98.913 54.2868 85.8496C54.3569 85.0887 53.5992 84.4404 52.8837 84.4404C52.0698 84.4404 51.5507 85.0887 51.4805 85.8496H51.4946Z" fill="black"/>
<path d="M63.0984 121.727L62.7476 123.771C62.6354 124.433 62.8318 124.983 63.3931 125.363C64.7541 126.307 65.624 127.745 65.9187 129.379C66.2554 131.211 66.3115 132.902 67.6164 134.368C68.6828 135.566 70.2263 136.2 71.3347 137.355C71.8539 137.891 72.2608 138.553 72.5274 139.258C72.6817 139.667 72.808 140.132 72.8641 140.568C72.8782 140.709 72.794 141.752 72.8641 141.823L72.9764 141.654C73.2991 141.555 73.3692 141.513 73.1588 141.527C73.1728 141.527 72.6677 141.456 72.7799 141.484C72.4292 141.414 72.0924 141.273 71.7557 141.174C70.7314 140.864 69.6931 140.625 68.6407 140.428C66.6202 140.047 64.5717 139.807 62.5231 139.596C60.4746 139.385 58.4962 139.173 56.5037 138.821C55.1708 138.581 52.6451 138.497 52.2382 136.876C51.7612 134.988 53.3046 132.818 54.0062 131.169C54.9743 128.914 55.8162 126.617 56.5178 124.278C57.0509 122.545 54.3429 121.798 53.8097 123.531C53.0801 125.955 52.2102 128.351 51.1859 130.662C50.2598 132.733 49.0672 134.791 49.432 137.144C49.7968 139.497 51.4806 140.554 53.5431 141.076C55.9004 141.668 58.3418 141.949 60.7552 142.217C63.1686 142.485 65.5258 142.696 67.883 143.147C68.9915 143.359 70.0859 143.612 71.1523 143.951C72.0784 144.232 73.0606 144.556 74.0287 144.232C76.2036 143.514 75.8528 140.498 75.3196 138.779C74.6461 136.637 73.243 135.129 71.447 133.875C70.7173 133.367 69.8755 132.874 69.3844 132.099C68.781 131.155 68.8231 129.858 68.6407 128.787C68.2338 126.378 66.7886 124.32 64.7962 122.953L65.4416 124.546L65.7924 122.502C65.9187 121.755 65.596 120.98 64.8102 120.769C64.1367 120.586 63.2106 120.995 63.0844 121.755L63.0984 121.727Z" fill="black"/>
<path d="M53.8658 127.703C55.746 128.718 58.0752 128.971 60.0957 128.168C61.0358 127.802 61.8355 127.252 62.6774 126.702C63.0422 126.463 63.4211 126.223 63.8139 126.026C64.0244 125.913 63.9683 125.941 64.2489 125.857C64.3612 125.829 64.4874 125.786 64.6137 125.772C64.8663 125.73 64.305 125.786 64.7681 125.772C65.5257 125.744 66.1712 125.152 66.1712 124.363C66.1712 123.63 65.5257 122.926 64.7681 122.954C62.7616 123.038 61.4146 124.321 59.7449 125.237C58.3698 125.998 56.6861 125.998 55.297 125.251C54.6235 124.885 53.7676 125.082 53.3747 125.758C52.9818 126.435 53.2063 127.322 53.8798 127.689L53.8658 127.703Z" fill="black"/>
<path d="M68.7249 96.2069C69.7632 109.679 71.1102 123.123 72.7518 136.538L73.4534 135.327C73.6077 135.327 73.6077 135.312 73.4534 135.256C71.8819 134.354 70.4647 136.792 72.0362 137.694C72.9763 138.23 73.9024 138.201 74.8705 137.765C75.2634 137.581 75.6142 136.989 75.5721 136.553C73.9304 123.137 72.5834 109.693 71.5451 96.221C71.4048 94.4313 68.5986 94.4031 68.7389 96.221L68.7249 96.2069Z" fill="black"/>
<path d="M58.1454 140.682C57.8086 143.049 57.5842 145.417 57.528 147.798C57.5 148.982 57.514 150.166 57.5561 151.349C57.5982 152.392 57.5561 153.576 57.8367 154.591C58.4822 157 61.5831 156.704 63.5474 156.831C65.9468 156.986 68.3601 157.029 70.7735 156.986C75.6002 156.916 80.427 156.535 85.2397 156.141C86.3341 156.056 87.5268 156.098 88.3406 155.225C89.1544 154.351 89.0421 153.153 88.8457 152.11C88.4528 150.081 87.0778 148.432 85.3519 147.375C83.6261 146.319 81.4793 145.882 79.5711 145.064C77.9434 144.36 76.2878 143.303 75.9931 141.414C75.8668 140.668 74.9408 140.245 74.2673 140.428C73.4675 140.654 73.1588 141.4 73.2851 142.161C73.8183 145.501 77.1296 147.22 80.006 148.221C81.4513 148.714 82.9666 149.151 84.2435 150.025C84.8608 150.433 85.38 150.983 85.7308 151.659C85.8991 151.998 86.0254 152.35 86.1096 152.73C86.1377 152.885 86.1096 153.252 86.1798 153.365C86.1517 153.59 86.2359 153.548 86.4464 153.224C86.3341 153.252 86.2219 153.266 86.1096 153.266C85.1836 153.181 84.1032 153.435 83.1911 153.505C82.0406 153.59 80.89 153.689 79.7535 153.759C77.6909 153.9 75.6143 154.027 73.5517 154.097C69.3704 154.252 65.161 154.21 60.9937 153.801C60.7833 153.773 60.3623 153.548 60.5728 153.9C60.5026 153.801 60.5167 153.661 60.5026 153.534C60.4185 152.984 60.4185 152.406 60.3904 151.843C60.3343 150.715 60.3202 149.588 60.3202 148.461C60.3483 146.107 60.5167 143.754 60.8534 141.414C60.9657 140.668 60.671 139.907 59.8712 139.681C59.2118 139.498 58.2576 139.907 58.1454 140.668V140.682Z" fill="black"/>
<path d="M59.5906 144.895C60.5447 144.36 61.5409 143.867 62.5512 143.43L62.2144 143.571C62.7336 143.345 63.2667 143.148 63.7859 142.951C64.1367 142.824 64.4313 142.627 64.6278 142.303C64.8102 142.007 64.8803 141.556 64.7681 141.217C64.5436 140.541 63.7859 139.963 63.0422 140.231C61.3585 140.837 59.7168 141.57 58.1734 142.443C57.528 142.81 57.2614 143.74 57.6683 144.374C58.0752 145.008 58.903 145.262 59.5906 144.881V144.895Z" fill="black"/>
<mask id="mask0_141_1518" style="mask-type:alpha" maskUnits="userSpaceOnUse" x="-5" y="-7" width="94" height="165">
<path d="M55 74.5L44 76.5L53.5 73L57 69.5L60 57L55.5 9L52.5 -6.5L21 -4.5L0.5 14L-4.5 59L0.5 73L4 95.5L8.5 103L20.5 107.5L50 106V127H52.5L48 136L50 140L57 142.5L58 156.5L62 158L87 156.5L89 154.5V150L85.5 147.5L76.5 142L72.5 110L72 87.5L71 76.5L67.5 73H62L55 74.5Z" fill="#D9D9D9"/>
</mask>
<g mask="url(#mask0_141_1518)">
<rect x="-518" y="50.9404" width="815.042" height="130.031" fill="url(#paint0_linear_141_1518)"/>
</g>
</g>
<defs>
<linearGradient id="paint0_linear_141_1518" x1="-110.479" y1="180.972" x2="-110.479" y2="50.9404" gradientUnits="userSpaceOnUse">
<stop stop-color="#191817"/>
<stop offset="1" stop-color="#191817" stop-opacity="0"/>
</linearGradient>
<clipPath id="clip0_141_1518">
<rect width="89" height="157" fill="white"/>
</clipPath>
</defs>
</svg>
