<svg width="85" height="167" viewBox="0 0 85 167" fill="none" xmlns="http://www.w3.org/2000/svg">
<g clip-path="url(#clip0_136_1393)">
<path d="M82.9538 161.661C83.0074 161.393 82.9806 161.085 82.8465 160.777C82.565 160.106 82.0422 159.65 81.3987 159.356C79.9912 157.398 78.4496 155.535 76.7471 153.819C76.8275 152.157 76.8946 150.495 76.975 148.832C76.975 148.832 76.975 148.819 76.975 148.806C77.0152 148.618 77.0554 148.43 77.0688 148.243C77.9804 137.666 78.8785 127.089 79.7901 116.512C80.7285 111.405 81.2915 106.217 81.4524 101.016C81.4792 100.104 81.077 99.2596 80.4336 98.6429C80.018 97.3963 79.4282 96.2166 78.6641 95.1173C78.6641 94.5543 78.5032 93.9645 78.0876 93.4015C77.9134 93.1736 77.7257 92.9591 77.5514 92.7312L77.4308 92.5972C76.3315 91.1628 75.1653 89.8088 73.9588 88.5085C73.503 87.9857 73.0204 87.4763 72.5244 86.9803C72.4976 86.9535 72.4708 86.9267 72.4574 86.9133C71.7201 86.1894 70.956 85.4789 70.1517 84.8221C69.7361 84.4601 69.3206 84.0848 68.8916 83.7362C69.0122 83.4949 69.1463 83.2537 69.2401 82.9721C71.1973 77.4626 71.9748 70.7063 71.7871 64.0841C74.1197 49.9683 67.4438 35.008 53.7704 28.6941C52.765 28.2383 51.8132 28.0774 50.9151 28.1176C51.5317 25.4634 52.1886 22.5008 52.6042 19.5248C52.8857 19.0825 53.1404 18.5865 53.3146 18.01C54.0653 15.5703 53.9179 13.5193 53.0197 11.3476C52.9929 10.9991 52.9527 10.6505 52.9259 10.302C52.7918 8.90784 52.269 7.82201 51.5317 6.97748C51.2502 6.42786 50.9419 5.89165 50.5666 5.40906C46.5047 0.0737476 38.0862 -0.0200897 33.8635 5.12755C33.8099 5.12755 33.7697 5.12755 33.7161 5.15436C31.4238 5.63695 29.7883 8.07671 29.7749 10.3288C29.7749 16.455 30.6597 22.3266 32.4158 27.9836C27.2011 28.9354 22.4422 31.6969 18.0989 35.2895C10.9405 41.2146 11.9191 49.4187 11.5169 58.0249C11.2756 63.1725 11.0343 68.3202 10.793 73.4812C10.793 73.5214 10.793 73.5616 10.793 73.6018C10.726 73.8834 10.6724 74.1649 10.6187 74.4464C9.37205 77.3285 9.05032 80.6396 10.2702 83.6022C10.2702 83.629 10.297 83.6558 10.3104 83.6826C8.88946 84.5942 7.91087 86.1358 7.58915 87.8115C-2.14311 94.9833 1.664 106.458 3.99652 116.539C7.05293 129.743 10.1093 142.947 13.1658 156.152C11.9727 156.473 11.0477 157.238 10.3506 158.23C10.3238 158.27 10.3238 158.297 10.297 158.337C8.51411 159.423 6.81164 160.616 5.16279 161.929C4.1976 162.693 5.05554 164.181 6.11456 164.222C12.0933 164.396 18.0721 164.222 24.0375 163.672C24.6005 164.543 26.2359 164.543 26.4504 163.364C26.5442 163.283 26.6247 163.176 26.6649 163.002C26.866 161.983 26.9598 160.964 27.0268 159.945C27.2949 157.117 27.1743 154.288 26.7051 151.473C26.7587 150.977 26.7721 150.468 26.6917 149.905C24.6407 134.77 22.5763 119.622 20.5253 104.488C21.2089 104.139 21.839 103.67 22.3752 103.107C23.0455 103.174 23.7023 103.228 24.3726 103.295C25.6193 103.643 26.9196 103.75 28.2199 103.643C28.3271 103.643 28.4344 103.657 28.5282 103.67C29.48 103.911 30.3245 104.112 30.9144 104.153C32.7777 104.273 34.641 104.246 36.5178 104.166C38.8369 104.246 41.156 104.3 43.4751 104.233C49.8158 104.059 56.4381 102.544 62.7252 103.858C62.8056 103.938 62.886 104.018 62.9665 104.099C63.2077 107.102 63.3418 110.118 63.4222 113.134C63.1407 118.443 62.9799 123.751 62.9665 129.06C62.1219 138.484 61.6661 147.934 61.5857 157.398C61.264 157.653 61.0629 158.028 61.0093 158.457C60.8752 159.516 60.7814 160.589 60.7546 161.648C60.7278 162.64 60.7412 163.605 61.5455 164.289C62.2426 164.892 63.1943 164.865 64.0523 164.744C65.2319 164.57 66.4116 164.369 67.6047 164.222C71.7603 163.685 75.9562 163.444 80.1386 163.431C80.4738 163.551 80.8089 163.645 81.1306 163.766C81.8679 164.047 82.4712 163.551 82.6991 162.921C82.994 162.573 83.1146 162.077 82.9404 161.634L82.9538 161.661ZM24.1313 155.977C24.1179 155.897 24.0911 155.817 24.0777 155.736C24.0911 155.736 24.1179 155.709 24.1313 155.696C24.1313 155.79 24.1313 155.87 24.1313 155.964V155.977ZM57.3496 87.0474C57.4837 87.0876 57.6177 87.1278 57.7652 87.1546C57.7652 87.1814 57.7518 87.2082 57.7384 87.235C57.6043 87.168 57.4837 87.1144 57.3496 87.0474ZM10.297 161.487C10.297 161.487 10.297 161.541 10.297 161.581C10.2568 161.581 10.2032 161.581 10.163 161.581C10.2032 161.554 10.2434 161.527 10.297 161.5V161.487ZM63.8646 162.09C63.7306 162.117 63.5965 162.13 63.4759 162.144C63.4759 162.037 63.4759 161.916 63.4759 161.795C63.7171 161.903 63.9584 161.983 64.2131 162.037C64.0925 162.05 63.9853 162.077 63.8646 162.09Z" fill="#cecece"/>
<path d="M29.9626 12.26C30.5525 19.4184 31.1959 26.7109 34.078 33.3734C35.3247 36.2823 37.3489 39.9554 40.7941 40.572C44.2393 41.1886 47.5772 38.3601 49.159 35.5852C50.0706 33.99 50.5934 32.1937 51.1028 30.4376C51.6524 28.5609 52.1752 26.6573 52.6846 24.7672C53.69 21.0539 54.7758 17.3138 55.0171 13.4531C55.245 10.0079 54.6284 6.58956 52.2824 3.93531C50.1778 1.54917 47.0946 0.208637 43.9443 0.0209626C36.6116 -0.408007 27.925 5.79865 29.7213 13.8686C30.0967 15.5577 32.6839 14.8338 32.3085 13.1582C31.0082 7.35366 37.4428 2.99694 42.5368 2.70202C45.191 2.55456 47.8453 3.34548 49.7891 5.20881C51.8803 7.1928 52.4567 9.84705 52.3763 12.6488C52.2824 15.9465 51.4111 19.1503 50.5666 22.314C49.722 25.4776 48.9177 28.7753 47.8453 31.9256C46.9739 34.486 45.0972 37.4352 42.1748 37.9312C39.2525 38.4272 37.55 34.5664 36.6385 32.5556C33.7697 26.2149 33.2201 19.0833 32.6571 12.2466C32.5096 10.5441 29.8286 10.5307 29.976 12.2466L29.9626 12.26Z" fill="black"/>
<path d="M33.5821 15.7191C33.4883 13.6145 35.8476 12.274 37.4831 13.8022C38.3276 14.5797 38.8102 15.6923 39.5877 16.5503C40.4456 17.4886 41.6119 18.1053 42.9122 17.9578C44.1187 17.8238 45.1509 17.0999 45.9954 16.2554C46.7864 15.4644 47.403 14.392 48.3816 13.8156C50.3388 12.6493 51.6659 16.2554 51.4648 17.6897C51.371 18.4002 51.6391 19.1241 52.4032 19.3386C53.0332 19.5128 53.9582 19.1241 54.052 18.4002C54.3738 16.0677 53.7035 13.6547 51.8804 12.0729C49.816 10.2766 47.4432 10.7994 45.6335 12.6493C44.8828 13.4134 44.2796 14.392 43.368 14.9953C42.3894 15.6253 41.746 15.0489 41.1427 14.2312C40.4322 13.266 39.8424 12.2204 38.8638 11.4831C37.9523 10.7994 36.7726 10.424 35.6331 10.4911C32.8985 10.6519 30.7804 12.9845 30.9145 15.7325C30.9949 17.4484 33.676 17.4618 33.5955 15.7325L33.5821 15.7191Z" fill="black"/>
<path d="M32.3219 26.2419C29.3995 27.3143 26.5174 28.5342 23.7157 29.8882C21.3429 31.041 19.0238 32.2743 16.946 33.8963C14.8682 35.5184 13.2461 37.5426 12.2407 39.9958C11.1683 42.6098 10.8734 45.4785 10.5919 48.2802C9.96183 54.5539 9.82778 60.8678 9.41221 67.1549C9.21113 70.2515 8.92962 73.3482 8.50065 76.418C8.1253 79.0588 7.70974 81.9007 9.03686 84.3673C10.364 86.8339 13.2193 88.0002 15.8602 88.59C19.2383 89.3407 22.7237 89.6356 26.1822 89.4881C27.1876 89.4479 27.8713 88.3755 27.3351 87.4773C25.9409 85.0912 26.6782 82.0214 28.8231 80.3457C29.3459 79.9302 29.3459 78.8577 28.8231 78.4556C27.8311 77.6647 26.7319 77.2357 25.512 76.9676C24.5334 76.7531 23.4476 76.6593 22.536 76.2303C21.4234 75.7075 21.2089 74.6887 21.2625 73.5492C21.3295 72.0881 21.6915 70.6135 21.9328 69.1791C23.0722 62.4228 24.2117 55.6532 25.3511 48.8969C25.4718 48.1864 25.1634 47.4491 24.4127 47.248C23.7693 47.0738 22.8845 47.4625 22.7639 48.1864C21.8121 53.8032 20.8737 59.42 19.922 65.0369C19.4796 67.6911 18.8764 70.3588 18.6217 73.0398C18.4072 75.2115 19.064 77.4234 21.1016 78.5092C22.0534 79.0186 23.1124 79.2197 24.1715 79.4342C25.083 79.6218 26.1957 79.7559 26.9463 80.3591V78.469C23.8631 80.8685 23.099 85.5068 25.0428 88.8447L26.1956 86.8339C23.3805 86.9545 20.5654 86.7937 17.8039 86.2709C15.7395 85.8821 13.2193 85.4129 11.8118 83.7105C10.4042 82.008 10.8064 79.2599 11.1147 77.1687C11.5302 74.2865 11.8252 71.4044 12.0396 68.5088C12.4686 62.7178 12.6027 56.8998 13.0585 51.1088C13.4606 46.1086 13.7153 40.6258 17.576 36.9528C19.493 35.1296 21.8791 33.8427 24.2385 32.6765C27.1072 31.2421 30.0564 29.982 33.0726 28.8694C34.6812 28.2795 33.9841 25.6923 32.3621 26.2821L32.3219 26.2419Z" fill="black"/>
<path d="M27.1743 80.3181C28.2065 80.5863 29.2655 80.546 30.3246 80.5594C31.33 80.5728 32.0539 80.6667 33.0056 80.908C33.4614 81.0152 33.9172 81.1627 34.3596 81.3235C34.4534 81.3638 34.5606 81.3906 34.6545 81.4308C34.6545 81.4308 34.9896 81.5648 34.9226 81.538C34.8422 81.4978 35.1237 81.6453 35.1237 81.6453C35.1103 81.6587 35.003 81.5112 35.003 81.4978C34.869 81.2699 34.9226 81.1493 34.9628 80.9482C34.9896 80.8141 35.1505 80.8141 34.9628 80.8946C35.1505 80.8141 34.936 80.8946 34.936 80.8946L35.0298 80.841C34.9628 80.8678 34.8824 80.8812 34.8153 80.8946C34.574 80.9348 34.9628 80.8946 34.7215 80.8946C34.6009 80.8946 34.4668 80.908 34.3462 80.9214C34.0244 80.9482 33.7161 80.9884 33.3944 81.0688C32.7107 81.2297 32.2415 82.0474 32.456 82.7177C32.6705 83.388 33.381 83.8303 34.1049 83.6561C34.373 83.589 34.0915 83.6293 34.3328 83.6024C34.4802 83.589 34.6277 83.5756 34.7885 83.5622C35.1371 83.5354 35.5124 83.4952 35.8476 83.3746C36.5312 83.1199 37.1211 82.6507 37.416 81.967C37.7377 81.2163 37.6036 80.3584 37.0272 79.7551C36.5446 79.2457 35.861 79.0178 35.2309 78.7765C34.0378 78.3342 32.7777 78.0661 31.5042 77.9454C30.2978 77.8248 28.9438 77.999 27.8848 77.7309C27.2011 77.5567 26.3968 77.9588 26.236 78.6693C26.0751 79.3798 26.4504 80.1305 27.1743 80.3181Z" fill="black"/>
<path d="M25.6595 89.1264C28.9974 90.0916 32.4962 90.2793 35.9548 90.1586C37.617 90.105 39.2793 89.9844 40.9416 89.8369C42.4832 89.7029 44.0784 89.475 45.3519 88.5098C45.9283 88.0674 46.2367 87.3569 45.8345 86.6733C45.4994 86.1102 44.5744 85.7483 43.998 86.1907C42.9389 87.0084 41.652 87.0888 40.3651 87.1961C38.7967 87.3167 37.2149 87.4374 35.6331 87.4776C32.4962 87.5714 29.3862 87.3971 26.3566 86.5258C24.6943 86.0432 23.9838 88.6304 25.6461 89.113L25.6595 89.1264Z" fill="black"/>
<path d="M32.59 82.8392C31.2629 82.6113 30.0698 82.1287 29.0376 81.2573L27.7373 83.496C30.4854 84.0591 33.3407 83.5362 36.129 83.6837C38.9173 83.8312 41.8129 84.3674 44.5476 85.1985L45.258 82.6113C44.7486 82.5308 44.2795 82.5443 43.8371 82.8258C43.502 83.0403 43.3679 83.3888 43.073 83.6167C42.9657 83.7373 42.9926 83.7105 43.1802 83.5228C43.0194 83.5228 42.8585 83.496 42.6976 83.4826C42.4295 83.4558 42.148 83.4424 41.8799 83.4156C41.2231 83.362 40.5796 83.3218 39.9227 83.2681C37.4294 83.0805 34.9226 82.8794 32.4292 82.6917C30.7133 82.5577 30.7133 85.2387 32.4292 85.3728C34.8689 85.5604 37.3221 85.7481 39.7619 85.9358C40.9281 86.0296 42.148 86.2173 43.3143 86.2039C43.8639 86.2039 44.3599 86.0564 44.7889 85.6811C44.9229 85.5604 45.0302 85.4398 45.1374 85.2923C45.3787 84.984 45.4591 85.0779 45.124 85.1583H44.4135L44.561 85.1851C46.2232 85.4398 46.9605 83.1073 45.2715 82.5979C42.51 81.7667 39.6546 81.2305 36.7725 81.0295C35.3917 80.9356 34.011 80.9088 32.6303 80.9624C31.2495 81.0161 29.8285 81.1769 28.4612 80.8954C27.2681 80.6541 26.0617 82.1957 27.1609 83.1341C28.5282 84.3003 30.1101 85.1181 31.893 85.413C32.6034 85.5336 33.3407 85.2253 33.5418 84.4746C33.7161 83.8312 33.3273 82.9464 32.6034 82.8258L32.59 82.8392Z" fill="black"/>
<path d="M46.6924 72.3016C45.1106 71.256 43.1132 70.7198 41.3303 71.5643C40.5662 71.9263 39.8825 72.5697 39.5206 73.3472C39.3597 73.6958 39.105 74.3258 39.1854 74.728C39.1452 75.0229 39.1988 74.9425 39.3597 74.4733C39.6278 74.3392 39.6412 74.299 39.4267 74.3794C39.2659 74.3794 39.0782 74.4599 38.9039 74.5001C37.2953 74.9156 35.9145 76.0015 35.0164 77.3956C34.5874 78.0659 34.1584 78.9774 34.1584 79.7818C34.1584 81.0553 35.3917 82.1009 36.5982 81.4038C38.0996 80.5459 36.7457 78.2268 35.2443 79.0847L35.1504 79.1383L35.8207 78.9506H35.7403C35.9682 79.0043 36.1961 79.0713 36.4105 79.1249C36.692 79.3126 36.8261 79.5405 36.8261 79.8086C36.8261 79.9024 36.8261 79.8622 36.8663 79.7013C36.9199 79.5807 36.9468 79.46 36.987 79.3394C37.0272 79.2456 36.987 79.3394 37.0674 79.1785C37.1344 79.0445 37.2149 78.9104 37.2819 78.7898C37.5232 78.3876 37.8315 78.0525 38.2605 77.7039C38.475 77.5297 39.038 77.2348 39.3061 77.1409C39.9629 76.9264 40.6466 76.8862 41.1694 76.3902C41.4643 76.1087 41.6654 75.7602 41.7593 75.3714C41.7995 75.1838 41.8129 74.9827 41.8263 74.795C41.8263 74.6609 41.7995 74.8352 41.8397 74.6341C41.8665 74.5135 41.9603 74.3526 42.014 74.299C42.2284 74.0577 42.2418 74.0711 42.4965 73.9371C42.7915 73.7896 43.2338 73.7494 43.6762 73.8432C44.266 73.9639 44.7889 74.2588 45.2983 74.5939C45.9015 74.9961 46.7862 74.7146 47.1348 74.1113C47.5235 73.4545 47.2554 72.677 46.6522 72.2748L46.6924 72.3016Z" fill="black"/>
<path d="M39.7618 76.1362C39.9897 74.4874 40.2712 72.852 40.6466 71.2299C40.8208 70.439 41.0219 69.6481 41.2364 68.8572C41.3437 68.4684 41.4509 68.0663 41.5715 67.6775C41.6252 67.5032 41.6788 67.3156 41.7324 67.1413C41.7726 67.0206 41.7994 66.9 41.8396 66.7793C41.8128 66.9268 41.719 67.0475 41.5715 67.1413L40.9013 67.329H40.727C40.4187 66.7659 40.097 66.2163 39.7886 65.6667C39.1184 68.4952 38.4481 71.3237 37.7778 74.1657C37.617 74.8761 37.9923 75.6134 38.7162 75.8145C39.4401 76.0156 40.2042 75.5866 40.3651 74.8761C41.0353 72.0476 41.7056 69.2191 42.3759 66.3772C42.5635 65.6131 42.1346 65.0098 41.4375 64.7283C40.8745 64.5004 40.1774 64.7283 39.7752 65.1707C39.3865 65.5729 39.239 66.0957 39.0916 66.6185C38.7966 67.5837 38.5419 68.5488 38.3006 69.5274C37.8181 71.4712 37.4561 73.4552 37.188 75.4392C37.0942 76.1497 37.3623 76.8735 38.1264 77.088C38.7564 77.2623 39.6814 76.8735 39.7752 76.1497L39.7618 76.1362Z" fill="black"/>
<path d="M45.7674 87.9464C45.9283 87.5845 46.0623 87.2359 46.1294 86.8338C46.1964 86.4316 46.2366 86.0563 46.1964 85.6541C46.116 84.8766 45.9015 84.1125 45.4323 83.4691C45.2178 83.1741 44.9899 82.9463 44.628 82.8524C44.3062 82.7586 43.8773 82.7988 43.5958 82.9865C43.3142 83.1741 43.0595 83.4422 42.9791 83.7908C42.8987 84.1393 42.9121 84.5415 43.1132 84.823C43.2606 85.0241 43.3679 85.2252 43.4617 85.453L43.3277 85.1313C43.4349 85.386 43.5019 85.6541 43.5421 85.9222L43.4885 85.5603C43.5287 85.8552 43.5287 86.1367 43.4885 86.4316L43.5421 86.0697C43.5019 86.3378 43.4349 86.6059 43.3277 86.8606L43.4617 86.5389V86.5791C43.3411 86.7266 43.2874 86.9008 43.2874 87.0751C43.2472 87.2494 43.2606 87.437 43.3142 87.6113C43.3947 87.9196 43.636 88.2547 43.9309 88.4156C44.2392 88.5765 44.6146 88.6569 44.9631 88.5497C45.2714 88.4558 45.6334 88.2413 45.7674 87.933V87.9464Z" fill="black"/>
<path d="M45.2848 74.5281C46.6119 75.1581 47.5637 76.2708 47.8988 77.7185C48.0999 78.5899 47.8988 79.5014 48.5423 80.2387C49.0249 80.7884 49.6683 80.976 50.352 81.0967C50.4861 81.1235 50.6335 81.1637 50.7676 81.1771L50.8882 81.2173C50.6737 81.1637 50.5263 81.0163 50.4593 80.7616L50.4324 80.6409C50.4056 80.7616 50.3788 80.8822 50.352 81.0028C50.2984 81.2441 50.2314 81.4854 50.1777 81.7267C49.9499 82.5713 49.6952 83.4426 49.3466 84.2469C48.9981 85.0512 48.6227 85.3194 47.7782 85.44C46.8666 85.5606 45.9417 85.5875 45.0301 85.6545C44.3062 85.7081 43.6896 86.2309 43.6896 86.995C43.6896 87.6787 44.3062 88.3892 45.0301 88.3355C47.2956 88.1613 50.0303 88.3355 51.3842 86.1505C51.9606 85.2255 52.2958 84.0727 52.6041 83.027C52.9124 81.9814 53.4352 80.6409 52.8722 79.6087C52.4298 78.8044 51.5987 78.6167 50.781 78.4692C50.6871 78.4558 50.5933 78.429 50.4995 78.4022C50.3386 78.3486 50.3252 78.3486 50.4458 78.4022L50.5129 78.4558C50.6603 78.7508 50.714 78.7508 50.6737 78.4558C50.7542 77.9867 50.5799 77.37 50.4593 76.9142C49.9499 74.9034 48.5021 73.1205 46.6387 72.2224C45.9819 71.914 45.191 72.0481 44.8022 72.705C44.4537 73.2948 44.6279 74.2198 45.2848 74.5415V74.5281Z" fill="black"/>
<path d="M52.4433 80.3857C54.8562 79.3669 57.0815 77.8924 58.9851 76.0826C59.8966 75.1979 60.8618 74.2327 61.3042 73.0262C61.7465 71.8198 61.5589 70.2513 61.5455 68.951C61.4918 62.7712 61.4114 56.5913 61.3042 50.4249C61.2774 48.6956 58.5963 48.6956 58.6231 50.4249C58.7169 56.1624 58.7974 61.8864 58.851 67.6239C58.851 68.9376 58.9851 70.305 58.8644 71.6187C58.7706 72.7045 57.8322 73.482 57.0815 74.2059C55.3388 75.8682 53.3012 77.1551 51.0893 78.0934C50.4191 78.3749 50.2716 79.3535 50.6067 79.93C51.0089 80.627 51.773 80.6941 52.4433 80.4126V80.3857Z" fill="black"/>
<path d="M33.2737 31.054L33.4212 35.5582C33.4614 36.9657 33.4212 38.4403 33.6625 39.8345C33.9038 41.1482 34.6813 42.1134 35.5794 43.0518C36.6116 44.1108 37.6439 45.1832 38.6761 46.2422C39.534 47.127 40.4858 48.5345 41.8531 48.5077C43.2205 48.4809 44.1722 47.0331 44.99 46.0948C46.8131 44.0303 49.0115 42.0464 49.9633 39.4055C50.4861 37.9577 50.7006 36.4027 51.0089 34.8879C51.3307 33.2391 51.6658 31.5902 51.9875 29.9414C52.3093 28.2925 49.7354 27.5284 49.4003 29.2309C49.0652 30.9334 48.73 32.6358 48.3815 34.3383C48.0866 35.8263 47.8855 37.4081 47.3225 38.8291C46.7595 40.25 45.6736 41.2688 44.7084 42.3681C44.132 43.0115 43.5556 43.6684 42.9926 44.3118C42.7513 44.58 41.8799 45.8132 41.6252 45.7998L42.2955 45.9875C41.7191 45.7328 41.2499 45.0357 40.8075 44.58C40.2713 44.0303 39.7351 43.4807 39.1989 42.9311C38.6627 42.3815 38.1264 41.8319 37.5902 41.2823C37.1881 40.8667 36.6787 40.4243 36.4374 39.8881C36.1961 39.3519 36.1961 38.6682 36.1827 38.0784C36.1559 37.3009 36.1291 36.5234 36.1022 35.7459L35.9414 31.0674C35.8878 29.3515 33.2067 29.3381 33.2603 31.0674L33.2737 31.054Z" fill="black"/>
<path d="M50.2181 29.0296C54.548 31.1611 58.9852 33.3596 62.685 36.4964C66.6262 39.8343 69.1464 44.0704 70.0579 49.1778C71.0633 54.808 70.2456 60.5991 69.6826 66.2294C69.3743 69.2724 69.1196 72.3422 69.2268 75.412C69.2804 76.8598 69.4949 78.388 69.1196 79.8089C68.8113 80.9618 68.0874 81.8867 67.216 82.6777C66.2106 83.6026 65.0712 84.3801 63.9317 85.1308C62.6046 86.0022 61.3043 86.5786 59.6957 86.6054C58.087 86.6322 56.3443 86.3641 54.6821 86.1764C53.0198 85.9888 51.2503 85.7609 49.5344 85.533C48.824 85.4392 48.1001 85.7073 47.8856 86.4714C47.7113 87.1014 48.1001 88.0264 48.8239 88.1202C52.0814 88.576 55.3657 89.0586 58.65 89.2597C60.1782 89.3535 61.693 89.2195 63.1274 88.6296C64.5618 88.0398 65.7012 87.2087 66.9077 86.3507C69.1062 84.7689 71.2912 82.8787 71.8274 80.0904C72.1224 78.5488 71.9883 76.9804 71.9347 75.4254C71.8811 73.7363 71.9347 72.0339 72.0419 70.3448C72.4441 64.0443 73.6506 57.7572 73.0607 51.4299C72.5245 45.7327 70.5003 40.4778 66.4653 36.3489C62.4303 32.2201 56.8805 29.338 51.5989 26.7373C50.0572 25.9732 48.7033 28.2924 50.2449 29.0565L50.2181 29.0296Z" fill="black"/>
<path d="M66.9747 84.6358C70.2858 87.156 73.6505 89.7968 76.2244 93.0946C77.4442 94.6496 78.4764 96.4057 79.1333 98.269C79.9376 100.561 80.1253 102.947 80.0181 105.347C79.9108 107.921 79.5355 110.468 79.2137 113.015C78.892 115.562 78.5569 118.283 78.2486 120.924C77.6185 126.192 77.0153 131.474 76.4522 136.756C75.8088 142.694 75.219 148.646 74.6559 154.585L75.6345 153.298C71.1035 154.786 66.2776 155.148 61.5858 154.263C59.8967 153.941 59.1728 156.528 60.8753 156.85C66.0363 157.815 71.3582 157.52 76.3584 155.885C76.9751 155.684 77.2834 155.215 77.337 154.598C78.3692 143.7 79.5221 132.801 80.8224 121.929C81.1441 119.181 81.4792 116.433 81.8278 113.698C82.1763 110.964 82.5651 108.363 82.6991 105.682C82.9404 100.923 81.868 96.4325 79.1065 92.5181C76.345 88.6038 72.2832 85.3195 68.342 82.3301C67.7656 81.8877 66.8406 82.2363 66.5055 82.8127C66.1034 83.4964 66.4117 84.2068 66.9881 84.6492L66.9747 84.6358Z" fill="black"/>
<path d="M61.988 104.113C62.2025 119.677 61.7601 135.24 60.6609 150.75C60.3525 155.188 59.9772 159.611 59.5616 164.035C59.4946 164.746 60.2319 165.389 60.9022 165.376C67.8595 165.255 74.8437 165.268 81.801 165C83.289 164.947 84.7636 164.263 84.7368 162.547C84.71 161.207 83.7046 159.946 82.9271 158.941C81.1576 156.622 78.9055 154.718 76.3048 153.378C74.7766 152.587 73.4093 154.906 74.9509 155.697C77.0824 156.796 78.9591 158.284 80.4873 160.148C80.809 160.536 81.1039 160.952 81.3855 161.381C81.5597 161.636 81.734 161.904 81.8681 162.172C81.9217 162.252 81.9619 162.346 82.0021 162.426C82.0557 162.668 82.163 162.614 82.3238 162.266C82.3238 162.225 78.8251 162.386 78.4765 162.386C72.6184 162.493 66.7603 162.601 60.8887 162.708L62.2293 164.048C63.6905 148.565 64.5216 133.015 64.6825 117.452C64.7227 113.001 64.7227 108.564 64.6556 104.113C64.6288 102.384 61.9478 102.384 61.9746 104.113H61.988Z" fill="black"/>
<path d="M64.6152 103.657C62.4838 101.58 59.4542 101.539 56.6659 101.875C53.1269 102.304 49.6013 102.719 46.0355 102.907C38.7162 103.282 31.4371 102.907 24.158 102.009C22.8845 101.848 21.3965 101.888 20.4179 102.84C19.1444 104.06 19.6002 105.869 19.7879 107.411C20.2303 111.111 20.6727 114.797 21.1284 118.497C22.0132 125.803 22.9381 133.109 23.9838 140.388C25.1098 148.27 27.0536 156.515 25.4449 164.464C25.0964 166.153 27.6836 166.863 28.0322 165.174C29.4129 158.378 28.3539 151.514 27.3217 144.758C26.2895 138.002 25.3511 130.884 24.4798 123.926C24.0374 120.414 23.6218 116.902 23.1928 113.39C22.9784 111.66 22.7773 109.931 22.5628 108.215C22.469 107.411 22.3617 106.607 22.2679 105.802C22.2143 105.266 22.0132 104.77 22.6298 104.636C23.1258 104.529 23.662 104.623 24.158 104.676C25.0294 104.783 25.8873 104.904 26.7587 104.998C28.4879 105.199 30.2306 105.347 31.9733 105.467C35.4587 105.695 38.9441 105.775 42.4429 105.708C46.3706 105.628 50.285 105.347 54.1859 104.864C56.7731 104.542 60.5936 103.483 62.7251 105.534C63.9584 106.741 65.8619 104.837 64.6152 103.644V103.657Z" fill="black"/>
<path d="M9.98873 84.328C5.14942 85.749 1.90534 90.2263 0.765885 94.9852C-0.695294 101.152 1.03399 107.559 2.34771 113.578C5.14942 126.488 7.95113 139.397 10.7394 152.306C11.0478 153.741 11.3561 155.282 12.4285 156.368C13.6216 157.561 15.3509 157.628 16.9327 157.668C20.5521 157.749 24.1715 157.347 27.6837 156.542C29.3594 156.154 28.6489 153.58 26.9733 153.955C24.0911 154.612 21.1688 154.961 18.2196 154.987C17.5225 154.987 16.8254 154.987 16.1284 154.961C15.5653 154.934 14.8817 154.934 14.4125 154.572C13.6618 153.982 13.5411 152.615 13.3535 151.77C12.0666 145.832 10.7796 139.893 9.49274 133.954C8.20583 128.016 6.89211 121.97 5.59179 115.978C4.29148 109.986 2.5622 104.369 2.93754 98.484C3.24587 93.6849 5.73925 88.3496 10.6858 86.9018C12.3347 86.4192 11.6376 83.832 9.97533 84.3146L9.98873 84.328Z" fill="black"/>
<path d="M12.7502 155.523C9.21121 157.265 6.22183 159.906 3.99655 163.15C3.52736 163.834 3.99655 164.96 4.80087 165.121C8.4203 165.831 12.1738 165.55 15.8334 165.523C19.4931 165.496 23.3404 165.456 27.0939 165.416C27.8178 165.416 28.4344 164.812 28.4344 164.075C28.4344 163.552 28.3138 163.043 27.992 162.614C27.5631 162.038 26.8392 161.743 26.1555 162.131C25.5791 162.467 25.244 163.378 25.6729 163.968C25.8204 164.156 25.8472 164.196 25.7534 164.075L27.0939 162.735C23.4476 162.775 19.8014 162.802 16.1552 162.842C12.5089 162.882 8.96991 163.217 5.49794 162.547L6.30226 164.518C8.27284 161.649 10.9807 159.383 14.1041 157.855C15.6592 157.091 14.2918 154.785 12.7502 155.536V155.523Z" fill="black"/>
<mask id="mask0_136_1393" style="mask-type:alpha" maskUnits="userSpaceOnUse" x="0" y="17" width="84" height="148">
<path d="M29.5 165H5.5L11 154L4 124.5L0.5 98.5L2.5 88.5L7.5 82.5L2.5 53.5L11.5 17L42.5 21L74.5 32.5L71.5 82.5L77 88.5L83.5 107L77 154L83.5 162L74.5 165H29.5Z" fill="#D9D9D9"/>
</mask>
<g mask="url(#mask0_136_1393)">
<rect x="-522" y="55" width="815.042" height="130.031" fill="url(#paint0_linear_136_1393)"/>
</g>
</g>
<defs>
<linearGradient id="paint0_linear_136_1393" x1="-114.479" y1="185.031" x2="-114.479" y2="55" gradientUnits="userSpaceOnUse">
<stop stop-color="#191817"/>
<stop offset="1" stop-color="#191817" stop-opacity="0"/>
</linearGradient>
<clipPath id="clip0_136_1393">
<rect width="84.528" height="166.141" fill="white" transform="translate(0.209106)"/>
</clipPath>
</defs>
</svg>
