<svg width="63" height="141" viewBox="0 0 63 141" fill="none" xmlns="http://www.w3.org/2000/svg">
<g id="woman-2">
<g id="fill">
<path id="Vector" d="M58.707 56.8964C57.437 51.0564 55.887 45.3664 53.327 39.8864C52.687 38.5064 51.457 38.0264 50.237 38.1564C49.677 37.6464 49.017 37.2264 48.177 36.9164C46.407 36.2664 40.847 37.6364 39.867 36.1964C39.487 35.6364 39.037 35.2464 38.567 34.9764C38.497 34.1764 38.427 33.3764 38.357 32.5864C38.637 32.6564 38.927 32.7064 39.247 32.7264C42.137 32.8464 44.047 29.9764 44.897 27.5664C44.947 27.4364 44.977 27.2964 45.017 27.1664C45.247 26.5464 45.407 25.8864 45.507 25.2164C45.587 24.6364 45.657 24.0564 45.737 23.4864C46.017 23.3964 46.317 23.2664 46.557 23.1364C47.097 22.8464 47.327 22.5564 47.667 22.1164C47.987 21.6964 47.997 21.6864 48.207 21.1964C48.227 21.1564 48.237 21.1264 48.257 21.0864C48.397 21.0464 48.527 20.9864 48.647 20.9364C50.457 20.5964 51.947 19.0564 51.217 16.7564C51.047 16.2264 50.877 15.6964 50.707 15.1664C50.707 15.1264 50.707 15.0964 50.707 15.0664C50.727 13.2864 50.357 12.2364 48.997 11.0964C48.687 10.8364 48.337 10.6364 47.977 10.4964C48.147 9.40637 47.927 8.23637 47.227 7.39637C46.217 6.17637 45.137 5.31637 43.787 4.50637C42.867 3.95637 41.897 3.89637 41.037 4.18637C40.787 3.88637 40.497 3.60637 40.117 3.35637C39.227 2.78637 38.287 2.37637 37.337 2.11637C37.017 1.98637 36.677 1.86637 36.337 1.73637C35.517 1.43637 34.727 1.51637 34.047 1.84637C33.957 1.84637 33.867 1.85637 33.787 1.87637C33.107 1.53637 32.297 1.44637 31.397 1.73637C29.447 2.38637 28.377 3.55637 27.967 4.81637C27.927 4.86637 27.897 4.91637 27.857 4.95637C27.687 5.14637 27.527 5.33637 27.367 5.53637C27.317 5.50637 27.277 5.47637 27.217 5.44637C24.697 4.17637 22.427 5.82637 22.097 7.97637C20.007 7.87637 18.817 9.76637 18.957 11.6564C17.987 11.7364 17.027 12.1064 16.287 12.6564C16.227 12.7064 16.167 12.7564 16.107 12.7964C15.717 12.7964 15.317 12.8764 14.937 13.0464C13.497 13.6564 12.687 15.1264 13.077 16.6864C13.187 17.1164 13.397 17.4964 13.657 17.8464C13.717 18.9564 14.147 20.0164 14.997 20.6964C14.297 21.0864 13.737 21.7164 13.367 22.4464C13.167 22.6964 12.967 22.9464 12.767 23.2164C12.087 24.1464 12.487 25.4664 13.157 26.2464C13.267 26.3764 13.407 26.4764 13.527 26.5864C13.687 26.8564 13.867 27.1064 14.067 27.3464C13.977 27.7864 13.977 28.2464 14.087 28.6464C14.357 29.5964 15.157 30.2964 16.087 30.5564C16.247 30.5964 16.417 30.6164 16.587 30.6364C16.227 34.1864 18.277 37.5464 23.087 36.4864C23.167 36.4664 23.227 36.4464 23.307 36.4264C24.247 36.8864 25.407 36.9364 26.547 36.3564C26.847 36.2064 27.127 36.0464 27.397 35.8864C28.357 36.1064 29.267 35.9664 30.107 35.6064C29.887 35.9664 29.687 36.3264 29.487 36.6964C28.697 37.1864 27.917 37.6664 27.127 38.1564C25.117 37.8664 23.107 38.9464 21.557 40.8164C21.277 41.1564 21.037 41.4964 20.817 41.8564C20.737 41.9564 20.667 42.0664 20.587 42.1764C20.587 42.1764 20.577 42.1664 20.567 42.1564C20.547 42.1964 20.537 42.2264 20.527 42.2664C17.017 47.3864 18.497 55.7664 20.077 62.4664C18.707 65.5764 17.977 68.9464 17.057 72.2164C15.957 76.1364 14.347 80.3364 10.787 82.6564C10.397 82.9464 10.207 83.3364 10.157 83.7264C9.54701 84.1964 8.90701 84.6364 8.22701 85.0264C8.18701 85.0464 8.15701 85.0764 8.12701 85.0964C7.39701 85.1764 6.65701 85.2364 5.91701 85.2764C3.99701 85.3564 3.97701 88.3064 5.91701 88.2764C6.57701 88.2764 7.23701 88.2264 7.88701 88.1664C8.16701 88.3064 8.50701 88.3664 8.88701 88.2964C9.35701 88.2064 9.81701 88.1264 10.287 88.0364C10.347 88.0864 10.407 88.1264 10.477 88.1664C12.597 89.1964 14.797 88.3864 16.277 86.6664C17.887 84.7964 19.177 82.5564 20.517 80.4864C21.187 79.4464 21.847 78.3964 22.497 77.3364C23.057 76.6064 23.607 75.8664 24.147 75.1264C25.697 73.3464 27.197 71.5164 28.647 69.6464C28.817 70.0264 28.987 70.4164 29.157 70.7964C23.697 82.1764 19.237 94.0164 15.837 106.176C15.327 106.266 14.867 106.556 14.587 107.126C13.877 108.586 13.167 110.036 12.457 111.496C10.637 114.266 8.04701 116.566 5.06701 118.026C4.06701 118.366 3.08701 118.766 2.12701 119.226C1.57701 119.496 1.28701 119.936 1.18701 120.416C0.887006 120.776 0.837006 121.326 1.22701 121.746C1.31701 121.846 1.42701 121.926 1.51701 122.026C1.71701 122.336 1.97701 122.586 2.29701 122.756C3.82701 124.026 5.64701 124.856 7.53701 125.496C8.85701 126.256 10.247 126.896 11.717 127.376C12.207 127.536 12.647 127.256 12.857 126.856C13.027 126.856 13.207 126.826 13.367 126.706C13.527 126.596 13.687 126.466 13.847 126.346C13.647 126.796 13.737 127.406 14.227 127.656C14.607 127.846 14.987 128.036 15.367 128.236C15.817 128.466 16.487 128.386 16.737 127.876C17.347 126.626 17.827 125.346 18.247 124.036C18.507 123.996 18.747 123.856 18.887 123.576C20.557 120.456 21.417 116.976 21.417 113.456C21.557 112.586 21.637 111.696 21.667 110.806C22.207 109.616 22.757 108.426 23.297 107.236C23.657 107.036 23.977 106.736 24.237 106.296C24.987 104.956 25.707 103.606 26.407 102.256C26.557 101.966 26.707 101.686 26.847 101.396C28.467 98.2464 29.997 95.0464 31.417 91.7964C32.737 102.526 34.047 113.266 35.367 123.996C34.597 127.116 34.337 130.396 34.727 133.586C34.747 133.736 34.777 133.876 34.807 134.016C34.307 134.946 34.457 136.076 35.097 137.086C35.767 138.136 36.777 138.856 37.917 139.306C39.167 139.806 40.437 139.846 41.697 139.636C42.417 140.306 43.417 140.636 44.437 140.396C45.837 140.056 46.847 138.666 46.807 137.246C46.807 137.196 46.797 137.146 46.787 137.096C46.977 136.606 46.977 136.056 46.597 135.546C46.367 135.236 46.147 134.906 45.927 134.586C45.777 134.196 45.617 133.816 45.477 133.426C45.407 133.226 45.347 133.026 45.277 132.836C45.287 132.646 45.277 132.446 45.247 132.226C44.787 129.756 44.037 127.376 43.067 125.076C42.817 124.096 42.587 123.106 42.387 122.116C42.317 121.776 42.137 121.496 41.897 121.256C42.987 111.156 43.977 101.016 43.827 90.8664C46.217 91.2264 48.617 91.2864 50.987 91.0164C52.407 91.3064 53.887 91.1864 55.237 90.6564C56.237 90.9464 57.417 90.6464 58.127 89.5864C60.057 86.6764 60.627 83.2764 60.137 79.8564C60.047 79.2564 59.727 78.8164 59.277 78.5164C59.277 78.2064 59.247 77.8864 59.157 77.5464C58.377 74.7364 57.637 71.9164 56.907 69.0964C56.987 69.1264 57.067 69.1464 57.157 69.1764C59.577 69.9264 62.367 67.3864 61.467 64.8664C60.517 62.2264 59.607 59.5764 58.717 56.9164L58.707 56.8964ZM11.567 124.296C11.567 124.296 11.567 124.326 11.567 124.346C11.517 124.436 11.477 124.526 11.437 124.626C11.377 124.576 11.297 124.546 11.217 124.516C11.337 124.446 11.457 124.386 11.567 124.306V124.296ZM49.117 50.5164C49.217 50.8164 49.307 51.0964 49.397 51.3564C49.147 51.4164 48.897 51.4964 48.667 51.6164C48.537 51.2664 48.417 50.9164 48.287 50.5764C48.447 50.5764 48.597 50.5764 48.757 50.5764C48.887 50.5764 49.007 50.5464 49.127 50.5264L49.117 50.5164ZM37.477 15.4564C37.567 15.4064 37.647 15.3664 37.667 15.3064C37.617 15.4364 37.547 15.4764 37.477 15.4564ZM39.997 132.816C39.997 132.726 39.997 132.636 39.987 132.536C40.137 132.816 40.287 133.106 40.447 133.386C40.377 133.366 40.297 133.336 40.227 133.316C40.147 133.286 40.057 133.266 39.977 133.236C40.007 133.096 40.017 132.966 40.007 132.816H39.997Z" fill="#FFB102"/>
</g>
<g id="outline">
<path id="Vector_2" d="M44.797 20.9755C44.677 23.1155 44.387 25.2455 43.897 27.3355C43.547 28.8355 43.047 30.5655 41.697 31.4755C38.897 33.3655 35.487 31.2955 34.367 28.4955C34.167 27.9955 33.697 27.6455 33.137 27.7955C32.657 27.9255 32.237 28.5255 32.437 29.0255C33.187 30.8955 34.477 32.5755 36.317 33.4755C38.157 34.3755 40.377 34.4255 42.237 33.4755C44.097 32.5255 45.147 30.4455 45.677 28.4355C46.317 26.0055 46.647 23.4755 46.787 20.9755C46.857 19.6855 44.857 19.6955 44.787 20.9755H44.797Z" fill="black"/>
<path id="Vector_3" d="M35.037 23.266C35.577 22.406 35.187 21.3661 34.437 20.7861C33.687 20.2061 32.637 20.196 31.857 20.766C31.077 21.336 30.667 22.156 30.487 23.046C30.287 24.046 30.327 25.1161 30.837 26.0261C31.347 26.936 32.407 27.646 33.507 27.596C34.027 27.576 34.527 27.156 34.507 26.596C34.487 26.076 34.067 25.566 33.507 25.596C33.457 25.596 33.407 25.596 33.357 25.596C33.247 25.596 33.257 25.596 33.397 25.6061C33.327 25.6161 33.237 25.566 33.177 25.556C32.967 25.516 33.297 25.6361 33.127 25.5361C33.037 25.4861 32.947 25.436 32.857 25.376C32.997 25.466 32.887 25.396 32.817 25.336C32.757 25.286 32.707 25.226 32.657 25.166C32.817 25.336 32.637 25.136 32.607 25.086C32.557 25.006 32.507 24.926 32.477 24.836C32.557 25.036 32.457 24.756 32.457 24.736C32.427 24.636 32.407 24.536 32.387 24.436C32.377 24.366 32.377 24.376 32.387 24.476C32.387 24.416 32.377 24.356 32.377 24.296C32.377 24.206 32.377 24.116 32.377 24.026C32.377 23.916 32.387 23.816 32.397 23.706C32.397 23.636 32.397 23.646 32.397 23.746C32.397 23.686 32.417 23.626 32.427 23.566C32.457 23.396 32.507 23.236 32.557 23.066C32.567 23.026 32.577 22.996 32.597 22.956C32.637 22.856 32.637 22.866 32.587 22.986C32.587 22.926 32.657 22.8361 32.687 22.7861C32.727 22.7161 32.767 22.656 32.807 22.596C32.867 22.506 32.857 22.5161 32.777 22.6161C32.807 22.5761 32.837 22.546 32.867 22.506C32.897 22.466 32.977 22.366 33.017 22.356C32.907 22.436 32.897 22.446 32.987 22.386L33.047 22.346C33.047 22.346 33.127 22.296 33.177 22.276C33.047 22.326 33.037 22.336 33.137 22.306C32.927 22.286 33.337 22.256 33.137 22.306C33.347 22.326 32.937 22.236 33.117 22.306C33.157 22.306 33.197 22.326 33.237 22.346C33.097 22.286 33.077 22.276 33.177 22.326L33.237 22.356C33.327 22.416 33.307 22.396 33.187 22.306C33.187 22.306 33.317 22.426 33.327 22.436C33.457 22.556 33.227 22.246 33.327 22.456C33.367 22.526 33.347 22.486 33.287 22.356C33.297 22.396 33.307 22.426 33.317 22.466C33.297 22.306 33.297 22.266 33.297 22.336C33.297 22.366 33.297 22.396 33.297 22.416C33.327 22.246 33.327 22.216 33.297 22.316C33.367 22.166 33.367 22.146 33.317 22.236C33.037 22.676 33.207 23.356 33.677 23.606C34.167 23.866 34.747 23.726 35.047 23.246L35.037 23.266Z" fill="black"/>
<path id="Vector_4" d="M35.0571 22.5958C37.3971 21.2558 39.3471 19.3058 40.6871 16.9658L39.1171 17.1658C40.7571 19.2658 42.9671 21.1958 45.7771 21.2358C47.0671 21.2558 47.0671 19.2558 45.7771 19.2358C43.5371 19.2058 41.8271 17.3958 40.5371 15.7558C40.1371 15.2458 39.2571 15.4558 38.9671 15.9558C37.7871 18.0158 36.1071 19.6958 34.0571 20.8758C32.9371 21.5158 33.9471 23.2458 35.0671 22.6058L35.0571 22.5958Z" fill="black"/>
<path id="Vector_5" d="M42.297 3.10561C39.047 1.19561 35.357 -0.784389 31.477 0.315611C29.817 0.785611 28.417 1.78561 27.517 3.25561C27.307 3.59561 27.207 3.81561 26.797 3.85561C26.297 3.90561 25.767 3.83561 25.267 3.85561C24.327 3.87561 23.357 4.01561 22.527 4.47561C20.947 5.35561 20.157 7.80561 21.647 9.13561L22.617 7.46561C21.117 7.21561 19.277 7.07561 18.307 8.49561C17.587 9.54561 17.717 11.1856 18.917 11.8156L19.417 9.95561C16.507 10.3156 13.097 11.6756 12.217 14.7856C11.457 17.4556 12.987 20.5656 15.857 20.9356L15.357 19.0756C13.267 20.1856 11.117 21.9756 10.967 24.5156C10.837 26.6756 12.457 28.9656 14.737 28.9356C16.027 28.9156 16.017 26.9956 14.737 26.9356C13.007 26.8556 12.157 28.8456 12.667 30.2956C13.367 32.3056 15.827 32.3456 17.567 32.0756L16.437 30.6056C15.707 32.1256 15.867 33.9656 17.047 35.2256C18.127 36.3756 19.917 36.7756 21.377 36.2056L20.407 34.5356C19.367 35.8056 20.437 37.0756 21.797 37.3956C22.557 37.5756 23.317 37.4056 24.087 37.3156C25.017 37.2056 25.957 37.0856 26.887 36.9756C27.427 36.9056 27.887 36.5656 27.887 35.9756C27.887 35.4856 27.427 34.9056 26.887 34.9756C25.787 35.1056 24.697 35.2456 23.597 35.3756C23.217 35.4256 22.797 35.5356 22.407 35.4856C22.287 35.4756 22.167 35.3956 22.057 35.3856C22.017 35.3456 21.967 35.3156 21.907 35.3156C21.887 35.5256 21.867 35.7356 21.827 35.9456C22.117 35.5956 22.227 35.1456 21.987 34.7356C21.777 34.3856 21.267 34.1156 20.857 34.2756C19.187 34.9256 17.317 33.3956 18.177 31.6156C18.577 30.7856 17.927 30.0056 17.047 30.1456C16.387 30.2556 15.067 30.4256 14.617 29.7556C14.487 29.5656 14.497 29.3356 14.557 29.1356C14.577 29.0556 14.607 28.9856 14.657 28.9356C14.707 28.8756 14.547 28.9256 14.747 28.9356V26.9356C13.477 26.9556 12.797 25.4156 12.997 24.3156C13.297 22.6356 14.987 21.5456 16.377 20.8056C16.767 20.5956 16.947 20.0856 16.837 19.6756C16.707 19.2156 16.317 18.9956 15.877 18.9456C14.217 18.7356 13.737 16.3356 14.257 15.0456C15.057 13.0756 17.497 12.2056 19.437 11.9656C19.877 11.9156 20.277 11.6956 20.397 11.2356C20.507 10.8256 20.327 10.3056 19.937 10.1056C19.777 10.0256 19.867 9.69561 20.067 9.51561C20.547 9.08561 21.547 9.31561 22.097 9.40561C22.987 9.55561 23.887 8.46561 23.067 7.73561C22.647 7.36561 22.927 6.72561 23.297 6.38561C23.947 5.78561 25.067 5.85561 25.897 5.86561C26.987 5.87561 28.047 5.89561 28.797 4.97561C29.367 4.27561 29.677 3.52561 30.447 2.99561C33.937 0.585611 38.187 3.01561 41.307 4.84561C42.417 5.49561 43.427 3.77561 42.317 3.11561L42.297 3.10561Z" fill="black"/>
<path id="Vector_6" d="M41.777 5.25523C43.307 5.33523 44.787 5.97523 45.887 7.04523C46.537 7.67523 48.037 9.46523 47.037 10.3652C46.397 10.9352 46.897 12.1152 47.747 12.0752C49.447 11.9952 50.467 13.7152 49.557 15.1652C49.127 15.8552 49.697 16.6152 50.417 16.6652C50.297 16.6652 50.417 16.5352 50.347 16.6252C50.177 16.8752 50.077 17.1752 50.027 17.4752C49.927 18.0352 50.177 18.5952 49.967 19.1352C49.657 19.9052 48.777 20.4852 47.947 20.2852C47.117 20.0852 46.397 20.9752 46.817 21.7552C47.097 22.2852 46.547 22.6552 46.087 22.3752C44.987 21.7052 43.977 23.4352 45.077 24.1052C46.037 24.6852 47.327 24.6052 48.147 23.8052C48.967 23.0052 49.067 21.7352 48.547 20.7452L47.417 22.2152C49.337 22.6652 51.387 21.4652 51.937 19.5552C52.067 19.0952 52.077 18.6452 52.037 18.1752C52.007 17.8852 51.997 17.8052 52.127 17.5552C52.257 17.3052 52.347 17.0252 52.367 16.7352C52.427 15.5952 51.507 14.7452 50.427 14.6652L51.287 16.1652C52.977 13.4652 50.937 9.92523 47.747 10.0652L48.457 11.7752C50.257 10.1652 48.987 7.49523 47.687 6.03523C46.187 4.34523 44.017 3.36523 41.777 3.25523C40.487 3.19523 40.497 5.19523 41.777 5.25523Z" fill="black"/>
<path id="Vector_7" d="M37.8271 33.2357C37.8571 34.6657 38.6871 35.9157 39.8671 36.6857C40.4571 37.0657 41.1271 37.2857 41.8171 37.3757C42.5071 37.4657 43.2071 37.3157 43.8671 37.0457C44.0771 36.9557 44.2671 36.6557 44.3271 36.4457C44.3971 36.2057 44.3671 35.8857 44.2271 35.6757C44.0871 35.4657 43.8871 35.2757 43.6271 35.2157C43.3471 35.1557 43.1171 35.2157 42.8571 35.3157C42.9271 35.2857 43.1471 35.1957 42.8571 35.3157C42.7971 35.3357 42.7271 35.3557 42.6671 35.3657C42.6171 35.3757 42.5571 35.3857 42.4971 35.4057C42.2971 35.4557 42.7471 35.3857 42.5371 35.4057C42.4171 35.4057 42.2971 35.4257 42.1771 35.4157C42.1071 35.4157 42.0471 35.4157 41.9771 35.4057C41.8771 35.4057 41.7571 35.3257 42.0171 35.4057C41.7871 35.3257 41.5371 35.2957 41.3071 35.2157C41.1371 35.1557 41.5171 35.3157 41.3371 35.2257C41.2871 35.1957 41.2371 35.1757 41.1871 35.1557C41.0771 35.0957 40.9671 35.0357 40.8671 34.9657C40.8171 34.9357 40.7771 34.9057 40.7271 34.8657C40.5271 34.7357 40.8671 34.9957 40.7271 34.8657C40.6371 34.7857 40.5571 34.7157 40.4771 34.6357C40.3871 34.5457 40.3171 34.4457 40.2271 34.3657C40.1771 34.3057 40.2071 34.3357 40.2971 34.4557C40.2771 34.4257 40.2571 34.3957 40.2271 34.3657C40.1971 34.3157 40.1671 34.2757 40.1371 34.2257C40.0771 34.1257 40.0271 34.0357 39.9771 33.9357C39.9571 33.9057 39.9471 33.8657 39.9271 33.8357C39.9871 33.9757 40.0071 34.0157 39.9771 33.9457C39.9571 33.8857 39.9271 33.8257 39.9171 33.7657C39.8871 33.6557 39.8571 33.5457 39.8371 33.4357C39.7971 33.2357 39.8571 33.6657 39.8371 33.4757C39.8371 33.3957 39.8271 33.3257 39.8271 33.2457C39.8171 32.7257 39.3771 32.2257 38.8271 32.2457C38.2771 32.2657 37.8171 32.6857 37.8271 33.2457V33.2357Z" fill="black"/>
<path id="Vector_8" d="M26.5369 36.7254C28.6869 37.4054 31.2469 35.4254 30.9669 33.1254L29.1069 33.6254C29.7969 34.7754 31.3369 35.2554 32.5469 34.6154C33.7569 33.9754 34.1269 32.4354 33.6069 31.2054L32.0369 32.4154C32.5269 32.8354 33.1469 33.0254 33.7769 32.8554C34.4069 32.6854 34.8269 32.2454 35.0769 31.6454C35.2869 31.1454 34.8569 30.5454 34.3769 30.4154C33.7969 30.2554 33.3569 30.6154 33.1469 31.1154C33.1969 30.9954 33.2069 30.9754 33.3069 30.8954C33.0969 31.0654 33.4569 30.7654 33.2469 30.9254H33.3469C33.2269 30.9154 33.2369 30.9254 33.3669 30.9254L33.2869 30.9054C33.3469 30.9154 33.4069 30.9454 33.4469 30.9954C33.0669 30.6754 32.5469 30.5954 32.1369 30.9154C31.7269 31.2354 31.6769 31.7354 31.8769 32.2054C31.8169 32.0754 31.8769 32.2154 31.8769 32.2854C31.8869 32.4054 31.9169 32.1154 31.8769 32.3454C31.8569 32.4254 31.8669 32.4654 31.8769 32.3654C31.8669 32.4454 31.8369 32.5154 31.8169 32.5954C31.7669 32.7454 31.9169 32.4154 31.7769 32.6554C31.7469 32.7154 31.7069 32.7654 31.7769 32.6854C31.7669 32.7054 31.5869 32.8754 31.6769 32.8054C31.7469 32.7454 31.5469 32.8854 31.5469 32.8854C31.6369 32.8354 31.5869 32.8654 31.5169 32.8854C31.2769 32.9654 31.5969 32.8854 31.4569 32.9054C31.3769 32.9054 31.2969 32.9054 31.2169 32.9054C31.3269 32.9154 31.2769 32.9054 31.2069 32.8854C30.9369 32.8154 31.2769 32.9354 31.1369 32.8654C31.0669 32.8354 30.9969 32.7954 30.9369 32.7454C31.0269 32.8054 30.9569 32.7654 30.9269 32.7154C30.7369 32.4854 31.0069 32.8754 30.8569 32.6154C30.6269 32.2354 30.1569 32.0354 29.7269 32.1554C29.3369 32.2654 28.9369 32.6954 28.9969 33.1154C29.0069 33.2154 29.0169 33.3054 29.0169 33.4054C29.0169 33.4354 28.9969 33.6754 29.0169 33.5554C29.0369 33.4354 28.9869 33.6754 28.9769 33.6954C28.9769 33.7154 28.8669 33.9854 28.9469 33.8054C28.7869 34.1854 28.7169 34.2254 28.4169 34.5054C28.2869 34.6154 28.4369 34.5054 28.3569 34.5554C28.2869 34.5954 28.2269 34.6454 28.1569 34.6854C28.1469 34.6854 27.8769 34.8154 28.0469 34.7454C27.9569 34.7754 27.8669 34.8054 27.7769 34.8354C27.7569 34.8354 27.5069 34.8854 27.6369 34.8654C27.7669 34.8454 27.5169 34.8654 27.4869 34.8654C27.4569 34.8654 27.1769 34.8254 27.3769 34.8654C27.2869 34.8454 27.1869 34.8254 27.0969 34.7954C26.5869 34.6354 26.0069 34.9854 25.8669 35.4954C25.7169 36.0354 26.0469 36.5654 26.5669 36.7254H26.5369Z" fill="black"/>
<path id="Vector_9" d="M28.8169 35.116C28.0069 36.656 25.9869 36.916 24.4669 37.346C22.5069 37.906 20.8569 38.836 19.6069 40.476C16.8869 44.046 17.0969 48.736 17.8069 52.926C18.2369 55.486 18.8369 58.026 18.8269 60.636C18.8169 63.246 18.2269 65.866 17.4369 68.366C16.7069 70.696 15.8469 73.006 14.9169 75.256C14.1669 77.076 13.2669 78.936 12.0069 80.466C11.3269 81.286 10.5569 82.036 9.63692 82.586C8.78692 83.106 7.84692 83.386 6.91692 83.726C5.03692 84.396 2.85692 85.396 2.84692 87.706C2.84692 88.136 3.15692 88.566 3.57692 88.666C6.20692 89.316 8.95692 89.726 11.6769 89.706C12.8969 89.706 14.1169 89.536 15.2269 88.996C16.3369 88.456 17.1269 87.536 17.8469 86.596C19.5069 84.406 21.0869 82.136 22.7069 79.916C24.3269 77.696 26.0069 75.646 27.3769 73.356C28.7469 71.066 29.6769 68.316 28.1369 65.976C27.4269 64.906 25.6969 65.906 26.4069 66.986C27.5369 68.706 26.5969 70.766 25.6469 72.346C24.4269 74.396 22.8869 76.276 21.4869 78.206C19.9769 80.286 18.4669 82.366 16.9569 84.456C16.3469 85.296 15.7569 86.206 14.9369 86.846C14.1169 87.486 13.1669 87.666 12.2069 87.706C9.50692 87.836 6.72692 87.396 4.10692 86.746L4.83692 87.706C4.83692 86.266 7.11692 85.766 8.18692 85.396C10.0769 84.736 11.7169 83.786 13.0669 82.276C15.9469 79.066 17.3569 74.676 18.7569 70.676C19.6069 68.236 20.3269 65.746 20.6469 63.176C20.9669 60.606 20.6969 57.896 20.2369 55.266C19.5069 51.086 18.4069 46.476 20.6269 42.526C21.1169 41.666 21.7569 40.866 22.5769 40.306C23.3969 39.746 24.3469 39.446 25.3069 39.176C27.2869 38.626 29.4969 38.086 30.5369 36.116C31.1369 34.976 29.4169 33.966 28.8069 35.106L28.8169 35.116Z" fill="black"/>
<path id="Vector_10" d="M22.0369 40.0456C22.1269 44.2956 22.2069 48.5456 22.2969 52.7856C22.3369 54.6956 22.3169 56.6356 22.7169 58.5156C23.1169 60.3956 24.1169 61.9156 25.1869 63.4856C26.4169 65.2856 27.3269 67.2156 27.8869 69.3256C28.2169 70.5656 30.1469 70.0456 29.8169 68.7956C29.3369 66.9756 28.6069 65.2056 27.6369 63.5856C26.6669 61.9656 25.4569 60.6656 24.9069 58.9356C24.3569 57.2056 24.3569 55.2656 24.3169 53.4156L24.1969 47.2256L24.0569 40.0456C24.0269 38.7556 22.0269 38.7556 22.0569 40.0456H22.0369Z" fill="black"/>
<path id="Vector_11" d="M26.1969 37.8751C25.7869 40.2351 25.5669 42.6251 25.5869 45.0151C25.5869 45.9451 25.5869 47.0051 26.3369 47.6951C27.2269 48.5151 28.5769 48.1051 29.6369 47.9651C31.9969 47.6551 34.3469 47.3551 36.7069 47.0451C37.9269 46.8851 39.1469 46.7251 40.3669 46.5751C41.4869 46.4251 42.4269 46.2551 42.8669 45.0951C43.3069 43.9351 43.5469 42.6151 43.8769 41.3951C44.2369 40.0551 44.5869 38.7251 44.9469 37.3851C45.2769 36.1451 43.3469 35.6051 43.0169 36.8551C42.3569 39.3451 41.7269 41.8551 41.0169 44.3351C40.9469 44.5851 41.0069 44.5351 40.7769 44.5351C40.4869 44.5351 40.1669 44.6151 39.8769 44.6551C39.2269 44.7351 38.5769 44.8251 37.9269 44.9051C36.6669 45.0651 35.4069 45.2351 34.1469 45.3951C32.8869 45.5551 31.6269 45.7251 30.3669 45.8851C29.7169 45.9651 29.0669 46.0551 28.4169 46.1351C28.2369 46.1551 27.8069 46.2851 27.6269 46.1951C27.7869 46.2751 27.6469 46.1151 27.6269 45.9651C27.5269 45.3951 27.5869 44.7451 27.5969 44.1751C27.5969 43.5251 27.6269 42.8851 27.6769 42.2351C27.7569 40.9551 27.9169 39.6751 28.1369 38.4151C28.2269 37.8851 27.9969 37.3351 27.4369 37.1851C26.9569 37.0551 26.2969 37.3451 26.2069 37.8851L26.1969 37.8751Z" fill="black"/>
<path id="Vector_12" d="M45.0669 37.8753C48.5069 36.1753 52.2269 38.9953 53.8569 41.8953C54.8769 43.7153 55.4469 45.7353 55.9469 47.7453C56.5169 50.0553 57.0469 52.3653 57.5869 54.6753C58.1269 56.9853 58.7169 59.4753 59.2869 61.8853C59.5669 63.0853 59.8569 64.2853 60.1369 65.4853C60.2769 66.0753 60.7769 67.3653 60.0169 67.7153C59.6669 67.8753 59.2269 67.8553 58.8569 67.8753C58.2069 67.9053 57.5669 67.9253 56.9169 67.9453C55.7069 67.9853 54.4869 68.0253 53.2769 68.0453C50.8069 68.0953 48.3469 68.0753 45.8769 67.9253C43.1869 67.7553 40.5569 67.3453 37.9069 66.8353C35.2569 66.3253 32.4769 65.9053 29.7869 66.5853L30.9169 68.0553C32.5969 65.2653 36.0469 63.6153 39.2769 64.1353C40.2969 64.2953 41.2569 64.7253 42.2769 64.9353C43.3769 65.1653 44.4669 65.1153 45.5769 64.9353C47.8869 64.5753 50.1869 64.0153 52.4769 63.5453C52.9569 63.4453 53.3669 62.7953 53.1769 62.3153C51.2969 57.7353 49.9369 52.9453 49.1569 48.0553C48.8169 45.8953 48.4669 43.6553 48.5669 41.4553C48.6369 39.8953 49.0169 38.1453 50.4969 37.3553C51.6269 36.7453 50.6169 35.0153 49.4869 35.6253C46.5369 37.2153 46.3869 41.0053 46.6469 43.9453C47.0169 48.0753 47.7669 52.1753 48.9169 56.1653C49.5669 58.4353 50.3469 60.6553 51.2469 62.8453L51.9469 61.6153C49.5969 62.0953 47.2269 62.7353 44.8469 63.0353C43.6669 63.1853 42.6369 62.9853 41.5069 62.6453C40.5169 62.3453 39.5269 62.1053 38.4969 62.0553C34.7869 61.8953 31.1169 63.8653 29.1969 67.0353C28.7369 67.7953 29.4969 68.7153 30.3269 68.5053C32.8569 67.8653 35.4569 68.3753 37.9769 68.8653C40.4969 69.3553 43.1469 69.7353 45.7669 69.9053C48.3869 70.0753 51.1069 70.0853 53.7669 70.0253C55.1069 69.9953 56.4369 69.9453 57.7769 69.8953C58.8469 69.8553 60.1069 69.9453 61.0869 69.4053C63.3869 68.1253 62.0869 64.9453 61.6269 63.0053C61.0169 60.4053 60.3969 57.8053 59.7869 55.1953C59.1769 52.5853 58.5869 50.0453 57.9669 47.4853C57.4369 45.3053 56.8169 43.1153 55.7469 41.1153C54.6169 39.0053 52.9369 37.1853 50.7269 36.1853C48.5169 35.1853 46.2069 35.0553 44.0769 36.1153C42.9269 36.6853 43.9369 38.4153 45.0869 37.8453L45.0669 37.8753Z" fill="black"/>
<path id="Vector_13" d="M43.8569 37.3259C44.0469 37.2659 44.2469 37.2259 44.4369 37.1959L44.1669 37.2359C44.5069 37.1859 44.8569 37.1859 45.1969 37.2359L44.9269 37.1959C45.1269 37.2259 45.3169 37.2659 45.5069 37.3259C45.7469 37.3959 46.0569 37.3559 46.2769 37.2259C46.4969 37.0959 46.6869 36.8659 46.7369 36.6259C46.8569 36.0859 46.5769 35.5559 46.0369 35.3959C45.1569 35.1259 44.1869 35.1259 43.3069 35.3959C43.0669 35.4659 42.8369 35.6359 42.7069 35.8559C42.5769 36.0759 42.5269 36.3859 42.6069 36.6259C42.6869 36.8659 42.8369 37.1059 43.0669 37.2259C43.2969 37.3459 43.5769 37.4059 43.8369 37.3259H43.8569Z" fill="black"/>
<path id="Vector_14" d="M55.7469 69.4958C56.1369 71.6258 56.8169 73.6358 57.6769 75.6258C58.3369 77.1558 59.0069 78.6558 59.3269 80.2958C59.7269 82.3858 59.7669 84.8458 59.0969 86.8858C58.3569 89.1358 56.2969 89.8958 54.1169 90.1258C51.0469 90.4558 47.7969 90.6758 44.7369 90.2258C44.2069 90.1458 43.6669 90.3558 43.5069 90.9258C43.3769 91.3958 43.6669 92.0758 44.2069 92.1558C47.3069 92.6158 50.4369 92.4458 53.5469 92.1858C56.0269 91.9758 58.6069 91.4258 60.1369 89.2658C61.6669 87.1058 61.6969 84.1958 61.5169 81.7258C61.3669 79.6958 60.8069 77.8358 60.0069 75.9758C59.0169 73.6758 58.1369 71.4358 57.6869 68.9658C57.4569 67.7058 55.5269 68.2358 55.7569 69.4958H55.7469Z" fill="black"/>
<path id="Vector_15" d="M37.7769 69.1657C44.1169 70.6657 49.3769 74.7357 54.3469 78.7457C54.7669 79.0857 55.3469 79.1557 55.7569 78.7457C56.1069 78.3957 56.1769 77.6757 55.7569 77.3357C50.5169 73.1057 44.9869 68.8157 38.2969 67.2357C37.0469 66.9357 36.5068 68.8657 37.7668 69.1657H37.7769Z" fill="black"/>
<path id="Vector_16" d="M44.8969 71.776C46.0569 72.876 47.2969 73.886 48.5169 74.926C49.3969 75.676 50.2969 76.476 50.8869 77.426C51.5569 78.506 51.8369 79.766 51.9169 81.036C52.0269 82.756 51.9169 84.496 51.4369 86.156C51.1769 87.056 50.8169 87.906 50.2969 88.686C50.0569 89.056 49.7669 89.386 49.4569 89.696C49.2969 89.846 49.1369 90.006 48.9569 90.136C48.8969 90.186 48.8369 90.226 48.7669 90.266C48.6969 90.316 48.6269 90.366 48.5469 90.406C48.3869 90.476 48.4669 90.496 48.7669 90.456C47.6969 89.726 46.6969 91.466 47.7569 92.186C48.7569 92.866 49.8569 92.006 50.6069 91.356C51.3569 90.706 51.9669 89.886 52.4269 89.016C53.3969 87.196 53.8269 85.126 53.9269 83.086C54.0169 81.316 53.9269 79.416 53.2669 77.756C52.7369 76.396 51.8569 75.276 50.7969 74.286C49.3469 72.936 47.7569 71.746 46.3069 70.376C45.3669 69.496 43.9569 70.906 44.8969 71.786V71.776Z" fill="black"/>
<path id="Vector_17" d="M38.487 80.3453C41.027 80.0753 42.107 82.8653 42.357 84.9153C42.717 87.7953 42.747 90.7453 42.827 93.6453C42.987 99.6253 42.867 105.605 42.447 111.565C42.207 114.915 41.887 118.255 41.467 121.585C41.397 122.125 41.977 122.585 42.467 122.585C43.067 122.585 43.397 122.125 43.467 121.585C44.257 115.245 44.727 108.875 44.857 102.485C44.927 99.3353 44.907 96.1753 44.807 93.0253C44.757 91.4253 44.687 89.8353 44.597 88.2353C44.517 86.7853 44.4571 85.3253 44.2071 83.8853C43.7271 81.1053 41.6871 77.9853 38.4771 78.3253C37.9371 78.3853 37.4771 78.7453 37.4771 79.3253C37.4771 79.8253 37.9371 80.3853 38.4771 80.3253L38.487 80.3453Z" fill="black"/>
<path id="Vector_18" d="M38.307 78.0559C34.337 79.9159 32.667 84.3159 31.377 88.1959C29.737 93.1459 27.847 97.9459 25.397 102.556C23.967 105.246 22.387 107.856 20.667 110.376C19.937 111.446 21.677 112.446 22.397 111.386C25.357 107.026 27.917 102.396 30.017 97.5659C31.067 95.1359 32.017 92.6659 32.837 90.1559C33.467 88.2359 34.067 86.2959 34.957 84.4759C35.937 82.4959 37.257 80.7359 39.307 79.7759C39.797 79.5459 39.917 78.8459 39.667 78.4059C39.377 77.9059 38.787 77.8159 38.297 78.0459L38.307 78.0559Z" fill="black"/>
<path id="Vector_19" d="M30.517 66.8154C28.467 68.6454 27.307 71.1554 26.327 73.6754C25.187 76.5954 24.117 79.5354 23.007 82.4654C20.707 88.5754 18.397 94.6854 16.097 100.795C14.407 105.265 12.797 110.115 9.49697 113.705C7.89697 115.455 6.03697 116.555 3.78697 117.275C2.47697 117.685 1.17697 118.245 0.44697 119.485C-0.21303 120.605 -0.16303 121.985 0.73697 122.955C1.25697 123.515 1.96697 123.885 2.61697 124.265C3.36697 124.695 4.11697 125.115 4.87697 125.525C6.43697 126.355 8.02697 127.125 9.64697 127.825C11.127 128.475 12.747 129.235 14.007 127.765C15.167 126.415 16.157 124.875 17.207 123.445L15.477 122.435C14.667 124.195 13.857 125.955 13.047 127.715C12.867 128.115 12.857 128.605 13.207 128.925C14.767 130.395 16.927 129.505 18.037 127.975C18.607 127.195 19.007 126.285 19.427 125.425C19.917 124.425 20.387 123.415 20.817 122.385C22.517 118.355 23.587 114.045 22.777 109.675C22.627 108.885 21.617 108.775 21.107 109.235C20.147 110.095 18.627 110.295 17.497 109.645C16.437 109.035 15.777 107.715 15.977 106.505C16.057 105.975 15.837 105.425 15.277 105.275C14.797 105.145 14.137 105.435 14.047 105.975C13.717 108.085 14.597 110.285 16.487 111.375C18.377 112.465 20.887 112.115 22.517 110.655L20.847 110.215C21.497 113.735 20.677 117.285 19.407 120.575C18.767 122.245 17.997 123.855 17.187 125.445C16.857 126.095 16.527 126.855 15.957 127.335C15.607 127.625 14.997 127.885 14.617 127.515L14.777 128.725C15.587 126.965 16.397 125.205 17.207 123.445C17.747 122.265 16.247 121.395 15.477 122.435C14.557 123.685 13.667 124.975 12.707 126.205C12.367 126.635 12.227 126.735 11.687 126.535C11.007 126.285 10.347 125.975 9.68697 125.675C8.36697 125.075 7.06697 124.435 5.77697 123.745C5.18697 123.435 4.60697 123.105 4.02697 122.775C3.44697 122.445 2.75697 122.145 2.27697 121.675C1.48697 120.915 2.48697 119.975 3.18697 119.625C4.29697 119.065 5.55697 118.855 6.68697 118.315C8.59697 117.405 10.257 115.975 11.587 114.335C14.517 110.735 16.137 106.325 17.757 102.025C19.917 96.3054 22.067 90.5754 24.227 84.8554C25.417 81.6854 26.617 78.5154 27.807 75.3454C28.777 72.7754 29.817 70.1154 31.917 68.2454C32.877 67.3854 31.467 65.9754 30.507 66.8354L30.517 66.8154Z" fill="black"/>
<path id="Vector_20" d="M30.2571 91.2754C31.0071 97.1754 31.7571 103.085 32.5071 108.985C32.8771 111.895 33.2871 114.805 33.5171 117.725C33.7471 120.645 33.6971 123.615 33.5371 126.565C33.4071 129.045 33.0471 131.575 33.2771 134.065C33.4771 136.175 34.1371 138.285 35.9271 139.575C38.0471 141.095 40.8071 140.715 43.2271 140.385C43.9171 140.295 44.5971 140.195 45.2871 140.085C45.9771 139.975 46.6771 139.875 47.2571 139.465C48.1871 138.825 48.5071 137.745 48.3671 136.665C48.1971 135.375 47.5371 134.285 46.9371 133.155C46.2471 131.865 45.6571 130.515 45.1871 129.125C44.2171 126.305 43.6871 123.355 43.6171 120.365C43.5871 119.085 41.5871 119.075 41.6171 120.365C41.7371 125.355 43.0571 130.275 45.4771 134.645C45.8971 135.395 46.4471 136.295 46.4171 137.195C46.3771 138.205 44.8971 138.135 44.1571 138.245C42.0671 138.565 39.2971 139.245 37.3471 138.095C35.7471 137.155 35.3371 135.155 35.2471 133.435C35.1271 131.065 35.4371 128.675 35.5571 126.315C35.6971 123.575 35.7471 120.825 35.5571 118.085C35.3671 115.345 34.9771 112.585 34.6371 109.845C33.8471 103.655 33.0571 97.4654 32.2771 91.2754C32.2071 90.7354 31.8671 90.2754 31.2771 90.2754C30.7871 90.2754 30.2071 90.7354 30.2771 91.2754H30.2571Z" fill="black"/>
<path id="Vector_21" d="M34.3971 124.226C35.8571 125.196 37.6471 125.486 39.3571 125.206C40.1671 125.076 40.9871 124.766 41.6771 124.326C42.4971 123.806 43.3771 122.876 42.9771 121.816C42.7871 121.306 42.2971 120.966 41.7471 121.116C41.2571 121.246 40.8571 121.836 41.0471 122.346C41.0871 122.446 41.0471 122.446 41.0671 122.366C41.0671 122.326 41.0671 122.296 41.0671 122.266C41.0871 122.226 41.0671 122.226 41.0471 122.286C41.0471 122.286 40.9171 122.426 40.9071 122.436C40.7471 122.576 40.3971 122.766 40.1471 122.886C40.1271 122.886 39.9671 122.966 40.0271 122.946C40.0871 122.926 39.8471 123.016 39.8471 123.016C39.7171 123.066 39.5771 123.106 39.4371 123.146C39.2871 123.186 39.1271 123.226 38.9671 123.256C38.8971 123.266 38.8271 123.286 38.7571 123.296C38.5671 123.326 38.9871 123.286 38.6471 123.306C38.3471 123.326 38.0471 123.336 37.7371 123.326C37.3871 123.306 37.3571 123.296 36.9971 123.216C36.8371 123.176 36.6871 123.136 36.5371 123.086C36.4671 123.066 36.4071 123.046 36.3371 123.016C36.2971 123.006 36.1171 122.926 36.2271 122.976C35.9371 122.846 35.6571 122.686 35.3871 122.506C34.9371 122.206 34.2771 122.416 34.0171 122.866C33.7271 123.356 33.9271 123.936 34.3771 124.236L34.3971 124.226Z" fill="black"/>
</g>
</g>
</svg>
