<svg width="78" height="175" viewBox="0 0 78 175" fill="none" xmlns="http://www.w3.org/2000/svg">
<g clip-path="url(#clip0_138_1479)">
<path d="M72.9087 70.6606C71.3315 63.4078 69.4065 56.3413 66.2272 49.5356C65.4324 47.8218 63.9048 47.2257 62.3897 47.3871C61.6942 46.7537 60.8745 46.2321 59.8313 45.8471C57.6331 45.0399 50.7281 46.7413 49.511 44.953C49.0391 44.2575 48.4802 43.7731 47.8965 43.4378C47.8096 42.4443 47.7226 41.4507 47.6357 40.4696C47.9834 40.5566 48.3436 40.6187 48.741 40.6435C52.3301 40.7925 54.7022 37.2282 55.7578 34.2352C55.8199 34.0738 55.8572 33.8999 55.9069 33.7384C56.1925 32.9685 56.3912 32.1488 56.5154 31.3167C56.6147 30.5964 56.7017 29.8761 56.801 29.1682C57.1488 29.0564 57.5213 28.895 57.8194 28.7335C58.49 28.3734 58.7757 28.0132 59.1979 27.4668C59.5953 26.9452 59.6078 26.9327 59.8686 26.3242C59.8934 26.2745 59.9058 26.2373 59.9307 26.1876C60.1045 26.1379 60.266 26.0634 60.415 26.0013C62.6629 25.5791 64.5133 23.6665 63.6067 20.8101C63.3956 20.1519 63.1845 19.4937 62.9734 18.8354C62.9734 18.7858 62.9734 18.7485 62.9734 18.7113C62.9982 16.5006 62.5387 15.1966 60.8497 13.7808C60.4647 13.4579 60.03 13.2096 59.5829 13.0357C59.7941 11.682 59.5208 10.229 58.6515 9.18575C57.3972 7.67062 56.0559 6.60257 54.3793 5.59662C53.2367 4.91356 52.0321 4.83905 50.964 5.1992C50.6535 4.82663 50.2934 4.47889 49.8215 4.16841C48.7162 3.46052 47.5488 2.95133 46.3689 2.62843C45.9715 2.46698 45.5493 2.31796 45.127 2.15651C44.1086 1.78393 43.1275 1.88328 42.283 2.29312C42.1713 2.29312 42.0595 2.30554 41.9601 2.33037C41.1156 1.90812 40.1097 1.79635 38.9919 2.15651C36.5702 2.96375 35.2414 4.41679 34.7322 5.98161C34.6825 6.0437 34.6452 6.1058 34.5956 6.15548C34.3844 6.39144 34.1857 6.62741 33.987 6.87579C33.9249 6.83853 33.8752 6.80127 33.8007 6.76402C30.6711 5.18678 27.852 7.23594 27.4421 9.90607C24.8465 9.78187 23.3686 12.1291 23.5425 14.4763C22.3378 14.5757 21.1456 15.0352 20.2266 15.7182C20.1521 15.7803 20.0776 15.8424 20.003 15.8921C19.5187 15.8921 19.0219 15.9915 18.55 16.2026C16.7616 16.9602 15.7557 18.7858 16.24 20.7232C16.3766 21.2572 16.6375 21.7291 16.9603 22.1638C17.0349 23.5423 17.5689 24.8587 18.6245 25.7032C17.7552 26.1876 17.0597 26.97 16.6002 27.8766C16.3518 28.1871 16.1034 28.4976 15.855 28.8329C15.0105 29.9879 15.5073 31.6272 16.3394 32.5959C16.476 32.7573 16.6499 32.8815 16.7989 33.0181C16.9976 33.3534 17.2212 33.6639 17.4695 33.962C17.3578 34.5084 17.3578 35.0797 17.4944 35.5765C17.8297 36.7563 18.8232 37.6256 19.9782 37.9485C20.1769 37.9982 20.388 38.0231 20.5992 38.0479C20.1521 42.4567 22.698 46.6295 28.6716 45.3131C28.771 45.2883 28.8455 45.2634 28.9448 45.2386C30.1122 45.8099 31.5529 45.872 32.9687 45.1517C33.3412 44.9654 33.689 44.7667 34.0243 44.568C35.2165 44.8412 36.3467 44.6673 37.3899 44.2202C37.1167 44.6673 36.8683 45.1144 36.6199 45.5739C35.6388 46.1824 34.6701 46.7786 33.689 47.3871C31.1927 47.027 28.6965 48.3682 26.7715 50.6906C26.4238 51.1129 26.1257 51.5351 25.8525 51.9822C25.7531 52.1064 25.6662 52.243 25.5668 52.3796C25.5668 52.3796 25.5544 52.3672 25.542 52.3548C25.5172 52.4044 25.5047 52.4417 25.4923 52.4914C21.1332 58.85 22.9712 69.2573 24.9335 77.5781C23.232 81.4405 22.3254 85.6257 21.1829 89.6868C19.8168 94.5551 17.8173 99.7712 13.396 102.652C12.9117 103.013 12.6757 103.497 12.6136 103.981C11.8561 104.565 11.0612 105.111 10.2167 105.596C10.1671 105.621 10.1298 105.658 10.0925 105.683C9.18595 105.782 8.26693 105.857 7.34791 105.906C4.96343 106.006 4.9386 109.669 7.34791 109.632C8.16758 109.632 8.98724 109.57 9.79449 109.495C10.1422 109.669 10.5645 109.744 11.0364 109.657C11.6201 109.545 12.1914 109.446 12.7751 109.334C12.8496 109.396 12.9241 109.446 13.0111 109.495C15.6439 110.775 18.3761 109.769 20.2142 107.632C22.2137 105.31 23.8157 102.528 25.4799 99.9574C26.312 98.6658 27.1316 97.3618 27.9389 96.0454C28.6344 95.1388 29.3174 94.2198 29.9881 93.3008C31.913 91.0902 33.7759 88.8174 35.5767 86.4951C35.7878 86.967 35.9989 87.4513 36.2101 87.9233C29.4292 102.056 23.8902 116.761 19.6677 131.862C19.0343 131.974 18.4631 132.334 18.1153 133.042C17.2336 134.855 16.3518 136.656 15.47 138.469C13.2098 141.909 9.9932 144.766 6.29228 146.579C5.05037 147.001 3.83329 147.498 2.64105 148.069C1.958 148.405 1.59784 148.951 1.47365 149.547C1.10107 149.994 1.03898 150.677 1.52333 151.199C1.6351 151.323 1.77171 151.422 1.88348 151.547C2.13186 151.932 2.45476 152.242 2.85218 152.453C4.75231 154.03 7.0126 155.061 9.35982 155.856C10.9991 156.8 12.7254 157.595 14.551 158.191C15.1596 158.39 15.706 158.042 15.9668 157.545C16.1779 157.545 16.4015 157.508 16.6002 157.359C16.7989 157.222 16.9976 157.061 17.1963 156.912C16.9479 157.471 17.0597 158.228 17.6682 158.539C18.1402 158.775 18.6121 159.011 19.084 159.259C19.6429 159.545 20.475 159.445 20.7855 158.812C21.543 157.259 22.1391 155.67 22.6607 154.043C22.9836 153.993 23.2817 153.819 23.4556 153.472C25.5296 149.597 26.5976 145.275 26.5976 140.903C26.7715 139.823 26.8708 138.718 26.9081 137.612C27.5787 136.134 28.2618 134.657 28.9324 133.179C29.3795 132.93 29.7769 132.558 30.0998 132.011C31.0313 130.347 31.9254 128.671 32.7948 126.994C32.9811 126.634 33.1674 126.286 33.3412 125.926C35.3531 122.014 37.2533 118.04 39.0168 114.004C40.6561 127.329 42.283 140.667 43.9224 153.993C42.9661 157.868 42.6432 161.941 43.1275 165.903C43.1524 166.089 43.1896 166.263 43.2269 166.437C42.6059 167.592 42.7922 168.996 43.587 170.25C44.4191 171.554 45.6735 172.448 47.0892 173.007C48.6416 173.628 50.2189 173.678 51.7837 173.417C52.6779 174.249 53.9198 174.659 55.1865 174.361C56.9252 173.938 58.1796 172.212 58.1299 170.449C58.1299 170.387 58.1175 170.324 58.105 170.262C58.341 169.654 58.341 168.971 57.8691 168.337C57.5834 167.952 57.3102 167.543 57.037 167.145C56.8507 166.661 56.652 166.189 56.4781 165.704C56.3912 165.456 56.3167 165.208 56.2298 164.972C56.2422 164.736 56.2297 164.487 56.1925 164.214C55.6212 161.147 54.6898 158.191 53.4851 155.334C53.1746 154.117 52.889 152.888 52.6406 151.658C52.5537 151.236 52.3301 150.888 52.0321 150.59C53.3858 138.047 54.6153 125.454 54.429 112.849C57.3972 113.296 60.3778 113.37 63.3211 113.035C65.0846 113.395 66.9227 113.246 68.5992 112.588C69.8412 112.948 71.3066 112.575 72.1884 111.259C74.5853 107.645 75.2932 103.422 74.6846 99.175C74.5729 98.4299 74.1754 97.8834 73.6166 97.5109C73.6166 97.1259 73.5793 96.7285 73.4675 96.3062C72.4989 92.8164 71.5798 89.3142 70.6732 85.812C70.7726 85.8493 70.8719 85.8741 70.9837 85.9114C73.9892 86.8428 77.4541 83.6883 76.3364 80.5587C75.1566 77.28 74.0264 73.989 72.9211 70.6855L72.9087 70.6606ZM14.3647 154.366C14.3647 154.366 14.3647 154.403 14.3647 154.428C14.3026 154.54 14.253 154.651 14.2033 154.776C14.1288 154.714 14.0294 154.676 13.9301 154.639C14.0791 154.552 14.2281 154.478 14.3647 154.378V154.366ZM60.9987 62.7372C61.1229 63.1098 61.2347 63.4575 61.3464 63.7804C61.036 63.8549 60.7255 63.9543 60.4398 64.1033C60.2784 63.6686 60.1294 63.234 59.9679 62.8117C60.1666 62.8117 60.3529 62.8117 60.5516 62.8117C60.7131 62.8117 60.8621 62.7745 61.0111 62.7496L60.9987 62.7372ZM46.5428 19.1956C46.6546 19.1335 46.7539 19.0838 46.7788 19.0093C46.7167 19.1708 46.6297 19.2204 46.5428 19.1956ZM49.6724 164.947C49.6724 164.835 49.6724 164.723 49.66 164.599C49.8463 164.947 50.0326 165.307 50.2313 165.655C50.1444 165.63 50.045 165.593 49.9581 165.568C49.8587 165.531 49.7469 165.506 49.6476 165.469C49.6849 165.295 49.6973 165.133 49.6849 164.947H49.6724Z" fill="#FFB102"/>
<path d="M55.6338 26.0504C55.4848 28.7081 55.1246 31.3534 54.5161 33.949C54.0814 35.8119 53.4605 37.9604 51.7839 39.0905C48.3065 41.4378 44.0716 38.867 42.6806 35.3896C42.4322 34.7687 41.8485 34.334 41.1531 34.5203C40.5569 34.6817 40.0353 35.4269 40.2837 36.0478C41.2152 38.3702 42.8172 40.4566 45.1024 41.5744C47.3875 42.6921 50.1445 42.7542 52.4545 41.5744C54.7645 40.3946 56.0685 37.8114 56.7267 35.3151C57.5215 32.2973 57.9314 29.1552 58.1052 26.0504C58.1922 24.4483 55.7083 24.4608 55.6214 26.0504H55.6338Z" fill="black"/>
<path d="M43.5128 28.8946C44.1834 27.8266 43.6991 26.535 42.7677 25.8147C41.8362 25.0944 40.5322 25.082 39.5635 25.7898C38.5948 26.4977 38.0856 27.5161 37.8621 28.6214C37.6137 29.8633 37.6634 31.1922 38.2968 32.3223C38.9301 33.4525 40.2466 34.3342 41.6127 34.2721C42.2585 34.2473 42.8794 33.7257 42.8546 33.0302C42.8298 32.3844 42.3081 31.751 41.6127 31.7883C41.5506 31.7883 41.4885 31.7883 41.4264 31.7883C41.2898 31.7883 41.3022 31.7883 41.4761 31.8007C41.3891 31.8131 41.2774 31.751 41.2028 31.7386C40.942 31.689 41.3519 31.838 41.1407 31.7138C41.029 31.6517 40.9172 31.5896 40.8054 31.5151C40.9793 31.6269 40.8427 31.5399 40.7558 31.4654C40.6812 31.4033 40.6191 31.3288 40.557 31.2543C40.7557 31.4654 40.5322 31.217 40.4949 31.1549C40.4328 31.0556 40.3708 30.9562 40.3335 30.8444C40.4329 31.0928 40.3087 30.7451 40.3087 30.7203C40.2714 30.5961 40.2466 30.4719 40.2217 30.3477C40.2093 30.2607 40.2093 30.2732 40.2217 30.3974C40.2217 30.3228 40.2093 30.2483 40.2093 30.1738C40.2093 30.062 40.2093 29.9503 40.2093 29.8385C40.2093 29.7019 40.2217 29.5777 40.2341 29.4411C40.2341 29.3541 40.2341 29.3666 40.2341 29.4908C40.2341 29.4162 40.259 29.3417 40.2714 29.2672C40.3087 29.0561 40.3708 28.8574 40.4329 28.6463C40.4453 28.5966 40.4577 28.5593 40.4825 28.5096C40.5322 28.3855 40.5322 28.3979 40.4701 28.5469C40.4701 28.4724 40.557 28.3606 40.5943 28.2985C40.644 28.2116 40.6937 28.1371 40.7433 28.0626C40.8178 27.9508 40.8054 27.9632 40.7061 28.0874C40.7433 28.0377 40.7806 28.0005 40.8178 27.9508C40.8551 27.9011 40.9545 27.7769 41.0041 27.7645C40.8675 27.8639 40.8551 27.8763 40.9669 27.8018L41.0414 27.7521C41.0414 27.7521 41.1407 27.69 41.2028 27.6651C41.0414 27.7272 41.029 27.7397 41.1532 27.7024C41.4015 27.6403 40.8924 27.6776 41.1532 27.7024C41.414 27.7272 40.9048 27.6155 41.1283 27.7024C41.178 27.7024 41.2277 27.7272 41.2774 27.7521C41.1035 27.6776 41.0786 27.6651 41.2028 27.7272L41.2774 27.7645C41.3891 27.839 41.3643 27.8142 41.2153 27.7024C41.2153 27.7024 41.3767 27.8514 41.3891 27.8639C41.5506 28.0129 41.2649 27.6279 41.3891 27.8887C41.4388 27.9756 41.414 27.9259 41.3394 27.7645C41.3519 27.8142 41.3643 27.8514 41.3767 27.9011C41.3519 27.7024 41.3519 27.6527 41.3519 27.7397C41.3519 27.7769 41.3519 27.8142 41.3519 27.839C41.3891 27.6279 41.3891 27.5906 41.3519 27.7148C41.4388 27.5285 41.4388 27.5037 41.3767 27.6155C41.029 28.1619 41.2401 29.0064 41.8238 29.3169C42.4323 29.6398 43.1526 29.4659 43.5252 28.8698L43.5128 28.8946Z" fill="black"/>
<path d="M43.5378 28.0619C46.4439 26.3977 48.8656 23.976 50.5298 21.0699L48.58 21.3183C50.6167 23.9263 53.3614 26.3232 56.8512 26.3729C58.4532 26.3977 58.4532 23.9139 56.8512 23.8891C54.0693 23.8518 51.9456 21.6039 50.3435 19.5672C49.8467 18.9338 48.7539 19.1946 48.3937 19.8156C46.9282 22.3739 44.8418 24.4603 42.2959 25.9258C40.9049 26.7206 42.1593 28.8691 43.5502 28.0743L43.5378 28.0619Z" fill="black"/>
<path d="M52.5292 3.85691C48.4929 1.48485 43.9103 -0.974146 39.0916 0.391963C37.03 0.975663 35.2914 2.21758 34.1736 4.0432C33.9128 4.46545 33.7886 4.73867 33.2794 4.78835C32.6585 4.85044 32.0003 4.76351 31.3793 4.78835C30.2119 4.81319 29.0073 4.98705 27.9765 5.55834C26.0142 6.65122 25.0331 9.69392 26.8836 11.3457L28.0882 9.27167C26.2254 8.96119 23.9402 8.78732 22.7356 10.5508C21.8414 11.8549 22.0028 13.8916 23.4931 14.674L24.1141 12.364C20.5001 12.8111 16.2652 14.5001 15.1723 18.3625C14.2284 21.6784 16.1286 25.5408 19.6929 26.0003L19.0719 23.6903C16.4763 25.0688 13.8062 27.2919 13.6199 30.4463C13.4585 33.1289 15.4704 35.9729 18.3019 35.9356C19.904 35.9108 19.8916 33.5263 18.3019 33.4518C16.1534 33.3524 15.0978 35.8238 15.7312 37.6246C16.6005 40.1209 19.6556 40.1705 21.8166 39.8352L20.4132 38.0096C19.5066 39.8973 19.7053 42.1825 21.1708 43.7473C22.512 45.1755 24.7351 45.6722 26.5483 44.9643L25.3436 42.8903C24.052 44.4676 25.3809 46.0448 27.0699 46.4422C28.0137 46.6658 28.9576 46.4546 29.9139 46.3429C31.0688 46.2063 32.2362 46.0572 33.3912 45.9206C34.0619 45.8337 34.6331 45.4114 34.6331 44.6787C34.6331 44.0702 34.0619 43.3499 33.3912 43.4368C32.0251 43.5982 30.6714 43.7721 29.3053 43.9336C28.8334 43.9957 28.3118 44.1323 27.8274 44.0702C27.6784 44.0577 27.5294 43.9584 27.3928 43.946C27.3431 43.8963 27.281 43.859 27.2065 43.859C27.1816 44.1198 27.1568 44.3806 27.1071 44.6414C27.4673 44.2068 27.6039 43.6479 27.3058 43.1387C27.045 42.7041 26.4116 42.3687 25.9025 42.5674C23.8285 43.3747 21.5061 41.4746 22.5741 39.264C23.0709 38.2332 22.2636 37.2645 21.1708 37.4383C20.3511 37.5749 18.7118 37.7861 18.1529 36.954C17.9915 36.718 18.0039 36.4324 18.0784 36.184C18.1032 36.0846 18.1405 35.9977 18.2026 35.9356C18.2647 35.8611 18.066 35.9232 18.3144 35.9356V33.4518C16.7371 33.4766 15.8926 31.5641 16.141 30.198C16.5136 28.1115 18.6124 26.7579 20.3387 25.8388C20.823 25.578 21.0466 24.9447 20.91 24.4355C20.7485 23.8642 20.2642 23.591 19.7177 23.5289C17.6561 23.2681 17.06 20.2875 17.7058 18.6854C18.6993 16.2388 21.7296 15.1584 24.1389 14.8603C24.6854 14.7982 25.1821 14.525 25.3312 13.9537C25.4678 13.4445 25.2442 12.7987 24.7599 12.5503C24.5612 12.451 24.673 12.0411 24.9213 11.8176C25.5175 11.2836 26.7594 11.5692 27.4424 11.681C28.5477 11.8673 29.6655 10.5136 28.6471 9.60698C28.1255 9.14747 28.4732 8.35265 28.9327 7.9304C29.74 7.18525 31.1309 7.27218 32.1617 7.2846C33.5154 7.29702 34.8318 7.32186 35.7633 6.17929C36.4712 5.30995 36.8562 4.37851 37.8124 3.7203C42.1467 0.72728 47.4249 3.74514 51.2997 6.01784C52.6782 6.82509 53.9325 4.68899 52.554 3.86933L52.5292 3.85691Z" fill="black"/>
<path d="M51.8833 6.52649C53.7834 6.62585 55.6215 7.42067 56.9876 8.74952C57.7948 9.53193 59.6577 11.755 58.4158 12.8727C57.621 13.5806 58.2419 15.046 59.2975 14.9964C61.4088 14.897 62.6756 17.0331 61.5454 18.8339C61.0114 19.6908 61.7193 20.6347 62.6135 20.6968C62.4644 20.6968 62.6135 20.5353 62.5265 20.6471C62.3154 20.9576 62.1912 21.3301 62.1291 21.7027C62.0049 22.3982 62.3154 23.0937 62.0546 23.7643C61.6696 24.7206 60.5767 25.4409 59.5459 25.1925C58.5151 24.9441 57.621 26.0494 58.1426 27.0181C58.4903 27.6763 57.8072 28.1358 57.236 27.7881C55.8699 26.956 54.6155 29.1045 55.9816 29.9366C57.1739 30.6569 58.7759 30.5576 59.7943 29.564C60.8127 28.5705 60.9369 26.9933 60.2911 25.7638L58.8877 27.5894C61.2722 28.1483 63.8181 26.658 64.5012 24.2859C64.6626 23.7146 64.675 23.1558 64.6254 22.5721C64.5881 22.2119 64.5757 22.1125 64.7371 21.8021C64.8986 21.4916 65.0104 21.1439 65.0352 20.7837C65.1097 19.3679 63.9671 18.3123 62.6259 18.2129L63.6939 20.0758C65.7928 16.7226 63.2593 12.3262 59.2975 12.5001L60.1793 14.6238C62.4148 12.6243 60.8375 9.30839 59.223 7.49519C57.3602 5.39635 54.6652 4.17927 51.8833 4.04266C50.2812 3.96814 50.2936 6.45198 51.8833 6.52649Z" fill="black"/>
<path d="M46.978 41.2751C47.0152 43.0511 48.046 44.6035 49.5115 45.5597C50.2442 46.0317 51.0763 46.3049 51.9332 46.4167C52.7902 46.5284 53.6595 46.3422 54.4792 46.0068C54.74 45.8951 54.9759 45.5225 55.0504 45.2617C55.1374 44.9636 55.1001 44.5662 54.9262 44.3054C54.7524 44.0446 54.504 43.8087 54.1811 43.7341C53.8334 43.6596 53.5477 43.7341 53.2248 43.8583C53.585 43.7093 53.3118 43.8211 53.2248 43.8583C53.1503 43.8832 53.0634 43.908 52.9889 43.9204C52.9268 43.9328 52.8522 43.9453 52.7777 43.9701C52.5293 44.0322 53.0882 43.9453 52.8274 43.9701C52.6784 43.9701 52.5293 43.9949 52.3803 43.9825C52.2934 43.9825 52.2189 43.9825 52.1319 43.9701C52.0077 43.9701 51.8587 43.8707 52.1816 43.9701C51.896 43.8707 51.5855 43.8335 51.2999 43.7341C51.0887 43.6596 51.5607 43.8583 51.3371 43.7466C51.275 43.7093 51.2129 43.6845 51.1508 43.6596C51.0142 43.5851 50.8776 43.5106 50.7534 43.4237C50.6913 43.3864 50.6416 43.3491 50.5795 43.2995C50.7534 43.4609 50.3312 43.138 50.5795 43.2995C50.4678 43.2001 50.3684 43.1132 50.2691 43.0138C50.1573 42.902 50.0704 42.7779 49.9586 42.6785C49.8965 42.604 49.9337 42.6412 50.0455 42.7903C50.0207 42.753 49.9958 42.7158 49.9586 42.6785C49.9213 42.6164 49.8841 42.5667 49.8468 42.5046C49.7723 42.3804 49.7102 42.2687 49.6481 42.1445C49.6233 42.1072 49.6108 42.0575 49.586 42.0203C49.6605 42.1942 49.6854 42.2438 49.6481 42.1569C49.6233 42.0824 49.586 42.0079 49.5736 41.9334C49.5363 41.7967 49.4991 41.6601 49.4742 41.5235C49.4246 41.2751 49.4991 41.8092 49.4742 41.5732C49.4742 41.4738 49.4618 41.3869 49.4618 41.2876C49.4494 40.6418 48.903 40.0208 48.2199 40.0456C47.5368 40.0705 46.9656 40.5921 46.978 41.2876V41.2751Z" fill="black"/>
<path d="M32.9566 45.6098C35.6267 46.4543 38.806 43.9953 38.4583 41.1389L36.1483 41.7599C37.0052 43.1881 38.9178 43.7842 40.4205 42.9894C41.9232 42.1945 42.3827 40.282 41.7369 38.7544L39.7871 40.2572C40.3957 40.7788 41.1656 41.0147 41.9481 40.8036C42.7305 40.5925 43.2521 40.046 43.5625 39.3009C43.8233 38.6799 43.2893 37.9348 42.6932 37.7733C41.9729 37.5746 41.4264 38.0217 41.1656 38.6427C41.2277 38.4936 41.2402 38.4688 41.3643 38.3694C41.1035 38.5806 41.5506 38.208 41.2898 38.4067H41.414C41.265 38.3943 41.2774 38.4067 41.4389 38.4067L41.3395 38.3819C41.414 38.3943 41.4885 38.4315 41.5382 38.4936C41.0663 38.0962 40.4205 37.9969 39.9113 38.3943C39.4021 38.7917 39.34 39.4127 39.5884 39.9964C39.5139 39.8349 39.5884 40.0088 39.5884 40.0957C39.6008 40.2447 39.6381 39.8846 39.5884 40.1702C39.5636 40.2696 39.576 40.3193 39.5884 40.1951C39.576 40.2944 39.5387 40.3813 39.5139 40.4807C39.4518 40.667 39.6381 40.2572 39.4642 40.5552C39.427 40.6297 39.3773 40.6918 39.4642 40.5925C39.4518 40.6173 39.2283 40.8284 39.34 40.7415C39.427 40.667 39.1786 40.8409 39.1786 40.8409C39.2903 40.7788 39.2283 40.816 39.1413 40.8409C38.8433 40.9402 39.2407 40.8409 39.0668 40.8657C38.9674 40.8657 38.8681 40.8657 38.7687 40.8657C38.9054 40.8781 38.8433 40.8657 38.7563 40.8409C38.421 40.7539 38.8433 40.903 38.6694 40.816C38.5825 40.7788 38.4955 40.7291 38.421 40.667C38.5328 40.7415 38.4458 40.6918 38.4086 40.6297C38.1726 40.3441 38.5079 40.8284 38.3217 40.5055C38.036 40.0336 37.4523 39.7852 36.9183 39.9343C36.4339 40.0709 35.9372 40.6049 36.0117 41.1265C36.0241 41.2507 36.0365 41.3625 36.0365 41.4867C36.0365 41.5239 36.0117 41.822 36.0365 41.6729C36.0614 41.5239 35.9993 41.822 35.9868 41.8468C35.9868 41.8716 35.8502 42.207 35.9496 41.9834C35.7509 42.4553 35.664 42.505 35.2914 42.8528C35.1299 42.9894 35.3162 42.8528 35.2169 42.9149C35.1299 42.9645 35.0554 43.0266 34.9685 43.0763C34.9561 43.0763 34.6207 43.2378 34.8319 43.1508C34.7201 43.1881 34.6083 43.2253 34.4966 43.2626C34.4717 43.2626 34.1612 43.3247 34.3227 43.2998C34.4841 43.275 34.1737 43.2998 34.1364 43.2998C34.0991 43.2998 33.7514 43.2502 33.9998 43.2998C33.888 43.275 33.7638 43.2502 33.652 43.2129C33.0187 43.0142 32.2984 43.4489 32.1245 44.0823C31.9382 44.7529 32.348 45.4111 32.9938 45.6098H32.9566Z" fill="black"/>
<path d="M35.7881 43.6106C34.7821 45.5232 32.2735 45.846 30.3858 46.3801C27.9516 47.0755 25.9024 48.2305 24.35 50.2673C20.972 54.7009 21.2328 60.5255 22.1146 65.7291C22.6486 68.9084 23.3938 72.0629 23.3814 75.3043C23.3689 78.5457 22.6362 81.7995 21.6551 84.9043C20.7485 87.798 19.6804 90.6668 18.5255 93.4611C17.594 95.7214 16.4763 98.0314 14.9115 99.9315C14.067 100.95 13.1107 101.881 11.9681 102.564C10.9125 103.21 9.74511 103.558 8.59012 103.98C6.25532 104.812 3.54794 106.054 3.53552 108.923C3.53552 109.457 3.92052 109.991 4.44212 110.115C7.70836 110.922 11.1236 111.432 14.5016 111.407C16.0168 111.407 17.5319 111.196 18.9105 110.525C20.289 109.854 21.2701 108.712 22.1643 107.544C24.2259 104.825 26.1881 102.006 28.2 99.2485C30.2119 96.4914 32.2983 93.9455 33.9997 91.1015C35.7012 88.2575 36.8561 84.8422 34.9436 81.9362C34.0618 80.6073 31.9133 81.8492 32.7951 83.1905C34.1984 85.3266 33.031 87.8849 31.8512 89.8472C30.3361 92.3931 28.4235 94.7279 26.6848 97.1248C24.8096 99.708 22.9343 102.291 21.059 104.887C20.3014 105.93 19.5687 107.06 18.5503 107.855C17.5319 108.65 16.3521 108.873 15.1599 108.923C11.8067 109.084 8.35416 108.538 5.10034 107.731L6.00694 108.923C6.00694 107.135 8.83851 106.514 10.1674 106.054C12.5146 105.235 14.5513 104.055 16.2279 102.179C19.8046 98.1928 21.5557 92.7408 23.2944 87.7732C24.35 84.7429 25.2442 81.6505 25.6416 78.4588C26.0391 75.2671 25.7037 71.9015 25.1325 68.6352C24.2259 63.444 22.8597 57.7188 25.6168 52.8132C26.2253 51.7452 27.0202 50.7516 28.0385 50.0562C29.0569 49.3607 30.2367 48.9881 31.429 48.6528C33.888 47.9697 36.6326 47.2991 37.9242 44.8525C38.6693 43.4367 36.5332 42.1824 35.7757 43.5982L35.7881 43.6106Z" fill="black"/>
<path d="M27.3679 49.7328C27.4797 55.0109 27.579 60.2891 27.6908 65.5548C27.7405 67.9269 27.7157 70.3362 28.2124 72.671C28.7092 75.0058 29.9511 76.8935 31.28 78.8433C32.8075 81.0788 33.9377 83.4757 34.6331 86.0961C35.043 87.6361 37.4399 86.9903 37.03 85.4379C36.4339 83.1776 35.5273 80.9794 34.3227 78.9675C33.118 76.9556 31.6153 75.3411 30.9322 73.1926C30.2492 71.0441 30.2492 68.6348 30.1995 66.3372L30.0505 58.6498L29.8766 49.7328C29.8393 48.1307 27.3555 48.1307 27.3928 49.7328H27.3679Z" fill="black"/>
<path d="M32.5344 47.0379C32.0252 49.9688 31.752 52.937 31.7768 55.9052C31.7768 57.0602 31.7768 58.3766 32.7083 59.2335C33.8136 60.2519 35.4902 59.7427 36.8066 59.5689C39.7375 59.1839 42.656 58.8113 45.5869 58.4263C47.1021 58.2276 48.6172 58.0289 50.1324 57.8426C51.5233 57.6563 52.6907 57.4452 53.2371 56.0046C53.7836 54.5639 54.0816 52.9246 54.4915 51.4095C54.9386 49.7453 55.3732 48.0936 55.8203 46.4294C56.2302 44.8894 53.8333 44.2188 53.4234 45.7712C52.6038 48.8635 51.8214 51.9808 50.9396 55.0607C50.8527 55.3712 50.9272 55.3091 50.6415 55.3091C50.2814 55.3091 49.884 55.4084 49.5238 55.4581C48.7166 55.5575 47.9093 55.6692 47.1021 55.7686C45.5373 55.9673 43.9724 56.1784 42.4076 56.3771C40.8428 56.5758 39.278 56.787 37.7132 56.9857C36.9059 57.085 36.0987 57.1968 35.2914 57.2962C35.0679 57.321 34.5339 57.4824 34.3103 57.3707C34.509 57.47 34.3352 57.2713 34.3103 57.085C34.1861 56.3771 34.2607 55.5699 34.2731 54.862C34.2731 54.0548 34.3103 53.2599 34.3724 52.4527C34.4718 50.863 34.6705 49.2734 34.9437 47.7086C35.0555 47.0503 34.7698 46.3673 34.0744 46.181C33.4783 46.0195 32.6586 46.3797 32.5468 47.0503L32.5344 47.0379Z" fill="black"/>
<path d="M55.9692 47.0375C60.2414 44.9263 64.8613 48.4285 66.8856 52.03C68.1524 54.2903 68.8603 56.799 69.4812 59.2953C70.1891 62.1641 70.8473 65.0329 71.518 67.9017C72.1886 70.7706 72.9213 73.8629 73.6292 76.856C73.977 78.3463 74.3371 79.8366 74.6849 81.3269C74.8587 82.0596 75.4797 83.6617 74.5358 84.0963C74.1012 84.295 73.5547 84.2702 73.0952 84.295C72.288 84.3323 71.4931 84.3571 70.6859 84.382C69.1832 84.4316 67.668 84.4813 66.1653 84.5062C63.0978 84.5683 60.0427 84.5434 56.9751 84.3571C53.6344 84.146 50.3681 83.6368 47.0771 83.0034C43.786 82.3701 40.3335 81.8485 36.9927 82.693L38.3961 84.5186C40.4825 81.0536 44.7671 79.0045 48.7785 79.6503C50.0452 79.849 51.2375 80.383 52.5042 80.6438C53.8703 80.9294 55.224 80.8673 56.6026 80.6438C59.4714 80.1967 62.3278 79.5012 65.1718 78.9175C65.7679 78.7933 66.2771 77.9861 66.0411 77.39C63.7063 71.702 62.0173 65.7532 61.0486 59.6803C60.6264 56.9977 60.1917 54.2158 60.3159 51.4836C60.4028 49.5462 60.8747 47.3729 62.7128 46.3917C64.1162 45.6342 62.8618 43.4857 61.4585 44.2432C57.7948 46.2179 57.6085 50.9247 57.9314 54.576C58.3909 59.7051 59.3224 64.7969 60.7506 69.7522C61.5578 72.5713 62.5265 75.3284 63.6442 78.0482L64.5136 76.5206C61.5951 77.1168 58.6517 77.9116 55.696 78.2842C54.2305 78.4704 52.9513 78.2221 51.548 77.7998C50.3185 77.4272 49.089 77.1292 47.8098 77.0671C43.2023 76.8684 38.6444 79.315 36.26 83.2518C35.6887 84.1957 36.6325 85.3382 37.6633 85.0774C40.8054 84.2826 44.0344 84.916 47.164 85.5245C50.2936 86.1331 53.5847 86.605 56.8385 86.8161C60.0923 87.0273 63.4704 87.0397 66.7739 86.9652C68.438 86.9279 70.0898 86.8658 71.7539 86.8037C73.0828 86.754 74.6476 86.8658 75.8647 86.1952C78.7211 84.6055 77.1066 80.6562 76.5353 78.2469C75.7777 75.0179 75.0078 71.7889 74.2502 68.5475C73.4926 65.3061 72.7599 62.1517 71.9899 58.9724C71.3317 56.265 70.5617 53.5452 69.2328 51.0613C67.8295 48.4409 65.7431 46.1806 62.9984 44.9387C60.2538 43.6968 57.385 43.5353 54.7397 44.8518C53.3115 45.5597 54.5658 47.7082 55.994 47.0003L55.9692 47.0375Z" fill="black"/>
<path d="M54.4666 46.3554C54.7025 46.2809 54.9509 46.2312 55.1869 46.194L54.8516 46.2436C55.2738 46.1816 55.7085 46.1816 56.1307 46.2436L55.7954 46.194C56.0438 46.2312 56.2798 46.2809 56.5157 46.3554C56.8138 46.4424 57.1988 46.3927 57.472 46.2312C57.7452 46.0698 57.9812 45.7841 58.0433 45.4861C58.1923 44.8154 57.8446 44.1572 57.174 43.9585C56.0811 43.6232 54.8764 43.6232 53.7835 43.9585C53.4855 44.0455 53.1998 44.2566 53.0384 44.5298C52.8769 44.803 52.8148 45.188 52.9142 45.4861C53.0135 45.7841 53.1998 46.0822 53.4855 46.2312C53.7711 46.3803 54.1188 46.4548 54.4417 46.3554H54.4666Z" fill="black"/>
<path d="M69.233 86.3081C69.7174 88.9534 70.5619 91.4496 71.6299 93.921C72.4496 95.8212 73.2817 97.684 73.6791 99.7208C74.1758 102.316 74.2255 105.371 73.3934 107.905C72.4744 110.699 69.9161 111.643 67.2087 111.929C63.396 112.339 59.3598 112.612 55.5595 112.053C54.9013 111.954 54.2307 112.214 54.032 112.922C53.8705 113.506 54.2307 114.351 54.9013 114.45C58.7512 115.021 62.6384 114.81 66.5008 114.487C69.5807 114.226 72.7849 113.543 74.685 110.861C76.5852 108.178 76.6224 104.564 76.3989 101.497C76.2126 98.9756 75.5171 96.6657 74.5236 94.3557C73.2941 91.4993 72.2012 88.7174 71.6423 85.6499C71.3567 84.085 68.9598 84.7433 69.2454 86.3081H69.233Z" fill="black"/>
<path d="M46.9154 85.898C54.7892 87.7609 61.3217 92.8155 67.494 97.7956C68.0156 98.2178 68.7359 98.3048 69.2451 97.7956C69.6798 97.3609 69.7667 96.4667 69.2451 96.0445C62.7375 90.7912 55.8697 85.4633 47.5612 83.5011C46.0088 83.1285 45.3382 85.5254 46.903 85.898H46.9154Z" fill="black"/>
<path d="M55.758 89.141C57.1987 90.5071 58.7386 91.7615 60.2538 93.0531C61.3467 93.9845 62.4644 94.978 63.1971 96.1579C64.0292 97.4991 64.3769 99.0639 64.4763 100.641C64.6129 102.777 64.4763 104.938 63.8802 107C63.5573 108.118 63.1102 109.173 62.4644 110.142C62.1663 110.601 61.8062 111.011 61.4212 111.396C61.2225 111.582 61.0238 111.781 60.8002 111.943C60.7257 112.005 60.6512 112.054 60.5643 112.104C60.4773 112.166 60.3904 112.228 60.291 112.278C60.0923 112.365 60.1917 112.39 60.5643 112.34C59.2354 111.433 57.9935 113.594 59.3099 114.489C60.5518 115.333 61.9179 114.265 62.8494 113.458C63.7808 112.651 64.5384 111.632 65.1097 110.552C66.3143 108.291 66.8483 105.721 66.9725 103.187C67.0843 100.989 66.9725 98.6293 66.1529 96.5677C65.4947 94.8787 64.4018 93.4877 63.0853 92.2582C61.2846 90.5816 59.3099 89.1038 57.5091 87.4023C56.3417 86.3094 54.5906 88.0606 55.758 89.1534V89.141Z" fill="black"/>
<path d="M47.7974 99.7826C50.9519 99.4472 52.2932 102.912 52.6036 105.458C53.0507 109.035 53.088 112.698 53.1873 116.3C53.386 123.727 53.237 131.153 52.7154 138.555C52.4174 142.716 52.0199 146.864 51.4983 150.999C51.4114 151.67 52.1317 152.241 52.7403 152.241C53.4854 152.241 53.8952 151.67 53.9822 150.999C54.9633 143.125 55.547 135.214 55.7084 127.279C55.7954 123.367 55.7705 119.442 55.6463 115.53C55.5842 113.543 55.4973 111.568 55.3855 109.581C55.2862 107.781 55.2117 105.967 54.9012 104.179C54.3051 100.726 51.7716 96.8516 47.785 97.2739C47.1144 97.3484 46.5431 97.7955 46.5431 98.5158C46.5431 99.1368 47.1144 99.8322 47.785 99.7577L47.7974 99.7826Z" fill="black"/>
<path d="M47.574 96.9389C42.6436 99.2489 40.5696 104.713 38.9675 109.532C36.9308 115.679 34.5836 121.641 31.5409 127.366C29.7649 130.707 27.8027 133.948 25.6666 137.078C24.76 138.406 26.9209 139.648 27.8151 138.332C31.4912 132.917 34.6705 127.167 37.2785 121.169C38.5825 118.151 39.7623 115.083 40.7807 111.966C41.5631 109.582 42.3083 107.172 43.4136 104.912C44.6307 102.453 46.27 100.267 48.8159 99.075C49.4245 98.7894 49.5735 97.92 49.263 97.3736C48.9029 96.7526 48.1701 96.6409 47.5616 96.9265L47.574 96.9389Z" fill="black"/>
<path d="M37.8994 82.978C35.3535 85.2507 33.9129 88.3679 32.6958 91.4975C31.28 95.1239 29.9511 98.7751 28.5726 102.414C25.7162 110.002 22.8474 117.59 19.991 125.178C17.8921 130.73 15.8926 136.753 11.7943 141.211C9.80725 143.385 7.49729 144.751 4.70298 145.645C3.07607 146.154 1.46158 146.85 0.554977 148.39C-0.264688 149.781 -0.202592 151.494 0.915133 152.699C1.56093 153.395 2.44269 153.854 3.24994 154.326C4.18137 154.86 5.11281 155.382 6.05667 155.891C7.99406 156.922 9.9687 157.878 11.9806 158.747C13.8186 159.555 15.8305 160.498 17.3954 158.673C18.836 156.996 20.0655 155.084 21.3695 153.308L19.221 152.053C18.215 154.239 17.2091 156.425 16.2031 158.611C15.9796 159.107 15.9672 159.716 16.4018 160.113C18.3392 161.939 21.0218 160.834 22.4003 158.934C23.1082 157.965 23.6049 156.835 24.1266 155.767C24.7351 154.525 25.3188 153.27 25.8528 151.991C27.9641 146.986 29.2929 141.634 28.287 136.206C28.1007 135.225 26.8463 135.089 26.213 135.66C25.0207 136.728 23.133 136.976 21.7297 136.169C20.4132 135.412 19.5936 133.772 19.8419 132.27C19.9413 131.611 19.6681 130.928 18.9726 130.742C18.3765 130.581 17.5568 130.941 17.445 131.611C17.0352 134.232 18.1281 136.964 20.4753 138.318C22.8225 139.671 25.9397 139.237 27.9641 137.424L25.8901 136.877C26.6973 141.249 25.6789 145.657 24.1017 149.743C23.3069 151.817 22.3506 153.817 21.3447 155.792C20.9348 156.599 20.525 157.543 19.8171 158.139C19.3824 158.499 18.6249 158.822 18.1529 158.362L18.3516 159.865C19.3576 157.679 20.3635 155.493 21.3695 153.308C22.0401 151.842 20.1773 150.762 19.221 152.053C18.0784 153.606 16.9731 155.208 15.7809 156.735C15.3586 157.269 15.1848 157.394 14.5141 157.145C13.6696 156.835 12.8499 156.45 12.0303 156.077C10.391 155.332 8.77646 154.537 7.17439 153.68C6.44166 153.295 5.72135 152.885 5.00104 152.476C4.28073 152.066 3.4238 151.693 2.82768 151.109C1.84657 150.166 3.08849 148.998 3.95783 148.564C5.33636 147.868 6.90117 147.607 8.30454 146.937C10.6766 145.807 12.7382 144.031 14.3899 141.994C18.0287 137.523 20.0406 132.046 22.0525 126.706C24.7351 119.602 27.4052 112.486 30.0877 105.382C31.5656 101.445 33.0559 97.5084 34.5338 93.5715C35.7385 90.3798 37.0301 87.0763 39.6381 84.7539C40.8303 83.6858 39.0792 81.9347 37.887 83.0028L37.8994 82.978Z" fill="black"/>
<path d="M37.5765 113.356C38.508 120.683 39.4394 128.023 40.3709 135.351C40.8304 138.964 41.3395 142.578 41.6252 146.205C41.9108 149.831 41.8487 153.52 41.65 157.183C41.4886 160.263 41.0415 163.405 41.3271 166.498C41.5755 169.118 42.3952 171.739 44.6182 173.341C47.2511 175.228 50.6788 174.757 53.6842 174.347C54.5411 174.235 55.3856 174.111 56.2425 173.974C57.0995 173.838 57.9688 173.713 58.6891 173.204C59.8441 172.409 60.2415 171.068 60.0676 169.727C59.8565 168.125 59.0369 166.771 58.2917 165.368C57.4348 163.766 56.7021 162.089 56.1184 160.363C54.9137 156.861 54.2555 153.197 54.1685 149.484C54.1313 147.894 51.6475 147.881 51.6847 149.484C51.8337 155.681 53.4731 161.791 56.4785 167.218C57.0001 168.15 57.6832 169.267 57.6459 170.385C57.5962 171.639 55.7582 171.552 54.8392 171.689C52.2436 172.086 48.8035 172.931 46.3817 171.503C44.3947 170.335 43.8855 167.851 43.7737 165.715C43.6247 162.772 44.0097 159.804 44.1587 156.873C44.3326 153.47 44.3947 150.055 44.1587 146.652C43.9227 143.249 43.4384 139.821 43.0161 136.419C42.035 128.731 41.0539 121.044 40.0852 113.356C39.9983 112.686 39.576 112.114 38.8433 112.114C38.2348 112.114 37.5144 112.686 37.6014 113.356H37.5765Z" fill="black"/>
<path d="M42.7183 154.279C44.5315 155.483 46.7545 155.844 48.8782 155.496C49.8841 155.334 50.9025 154.949 51.7594 154.403C52.7778 153.757 53.8707 152.602 53.3739 151.286C53.1379 150.652 52.5294 150.23 51.8463 150.416C51.2378 150.578 50.741 151.311 50.977 151.944C51.0267 152.068 50.977 152.068 51.0018 151.969C51.0018 151.919 51.0018 151.882 51.0018 151.845C51.0267 151.795 51.0018 151.795 50.977 151.869C50.977 151.869 50.8156 152.043 50.8031 152.056C50.6044 152.23 50.1698 152.466 49.8593 152.615C49.8344 152.615 49.6357 152.714 49.7103 152.689C49.7848 152.664 49.4867 152.776 49.4867 152.776C49.3253 152.838 49.1514 152.888 48.9775 152.937C48.7912 152.987 48.5925 153.037 48.3938 153.074C48.3069 153.087 48.22 153.111 48.133 153.124C47.8971 153.161 48.4187 153.111 47.9964 153.136C47.6238 153.161 47.2513 153.173 46.8663 153.161C46.4316 153.136 46.3943 153.124 45.9472 153.024C45.7485 152.975 45.5623 152.925 45.376 152.863C45.289 152.838 45.2145 152.813 45.1276 152.776C45.0779 152.764 44.8544 152.664 44.991 152.726C44.6308 152.565 44.2831 152.366 43.9478 152.143C43.3889 151.77 42.5692 152.031 42.2463 152.59C41.8862 153.198 42.1346 153.919 42.6934 154.291L42.7183 154.279Z" fill="black"/>
<mask id="mask0_138_1479" style="mask-type:alpha" maskUnits="userSpaceOnUse" x="-1" y="-8" width="79" height="183">
<path d="M75 93.5L72 87.5L78 86V81.5L75 57L61.5 35.5L68 28V1L32.5 -7.5L11.5 18L13 44.5L20 63L23 79L20 90L14 101L9.5 103L3 106.5V110.5L8.5 112.5L19 111.5L23 107.5L31 96L17.5 130C15.9 138.8 7.83333 144 4 145.5L0.5 148L-0.5 151L1 153L13 159.5L16 160C20 162.4 22.6667 160 23.5 158.5L28.5 146V138L38 120L41.5 146.5L41 156.5L40.5 168.5L43.5 173L46.5 175H53L59.5 173.5L60.5 171V168.5L58 163.5L55.5 157.5L54.5 150L55 146L55.5 135V114.5L63.5 115L70.5 114L74.5 112L76.5 107.5V104L76 98.5L75 93.5Z" fill="#D9D9D9"/>
</mask>
<g mask="url(#mask0_138_1479)">
<rect x="-521" y="55.9404" width="815.042" height="130.031" fill="url(#paint0_linear_138_1479)"/>
</g>
</g>
<defs>
<linearGradient id="paint0_linear_138_1479" x1="-113.479" y1="185.972" x2="-113.479" y2="55.9404" gradientUnits="userSpaceOnUse">
<stop stop-color="#191817"/>
<stop offset="1" stop-color="#191817" stop-opacity="0"/>
</linearGradient>
<clipPath id="clip0_138_1479">
<rect width="77.5083" height="174.717" fill="white"/>
</clipPath>
</defs>
</svg>
