<svg width="102" height="172" viewBox="0 0 102 172" fill="none" xmlns="http://www.w3.org/2000/svg">
<path d="M97.5399 131.131C96.2198 129.455 94.2397 128.557 92.1407 128.557C89.6061 126.973 87.3355 125.006 85.3818 122.749C85.4874 122.709 85.593 122.656 85.6986 122.617C87.2167 122.023 88.7084 120.346 88.0088 118.551C86.4643 114.67 84.4049 111.211 81.6591 108.043C81.4611 107.818 81.2366 107.647 80.999 107.501C78.1608 101.825 75.151 96.241 71.9431 90.7757C71.6131 90.2213 71.217 89.8384 70.7814 89.5744C68.2072 84.3468 65.6462 79.1192 63.072 73.8916C62.2667 72.2546 60.4846 71.9906 59.0325 72.5714C58.8872 71.2513 58.0688 69.9444 56.6827 69.7068C55.7058 69.5352 54.7157 69.3636 53.7388 69.2052C52.2867 62.1162 50.8346 55.0272 49.3825 47.9383C50.531 47.7403 51.5871 47.0406 52.2471 45.7073C52.8808 44.4532 53.2372 43.4763 53.4484 42.341C54.4913 40.9153 55.2041 39.186 55.3362 37.3774C56.0094 28.0443 48.9468 22.0114 41.9371 17.325C41.9107 17.2326 41.9107 17.1402 41.8843 17.0478C41.6203 16.2161 41.2374 15.2788 40.7622 14.302C39.8381 11.4505 39.8381 8.42748 37.8712 5.87968C37.0263 4.78399 36.0362 3.96552 34.9273 3.38468C34.1485 2.19658 32.5247 1.35171 31.1386 1.43092C30.0957 1.49693 29.2509 1.65534 28.5248 1.94576C27.5743 1.76095 26.6239 1.82695 25.4358 2.02497C24.0892 2.24939 23.1916 2.98865 22.6767 3.95232C22.5183 4.03153 22.3599 4.08433 22.2147 4.16354C19.9045 5.44404 18.5844 7.56941 17.6075 9.9192C17.1059 10.8169 16.6835 11.7806 16.3666 12.8102C15.6274 14.1699 14.9277 15.5693 14.2413 16.929C13.3832 17.9851 12.5383 19.3712 11.8651 20.9025C9.19845 21.3117 6.83546 22.5526 6.1226 25.6021C5.91139 26.5261 5.92459 27.3974 6.1094 28.2027C6.18861 29.1399 6.55824 30.0508 7.19189 30.7769C7.2843 31.5557 7.3635 32.3346 7.45591 33.1267C7.3899 33.9583 7.27109 34.724 7.09948 35.4501C6.87506 35.6481 6.66385 35.8725 6.46583 36.1233C6.083 36.6118 5.75297 37.1002 5.44935 37.5886C4.53847 38.5259 3.95763 39.7008 3.68041 41.1661C3.654 41.3245 3.6408 41.4829 3.6144 41.6414C3.5484 41.8658 3.46919 42.0638 3.40318 42.2882C2.54512 45.166 5.31734 47.6874 7.98395 47.2122C7.69353 52.585 7.98395 57.8787 8.88162 63.0931C8.90803 66.3405 8.98723 69.5748 9.09284 72.8223C7.87834 78.5647 7.21829 84.36 7.13908 90.1949C6.46583 92.043 6.1094 94.0232 6.17541 95.9373C6.0566 96.8218 6.1358 97.6799 6.33382 98.5115C6.32062 99.0924 6.37342 99.6864 6.51863 100.28C6.94107 101.891 7.69353 103.106 8.67041 103.99C9.64729 104.954 10.9542 105.561 12.3799 105.746C12.4459 105.746 12.5119 105.772 12.5647 105.785C12.5779 105.785 12.5911 105.785 12.6175 105.785C13.9508 106.023 15.3897 106.023 16.8947 105.865C21.1454 106.775 25.0397 106.353 28.6568 104.663C28.9868 104.637 29.3169 104.624 29.6469 104.597C30.2277 104.98 30.9538 105.165 31.8119 105.072C33.5412 104.874 35.2573 104.676 36.9867 104.478C39.2705 104.478 41.4486 104.954 43.4684 105.838C44.3793 111.33 45.2902 116.808 46.201 122.3C46.7687 129.349 47.6135 136.385 48.7092 143.395C48.7356 143.54 48.7884 143.672 48.828 143.818C48.4848 144.161 48.2736 144.623 48.3 145.138C48.4452 147.355 48.696 149.547 49.0393 151.738C49.1977 152.741 49.3825 153.745 49.5937 154.748C49.8181 155.831 49.9633 157.045 50.9402 157.732C52.1019 158.563 53.3692 158.062 54.5969 157.692C54.9929 157.573 55.3758 157.454 55.7718 157.335C55.7586 157.362 55.7322 157.375 55.7058 157.401C53.9764 160.002 54.9665 163.619 57.2239 165.586C57.3163 165.665 57.4219 165.718 57.5143 165.797C57.9368 166.457 58.5308 167.012 59.2041 167.408C61.237 168.609 63.8244 168.53 66.095 168.504C68.9465 168.464 71.7715 168.187 74.5833 167.751C76.1938 167.5 76.5767 164.794 75.0585 164.134C74.1873 163.751 73.6724 163.17 72.9332 162.378C72.1147 161.494 71.2302 160.675 70.1081 160.213C69.6461 160.015 68.9861 159.989 68.5636 159.738C68.1148 159.474 67.7716 158.801 67.4679 158.392C67.3755 158.26 67.2831 158.141 67.1775 158.009C67.0587 157.613 66.9267 157.217 66.8079 156.807C67.93 156.266 68.788 155.131 68.7088 153.85C68.2996 146.55 67.4943 139.263 66.293 132.055C66.0818 130.115 65.8706 128.188 65.6462 126.247C66.029 127.343 66.3722 128.452 66.6627 129.6C67.2963 132.108 70.3986 132.676 72.1807 131.052C72.2335 131.013 72.2863 130.96 72.3259 130.92C72.5899 132.359 73.2368 133.719 74.2929 134.867C74.3853 134.96 74.4909 135.026 74.5833 135.092C74.6229 135.158 74.6493 135.237 74.6889 135.303C75.613 136.887 77.1839 137.098 78.8473 136.821C80.0882 136.61 81.329 136.478 82.5567 136.372C84.9593 137.323 87.5996 136.399 90.1738 136.306C91.8239 136.24 93.408 136.966 95.0714 136.834C96.6951 136.702 98.1472 135.976 99.0053 134.55C99.4541 133.798 99.3089 132.768 98.7016 132.148C98.332 131.778 97.936 131.461 97.5399 131.145V131.131ZM54.2273 150.682C54.2273 150.682 54.2273 150.55 54.2273 150.484C54.2669 150.511 54.3065 150.537 54.3593 150.563C54.3197 150.603 54.2801 150.643 54.2405 150.682H54.2273ZM59.4813 147.039C59.4021 146.603 59.3361 146.167 59.2569 145.732C59.2833 145.732 59.2965 145.719 59.3229 145.705C59.3757 146.154 59.4417 146.59 59.5077 147.039C59.5077 147.039 59.4945 147.039 59.4813 147.039ZM15.7858 33.3907C15.7858 33.2719 15.8122 33.1399 15.8254 33.0211C15.865 33.0211 15.8914 33.0211 15.931 33.0343C15.8782 33.1531 15.8386 33.2719 15.799 33.3907H15.7858ZM90.1342 132.346C90.1342 132.346 90.187 132.267 90.2134 132.214C90.2794 132.253 90.3454 132.306 90.4246 132.333C90.3322 132.333 90.2398 132.333 90.1474 132.333L90.1342 132.346ZM69.3557 164.398C69.0653 164.424 68.7748 164.424 68.4844 164.451C68.4448 164.358 68.4052 164.266 68.3524 164.174C68.4052 164.068 68.458 163.962 68.4844 163.844C68.8144 163.976 69.0917 164.16 69.3557 164.398Z" fill="#FFB102"/>
<path d="M19.7328 20.493C20.9077 25.1794 21.6734 30.7238 26.3069 33.3376C28.2079 34.4069 30.5973 34.8821 32.6699 34.0373C35.1781 33.034 36.3662 30.5654 37.2374 28.1628C38.3331 25.1266 38.8215 21.8527 38.7291 18.6316C38.6763 16.9419 36.0361 16.9287 36.0889 18.6316C36.1813 21.6943 35.7061 24.7173 34.6368 27.6084C33.8183 29.8261 32.5378 32.1231 29.8316 31.8063C24.1816 31.1462 23.3631 24.1365 22.2806 19.7933C21.8714 18.1432 19.3236 18.8428 19.7328 20.493Z" fill="black"/>
<path d="M22.2803 12.0711C22.0559 13.3384 21.7259 14.5925 21.277 15.807C21.1714 16.1106 21.0526 16.401 20.9338 16.6914C21.0262 16.467 20.8282 16.9159 20.815 16.9555C20.749 17.0875 20.6962 17.2195 20.6302 17.3647C20.4982 17.6551 20.353 17.9323 20.2077 18.2096C20.1681 18.2888 20.0493 18.6188 19.9701 18.6584C20.0361 18.5528 20.1153 18.4736 20.221 18.4076C20.353 18.3416 20.485 18.302 20.617 18.302L21.277 18.4868L21.4618 18.632L21.8051 19.2128L21.7787 19.1468C21.5543 18.5 20.8546 17.9983 20.1549 18.2228C19.5081 18.434 18.9933 19.1468 19.2309 19.8465C19.4949 20.6122 20.2077 21.1006 21.0262 20.9026C21.5411 20.7706 21.9635 20.4405 22.2539 19.9917C22.716 19.2788 23.046 18.4472 23.376 17.6683C24.0361 16.0974 24.5377 14.4605 24.8413 12.7707C24.9601 12.0975 24.6565 11.3186 23.9172 11.147C23.2704 11.0018 22.4255 11.345 22.2935 12.0711H22.2803Z" fill="black"/>
<path d="M28.2343 1.41783C24.1948 -0.337909 20.0364 1.94587 17.7526 5.36495C15.3368 8.98204 14.8616 13.5232 12.3666 17.0875C11.1785 18.7904 9.39637 19.7805 7.82544 21.061C6.17531 22.4075 5.00041 24.1897 4.64398 26.315C4.48557 27.3051 4.47237 28.282 4.64398 29.2721C4.8288 30.3546 5.31724 31.239 5.73967 32.2291C6.1225 33.1136 5.88488 33.6548 5.30404 34.3809C4.59118 35.2786 3.85192 36.1102 3.31068 37.1399C2.22819 39.1993 1.71335 41.6283 2.16218 43.9385C2.54502 45.9318 3.85192 47.846 5.92449 48.3212C7.57462 48.6908 8.28748 46.1562 6.62414 45.7734C5.34364 45.483 4.8024 44.1365 4.65719 42.9484C4.44597 41.153 5.05322 39.2521 6.00369 37.7472C6.95417 36.2422 8.5911 35.0409 8.6043 33.074C8.6043 32.0575 8.14227 31.173 7.71983 30.2886C7.3634 29.5493 7.16539 28.744 7.15219 27.9124C7.12578 26.1698 7.82544 24.6121 9.09274 23.4372C10.4657 22.1699 12.1422 21.2986 13.4359 19.9389C16.1685 17.0347 17.0266 13.1008 18.5315 9.52328C19.2972 7.71474 20.3004 5.84019 21.9242 4.65209C23.2971 3.64881 25.2508 2.96236 26.9142 3.68841C27.561 3.97884 28.3267 3.88643 28.7227 3.21318C29.0527 2.65873 28.9075 1.69505 28.2475 1.40463L28.2343 1.41783Z" fill="black"/>
<path d="M25.1981 12.203C25.1981 11.3053 26.373 10.6981 27.2706 10.8433C28.6832 11.0809 29.6204 12.5198 30.1485 13.7211C30.8085 15.226 31.1914 16.863 32.3927 18.0775C33.7524 19.4372 35.6797 19.7804 37.5147 19.952C38.2275 20.018 38.8348 19.3052 38.8348 18.6319C38.8348 17.8662 38.2275 17.3778 37.5147 17.3118C36.6434 17.2326 35.7061 17.127 34.9273 16.7045C34.1484 16.2821 33.6996 15.5561 33.3563 14.7508C32.6303 13.0347 32.1154 11.3317 30.7821 9.95881C29.4488 8.5859 27.6403 7.87304 25.7921 8.34828C23.944 8.82352 22.5579 10.3152 22.5579 12.2162C22.5579 13.9191 25.1849 13.9191 25.1981 12.2162V12.203Z" fill="black"/>
<path d="M29.0529 3.33211C30.307 2.24963 32.208 2.52685 33.5281 3.30571C35.2046 4.30899 36.3399 6.02513 37.264 7.70167C38.3201 9.60262 39.0197 11.6092 39.5214 13.7213C39.9966 15.7015 40.4982 17.6553 41.8051 19.2658C43.112 20.8763 44.8942 21.7344 46.5047 22.8565C47.9832 23.8862 49.3033 25.1799 50.399 26.6056C52.6036 29.5098 53.9897 33.1269 54.1217 36.7836C54.2405 39.9651 53.1449 44.1762 49.7126 45.2059C48.0889 45.6943 48.7753 48.2421 50.4122 47.7537C54.2801 46.592 56.1943 42.7637 56.6563 39.0014C57.1712 34.8827 55.9171 30.4867 53.8049 26.962C52.7092 25.1271 51.3099 23.4373 49.6994 22.0248C48.0888 20.6123 46.1615 19.7278 44.5774 18.3417C42.8348 16.7972 42.4652 14.6454 41.924 12.4937C41.3299 10.1307 40.419 7.83368 39.1649 5.73471C37.9108 3.63574 36.1551 1.45756 33.7261 0.493885C31.5215 -0.390587 28.9869 -0.100163 27.1652 1.47076C25.8715 2.57965 27.746 4.441 29.0265 3.33211H29.0529Z" fill="black"/>
<path d="M24.6436 32.1104C25.0396 33.0873 25.132 34.0246 24.8416 35.0543L26.1089 34.0906C22.7954 33.787 20.2872 30.9487 17.0398 30.3019C13.4755 29.589 10.4656 31.5692 8.72309 34.579C6.78253 37.9057 6.25449 41.9848 6.05647 45.7735C5.84525 50.0771 6.25449 54.3674 6.69012 58.6446C7.12576 62.9217 7.601 67.2517 7.49539 71.5684C7.38978 75.8852 6.25449 80.3867 5.39642 84.8223C4.53835 89.2578 4.15552 93.6274 4.53835 97.9969C4.82877 101.376 5.89806 105.205 9.23793 106.776C11.2841 107.739 13.5811 107.739 15.7989 107.766C17.7922 107.779 19.7856 107.713 21.7657 107.449C25.66 106.934 29.528 105.614 32.1946 102.591C33.3167 101.324 31.4553 99.449 30.3332 100.73C28.2211 103.119 25.2904 104.228 22.2146 104.743C20.6304 105.007 19.0067 105.099 17.3962 105.126C15.7064 105.152 13.9243 105.218 12.2478 104.954C10.5712 104.69 9.29073 103.99 8.44586 102.578C7.6934 101.31 7.36338 99.8055 7.21816 98.3666C6.79573 94.3402 7.11256 90.1423 7.83861 86.1688C8.59107 81.9972 9.75277 77.9313 10.0564 73.6806C10.3336 69.6807 10.0432 65.6543 9.64716 61.6676C9.25113 57.6809 8.77589 53.681 8.67028 49.6546C8.57787 45.8923 8.74949 41.9584 9.92438 38.3545C10.8485 35.5691 12.9474 32.2424 16.3533 32.8629C17.9902 33.1665 19.4423 34.1302 20.8813 34.9091C22.5314 35.8199 24.2211 36.5724 26.1089 36.744C26.6765 36.7968 27.231 36.2952 27.3762 35.7803C27.7854 34.3414 27.7326 32.8233 27.1782 31.4372C26.9141 30.7771 26.2937 30.3151 25.5544 30.5131C24.934 30.6847 24.3663 31.4768 24.6304 32.1368L24.6436 32.1104Z" fill="black"/>
<path d="M34.597 29.8265C34.4122 31.6218 34.1482 33.4304 34.0426 35.2389C33.9501 36.9418 34.9006 38.1431 36.4979 38.6448C39.2042 39.5029 42.2536 39.0936 44.8146 40.4929C47.3756 41.8922 48.1413 44.5589 48.6693 47.1463C49.3558 50.4729 49.831 53.8656 50.4647 57.2055C51.2171 61.1394 52.062 65.0469 53.0389 68.9148C53.4481 70.5649 55.9959 69.8653 55.5867 68.2152C53.8837 61.4694 52.6825 54.6313 51.4812 47.7799C51.0059 45.0605 50.3195 42.2619 48.4977 40.1101C46.5308 37.7867 43.5605 37.1003 40.6827 36.691C39.9038 36.5854 39.1382 36.4798 38.3593 36.3478C37.8841 36.2686 36.9072 36.1498 36.7224 35.8198C36.5508 35.5161 36.7356 34.7901 36.7752 34.46L36.9204 33.0211L37.2504 29.8133C37.3296 29.1004 36.5904 28.4932 35.9303 28.4932C35.1514 28.4932 34.6894 29.1004 34.6102 29.8133L34.597 29.8265Z" fill="black"/>
<path d="M14.7826 32.5449C17.3964 35.898 18.8749 39.9639 20.0234 44.0034C21.2907 48.439 22.3336 52.9405 23.4557 57.4157C23.9837 59.5279 24.2081 62.2077 26.1751 63.5146C27.0331 64.0822 28.0628 64.3991 29.0133 64.7819C30.109 65.2307 31.2047 65.6796 32.3004 66.1284C34.5973 67.0657 36.8943 68.0029 39.1913 68.927C41.3431 69.7983 43.5213 70.6564 45.8843 70.6432C48.3793 70.63 50.7818 69.7587 53.2768 69.7851C54.993 69.7983 56.8807 70.2999 57.7388 71.8973C58.5441 73.389 60.8279 72.0689 60.0226 70.564C58.0424 66.8809 53.4353 66.9073 49.8578 67.5013C47.508 67.8973 45.3166 68.2406 42.98 67.5409C40.6434 66.8413 38.5049 65.8116 36.2871 64.9139C34.0693 64.0162 31.6931 63.0393 29.3961 62.1153C28.6305 61.7984 27.5348 61.5476 27.0991 60.782C26.5315 59.8051 26.4127 58.4322 26.1355 57.3497C25.0002 52.8481 23.9441 48.3202 22.69 43.845C21.3831 39.1322 19.6537 34.5647 16.6175 30.6703C16.1819 30.1027 15.205 30.2083 14.7562 30.6703C14.2017 31.2248 14.3205 31.9772 14.7562 32.5317L14.7826 32.5449Z" fill="black"/>
<path d="M5.9642 45.6018C8.73643 51.529 11.5086 57.4431 14.2809 63.3704C15.4954 65.9578 16.5383 68.8224 18.228 71.1458C19.9177 73.4692 22.3203 74.6177 25.1453 75.0929C28.6568 75.687 32.2079 76.083 35.7326 76.5187C36.4455 76.6111 37.0527 75.8454 37.0527 75.1986C37.0527 74.4065 36.4455 73.9709 35.7326 73.8784C32.7492 73.5088 29.7657 73.126 26.7955 72.6904C24.2873 72.3207 21.8979 71.7795 20.3534 69.6013C18.8088 67.4231 17.832 64.7565 16.6967 62.3275L12.7495 53.892L8.24799 44.2685C7.94436 43.6216 7.02029 43.4632 6.43944 43.7932C5.77939 44.1761 5.66058 44.9549 5.9642 45.6018Z" fill="black"/>
<path d="M39.7456 38.1163C40.5377 43.0535 41.145 48.0171 41.5674 53.0071C41.7654 55.4096 42.1482 57.9311 41.9238 60.3336C41.7126 62.525 40.3661 64.3072 39.046 65.9837C38.6103 66.5381 38.5047 67.3038 39.046 67.8451C39.508 68.3071 40.4717 68.4127 40.9073 67.8451C42.3594 66.0101 43.8644 64.0959 44.3528 61.7594C44.9073 59.1324 44.4716 56.2941 44.2604 53.6407C43.8116 48.2019 43.1515 42.7894 42.2802 37.4034C42.1614 36.7037 41.2902 36.3077 40.6565 36.4793C39.9041 36.6905 39.6268 37.3902 39.7324 38.1031L39.7456 38.1163Z" fill="black"/>
<path d="M22.0296 35.041C23.5213 39.2125 24.815 43.8989 28.2077 46.9879C29.739 48.3872 31.8644 49.6677 34.0161 49.3905C36.2999 49.0869 37.6464 46.8427 38.4913 44.9153C39.521 42.5788 39.983 40.0178 39.7454 37.4699C39.6794 36.7571 39.191 36.1498 38.4253 36.1498C37.7652 36.1498 37.0392 36.7571 37.1052 37.4699C37.3164 39.7141 36.9864 41.9979 36.0095 44.0441C35.6003 44.9021 35.0062 46.2091 34.0953 46.6579C33.2373 47.0803 32.1416 46.5259 31.4023 46.0902C27.3496 43.7008 26.0559 38.46 24.5774 34.3413C24.3398 33.668 23.6797 33.2192 22.9537 33.4172C22.3068 33.602 21.792 34.3677 22.0296 35.041Z" fill="black"/>
<path d="M10.9274 87.3311C22.4387 80.0573 35.6134 75.3842 49.1577 73.8924C51.085 73.6812 53.0124 73.536 54.9529 73.4436C56.7483 73.3644 58.7416 73.1796 60.4314 73.9452C61.0782 74.2357 61.8571 74.1301 62.2399 73.47C62.57 72.9024 62.4247 71.9651 61.7647 71.6615C58.5172 70.1961 54.6229 70.7506 51.1774 71.0542C47.732 71.3578 44.0093 71.8859 40.4714 72.6119C33.5276 74.0377 26.7555 76.2818 20.3002 79.2389C16.6039 80.9286 13.0132 82.8824 9.5809 85.0605C8.14198 85.9714 9.47529 88.2552 10.9142 87.3443L10.9274 87.3311Z" fill="black"/>
<path d="M60.9598 73.9306C60.6562 73.9702 61.0126 74.1154 61.1578 74.3266C61.3823 74.6303 61.5539 74.9867 61.7387 75.3167C62.1743 76.0824 62.61 76.8348 63.0456 77.6005C63.9169 79.1186 64.7881 80.6367 65.6594 82.1681C67.4283 85.2571 69.1973 88.3462 70.9794 91.4352C74.4645 97.5209 77.9628 103.593 81.4479 109.679C83.4412 113.151 85.4214 116.61 87.4148 120.082L87.89 118.273C81.2235 121.837 75.0982 126.392 69.7385 131.725L71.8111 131.989C66.9135 125.402 65.2502 117.256 63.2964 109.441C62.3327 105.547 61.3295 101.587 59.6925 97.9169C58.0556 94.247 55.1382 91.092 50.861 90.564C45.805 89.9435 41.343 92.7553 37.3563 95.4615C35.957 96.412 37.2771 98.6958 38.6896 97.7453C42.0031 95.5011 45.607 93.0061 49.7917 93.125C53.7256 93.2306 56.0754 96.1216 57.5144 99.4879C58.9533 102.854 59.9037 106.735 60.8146 110.405C61.7255 114.075 62.61 117.943 63.8113 121.626C65.1578 125.771 66.9267 129.811 69.5273 133.309C70.029 133.982 70.9398 134.233 71.5999 133.573C76.8143 128.385 82.7416 124.015 89.2233 120.544C89.857 120.2 90.0418 119.342 89.6985 118.735C82.2531 105.758 74.8209 92.7949 67.3755 79.8183C66.3459 78.0097 65.303 76.2012 64.2733 74.4059C63.336 72.7821 62.3855 71.0924 60.2602 71.396C59.5473 71.4884 59.1645 72.3993 59.3361 73.0197C59.5473 73.7854 60.247 74.0362 60.9598 73.9438V73.9306Z" fill="black"/>
<path d="M27.2707 106.683C29.462 106.327 31.6798 106.063 33.8976 105.918C35.8646 105.786 37.9899 105.574 39.9569 105.838C40.7093 105.944 41.475 106.168 41.9766 106.776C42.4783 107.383 42.6631 108.281 42.7951 109.073C43.1515 111.145 43.2835 113.271 43.5212 115.356C44.5244 124.32 45.5277 133.283 46.531 142.234C47.0987 147.316 47.6663 152.399 48.2339 157.481C48.3132 158.194 48.7884 158.801 49.5541 158.801C50.2009 158.801 50.9534 158.194 50.8742 157.481C49.7917 147.871 48.7224 138.247 47.6399 128.637C47.0987 123.832 46.5574 119.026 46.0294 114.208C45.7918 112.043 45.7125 109.772 45.1977 107.647C44.7357 105.733 43.6004 104.228 41.7126 103.555C39.5212 102.776 36.815 103.119 34.5444 103.238C31.8778 103.383 29.2112 103.7 26.571 104.136C25.8714 104.254 25.4753 105.126 25.6469 105.759C25.8581 106.512 26.571 106.802 27.2707 106.683Z" fill="black"/>
<path d="M49.0921 159.528C52.498 159.198 55.9038 158.842 59.3097 158.472C60.9862 158.287 62.6628 158.102 64.3393 157.904C65.1446 157.812 65.963 157.719 66.7683 157.614C67.5736 157.508 68.5372 157.535 69.2765 157.125C70.7286 156.32 70.3854 154.657 70.1742 153.297C69.9234 151.66 69.6857 150.023 69.4877 148.373C69.0653 145.007 68.7617 141.641 68.5372 138.248C68.2996 134.433 68.1808 130.618 68.194 126.803C68.194 125.1 65.5538 125.1 65.5538 126.803C65.5406 133.047 65.8442 139.278 66.5043 145.482C66.6759 147.04 66.8607 148.598 67.0719 150.142C67.1775 150.895 67.2699 151.647 67.3888 152.399C67.5076 153.152 67.5076 154.063 67.7584 154.789C67.7848 154.868 67.7056 155.066 67.7584 155.079C67.7056 155.079 68.2204 154.881 67.9036 154.802C67.6396 154.749 67.2039 154.894 66.9267 154.934C66.1214 155.026 65.303 155.119 64.4977 155.224C62.9268 155.409 61.3691 155.581 59.7981 155.753C56.2339 156.149 52.6564 156.518 49.0921 156.861C48.3792 156.927 47.772 157.416 47.772 158.182C47.772 158.842 48.3792 159.568 49.0921 159.502V159.528Z" fill="black"/>
<path d="M66.1477 155.883C66.3061 158.642 68.2071 160.636 70.4117 162.088C71.4281 162.761 76.2597 164.965 74.8208 166.602C74.0023 167.54 72.3522 167.381 71.2433 167.381C69.646 167.381 68.0619 167.355 66.4645 167.236C63.7055 167.038 60.4845 166.734 58.0951 165.229C56.9994 164.53 56.0093 163.381 55.8905 162.035C55.8245 161.335 56.0357 160.662 56.1809 159.975C56.3657 159.091 56.4317 158.286 56.2997 157.388C56.1941 156.688 55.2964 156.292 54.676 156.464C53.9235 156.675 53.6463 157.375 53.7519 158.088C53.8575 158.801 53.5671 159.54 53.4219 160.226C53.2635 161.032 53.1843 161.824 53.3163 162.642C53.5407 164.121 54.3592 165.493 55.4417 166.497C57.9103 168.794 61.5009 169.348 64.722 169.718C66.5173 169.929 68.3259 170.008 70.1212 170.021C71.7318 170.035 73.4875 170.153 75.0056 169.546C76.5238 168.939 77.659 167.711 77.7779 166.101C77.8967 164.49 76.7086 163.223 75.5205 162.286C73.3555 160.583 68.9727 159.131 68.7879 155.87C68.6955 154.18 66.0553 154.167 66.1477 155.87V155.883Z" fill="black"/>
<path d="M70.9925 132.676C71.4281 133.165 71.5205 133.891 71.7185 134.498C71.9562 135.277 72.273 136.043 72.8538 136.637C74.0815 137.917 75.9297 138.023 77.593 137.917C81.8306 137.653 86.0549 137.64 90.2924 138.049C93.7247 138.379 98.5431 139.448 100.589 135.699C101.487 134.049 101.157 132.122 100.048 130.67C98.8863 129.138 97.1306 128.373 95.3748 127.752C91.7974 126.485 87.309 124.993 86.3057 120.848C85.9097 119.198 83.3619 119.898 83.7579 121.548C84.5368 124.782 87.1638 127.105 90.0548 128.505C91.6257 129.257 93.2891 129.798 94.926 130.392C96.2725 130.881 97.8698 131.567 98.3715 133.033C98.8203 134.353 97.6718 135.343 96.5101 135.686C94.8204 136.161 92.9326 135.699 91.2429 135.514C87.4278 135.105 83.5863 134.986 79.7448 135.158C78.7811 135.198 77.8174 135.303 76.8537 135.316C76.2201 135.316 75.4148 135.356 74.8868 134.934C74.3588 134.511 74.2399 133.653 74.0419 133.033C73.7911 132.201 73.4479 131.462 72.867 130.802C71.7317 129.521 69.8704 131.396 71.0057 132.663L70.9925 132.676Z" fill="black"/>
<mask id="mask0_138_1442" style="mask-type:alpha" maskUnits="userSpaceOnUse" x="0" y="-10" width="102" height="182">
<path d="M87.5 117L70 86L62 70.5L56.5 66V41L53 27L44 0L19.5 -10L0 31.5L4.5 49L7.5 64L4.5 102L10.5 108.5L41.5 107.5L45.5 143.5L47.5 160.5L54 170L74.5 172L78.5 168L77 162L71 157L68.5 145V132.5L73.5 138H97.5L100.5 136L101.5 132.5L100 129.5L93 127L87.5 122L90 119L87.5 117Z" fill="#D9D9D9"/>
</mask>
<g mask="url(#mask0_138_1442)">
<rect x="-517" y="43.9404" width="815.042" height="130.031" fill="url(#paint0_linear_138_1442)"/>
</g>
<defs>
<linearGradient id="paint0_linear_138_1442" x1="-109.479" y1="173.972" x2="-109.479" y2="43.9404" gradientUnits="userSpaceOnUse">
<stop stop-color="#191817"/>
<stop offset="1" stop-color="#191817" stop-opacity="0"/>
</linearGradient>
</defs>
</svg>
