<svg width="90" height="177" viewBox="0 0 90 177" fill="none" xmlns="http://www.w3.org/2000/svg">
<g clip-path="url(#clip0_138_1472)">
<path d="M85.5936 101.66C85.0867 101.102 84.4438 100.804 83.7762 100.68C82.849 100.072 81.7858 99.5511 80.5618 99.179C80.1786 99.0673 79.82 99.0177 79.4615 99.0301C78.6826 98.0626 77.8667 97.1323 76.9394 96.2267C76.0988 95.3956 75.1468 95.0855 74.2567 95.1351C72.328 93.8451 70.3499 92.6171 68.31 91.4758C67.1973 90.8432 66.0105 90.9177 65.0091 91.4014C63.3401 90.0121 61.7823 88.4616 60.2988 86.7746C60.0886 86.5389 59.866 86.3404 59.6435 86.1792C60.4348 84.5294 61.226 82.892 62.0049 81.2422C62.487 80.2499 62.487 79.2823 62.215 78.4388C62.6848 76.7766 62.895 75.0028 62.9568 73.167C63.0681 69.6069 62.9815 66.0344 62.8455 62.4496C63.5008 59.8322 63.7728 57.1901 63.6739 54.5976C63.6739 54.5604 63.6986 54.5232 63.711 54.4736C64.4033 51.5089 64.0324 48.842 63.0434 46.3115C62.5488 44.3888 61.7576 42.5901 60.5213 41.4613C60.1751 40.9404 59.7919 40.4442 59.3468 39.948C59.0995 39.6627 58.8152 39.4642 58.5308 39.2906C57.8261 38.6455 56.8865 38.2486 55.9346 38.199C55.7986 37.9757 55.6626 37.7524 55.5142 37.5292C55.0692 36.6484 54.6488 35.7553 54.2532 34.8498C53.4991 32.3937 52.7449 29.9377 51.9908 27.4816C52.782 20.9197 52.2999 14.581 50.3341 8.13075C50.0498 7.20042 49.5552 6.54299 48.9495 6.10883C48.8506 5.86074 48.7887 5.60025 48.6775 5.35216C48.047 3.77681 46.7241 3.02014 45.3765 2.89609C44.2762 1.92855 42.8792 1.81691 41.6923 2.28828C41.2596 2.11462 40.8146 1.96577 40.3571 1.82932C39.5041 1.56882 38.7376 1.63085 38.0823 1.87893C37.6496 1.7797 37.254 1.70527 37.0685 1.69287C35.5603 1.61844 34.5341 2.30068 33.9901 3.28063C32.284 3.95047 31.2703 5.20331 30.751 6.72905C29.7991 7.29965 29.0696 8.31681 28.9213 9.79294C28.4268 14.8539 28.5751 19.9397 28.7111 25.0131C28.5504 25.2612 28.402 25.5341 28.2908 25.8442C26.6959 30.0493 25.1876 34.2668 23.7041 38.5091C22.8139 38.7572 21.998 39.2286 21.4664 39.9604C20.2671 41.5978 19.8839 43.0863 20.0446 44.6617C19.6243 46.7828 19.5624 48.5691 19.8839 50.5414C19.2657 59.15 19.4141 67.7338 20.3166 76.3425C19.2781 80.8081 18.7465 85.2364 18.7218 89.764C18.1654 89.9005 17.6462 90.3098 17.3742 91.0169C15.9153 94.7754 15.1117 98.7572 14.9387 102.789C14.9263 103.111 15.0252 103.384 15.1735 103.632C14.5307 103.917 13.8631 104.141 13.1584 104.228C12.7628 104.277 12.1322 104.29 11.7366 104.24C11.4523 104.203 11.1803 104.141 10.9207 104.091C10.6363 103.893 10.3025 103.756 9.89452 103.744C9.46181 103.719 9.00438 103.806 8.54694 103.905C8.13896 103.694 7.68153 103.607 7.23646 103.769C6.02488 104.19 4.80093 104.625 3.58935 105.046C1.33927 105.828 2.22941 109.152 4.5784 108.631C5.53035 108.42 6.46995 108.222 7.4219 108.011C7.96588 107.887 8.63349 107.639 9.25164 107.527C9.51126 107.639 9.78325 107.688 10.0676 107.664C16.5953 109.301 23.9884 103.483 23.3455 96.5865C23.3208 96.3756 23.259 96.1895 23.1848 96.0035C24.2975 95.8546 25.3113 95.2592 25.8305 94.2048C25.8923 94.8374 25.9541 95.4825 26.0407 96.1151C26.0407 96.2019 26.0407 96.2764 26.0407 96.3632C25.9418 96.9214 25.9418 97.5292 26.0654 98.1866C26.0654 98.2487 26.0901 98.2983 26.1025 98.3603C26.3127 102.801 27.1781 107.304 30.1205 109.946C32.0739 113.68 34.6083 117.103 37.6496 120.118C38.5398 121.494 39.4423 122.884 40.3324 124.261C40.3571 124.434 40.3818 124.608 40.4313 124.782C40.7898 126.01 41.3462 126.779 42.0138 127.573C42.1745 128.118 42.4465 128.602 42.7803 129.024C42.7803 129.185 42.7803 129.334 42.805 129.495C42.6196 130.128 42.6567 130.81 43.0275 131.393C43.5715 132.249 44.7831 132.944 45.8216 132.534C48.3931 131.505 50.8039 130.215 53.054 128.652C52.6707 130.091 52.3617 131.542 52.1391 133.006C52.0279 133.527 51.9042 134.035 51.793 134.556C51.6817 134.656 51.5581 134.755 51.4592 134.879C47.095 139.617 42.7185 144.368 38.3543 149.107C35.0905 152.121 32.0615 155.383 29.2798 158.956C28.9213 159.415 28.6864 159.911 28.5504 160.407C26.5352 162.032 25.472 164.873 25.8923 167.54C25.8552 167.738 25.8305 167.949 25.8058 168.16C25.7934 168.185 25.7687 168.209 25.7563 168.247C24.9651 169.561 25.1505 171 25.8923 172.092C25.9541 172.625 26.0283 173.159 26.1149 173.68C26.4363 175.664 28.9089 176.768 30.6768 176.285C34.9174 175.119 37.9463 172.117 38.8983 168.147C39.0466 167.974 39.195 167.8 39.3433 167.614C39.739 167.862 40.1717 168.036 40.6538 168.123C40.7404 168.768 40.8269 169.413 40.9135 170.058C40.3818 172.849 42.5825 175.33 45.4754 174.635C46.4645 174.399 47.4535 174.164 48.4302 173.928C49.2462 174.263 50.0127 174.399 51.0388 174.312C53.4496 174.126 55.2423 172.092 54.6117 169.599C53.7958 166.361 53.3631 163.235 53.326 160.109C53.6474 158.844 54.006 157.579 54.3768 156.326C56.5775 152.518 58.1847 148.536 59.2108 144.269C59.8166 144.132 60.41 143.835 60.9664 143.301C65.7138 138.737 70.2263 133.973 74.541 129.024C76.9518 126.481 79.3626 123.951 81.7858 121.408C82.1937 120.986 82.4657 120.539 82.6388 120.105C83.9617 118.865 85.2845 117.624 86.6074 116.384C87.7571 115.305 87.9673 114.027 87.5964 112.911C89.08 109.264 88.944 105.369 85.5689 101.697L85.5936 101.66Z" fill="#FFB102"/>
<path d="M31.7032 20.82C32.4326 25.1739 34.0645 30.5698 39.0098 31.6738C43.3492 32.6414 47.3548 29.3542 49.0362 25.5833C50.9772 21.1921 50.3591 16.3916 48.6035 12.0377C48.1214 10.8469 47.5897 9.69325 47.0087 8.55205C46.4771 7.49767 45.9578 6.36887 45.2284 5.43854C44.5608 4.58264 43.6088 3.92521 42.4838 4.04925C41.1857 4.1857 40.4439 5.28969 39.6897 6.22002C37.7611 8.58926 35.783 10.9337 33.9038 13.3401C33.0631 14.4193 32.3584 15.5481 32.0741 16.9126C31.7897 18.2771 31.8516 19.7532 31.4559 21.1301C31.0109 22.6682 33.3969 23.3257 33.842 21.7875C34.3983 19.8649 34.0275 17.6817 35.0907 15.9203C35.6099 15.0644 36.2899 14.3077 36.9081 13.5386C37.6746 12.5959 38.4411 11.6407 39.2199 10.698C39.9246 9.8297 40.6293 8.96139 41.334 8.09308C41.6802 7.65893 42.014 7.19997 42.3973 6.80303C42.6692 6.51773 42.6816 6.40609 42.9536 6.61696C43.5841 7.10073 43.9303 8.00625 44.2888 8.68849C44.8204 9.68085 45.3273 10.6856 45.7847 11.7152C47.3549 15.2132 48.4304 19.195 47.3672 22.9908C46.5265 25.9802 44.2517 29.0441 40.9384 29.3666C38.9603 29.5527 37.2048 28.2874 36.1539 26.6873C34.8929 24.7522 34.4725 22.4078 34.1016 20.175C33.9904 19.5175 33.1744 19.1454 32.581 19.3067C31.8763 19.5051 31.6043 20.175 31.7156 20.8324L31.7032 20.82Z" fill="black"/>
<path d="M42.3235 0.464916C39.6037 -0.266943 36.6983 -0.167708 34.1021 0.998304C31.5058 2.16432 29.7132 4.43432 28.6871 7.05165C27.562 9.94187 27.4755 13.0926 27.5867 16.1441C27.698 19.4684 27.8958 22.768 27.3271 26.0676C26.7213 29.5656 25.5097 32.9272 23.7418 36.0035C22.9506 37.3928 25.0894 38.6456 25.8806 37.2563C28.8972 31.9845 30.3437 26.018 30.2077 19.9398C30.0965 14.8168 28.9961 7.7587 33.6323 4.12421C35.8824 2.36279 38.9731 2.1271 41.6559 2.84656C43.1889 3.26831 43.8566 0.874261 42.3112 0.452511L42.3235 0.464916Z" fill="black"/>
<path d="M42.2368 2.82232C44.388 3.62861 46.6751 4.52173 48.1587 6.38238C49.6423 8.24304 50.211 10.7859 50.6684 13.0932C51.2124 15.8966 51.4349 18.7248 51.4349 21.5778C51.4349 24.4308 51.3607 27.1349 51.8553 29.8887C52.3745 32.7913 53.4748 35.5947 55.0079 38.1128C55.8362 39.4773 57.975 38.2245 57.1467 36.86C55.7373 34.5528 54.7606 32.0223 54.2661 29.3553C53.7468 26.5519 53.9446 23.6741 53.9075 20.8335C53.8704 17.9929 53.5614 14.9042 52.9679 12.0016C52.4611 9.5331 51.744 7.02741 50.1986 5.0055C48.3812 2.61145 45.6243 1.47024 42.892 0.44068C42.2615 0.204997 41.5321 0.701172 41.3714 1.30899C41.1859 2.00363 41.6063 2.59904 42.2368 2.83473V2.82232Z" fill="black"/>
<path d="M36.463 29.4047C35.919 32.146 35.3627 34.937 35.4369 37.7404C35.511 40.5438 36.3146 42.851 37.2048 45.3443C37.8971 47.3042 38.9232 49.7975 38.268 51.8938C38.0084 52.7249 37.4149 53.2459 36.5248 52.8614C35.511 52.4272 35.0165 51.224 34.6333 50.2564C33.5206 47.391 32.8406 44.3768 32.6304 41.3129C32.5192 39.7251 30.0466 39.7127 30.1578 41.3129C30.3804 44.4512 30.9985 47.5647 32.0988 50.5169C32.5933 51.8318 33.1373 53.2335 34.1758 54.2258C35.2143 55.2182 36.6979 55.7516 38.0825 55.3422C40.7777 54.5359 41.1115 51.348 40.7653 48.9912C40.345 46.0886 38.9603 43.4712 38.2804 40.643C37.4397 37.1326 38.1567 33.5229 38.8491 30.0621C39.1581 28.4991 36.7721 27.8417 36.463 29.4047Z" fill="black"/>
<path d="M44.425 28.7841V40.469C44.4374 42.2925 44.2766 44.2276 45.0061 45.9518C45.686 47.5271 46.8111 48.9288 47.8867 50.2561C48.9622 51.5834 50.1244 52.8362 51.3978 53.965C52.6712 55.0938 54.13 56.1234 55.8237 56.3219C59.7799 56.7684 59.2978 51.1492 59.2112 48.6808C59.0505 44.5129 58.2964 40.3574 56.9982 36.388C56.5037 34.8747 54.1176 35.5197 54.6122 37.0454C55.6012 40.0721 56.2812 43.1856 56.5779 46.3611C56.7263 47.9489 56.7881 49.5491 56.751 51.1492C56.751 51.695 56.9364 53.8534 56.0834 53.8782C55.5147 53.903 54.7853 53.4192 54.3278 53.1215C53.722 52.737 53.1904 52.2656 52.6588 51.7694C51.5709 50.7523 50.5571 49.6483 49.6175 48.4947C48.7521 47.4279 47.7383 46.2247 47.2191 44.9346C46.638 43.4833 46.8852 41.6847 46.8852 40.1589V28.7841C46.8729 27.1839 44.4003 27.1839 44.4003 28.7841H44.425Z" fill="black"/>
<path d="M55.6875 38.3233C60.472 39.7746 62.7963 45.0341 63.1672 49.6733C63.4268 52.8985 63.0559 56.1236 62.685 59.3239C62.3141 62.5243 62.0545 65.8859 61.9185 69.1854C61.7702 72.9564 61.7454 76.7397 61.7207 80.523C61.7207 82.1232 64.181 82.1232 64.1933 80.523C64.2428 73.4897 64.354 66.4689 65.1453 59.4728C65.8376 53.3698 66.4805 46.8079 63.0806 41.3376C61.5105 38.8071 59.211 36.7976 56.3428 35.9293C54.8221 35.4703 54.1669 37.8643 55.6875 38.3233Z" fill="black"/>
<path d="M56.2563 55.082L55.1807 67.8089C55.02 69.7688 54.8963 71.7411 54.4142 73.6514C53.9815 75.4004 53.2026 76.951 52.1394 78.4023C50.0129 81.3173 47.0829 83.6245 44.5113 86.1426C41.7915 88.822 39.1705 91.7122 37.316 95.0738C35.4616 98.4354 34.4107 101.995 34.6332 105.704C34.7322 107.342 34.9794 109.165 36.0303 110.48C37.2419 111.993 39.1087 111.993 40.7653 111.274C43.7943 109.947 45.5498 106.87 46.5883 103.868C47.7134 100.619 48.0843 96.9841 50.1736 94.1435C52.0281 91.6254 54.8716 90.0376 57.3689 88.2762C60.027 86.4031 62.4502 84.3068 63.6865 81.2181C63.9337 80.5979 63.4145 79.8536 62.8211 79.6923C62.1164 79.4939 61.5477 79.928 61.3004 80.5606C60.3608 82.9175 58.2962 84.6045 56.281 86.0186C54.0804 87.5691 51.7561 88.9708 49.8027 90.8439C47.3919 93.1635 46.1927 96.1034 45.3273 99.2789C44.5361 102.157 43.8685 105.32 41.7544 107.565C41.0497 108.309 39.3683 109.773 38.2556 109.215C37.143 108.657 37.1182 106.337 37.0811 105.32C36.9699 101.896 38.1196 98.5594 39.8381 95.6444C41.6926 92.5061 44.227 89.8515 46.8356 87.3335C49.2959 84.9518 51.9415 82.719 54.0309 79.9776C55.193 78.4395 56.1079 76.7277 56.6395 74.867C57.2082 72.8823 57.3813 70.786 57.5544 68.7393C57.9376 64.1993 58.3209 59.6468 58.7165 55.1068C58.8525 53.5191 56.3799 53.5191 56.2439 55.1068L56.2563 55.082Z" fill="black"/>
<path d="M24.6937 37.2188C28.7859 37.7026 30.1335 42.7015 29.9604 46.1252C29.8244 48.7053 29.1197 51.2234 28.6004 53.7415C28.0812 56.2595 27.735 58.604 27.4507 61.0476C26.3998 69.8796 26.7089 78.8479 25.2006 87.6178C24.3228 92.7657 22.7651 97.7522 20.3666 102.391C19.6372 103.806 21.776 105.058 22.5055 103.644C24.7803 99.2283 26.3875 94.5147 27.3394 89.6398C28.2296 85.0749 28.6004 80.4233 28.8601 75.7965C29.1197 71.1696 29.3299 66.1334 29.8986 61.3205C30.1953 58.8148 30.5909 56.3092 31.1101 53.8407C31.6789 51.1489 32.3835 48.4572 32.4577 45.691C32.6061 40.8161 30.0098 35.3705 24.7061 34.7379C24.0385 34.6635 23.4698 35.3581 23.4698 35.9784C23.4698 36.7102 24.0385 37.1444 24.7061 37.2188H24.6937Z" fill="black"/>
<path d="M25.1756 35.3334C22.4681 36.0777 20.3046 38.174 19.1425 40.7045C17.8073 43.6319 17.6589 46.9067 17.8814 50.0822C18.1163 53.4934 18.7592 56.8426 19.1796 60.229C19.5999 63.6154 19.6617 67.1134 19.4145 70.5743C18.9694 76.8137 17.8196 83.0779 16.435 89.1685C15.8786 91.6121 15.2605 94.0558 14.5805 96.4746C14.2961 97.4794 13.9994 98.4966 13.6656 99.4889C13.542 99.8486 13.4184 100.208 13.2947 100.568C13.2329 100.717 13.1835 100.866 13.1216 101.015C12.9857 101.362 13.1587 100.977 13.0104 101.275C12.9486 101.387 12.8868 101.498 12.8373 101.622C12.7137 101.895 12.7755 101.622 12.8497 101.622C12.8497 101.622 13.4555 101.3 12.7013 101.722C12.5653 101.796 12.4293 101.846 12.281 101.895C11.9472 101.995 11.601 102.007 11.2548 102.007C9.68472 101.995 8.18878 101.66 6.61867 101.933C3.61445 102.466 1.1542 104.674 0.0662452 107.477C-0.230469 108.234 0.523679 109.053 1.2531 109.053C5.80271 109.015 10.3523 108.867 14.8896 108.569C16.8058 108.445 18.8952 108.209 20.5024 107.068C21.9736 106.026 23.0368 104.438 22.9997 102.578C22.9627 100.99 20.49 100.977 20.5271 102.578C20.5642 103.917 19.5257 104.959 18.3512 105.443C16.7193 106.125 14.8401 106.1 13.1093 106.2C9.16547 106.423 5.20928 106.547 1.26546 106.584L2.45232 108.16C3.29301 106.014 5.53072 104.401 7.81789 104.302C10.1051 104.203 13.3318 105.369 14.8648 103.061C15.619 101.945 15.9775 100.432 16.3731 99.154C17.0655 96.9212 17.6713 94.6512 18.2276 92.3688C19.6123 86.7372 20.6631 81.0064 21.4173 75.2631C21.8623 71.8767 22.1343 68.4531 22.0354 65.0295C21.9365 61.6059 21.3925 58.2939 20.9104 54.9323C20.4282 51.5707 19.8719 47.8122 20.5642 44.3638C21.1453 41.4612 22.8267 38.5709 25.8309 37.7523C27.3639 37.3305 26.7087 34.9365 25.1756 35.3582V35.3334Z" fill="black"/>
<path d="M25.3239 90.5822C24.5203 96.5984 23.8156 103.148 26.7704 108.717C28.2292 111.471 30.5287 113.63 32.6428 115.862C34.7569 118.095 36.5866 120.464 38.1197 123.107C39.8628 126.121 41.1733 129.346 42.0387 132.72C42.4344 134.271 44.8204 133.613 44.4248 132.063C42.8918 126.084 39.9865 120.514 35.9808 115.838C34.0275 113.555 31.6661 111.583 29.9229 109.114C28.1797 106.646 27.3761 103.88 27.166 100.952C26.9063 97.4791 27.3391 94.0058 27.7965 90.5822C27.883 89.9124 27.166 89.3418 26.5602 89.3418C25.8184 89.3418 25.4104 89.9124 25.3239 90.5822Z" fill="black"/>
<path d="M58.3953 85.9927C59.0752 88.2379 60.5959 90.0117 62.6729 91.0909C64.6139 92.0956 66.728 92.8027 68.7679 93.5966C72.6375 95.1099 76.5566 96.8217 79.3012 100.072C80.3274 101.287 82.0705 99.5259 81.0444 98.3226C78.3493 95.1347 74.5662 93.2864 70.7707 91.7483C68.8915 90.9916 66.9876 90.3094 65.1208 89.5155C63.118 88.6596 61.4366 87.5184 60.7813 85.3476C60.3239 83.8219 57.9255 84.4793 58.3953 86.0051V85.9927Z" fill="black"/>
<path d="M76.9522 98.3353C75.481 95.5071 72.7364 93.3239 69.6085 92.6293C66.2334 91.8726 62.7594 92.8029 60.0766 94.9489C59.5573 95.3706 59.6439 96.2637 60.0766 96.6979C60.5958 97.2189 61.3005 97.1197 61.8198 96.6979C63.835 95.0729 66.6537 94.4403 69.1634 95.0605C71.6732 95.6807 73.6512 97.3429 74.8134 99.5757C75.5552 100.99 77.6816 99.737 76.9522 98.3229V98.3353Z" fill="black"/>
<path d="M75.1226 97.9882C72.4151 108.83 68.9287 119.485 64.6758 129.818C62.5865 134.904 60.2251 139.853 57.8638 144.827C55.5025 149.801 53.4625 154.614 52.8938 159.973C52.5848 162.826 52.9062 165.667 52.968 168.507C52.9927 169.785 53.0793 171.261 52.6837 172.501C52.3993 173.37 51.6328 173.667 50.7798 173.729C48.9377 173.878 46.8112 173.481 45.0927 172.812C43.2012 172.08 42.1009 170.728 42.5459 168.631C42.8303 167.279 43.3496 165.964 43.7946 164.649C44.2397 163.335 44.7466 161.958 45.2287 160.618C46.1931 157.988 47.1697 155.359 48.097 152.704C49.9143 147.507 51.3485 142.235 52.4982 136.851C54.7112 126.494 56.1701 115.875 60.0026 105.939C60.4724 104.711 60.9917 103.496 61.548 102.293C61.8323 101.685 61.7211 100.953 61.1029 100.593C60.5713 100.283 59.6935 100.432 59.4092 101.04C54.7112 111.211 52.9309 122.288 50.7303 133.192C49.6176 138.712 48.3319 144.182 46.5639 149.528C44.6971 155.185 42.4347 160.692 40.6049 166.361C39.8261 168.78 39.5417 171.385 41.4333 173.37C42.8674 174.871 45.0433 175.528 47.0337 175.875C49.0242 176.223 51.571 176.632 53.4007 175.441C55.725 173.903 55.4901 170.504 55.4283 168.048C55.3417 165.096 55.0327 162.144 55.4654 159.191C55.861 156.463 56.7017 153.808 57.7031 151.253C59.7801 145.993 62.4999 140.994 64.7748 135.834C69.4727 125.154 73.3794 114.126 76.4208 102.851C76.804 101.449 77.1625 100.047 77.5087 98.6332C77.892 97.0827 75.5059 96.4253 75.1226 97.9758V97.9882Z" fill="black"/>
<path d="M42.3108 160.159C41.6803 161.698 41.9523 163.509 42.7559 164.935C43.6213 166.473 45.142 167.515 46.8233 167.987C49.5927 168.768 54.4885 168.073 54.5132 164.315C54.5132 162.715 52.0529 162.715 52.0406 164.315C52.0406 164.6 52.1024 164.228 52.0406 164.476C52.0282 164.551 52.0035 164.625 51.9787 164.699C52.0158 164.6 52.0158 164.588 51.9787 164.675C51.954 164.712 51.7809 164.96 51.8428 164.898C51.9046 164.836 51.682 165.047 51.6449 165.084C51.3977 165.32 50.9402 165.531 50.5446 165.642C50.421 165.679 50.285 165.717 50.1614 165.741C50.1614 165.741 49.7658 165.803 49.9759 165.779C49.6669 165.816 49.3578 165.828 49.0487 165.828C48.4305 165.828 47.9237 165.754 47.3179 165.568C46.2917 165.258 45.3892 164.6 44.8823 163.695C44.3755 162.789 44.2889 161.822 44.6845 160.829C44.9318 160.209 44.4125 159.465 43.8191 159.304C43.1144 159.105 42.5457 159.552 42.2985 160.172L42.3108 160.159Z" fill="black"/>
<path d="M50.9401 134.817C43.1637 140.449 36.3269 147.259 30.6523 155.012C29.2552 156.934 27.92 158.907 26.6837 160.929C25.4474 162.951 23.8773 165.121 23.6548 167.54C23.4322 169.959 24.6562 172.142 26.1892 173.842C27.7222 175.541 29.861 177.203 32.2471 176.98C34.7939 176.744 36.6854 174.822 38.1566 172.887C39.974 170.505 41.6059 167.962 43.1761 165.431C44.0167 164.079 41.8779 162.827 41.0372 164.179C39.7515 166.25 38.4039 168.285 37.0069 170.269C35.956 171.758 34.7321 173.594 32.9642 174.288C31.0726 175.045 29.3418 173.569 28.1178 172.266C26.8073 170.877 25.7194 168.954 26.2634 166.982C26.5477 165.977 27.1164 165.072 27.6357 164.179C28.2044 163.211 28.7854 162.244 29.3789 161.301C30.4915 159.552 31.6537 157.828 32.8776 156.165C35.4244 152.692 38.2308 149.43 41.2474 146.366C44.6349 142.942 48.2944 139.792 52.1887 136.963C52.7327 136.566 52.9923 135.884 52.6338 135.264C52.3247 134.731 51.484 134.421 50.9401 134.817Z" fill="black"/>
<path d="M28.2911 157.677C27.7224 161.299 28.5631 165.058 30.7884 167.998C31.864 169.412 33.2858 170.789 35.0784 171.186C36.8711 171.583 38.7379 170.962 39.7517 169.4C40.6171 168.047 38.4783 166.807 37.6128 168.147C37.106 168.953 35.9438 168.953 35.1526 168.618C33.9781 168.122 33.0509 167.018 32.3709 165.976C30.9244 163.756 30.2568 160.977 30.6648 158.347C30.7637 157.69 30.4917 157.008 29.7994 156.821C29.206 156.66 28.3776 157.02 28.2787 157.69L28.2911 157.677Z" fill="black"/>
<path d="M60.4969 143.935C62.0917 143.935 62.0917 141.454 60.4969 141.454C58.9021 141.454 58.9021 143.935 60.4969 143.935Z" fill="black"/>
<path d="M60.1881 145.795C67.6801 138.129 75.2958 130.562 82.6642 122.772C85.755 119.51 88.7715 115.788 89.6988 111.273C90.5147 107.254 89.7606 102.541 86.3607 99.8984C83.1834 97.4299 78.028 97.1198 75.2463 100.37C74.2078 101.573 75.951 103.334 76.9895 102.119C78.9676 99.8116 82.5529 100.097 84.8277 101.821C87.7331 104.029 87.9803 108.296 87.0902 111.546C85.9899 115.553 83.0969 118.765 80.2781 121.681C76.903 125.179 73.4908 128.627 70.1033 132.1C66.2213 136.082 62.3269 140.051 58.4449 144.033C57.3323 145.174 59.0754 146.936 60.1881 145.782V145.795Z" fill="black"/>
<path d="M58.8281 97.3557C55.9104 108.668 51.6822 119.597 46.2054 129.905C45.4512 131.319 47.59 132.572 48.3442 131.158C53.9199 120.664 58.2594 109.524 61.2265 98.0131C61.6221 96.4626 59.2361 95.8051 58.8404 97.3557H58.8281Z" fill="black"/>
<path d="M43.7697 133.972C45.8961 133.327 47.9607 132.422 49.8523 131.268C50.8043 130.685 51.7068 130.04 52.5845 129.358C53.0296 129.011 53.5365 128.663 53.8332 128.167C54.2412 127.51 54.2041 126.691 53.6478 126.133C52.5104 125.004 50.7672 126.765 51.9046 127.882L51.9787 127.956L51.6573 127.41C51.6573 127.41 51.7068 126.815 51.7809 126.803C51.7315 126.803 51.6079 126.964 51.5708 126.989C51.3853 127.15 51.1999 127.299 51.0144 127.448C50.7301 127.683 50.421 127.907 50.1243 128.118C49.3949 128.638 48.6284 129.122 47.8371 129.569C46.3288 130.412 44.7587 131.082 43.1021 131.591C42.4592 131.789 42.0636 132.459 42.2366 133.116C42.4097 133.774 43.1144 134.183 43.7573 133.985L43.7697 133.972Z" fill="black"/>
<mask id="mask0_138_1472" style="mask-type:alpha" maskUnits="userSpaceOnUse" x="0" y="-17" width="90" height="196">
<path d="M82 98L74.5 93L68.5 60.5L59.5 20.5L58.5 2.5L31.5 -17L19.5 26.5L17.5 59L18.5 71L16 89.5L12.5 101.5H5.5L0.5 105.5L0 109H11L17.5 108.5L21.5 106.5L24 100L25 106.5L35.5 119.5L43 135L49 133V135L47.5 137L31 153.5L23 167.5L24 173.5L32.5 178.5L40 174.5L52 177.5L56 173.5L57.5 161V153.5L61 145.5L90 113.5V105.5L88 100L82 98Z" fill="#D9D9D9"/>
</mask>
<g mask="url(#mask0_138_1472)">
<rect x="-500" y="49.9404" width="815.042" height="130.031" fill="url(#paint0_linear_138_1472)"/>
</g>
</g>
<defs>
<linearGradient id="paint0_linear_138_1472" x1="-92.4788" y1="179.972" x2="-92.4788" y2="49.9404" gradientUnits="userSpaceOnUse">
<stop stop-color="#191817"/>
<stop offset="1" stop-color="#191817" stop-opacity="0"/>
</linearGradient>
<clipPath id="clip0_138_1472">
<rect width="90" height="177" fill="white"/>
</clipPath>
</defs>
</svg>
