<svg width="74" height="172" viewBox="0 0 74 172" fill="none" xmlns="http://www.w3.org/2000/svg">
<g clip-path="url(#clip0_136_1391)">
<path d="M66.0201 91.3407C66.1944 91.0324 66.3687 90.7107 66.5161 90.3622C71.2348 79.5173 73.755 68.0557 72.5351 56.1786C72.0123 51.1114 71.3957 46.2185 67.3071 42.7465C62.8833 38.993 56.3013 37.1029 51.0598 34.7167C50.7381 34.5693 50.4164 34.4486 50.0812 34.3548C49.9472 31.3252 49.7997 28.2822 49.6657 25.2526C49.5718 23.1212 48.8614 21.4053 47.7755 20.0782C48.1107 18.188 48.6201 16.3515 49.4378 14.6222C51.7167 9.8365 50.1215 3.13385 44.2365 1.82013C43.0703 1.56543 41.9174 1.29732 40.7511 1.04262C38.8208 0.613654 36.9709 0.774517 35.3622 1.39116C33.2174 1.17668 30.9921 1.57884 28.8204 2.7585C22.8819 6.00259 20.8577 14.8099 24.5441 20.4937C25.268 21.6064 26.1528 22.4911 27.118 23.215C26.8767 27.0891 27.118 31.0169 27.4933 34.9312C25.8445 34.757 24.075 35.0921 22.3725 36.1511C20.9247 37.0493 19.5037 37.9742 18.1096 38.9394C15.6028 39.0467 13.163 40.3202 11.5544 43.2291C11.3667 43.5642 11.1925 43.9128 11.0182 44.2613C10.0396 45.0522 9.06101 45.87 8.10923 46.7011C5.57563 48.8996 5.06623 51.8889 5.84374 54.637C5.66947 56.1518 5.60244 57.6934 5.65606 59.2216C4.28872 66.0181 4.2351 73.0157 5.58904 79.9328C5.58904 80.1607 5.56223 80.402 5.54882 80.6299C4.94558 82.2251 4.79812 84.0483 5.26731 85.925C5.38796 86.3808 5.4952 86.8366 5.61585 87.2924C6.01801 88.8876 6.71508 90.1611 7.61324 91.1263C7.11724 91.5552 6.64805 92.0512 6.23249 92.6545C5.96438 93.0432 5.72309 93.4454 5.48179 93.8475C5.02601 94.2631 4.62385 94.7323 4.30213 95.3087C2.58625 98.4187 1.79534 101.542 1.98301 104.8C1.24572 108.969 1.58085 113.433 2.37176 117.897C2.37176 118.393 2.45219 118.902 2.57284 119.425C3.65867 124.157 4.75791 128.889 5.84374 133.608C6.05822 134.533 6.40676 135.31 6.84913 135.967C6.91616 136.222 6.98319 136.463 7.03681 136.718C6.84913 137.629 6.84913 138.648 7.09043 139.761C8.5248 146.49 9.95917 153.206 11.4069 159.936C11.4337 160.083 11.5008 160.204 11.541 160.338C10.2675 161.182 9.31571 162.349 8.75269 163.77C8.45777 164.493 8.20307 165.512 8.24329 166.464C8.0154 166.88 7.78751 167.309 7.61324 167.751C7.22448 168.73 8.35053 169.655 9.26209 169.4C9.65084 169.293 10.0396 169.212 10.4284 169.118C12.6402 169.949 14.9593 169.99 17.3187 169.748C19.8657 169.494 22.4931 168.984 25.0401 169.467C26.0589 169.655 27.3056 168.528 26.5549 167.496C26.3539 167.215 26.193 166.906 26.0321 166.612C26.8633 165.566 27.319 164.225 27.118 162.603C27.0375 162 26.9571 161.41 26.8767 160.82C25.4289 151.383 24.3565 141.906 23.6594 132.415C23.3645 124.465 23.0696 116.516 22.7612 108.553C25.9517 108.929 29.5577 108.097 32.6946 107.481C38.231 108.352 43.7941 109.009 49.3842 109.438C48.2179 117.669 47.2125 125.926 46.4082 134.211C46.1401 134.841 45.9122 135.511 45.8184 136.262C45.7379 136.852 45.6977 137.442 45.6307 138.031C45.4966 138.353 45.3894 138.688 45.309 139.05C43.9952 144.962 43.4858 150.82 43.955 156.866C44.0757 158.461 44.6387 159.761 45.4564 160.767C45.4028 160.847 45.3358 160.914 45.309 161.022C44.4108 163.582 44.3304 166.343 45.0274 168.957C45.2285 169.708 45.9658 170.003 46.6763 169.896C51.7703 169.078 57.0252 169.011 62.1326 169.708C63.0308 169.829 64.1836 169.132 63.7815 168.059C63.4195 167.094 62.9503 166.183 62.4409 165.298C62.5348 164.989 62.5214 164.641 62.2935 164.266C61.6768 163.26 61.0602 162.268 60.4435 161.263C61.6768 160.164 62.4811 158.568 62.3739 156.491C62.2398 154.024 62.1862 151.544 62.1996 149.077C62.8163 148.179 63.2453 147.107 63.4061 145.86C63.6742 143.823 63.8083 141.812 63.8619 139.814C63.9691 138.661 64.0764 137.509 64.197 136.356C65.1756 135.337 65.8727 133.996 66.0738 132.307C66.8111 126.288 68.1516 120.444 68.9827 114.612C69.3044 114.13 69.5994 113.62 69.8541 113.017C70.5377 111.355 70.9935 109.719 71.2482 108.084C71.3152 107.869 71.3823 107.655 71.4225 107.414C72.1732 102.494 71.7442 98.2981 68.9693 94.0352C68.1248 92.7349 67.106 91.8636 66.0336 91.3541L66.0201 91.3407Z" fill="#944EBE"/>
<path d="M25.3214 19.0324L25.871 27.3034C26.0319 29.7968 26.1391 32.317 26.4475 34.797C26.729 37.0759 27.225 39.328 28.3242 41.3656C29.4234 43.4032 31.0321 44.851 32.882 46.044C34.7319 47.2371 37.2119 48.7519 39.5444 48.6849C41.877 48.6179 43.995 46.9824 45.6707 45.4006C47.3463 43.8188 48.6332 42.0359 49.4107 39.9312C50.2687 37.6255 50.3759 35.0785 50.3357 32.6387C50.2553 26.5393 50.014 20.4265 49.8531 14.3271C49.8129 12.6112 47.1318 12.5978 47.1721 14.3271C47.3061 19.2737 47.4402 24.2336 47.5742 29.1802C47.6949 33.4699 48.1506 38.1349 45.3757 41.7543C44.2363 43.2423 42.6545 44.7705 40.952 45.6017C38.9546 46.5937 36.8902 45.2934 35.1475 44.288C33.4048 43.2826 31.9034 42.1297 30.8846 40.454C29.8658 38.7784 29.3966 36.8748 29.1285 34.9579C28.78 32.5315 28.713 30.0515 28.5521 27.6118L27.9757 19.0055C27.855 17.2897 25.174 17.2763 25.2946 19.0055L25.3214 19.0324Z" fill="black"/>
<path d="M49.0087 36.2315L59.9876 40.7625C62.8697 41.9555 66.0736 43.0548 68.2185 45.4275C70.3633 47.8003 70.5376 51.1114 70.4437 54.1008C70.3097 57.8676 69.8807 61.6479 69.5724 65.4014C69.2104 69.8788 68.8485 74.3562 68.4866 78.8335L70.4974 77.6807C65.2425 74.9192 58.9152 74.8924 53.6335 77.5868L55.6443 78.7397C56.1537 71.0182 56.8239 63.3102 57.6685 55.6156C57.7489 54.8917 56.9982 54.275 56.3279 54.275C55.537 54.275 55.0679 54.8917 54.9874 55.6156C54.1563 63.3102 53.4726 71.0182 52.9632 78.7397C52.8962 79.8121 54.1429 80.3215 54.974 79.8926C59.371 77.6539 64.7599 77.6941 69.13 79.9864C70.0818 80.4824 71.0604 79.8523 71.1408 78.8335C71.4759 74.6377 71.8245 70.4284 72.1596 66.2326C72.4947 62.0367 72.9371 58.243 73.0846 54.2348C73.2186 50.8969 72.8969 47.2775 70.8593 44.4892C68.8217 41.7008 65.7385 40.2799 62.6687 38.993C58.3521 37.1833 54.0222 35.4138 49.6923 33.6309C49.0221 33.3493 48.2177 33.9258 48.0435 34.5692C47.829 35.3333 48.3116 35.9366 48.9818 36.2181L49.0087 36.2315Z" fill="black"/>
<path d="M67.0521 77.7468C66.8108 80.4949 66.5025 83.243 66.1272 85.9642C65.9931 86.9696 65.9529 88.1627 65.4971 89.0877C65.0681 89.959 64.0091 90.0394 63.1512 90.1735C60.4969 90.5757 57.8159 90.8304 55.1348 90.9912C52.8023 91.1253 50.443 91.0985 48.1372 91.5811C45.8315 92.0636 44.1157 93.1093 42.5338 94.6643C41.314 95.8573 40.2415 97.3319 38.7267 98.1765C36.9706 99.155 35.2413 98.2435 33.8606 97.0504C33.1769 96.4606 32.0911 95.6831 31.7828 94.7983C31.5013 94.0208 32.2788 93.5516 32.8552 93.1897C34.5979 92.0904 36.984 90.6427 36.4344 88.1627C36.1797 87.0367 35.2279 86.2457 34.1287 85.991C33.4718 85.8436 32.1983 86.0447 31.7023 85.5353V87.4254C35.4022 84.2618 40.6571 84.0205 45.2953 84.1947C48.0166 84.302 50.8719 84.6773 53.4055 83.4172C55.6576 82.3046 57.1188 79.8782 56.6094 77.3848C56.2743 75.6958 53.687 76.4062 54.0222 78.0953C54.4512 80.2536 51.7701 81.4198 50.081 81.6075C47.6413 81.8622 45.1211 81.4466 42.6679 81.4869C38.0565 81.5673 33.4048 82.4654 29.8122 85.5353C29.2492 86.0179 29.343 86.9428 29.8122 87.4254C30.5495 88.2029 31.5147 88.3906 32.5469 88.4844C32.9088 88.5112 33.2842 88.5246 33.6327 88.6185C33.8472 88.6721 33.9008 88.6855 33.7802 88.9402C33.378 89.8384 32.5871 90.2137 31.7962 90.6963C30.9248 91.2191 30.0267 91.8358 29.5039 92.7339C28.1365 95.053 29.9999 97.1711 31.6621 98.6725C33.4853 100.321 35.6703 101.648 38.2307 101.193C42.373 100.442 43.9548 95.5758 47.9228 94.4096C50.2955 93.7125 52.8425 93.8197 55.2957 93.6723C58.1644 93.498 61.0197 93.2031 63.8617 92.7741C65.1218 92.5864 66.4087 92.2379 67.2666 91.2191C68.1246 90.2003 68.3659 88.9402 68.5535 87.6667C69.0361 84.369 69.4249 81.0579 69.7198 77.7468C69.7868 77.0229 69.0629 76.4062 68.3793 76.4062C67.6018 76.4062 67.1058 77.0229 67.0387 77.7468H67.0521Z" fill="black"/>
<path d="M19.1819 60.6827C18.7529 67.4122 18.2435 74.1417 17.6403 80.8711L19.6511 79.7183C14.852 76.3669 7.8678 77.064 3.73896 81.166L6.03127 82.1178C6.08489 77.9354 6.12511 73.7529 6.17873 69.5705C6.23235 65.388 6.13851 61.2994 6.50046 57.184C6.83559 53.4171 7.72034 49.6234 9.9054 46.4731C11.6615 43.9261 14.1951 42.0092 16.8494 40.4944C20.013 38.698 23.4314 37.4245 26.8497 36.1913C28.4583 35.6148 27.7613 33.0142 26.1392 33.604C19.8789 35.8561 13.0691 38.3763 8.69893 43.658C3.22956 50.2668 3.63172 59.1679 3.53788 67.2513C3.48426 72.1979 3.41724 77.1579 3.36362 82.1044C3.35021 83.2707 4.8382 83.8605 5.65592 83.0562C8.99384 79.7451 14.49 79.3563 18.3105 82.024C19.2221 82.654 20.2409 81.7827 20.3213 80.8711C20.9112 74.1551 21.434 67.4256 21.8629 60.6827C21.9702 58.9535 19.2891 58.9669 19.1819 60.6827Z" fill="black"/>
<path d="M25.1742 34.5157C25.63 40.3872 28.4719 46.0175 33.0967 49.7173C35.5231 51.6477 38.6063 53.3234 41.7699 52.2241C44.6789 51.2187 46.8505 48.6315 48.7005 46.2856C50.9392 43.4436 52.7757 40.3202 53.7543 36.8348C54.2235 35.1726 51.6362 34.4621 51.1671 36.1243C50.4298 38.725 49.1697 41.1111 47.6146 43.3096C46.1401 45.3874 44.3304 47.7333 42.1453 49.1007C39.7189 50.6021 37.3328 49.5967 35.2282 48.0149C33.2442 46.5135 31.5819 44.5831 30.3352 42.4382C28.9411 40.0253 28.0697 37.3174 27.8552 34.5291C27.7212 32.8266 25.0401 32.7998 25.1742 34.5291V34.5157Z" fill="black"/>
<path d="M17.7207 81.1655C17.8414 83.9672 20.4956 85.5222 23.0426 85.6965C24.4502 85.7904 25.8443 85.5088 27.2519 85.4954C28.6594 85.482 29.9598 85.7769 31.2467 86.2997C31.9169 86.5679 32.7213 86.0048 32.8955 85.3614C33.11 84.5973 32.6274 83.9806 31.9572 83.7125C30.8043 83.2433 29.6112 82.9752 28.3645 82.868C27.1178 82.7608 25.9114 82.9082 24.6781 83.002C23.6727 83.0691 22.6002 83.1361 21.6619 82.6937C21.0184 82.3854 20.4286 81.8492 20.4018 81.1923C20.3348 79.4765 17.6537 79.463 17.7207 81.1923V81.1655Z" fill="black"/>
<path d="M3.88641 82.1181C3.75236 84.6785 3.99365 87.7081 5.25375 90.0004C6.51385 92.2927 9.03405 92.829 11.4604 92.534C13.8868 92.2391 16.2729 91.7699 18.7797 92.0649C21.2865 92.3598 23.6056 93.2981 25.6298 94.7727C27.8819 96.4082 29.8123 98.4592 32.3593 99.6791C33.9143 100.416 35.2682 98.1106 33.7132 97.3599C31.6086 96.3545 29.9329 94.7727 28.1232 93.325C26.3135 91.8772 24.2357 90.6305 21.9031 89.9602C19.5706 89.29 17.0504 89.1023 14.6375 89.357C13.5248 89.4776 12.4256 89.7189 11.3264 89.853C10.4014 89.9602 9.32896 90.0675 8.48443 89.6117C7.3986 89.0218 7.11709 87.5741 6.87579 86.4748C6.56747 85.0405 6.48704 83.5793 6.56747 82.1181C6.66131 80.3888 3.98025 80.4022 3.88641 82.1181Z" fill="black"/>
<path d="M26.3403 25.2928L28.4047 29.7031C28.9946 30.9632 29.5442 32.3306 30.7372 33.1617C31.9303 33.9928 33.5255 34.0196 34.6248 33.041C35.4961 32.2635 35.6168 31.1509 36.1664 30.1991C37.3729 28.1213 40.9119 30.3868 42.4267 30.8292C43.9415 31.2715 45.3892 31.2179 46.3678 29.8506C47.1453 28.7648 47.695 27.451 48.1105 26.1909C49.7728 21.0969 48.955 14.9037 46.3008 10.2788C44.8932 7.81226 42.5339 6.61919 39.759 6.36449C37.2924 6.15001 34.5578 6.49854 32.1582 7.08838C29.142 7.82567 26.9167 9.74263 26.166 12.8124C25.8041 14.3138 25.7371 15.8688 25.67 17.4105C25.5762 19.2202 25.4958 21.0299 25.4019 22.8396C25.3081 24.6493 28.0026 24.5555 28.083 22.8396C28.2036 20.2658 28.2439 17.6652 28.4986 15.0913C28.6996 13.0135 29.3833 11.0698 31.4075 10.1582C33.2708 9.31366 35.5766 9.15279 37.6008 9.03215C39.625 8.9115 41.7966 9.03215 43.231 10.5603C44.6653 12.0886 45.416 14.7562 45.8584 16.8474C46.3008 18.9387 46.4349 21.3516 46.0193 23.5501C45.8048 24.6627 45.4965 25.762 45.0273 26.7942C44.7994 27.2768 44.5581 27.7728 44.2632 28.2151C44.223 28.2822 44.156 28.4296 44.0889 28.4698C43.8744 28.5637 44.1157 28.443 44.0353 28.4698C43.7538 28.5235 43.2712 28.3224 43.0031 28.2419C40.8046 27.5583 38.834 26.3116 36.4345 26.9282C35.3085 27.2097 34.3433 27.947 33.8071 28.9792C33.5658 29.435 33.2574 31.1375 32.614 31.1509C31.6756 31.1509 31.0322 29.0195 30.7372 28.3894L28.6728 23.9791C28.3645 23.3222 27.4261 23.1613 26.8363 23.4965C26.166 23.8852 26.0454 24.6761 26.3537 25.333L26.3403 25.2928Z" fill="black"/>
<path d="M28.0562 21.5389L26.233 16.284C25.67 14.6486 24.8791 12.9595 24.5976 11.2436C24.1016 8.34807 26.9569 5.69382 29.2224 4.3801C31.8364 2.8653 34.9331 2.38271 37.9225 2.81168C40.9118 3.24065 44.1023 4.3801 46.0863 6.61878C48.4724 9.29985 47.467 13.2812 46.6627 16.3913C46.2337 18.0669 48.821 18.7774 49.2499 17.1017C50.1481 13.5895 50.9792 9.59476 49.0891 6.24344C47.3196 3.1066 43.5795 1.37731 40.2282 0.546182C36.5685 -0.365379 32.7212 -0.164299 29.2626 1.36391C26.166 2.73125 23.0962 5.41231 22.131 8.75023C21.4607 11.0828 22.3723 13.2678 23.123 15.4395L25.4823 22.236C26.0454 23.858 28.6326 23.1609 28.0696 21.5255L28.0562 21.5389Z" fill="black"/>
<path d="M65.1487 91.7418C68.3794 93.6052 70.0818 97.1978 70.5644 100.79C71.1945 105.536 69.7065 110.308 68.3392 114.799C65.4034 124.424 63.0441 134.196 61.3818 144.116C60.4434 149.72 59.7329 155.363 59.2235 161.02L60.5641 159.68C54.907 159.385 49.2768 158.795 43.6868 157.897L44.6654 159.184C44.8531 151.771 45.4563 144.371 46.5019 137.025C47.5609 129.652 49.2634 122.373 50.1482 114.973C50.6442 110.858 50.8184 106.702 50.4163 102.573C50.3492 101.849 49.8532 101.233 49.0757 101.233C48.4055 101.233 47.6682 101.849 47.7352 102.573C48.4591 109.919 47.2794 117.212 45.9523 124.424C44.5984 131.783 43.3919 139.143 42.7216 146.61C42.3463 150.792 42.105 155.001 41.9977 159.197C41.9843 159.734 42.4267 160.404 42.9763 160.484C48.8076 161.423 54.6791 162.053 60.5641 162.361C61.3282 162.401 61.8376 161.718 61.9046 161.02C62.843 150.698 64.5052 140.443 66.878 130.349C68.0845 125.242 69.492 120.215 71.0202 115.201C72.4278 110.563 73.8353 105.67 73.2455 100.777C72.7093 96.2326 70.5778 91.7686 66.5026 89.4093C65.0012 88.538 63.6607 90.8571 65.1487 91.7284V91.7418Z" fill="black"/>
<path d="M43.7939 159.372C43.0969 162.898 42.8958 166.491 43.2845 170.07C43.365 170.807 43.8342 171.397 44.6251 171.41C51.1669 171.571 57.7086 171.531 64.237 171.263C64.9207 171.236 65.6312 170.673 65.5776 169.922C65.2424 165.633 63.3925 161.611 60.2825 158.635C59.0358 157.442 57.1456 159.332 58.3923 160.525C60.9661 163.005 62.615 166.343 62.8965 169.922L64.237 168.582C57.6952 168.836 51.1534 168.89 44.6251 168.729L45.9656 170.07C45.6037 166.732 45.7243 163.38 46.3812 160.096C46.7163 158.407 44.1291 157.683 43.7939 159.386V159.372Z" fill="black"/>
<path d="M21.6887 109.183C30.6166 109.598 39.5579 109.893 48.4859 110.054C50.2152 110.081 50.2152 107.4 48.4859 107.373C39.5445 107.212 30.6166 106.931 21.6887 106.502C19.9594 106.421 19.9728 109.102 21.6887 109.183Z" fill="black"/>
<path d="M20.6163 102.64C21.6485 117.695 22.6807 132.749 23.7129 147.803L24.5977 160.632L26.3001 159.345C21.0185 158.018 15.5491 157.468 10.1065 157.736L11.4471 159.077C11.7822 148.996 8.09574 139.465 5.723 129.826C4.51653 124.893 3.64518 119.88 3.14919 114.826C2.73362 110.509 2.37168 106.059 2.94811 101.742C3.45751 97.8413 4.89187 93.7527 8.35044 91.5408C9.79822 90.6158 8.45769 88.2967 6.99651 89.2217C-0.269167 93.8331 -0.309383 103.659 0.173208 111.26C0.508341 116.568 1.23223 121.85 2.33146 127.051C3.4307 132.253 4.91869 137.025 6.24581 142.012C7.7338 147.588 8.94028 153.272 8.7526 159.09C8.72579 159.787 9.38265 160.471 10.0931 160.431C15.3078 160.163 20.5091 160.659 25.5763 161.945C26.3672 162.147 27.3324 161.543 27.2787 160.659C26.2465 145.604 25.2143 130.55 24.1821 115.496L23.2974 102.667C23.1767 100.951 20.4956 100.938 20.6163 102.667V102.64Z" fill="black"/>
<path d="M9.91886 158.984C8.06893 160.981 6.71499 163.434 6.11175 166.102C5.84365 167.268 5.41468 168.944 6.08494 170.043C6.87585 171.33 8.55152 171.142 9.85183 171.142C13.0289 171.142 16.2193 171.142 19.3964 171.142C21.0453 171.142 22.6807 171.142 24.3296 171.142C25.6835 171.142 27.4262 171.317 27.9356 169.695C28.1769 168.904 28.0026 168.032 27.9356 167.228C27.8552 166.357 27.7881 165.485 27.7077 164.614C27.5468 162.764 27.386 160.914 27.2251 159.064C27.0776 157.362 24.3966 157.348 24.544 159.064C24.6915 160.78 24.839 162.549 24.9998 164.279C25.0803 165.15 25.1473 166.021 25.2277 166.893C25.2813 167.536 25.5494 168.461 25.3081 169.078L25.6567 168.488C25.898 168.461 25.9382 168.448 25.7505 168.461C25.6031 168.461 25.4556 168.461 25.3081 168.461C24.973 168.461 24.6513 168.461 24.3162 168.461C23.7129 168.461 23.1097 168.461 22.5064 168.461C21.2463 168.461 19.9862 168.461 18.7261 168.461C16.2596 168.461 13.793 168.461 11.3264 168.461C11.0315 168.461 8.2566 168.354 8.22979 168.461C8.09574 168.461 8.16276 168.555 8.41746 168.703C8.41746 168.582 8.41746 168.461 8.44427 168.327C8.45768 168.126 8.48449 167.938 8.5113 167.737C8.59173 167.201 8.71238 166.665 8.85984 166.142C9.40946 164.172 10.4283 162.375 11.809 160.874C12.9753 159.614 11.0851 157.71 9.91886 158.984Z" fill="black"/>
<mask id="mask0_136_1391" style="mask-type:alpha" maskUnits="userSpaceOnUse" x="-1" y="2" width="75" height="172">
<path d="M20.6113 13.5L23.6113 5L49.6113 2.5L54.1113 27L59.6113 35.5L73.1113 49.5L69.6113 88.5L73.1113 106.5L62.6113 154.5L65.6113 167L54.1113 171.5L30.1113 174L3.11133 171.5L8.61133 157.5L5.61133 137L-0.888672 106.5L3.11133 88.5V57L11.6113 41.5L23.6113 35.5V27L20.6113 13.5Z" fill="#D9D9D9"/>
</mask>
<g mask="url(#mask0_136_1391)">
<rect x="-539.389" y="54.2383" width="815.042" height="130.031" fill="url(#paint0_linear_136_1391)"/>
</g>
</g>
<defs>
<linearGradient id="paint0_linear_136_1391" x1="-131.867" y1="184.27" x2="-131.867" y2="54.2383" gradientUnits="userSpaceOnUse">
<stop stop-color="#191817"/>
<stop offset="1" stop-color="#191817" stop-opacity="0"/>
</linearGradient>
<clipPath id="clip0_136_1391">
<rect width="73.3834" height="171.505" fill="white"/>
</clipPath>
</defs>
</svg>
