<svg width="159" height="168" viewBox="0 0 159 168" fill="none" xmlns="http://www.w3.org/2000/svg">
<g clip-path="url(#clip0_136_1392)">
<path d="M146.638 154.805C146.798 154.537 146.865 154.202 146.745 153.8C145.659 149.966 144.734 146.105 143.876 142.218C143.139 136.976 142.388 131.748 141.651 126.507C141.021 118.96 139.989 111.453 138.568 104.026C138.728 103.651 138.822 103.235 138.822 102.793C138.822 102.364 138.795 101.935 138.728 101.492C138.661 100.688 138.554 99.8972 138.38 99.1063C138.273 98.6237 138.125 98.1545 137.964 97.6853C137.964 97.6719 137.964 97.6585 137.951 97.6317C137.897 97.4574 137.844 97.2831 137.777 97.1089C137.669 96.7737 137.535 96.452 137.401 96.1303C136.771 91.3848 134.238 87.0281 130.243 84.213C130.524 84.0119 130.779 83.7974 131.02 83.5561C131.329 83.2344 131.57 82.8724 131.771 82.4837C132.455 81.7464 132.83 80.8482 132.937 79.8696C133.246 78.5157 133.071 77.0679 132.495 75.7542C132.495 75.7274 132.495 75.7006 132.495 75.6738C132.589 75.1778 132.602 74.655 132.495 74.1322C132.361 73.4485 132.2 72.7648 132.053 72.0812C131.959 71.4645 131.852 70.9015 131.771 70.4323C131.007 66.1292 129.707 61.9468 128.299 57.8179C128.648 57.1208 128.768 56.3165 128.473 55.5792C127.991 54.3325 127.481 53.0858 126.972 51.8391C126.597 50.7131 126.141 49.6139 125.631 48.528C125.578 48.4208 125.511 48.3404 125.457 48.2465C125.135 47.1741 124.8 46.1151 124.398 45.0695C123.312 42.2141 122.079 39.1845 120.229 36.718C118.285 34.1576 115.551 32.8706 112.441 32.3344C109.223 31.7714 105.979 31.3558 102.762 30.8867C101.971 30.766 101.194 30.8598 100.497 31.1414C100.51 30.1226 100.389 29.0769 100.269 28.0715C100.389 27.9241 100.483 27.79 100.59 27.6426C100.59 27.6292 100.604 27.6158 100.617 27.6024C102.279 25.3369 102.775 22.763 102.212 20.1356C102.186 19.2777 102.132 18.4197 102.065 17.5886C101.998 16.8111 101.904 16.0202 101.81 15.2427C102.467 11.9047 102.011 8.47299 100.389 5.29594C99.8128 4.16989 98.8745 3.67389 97.9093 3.63368C97.6948 3.41919 97.4803 3.20471 97.2256 3.03044C95.7108 1.94461 93.9413 1.70331 92.1182 1.6631C91.8233 1.58267 91.5284 1.51564 91.2335 1.46202C86.7293 0.68451 81.6487 2.52104 79.5842 6.82414C79.5708 6.85095 79.5574 6.89117 79.544 6.91798C77.5332 10.0012 76.7155 13.8887 78.6861 16.2615C78.619 19.4922 78.7799 22.7228 79.1955 25.9401C79.3161 26.8919 79.477 27.8571 79.6379 28.8088C74.4768 27.6828 69.289 29.2914 64.3424 31.329C64.3424 31.329 64.3424 31.3424 64.3424 31.3558C64.0743 31.4631 63.8062 31.5569 63.5381 31.6776C63.0019 31.9055 62.6131 32.321 62.345 32.8304C62.1842 32.8572 62.0233 32.8975 61.8624 32.9377C50.2802 33.6482 38.7383 34.8814 27.2633 36.6643C26.5663 36.7716 26.0032 37.1737 25.5877 37.7234L22.3302 37.6697C21.9146 37.6697 21.5527 37.7368 21.231 37.8306C21.1773 37.6429 21.0433 37.4687 20.7886 37.3882C18.6571 36.7448 16.4721 36.3292 14.2736 36.1281C12.9331 35.8868 11.5791 35.726 10.2118 35.6992C9.94369 35.6992 9.75601 35.8466 9.64877 36.0477C9.30023 36.0611 8.9651 36.0477 8.61656 36.0879C8.26802 36.1147 7.93289 36.3694 7.9463 36.7582C7.97311 37.2944 8.13397 37.8038 8.38867 38.2596C8.17419 38.7154 8.04013 39.198 8.02673 39.7074C8.09375 40.1765 8.13397 40.6457 8.26802 41.1015C6.79344 41.8388 5.31886 42.5895 3.85768 43.3402C2.16861 44.2115 0.667216 45.6727 0.774459 47.7237C0.868296 49.8686 2.50374 51.4638 4.59497 51.7453C6.05615 51.9464 7.51733 51.6381 8.95169 51.3432C10.2788 51.075 11.5791 50.7265 12.866 50.2975C15.0243 49.5737 17.1289 48.6487 19.1129 47.5495C21.2175 47.1875 23.2552 46.5038 25.1855 45.5253C25.896 45.5521 26.6199 45.5655 27.3304 45.5789C27.6119 45.6727 27.9202 45.7397 28.2285 45.78C36.513 46.839 44.8511 47.0401 53.1758 46.3966C53.8729 46.8926 54.7978 47.1205 55.9105 46.8658C57.8945 46.3966 59.8784 45.9274 61.8758 45.4582C62.278 47.7371 64.7982 48.5683 66.8358 47.6969C67.6803 47.335 68.5383 47.0132 69.3962 46.6915C71.1523 46.7049 72.9084 46.6781 74.6645 46.5843C74.8388 47.4824 75.013 48.3806 75.1873 49.2787C75.1069 49.7077 75.1069 50.1635 75.2007 50.6595C75.5492 52.3351 75.9246 53.9974 76.2999 55.6597C75.7235 56.464 75.4554 57.4828 75.8039 58.4346C77.5868 63.4079 79.1151 68.4617 80.4154 73.5692C80.4556 75.3252 80.4288 77.0813 80.3483 78.824C80.3483 78.8911 80.3483 78.9715 80.3349 79.0385C78.9542 79.0385 77.6405 79.32 76.4474 79.883C74.7985 80.0171 73.0961 80.6606 71.903 81.4649C71.2595 81.9072 70.6965 82.4971 70.2675 83.1674C69.49 83.8644 68.8332 84.7224 68.364 85.7278C66.9162 88.7708 67.1709 92.1623 67.2648 95.4332C67.3318 97.6987 67.3854 99.9642 67.4524 102.243C67.1173 107.498 66.8492 112.766 66.6615 118.021C66.3934 120.89 66.1521 123.745 65.9644 126.614C65.2272 130.984 64.7043 135.368 64.758 139.818C64.758 139.885 64.7714 139.925 64.7848 139.979C64.7312 140.502 64.6775 141.025 64.6373 141.547C64.4765 141.655 64.3558 141.816 64.3424 142.084L64.3156 143.92C64.2486 144.456 64.1413 144.993 63.9671 145.529C63.8732 145.837 64.0877 146.306 64.4362 146.36C64.9993 146.44 65.5489 146.521 66.1119 146.601C66.1655 146.829 66.2057 147.07 66.2326 147.298C66.1789 147.365 66.1387 147.446 66.0985 147.54C65.4819 149.47 64.758 151.374 63.9805 153.237C63.8598 153.29 63.7526 153.358 63.6721 153.505C63.0823 154.524 62.5327 155.569 61.9965 156.615C61.7954 157.017 61.5943 157.406 61.3932 157.808C61.1117 158.398 60.8302 159.001 60.5621 159.604C60.3342 160.114 60.0795 160.596 59.865 161.106C59.4897 162.004 58.6317 163.344 59.1814 164.323C59.6908 165.235 61.2056 165.409 62.1305 165.556C64.7848 165.972 67.5195 165.704 70.2005 165.583C71.5008 165.53 72.8146 165.463 74.1149 165.409C74.1283 165.409 74.1417 165.422 74.1551 165.436C75.6565 166.012 77.2919 166.522 78.8469 165.811C78.8604 165.811 78.8738 165.798 78.8872 165.784L79.115 165.838C79.9596 166.026 80.7907 165.422 80.8175 164.591C80.9248 164.484 80.9918 164.336 80.9918 164.122C80.8309 158.961 80.6567 153.8 80.4958 148.639C81.0186 139.081 81.1661 129.509 80.8846 119.938C80.8846 119.831 80.8577 119.75 80.8443 119.657C81.1527 113.611 81.461 107.565 81.7827 101.533C83.0562 101.653 84.3163 101.734 85.5898 101.787C85.496 102.082 85.4424 102.377 85.4155 102.685C85.3217 102.793 85.2145 102.9 85.134 103.021C84.6917 103.677 84.571 104.401 84.7051 105.085C84.638 105.581 84.7051 106.104 84.9195 106.56C85.3217 107.418 86.2065 107.793 87.1046 107.833C87.547 107.86 88.0028 107.793 88.4451 107.699C88.5792 107.739 88.7132 107.766 88.8473 107.753C90.3353 107.592 91.5954 106.908 92.574 105.836C93.3649 105.246 93.9547 104.401 94.2899 103.476C94.3033 103.423 94.3167 103.369 94.3301 103.316C102.172 103.114 109.987 102.712 117.803 102.082C118.862 102.149 119.934 102.216 120.993 102.257C121.248 103.074 121.489 103.905 121.744 104.723C122.723 109.187 123.688 113.651 124.666 118.102C124.639 118.249 124.626 118.41 124.653 118.584C126.02 127.07 127.602 135.528 129.372 143.947C129.479 145.194 129.599 146.44 129.747 147.674C129.707 147.848 129.707 148.022 129.747 148.223C129.827 148.706 129.921 149.202 130.002 149.684C130.35 152.191 130.806 154.685 131.329 157.165C131.409 157.62 131.49 158.076 131.57 158.519C131.463 158.706 131.382 158.921 131.382 159.189C131.382 160.194 131.597 161.066 131.986 161.897C132.026 162.205 132.093 162.5 132.12 162.808C132.12 162.835 132.12 162.848 132.133 162.862C132.053 163.157 132.093 163.479 132.227 163.76C132.267 164.444 132.857 165.168 133.581 165.208C140.632 165.65 147.697 165.436 154.708 164.578C155.713 164.457 156.651 163.117 155.659 162.285C152.657 159.792 149.667 157.312 146.664 154.819L146.638 154.805ZM119.344 91.4518C119.344 91.4518 119.331 91.4518 119.318 91.4518C119.318 91.4518 119.331 91.4518 119.344 91.4518ZM72.6269 159.631C72.7073 159.779 72.8012 159.899 72.9084 159.993C72.7878 160.074 72.6805 160.181 72.5733 160.275C72.6001 160.06 72.6135 159.846 72.6269 159.631ZM75.0667 158.626C74.9996 158.25 74.9326 157.875 74.8656 157.5C74.879 157.527 74.9058 157.567 74.9192 157.594C75.0801 158.103 75.2409 158.612 75.4018 159.122C75.2811 159.122 75.1739 159.135 75.0667 159.149C75.0935 158.988 75.1069 158.813 75.0667 158.626ZM130.002 128.853V128.893C130.002 128.893 130.002 128.866 130.002 128.853ZM139.533 133.893C139.493 133.772 139.439 133.705 139.385 133.611C139.278 132.874 139.184 132.137 139.077 131.413C139.09 131.373 139.117 131.346 139.131 131.306C139.278 132.231 139.426 133.142 139.586 134.067C139.573 134.014 139.56 133.96 139.546 133.906L139.533 133.893ZM138.219 125.099C138.152 124.617 138.085 124.147 138.018 123.665C138.018 123.665 138.031 123.665 138.045 123.665C138.125 124.188 138.206 124.71 138.299 125.233C138.299 125.3 138.273 125.367 138.286 125.434C138.259 125.327 138.246 125.206 138.219 125.099ZM134.425 158.385C134.425 158.385 134.452 158.452 134.452 158.478C134.399 158.505 134.331 158.519 134.278 158.545C134.251 158.425 134.238 158.304 134.211 158.183C134.211 158.13 134.211 158.076 134.211 158.023C134.264 158.157 134.331 158.277 134.425 158.371V158.385ZM120.189 99.2001C120.47 99.1599 120.725 99.0928 120.98 98.999C121.02 99.1733 121.074 99.361 121.114 99.5352C121.087 99.5352 121.047 99.5352 121.02 99.5352C120.832 99.3341 120.551 99.2135 120.189 99.2001ZM67.5731 147.298C67.5731 147.298 67.6401 147.218 67.6535 147.164C67.6669 147.124 67.6803 147.07 67.7071 147.03C67.6669 147.164 67.6267 147.298 67.5999 147.446C67.5999 147.406 67.5865 147.352 67.5865 147.312L67.5731 147.298ZM65.6293 145.046C65.6293 145.046 65.6561 145.113 65.6695 145.14C65.6695 145.14 65.6695 145.153 65.6695 145.167H65.6025C65.6025 145.167 65.6293 145.086 65.6293 145.046ZM147.495 162.366C147.764 162.393 148.032 162.42 148.3 162.446C148.032 162.46 147.75 162.473 147.482 162.487C147.482 162.446 147.482 162.406 147.482 162.366H147.495ZM6.86047 49.3055C6.61917 49.4128 6.76663 49.3994 6.86047 49.3055V49.3055Z" fill="#944EBE"/>
<path d="M76.9167 14.1708C77.2116 20.4177 77.9489 26.6512 79.1419 32.7908C79.6513 35.4048 80.3886 37.9653 82.6273 39.6141C84.6247 41.0887 87.3326 41.4104 89.6249 40.4721C92.2121 39.3996 93.9682 37.0403 94.8262 34.4397C95.3758 32.8042 92.7886 32.0937 92.2389 33.7292C91.5285 35.8606 89.8394 38.0055 87.4666 38.3138C86.2736 38.4747 85.0001 38.0859 84.0483 37.362C82.9893 36.5577 82.4799 35.311 82.1447 34.0643C81.3002 30.9007 80.8712 27.5627 80.4557 24.3187C80.0401 21.0746 79.7452 17.5624 79.5843 14.1708C79.5039 12.455 76.8228 12.4416 76.9033 14.1708H76.9167Z" fill="black"/>
<path d="M81.8231 30.2579C81.689 29.7083 82.8285 29.7619 83.11 29.8156C84.169 30.0166 85.1074 30.6199 86.153 30.8746C88.1236 31.3438 90.2684 30.7807 91.7162 29.3598C92.239 28.8504 92.6009 27.8852 93.2712 27.5635C93.2042 27.6037 93.1639 27.5099 93.1371 27.483C93.231 27.5903 93.2578 27.8182 93.2712 27.9656C93.3114 28.2874 93.2712 28.6761 93.2444 29.0112C93.0969 31.2499 92.5071 33.4752 91.5553 35.5128C91.247 36.1697 91.3676 36.9606 92.0379 37.3493C92.6143 37.6845 93.5661 37.5236 93.8744 36.8668C94.8798 34.7219 95.5233 32.51 95.8182 30.1641C96.0461 28.3812 96.2338 25.6733 94.0487 25.0031C92.9495 24.6545 91.7832 25.1639 91.0191 25.9682C90.3756 26.6519 90.0137 27.4696 89.1826 27.9522C87.3326 29.0112 85.7508 27.6975 83.9545 27.2686C82.748 26.9736 81.4343 27.0273 80.4155 27.8048C79.3967 28.5823 78.9409 29.7619 79.2358 30.9818C79.6514 32.6575 82.2386 31.947 81.8231 30.2713V30.2579Z" fill="black"/>
<path d="M99.3705 24.1451C99.4375 23.6089 99.4777 23.0056 99.7458 22.4024C99.8128 22.2549 99.9335 22.0807 100.081 21.9198C100.255 21.7187 99.9603 21.96 100.202 21.826C100.255 21.7992 100.537 21.6651 100.322 21.7455C100.403 21.7187 100.845 21.6651 100.55 21.6651H100.671C100.832 21.6651 100.832 21.6651 100.671 21.6651C100.805 21.7053 100.818 21.7053 100.738 21.6651C100.657 21.6249 100.671 21.6383 100.791 21.7053C100.644 21.4774 100.912 21.8528 100.765 21.6517C100.818 21.7187 100.858 21.7992 100.885 21.8662C100.832 21.7455 100.832 21.7455 100.885 21.9064C100.885 21.96 100.966 22.322 100.939 22.0673C100.979 22.3488 100.966 22.6437 100.939 22.9386C100.939 23.0056 100.939 23.0727 100.912 23.1531C100.925 23.0325 100.925 23.0593 100.912 23.2201C100.885 23.3676 100.858 23.5016 100.832 23.6491C100.765 23.9574 100.684 24.2523 100.59 24.5607C100.389 25.2041 100.269 25.4856 99.9335 26.0889C99.786 26.357 99.6252 26.6251 99.4375 26.8798C99.357 27.0004 99.2766 27.1211 99.1828 27.2283C99.2766 27.1077 99.0219 27.4294 98.9817 27.4562C98.7806 27.6975 98.5661 27.9254 98.3382 28.1399C98.231 28.2337 98.1238 28.3409 98.0165 28.4348C97.9763 28.475 97.6278 28.7565 97.7216 28.6761C97.1452 29.1185 96.8503 29.8289 97.239 30.5126C97.5741 31.0756 98.4991 31.4376 99.0755 30.9952C101.287 29.3195 102.923 26.9066 103.432 24.1451C103.7 22.7107 103.781 21.1021 102.762 19.9358C101.743 18.7696 99.9871 18.7562 98.7806 19.5605C97.2122 20.6061 96.8771 22.4158 96.676 24.1585C96.5956 24.8824 97.3463 25.499 98.0165 25.499C98.8074 25.499 99.2766 24.8824 99.357 24.1585L99.3705 24.1451Z" fill="black"/>
<path d="M80.1071 13.4609C79.3162 10.8334 79.7586 7.91109 81.5281 5.76624C83.2976 3.62139 85.8714 2.66961 88.6195 2.66961C91.3676 2.66961 94.4642 2.92431 96.7967 4.3989C98.9684 5.76624 99.8263 8.32665 100.215 10.7396C100.765 14.1177 100.604 17.6835 100.322 21.0751C100.175 22.791 102.856 22.791 103.003 21.0751C103.298 17.4959 103.379 13.8362 102.843 10.2704C102.387 7.22741 101.167 4.23803 98.593 2.3747C95.8852 0.444331 92.1585 0.0555777 88.9278 0.00195653C85.6971 -0.0516647 82.3056 0.993949 79.9731 3.50074C77.3188 6.35607 76.4073 10.4581 77.5333 14.1714C78.0293 15.8202 80.6165 15.1231 80.1205 13.4609H80.1071Z" fill="black"/>
<path d="M78.9811 15.6055C83.1635 15.8602 87.3326 16.3696 91.448 17.174C92.2523 17.3348 93.3918 17.375 94.0888 17.8308C94.7323 18.2464 94.987 19.292 95.1881 19.9757C95.7645 21.839 95.9254 23.7962 96.0862 25.7265C96.1801 26.8124 97.5206 27.5899 98.3785 26.6783C99.3973 25.5925 99.7861 24.0911 99.3035 22.6567C98.7405 21.0347 96.1532 21.7318 96.7163 23.3672C96.8905 23.89 96.8771 24.3592 96.4884 24.7748L98.7807 25.7265C98.593 23.5147 98.4187 21.2492 97.7351 19.1177C97.4133 18.0989 97.0246 17.0533 96.3141 16.2356C95.6036 15.4179 94.5178 15.0559 93.4454 14.828C88.6865 13.8226 83.8472 13.1926 78.9945 12.8977C77.2652 12.7904 77.2786 15.4715 78.9945 15.5787L78.9811 15.6055Z" fill="black"/>
<path d="M98.7672 28.9841C99.0487 32.9252 99.357 37.1479 97.8557 40.9148C97.2256 42.4966 96.1398 44.3331 94.4909 45.0168C92.9493 45.6603 91.0994 45.1374 89.9063 44.0516C88.6328 42.8988 86.7293 44.7889 88.0162 45.9418C89.7857 47.537 92.1718 48.3011 94.5177 47.7917C96.8637 47.2823 98.5527 45.3921 99.6386 43.3948C102.038 38.9978 101.797 33.7966 101.462 28.9707C101.341 27.2548 98.66 27.2414 98.7806 28.9707L98.7672 28.9841Z" fill="black"/>
<path d="M79.4637 27.2008C75.871 26.7316 72.265 27.4689 68.8467 28.5279C65.4283 29.5869 61.8357 30.9677 58.3503 32.2144C56.7417 32.7908 57.4388 35.378 59.0608 34.8016C62.4523 33.5951 65.8171 32.3082 69.2488 31.2224C72.6806 30.1366 75.9649 29.4395 79.4503 29.8953C80.1742 29.9891 80.7908 29.2116 80.7908 28.5547C80.7908 27.7504 80.1742 27.308 79.4503 27.2142L79.4637 27.2008Z" fill="black"/>
<path d="M59.5299 34.5878C60.2538 39.1858 61.3262 43.7302 62.7069 48.1808C63.2163 49.8162 65.8036 49.1191 65.2942 47.4703C63.9134 43.0197 62.841 38.4753 62.1171 33.8773C62.0099 33.1668 61.1117 32.7647 60.4682 32.9389C59.7041 33.1534 59.4226 33.8639 59.5299 34.5878Z" fill="black"/>
<path d="M64.329 49.5203C67.2245 48.7831 70.1469 47.8715 73.0827 47.2817C73.1497 47.2683 73.4714 47.2549 73.4178 47.2146C73.3508 47.1744 73.4178 47.2951 73.4178 47.2951C73.5787 47.4827 73.6591 47.8581 73.7395 48.0726C73.9674 48.7294 74.1283 49.3997 74.2623 50.0834C74.517 51.4507 74.6109 52.8315 74.7181 54.2122C74.946 57.0273 75.4554 59.762 76.2597 62.4699C77.064 65.1777 77.989 67.8186 78.6056 70.5533C79.3429 73.8242 79.5306 77.1755 79.2759 80.5134C79.1419 82.2293 81.8229 82.2293 81.957 80.5134C82.1983 77.2559 82.0106 73.9716 81.3805 70.7678C80.7505 67.5639 79.7183 64.7488 78.8469 61.7594C77.9756 58.77 77.56 55.9147 77.2919 52.8583C77.1579 51.3033 76.997 49.7214 76.5814 48.2066C76.2463 46.9465 75.7905 45.3513 74.5036 44.7615C73.6591 44.3727 72.7609 44.5738 71.903 44.7883C71.0451 45.0028 70.0933 45.2441 69.1951 45.4854L63.6185 46.9063C61.9428 47.3353 62.6533 49.9225 64.329 49.4935V49.5203Z" fill="black"/>
<path d="M100.55 32.7641C104.009 32.4022 107.508 32.5228 110.913 33.2601C112.494 33.5952 114.116 33.9974 115.604 34.6542C117.092 35.3111 118.178 36.3165 119.076 37.6302C120.926 40.3247 122.401 43.3543 123.701 46.3437C124.358 47.8585 124.948 49.4135 125.484 50.9685C125.739 51.7326 125.993 52.5101 126.221 53.2742C126.342 53.663 126.449 54.0517 126.556 54.4405C126.61 54.6147 126.61 54.8694 126.704 55.0169C126.838 55.218 126.865 55.0169 126.798 55.0571C126.449 55.2984 125.886 55.3922 125.484 55.5397C125.015 55.714 124.559 55.8882 124.09 56.0625C123.111 56.4245 122.119 56.7864 121.141 57.1617C119.17 57.8856 117.213 58.6229 115.242 59.3468L116.891 60.2852C115.658 56.4915 114.13 52.7782 112.36 49.199C111.596 47.6574 109.277 49.0113 110.041 50.5529C111.717 53.9311 113.124 57.4164 114.304 60.9957C114.519 61.6391 115.242 62.1887 115.953 61.934C119.84 60.4863 123.782 59.1457 127.629 57.6041C128.42 57.2824 129.077 56.8132 129.331 55.9553C129.599 55.0437 129.211 54.0249 128.956 53.167C128.433 51.3707 127.843 49.6012 127.173 47.8585C125.792 44.2658 124.117 40.7805 122.133 37.4828C121.181 35.9143 120.109 34.4264 118.621 33.3271C117.133 32.2279 115.417 31.7051 113.714 31.2225C109.438 30.016 104.934 29.6407 100.523 30.1098C99.7995 30.1903 99.1829 30.6729 99.1829 31.4504C99.1829 32.1206 99.7995 32.8713 100.523 32.7909L100.55 32.7641Z" fill="black"/>
<path d="M20.6948 39.2263C33.2958 37.9662 45.8833 36.5318 58.4575 34.9232C59.1814 34.8293 59.798 34.3736 59.798 33.5826C59.798 32.9258 59.1814 32.1483 58.4575 32.2421C45.8967 33.8508 33.3092 35.2851 20.6948 36.5452C19.9709 36.6122 19.3542 37.1082 19.3542 37.8858C19.3542 38.556 19.9709 39.2933 20.6948 39.2263Z" fill="black"/>
<path d="M21.6733 47.0945C25.0916 46.9873 28.5234 46.8935 31.9418 47.0141C35.3601 47.1348 38.6444 47.6844 42.0091 47.9659C48.7788 48.5289 55.5217 47.1884 62.1305 45.8612C63.8196 45.5261 63.1091 42.9389 61.42 43.274C54.9184 44.5743 48.3498 45.8478 41.6874 45.258C38.4299 44.9631 35.2126 44.4537 31.9418 44.333C28.6709 44.2124 25.0916 44.3062 21.6733 44.4135C19.9574 44.4671 19.944 47.1482 21.6733 47.0945Z" fill="black"/>
<path d="M21.5527 36.2097L15.1048 34.9094C13.2548 34.534 11.0832 33.7565 9.24666 34.4938C7.5844 35.1507 6.65943 37.0676 7.55759 38.7031C7.73186 39.0114 7.93294 39.1589 7.85251 39.5074C7.77207 39.8559 7.39673 40.1106 7.12862 40.2849C6.37792 40.7943 5.50658 41.1429 4.71566 41.5852C1.7799 43.2475 -1.18267 46.5318 0.479589 50.1378C2.14185 53.7438 6.94094 53.3953 10.2118 52.4703C14.4345 51.2773 18.4829 49.4407 22.1694 47.068C23.6171 46.143 22.2766 43.8105 20.8154 44.7489C18.0673 46.5184 15.145 47.993 12.0618 49.0654C10.5202 49.615 8.91152 50.1244 7.30289 50.4059C5.97576 50.6338 4.39394 50.5936 3.36173 49.615C2.39655 48.69 2.63784 47.2959 3.26789 46.2503C4.00518 45.0438 5.3189 44.2931 6.53879 43.6362C7.8391 42.9392 9.34049 42.3359 10.0912 40.9954C10.4665 40.3251 10.6408 39.5342 10.5068 38.7701C10.4397 38.4082 10.3057 38.0864 10.1314 37.7647C9.98395 37.4966 9.80968 37.4564 9.91692 37.2151C10.1984 36.6253 11.3647 36.8934 11.8473 36.9738C12.8125 37.1481 13.7642 37.3626 14.7294 37.5502L20.8556 38.7835C22.5447 39.1187 23.2552 36.5448 21.5661 36.1963L21.5527 36.2097Z" fill="black"/>
<path d="M114.438 61.2775C116.556 64.5216 117.897 68.2215 118.245 72.0956L118.915 70.9428C113.62 74.0662 108.057 76.7339 102.293 78.8519C99.6251 79.8305 96.6625 80.5142 94.33 82.1898C91.9975 83.8655 90.6301 86.4795 89.3566 89.0265C87.9759 91.8014 86.6354 94.6031 85.5495 97.5121C85.0401 98.9062 84.5844 100.314 84.2224 101.762C83.8605 103.209 83.4449 104.711 83.5119 106.132C83.6594 109.175 87.3324 109.738 89.732 109.269C92.3728 108.746 94.33 106.842 95.2952 104.389C96.3542 101.735 96.3944 98.866 97.8958 96.3726C99.3972 93.8792 101.408 91.6808 101.837 88.7316C101.944 88.0211 101.663 87.2972 100.899 87.0827C100.269 86.9085 99.357 87.2972 99.2498 88.0211C98.9146 90.2866 97.5071 92.0829 96.2738 93.9463C94.9467 95.9303 94.1557 97.9679 93.6463 100.3C93.1906 102.365 92.775 104.791 90.8178 105.998C89.9465 106.534 88.9679 106.789 87.9491 106.748C87.4933 106.735 87.0107 106.641 86.5817 106.467C86.1126 106.266 86.1796 105.998 86.2198 105.528C86.7962 100.099 89.3835 94.9249 91.7964 90.1124C92.8688 87.9809 93.9681 85.6216 96.0191 84.2676C98.1907 82.8333 100.858 82.23 103.271 81.3319C109.156 79.1468 114.84 76.4523 120.242 73.2619C120.618 73.034 120.953 72.5648 120.913 72.109C120.524 67.7657 119.13 63.5967 116.744 59.937C115.805 58.5026 113.486 59.8432 114.425 61.2909L114.438 61.2775Z" fill="black"/>
<path d="M100.443 90.1525C104.143 90.367 107.816 89.8308 111.435 89.1337C115.055 88.4366 118.755 87.5519 122.387 86.6135C124.05 86.1711 123.353 83.5839 121.677 84.0263C118.165 84.9512 114.612 85.7824 111.047 86.4928C107.481 87.2033 104.022 87.6993 100.443 87.4848C98.7137 87.3776 98.7271 90.0587 100.443 90.1659V90.1525Z" fill="black"/>
<path d="M126.436 55.9282C128.246 60.285 129.667 64.8025 130.632 69.414C131.101 71.6795 131.476 73.9718 131.718 76.2775C131.838 77.3767 131.959 78.476 131.999 79.5886C131.999 79.9237 132.093 81.0766 131.651 81.224C130.015 81.7603 130.712 84.3475 132.361 83.8113C134.694 83.0472 134.761 80.5136 134.6 78.4491C134.399 75.7949 134.05 73.1541 133.567 70.54C132.602 65.2851 131.074 60.1509 129.023 55.2178C128.742 54.5475 128.138 54.0783 127.374 54.2794C126.744 54.4537 126.154 55.258 126.436 55.9282Z" fill="black"/>
<path d="M123.152 86.2655C124.814 84.7909 127.146 84.7909 129.157 85.4746C131.53 86.2789 133.246 88.0618 134.399 90.2603C135.753 92.8341 136.275 95.7967 136.691 98.652C137.187 102.03 137.603 105.422 138.058 108.8C138.997 115.851 139.935 122.902 140.887 129.94C141.839 136.978 142.643 144.016 143.702 151.027C143.957 152.742 144.533 154.284 145.699 155.584C146.718 156.697 148.032 157.515 149.292 158.332C152.08 160.142 154.252 162.475 155.673 165.491C156.41 167.046 158.729 165.692 157.992 164.137C156.651 161.308 154.627 158.882 152.12 157.019C149.909 155.37 147.147 154.297 146.477 151.335C146.088 149.579 145.941 147.742 145.713 145.973C145.485 144.203 145.23 142.34 144.989 140.517C144.493 136.83 144.01 133.144 143.514 129.444C142.536 122.071 141.544 114.685 140.565 107.312C140.109 103.867 139.707 100.408 139.158 96.9898C138.675 94.0004 137.964 90.9708 136.423 88.33C134.881 85.6891 132.468 83.6381 129.479 82.7668C126.49 81.8954 123.554 82.3646 121.288 84.3754C120.001 85.5282 121.905 87.4184 123.178 86.2655H123.152Z" fill="black"/>
<path d="M118.62 98.3026C121.503 110.314 124.036 122.392 126.181 134.551C127.253 140.623 128.245 146.723 129.13 152.835C129.573 155.905 130.002 158.975 130.404 162.058C130.578 163.412 130.605 164.927 131.838 165.798C132.91 166.562 134.412 166.629 135.685 166.737C139.064 166.991 142.522 166.549 145.9 166.321C149.278 166.093 152.884 165.852 156.383 165.611C158.099 165.49 158.112 162.809 156.383 162.93C150.485 163.332 144.56 163.895 138.648 164.096C137.267 164.149 135.86 164.149 134.492 163.922C134.077 163.855 133.514 163.841 133.299 163.452C133.018 162.916 133.071 162.005 133.004 161.415C132.616 158.479 132.213 155.543 131.798 152.621C130.082 140.784 128.018 128.987 125.605 117.271C124.251 110.689 122.789 104.134 121.208 97.5921C120.805 95.9165 118.218 96.627 118.62 98.3026Z" fill="black"/>
<path d="M130.189 151.978C135.069 152.796 139.989 152.849 144.882 152.139C145.605 152.031 145.994 151.12 145.82 150.49C145.605 149.726 144.895 149.444 144.171 149.552C139.788 150.182 135.27 150.128 130.9 149.391C130.189 149.27 129.452 149.578 129.251 150.329C129.077 150.972 129.465 151.857 130.189 151.978Z" fill="black"/>
<path d="M94.5178 104.456C103.151 103.88 111.811 103.705 120.457 103.933C122.186 103.973 122.186 101.292 120.457 101.252C111.811 101.024 103.151 101.199 94.5178 101.775C92.8019 101.896 92.7885 104.577 94.5178 104.456Z" fill="black"/>
<path d="M85.4692 100.636C85.5094 100.73 85.563 100.837 85.6033 100.944C85.6033 100.944 85.6033 100.931 85.6033 100.917L85.6569 101.279C85.5899 101.494 85.5362 101.722 85.4692 101.95C85.4022 102.03 85.3352 102.124 85.2547 102.218C85.1609 102.285 85.0805 102.352 84.9866 102.419C84.9866 102.419 84.9866 102.419 85 102.419L84.6783 102.553C84.6783 102.553 84.6917 102.553 84.7051 102.553L84.3432 102.606C84.3432 102.606 84.37 102.606 84.3834 102.606L84.0214 102.553C84.0214 102.553 84.0617 102.553 84.0751 102.566L83.7533 102.432C83.7533 102.432 83.7667 102.432 83.7801 102.446L83.512 102.231C83.512 102.231 83.5254 102.231 83.5254 102.244L83.311 101.976C83.2707 101.883 83.2171 101.775 83.1769 101.668C83.1769 101.668 83.1769 101.681 83.1769 101.695L83.1233 101.333C83.1367 101.226 83.1501 101.105 83.1769 100.998C83.1769 101.011 83.1769 101.025 83.1769 101.038L83.311 100.716C83.311 100.716 83.2975 100.743 83.2841 100.756L83.4986 100.488C83.4986 100.488 83.4718 100.515 83.4584 100.515L83.7265 100.301C83.7265 100.301 83.6997 100.314 83.6863 100.327L84.008 100.193C84.008 100.193 83.941 100.22 83.9142 100.22L84.2761 100.167C84.1421 100.18 84.008 100.167 83.874 100.153C83.6997 100.14 83.5388 100.126 83.3646 100.1C83.0294 100.073 82.6809 100.033 82.3458 100.006C82.1581 100.006 81.9838 100.033 81.823 100.126C81.6621 100.18 81.5146 100.274 81.394 100.408C81.1661 100.636 80.9918 101.025 81.0052 101.36C81.0186 101.695 81.1393 102.07 81.394 102.311L81.6621 102.526C81.8766 102.647 82.0911 102.714 82.3324 102.714C82.7077 102.754 83.0697 102.781 83.445 102.821C83.874 102.861 84.2895 102.942 84.7185 102.821C84.9866 102.74 85.1877 102.606 85.4022 102.419C85.6435 102.204 85.7641 101.883 85.8043 101.574C85.8312 101.346 85.8446 101.266 85.7775 101.011C85.7507 100.891 85.6971 100.77 85.6301 100.663C85.4692 100.395 85.2279 100.207 84.9464 100.086C84.7319 99.9924 84.6113 99.9521 84.3566 99.9521C84.1019 99.9521 83.8472 100.019 83.6193 100.14C83.311 100.314 83.0697 100.622 82.9758 100.971C82.882 101.319 82.9356 101.735 83.1233 102.057C83.2976 102.352 83.5925 102.58 83.9276 102.673C84.2627 102.767 84.6783 102.727 84.9598 102.539C85.2413 102.352 85.496 102.084 85.5765 101.735C85.6569 101.387 85.6301 101.011 85.4424 100.703L85.4692 100.636Z" fill="black"/>
<path d="M80.6969 96.6408C79.8256 114.497 79.3966 132.379 79.3966 150.275C79.3966 155.383 79.4368 160.49 79.5173 165.598C79.5441 167.327 82.2251 167.327 82.1983 165.598C81.9436 147.715 82.1179 129.832 82.7345 111.963C82.9088 106.856 83.1233 101.748 83.378 96.6542C83.4584 94.925 80.7773 94.9384 80.6969 96.6542V96.6408Z" fill="black"/>
<path d="M80.9382 164.485C73.5921 164.578 66.2594 164.042 59.0072 162.863L59.9455 164.511C60.4549 162.983 60.9509 161.442 61.581 159.954C62.2513 158.372 63.136 156.911 64.0476 155.463C65.8037 152.675 67.1978 149.685 67.171 146.32C67.1576 144.591 64.4765 144.591 64.4899 146.32C64.5167 149.578 62.9081 152.246 61.2324 154.913C59.5568 157.581 58.3905 160.704 57.3583 163.801C57.1438 164.431 57.5996 165.343 58.2967 165.45C65.7768 166.67 73.3508 167.259 80.9382 167.166C82.6675 167.139 82.6675 164.458 80.9382 164.485Z" fill="black"/>
<path d="M65.9242 148.171C70.8573 148.171 75.8039 148.319 80.7236 148.64C82.4395 148.748 82.4395 146.066 80.7236 145.959C75.7905 145.637 70.8573 145.477 65.9242 145.49C64.1949 145.49 64.1949 148.171 65.9242 148.171Z" fill="black"/>
<path d="M65.9377 144.766C65.0127 144.699 64.0877 144.819 63.1896 145.074L64.8921 146.361C66.2326 135.382 67.2246 124.349 67.868 113.303C68.1764 107.888 68.4043 102.472 68.5517 97.0562C68.659 92.9408 68.2166 87.7395 71.0451 84.348C74.6913 80.0047 81.1929 80.8894 86.1395 81.5463C86.8634 81.6401 87.48 80.8626 87.48 80.2058C87.48 79.4014 86.8634 78.9591 86.1395 78.8652C81.1393 78.195 75.5225 77.6319 71.1389 80.6883C67.1039 83.5035 66.1656 88.2623 65.9779 92.8872C65.75 98.4772 65.6696 104.067 65.3881 109.644C65.1065 115.22 64.7044 121.132 64.2218 126.856C63.6722 133.358 63.0019 139.859 62.211 146.334C62.1038 147.205 63.1494 147.849 63.9135 147.621C64.6105 147.42 65.2272 147.366 65.9377 147.407C67.667 147.514 67.6536 144.833 65.9377 144.725V144.766Z" fill="black"/>
<path d="M85.4558 40.4854C85.7373 42.1879 86.3807 43.8501 87.3325 45.2845C87.7213 45.8743 88.539 46.1692 89.169 45.7671C89.7589 45.3917 90.0538 44.5606 89.6516 43.9306C89.2629 43.3407 88.9411 42.7241 88.6596 42.0672L88.7937 42.3889C88.4452 41.5444 88.1905 40.6731 88.043 39.7615C87.9894 39.4532 87.6811 39.118 87.4264 38.9572C87.1448 38.7829 86.7159 38.7159 86.3941 38.8231C86.0724 38.9304 85.7507 39.1315 85.5898 39.4398C85.4156 39.7749 85.3887 40.0966 85.4558 40.472V40.4854Z" fill="black"/>
<path d="M85.9518 81.801C88.8339 81.9216 91.582 82.4176 94.3569 83.3158C95.0272 83.5303 95.8449 83.0611 96.0058 82.3774C96.1666 81.6401 95.7779 80.9565 95.0674 80.7286C92.1182 79.7768 89.0484 79.2406 85.9518 79.1199C85.2547 79.0931 84.5844 79.75 84.6113 80.4605C84.6515 81.2112 85.2011 81.7742 85.9518 81.801Z" fill="black"/>
<mask id="mask0_136_1392" style="mask-type:alpha" maskUnits="userSpaceOnUse" x="-1" y="0" width="157" height="168">
<path d="M100.72 4.66016L90.7205 0.160156H79.7205L77.2205 7.66016V28.1602L61.7205 31.6602L20.2205 37.1602L8.72046 33.6602L5.72046 40.6602L-0.279541 48.6602L4.22046 52.1602H12.7205L23.2205 46.6602H61.7205L63.2205 48.6602L71.7205 46.6602L74.7205 50.1602L78.2205 77.1602L69.7205 80.6602L65.7205 85.6602L61.7205 144.16V151.66L56.2205 167.16H82.2205L131.72 166.16H155.72L154.72 159.66L145.72 151.16L137.72 94.1602L134.22 84.6602V78.6602L129.72 50.1602L117.72 33.6602L103.22 30.1602V26.1602L100.72 4.66016Z" fill="#D9D9D9"/>
</mask>
<g mask="url(#mask0_136_1392)">
<rect x="-465.78" y="49.6006" width="815.042" height="130.031" fill="url(#paint0_linear_136_1392)"/>
</g>
</g>
<defs>
<linearGradient id="paint0_linear_136_1392" x1="-58.2583" y1="179.632" x2="-58.2583" y2="49.6006" gradientUnits="userSpaceOnUse">
<stop stop-color="#191817"/>
<stop offset="1" stop-color="#191817" stop-opacity="0"/>
</linearGradient>
<clipPath id="clip0_136_1392">
<rect width="158.135" height="167.175" fill="white"/>
</clipPath>
</defs>
</svg>
