<svg width="174" height="170" viewBox="0 0 174 170" fill="none" xmlns="http://www.w3.org/2000/svg">
<g id="m-3" clip-path="url(#clip0_136_1404)">
<g id="Group 224">
<g id="Layer_3">
<path id="Vector" d="M170.715 37.9893C169.991 37.0241 168.945 36.4477 168.02 35.7104C167.765 35.5093 167.511 35.2814 167.269 35.0536C166.974 34.772 166.827 34.7318 167.015 34.3565C167.176 34.0348 167.47 33.7666 167.806 33.5522C168.02 33.4047 168.235 33.2706 168.476 33.1634C168.704 33.0428 168.798 32.8685 168.811 32.6808C168.918 32.5602 169.012 32.4395 169.079 32.2921C169.521 31.2464 168.65 30.5896 167.739 30.3483C167.604 30.3081 167.47 30.2947 167.336 30.2679C166.907 30.0534 166.425 29.9998 165.969 30.0936C165.808 30.0936 165.647 30.0936 165.486 30.0936C165.098 29.9998 164.709 30.0266 164.32 30.174C162.899 30.3483 161.478 30.737 160.272 31.2196C160.084 31.2867 159.963 31.4073 159.883 31.5414C159.776 31.5816 159.669 31.6084 159.575 31.6754C159.119 31.7693 158.65 31.8363 158.194 31.9167C157.577 32.024 156.947 32.1446 156.331 32.2518C156.076 32.3055 155.808 32.4529 155.58 32.654C155.191 32.6808 154.802 32.6942 154.414 32.7344C154.347 32.7344 154.293 32.7612 154.239 32.7747C154.012 32.654 153.743 32.5736 153.435 32.5334C141.397 31.3269 129.332 30.1338 117.241 30.1874H117.107C117.201 29.7585 117.187 29.3161 117.026 28.8737C116.852 28.4179 116.41 28.2973 116.021 28.5252C115.9 28.5252 115.793 28.5788 115.699 28.6458C115.511 28.5922 115.31 28.552 115.083 28.5386C114.506 28.5252 113.943 28.5386 113.367 28.5386C110.096 28.3107 106.825 28.0962 103.554 27.8683C102.562 27.7209 101.583 27.5734 100.591 27.4259C100.578 27.4259 100.565 27.4259 100.551 27.4259C98.9559 27.064 97.3473 26.7155 95.7387 26.4071C96.6904 21.7823 96.0604 15.8572 95.7387 13.0823C95.4438 10.6425 95.1354 7.92122 93.9826 5.69594C93.9826 5.50827 93.9692 5.32059 93.9156 5.13292C93.9156 5.13292 93.9156 5.13292 93.9156 5.11951C93.9021 4.90503 93.8753 4.67714 93.8217 4.46265C93.7949 4.34201 93.7681 4.23476 93.7145 4.12752C93.6072 3.87282 93.5134 3.59131 93.3659 3.36342C93.2185 3.13553 93.0442 2.90764 92.8565 2.70656C92.6689 2.50548 92.4141 2.33121 92.1997 2.17035C92.1058 2.10332 92.012 2.0497 91.9048 1.99608C91.6501 1.88884 91.3819 1.74138 91.1004 1.68776C90.9262 1.66094 90.7385 1.63413 90.5642 1.62073C90.2827 1.62073 90.028 1.67435 89.7867 1.795C89.7331 1.8084 89.6929 1.86202 89.6393 1.87543C89.5454 1.84862 89.465 1.82181 89.3712 1.795C88.4194 1.17835 87.1861 0.937059 85.7517 1.33922C84.4782 1.70116 83.2181 2.0497 81.9446 2.41164C80.8722 2.57251 79.8266 2.86742 78.7542 3.3098C78.3654 3.47066 78.0303 3.67174 77.7085 3.89963C77.5611 3.95325 77.4136 3.99347 77.2662 4.06049C73.0301 5.88362 73.5797 11.5407 73.8612 15.3075C73.9551 16.581 74.1025 17.8411 74.2768 19.1012C73.4725 21.7153 74.2768 24.8923 75.9658 27.4527C76.0195 27.694 76.0597 27.9219 76.1267 28.1632C73.9953 29.3563 71.8772 30.5494 69.7458 31.7424C69.4911 31.8899 69.2766 32.0642 69.1023 32.2653C68.4455 32.4931 67.802 32.7344 67.1586 32.9489C65.6572 33.4449 64.1558 33.9141 62.641 34.3699C62.3863 34.4235 62.145 34.4771 61.8903 34.5442C60.0538 34.9463 58.2306 35.4691 56.4611 36.126C55.8043 36.3673 55.3485 36.7828 55.0402 37.252C52.654 38.2574 50.3483 39.4639 48.1632 40.8715C47.9354 41.0189 47.7611 41.1798 47.6002 41.3406C44.6511 42.8286 41.8359 44.5713 39.2755 46.7698C38.9672 47.0379 38.7661 47.373 38.6455 47.7484C36.9832 48.3248 35.321 48.8878 33.6453 49.4643C30.2404 50.2954 26.8086 50.9656 23.3366 51.4616C19.6636 51.9844 15.7224 51.904 12.0494 52.6815C10.8295 51.9979 9.47554 51.5957 8.0948 51.3678C7.30388 51.2338 6.48616 51.1265 5.68184 51.0327C5.50757 51.0193 5.3199 51.0059 5.14563 51.0193C4.93114 50.9925 4.71666 50.9656 4.50217 50.9522C3.75148 50.8986 3.17505 51.6627 3.16164 52.3732C3.08121 52.7083 3.09462 53.0569 3.28229 53.3384C3.75148 54.0221 4.22066 54.7057 4.68985 55.3894C4.77028 55.9524 4.73006 56.5288 4.58261 57.1053C4.48877 57.1589 4.39493 57.2125 4.32791 57.293C3.77829 57.923 3.24208 58.5665 2.71927 59.2099C2.18306 59.8802 1.56641 60.5504 1.2849 61.3682C0.708473 63.017 1.87473 64.6659 3.52359 65.0144C4.87752 65.2959 6.47275 65.0546 7.78647 64.6391C8.42993 64.438 9.01976 64.1565 9.56938 63.7945C10.9367 63.3119 12.1968 62.5746 13.4167 61.7837C13.4703 61.7569 13.5239 61.7301 13.5776 61.7033C15.3203 61.4084 17.0495 61.1001 18.7922 60.8051C20.5751 60.7247 22.358 60.7649 24.1007 60.7247C28.1357 60.6175 32.1573 60.4298 36.1655 59.8936C36.313 59.8802 36.447 59.8534 36.5945 59.8266C36.9162 59.9472 37.2781 59.9874 37.6803 59.9204C40.0128 59.5182 42.3051 58.9284 44.5438 58.1911C45.6431 57.99 46.6753 57.6683 47.6673 57.2259C48.7531 56.8238 49.7987 56.3278 50.8175 55.7647C52.024 55.1883 53.2036 54.5449 54.3431 53.821C55.2949 54.6655 56.3137 55.4832 57.4531 55.7379C58.4719 55.9792 59.5578 55.6173 60.3085 54.9202C61.2066 54.5851 62.1182 54.2365 63.0163 53.9014C63.2844 53.9416 63.5659 53.9416 63.8743 53.9014C64.1424 53.8612 64.3971 53.7808 64.6518 53.7003C64.7456 53.754 64.826 53.8076 64.9333 53.8612C65.3086 54.0221 65.6706 54.1561 66.0191 54.2768C65.9789 54.6655 66.0057 55.0677 66.1264 55.4564C66.9307 57.8962 67.5339 60.3896 67.9897 62.9098C68.2042 66.0064 68.2444 69.103 68.0701 72.1862C66.9709 76.2615 65.8851 80.3501 64.7858 84.4253C64.7858 84.4253 64.7858 84.4253 64.7858 84.4387C58.0832 87.4415 53.7801 94.1039 52.3055 101.236C51.0454 107.375 51.7827 113.515 52.9489 119.601C52.3859 130.566 52.8015 141.478 54.1018 152.404C52.6272 154.615 51.5146 157.015 50.8175 159.562C50.1338 161.291 49.5172 163.047 49.0346 164.844C48.8067 165.675 49.4502 166.56 50.3215 166.546C52.4932 166.506 54.6648 166.479 56.8365 166.439C59.0081 166.399 61.3809 166.64 63.5257 166.318C63.6196 166.305 63.6866 166.265 63.7804 166.251C63.9413 167.109 64.8394 167.324 65.5365 167.082C66.3945 167.418 67.5473 166.707 67.3596 165.501L66.8636 162.323C66.877 161.814 66.7832 161.291 66.6223 160.795C66.6223 160.742 66.6089 160.688 66.5955 160.634C66.5955 160.634 66.5821 160.634 66.5687 160.634C66.5285 160.527 66.5017 160.407 66.4615 160.299C66.3676 160.112 66.2604 159.964 66.1398 159.857C66.0459 156.841 66.0325 153.825 66.0995 150.808C66.2202 149.682 66.3542 148.556 66.4749 147.444C67.6143 141.733 69.1694 136.049 69.7994 130.245C69.9335 128.958 69.5313 127.993 68.8476 127.349C68.9951 124.748 69.1291 122.134 69.2766 119.534C69.6922 117.161 70.1479 114.788 70.6842 112.429C71.2874 111.799 71.9174 111.182 72.5341 110.579C74.0757 109.52 75.6173 108.448 77.1187 107.362C79.6657 105.914 82.3334 104.708 85.0815 103.675C86.8912 103.595 88.7143 103.528 90.524 103.447C94.8137 103.742 99.586 103.756 103.996 104.627C104.586 105.512 105.136 106.41 105.685 107.308C106.342 109.614 106.865 111.933 107.294 114.265C107.039 121.545 106.878 128.824 106.838 136.103C106.195 141.599 105.86 147.135 105.833 152.685C105.833 152.698 105.806 152.712 105.806 152.739C105.672 153.61 105.538 154.481 105.39 155.353C105.364 155.406 105.323 155.447 105.31 155.514C104.894 156.586 104.734 157.766 104.841 158.905C104.841 158.959 104.868 158.999 104.868 159.039C104.801 159.616 104.72 160.205 104.653 160.782C104.559 161.559 104.466 162.337 104.372 163.114C104.291 163.811 104.13 164.535 104.224 165.232C104.425 166.667 105.94 167.377 107.08 166.667C107.08 166.667 107.106 166.667 107.12 166.667C109.921 166.975 112.723 167.015 115.525 166.814C115.605 166.828 115.672 166.868 115.766 166.868C117.321 166.948 118.863 167.136 120.391 167.444C120.874 167.538 121.303 167.404 121.611 167.136C122.026 166.962 122.335 166.586 122.321 165.956C122.201 160.353 121.517 154.763 120.324 149.28C121.745 137.859 122.978 126.424 123.153 114.949C123.287 114.708 123.394 114.453 123.447 114.131C124.265 108.877 124.52 103.595 124.064 98.3132C124.104 97.7636 124.118 97.2274 124.104 96.6777C124.654 96.1013 124.922 95.2702 124.56 94.2782C124.118 93.0449 123.488 91.9993 122.67 91.1413C122.455 90.8464 122.214 90.6185 121.933 90.4577C121.343 89.9751 120.686 89.5595 119.949 89.2378C119.815 89.0769 119.654 88.9295 119.466 88.7954C118.903 88.3798 118.313 87.9777 117.737 87.5889C115.15 85.6452 112.12 84.1974 109.198 82.8971C109.144 82.8703 109.104 82.8569 109.05 82.8435C107.911 81.7576 106.785 80.6852 105.645 79.5994C105.458 79.4251 105.256 79.2776 105.069 79.1704C104.466 76.2749 104.077 73.3659 103.889 70.4301C103.996 68.5668 104.144 66.7035 104.345 64.8401C105.109 59.2635 106.557 53.8076 108.661 48.5393C110.913 48.3248 113.179 48.1103 115.431 47.8958C116.624 47.7886 117.294 47.0513 117.442 45.885C117.562 44.9064 117.683 43.9279 117.804 42.9359C119.493 42.8018 121.169 42.5739 122.831 42.2656C123.059 42.2924 123.3 42.3058 123.568 42.2656C126.584 41.7562 129.587 41.2602 132.603 40.7508C139.762 41.0189 146.92 41.1262 154.079 41.0591C154.936 41.0591 155.5 40.6168 155.794 40.0403C155.902 40.0805 155.995 40.1208 156.116 40.161C156.398 40.228 156.666 40.3218 156.947 40.4023C157.819 40.9787 158.851 41.3272 159.803 41.716C161.344 42.3594 162.899 42.9895 164.441 43.6329C166.344 44.4105 168.69 45.2148 170.473 44.1692C170.621 44.1692 170.755 44.1021 170.889 43.9681C171.009 43.834 171.117 43.7 171.237 43.5793C171.278 43.5391 171.304 43.4989 171.345 43.4587C171.398 43.3917 171.452 43.338 171.505 43.271C171.505 43.271 171.586 43.1772 171.613 43.137C171.8 42.8823 171.733 42.6141 171.559 42.4131C171.921 40.8983 171.653 39.236 170.701 37.9625L170.715 37.9893ZM113.045 163.275C113.045 163.275 113.139 163.396 113.192 163.463C113.072 163.463 112.951 163.463 112.83 163.463C112.911 163.396 112.978 163.342 113.058 163.262L113.045 163.275ZM57.118 159.562C57.0107 159.803 56.9035 160.045 56.8231 160.286C56.7695 160.353 56.7158 160.407 56.6756 160.474C56.8231 160.165 56.9839 159.87 57.1314 159.562H57.118Z" fill="#944EBE"/>
</g>
<g id="Layer_2">
<path id="Vector_2" d="M77.5878 2.35795C74.2901 3.4974 72.8825 6.70127 72.534 9.94535C72.172 13.3503 72.3463 16.9563 72.7887 20.3479C73.593 26.5411 75.9255 34.6647 83.1644 35.6299C85.9929 36.0053 88.9823 35.2546 91.3014 33.5923C93.9423 31.7022 95.5107 28.9541 96.1407 25.7904C96.8244 22.3721 96.8244 18.7392 96.744 15.2539C96.6635 11.7685 96.4088 7.93455 95.3096 4.55642C94.7466 2.84054 93.7144 1.43298 92.0119 0.709095C90.4435 0.0254242 88.7008 -0.0550076 87.0251 0.0254243C83.0169 0.199693 79.116 1.20509 75.4832 2.89416C74.8263 3.20248 74.6654 4.14085 75.0006 4.73069C75.3893 5.40095 76.1802 5.5216 76.8371 5.21328C79.5584 3.95318 82.5209 3.10864 85.4969 2.82713C87.5613 2.62605 90.9261 2.21049 92.2532 4.27491C92.9905 5.42776 93.1782 7.02299 93.4195 8.35012C93.6876 9.85151 93.8484 11.3663 93.9423 12.8811C94.1433 16.0045 94.1031 19.1548 93.8886 22.2782C93.701 24.9191 93.2184 27.8146 91.4221 29.8924C89.9475 31.5949 87.8294 32.7478 85.5908 33.0159C83.0706 33.3108 80.5638 32.4931 78.9819 30.4421C77.2527 28.19 76.3679 25.2542 75.8049 22.5195C75.1346 19.3023 75.0006 15.9911 75.0542 12.7202C75.0944 10.066 75.2016 6.0176 78.2581 4.95858C79.8801 4.39555 79.183 1.80833 77.5476 2.37135L77.5878 2.35795Z" fill="black"/>
<path id="Vector_3" d="M75.4698 20.1603L77.0651 15.7634C77.5342 14.463 77.923 13.0689 78.5262 11.8222C78.6737 11.5139 78.9016 10.9777 79.2367 10.8168C79.5718 10.6425 80.0678 10.9911 80.403 11.1251C81.6229 11.5943 82.9902 11.6479 84.2503 11.3396C84.8535 11.1921 85.4434 10.9374 85.9796 10.6425C86.4756 10.361 87.0118 9.86502 87.615 9.8114C88.6874 9.70416 89.6794 10.9374 90.3095 11.6479C92.0254 13.6051 93.2587 15.951 93.996 18.431C94.4919 20.0799 97.0792 19.3828 96.5832 17.7205C95.8861 15.4014 94.8271 13.1895 93.3793 11.2324C92.0388 9.42265 90.2291 7.17056 87.7625 7.14375C86.5024 7.13034 85.5506 7.82742 84.505 8.40384C83.513 8.95346 82.3333 8.99368 81.2743 8.61833C80.1617 8.21617 79.1831 7.84082 78.0436 8.43065C77.1455 8.88643 76.5154 9.798 76.1133 10.6962C74.8264 13.5113 73.9416 16.5677 72.8826 19.4766C72.2928 21.0987 74.88 21.7957 75.4698 20.1871V20.1603Z" fill="black"/>
<path id="Vector_4" d="M73.1507 18.8732C73.4188 21.8223 74.6119 24.8922 76.8372 26.9298C78.0437 28.029 79.5719 28.3105 81.0599 27.6402C81.7167 27.3453 82.3066 26.9164 82.8026 26.407C83.2315 25.9646 83.5667 25.4284 84.0358 25.0128C85.0546 24.1281 86.5292 25.1871 87.4944 25.6831C88.9556 26.4204 90.6044 26.9968 92.1863 26.2863C94.7735 25.1469 96.4358 21.8894 96.9183 19.2351C97.039 18.5246 96.7307 17.7873 95.98 17.5863C95.3365 17.412 94.4652 17.8007 94.3311 18.5246C94.13 19.6641 93.7547 20.7231 93.1515 21.7017C92.6689 22.4792 91.8377 23.7125 90.8725 23.927C89.7599 24.1683 88.5132 23.1495 87.5748 22.7205C86.3952 22.1709 85.0815 21.7687 83.7945 22.1441C82.6149 22.4926 81.9312 23.3505 81.1671 24.2353C80.6041 24.8787 79.6657 25.7635 78.8212 25.1066C77.0383 23.7259 76.0329 21.0582 75.8318 18.8866C75.7648 18.1627 75.2554 17.546 74.4913 17.546C73.821 17.546 73.0837 18.1627 73.1507 18.8866V18.8732Z" fill="black"/>
<path id="Vector_5" d="M74.7191 27.519C72.5206 29.3824 70.3623 30.9106 67.5338 31.6747C64.9064 32.3852 62.1717 32.6801 59.5711 33.5246C54.209 35.2673 49.5841 38.5918 45.1068 41.9163C44.5035 42.3587 44.2622 43.0424 44.6242 43.7529C46.3266 47.0103 48.5117 50.0399 51.0855 52.6674C52.359 53.9811 53.7532 55.1742 55.2009 56.2868C55.9382 56.8498 56.6487 57.4531 57.5871 57.6139C58.6193 57.7882 59.504 57.252 60.3754 56.7828C61.2467 56.3136 62.1181 55.8444 62.976 55.3753C63.2575 55.2144 63.901 54.6916 64.2629 54.705C64.4238 54.705 64.5176 54.8525 64.6383 55.0803C65.027 55.7774 65.2013 56.622 65.4024 57.3861C65.6571 58.3244 65.885 59.2762 66.0861 60.228C66.8367 63.9815 67.0244 67.8422 66.7027 71.6627C66.3408 75.9256 65.2683 80.1751 63.5525 84.1028C63.2575 84.7597 63.3514 85.5372 64.035 85.9393C64.5981 86.2745 65.5767 86.127 65.8716 85.4568C69.1157 78.0168 70.2283 69.853 69.062 61.8232C68.7805 59.8392 68.3515 57.882 67.7885 55.9785C67.3059 54.3699 66.6759 52.3859 64.7857 52.0641C63.7267 51.8765 62.8152 52.4395 61.917 52.9221C60.9518 53.4449 59.9866 53.9677 59.0215 54.4905C58.807 54.6112 58.2976 55.0133 58.0563 55.0133C57.748 55.0133 57.2654 54.5173 57.0107 54.3296C56.2063 53.7398 55.4422 53.0964 54.7049 52.4261C51.5279 49.5842 48.9273 46.1926 46.9567 42.4257L46.4741 44.2623C50.9783 40.9109 55.6701 37.4524 61.1395 35.8839C63.8474 35.1064 66.6893 34.8517 69.3704 33.9536C72.0514 33.0554 74.3973 31.3261 76.6226 29.436C77.9363 28.3234 76.0328 26.4332 74.7325 27.5458L74.7191 27.519Z" fill="black"/>
<path id="Vector_6" d="M95.6314 28.2697C97.0658 27.5592 98.7817 27.9614 100.27 28.2697C102.106 28.6585 103.956 28.9668 105.833 29.1947C109.573 29.6638 113.367 29.7443 117.12 29.4896L115.833 28.511C116.41 31.6746 116.517 34.8919 116.41 38.0958C116.356 39.7178 116.249 41.3265 116.101 42.9351C116.034 43.6858 115.967 44.4365 115.9 45.1872C115.86 45.6162 115.82 46.0451 115.78 46.4741C115.753 46.7422 115.793 47.1712 115.646 47.3857L116.128 46.9031C115.887 47.0505 114.627 46.9165 114.184 46.9299C113.46 46.9433 112.75 46.9567 112.026 46.9701C110.538 46.9969 109.05 47.0371 107.549 47.0639C105.819 47.1042 105.819 49.7852 107.549 49.745C110.31 49.6914 113.072 49.6512 115.833 49.5707C117.08 49.5305 118.099 49.1418 118.313 47.7878C118.528 46.4339 118.595 45.0799 118.715 43.726C119.198 38.4041 119.372 33.0688 118.42 27.7871C118.327 27.2509 117.67 26.7683 117.134 26.8085C113.166 27.0766 109.171 26.9828 105.23 26.4332C103.38 26.1785 101.557 25.7361 99.7066 25.4278C97.8567 25.1194 96.0202 25.0792 94.2775 25.9506C92.7359 26.7147 94.0898 29.0338 95.6314 28.2697Z" fill="black"/>
<path id="Vector_7" d="M107.549 47.1984C103.152 53.7938 102.709 61.9978 102.964 69.6925C103.085 73.4058 102.79 77.8161 105.149 80.9395C107.227 83.6876 110.498 84.9611 113.514 86.3687C117.361 88.1784 120.659 90.7656 123.032 94.3314C123.984 95.7658 126.303 94.4253 125.351 92.9775C123.273 89.8675 120.538 87.2132 117.308 85.3231C114.519 83.6876 111.235 82.8029 108.688 80.7653C107.441 79.7599 106.583 78.4998 106.195 76.9314C105.752 75.135 105.793 73.2047 105.712 71.3682C105.551 67.5879 105.484 63.7942 105.927 60.0273C106.396 55.9655 107.589 51.9975 109.868 48.5657C110.833 47.1314 108.5 45.7774 107.549 47.2118V47.1984Z" fill="black"/>
<path id="Vector_8" d="M117.589 31.2205C130.418 32.3868 143.26 33.3252 156.13 34.0491C157.859 34.1429 157.845 31.4618 156.13 31.368C143.274 30.6441 130.418 29.6923 117.589 28.5395C116.865 28.4725 116.249 29.1963 116.249 29.88C116.249 30.6575 116.865 31.1535 117.589 31.2205Z" fill="black"/>
<path id="Vector_9" d="M118.219 44.2766C121.356 44.4374 124.439 43.7404 127.482 43.0433C130.525 42.3462 133.461 41.7966 136.571 42.0111C139.842 42.2256 143.086 42.6679 146.37 42.6411C149.655 42.6143 153.127 42.2926 156.451 41.7162C157.162 41.5955 157.564 40.7108 157.39 40.0673C157.189 39.3166 156.451 39.0083 155.741 39.1289C152.537 39.692 149.293 39.9601 146.049 39.9601C142.805 39.9601 139.52 39.4909 136.249 39.3032C132.979 39.1155 130.096 39.7054 127.067 40.389C124.037 41.0727 121.236 41.743 118.219 41.5955C116.49 41.5151 116.503 44.1961 118.219 44.2766Z" fill="black"/>
<path id="Vector_10" d="M157.43 33.687C160.138 32.4403 163.127 31.6628 166.103 31.4885C166.586 31.4617 167.31 31.3679 167.725 31.6628C167.832 31.7432 167.966 31.8505 167.966 31.9979C167.966 31.9845 167.993 31.9577 167.832 32.0382C166.599 32.6548 165.473 33.8747 165.982 35.3493C166.398 36.5691 167.94 37.0517 168.771 37.9633C169.602 38.8749 170.098 39.9607 170.285 41.127C170.446 42.1592 170.366 43.379 169.133 43.5533C167.993 43.7008 166.733 43.1914 165.661 42.8562C162.417 41.824 159.32 40.4433 156.371 38.7676C154.869 37.9097 153.515 40.2288 155.017 41.0867C158.207 42.8964 161.585 44.3844 165.084 45.4971C166.586 45.9663 168.141 46.422 169.736 46.1673C171.331 45.9126 172.564 44.7062 172.9 43.1243C173.583 39.9071 171.666 36.4485 169.025 34.7058C168.958 34.6522 168.73 34.4779 168.623 34.4511L168.422 34.3305C168.342 34.8533 168.369 35.0141 168.503 34.8399C168.61 34.8399 169.066 34.4645 169.186 34.3841C169.95 33.8881 170.54 33.2044 170.621 32.266C170.768 30.644 169.481 29.2633 167.953 28.9415C166.063 28.5394 163.891 28.9952 162.028 29.3839C159.963 29.8129 157.979 30.5234 156.076 31.3947C155.419 31.703 155.258 32.6548 155.593 33.2312C155.982 33.9015 156.773 34.0087 157.43 33.7138V33.687Z" fill="black"/>
<path id="Vector_11" d="M45.6564 42.5336C42.9753 43.3513 40.7098 44.9331 38.3103 46.3273C35.7767 47.8018 33.0286 48.8072 30.1867 49.4909C27.3448 50.1746 24.4626 50.4829 21.5537 50.6706C18.4973 50.8583 15.414 50.9923 12.4515 51.8502C10.8026 52.3328 11.4997 54.9201 13.1619 54.4375C16.0575 53.6063 19.0335 53.5125 22.0228 53.3248C25.0122 53.1372 27.9882 52.7752 30.9106 52.0781C33.8329 51.3811 36.514 50.4025 39.061 48.9949C41.4739 47.6678 43.7126 45.9385 46.3803 45.1208C48.0291 44.6248 47.3187 42.0242 45.6698 42.5336H45.6564Z" fill="black"/>
<path id="Vector_12" d="M14.1271 62.8425C24.8781 61.0864 36.085 62.923 46.5545 59.3303C49.2624 58.4054 51.8362 57.1319 54.1419 55.4294C54.7183 55.0004 55.0133 54.2631 54.6245 53.5929C54.2894 53.0164 53.3778 52.6813 52.788 53.1103C44.2622 59.4108 33.2028 58.955 23.1355 59.3437C19.878 59.4778 16.6339 59.7191 13.4166 60.2419C12.7061 60.3625 12.304 61.2473 12.4782 61.8908C12.6927 62.6549 13.4166 62.9498 14.1271 62.8291V62.8425Z" fill="black"/>
<path id="Vector_13" d="M12.3308 51.4759C11.0439 50.7788 9.66316 50.2292 8.2288 49.9208C6.79443 49.6125 5.27963 49.3444 3.92569 49.8672C2.65219 50.3498 1.70041 51.5831 1.86128 52.9907C1.94171 53.6609 2.26344 54.2105 2.679 54.7199C2.9337 55.0417 3.36267 55.3634 3.46991 55.7656C3.71121 56.7039 2.49133 57.7093 1.9283 58.2992C1.00334 59.2643 0.185615 60.31 0.0247516 61.6773C-0.28357 64.3986 2.34387 66.3557 4.82385 66.4898C6.4727 66.5836 8.05453 65.967 9.52911 65.3235C11.1109 64.6399 12.6928 63.9294 14.2612 63.2189C14.918 62.924 15.0789 61.9588 14.7438 61.3824C14.3416 60.6987 13.5775 60.6049 12.9072 60.8998C11.7678 61.4092 10.6283 61.9052 9.4889 62.4146C8.45669 62.8704 7.42448 63.353 6.32524 63.6345C5.4673 63.849 4.54234 63.916 3.73802 63.487C3.16159 63.1787 2.55835 62.5889 2.6656 61.8784C2.78624 61.1143 3.52354 60.4842 4.03294 59.9614C4.82385 59.1571 5.53433 58.2992 5.92308 57.2133C6.31184 56.1275 6.218 55.0283 5.61476 54.1033C5.42709 53.8218 4.38148 52.8834 4.54234 52.5751C4.89088 51.878 6.68719 52.3338 7.2368 52.4544C8.53712 52.7226 9.77041 53.1649 10.9501 53.795C12.4649 54.6127 13.8188 52.2936 12.304 51.4759H12.3308Z" fill="black"/>
<path id="Vector_14" d="M74.6923 110.11C77.7219 106.678 81.9311 104.573 86.5024 104.265C91.8377 103.903 97.106 105.324 102.441 105.096C104.157 105.016 104.171 102.335 102.441 102.415C96.7976 102.656 91.2076 101.048 85.564 101.664C80.6442 102.214 76.0864 104.493 72.8021 108.206C71.6627 109.493 73.5528 111.397 74.6923 110.096V110.11Z" fill="black"/>
<path id="Vector_15" d="M66.0593 82.6563C75.7915 87.7771 87.6284 88.5412 97.9907 84.8547C100.913 83.8225 103.715 82.4418 106.302 80.7393C107.736 79.8009 106.396 77.4684 104.948 78.4202C96.3821 84.0638 85.5238 85.8333 75.5636 83.3936C72.7351 82.6965 70.0004 81.6777 67.4132 80.3237C65.885 79.5194 64.5311 81.8386 66.0593 82.6429V82.6563Z" fill="black"/>
<path id="Vector_16" d="M101.382 104.815C104.747 105.914 106.047 109.735 106.248 112.952C106.382 115.164 106.195 117.389 106.074 119.601C105.954 121.813 105.819 124.038 105.699 126.25C105.444 130.795 105.189 135.339 104.935 139.883C104.814 142.095 104.68 144.321 104.559 146.533C104.466 148.262 103.956 150.97 106.074 151.734C107.093 152.096 108.34 151.854 109.399 151.801C110.726 151.734 112.053 151.667 113.38 151.6C115.927 151.466 118.461 151.332 121.008 151.211C122.724 151.117 122.737 148.436 121.008 148.53C116.477 148.758 111.946 149.053 107.415 149.227C107.307 149.227 107.12 149.267 107.026 149.227C107.267 149.307 107.16 149.388 107.147 149.187C107.12 148.798 107.147 148.409 107.173 148.021C107.24 146.854 107.307 145.688 107.374 144.535C107.495 142.323 107.629 140.098 107.75 137.886C108.005 133.342 108.259 128.797 108.514 124.253C108.635 122.041 108.769 119.829 108.889 117.631C109.01 115.539 109.077 113.448 108.795 111.357C108.246 107.402 106.101 103.528 102.12 102.228C100.471 101.692 99.7737 104.279 101.409 104.815H101.382Z" fill="black"/>
<path id="Vector_17" d="M122.053 150.165C123.206 135.031 124.359 119.883 125.525 104.748C125.686 102.657 125.847 100.579 126.008 98.488C126.142 96.5844 126.169 94.6406 125.498 92.8309C125.244 92.1473 124.587 91.6915 123.849 91.8926C123.193 92.0668 122.656 92.8577 122.911 93.5414C123.487 95.0964 123.461 96.7051 123.34 98.3405C123.206 100.204 123.059 102.054 122.911 103.917C122.63 107.63 122.348 111.344 122.067 115.057C121.49 122.537 120.927 130.031 120.351 137.511L119.385 150.152C119.251 151.868 121.932 151.868 122.067 150.152L122.053 150.165Z" fill="black"/>
<path id="Vector_18" d="M119.091 150.741C120.163 156.331 120.793 161.988 120.981 167.672L122.321 166.332C116.383 165.943 110.431 165.554 104.492 165.152L105.833 166.492C105.846 163.825 106.007 161.157 106.315 158.516C106.463 157.229 106.651 155.956 106.878 154.669C106.986 154.025 107.106 153.382 107.24 152.739C107.334 152.296 107.428 151.304 107.616 151.023L106.811 151.639L106.945 151.599L105.645 151.251L105.712 151.304L105.323 150.352V150.446C105.377 150.218 105.431 149.991 105.498 149.776L105.444 149.843L107.281 149.36L107.227 149.334C105.739 148.449 104.398 150.768 105.873 151.653L105.927 151.68C106.597 152.082 107.334 151.773 107.763 151.197C108.219 150.58 108.004 149.682 107.415 149.253C106.677 148.717 105.659 149.025 105.23 149.803C104.827 150.527 104.76 151.546 104.6 152.35C104.412 153.315 104.238 154.28 104.09 155.245C103.514 158.972 103.192 162.726 103.165 166.492C103.165 167.257 103.782 167.779 104.506 167.833C110.444 168.222 116.396 168.61 122.335 169.013C123.045 169.053 123.702 168.356 123.675 167.672C123.474 161.747 122.804 155.849 121.691 150.017C121.37 148.328 118.782 149.039 119.104 150.728L119.091 150.741Z" fill="black"/>
<path id="Vector_19" d="M72.601 107.455C67.3327 113.501 68.1773 121.705 68.003 129.145C67.9092 133.394 66.9574 137.456 66.1531 141.599C65.3488 145.741 64.96 149.642 64.9332 153.704C64.9198 158.395 65.4292 163.087 66.4346 167.672L67.7215 165.969C61.3808 165.299 54.9999 165.098 48.6323 165.366L49.9192 167.069C50.8308 161.492 53.0561 156.157 56.5281 151.679C56.9704 151.103 57.0911 150.339 56.5281 149.789C56.0723 149.333 55.0803 149.213 54.6379 149.789C50.8844 154.642 48.324 160.299 47.3454 166.358C47.2114 167.176 47.694 168.101 48.6323 168.061C54.9999 167.792 61.3808 167.994 67.7215 168.664C68.6465 168.758 69.1827 167.739 69.0084 166.961C67.3461 159.307 67.1317 151.304 68.4856 143.583C69.1827 139.641 70.2283 135.767 70.5366 131.759C70.8449 127.751 70.4964 123.702 70.8047 119.667C71.0862 116.008 72.0112 112.16 74.4778 109.332C75.6038 108.032 73.7137 106.128 72.5876 107.442L72.601 107.455Z" fill="black"/>
<path id="Vector_20" d="M53.8471 151.68C54.4905 152.645 55.4557 152.832 56.5416 152.832C57.6274 152.832 58.6864 152.832 59.7588 152.832C61.9439 152.832 64.129 152.832 66.3006 152.832C68.0299 152.832 68.0299 150.151 66.3006 150.151C64.4105 150.151 62.5337 150.151 60.6436 150.151C59.7186 150.151 58.7936 150.151 57.8687 150.151C57.4263 150.151 56.9839 150.151 56.5416 150.151C56.3673 150.151 56.193 150.151 56.0188 150.151C56.1126 150.165 56.0858 150.151 55.9249 150.125C56.0322 150.165 56.1126 150.232 56.1662 150.326C55.7641 149.722 54.9865 149.468 54.3297 149.843C53.7264 150.192 53.4449 151.076 53.8471 151.68Z" fill="black"/>
<path id="Vector_21" d="M64.3299 82.6824C61.6622 86.2616 57.7211 88.6075 54.7719 91.932C53.3509 93.5273 52.1579 95.3102 51.434 97.3344C50.6297 99.573 50.6967 101.986 50.7503 104.332C50.938 114.56 50.9514 124.815 51.4608 135.03C51.7423 140.687 52.2383 146.317 53.1633 151.907C53.2839 152.618 54.1687 153.02 54.8121 152.846C55.5762 152.631 55.8711 151.907 55.7505 151.197C54.1419 141.438 53.9274 131.531 53.7531 121.665C53.6593 116.665 53.5654 111.665 53.4716 106.664C53.4314 104.372 53.1633 101.919 53.5788 99.6535C53.9542 97.6293 54.9998 95.8062 56.3135 94.2377C59.4504 90.5111 63.7132 87.964 66.649 84.0363C67.078 83.4599 66.7428 82.5349 66.1664 82.1998C65.4827 81.7976 64.7723 82.0925 64.3299 82.6824Z" fill="black"/>
</g>
</g>
<g id="Mask group">
<mask id="mask0_136_1404" style="mask-type:alpha" maskUnits="userSpaceOnUse" x="-6" y="22" width="179" height="148">
<path id="Vector 3" d="M1.5 70.5004L51 65.5004V99V148L46.5 169.5H95L123 167V148L126.5 93.5L116.5 65.5004L173 42.0004V31.5002L133 22.6113L93 31.5004L-5.5 42.0004L1.5 70.5004Z" fill="#D9D9D9"/>
</mask>
<g mask="url(#mask0_136_1404)">
<rect id="Rectangle 45" x="-502" y="45" width="815.042" height="130.031" fill="url(#paint0_linear_136_1404)"/>
</g>
</g>
</g>
<defs>
<linearGradient id="paint0_linear_136_1404" x1="-94.4788" y1="175.031" x2="-94.4788" y2="45" gradientUnits="userSpaceOnUse">
<stop stop-color="#191817"/>
<stop offset="1" stop-color="#191817" stop-opacity="0"/>
</linearGradient>
<clipPath id="clip0_136_1404">
<rect width="173.039" height="169.015" fill="white"/>
</clipPath>
</defs>
</svg>
