<svg width="82" height="163" viewBox="0 0 82 163" fill="none" xmlns="http://www.w3.org/2000/svg">
<g clip-path="url(#clip0_136_1394)">
<path d="M79.9176 98.8704C79.9176 98.7498 79.9176 98.6291 79.9042 98.5085C80.2125 93.5753 79.0865 88.7494 74.5287 86.6448C74.971 86.3901 75.4134 86.122 75.8424 85.8405C76.1373 85.76 76.4456 85.6662 76.7405 85.4785C77.5851 84.9825 78.2285 84.3927 78.8184 83.6822C78.9926 83.4677 79.1669 83.2398 79.3412 83.012C79.9176 82.2344 79.931 81.1888 79.5959 80.2773C79.6495 79.4998 79.5959 78.7223 79.4216 77.9179C79.368 77.69 79.2875 77.4622 79.1803 77.2611C78.939 73.4942 78.2955 69.7675 77.2633 66.1347C76.526 59.4454 75.7485 52.7562 74.8772 46.0669C74.7565 45.1554 74.3946 44.2974 73.8182 43.6808C72.987 40.7987 71.1639 38.2785 68.6303 36.5894C68.2818 36.3213 67.9332 36.0666 67.5445 35.8387C64.4076 33.9619 60.681 32.7823 57.1152 32.0048C56.9945 31.978 56.8739 31.978 56.7666 31.9646C55.2518 31.2675 53.7638 30.5302 52.2758 29.7393C52.048 29.6186 51.8201 29.5382 51.5922 29.4712C52.9059 25.0876 53.4019 20.6773 53.04 16.0793C52.9997 15.5028 52.8523 14.9934 52.6512 14.5243C52.611 13.5993 52.544 12.6743 52.4501 11.7494C52.4903 11.5885 52.5306 11.4142 52.5306 11.24C52.5708 9.72516 52.3697 8.19696 51.9541 6.73578C51.9005 6.18616 51.7396 5.62314 51.4715 5.11374C51.2839 4.75179 51.0158 4.43007 50.7208 4.14856C50.6672 4.05472 50.6136 3.96088 50.56 3.88045C49.7557 2.741 48.7368 2.11095 47.3427 1.96349C46.9003 1.92328 46.4982 2.08414 46.1496 2.35225C44.675 1.50771 42.7581 1.09215 40.2647 1.27982C30.9882 1.96349 30.0096 10.6769 30.9614 18.5324C30.9346 18.5459 30.8944 18.5593 30.8542 18.5727C30.4252 18.814 30.1705 19.2295 29.9962 19.6719C29.8756 19.9936 29.8354 20.3556 29.822 20.7175C29.7281 20.999 29.6745 21.3073 29.6879 21.6023C29.7147 22.1921 29.822 22.7953 30.023 23.3449C30.2509 23.975 30.5324 24.605 30.9748 25.1145C31.2831 25.4764 31.7121 25.6909 32.1411 25.7311C32.3958 27.0984 32.7443 28.3853 33.1867 29.5248C26.8862 32.7421 20.2238 35.8789 15.1432 40.678C14.111 41.6566 13.816 42.8765 14.0305 44.0159C13.3871 45.5709 13.0385 47.2064 12.824 49.0831C12.7838 49.2172 12.757 49.3378 12.7168 49.4719C10.5988 56.1477 8.97672 62.904 7.87749 69.8345C7.79705 70.3171 7.82387 70.7595 7.87749 71.1885C7.82387 71.4298 7.77024 71.6577 7.75684 71.8856C6.88549 74.1913 6.73804 76.135 7.03295 78.3871C6.77825 79.2853 6.8989 80.2773 7.60938 81.229C8.72202 82.717 9.82126 83.8833 11.0679 84.8351C11.6578 85.5858 12.2878 86.2963 12.9313 86.9799C12.3146 87.4759 11.7248 87.9719 11.1216 88.4813C10.9741 88.5081 10.8132 88.5349 10.6658 88.5886C10.4513 88.669 10.2502 88.7762 10.0357 88.8701C10.0223 88.8701 10.0089 88.8969 9.98212 88.9103C8.72202 89.4599 7.55576 90.1436 6.51015 90.9747C5.8935 90.9747 5.23664 91.2026 4.67362 91.7924C2.90412 93.6155 1.92553 95.7336 1.55018 98.1733C1.50997 98.4146 1.48316 98.6425 1.45635 98.8838C1.3491 99.9563 1.8451 100.707 2.56899 101.109C2.95774 102.999 3.3733 104.889 3.80227 106.766C4.44573 111.538 5.58518 116.244 6.8989 120.909C7.03295 121.74 7.18041 122.558 7.32787 123.389C7.32787 123.496 7.32787 123.617 7.35468 123.737C8.09197 128.014 9.07056 132.25 10.21 136.432C11.0277 140.038 11.8321 143.644 12.6498 147.25C12.6498 147.264 12.6364 147.277 12.623 147.29C12.5693 147.331 12.5023 147.371 12.4487 147.424C10.2234 149.583 8.05176 151.835 6.6442 154.583C6.29566 154.985 5.94712 155.374 5.61199 155.763C5.10259 156.352 4.90151 157.183 5.1428 157.907C5.06237 158.015 4.96854 158.108 4.90151 158.216C4.80767 158.403 4.75405 158.604 4.71384 158.819C4.55297 159.1 4.41892 159.409 4.41892 159.73C4.41892 160.066 4.57978 160.361 4.83448 160.548C4.90151 160.615 4.98194 160.682 5.06237 160.722C5.18302 160.776 5.29026 160.79 5.41091 160.763C5.45113 160.763 5.47794 160.736 5.51815 160.736C5.59859 160.736 5.67902 160.709 5.75945 160.682C5.83988 160.722 5.92031 160.749 6.00074 160.776C6.29566 160.843 6.57717 160.857 6.87209 160.803C6.8989 160.803 6.9123 160.79 6.93912 160.776C7.1536 160.964 7.42171 161.098 7.78365 161.098C9.83466 161.058 11.8857 161.071 13.9233 161.098C14.9555 161.205 16.0011 161.272 17.0467 161.312C18.3872 161.446 19.7144 161.594 21.0549 161.728C21.7118 161.795 22.3016 161.165 22.3686 160.562C22.3686 160.548 22.3686 160.535 22.3686 160.521C22.5429 160.414 22.6635 160.24 22.6635 159.985C22.6635 159.181 22.6501 158.39 22.6367 157.586C22.9048 154.784 22.9987 151.969 22.945 149.154C23.0657 148.845 23.1595 148.51 23.1595 148.122C23.4008 138.791 22.9719 129.475 21.9396 120.225C21.6581 116.659 21.2828 113.093 20.827 109.554C24.6207 109.528 28.4144 109.501 32.2081 109.474C36.2297 109.729 40.2647 109.796 44.3131 109.621C50.0774 110.319 55.8417 110.815 61.6462 111.069C61.4317 113.107 61.2306 115.144 61.0295 117.169C60.8016 117.531 60.6139 117.96 60.5335 118.469C59.5415 124.555 58.8176 130.641 58.3887 136.781C58.3485 137.357 58.4289 137.853 58.5629 138.295C58.134 141.915 57.7184 145.534 57.2894 149.154C57.2626 149.341 57.2894 149.516 57.2894 149.69C57.2358 149.837 57.1822 150.012 57.1822 150.213C57.1688 152.331 57.142 154.435 57.1286 156.553C57.075 156.768 57.0213 156.982 56.9677 157.197C56.8739 157.411 56.8337 157.626 56.8068 157.84C56.7532 158.041 56.6996 158.243 56.6594 158.457C56.4717 159.208 57.0481 159.999 57.7452 160.146C58.4691 160.749 59.4343 160.977 60.3995 160.937C61.1636 160.91 61.9277 160.87 62.6918 160.816C62.9867 160.816 63.2816 160.816 63.5765 160.816C64.5015 160.79 65.413 160.749 66.338 160.722C68.2013 160.79 70.0781 160.816 71.9414 160.722C72.7592 160.682 73.5367 159.891 73.2283 159.02C73.0139 158.377 72.786 157.747 72.5581 157.103C72.0353 153.51 70.373 150.173 67.7456 147.639C69.2202 142.853 70.3462 138.054 71.1237 133.094C71.1237 133.054 71.1237 133.027 71.1237 132.987C74.0461 125.547 77.2767 118.254 78.1213 110.184C78.8318 107.973 79.4216 105.747 79.8908 103.428C80.0785 102.49 79.9846 101.645 79.6897 100.935C79.7567 100.238 79.8103 99.5407 79.8506 98.8436L79.9176 98.8704ZM62.732 153.738C62.8124 153.725 62.8794 153.685 62.9465 153.658C63.0001 153.752 63.0671 153.859 63.1341 153.953C63.0001 153.886 62.866 153.805 62.732 153.738Z" fill="#944EBE"/>
<path d="M31.0956 26.6946C32.1948 31.6948 34.8625 37.4322 40.4927 38.4108C46.1229 39.3894 50.6405 34.7914 52.5977 30.0459C53.7103 27.3514 54.0857 24.4023 54.0991 21.5067C54.1125 18.6112 54.0052 15.5682 53.2277 12.8067C52.5173 10.2999 50.8684 8.0076 48.241 7.28371C47.0077 6.94858 45.7208 7.05582 44.5813 7.63225C43.6698 8.08803 42.718 9.22748 41.6187 9.06662C40.2112 8.85213 39.1254 7.84673 37.6374 7.88695C36.1494 7.92716 34.7016 8.74489 33.7498 9.89774C32.7444 11.131 32.235 12.6324 31.8865 14.1606C31.4843 15.9167 31.1492 17.6862 30.7873 19.4557L33.4147 19.8177C33.4013 18.3163 31.9133 17.3779 30.5058 17.713C28.8837 18.1018 28.4145 19.7775 28.3743 21.2386C28.3341 22.6998 28.4145 24.4559 29.4333 25.6892C30.4521 26.9225 32.1546 27.3917 33.6024 26.6276C35.1306 25.8232 33.7766 23.5041 32.2484 24.3084C31.3235 24.791 31.0688 22.6864 31.0554 22.2708C31.0286 21.748 30.9883 21.1448 31.0956 20.622C31.109 20.5013 31.1492 20.3941 31.2028 20.2869C31.3235 20.1528 31.2967 20.1662 31.1358 20.3003C30.9883 20.0724 30.747 20.4075 30.7336 19.8043C30.747 21.2654 33.0528 21.681 33.3611 20.1662C33.6292 18.8927 33.8839 17.6326 34.152 16.3591C34.4201 15.0856 34.6078 13.8389 35.1306 12.686C35.5327 11.8013 36.1762 10.9568 37.1146 10.6484C38.1468 10.2999 39.1656 11.0104 40.1039 11.3723C41.1228 11.7611 42.2086 11.8951 43.2542 11.493C44.2998 11.0908 45.0505 10.2463 46.0693 9.87093C47.8522 9.20067 49.5815 10.8897 50.2518 12.3643C51.2304 14.5092 51.2706 17.1366 51.3778 19.4423C51.4985 22.0161 51.4046 24.6168 50.7478 27.1236C49.7424 30.9441 46.9675 35.207 42.718 35.7968C40.3586 36.1185 38.12 34.7914 36.6454 33.0353C34.9831 31.0379 34.219 28.4507 33.6694 25.9573C33.2941 24.2682 30.7068 24.9921 31.0822 26.6678L31.0956 26.6946Z" fill="black"/>
<path d="M32.6372 18.6523C32.6372 15.5825 32.3959 12.4189 32.731 9.36247C33.0125 6.76184 34.3799 4.72424 36.8331 3.74565C39.5945 2.63301 42.651 3.03517 45.4929 3.59819C46.7664 3.85289 48.3482 3.98694 49.4474 4.72424C50.359 5.34088 50.7209 6.4133 50.922 7.43211C51.2169 8.89328 51.1767 10.4215 51.2303 11.8961C51.2974 13.7192 51.3644 15.5557 51.418 17.3788C51.485 19.0947 54.1661 19.1081 54.0991 17.3788C54.0321 15.5021 53.965 13.612 53.898 11.7352C53.8444 10.1802 53.831 8.61177 53.5629 7.08357C53.3216 5.67601 52.7988 4.28186 51.8068 3.23625C50.7075 2.06999 49.1525 1.62761 47.6243 1.30588C44.1658 0.568591 40.5061 -0.14189 37.0341 0.850102C34.0045 1.70804 31.4977 3.75905 30.5192 6.81546C29.9695 8.54475 29.9293 10.4215 29.9293 12.2178C29.9293 14.3626 29.9293 16.5209 29.9427 18.6658C29.9427 20.395 32.6238 20.395 32.6238 18.6658L32.6372 18.6523Z" fill="black"/>
<path d="M51.0963 30.9983C55.4396 33.2236 60.3057 34.0011 64.7697 35.9181C66.8475 36.8028 68.8047 37.9959 70.2659 39.7386C72.0622 41.8834 72.7057 44.7119 73.1882 47.4064C74.3679 54.0018 75.3465 60.6508 76.4323 67.2731C76.9819 70.6646 77.5316 74.0427 78.0812 77.4343C78.3091 78.8284 78.8051 80.5711 78.2152 81.9385C77.7729 82.9707 76.7541 83.6543 75.8291 84.2174C74.2875 85.1691 72.6788 86.0405 71.1104 86.952C70.2927 87.4212 69.4884 87.8904 68.6707 88.3596C68.0674 88.7081 67.2631 89.3784 66.5258 89.3918C65.7885 89.4052 65.0244 88.8422 64.4078 88.5473C63.5766 88.1451 62.7321 87.7564 61.901 87.3542C60.1315 86.5097 58.362 85.6651 56.5925 84.8206L57.0751 86.6571C58.0939 84.5391 59.4746 82.6489 61.2173 81.0671C62.0618 80.303 62.9734 79.6462 63.952 79.0697C64.9306 78.4933 65.9494 77.9169 66.4588 76.8578C67.0486 75.6112 66.7001 74.1366 66.566 72.8363C66.4052 71.3483 66.2577 69.8603 66.0968 68.3723C65.7885 65.4499 65.4936 62.541 65.1853 59.6186C64.8367 56.3209 64.5016 53.0098 64.1531 49.7121C64.0726 48.9882 63.59 48.3716 62.8125 48.3716C62.1423 48.3716 61.3916 48.9882 61.472 49.7121C62.0618 55.3826 62.6517 61.053 63.2415 66.7234C63.389 68.1042 63.523 69.4715 63.6705 70.8523C63.8179 72.233 64.0592 73.6674 64.0994 75.0615C64.1397 76.1742 63.0672 76.4691 62.2495 76.9651C61.2843 77.5549 60.3594 78.252 59.5148 79.0027C57.5174 80.7454 55.8954 82.917 54.756 85.3166C54.461 85.9198 54.5415 86.818 55.2385 87.1531C56.9142 87.944 58.5765 88.7483 60.2521 89.5393C61.8205 90.29 63.389 91.1479 65.011 91.7779C66.633 92.408 68.0138 91.845 69.4348 91.0138C71.0166 90.1023 72.585 89.2041 74.1668 88.2926C76.687 86.8314 79.9445 85.4238 80.8695 82.3942C81.3655 80.7722 81.0169 79.0295 80.7488 77.3941C80.4539 75.5978 80.159 73.788 79.8641 71.9917C78.6844 64.726 77.5048 57.4604 76.3251 50.1947C75.8023 46.9908 75.3867 43.7199 73.9926 40.744C72.8531 38.3176 70.9496 36.3604 68.6841 34.9663C63.6973 31.8697 57.6113 31.3737 52.4234 28.7194C50.8952 27.9419 49.5279 30.2476 51.0695 31.0385L51.0963 30.9983Z" fill="black"/>
<path d="M56.7935 85.8127C51.2973 91.6842 45.4258 98.8962 46.2435 107.502C46.4044 109.285 46.887 111.363 49.0184 111.537C50.6539 111.672 52.4502 111.095 53.9382 110.452C57.0214 109.124 59.7025 106.631 61.1368 103.588C61.539 102.717 61.8875 101.819 62.102 100.894C62.3701 99.7408 62.4908 98.5611 62.8393 97.4217C63.4962 95.3036 65.011 93.5743 66.4319 91.9255C67.558 90.6252 65.6678 88.7216 64.5418 90.0353C63.4157 91.3491 62.1824 92.7834 61.2977 94.3519C60.4129 95.9203 60.0376 97.6361 59.6891 99.4191C59.1394 102.301 57.638 104.848 55.2787 106.618C54.1125 107.489 52.7719 108.159 51.3644 108.535C50.7611 108.696 50.1311 108.83 49.501 108.856C49.4206 108.856 49.0989 108.789 49.1927 108.856C49.2865 108.923 49.3 108.99 49.1525 108.722C49.005 108.454 49.005 108.079 48.9648 107.784C48.5224 104.205 49.5412 100.559 51.2169 97.4217C53.1473 93.7754 55.9088 90.6922 58.7105 87.7028C59.8901 86.4427 58 84.5392 56.8203 85.8127H56.7935Z" fill="black"/>
<path d="M50.4662 29.98C49.2865 38.1572 48.1203 46.3479 46.9406 54.5251C46.3508 58.6137 45.7475 62.7023 45.1711 66.7909C44.8896 68.8151 44.7824 70.7455 45.4526 72.7027C46.0559 74.4722 46.954 76.1612 47.8388 77.8101C49.8362 81.5234 52.2357 85.0088 54.9302 88.2528C56.0294 89.58 57.9196 87.6764 56.8203 86.3627C54.5548 83.6414 52.544 80.7191 50.8013 77.6492C49.9434 76.121 49.0989 74.566 48.4152 72.9574C47.6377 71.1477 47.4902 69.4586 47.7583 67.5148C48.8174 59.6593 50.0104 51.8172 51.1365 43.9751L53.04 30.7039C53.1473 29.9934 52.8658 29.2695 52.1017 29.055C51.4716 28.8807 50.56 29.2695 50.4528 29.9934L50.4662 29.98Z" fill="black"/>
<path d="M35.5193 34.9133C35.8544 42.5007 36.203 50.0881 36.5381 57.6755C36.699 61.3888 36.9403 65.1154 36.9939 68.8287C37.0341 72.113 36.8464 75.518 35.5595 78.5878C34.3933 81.3493 32.3154 83.9097 29.4333 84.9285C27.8113 85.5049 28.5083 88.0921 30.1438 87.5157C36.632 85.2234 39.246 78.3465 39.6213 71.9924C39.8492 68.1853 39.5141 64.3379 39.3532 60.5308L38.817 48.4795L38.2138 34.9267C38.1333 33.2108 35.4523 33.1974 35.5327 34.9267L35.5193 34.9133Z" fill="black"/>
<path d="M33.3343 29.564L25.2643 33.2236C22.7039 34.3899 20.0631 35.4489 17.5697 36.7492C15.2237 37.9691 13.8296 39.7922 13.0521 42.299C12.221 44.9399 11.5507 47.6343 10.867 50.3154C9.44605 55.892 8.19936 61.5222 7.12694 67.1659C6.60413 69.9676 6.06792 72.7693 5.67916 75.5978C5.29041 78.4263 5.66576 80.7991 7.35483 83.0377C9.20476 85.4909 11.5641 87.6224 13.6955 89.8208C16.0147 92.2204 18.3472 94.6199 20.6797 97.0061C21.4036 97.7434 22.6235 97.3546 22.9184 96.4162C23.9104 93.2258 26.9266 90.7994 30.2779 90.5983C31.3101 90.5313 31.9267 89.5125 31.4307 88.5875C30.2511 86.3489 28.5218 84.4855 26.8595 82.5954C25.1973 80.7052 23.7227 78.8955 23.0792 76.5362C22.2615 73.5602 22.6101 70.2625 22.6235 67.2061C22.6503 63.9352 22.6637 60.6777 22.6905 57.4068C22.7173 53.6399 22.7441 49.873 22.7575 46.1061C22.7575 44.3769 20.0899 44.3769 20.0765 46.1061C20.0362 52.8624 19.9826 59.6187 19.9424 66.375C19.9156 69.6324 19.6609 72.9972 20.2507 76.2144C20.7333 78.8687 22.1409 81.1074 23.8165 83.1584C25.6397 85.3837 27.7443 87.3677 29.0982 89.9415L30.2511 87.9307C25.6799 88.2256 21.6583 91.3356 20.3044 95.7192L22.543 95.1293C18.6823 91.1748 14.8082 87.2202 10.9877 83.2254C10.1968 82.4077 9.43265 81.5632 8.86963 80.5578C8.27979 79.5122 8.10552 78.3861 8.17255 77.193C8.3066 74.579 8.95006 71.9248 9.41924 69.3509C10.4112 63.962 11.5641 58.5865 12.8644 53.2646C13.5079 50.6237 14.2049 47.9963 14.9288 45.3822C15.5455 43.157 15.9878 40.8513 18.0791 39.5509C19.2185 38.8405 20.492 38.3311 21.7253 37.7814L25.9882 35.8511L34.6748 31.9099C35.3317 31.615 35.4926 30.6498 35.1574 30.0734C34.7553 29.3897 33.9912 29.2959 33.3209 29.5908L33.3343 29.564Z" fill="black"/>
<path d="M29.8086 89.7947C31.6719 91.7787 33.2403 94.004 34.487 96.4169C35.1037 97.61 35.6667 98.8567 36.0689 100.144C36.3772 101.149 36.6855 102.463 35.908 103.347C35.0903 104.286 33.6827 103.401 32.8784 102.892C31.6987 102.141 30.5459 101.31 29.4466 100.452C27.1946 98.6824 25.1167 96.7119 23.1998 94.5938C22.0469 93.3069 20.1434 95.2105 21.3096 96.484C23.0925 98.468 25.0363 100.304 27.1141 101.98C28.1597 102.825 29.2456 103.642 30.3582 104.42C31.4708 105.197 32.5433 105.935 33.8168 106.27C36.471 106.954 38.7365 105.117 39.0314 102.476C39.3263 99.8353 37.9322 97.2347 36.8062 95.0496C35.4522 92.4356 33.7229 90.0226 31.6987 87.8778C30.5191 86.6177 28.6155 88.5212 29.8086 89.7679V89.7947Z" fill="black"/>
<path d="M36.8331 39.0952C38.0664 41.8701 40.1308 44.1892 42.6778 45.8112C43.281 46.2 44.1658 45.9453 44.5143 45.3286C46.8066 41.3607 49.0989 37.3927 51.3778 33.4247C52.2358 31.9233 49.9301 30.5694 49.0587 32.0708C46.7664 36.0388 44.4741 40.0067 42.1952 43.9747L44.0317 43.4921C41.8467 42.098 40.1978 40.1006 39.1388 37.7278C38.8439 37.071 37.8787 36.9101 37.3023 37.2452C36.6186 37.6474 36.5248 38.4115 36.8197 39.0818L36.8331 39.0952Z" fill="black"/>
<path d="M37.4497 44.913C37.9323 44.7119 38.0395 44.7387 38.4953 44.8862C38.9511 45.0336 39.3801 45.2481 39.8358 45.4492C41.0289 45.972 42.3024 46.401 43.5893 45.972C44.8762 45.543 45.7208 44.6583 46.5921 43.7333C47.1149 43.1837 48.1873 42.0443 48.9783 42.5C50.4797 43.358 51.8336 41.0389 50.3322 40.1809C48.9246 39.3766 47.2892 39.7386 46.0291 40.6501C44.9969 41.3874 44.273 42.5671 43.1872 43.2239C42.289 43.7601 41.4311 43.2507 40.5463 42.8486C39.3533 42.3124 38.0261 41.803 36.7258 42.3392C36.0556 42.6207 35.5864 43.2239 35.7874 43.988C35.9617 44.6181 36.766 45.2079 37.4363 44.9264L37.4497 44.913Z" fill="black"/>
<path d="M30.2377 88.3739C34.2861 89.7412 38.5758 90.2372 42.8253 89.8887C47.0748 89.5402 51.4449 89.1782 55.3592 87.5696C56.0295 87.2881 56.4987 86.6848 56.2976 85.9207C56.1233 85.2907 55.319 84.7008 54.6487 84.9824C50.9355 86.5106 46.7932 86.8859 42.8253 87.2076C38.8573 87.5294 34.7955 87.087 30.9482 85.7867C29.3127 85.2371 28.6022 87.8243 30.2377 88.3739Z" fill="black"/>
<path d="M74.3007 88.3196C79.6897 92.8372 79.1132 100.84 77.7459 107.02C76.8075 111.283 75.4402 115.439 74.1667 119.608C72.8932 123.777 71.5392 128.227 70.2255 132.544C68.7643 137.329 67.3166 142.129 65.8554 146.914C65.346 148.563 67.9332 149.274 68.4426 147.625C71.1639 138.683 73.8852 129.742 76.6064 120.787C77.9067 116.511 79.3143 112.248 80.2929 107.878C81.124 104.178 81.6468 100.344 81.1642 96.5505C80.6816 92.7568 79.2205 88.9497 76.1909 86.4161C74.8771 85.3168 72.9736 87.207 74.3007 88.3062V88.3196Z" fill="black"/>
<path d="M62.1154 100.115C60.3325 110.424 58.8714 120.8 57.7051 131.189C57.1287 136.323 56.6327 141.484 56.2171 146.632C56.016 149.152 55.8283 151.672 55.6541 154.206C55.5736 155.426 55.453 156.659 55.4262 157.892C55.3994 159.059 55.6541 160.211 56.5925 160.989C57.5308 161.766 58.7909 161.874 59.9706 162.021C61.3647 162.182 62.7589 162.289 64.1664 162.356C67.0754 162.477 69.9978 162.356 72.8933 162.035C73.6574 161.954 74.1668 161.485 74.2338 160.694C74.9309 151.806 67.062 143.468 58.2011 143.482C56.4718 143.482 56.4718 146.163 58.2011 146.163C65.6947 146.163 72.1426 153.254 71.5528 160.694L72.8933 159.353C70.4267 159.635 67.9467 159.756 65.4668 159.715C64.3943 159.702 63.3085 159.648 62.2361 159.568C61.1637 159.488 59.8365 159.474 58.7507 159.139C57.9732 158.898 58.1073 158.214 58.1341 157.504C58.2011 156.19 58.2949 154.863 58.3888 153.549C58.5496 151.136 58.7373 148.723 58.9384 146.31C59.7427 136.564 60.8151 126.832 62.1691 117.14C62.9332 111.684 63.7777 106.255 64.7161 100.826C64.8367 100.115 64.5284 99.3782 63.7777 99.1771C63.1342 99.0028 62.2495 99.3916 62.1288 100.115H62.1154Z" fill="black"/>
<path d="M20.921 110.627L61.405 111.659C63.1343 111.699 63.1343 109.018 61.405 108.978L20.921 107.946C19.1917 107.906 19.1917 110.587 20.921 110.627Z" fill="black"/>
<path d="M17.6099 99.0171C20.9076 115.01 22.3419 131.364 21.913 147.678C21.7923 152.33 21.5108 156.968 21.0818 161.606L22.4224 160.266C19.5536 160.159 16.6849 160.051 13.8296 159.958L9.52646 159.797L7.38161 159.716C6.79178 159.689 6.10811 159.77 5.53168 159.636C5.50487 159.636 5.5853 159.864 5.53168 159.757C5.47806 159.622 5.55849 159.395 5.5987 159.261C5.73276 158.738 6.06789 158.269 6.3494 157.813C7.07329 156.646 7.82398 155.507 8.60149 154.368C10.1431 152.102 11.7785 149.917 13.4944 147.786C13.9502 147.223 14.044 146.445 13.4944 145.895C13.0252 145.426 12.0601 145.332 11.6043 145.895C9.53986 148.442 7.58269 151.083 5.75957 153.805C4.94184 155.024 4.01688 156.258 3.38683 157.585C2.86402 158.684 2.5557 160.051 3.27959 161.151C4.15093 162.478 5.82659 162.33 7.20734 162.384L12.1673 162.572C15.5857 162.692 19.004 162.826 22.4224 162.947C23.1999 162.974 23.6959 162.304 23.7629 161.606C25.2777 145.105 24.8621 128.455 22.5832 112.047C21.9398 107.436 21.1489 102.851 20.2105 98.2932C19.8619 96.6041 17.2747 97.3146 17.6233 99.0037L17.6099 99.0171Z" fill="black"/>
<path d="M11.6042 148.604C15.3041 148.805 19.0173 148.845 22.7172 148.711C24.4331 148.657 24.4465 145.963 22.7172 146.03C19.0173 146.164 15.3041 146.124 11.6042 145.923C10.8803 145.882 10.2637 146.566 10.2637 147.263C10.2637 148.027 10.8803 148.563 11.6042 148.604Z" fill="black"/>
<path d="M11.2288 86.6043C8.65499 88.6822 5.29026 89.5803 2.93093 91.9799C1.6038 93.3338 0.853107 95.0095 0.665433 96.8862C0.450948 99.0579 1.02738 101.256 1.49656 103.361C3.6146 112.812 5.73264 122.262 7.85068 131.727C9.04375 137.048 10.2368 142.37 11.4299 147.706C11.8052 149.395 14.3925 148.671 14.0171 146.995C11.9795 137.866 9.9285 128.737 7.89089 119.608C6.87209 115.05 5.85329 110.479 4.82108 105.921C4.33849 103.75 3.70844 101.551 3.41352 99.3394C3.17222 97.5967 3.27947 95.787 4.40551 94.366C5.43772 93.0657 6.95252 92.248 8.37348 91.4705C10.0223 90.5723 11.6578 89.701 13.119 88.5213C13.682 88.0655 13.5881 87.1003 13.119 86.6312C12.5559 86.0681 11.7918 86.1754 11.2288 86.6312V86.6043Z" fill="black"/>
<mask id="mask0_136_1394" style="mask-type:alpha" maskUnits="userSpaceOnUse" x="-1" y="0" width="83" height="164">
<path d="M29 31.5V16L26.5 0H53L56.5 30L72 36L82 81L77 87.5L80 93.5V107L70.5 143.5V149.5L74.5 160.5L29 162L11 163.5L-1 160.5L11 145L0.5 96L2.5 91L9 87.5L4.5 75.5L12.5 39L29 31.5Z" fill="#D9D9D9"/>
</mask>
<g mask="url(#mask0_136_1394)">
<rect x="-517" y="49.2383" width="815.042" height="130.031" fill="url(#paint0_linear_136_1394)"/>
</g>
</g>
<defs>
<linearGradient id="paint0_linear_136_1394" x1="-109.479" y1="179.27" x2="-109.479" y2="49.2383" gradientUnits="userSpaceOnUse">
<stop stop-color="#191817"/>
<stop offset="1" stop-color="#191817" stop-opacity="0"/>
</linearGradient>
<clipPath id="clip0_136_1394">
<rect width="80.7298" height="162.585" fill="white" transform="translate(0.619263 0.362305)"/>
</clipPath>
</defs>
</svg>
