<svg width="96" height="165" viewBox="0 0 96 165" fill="none" xmlns="http://www.w3.org/2000/svg">
<g clip-path="url(#clip0_136_1397)">
<path d="M93.3645 100.454C92.6406 97.9342 91.0185 95.8161 88.8603 94.4488C87.9889 93.5238 86.7691 92.9608 85.4821 93.1217C85.2543 93.1485 85.0398 93.2021 84.8387 93.2557C84.6242 93.1217 84.3963 93.0144 84.1416 92.9608C81.0986 92.3308 78.069 91.8214 74.9992 92.3576C74.2619 92.3576 73.5246 92.3442 72.7873 92.3576C72.7739 92.3576 72.7605 92.3576 72.7471 92.3576C68.9132 91.7677 65.0927 91.0439 61.2856 90.2261C61.2051 89.824 61.1381 89.4084 61.0577 89.0063C61.299 89.0599 61.5403 89.0867 61.8084 89.1001C62.5189 89.3548 63.2964 89.395 64.0337 89.1537C65.0793 88.8186 65.9506 87.9338 66.46 86.9821C66.7683 86.3922 66.9962 85.722 67.1035 85.0249C67.2643 84.6897 67.3582 84.3144 67.318 83.9122C67.2777 83.4833 67.2241 83.0677 67.1437 82.6655C67.023 81.7674 66.8756 80.8826 66.7013 79.9979C66.8756 79.0595 67.0499 78.1077 67.1973 77.1694C68.0821 73.4829 68.5512 69.716 68.5781 65.9357C68.5781 65.7078 68.5781 65.4934 68.5781 65.2655C68.7791 62.4503 68.6987 59.6218 68.1089 56.8335C68.3368 56.3375 68.4306 55.7611 68.2965 55.1445C66.7952 48.4954 61.2588 43.0529 54.5561 41.7257C54.1271 41.6453 53.7116 41.6587 53.3496 41.7392C50.682 41.0689 47.8803 40.7338 45.159 40.5327C45.5478 37.4495 45.8829 34.3528 46.151 31.2562C46.1912 31.0149 46.2448 30.787 46.285 30.5457C46.6336 30.4251 46.9687 30.2776 47.3038 30.1168C48.0277 30.3178 48.8186 30.2642 49.3951 29.8621C51.1646 28.6154 52.1163 26.0549 50.8294 24.3123C50.615 23.8163 50.2798 23.4409 49.8374 23.1862C49.8777 23.0522 49.9045 22.9181 49.9447 22.7841C50.8697 19.5668 51.7276 16.3361 52.5319 13.092C52.7196 12.5022 52.8805 11.9124 52.9877 11.2957C53.0681 10.8399 53.0413 10.3841 52.9475 9.96858C52.9743 9.74069 53.0145 9.5128 53.0547 9.27151C53.1754 8.29292 52.3442 7.26071 51.4997 6.87196C50.615 5.37056 48.9929 4.23111 47.2636 3.53404C44.2742 2.32756 41.2849 1.46962 38.0408 2.00583C37.8799 2.03264 37.7593 2.09967 37.6252 2.15329C36.3383 1.95221 35.038 2.27394 34.0862 3.29274C33.4294 3.98982 33.0138 4.88797 32.6384 5.78613C30.1451 9.83453 28.6571 14.3923 27.3165 18.9501C24.9036 20.3711 25.1181 24.3927 27.6919 25.5455C28.59 26.3633 29.2603 27.2748 29.7831 28.4277C29.877 28.6154 29.9976 28.7762 30.1317 28.9371C30.2255 30.0497 30.3059 31.1624 30.3461 32.275C30.2121 33.763 29.9574 35.251 29.7563 36.739C24.421 37.9991 19.1527 39.5139 13.9917 41.337C13.6297 41.471 13.3214 41.6453 13.0667 41.8598C12.5841 42.0475 12.1015 42.2486 11.6323 42.463C9.35343 43.2137 7.30242 44.5811 5.78762 46.498C5.25141 47.1817 4.95649 48.0262 5.06373 48.8172C4.4739 49.6081 4.08515 50.5732 3.99131 51.6859C3.61596 56.5118 3.9645 61.1366 5.03692 65.7346C4.25942 67.236 4.15217 69.0324 5.2246 70.641C5.45249 70.9895 5.65357 71.3113 5.85465 71.6464C5.64016 72.196 5.51951 72.8126 5.53292 73.4829C5.61335 76.3517 6.91367 78.5367 8.93787 79.6359C9.0183 79.7298 9.11214 79.8236 9.19257 79.9041C9.94326 80.6413 10.761 81.0971 11.5787 81.325C12.6645 82.6387 13.7772 83.6978 15.0373 84.5557C15.0373 87.0089 15.0373 89.462 15.0373 91.9286C14.8764 91.9554 14.7021 91.9688 14.5413 92.0224C13.1069 92.3844 11.753 92.8268 10.4259 93.3496C10.1309 93.3898 9.82262 93.4568 9.5143 93.5775C8.96468 93.8053 8.46868 94.0466 7.98609 94.3013C6.31043 94.1807 4.51412 95.0118 3.7232 97.0494L2.12797 101.111C1.699 102.237 1.79284 103.216 2.2084 103.993C1.9537 107.935 2.9457 111.259 5.35865 114.53C5.43908 114.637 5.51951 114.718 5.59995 114.811C6.23 116.005 6.87345 117.171 7.57053 118.31C8.12014 119.262 8.65636 120.214 9.23278 121.152C10.6269 123.659 12.0613 126.139 13.5493 128.579C14.1123 130.241 14.7692 131.89 15.5735 133.512C16.7934 135.992 18.6031 138.231 20.386 140.469C21.6461 142.829 22.9866 145.148 24.4746 147.427C24.6087 147.628 24.7427 147.789 24.8902 147.949C25.2387 148.579 25.6007 149.209 25.9492 149.84C26.2709 150.416 26.6999 150.845 27.1825 151.153C27.1423 151.448 27.0886 151.73 27.035 152.025C26.5256 152.708 26.0296 153.405 25.5738 154.129C25.4532 154.317 25.3594 154.505 25.2387 154.692C24.8634 155.001 24.488 155.309 24.1127 155.631C23.2949 155.912 22.5845 156.435 22.0617 157.145C21.874 157.038 21.6327 157.011 21.4182 157.119C20.0375 157.856 19.2063 159.33 19.3002 160.885C18.7237 161.462 18.5495 162.373 19.0455 163.124C19.1661 163.312 19.3806 163.473 19.6219 163.459C19.7559 163.459 19.8766 163.432 20.0106 163.419C20.1179 163.5 20.2519 163.553 20.4128 163.553C20.6407 163.553 20.882 163.553 21.1099 163.553C21.4584 163.727 21.8472 163.835 22.2493 163.794C23.3084 163.701 24.3406 163.54 25.3862 163.352C26.7133 163.218 28.027 163.004 29.3407 162.749C29.4078 162.896 29.5284 163.03 29.7295 163.084C31.9816 163.593 34.3141 163.218 36.2579 162.025C37.5046 161.743 38.644 161.18 39.6092 160.389C40.1186 160.108 40.6012 159.773 41.0168 159.344C41.9149 158.982 42.612 158.231 42.8935 157.226C42.8935 157.199 42.8935 157.186 42.8935 157.159C43.0678 156.676 43.108 156.153 42.8935 155.657C42.7997 155.443 42.7058 155.228 42.612 155.014C40.9363 151.328 39.5824 147.346 38.577 143.338C38.3357 142.373 37.518 141.689 36.593 141.461C32.4508 131.863 28.7911 122.091 25.5202 112.157C26.9948 112.345 28.5096 112.305 30.0378 112.117C31.4052 111.943 32.7725 111.661 34.1264 111.393C34.5956 111.393 35.0648 111.393 35.534 111.38C40.5476 111.567 45.588 112.01 50.5479 111.661C50.9903 111.996 51.5131 112.184 52.0761 112.13C58.5643 111.5 65.0927 111.219 71.6077 111.259C66.4064 118.739 61.5537 126.487 58.5911 135.134C57.5053 136.488 56.7278 138.029 56.4865 139.786C56.3926 140.483 56.4463 141.139 56.7278 141.703C56.6473 141.863 56.5669 142.038 56.4731 142.199C55.8564 142.949 55.2532 143.713 54.6902 144.518C54.3014 145.027 53.9127 145.536 53.5239 146.046C52.1968 147.038 51.0707 148.244 50.2262 149.638C49.8106 150.215 49.4755 150.845 49.2878 151.502C49.1404 151.864 49.0063 152.239 48.8857 152.628C48.8589 152.708 48.8589 152.789 48.8589 152.869C48.2958 153.352 48.0679 154.143 48.7918 154.719C48.8186 154.732 48.832 154.746 48.8589 154.773C49.0465 155.631 49.757 156.1 50.5747 156.301C51.1378 157.481 52.4649 158.044 53.658 158.526C55.6419 159.317 57.6393 160.081 59.6233 160.845C62.7468 162.052 66.2321 163.593 69.6103 162.883C70.8704 162.963 72.2779 162.91 73.2565 162.266C73.5246 162.092 73.7257 161.864 73.9 161.623C74.4362 161.703 75.0394 161.449 75.2673 160.979C76.1789 159.143 75.2673 157.682 73.8866 156.529C73.3369 155.711 72.6131 155.001 71.8087 154.397C70.8972 153.526 69.7711 152.936 68.5244 152.668C68.5244 152.668 68.511 152.668 68.4976 152.668C67.4788 151.301 66.4868 149.772 66.0445 148.15C66.1115 147.99 66.1383 147.802 66.1249 147.587C66.1115 147.373 66.0981 147.158 66.0847 146.944C66.6879 147.091 67.2912 147.225 67.8944 147.319C67.948 147.319 68.0016 147.319 68.0553 147.319C68.2563 147.373 68.4574 147.427 68.6585 147.48C69.5432 147.721 70.2939 147.051 70.361 146.193C70.3744 145.979 70.3476 145.791 70.2939 145.603C70.6559 145.402 70.9776 145.107 71.2189 144.692C71.4334 144.33 71.6479 143.968 71.8624 143.606C72.4924 142.788 73.042 141.904 73.4442 140.952C73.7525 140.228 73.8329 139.45 73.6319 138.767C78.7125 129.879 84.2757 121.286 90.3617 113.055C90.8174 112.425 90.8979 111.755 90.7102 111.138C91.0856 110.482 91.4207 109.798 91.7156 109.114C91.7826 108.98 91.8363 108.833 91.8899 108.699C91.9167 108.618 91.9569 108.538 91.9837 108.457C92.654 106.795 93.1366 105.039 93.4047 103.189C93.4047 103.135 93.4315 103.082 93.4449 103.015C93.4851 102.773 93.5253 102.546 93.5521 102.304C93.6057 101.889 93.5253 101.513 93.3913 101.178C93.3913 100.95 93.3645 100.722 93.2974 100.495L93.3645 100.454ZM38.8451 96.4194C38.8451 96.4194 38.8585 96.473 38.8719 96.4864H38.8451C38.8451 96.4596 38.8451 96.4328 38.8451 96.4194Z" fill="#944EBE"/>
<path d="M34.4749 10.5436C35.0647 10.0476 35.3731 9.31031 35.306 8.54621C35.2122 7.48719 33.8583 6.65606 33.0137 7.59443C30.9091 9.96717 29.2871 12.6884 28.2683 15.7046C27.7857 17.1524 27.4505 18.4795 26.5524 19.7262C25.7749 20.8121 24.9169 21.9783 24.9303 23.3859C24.9437 24.7934 25.7615 25.9329 26.7937 26.8176C27.2495 27.2198 27.7454 27.5951 28.161 28.0509C28.6838 28.6408 28.9921 29.3915 29.3809 30.0617C30.7884 32.5283 33.1344 34.3782 35.8557 35.2094C38.5769 36.0405 41.6601 35.6651 44.2072 34.2978C45.4673 33.6275 46.4995 32.6892 47.4512 31.6301C48.0009 31.0135 48.3628 30.9331 49.1269 30.7052C49.8374 30.4907 50.4942 30.1153 51.0439 29.5925C52.1163 28.5737 52.6123 27.0723 52.3844 25.6112C52.2906 24.9945 52.0627 24.3779 51.7275 23.8551C51.5399 23.5601 51.312 23.2786 51.0707 23.0373C50.95 22.9167 50.816 22.796 50.6685 22.7022C50.5076 22.5816 50.4674 22.4475 50.5076 22.6352C50.4406 22.3537 50.5881 21.8711 50.6149 21.5896C50.6685 21.2142 50.7087 20.8389 50.7489 20.4769C50.8294 19.7262 50.9098 18.9755 50.9366 18.2248C51.0036 16.6966 50.9098 15.1148 50.454 13.6402C49.5023 10.4766 46.9686 8.22448 43.8854 7.20568C40.3196 6.02601 36.4321 6.70968 33.0003 7.98318C31.3917 8.57302 32.0888 11.1736 33.7108 10.5704C36.3517 9.59182 39.274 8.86793 42.0891 9.49798C44.2474 9.98057 46.2984 11.1736 47.3708 13.171C48.6041 15.4633 48.3092 18.2919 48.0143 20.7718C47.8668 22.0319 47.4915 23.4395 48.5237 24.4449C49.2207 25.1286 49.9982 25.6782 49.6899 26.8042C49.3682 27.9973 48.3092 28.0375 47.3306 28.4129C46.0437 28.8955 45.36 30.1019 44.368 30.9733C42.6521 32.4747 40.2392 33.2254 37.9737 32.9573C35.7082 32.6892 33.5768 31.4291 32.2496 29.6193C31.4721 28.5469 31.0163 27.2868 30.1316 26.268C29.4613 25.5039 28.5095 24.9945 27.9063 24.1902C27.169 23.2116 28.161 22.1258 28.7374 21.3215C29.649 20.0614 30.1584 18.7476 30.6142 17.2731C31.4721 14.4043 32.9333 11.7635 34.9307 9.52479L32.6384 8.57302C32.7054 8.69366 32.692 8.72048 32.5982 8.68026C31.271 9.7929 33.1746 11.6696 34.4883 10.5704L34.4749 10.5436Z" fill="black"/>
<path d="M28.4425 20.223C29.2603 16.8717 30.3327 13.574 31.7 10.4103C32.3703 8.86871 33.0942 7.35391 33.8851 5.86592C34.2202 5.22246 34.5554 4.37793 35.105 3.86853C35.601 3.41275 36.3517 3.43956 36.9951 3.42615C40.266 3.30551 43.6978 3.34572 46.7408 4.64604C48.0813 5.22247 49.328 6.02678 50.32 7.09921C51.4997 8.35931 51.875 9.63281 51.5399 11.3219C50.6953 15.4373 49.6765 19.5259 48.7516 23.6145C48.3762 25.2902 50.95 26.0141 51.3388 24.325C52.2772 20.1828 53.3362 16.0405 54.1539 11.8715C54.5561 9.83389 54.3416 7.98396 53.1083 6.28148C52.1029 4.88733 50.7758 3.74788 49.2744 2.90335C45.9633 1.05342 42.116 0.664662 38.4027 0.704878C36.5796 0.731689 34.4749 0.624446 33.121 2.07222C31.8743 3.39934 31.1102 5.34311 30.3327 6.96515C28.4157 10.9867 26.9143 15.1826 25.8553 19.5125C25.4398 21.1882 28.027 21.8987 28.4425 20.223Z" fill="black"/>
<path d="M45.2529 31.4703C44.6095 34.071 44.0733 36.685 43.6577 39.3258C43.5504 40.0095 43.832 40.8004 44.5961 40.9747C45.2395 41.1222 46.1243 40.7736 46.2449 40.0363C46.6605 37.3955 47.1967 34.768 47.8401 32.1808C48.0144 31.4972 47.6257 30.6928 46.9018 30.532C46.1779 30.3711 45.4272 30.7465 45.2529 31.4703Z" fill="black"/>
<path d="M28.8982 29.406C29.0189 30.6527 29.0457 31.9128 28.9519 33.1728C28.858 34.4329 28.5363 35.5992 28.3754 36.8191C28.0939 39.0042 28.858 41.0686 30.4801 42.5566C33.4828 45.3181 37.92 45.5459 41.526 43.9373C43.51 43.0526 45.1991 41.5378 46.3117 39.6744C47.1965 38.1864 44.8774 36.8325 43.9926 38.3205C42.0756 41.5646 37.7189 43.2134 34.1665 41.7791C32.397 41.0686 30.8688 39.5136 30.9761 37.5028C31.0431 36.2024 31.4452 34.9021 31.5793 33.6018C31.7268 32.2077 31.7133 30.8001 31.5793 29.406C31.5123 28.6821 31.0163 28.0654 30.2388 28.0654C29.5685 28.0654 28.8312 28.6821 28.8982 29.406Z" fill="black"/>
<path d="M45.025 41.8852C50.2664 42.2472 55.9771 42.7029 60.4813 45.6923C65.2134 48.8426 66.822 54.6068 67.3046 59.9824C67.881 66.4839 67.1035 73.0525 65.0257 79.2458C64.7844 79.9697 64.5163 80.6936 64.2482 81.404C64.0203 81.9805 63.8058 82.6775 63.3366 83.1065C62.8942 83.5087 62.3178 83.4953 61.7548 83.4819C60.8968 83.4551 60.0523 83.3612 59.1944 83.2808C55.8967 82.9859 52.599 82.5301 49.3415 81.9268C42.0222 80.5863 34.8369 78.5085 27.9198 75.7604C27.2495 75.4923 26.4452 76.0553 26.2709 76.6988C26.0565 77.4629 26.5256 78.0795 27.2093 78.3476C33.8852 81.0019 40.8023 83.0261 47.8669 84.3666C51.3523 85.0369 54.8779 85.5329 58.4169 85.8814C60.0121 86.0423 61.8352 86.4042 63.417 86.0155C65.1195 85.5865 65.9775 84.1923 66.6075 82.6641C69.2484 76.2162 70.428 69.0846 70.1197 62.1272C69.8516 55.9876 68.5647 49.1643 63.7656 44.8746C58.685 40.3302 51.5131 39.6599 45.0116 39.2041C43.2957 39.0835 43.2957 41.7646 45.0116 41.8852H45.025Z" fill="black"/>
<path d="M23.4827 70.3183C30.1854 70.8143 36.9014 71.2299 43.6175 71.5516C45.3199 71.632 47.0358 71.7125 48.7383 71.7795C50.4408 71.8465 52.0896 72.0744 53.7117 71.9538C55.2265 71.8331 56.0308 70.7741 56.4195 69.4068C56.8485 67.892 57.063 66.2833 57.1568 64.7015C57.3713 60.9882 56.8083 57.2616 56.2587 53.6019C56.1514 52.8914 55.2533 52.4893 54.6098 52.6635C53.8457 52.878 53.5642 53.5885 53.6715 54.3124C54.1004 57.2348 54.5294 60.1705 54.516 63.1331C54.516 64.5809 54.4087 66.042 54.1272 67.463C54.0468 67.8786 53.9798 68.8706 53.6715 69.1655C53.4168 69.4068 52.7733 69.2593 52.3711 69.2459C46.2047 69.018 40.0383 68.7097 33.8718 68.3343C30.3998 68.1199 26.9413 67.892 23.4827 67.6373C21.7668 67.5166 21.7668 70.1977 23.4827 70.3183Z" fill="black"/>
<path d="M57.5319 66.2162C59.0065 65.0097 60.9369 64.3528 62.827 64.2858C63.8056 64.259 64.744 64.3662 65.6823 64.6612C66.0845 64.7818 66.4733 64.9293 66.8218 65.1706C66.9559 65.2644 67.1167 65.3851 67.2106 65.4923C67.2374 65.5191 67.3714 65.8408 67.358 65.7202C67.4518 66.4441 67.9076 67.0607 68.6985 67.0607C69.3554 67.0607 70.1329 66.4441 70.0391 65.7202C69.6369 62.6102 66.0711 61.6718 63.39 61.6048C60.5615 61.5377 57.8268 62.5297 55.6418 64.3126C55.0788 64.7684 55.1726 65.7336 55.6418 66.2028C56.1914 66.7524 56.9689 66.6586 57.5319 66.2028V66.2162Z" fill="black"/>
<path d="M24.9171 67.423C23.1342 66.5919 21.3647 65.6937 19.5282 64.9565C17.6916 64.2192 15.8819 64.5007 14.0856 65.372C12.2893 66.2434 10.627 67.1549 8.91115 68.0665C7.43657 68.8574 5.97539 69.8762 5.43918 71.5385C4.90297 73.2007 5.34534 75.2249 5.88155 76.8872C6.41777 78.5494 7.14165 80.3994 8.65645 81.378C10.3053 82.437 11.8603 81.5924 13.3885 80.8015C14.9972 79.9704 16.7667 79.5682 18.5764 79.5548C20.4665 79.5414 22.3567 79.8095 24.2468 79.595C25.8689 79.4074 29.1934 78.6567 28.9521 76.4448C28.8716 75.7209 28.3891 75.1043 27.6115 75.1043C26.9413 75.1043 26.1906 75.7209 26.271 76.4448L26.2978 76.6727L26.4855 76.0024C26.2978 76.4448 25.4667 76.6325 25.0377 76.7397C24.4345 76.9006 23.8178 76.9676 23.2012 76.981C21.8339 77.0212 20.4799 76.8872 19.126 76.8738C17.6246 76.847 16.1232 77.0078 14.6754 77.4234C14.0052 77.6245 13.3483 77.8792 12.7049 78.1607C12.0614 78.4422 11.4582 78.898 10.7879 79.1393C9.71547 79.528 9.09883 77.7987 8.7905 77.048C8.2811 75.7879 7.7583 74.2329 7.89235 72.8522C8.013 71.6055 9.15245 70.9754 10.1578 70.4392C11.552 69.6885 12.973 68.9646 14.3805 68.2273C15.7881 67.4901 17.0616 66.8466 18.6568 67.4767C20.252 68.1067 21.9411 68.9915 23.5631 69.7421C24.22 70.0505 25.0109 69.9298 25.3997 69.2596C25.7348 68.6831 25.5739 67.7314 24.9171 67.423Z" fill="black"/>
<path d="M21.7935 66.2297C21.4181 61.0284 21.0294 55.8272 20.654 50.6259C20.5334 48.91 17.8523 48.8966 17.9729 50.6259C18.3483 55.8272 18.737 61.0284 19.1124 66.2297C19.233 67.9456 21.9141 67.959 21.7935 66.2297Z" fill="black"/>
<path d="M7.32922 72.0206C6.61874 68.5487 6.12275 65.0365 5.85464 61.4975C5.62675 58.5215 5.45248 55.4651 5.88145 52.5025C6.2568 49.8885 7.14155 47.2476 9.07191 45.3575C11.2302 43.2395 14.3134 42.4351 17.1419 41.6576C21.0428 40.5852 24.984 39.6602 28.9386 38.8827C30.6276 38.5476 29.9172 35.9604 28.2281 36.2955C24.421 37.0462 20.6407 37.9176 16.9006 38.9364C13.7236 39.8077 10.4661 40.7193 7.86544 42.8373C2.90547 46.8857 2.7178 54.0307 3.05293 59.8754C3.29423 64.1919 3.87065 68.4816 4.72859 72.7177C5.07713 74.4068 7.65095 73.6963 7.31582 72.0072L7.32922 72.0206Z" fill="black"/>
<path d="M10.1176 81.6195C13.4421 86.8207 19.8231 88.2015 25.6008 87.853C32.3838 87.4508 39.2205 86.0164 45.7757 84.3274C47.4514 83.8984 46.7409 81.3112 45.0653 81.7401C39.0195 83.2952 32.786 84.5821 26.5525 85.0915C21.5255 85.507 15.4261 84.9172 12.4233 80.2521C11.4984 78.8044 9.17926 80.1449 10.1042 81.6061L10.1176 81.6195Z" fill="black"/>
<path d="M54.9046 85.7883C56.0977 87.1959 57.3578 88.6436 58.9933 89.5418C60.6287 90.4399 62.6261 90.8421 64.3956 90.145C66.1651 89.448 67.3045 88.1342 67.948 86.4586C68.6719 84.5952 68.4976 82.4638 67.8944 80.6005C67.6665 79.9168 66.9694 79.461 66.2455 79.6621C65.5753 79.8498 65.0793 80.6139 65.3072 81.3109C65.7629 82.6917 65.964 84.2065 65.4278 85.6006C65.0793 86.4854 64.2884 87.3835 63.3902 87.6651C60.6555 88.5364 58.3498 85.7213 56.8082 83.8848C56.339 83.3351 55.4006 83.4022 54.918 83.8848C54.3684 84.4344 54.4489 85.2253 54.918 85.7749L54.9046 85.7883Z" fill="black"/>
<path d="M13.335 84.1268C13.8176 86.4995 13.9784 88.9795 13.7907 91.5265C13.7371 92.2236 14.4476 92.8939 15.1313 92.8671C15.8954 92.8268 16.4182 92.2772 16.4718 91.5265C16.6729 88.8053 16.4718 86.084 15.9222 83.4029C15.7747 82.7192 14.9302 82.2501 14.2733 82.4646C13.5495 82.7058 13.1875 83.3761 13.335 84.1134V84.1268Z" fill="black"/>
<path d="M5.15765 96.6463C7.83871 95.3728 10.5868 94.22 13.4957 93.5497C16.4047 92.8795 19.5013 92.799 22.5175 92.7052C28.818 92.5041 35.1051 92.3701 41.4056 92.3432C54.1004 92.2896 66.8086 92.6784 79.4498 93.8849C81.1657 94.0457 82.895 94.2066 84.6109 94.4211C86.0184 94.6087 87.4796 94.9037 88.5654 95.8688C89.6513 96.834 90.4288 98.0941 91.1527 99.2872C91.9302 100.574 92.6541 102.008 92.1715 103.523C91.6487 105.172 94.2359 105.883 94.7587 104.234C95.7105 101.244 93.8873 98.389 92.2117 96.0431C91.3806 94.8769 90.4556 93.7642 89.2223 93.0269C87.989 92.2896 86.4876 91.9679 85.0399 91.7802C78.431 90.9089 71.7418 90.4799 65.0928 90.1448C51.6875 89.4611 38.2553 89.5415 24.8366 89.9303C21.177 90.0375 17.4771 90.0509 13.8577 90.7212C10.2383 91.3915 7.02098 92.7856 3.80371 94.3138C2.2487 95.0511 3.60263 97.3702 5.15765 96.6329V96.6463Z" fill="black"/>
<path d="M91.9973 104.087C91.394 109.878 87.3054 114.637 84.1418 119.248C80.3883 124.717 77.0235 130.455 73.8599 136.273C72.0636 139.57 70.3611 142.895 68.7257 146.273C67.975 147.815 70.2807 149.182 71.0448 147.627C74.0207 141.514 77.238 135.522 80.71 129.677C82.4259 126.782 84.2088 123.926 86.0989 121.138C87.8282 118.591 89.6915 116.151 91.2734 113.511C93.0295 110.602 94.3298 107.492 94.6783 104.087C94.7588 103.363 94.0081 102.746 93.3378 102.746C92.5469 102.746 92.0777 103.363 91.9973 104.087Z" fill="black"/>
<path d="M55.977 142.882C58.1889 144.678 60.5884 146.126 63.2158 147.212C64.4625 147.735 65.7629 148.15 67.0766 148.472C68.4707 148.807 69.9989 149.156 71.2992 148.351C72.7604 147.44 71.4199 145.121 69.9453 146.032C69.208 146.488 67.8809 145.925 67.1168 145.71C65.9907 145.402 64.8915 145.027 63.8191 144.571C61.6876 143.659 59.6634 142.44 57.8671 140.978C57.3041 140.523 56.5132 140.429 55.977 140.978C55.5078 141.448 55.414 142.413 55.977 142.869V142.882Z" fill="black"/>
<path d="M57.6258 141.38C58.1352 138.686 59.6903 136.206 60.9235 133.793C62.2909 131.139 63.685 128.484 65.1194 125.857C67.9211 120.682 70.8301 115.575 73.8463 110.535C75.5755 107.639 77.3316 104.77 79.128 101.928C80.0529 100.467 77.7338 99.1133 76.8088 100.574C70.4279 110.709 64.476 121.098 58.9798 131.728C57.5186 134.557 55.6285 137.506 55.0386 140.67C54.7169 142.359 57.3041 143.083 57.6258 141.38Z" fill="black"/>
<path d="M25.5068 112.68C37.1828 113.31 48.8856 113.283 60.5616 112.586C63.7655 112.398 67.0364 112.023 70.2403 112.465C70.9508 112.559 71.6746 112.291 71.8891 111.527C72.0634 110.897 71.6746 109.972 70.9508 109.878C68.0284 109.476 65.1329 109.61 62.1971 109.798C59.2613 109.985 56.2585 110.133 53.2826 110.24C47.3842 110.454 41.4859 110.495 35.5876 110.361C32.2228 110.294 28.8581 110.16 25.5068 109.972C23.7775 109.878 23.7909 112.559 25.5068 112.653V112.68Z" fill="black"/>
<path d="M22.0215 102.29C23.8714 113.403 27.2495 124.221 32.0084 134.436C33.349 137.318 34.7967 140.133 36.3651 142.908C37.2097 144.409 39.5288 143.055 38.6843 141.554C33.2551 131.889 29.1531 121.527 26.4988 110.762C25.7481 107.732 25.1315 104.663 24.6087 101.579C24.488 100.869 23.6033 100.467 22.9598 100.641C22.1957 100.856 21.9008 101.579 22.0215 102.29Z" fill="black"/>
<path d="M3.80365 94.4223C0.854487 97.9077 0.144006 102.546 0.894703 106.956C1.75264 111.93 4.50073 116.34 7.00752 120.616C9.84945 125.442 12.6914 130.255 15.5333 135.081C16.9409 137.467 18.3484 139.853 19.756 142.239C20.4933 143.486 21.2171 144.719 21.9544 145.966C22.5979 147.065 23.1877 148.245 23.9518 149.277C24.783 150.403 26.0296 150.912 27.3434 150.309C28.6571 149.706 29.8368 148.955 31.0432 148.245C33.6573 146.716 36.2311 145.094 38.7379 143.378C40.1588 142.413 38.8183 140.094 37.3839 141.059C35.3463 142.44 33.2819 143.767 31.1773 145.041C30.1451 145.657 29.1129 146.274 28.0538 146.864C27.5981 147.119 27.1423 147.373 26.6865 147.628C26.1771 147.909 26.3246 148.017 26.0431 147.628C25.346 146.636 24.783 145.51 24.1663 144.464C23.496 143.325 22.8124 142.172 22.1421 141.033C20.8418 138.834 19.5549 136.649 18.2546 134.451C15.6673 130.067 13.0801 125.67 10.4929 121.287C8.14697 117.305 5.47932 113.31 4.09857 108.86C2.82507 104.758 2.75804 99.7844 5.6804 96.3393C6.79304 95.0255 4.90289 93.122 3.79025 94.4491L3.80365 94.4223Z" fill="black"/>
<path d="M36.1775 143.378C38.5904 148.338 40.5074 153.525 41.9149 158.861L42.8533 157.212C41.5396 157.44 40.5074 158.258 39.5154 159.089C38.5234 159.92 37.5448 160.536 36.2713 160.872C33.3356 161.636 30.1451 161.77 27.1423 161.957C25.5069 162.051 23.8848 162.118 22.2494 162.145C21.5523 162.145 20.748 162.266 20.0643 162.145C19.8632 162.105 20.0509 162.266 20.0241 162.225C19.9303 162.038 20.0643 161.609 20.1045 161.421C20.3994 160.309 21.0027 159.29 21.8204 158.485C22.7722 157.547 24.0189 157.118 25.1181 156.421C27.7724 154.732 28.3622 151.756 28.4828 148.82C28.5499 147.091 25.8688 147.104 25.8018 148.82C25.7482 150.04 25.6811 151.34 25.1717 152.48C24.5551 153.847 23.3218 154.37 22.0751 155.04C19.6219 156.367 17.5843 158.914 17.343 161.756C17.2224 163.191 17.9999 164.518 19.4745 164.772C21.0831 165.041 22.8928 164.84 24.5283 164.772C28.0405 164.652 31.5527 164.357 35.0246 163.848C36.7137 163.606 38.443 163.191 39.8639 162.212C41.0704 161.394 42.0758 160.067 43.5638 159.799C44.2877 159.678 44.6764 158.794 44.5022 158.15C43.041 152.587 41.0168 147.198 38.4966 142.037C37.7459 140.482 35.4268 141.849 36.1775 143.391V143.378Z" fill="black"/>
<path d="M55.2666 141.233C54.6768 143.096 53.0548 144.396 51.6874 145.697C50.0788 147.238 48.7517 148.927 47.9205 151.019C47.5184 152.024 47.1162 153.204 47.1162 154.303C47.1162 155.523 47.9205 156.233 48.8723 156.85C50.8697 158.164 52.9743 159.33 55.1326 160.349C59.5563 162.44 64.6369 164.424 69.5969 164.384C71.5809 164.37 73.7794 163.968 75.2539 162.52C76.8358 160.965 76.9028 158.619 75.817 156.77C74.5703 154.651 72.4388 153.592 70.428 152.359C69.5835 151.85 68.7122 151.273 68.1491 150.429C67.4118 149.343 67.5727 148.002 67.6799 146.756C67.8274 145.04 65.1463 145.053 64.9989 146.756C64.8112 148.901 64.9989 150.898 66.4467 152.587C67.5995 153.928 69.2216 154.759 70.723 155.63C72.0233 156.381 73.9268 157.694 73.9 159.397C73.8732 160.939 72.0233 161.488 70.7766 161.636C68.5379 161.904 66.2188 161.448 64.0739 160.845C61.9291 160.241 59.9719 159.558 58.0013 158.7C56.0307 157.842 54.1138 156.877 52.2773 155.791C51.8483 155.536 51.4193 155.282 51.0037 155.013C50.6954 154.812 49.9179 154.504 49.7571 154.169C49.8107 154.29 49.8107 154.357 49.8375 154.169C49.8911 153.887 49.9447 153.606 50.0118 153.338C50.1458 152.788 50.3201 152.239 50.5346 151.716C52.1968 147.828 56.5804 146.018 57.8807 141.93C58.4035 140.281 55.8163 139.571 55.2934 141.219L55.2666 141.233Z" fill="black"/>
<path d="M52.4919 144.945C52.0629 146.112 53.2426 146.983 54.2748 147.037C55.0791 147.077 55.9102 147.01 56.7011 146.97C58.3634 146.876 60.0256 146.715 61.6879 146.487C62.385 146.393 62.8273 145.468 62.6263 144.838C62.3716 144.074 61.7281 143.806 60.9774 143.9C61.1785 143.873 60.7897 143.927 60.7495 143.927C60.5753 143.953 60.4144 143.967 60.2401 143.994C59.9452 144.034 59.6503 144.061 59.3554 144.087C58.7387 144.155 58.1355 144.195 57.5188 144.235C56.9022 144.275 56.3392 144.302 55.7493 144.329C55.4544 144.329 55.1595 144.342 54.8646 144.356C54.7037 144.356 54.5161 144.342 54.3418 144.356C54.2077 144.356 54.248 144.356 54.449 144.382C54.6501 144.449 54.7976 144.583 54.9182 144.771L55.1059 145.441L55.0791 145.656C55.3204 144.999 54.811 144.155 54.1407 144.007C53.3766 143.833 52.7466 144.235 52.4919 144.945Z" fill="black"/>
<path d="M31.8074 148.043C34.2337 148.391 36.6333 148.914 38.9792 149.625C39.6495 149.826 40.4672 149.383 40.6281 148.686C40.7889 147.989 40.4136 147.252 39.6897 147.037C37.3438 146.327 34.9442 145.804 32.5178 145.455C31.8208 145.362 31.0433 145.63 30.869 146.394C30.7215 147.024 31.0567 147.935 31.8074 148.043Z" fill="black"/>
<mask id="mask0_136_1397" style="mask-type:alpha" maskUnits="userSpaceOnUse" x="0" y="-1" width="95" height="167">
<path d="M94.5 99L85.5 88L71 68L65 18.5L49.5 -0.5H24L3 18.5L5.5 85L0 96L3 114L20 153.5L17.5 156.5L20 165.5H33L46 160L71 165.5L77.5 163V153.5L71 147L91.5 114L94.5 99Z" fill="#D9D9D9"/>
</mask>
<g mask="url(#mask0_136_1397)">
<rect x="-510.125" y="44.9404" width="815.042" height="130.031" fill="url(#paint0_linear_136_1397)"/>
</g>
</g>
<defs>
<linearGradient id="paint0_linear_136_1397" x1="-102.603" y1="174.972" x2="-102.603" y2="44.9404" gradientUnits="userSpaceOnUse">
<stop stop-color="#191817"/>
<stop offset="1" stop-color="#191817" stop-opacity="0"/>
</linearGradient>
<clipPath id="clip0_136_1397">
<rect width="94.4032" height="164.206" fill="white" transform="translate(0.617432 0.702148)"/>
</clipPath>
</defs>
</svg>
