<svg width="90" height="162" viewBox="0 0 90 162" fill="none" xmlns="http://www.w3.org/2000/svg">
<g clip-path="url(#clip0_136_1401)">
<path d="M87.8681 155.378C87.7876 155.257 87.7072 155.15 87.6268 155.043C87.801 154.667 87.8278 154.225 87.5731 153.85C85.9645 151.49 83.9001 149.493 81.4871 148.018C81.6748 141.45 81.8625 134.881 82.0636 128.299C82.144 127.535 82.211 126.758 82.278 125.993C83.1896 117.629 83.7258 109.223 82.8947 100.818C82.8679 100.497 82.7874 100.228 82.6802 99.9737C82.6802 99.4107 82.6534 98.8477 82.64 98.2847C82.64 98.2445 82.64 98.2177 82.64 98.1908C82.8411 97.7217 82.9215 97.172 82.7874 96.5554C82.7204 96.2605 82.64 95.9656 82.5596 95.684C82.4657 93.7135 81.9831 91.7965 80.1198 90.8179C80.2807 90.7107 80.4415 90.6034 80.6024 90.4828C80.8839 90.2683 81.1386 90.0404 81.3531 89.7857C82.6534 89.5578 83.4175 88.4452 83.565 87.1449C84.2084 81.528 84.3157 75.871 83.9671 70.2274C83.9671 67.8278 83.766 65.4417 83.3773 63.0555C82.9081 60.1466 82.0636 57.3315 79.9589 55.1732C79.8249 55.0392 79.6908 54.9319 79.53 54.8381C79.4763 54.6772 79.4227 54.5298 79.3423 54.3689C76.8087 49.4223 73.7255 44.7975 70.1597 40.548C69.2213 39.1271 68.2829 37.7195 67.3311 36.2985C67.0362 35.8562 66.6743 35.5613 66.2855 35.3602C65.7091 34.6229 64.9316 34.0599 64.0871 33.6309C63.7787 33.3494 63.4838 33.0679 63.1755 32.7864C62.5991 32.2635 61.9556 32.0625 61.3256 32.0759C61.1379 31.982 60.9502 31.915 60.7223 31.8614C59.9314 31.6603 59.1539 31.5531 58.3764 31.4726C57.4514 31.3118 56.5131 31.1643 55.5881 31.0035C55.32 30.9632 55.0653 30.9632 54.824 30.9766C54.9312 30.6549 55.0117 30.3064 55.0251 29.931C55.2798 25.266 55.1189 20.668 54.5961 16.0833C54.4754 13.8849 54.1671 11.6998 53.6041 9.43432C53.336 8.34849 52.773 7.6112 52.0893 7.14201C52.0893 6.95434 52.0759 6.75326 52.0357 6.55218C51.915 4.98376 51.2984 3.52258 50.0785 2.36972C49.1267 1.47157 47.9069 1.47157 46.9551 1.96756C45.9899 1.67265 44.9711 1.51178 43.9523 1.52519C40.5876 1.59222 37.3033 3.12042 34.4479 4.79608C31.6998 6.39131 28.5094 8.40211 28.1474 11.8473C28.1474 11.9009 28.1474 11.9545 28.1474 12.0081C27.5308 12.665 27.3297 13.6302 27.4638 14.5954C27.8525 17.3569 28.5898 20.0379 29.6622 22.6251C30.6006 24.8906 31.8741 27.9202 34.4077 28.242C34.0324 29.6361 33.6704 31.0303 33.3219 32.4244C32.9063 32.974 32.4505 33.5102 32.0082 34.0331C31.4853 34.4486 30.976 34.8776 30.4665 35.32C28.0268 37.2235 25.5334 39.06 22.9864 40.8161C21.2303 41.8483 19.5144 42.9476 17.8388 44.1272C17.1417 44.6232 16.7663 45.2533 16.6457 45.9102C16.0156 46.9156 15.5196 47.8941 15.1711 48.8995C15.0102 49.2213 14.8762 49.5832 14.8226 49.9988C14.8226 50.0926 14.8092 50.1864 14.7957 50.2669C14.6215 51.0444 14.5276 51.8487 14.5142 52.6932C14.3668 53.9667 14.2461 55.2402 14.1389 56.5003C14.0451 56.8087 13.978 57.1304 13.9512 57.4789C13.5893 62.6802 13.4552 67.8814 13.5357 73.0827C13.5357 73.1765 13.5088 73.257 13.5088 73.3508L13.7367 79.6513C13.7635 80.1071 13.8574 80.4958 13.9914 80.8712C13.978 81.0186 13.9646 81.1795 13.9646 81.3404C13.9914 81.9972 14.0719 82.5871 14.1657 83.1501C13.9914 83.8606 14.1121 84.6381 14.5679 85.429C14.5947 85.496 14.6215 85.5764 14.6349 85.6435C14.7421 85.9518 14.8896 86.2601 15.0773 86.5684C15.5733 87.9492 16.7127 88.6731 17.9862 88.8339C18.0532 88.8876 18.1203 88.9412 18.2007 88.9948C18.6431 89.3165 19.1123 89.5176 19.568 89.6114C20.8013 90.3487 22.1821 90.8849 23.6567 91.3541C24.2331 92.0244 24.9436 92.5338 25.7479 92.9494C20.493 95.5902 14.1523 99.8531 14.7689 106.033C14.5813 108.62 14.6081 111.248 14.6215 113.848C14.6617 119.398 14.9432 124.948 15.2381 130.484C15.2649 131.114 15.466 131.61 15.7609 132.012C15.8548 136.235 16.029 140.471 16.2703 144.68C16.2301 147.107 16.2167 149.533 16.2435 151.96C16.1229 151.96 16.0022 151.96 15.8816 151.96C15.7743 151.785 15.5867 151.665 15.3454 151.691C14.6081 151.772 13.8842 151.906 13.1737 152.067C9.92962 152.536 6.90002 153.917 4.42004 156.102C4.24577 156.249 4.19215 156.423 4.21896 156.584C3.84362 156.919 3.46827 157.268 3.13313 157.657C3.06611 157.737 3.02589 157.818 2.99908 157.911C2.81141 158.046 2.62373 158.153 2.43606 158.287C1.85963 158.716 2.16795 159.721 2.95887 159.507C2.98568 159.507 3.01249 159.493 3.0527 159.48C3.11973 159.507 3.18676 159.52 3.26719 159.534C3.84362 159.56 4.40664 159.56 4.98307 159.574C5.09031 159.694 5.25117 159.761 5.45225 159.761C6.14933 159.761 6.8464 159.761 7.54348 159.748C9.66152 160.083 11.8198 160.07 13.9646 159.869C14.1121 160.043 14.3266 160.15 14.6215 160.083C14.7421 160.056 14.8628 160.03 14.9834 160.003C16.7529 160.418 18.5894 160.19 20.4126 160.003C22.5038 159.775 24.595 159.48 26.6863 159.185C27.3699 159.265 28.0536 159.212 28.5898 158.903C29.0322 159.493 29.8767 159.038 29.7695 158.34C29.7427 158.139 29.7427 157.938 29.7293 157.737C29.9303 157.643 30.0778 157.442 30.0778 157.147C30.0778 156.129 30.1582 155.11 30.3325 154.104C30.3995 153.742 30.2253 153.488 29.984 153.367C30.5604 140.391 31.6194 127.441 33.1878 114.545C33.228 114.197 33.1878 113.875 33.094 113.594C33.2414 112.816 33.4023 112.052 33.5632 111.288C34.9975 110.403 36.4721 109.612 37.9869 108.915C41.9951 108.097 45.9095 106.944 49.7166 105.403C50.1589 105.229 50.5075 104.987 50.789 104.706C50.856 104.706 50.923 104.733 51.0035 104.733C54.3012 104.92 57.5453 105.457 60.7357 106.368C62.1567 106.77 63.6983 107.172 65.012 107.856C65.6555 108.191 66.0442 108.687 66.3257 109.277C66.8217 114.612 67.3177 119.948 67.8137 125.283C67.2507 130.39 67.1301 135.525 67.4786 140.645C67.4786 140.645 67.4786 140.645 67.4786 140.659C67.3177 142.375 67.1971 144.077 67.1703 145.793C66.9692 148.648 66.929 151.504 67.1301 154.372C67.1435 154.56 67.1971 154.734 67.2641 154.882C67.2373 154.935 67.1971 154.989 67.1703 155.043C67.0764 155.297 67.063 155.539 67.0898 155.767C67.0362 157.335 68.6583 157.657 70.3607 157.63C70.6288 157.697 70.8969 157.751 71.1516 157.777C72.7067 157.898 74.2885 157.844 75.8435 157.831C79.0876 157.831 82.3451 157.71 85.5892 157.496C85.75 157.496 85.8841 157.442 86.0181 157.389H86.7152C87.6804 157.389 88.4579 156.222 87.8681 155.364V155.378ZM69.2615 60.3343C70.0256 61.5139 70.7495 62.7204 71.46 63.9403C72.2777 65.6025 72.9077 67.3184 73.3769 69.0879C72.8139 71.0183 73.3501 73.4849 73.4305 75.3482C73.444 75.6029 73.511 75.8308 73.578 76.0587C73.4976 78.6191 73.4171 81.1795 73.3501 83.7399C73.2295 83.7667 73.1222 83.7801 73.0016 83.8204C72.6664 83.9142 72.3313 84.0348 71.9962 84.1555C71.3393 83.512 70.6959 82.8418 70.0926 82.1447C69.8915 81.9034 69.6771 81.6621 69.476 81.4074C69.3956 81.3136 69.3285 81.2197 69.2481 81.1259C69.2347 81.0991 69.2213 81.0857 69.1945 81.0589C69.0202 80.831 68.8593 80.5763 68.6851 80.3484C68.1086 75.5627 67.3311 70.8172 66.3794 66.0851C66.5 63.0823 66.3257 60.0662 65.8968 57.0902L68.9532 59.6774C69.0202 59.9053 69.1006 60.1332 69.2347 60.3477L69.2615 60.3343ZM25.3323 80.1741C25.5602 79.5977 25.7211 78.9408 25.7345 78.2035C25.7747 76.6887 25.8551 75.1739 25.9624 73.6859C26.1634 71.9701 26.3779 70.2408 26.5924 68.5249C27.7185 73.0425 28.9517 77.5199 30.2923 81.957L25.4664 80.2143C25.4664 80.2143 25.3725 80.1875 25.3189 80.1741H25.3323Z" fill="#944EBE"/>
<path d="M52.0892 10.466C52.5986 13.4688 53.0141 16.485 53.3224 19.5146C53.6308 22.5442 54.0463 25.5469 53.4565 28.4559C53.242 29.5015 52.9203 30.6276 52.1428 31.4051C51.258 32.2764 50.1454 31.9413 49.0596 31.7134C47.8397 31.4453 46.231 31.0833 45.4267 32.3434C45.0916 32.8662 44.9173 33.5097 44.6894 34.0861C44.3811 34.8502 44.0728 35.6277 43.7645 36.3918C43.4964 37.0621 44.0594 37.8664 44.7028 38.0407C45.4669 38.2552 46.0836 37.786 46.3517 37.1023C46.6734 36.2846 47.0085 35.4535 47.3303 34.6357C47.3705 34.5285 47.6654 33.8716 47.6386 33.8582C47.156 34.0727 47.1292 34.1666 47.5582 34.1397C47.7324 34.1666 47.8933 34.1934 48.0542 34.2336C49.3947 34.5017 50.7486 34.8904 52.1026 34.4883C54.6362 33.7108 55.7622 30.9493 56.1376 28.5497C56.6201 25.4531 56.2716 22.2895 55.9499 19.1928C55.6282 16.0962 55.1992 12.8923 54.663 9.7689C54.5423 9.05842 53.6576 8.65626 53.0141 8.83053C52.2634 9.03161 51.9551 9.7689 52.0758 10.4794L52.0892 10.466Z" fill="black"/>
<path d="M41.821 20.7888C41.5931 20.2794 41.3116 19.77 40.8826 19.3947C40.3464 18.9389 39.6359 18.6708 38.9254 18.711C37.6519 18.8048 36.5259 19.5555 35.8958 20.6682C35.3194 21.6736 35.1585 22.88 35.4132 24.0195C35.6679 25.159 36.4186 26.0839 37.3704 26.6603C38.4428 27.3172 39.837 27.5183 41.03 27.1161C41.7003 26.9016 42.1963 26.1778 41.9684 25.4673C41.7539 24.797 41.03 24.301 40.3196 24.5289C40.2391 24.5557 40.1453 24.5825 40.0649 24.6093C40.0112 24.6093 39.7431 24.663 39.9844 24.6361C40.2257 24.6093 39.9174 24.6361 39.8504 24.6361C39.7565 24.6361 39.6761 24.6361 39.5823 24.6361C39.5287 24.6361 39.475 24.6361 39.4348 24.6361C39.2874 24.6361 39.6091 24.663 39.5957 24.663C39.5287 24.6361 39.4482 24.6361 39.3678 24.6227C39.274 24.5959 39.1935 24.5825 39.1131 24.5557C39.0729 24.5557 39.0461 24.5289 39.0058 24.5155C38.778 24.4485 39.2203 24.6227 39.0729 24.5423C38.9254 24.4619 38.778 24.3948 38.6305 24.301C38.6037 24.2742 38.5635 24.2608 38.5367 24.234C38.416 24.1536 38.6573 24.3278 38.6573 24.3278C38.5903 24.2474 38.4964 24.1938 38.4294 24.1267C38.3758 24.0731 38.3222 24.0195 38.2686 23.9525C38.1211 23.7782 38.4294 24.1938 38.2686 23.9525C38.2283 23.8854 38.1881 23.8184 38.1479 23.7514C38.1211 23.7112 38.1077 23.6576 38.0809 23.6173C38.0004 23.4699 38.1747 23.8854 38.1211 23.7246C38.0675 23.5637 38.0139 23.4163 37.987 23.242C37.987 23.2018 37.987 23.1616 37.9602 23.1347C37.92 22.9605 37.987 23.4297 37.9736 23.2554C37.9736 23.1616 37.9736 23.0811 37.9736 22.9873C37.9736 22.8935 37.9736 22.813 37.9736 22.7192C37.9736 22.679 37.9736 22.6388 37.9736 22.5985C37.9736 22.5985 37.92 22.9069 37.9468 22.7594C37.987 22.5717 38.0273 22.3841 38.0943 22.1964C38.1613 21.9685 37.9736 22.4377 38.0809 22.2366C38.1211 22.1562 38.1613 22.0757 38.2015 21.9953C38.2417 21.9283 38.282 21.8612 38.3222 21.8076C38.3892 21.687 38.2283 21.9283 38.2283 21.9283C38.2686 21.8881 38.3088 21.8344 38.349 21.7808C38.4026 21.7272 38.4562 21.6736 38.5098 21.62C38.5501 21.5797 38.6841 21.4725 38.5233 21.5931C38.3624 21.7138 38.483 21.6199 38.5233 21.5931C38.5903 21.5529 38.6573 21.5127 38.7243 21.4725C38.7645 21.4457 38.8316 21.4323 38.8718 21.4055C38.8182 21.4323 38.6037 21.4993 38.778 21.4591C38.8718 21.4323 38.9924 21.4189 39.0863 21.3787C39.0863 21.3787 38.7914 21.3921 38.9254 21.4055C38.979 21.4055 39.0327 21.4055 39.0729 21.4055C39.1131 21.4055 39.1533 21.4055 39.1935 21.4055C38.8852 21.4055 38.9656 21.4055 39.0997 21.4055C39.2203 21.4055 38.9656 21.3384 38.9522 21.3384C38.9924 21.3652 39.0461 21.3921 39.0863 21.4055C39.274 21.4993 39.0192 21.3787 39.0058 21.3384C39.0058 21.3652 39.0997 21.4323 39.1265 21.4591C39.1533 21.4859 39.2471 21.6065 39.1265 21.4591C38.9924 21.2982 39.1265 21.4859 39.1667 21.5261C39.2874 21.7272 39.3812 21.9283 39.475 22.1428C39.7565 22.7862 40.7485 22.9873 41.3116 22.6253C41.9818 22.1964 42.1025 21.4725 41.7941 20.7888H41.821Z" fill="black"/>
<path d="M41.3519 22.2095C43.6442 20.3998 43.5504 17.2898 43.5235 14.6624C43.5235 13.9653 43.5235 13.2548 43.6576 12.5711C43.6978 12.3566 43.7648 11.8472 43.9123 11.6998C43.9927 11.6194 43.8855 11.6998 43.8989 11.6864C43.9257 11.673 44.3681 11.7266 44.3815 11.7266C46.0303 11.8606 47.6658 11.9679 49.328 11.9411C50.615 11.9277 52.0359 11.8338 53.0547 10.9491C54.288 9.89007 54.154 8.33505 53.792 6.90068C53.4703 5.58696 53.0547 4.28665 52.2236 3.20082C51.3925 2.11499 50.1592 1.33748 48.832 0.908513C46.1778 0.0371678 43.0946 0.291869 40.4001 0.841486C37.5046 1.43132 34.676 2.61099 32.2497 4.30005C29.8233 5.98912 27.7857 8.02673 26.9412 10.7882C26.0162 13.8178 27.0216 17.1289 27.7589 20.0915C28.1879 21.8074 28.7107 23.483 29.448 25.0917C30.0646 26.4322 30.9226 27.7996 32.2497 28.5502C33.5768 29.3009 35.172 29.2607 36.3919 28.2553C37.5448 27.317 37.9872 25.7888 37.2365 24.4482C36.3919 22.9468 34.0728 24.2874 34.9173 25.8022C35.105 26.1373 34.2337 26.4188 34.0326 26.392C33.1747 26.2713 32.5714 25.2659 32.1961 24.5823C30.9896 22.3972 30.4534 19.8904 29.9038 17.4775C29.3541 15.0645 28.7911 12.6382 29.9976 10.3861C31.07 8.41548 32.9065 6.9543 34.8101 5.82826C36.8879 4.59497 39.1668 3.76384 41.5396 3.33487C43.6576 2.94612 46.0437 2.81207 48.1216 3.48233C50.1994 4.1526 51.1244 6.31085 51.3925 8.38867C51.4997 9.2064 50.5479 9.2064 49.9179 9.23321C48.5505 9.28683 47.1832 9.23321 45.8159 9.15277C44.4485 9.07234 43.0544 8.69699 42.0222 9.75601C41.0838 10.7212 40.9095 12.3566 40.8425 13.6301C40.7352 15.8152 41.4189 18.7376 39.4483 20.306C38.8853 20.7618 38.9791 21.7269 39.4483 22.1961C40.0114 22.7592 40.7755 22.6519 41.3385 22.1961L41.3519 22.2095Z" fill="black"/>
<path d="M32.9064 28.5771C32.5847 33.9392 26.7533 36.7945 22.7049 39.1539C20.4663 40.4542 18.2008 41.8886 16.4581 43.8323C14.4339 46.071 13.4821 48.7521 13.0799 51.7147C12.6376 55.066 12.5035 58.4843 12.3695 61.8625C12.2354 65.2406 12.1952 68.8466 12.2488 72.332C12.3024 75.8174 12.4365 79.276 12.6912 82.7345C12.7984 84.1957 12.9861 85.6435 13.6296 86.9706C14.2462 88.2307 15.3454 89.1959 16.5385 89.893C18.0399 90.7509 19.729 91.3273 21.351 91.9172C23.0803 92.5472 24.823 93.1236 26.5925 93.633C30.1717 94.6786 33.8179 95.4696 37.5044 96.0192C38.2417 96.1264 38.912 95.8449 39.1533 95.0808C40.2525 91.6088 42.2231 88.5122 44.8639 86.0054C46.124 84.8123 44.2205 82.9222 42.9738 84.1153C39.9978 86.9438 37.8127 90.4694 36.5794 94.3703L38.2283 93.432C31.8876 92.4802 25.6675 90.8045 19.7156 88.4318C18.5895 87.976 17.383 87.4532 16.5519 86.5416C15.6538 85.5496 15.4929 84.1421 15.3857 82.8686C15.1309 79.5307 14.9969 76.1793 14.9433 72.828C14.8226 66.1924 14.9701 59.5165 15.6269 52.9077C15.8951 50.173 16.6055 47.5992 18.5225 45.5482C20.2518 43.6983 22.4502 42.398 24.6219 41.1513C29.5014 38.3362 35.2121 34.8374 35.6008 28.5771C35.7081 26.8478 33.027 26.8612 32.9198 28.5771H32.9064Z" fill="black"/>
<path d="M24.5684 54.3291C26.3513 60.8039 25.3593 67.5736 24.5148 74.1154C24.3137 75.6704 23.9384 77.346 23.992 78.9144C24.0456 80.4829 24.917 81.5687 26.405 82.0379C28.0136 82.5473 29.7161 82.8556 31.3515 83.2444C32.987 83.6331 34.7565 84.0755 36.4589 84.4776C38.3759 84.9468 40.2929 85.4026 42.2098 85.8718C42.9873 86.0595 43.7782 86.2874 44.4619 85.7109C45.3064 85.0005 45.0517 83.8476 44.1938 83.298C43.6442 82.936 43.0275 83.1505 42.5717 83.5125L42.4913 83.5795C41.9149 84.0219 42.0221 85.0139 42.4913 85.4696C43.0543 86.0327 43.8184 85.912 44.3815 85.4696L44.4619 85.4026L42.8399 85.6171L42.9605 85.6975L42.2902 84.5447V84.6787C42.5181 84.29 42.746 83.9012 42.9605 83.5259L42.8399 83.6063L43.5101 83.4186C43.1482 83.4454 42.2902 83.1505 41.7808 83.0299C41.0301 82.8556 40.2928 82.6679 39.5422 82.4937C38.0542 82.1317 36.5662 81.7698 35.0648 81.4078C33.5634 81.0459 32.1826 80.7108 30.7483 80.3622C30.0512 80.188 29.3675 80.0271 28.6705 79.8528C28.1745 79.7322 27.1691 79.692 26.7937 79.3434C26.539 79.1021 26.6328 78.6329 26.6597 78.2978C26.7133 77.5873 26.8205 76.8768 26.901 76.1664C27.0752 74.6918 27.2763 73.2306 27.464 71.756C27.8259 68.9275 28.1342 66.099 28.2013 63.2436C28.2683 59.9996 27.9734 56.7421 27.1154 53.6186C26.6597 51.9564 24.0724 52.6669 24.5282 54.3291H24.5684Z" fill="black"/>
<path d="M30.212 35.9228C36.3248 45.2931 40.7619 55.6822 43.2821 66.5807C44.006 69.6773 44.569 72.8142 44.9712 75.9644C45.065 76.6883 45.5208 77.305 46.3117 77.305C46.9686 77.305 47.7461 76.6883 47.6523 75.9644C46.2045 64.4627 42.7593 53.2826 37.4374 42.9874C35.9494 40.0918 34.3006 37.2901 32.5177 34.5688C31.5793 33.1345 29.2602 34.475 30.1986 35.9228H30.212Z" fill="black"/>
<path d="M27.5039 37.9203L26.7666 43.8991C26.6995 44.4353 27.2223 45.0922 27.7452 45.186C28.6701 45.3603 29.5951 45.4541 30.5469 45.4005L29.26 44.4219C29.3672 45.0922 28.6165 46.0171 28.3618 46.607C27.9194 47.6258 27.7854 48.6848 28.2277 49.7304C28.7103 50.8699 29.5951 51.8753 30.3056 52.8673C31.1099 53.9933 31.9142 55.1059 32.7453 56.2052C34.3272 58.3366 35.9492 60.4547 37.6115 62.5325C38.4694 63.6183 39.3407 64.6773 40.2121 65.7498C40.6142 66.2457 41.0298 66.7283 41.432 67.2243C41.6331 67.4656 41.8475 67.7069 42.0486 67.9482C42.2229 68.1493 42.6653 68.5112 42.7591 68.7391V68.0287L42.7189 68.2431L43.3355 67.4388L43.2417 67.5058L44.2739 67.3718L44.3677 67.412L44.8503 67.8946L44.8101 67.8008L44.5956 69.4228L44.6626 69.3424C45.7485 68.0152 43.8583 66.1117 42.7725 67.4522L42.7055 67.5327C42.2899 68.0421 42.2229 68.5649 42.491 69.1547C43.1881 70.6829 45.3865 69.9322 45.3865 68.3772C45.3865 67.6265 44.8101 67.0635 44.3543 66.5407C43.8047 65.8972 43.2551 65.2403 42.7189 64.5969C40.7617 62.2376 38.8447 59.838 36.9814 57.3982C35.1181 54.9585 33.2949 52.4785 31.5254 49.9583C31.2037 49.4891 30.6005 48.8993 30.6139 48.296C30.6139 47.9073 30.882 47.4917 31.0563 47.1566C31.6327 46.0171 32.0483 44.9983 31.8472 43.698C31.7533 43.1484 31.0965 42.6926 30.5603 42.7194C29.8498 42.7463 29.1661 42.7194 28.469 42.5988L29.4476 43.8857L30.1849 37.9069C30.2788 37.1831 29.5012 36.5664 28.8444 36.5664C28.0401 36.5664 27.5977 37.1831 27.5039 37.9069V37.9203Z" fill="black"/>
<path d="M45.2258 35.2128C47.3304 48.1623 48.3761 61.2727 48.4163 74.3831C48.4163 76.1124 51.0973 76.1124 51.0973 74.3831C51.0571 61.018 49.9445 47.6797 47.813 34.5023C47.6924 33.7918 46.8076 33.3897 46.1642 33.5639C45.4001 33.7784 45.1052 34.5023 45.2258 35.2128Z" fill="black"/>
<path d="M51.5936 68.9948C53.0682 63.2975 54.288 57.5466 55.2398 51.7421C55.4811 50.3078 55.6956 48.86 55.8967 47.4256C56.0844 46.0851 56.3793 44.7043 56.205 43.337C55.8833 40.7498 53.7786 39.2886 51.6472 38.1492L51.3255 40.6023C54.3149 39.3422 55.4141 35.0793 52.8537 32.787C51.5668 31.6342 49.6632 33.5243 50.9635 34.6772C51.8617 35.4815 51.8885 37.4789 50.6284 38.0151C49.6632 38.4307 49.1806 39.865 50.3067 40.4683C51.1914 40.9375 52.103 41.4066 52.8135 42.1305C53.591 42.9214 53.658 43.8732 53.5642 44.9322C53.3363 47.5061 52.8403 50.0799 52.4113 52.6269C51.4997 57.8952 50.3737 63.1098 49.0332 68.2843C48.6042 69.9599 51.1914 70.6704 51.6204 68.9948H51.5936Z" fill="black"/>
<path d="M54.6363 32.4238C58.4032 32.4238 62.4114 33.094 65.1729 35.8958C66.7279 37.4776 67.8942 39.4348 69.1409 41.2713C70.468 43.2151 71.7817 45.1454 73.1088 47.0892C74.4359 49.033 75.8435 51.084 77.1974 53.0948C78.3637 54.824 79.5166 56.5801 80.3879 58.4837C82.2512 62.5857 82.2646 67.3714 82.3987 71.7952C82.573 77.2109 82.4255 82.64 81.9697 88.0424C81.8223 89.7583 84.5033 89.7583 84.6508 88.0424C85.0798 82.9752 85.2406 77.8812 85.1066 72.7871C84.9859 68.0953 84.9993 62.9879 83.2969 58.5507C81.5944 54.1136 78.605 50.4003 75.991 46.5798C74.5432 44.4617 73.0954 42.3303 71.6476 40.2123C70.3205 38.2551 69.0604 36.2041 67.4652 34.448C64.1809 30.8286 59.3282 29.7829 54.6363 29.7695C52.907 29.7695 52.907 32.4506 54.6363 32.4506V32.4238Z" fill="black"/>
<path d="M31.4989 35.2393C33.6035 37.679 36.3248 39.8239 39.6225 40.1992C42.5046 40.5344 45.6951 39.2609 47.0758 36.6066C47.8801 35.0784 45.561 33.7245 44.7567 35.2527C43.8049 37.0758 41.5796 37.8265 39.6091 37.5048C37.0487 37.0892 35.011 35.2259 33.389 33.3357C32.9198 32.7861 31.9814 32.8531 31.4989 33.3357C30.9492 33.8853 31.0297 34.6763 31.4989 35.2259V35.2393Z" fill="black"/>
<path d="M64.8514 57.5062C67.9882 60.4554 71.3261 63.6592 71.7819 68.1768C72.0366 70.697 71.8892 73.2842 71.8892 75.8312C71.8892 78.3782 71.8892 81.0727 71.8892 83.7002C71.8892 85.4294 74.5702 85.4294 74.5702 83.7002C74.5702 80.9118 74.5702 78.1235 74.5702 75.3352C74.5702 72.5469 74.7311 69.8927 74.3423 67.2116C73.6453 62.3589 70.1733 58.8199 66.7549 55.6026C65.4948 54.423 63.6047 56.3131 64.8648 57.4928L64.8514 57.5062Z" fill="black"/>
<path d="M73.6449 85.0268C73.3634 85.067 73.779 85.0268 73.7924 85.0268C73.8996 85.0268 74.0069 85.0133 74.1141 85.0133C74.3286 85.0133 74.5431 85.0133 74.7442 85.0133C74.8514 85.0133 74.9587 85.0133 75.0659 85.0268C75.0927 85.0268 75.4949 85.0804 75.2134 85.0268C75.4278 85.0536 75.6289 85.0938 75.8434 85.1474C76.2724 85.2412 76.7013 85.3753 77.1169 85.5496C77.251 85.6032 76.9963 85.4825 77.2107 85.5898C77.3046 85.6434 77.3984 85.6836 77.4923 85.7238C77.7067 85.8311 77.9078 85.9383 78.1089 86.0724C78.2966 86.1796 78.4574 86.3003 78.6451 86.4209C78.9802 86.6488 78.5513 86.3405 78.7255 86.4879C78.806 86.555 78.8864 86.622 78.9668 86.689C79.302 86.9839 79.6103 87.3057 79.9052 87.6408C79.9588 87.7078 80.0795 87.8687 79.9722 87.7212C80.0527 87.8285 80.1197 87.9223 80.1867 88.0295C80.3074 88.2038 80.4146 88.3915 80.5219 88.5792C80.7766 89.0483 80.8704 89.3165 81.0581 89.8259C81.2994 90.5095 81.9696 90.9653 82.7069 90.7642C83.3638 90.59 83.8866 89.799 83.6453 89.1154C83.2163 87.9357 82.7069 86.8767 81.9294 85.8981C81.2591 85.0402 80.4012 84.3297 79.4762 83.7532C77.5057 82.5468 75.2268 82.1044 72.9479 82.4395C72.2374 82.5468 71.8352 83.4583 72.0095 84.0884C72.224 84.8525 72.9345 85.134 73.6583 85.0268H73.6449Z" fill="black"/>
<path d="M73.739 82.4664C70.9372 82.587 68.35 83.8605 66.4062 85.8579C65.4813 86.8231 64.6904 87.9357 64.0603 89.1154C63.4303 90.2951 62.4919 91.9573 62.8136 93.3649C63.1354 94.7724 64.4491 95.5365 65.7762 95.5901C67.224 95.6438 68.6181 94.9333 69.8648 94.2764C71.1115 93.6196 72.3716 92.9091 73.8328 92.6812C75.294 92.4533 76.7551 92.5203 78.2029 92.3461C80.9778 92.0243 83.7125 90.8179 84.7581 88.043C85.3613 86.4209 82.7741 85.7238 82.1709 87.3325C81.38 89.4505 78.4174 89.7052 76.5273 89.7991C74.999 89.8795 73.4172 89.9197 71.9426 90.3621C70.5887 90.7642 69.3822 91.5149 68.1355 92.1584C67.5323 92.4667 66.8486 92.8286 66.1784 92.9091C66.0443 92.9225 65.736 92.9493 65.6019 92.8689C65.3606 92.7214 65.4679 92.7214 65.5215 92.4265C65.7226 91.2334 66.6475 89.8929 67.3178 88.9411C68.8058 86.8365 71.1249 85.2547 73.7524 85.134C75.4682 85.0536 75.4816 82.3725 73.7524 82.4529L73.739 82.4664Z" fill="black"/>
<path d="M43.6172 86.7962C46.1374 87.0107 48.671 86.9973 51.1912 86.7158C52.4379 86.5817 53.6712 86.3941 54.8911 86.1394C55.119 86.0991 55.8965 85.8042 55.9769 86.1125C56.0171 86.26 55.7892 86.4209 55.6284 86.4745C53.9661 87.0107 54.6498 89.3834 56.3389 89.0617C57.3577 88.874 58.3765 88.673 59.3953 88.4987C60.2666 88.3378 61.3122 87.9893 62.197 88.0965L61.5267 87.9089C61.205 87.7748 61.5803 87.3995 61.4195 87.9089C61.339 88.1502 61.2854 88.3914 61.205 88.6193C61.0575 89.0617 60.8565 89.4773 60.6286 89.8794C60.1996 90.6569 59.65 91.3406 59.0065 91.9573C57.5319 93.3782 55.615 94.2362 53.6042 94.5311C51.3655 94.8528 49.1536 94.4506 47.0624 93.6731C44.7433 92.8152 42.4778 91.7696 40.1989 90.791C39.5286 90.5095 38.7645 90.5899 38.3624 91.2736C38.0272 91.8366 38.1747 92.8286 38.8449 93.1101C41.526 94.2496 44.1803 95.5231 46.9417 96.4614C49.4888 97.3328 52.2234 97.5473 54.8643 97.0111C57.2906 96.5151 59.5695 95.2952 61.272 93.4989C62.693 91.9975 64.3284 89.5309 64.1005 87.3592C64.0201 86.6219 63.6448 85.9919 62.9879 85.6434C62.2774 85.2546 61.5267 85.4155 60.776 85.5361C59.0601 85.831 57.3443 86.1528 55.6284 86.4745L56.3389 89.0617C57.8537 88.5791 58.9395 87.1447 58.5776 85.5227C58.162 83.6192 56.3255 83.1366 54.6364 83.4583C50.9767 84.1688 47.3305 84.4369 43.6172 84.1152C41.9014 83.9677 41.9148 86.6488 43.6172 86.7962Z" fill="black"/>
<path d="M44.8638 75.3212C45.3598 78.3508 45.9764 81.367 46.7137 84.3564C46.888 85.0534 47.6789 85.4824 48.3625 85.2947C49.0462 85.1071 49.4752 84.3564 49.3009 83.6459C48.5636 80.6565 47.947 77.6537 47.451 74.6107C47.3303 73.9002 46.4456 73.4981 45.8021 73.6723C45.038 73.8868 44.7431 74.6107 44.8638 75.3212Z" fill="black"/>
<path d="M48.872 73.4054C48.8317 77.3063 48.939 81.2073 49.2071 85.1082C49.2607 85.8321 49.7835 86.4487 50.5476 86.4487C51.2313 86.4487 51.9418 85.8321 51.8882 85.1082C51.62 81.2073 51.5128 77.3063 51.553 73.4054C51.5664 71.6761 48.8854 71.6761 48.872 73.4054Z" fill="black"/>
<path d="M63.7522 48.6855C64.3152 55.1334 64.8782 61.5814 65.4413 68.0293C65.9239 73.5255 66.2322 79.3568 69.2886 84.1425C70.2136 85.5903 72.5327 84.2497 71.6077 82.7886C68.6988 78.2308 68.5245 72.6005 68.0687 67.3725C67.5325 61.1524 66.9829 54.9189 66.4467 48.6989C66.2992 46.9964 63.6181 46.983 63.7656 48.6989L63.7522 48.6855Z" fill="black"/>
<path d="M25.949 65.8974C26.6193 70.9646 27.7051 75.9514 29.2601 80.8309C29.783 82.4664 32.3702 81.7693 31.8474 80.1205C30.3728 75.4822 29.2735 70.7233 28.6301 65.9108C28.5363 65.187 28.0805 64.5703 27.2896 64.5703C26.6461 64.5703 25.8552 65.187 25.949 65.9108V65.8974Z" fill="black"/>
<path d="M40.4535 39.4222L38.1076 43.1891C37.9065 43.4974 37.7188 43.8192 37.5178 44.1275C37.1424 44.7441 37.0486 45.6021 37.6384 46.1383C38.2685 46.7147 39.2336 46.6611 39.7564 45.9774C40.3597 45.1999 40.0111 44.0471 39.046 43.779C38.3757 43.5913 37.558 44.0069 37.3971 44.7173C37.2362 45.4278 37.6116 46.1651 38.3355 46.3662H38.3623C38.0942 46.1651 37.8261 45.964 37.558 45.7629V45.7898C37.5178 45.4412 37.4775 45.1061 37.4373 44.7575L37.9735 44.0605L38.6438 43.8728H38.617C38.8449 43.9398 39.0728 43.9934 39.2873 44.0605H39.2604C39.4213 44.2079 39.5822 44.3688 39.743 44.5297L39.7162 44.476L39.9039 45.1463C39.9039 45.2938 39.8503 45.4412 39.7967 45.5753L39.9039 45.401L40.0916 45.1061L40.4937 44.4626L41.2444 43.2696L42.7994 40.7896C43.1748 40.1997 42.9469 39.2882 42.3169 38.9531C41.66 38.6045 40.8825 38.7922 40.4803 39.4356L40.4535 39.4222Z" fill="black"/>
<path d="M40.8959 40.5748C42.6654 42.036 44.3813 43.5642 46.0302 45.146C46.5396 45.6286 47.4243 45.6822 47.9203 45.146C48.4163 44.6098 48.4565 43.7653 47.9203 43.2559C46.2715 41.674 44.5556 40.1458 42.7861 38.6847C42.5046 38.4568 42.2097 38.2959 41.8343 38.2959C41.4992 38.2959 41.1104 38.4434 40.8825 38.6847C40.4268 39.1806 40.3061 40.1056 40.8825 40.5748H40.8959Z" fill="black"/>
<path d="M26.1635 91.2468C22.6647 93.0029 19.1928 95.2818 16.4849 98.1371C15.1176 99.5715 14.0451 101.261 13.6832 103.231C13.3078 105.322 13.4955 107.467 13.5625 109.585C13.8441 118.527 14.1256 127.468 14.4071 136.396C14.5679 141.396 14.7154 146.396 14.8763 151.383C14.9299 153.099 17.6109 153.112 17.5573 151.383C17.2892 142.83 17.0211 134.278 16.753 125.739C16.6189 121.409 16.4849 117.079 16.3508 112.749C16.2838 110.671 16.19 108.58 16.1632 106.502C16.1364 104.612 16.2972 102.856 17.3831 101.261C18.5225 99.5849 20.2652 98.2175 21.8738 97.0245C23.6567 95.7108 25.5469 94.5579 27.5175 93.5659C29.0591 92.7884 27.7051 90.4827 26.1635 91.2468Z" fill="black"/>
<path d="M27.2762 157.884C25.2788 157.736 23.3082 158.165 21.3376 158.407C19.233 158.661 17.115 158.836 14.9835 158.916C10.8011 159.064 6.60521 158.862 2.47638 158.286L3.41475 159.935C3.49518 159.358 3.97777 158.889 4.35312 158.46C4.8089 157.938 5.29149 157.442 5.80089 156.986C6.75267 156.128 7.79828 155.417 8.92433 154.814C11.2434 153.567 13.8307 152.937 16.4715 152.951C18.2008 152.951 18.2008 150.283 16.4715 150.27C13.2811 150.256 10.1308 151.074 7.3425 152.629C6.00197 153.38 4.74187 154.305 3.62923 155.364C2.59703 156.342 1.05542 157.763 0.840931 159.238C0.747094 159.881 0.988389 160.779 1.7793 160.887C6.05559 161.477 10.3587 161.758 14.6752 161.624C16.7932 161.557 18.9113 161.396 21.0293 161.155C23.1474 160.914 25.1984 160.444 27.2896 160.592C29.0055 160.712 29.0055 158.031 27.2896 157.911L27.2762 157.884Z" fill="black"/>
<path d="M51.7543 105.926C53.8723 106.153 55.9904 106.422 58.095 106.757C59.1272 106.918 60.1594 107.092 61.1782 107.266C62.0362 107.414 62.988 107.507 63.8057 107.829C65.3071 108.419 65.2534 110.872 65.4277 112.213C65.6958 114.223 65.8701 116.261 65.9907 118.285C66.4733 126.556 65.8835 134.841 65.6556 143.112C65.535 147.817 65.535 152.536 65.8969 157.228C66.031 158.944 68.712 158.957 68.578 157.228C67.8943 148.353 68.5243 139.466 68.7656 130.591C68.8863 126.275 68.9131 121.945 68.6316 117.642C68.4841 115.376 68.2428 113.111 67.9211 110.859C67.653 109.036 67.4117 107.052 65.8031 105.885C65.0256 105.322 64.1006 105.094 63.1756 104.92C61.8753 104.679 60.575 104.451 59.2747 104.25C56.7679 103.848 54.2477 103.526 51.7275 103.258C51.0036 103.177 50.387 103.928 50.387 104.598C50.387 105.389 51.0036 105.859 51.7275 105.939L51.7543 105.926Z" fill="black"/>
<path d="M66.9961 158.487C70.4949 158.863 74.007 159.064 77.5326 159.05C81.0582 159.037 84.423 158.997 87.7609 158.461C91.0988 157.924 88.7395 153.581 87.6134 151.932C86.0852 149.68 83.9806 147.844 81.5006 146.718C80.8437 146.423 80.0528 146.53 79.6641 147.2C79.3289 147.777 79.4898 148.728 80.1467 149.037C81.7955 149.787 83.2299 150.833 84.4364 152.187C85.0262 152.844 85.5222 153.568 85.9512 154.345C86.1523 154.707 86.3399 155.082 86.5008 155.458C86.5812 155.659 86.6617 155.86 86.7287 156.061L86.8091 156.302C86.8761 156.637 86.9164 156.624 86.9566 156.249L87.4392 155.766C87.037 156.061 85.9646 155.981 85.4418 156.021C84.5704 156.101 83.6857 156.155 82.8143 156.208C81.0582 156.316 79.3021 156.369 77.546 156.369C74.0204 156.369 70.5083 156.182 67.0095 155.806C66.2856 155.726 65.6689 156.477 65.6689 157.147C65.6689 157.938 66.2856 158.407 67.0095 158.487H66.9961Z" fill="black"/>
<path d="M15.5064 152.093C17.477 153.139 19.6353 153.568 21.8471 153.689C22.8793 153.742 23.8981 153.742 24.9304 153.715C26.2039 153.689 27.4506 153.662 27.9734 152.281C28.2281 151.611 27.6918 150.806 27.035 150.632C26.2843 150.431 25.6408 150.887 25.3861 151.57L25.3459 151.678L25.6945 151.088C25.7615 151.007 26.1502 150.994 25.8419 151.007C25.6676 151.007 25.48 151.007 25.3057 151.021C24.8767 151.021 24.4612 151.048 24.0322 151.048C23.1609 151.048 22.2761 151.048 21.4048 150.981C19.8363 150.86 18.2679 150.525 16.8604 149.774C15.3322 148.97 13.9782 151.276 15.5064 152.093Z" fill="black"/>
<path d="M79.3024 92.6812C80.1201 92.5606 80.6429 94.2765 80.8038 94.8127C81.273 96.5017 81.407 98.3249 81.5813 100.054C81.97 103.875 82.0505 107.722 81.9834 111.569C81.836 119.318 81.0317 127.026 80.5893 134.76C80.348 139.157 80.2273 143.568 80.4016 147.965C80.4686 149.681 83.1497 149.694 83.0827 147.965C82.4124 131.342 86.1525 114.733 84.0479 98.1506C83.6591 95.054 83.0291 89.4103 78.5919 90.094C77.8814 90.2012 77.4793 91.0994 77.6535 91.7429C77.868 92.507 78.5785 92.7885 79.3024 92.6812Z" fill="black"/>
<path d="M66.2587 150.244C68.0148 152.053 70.8433 151.906 73.1356 151.611C75.8569 151.262 78.4441 150.418 81.0314 149.56C82.6534 149.01 81.9563 146.423 80.3209 146.973C78.0956 147.723 75.8435 148.461 73.5244 148.863C72.452 149.05 71.3393 149.144 70.2401 149.091C69.476 149.05 68.6985 148.916 68.1489 148.353C66.9424 147.107 65.0522 149.01 66.2587 150.244Z" fill="black"/>
<path d="M56.406 86.9174C60.0656 86.7833 63.7252 86.8235 67.3849 87.0246C68.1088 87.0648 68.7254 86.3812 68.7254 85.6841C68.7254 84.92 68.1088 84.3838 67.3849 84.3436C63.7252 84.1425 60.0656 84.1023 56.406 84.2363C54.6901 84.2899 54.6767 86.9844 56.406 86.9174Z" fill="black"/>
<path d="M52.4248 103.459C47.8938 104.009 43.4432 105.041 39.1669 106.636C37.2768 107.346 35.2258 108.057 33.5367 109.183C31.7538 110.389 30.8958 112.038 30.6814 114.156C30.4401 116.516 30.4401 118.915 30.3328 121.288C30.2256 123.661 30.1183 126.06 30.0111 128.446C29.7966 133.272 29.5687 138.098 29.3542 142.924C29.1129 148.367 28.8582 153.796 28.6169 159.238L29.9575 157.898C29.1666 157.831 28.3622 157.764 27.5713 157.697C25.8555 157.563 25.8555 160.244 27.5713 160.378C28.3622 160.445 29.1666 160.512 29.9575 160.579C30.7082 160.646 31.2712 159.909 31.298 159.238C31.7136 150.083 32.1291 140.927 32.5447 131.784C32.7458 127.24 32.9603 122.682 33.1613 118.138C33.215 117.106 33.2418 116.06 33.3088 115.028C33.3624 114.116 33.416 113.111 33.9791 112.347C34.9845 110.979 37.0757 110.336 38.5771 109.733C43.0142 107.95 47.6793 106.716 52.4248 106.14C53.1486 106.06 53.7653 105.59 53.7653 104.799C53.7653 104.143 53.1486 103.365 52.4248 103.459Z" fill="black"/>
<mask id="mask0_136_1401" style="mask-type:alpha" maskUnits="userSpaceOnUse" x="2" y="2" width="86" height="159">
<path d="M55.5 26.5V8.5L49.5 2.5H39L28 8.5V21.5L34 29L30 35L14 46L13 85.5L24.5 92.5L14 102.5L15.5 150.5L3.5 155.5L2 161H23.5L31 158.5H67.5L88 157V154.5L82.5 148V135L84 94L86 90L84 64.5L73.5 41L55.5 26.5Z" fill="#D9D9D9"/>
</mask>
<g mask="url(#mask0_136_1401)">
<rect x="-482" y="53.2383" width="815.042" height="130.031" fill="url(#paint0_linear_136_1401)"/>
</g>
</g>
<defs>
<linearGradient id="paint0_linear_136_1401" x1="-74.4788" y1="183.27" x2="-74.4788" y2="53.2383" gradientUnits="userSpaceOnUse">
<stop stop-color="#191817"/>
<stop offset="1" stop-color="#191817" stop-opacity="0"/>
</linearGradient>
<clipPath id="clip0_136_1401">
<rect width="88.6566" height="161.317" fill="white" transform="translate(0.821777 0.339844)"/>
</clipPath>
</defs>
</svg>
