<svg width="108" height="166" viewBox="0 0 108 166" fill="none" xmlns="http://www.w3.org/2000/svg">
<g clip-path="url(#clip0_136_1396)">
<path d="M104.01 44.498C103.125 44.7393 102.254 45.0208 101.382 45.3023C101.329 45.3023 101.275 45.3023 101.208 45.3023C100.685 45.4498 100.176 45.5972 99.6665 45.7447C99.5325 45.557 99.2912 45.4498 98.9963 45.5436C98.4601 45.7179 97.9238 45.8921 97.3876 46.0664C97.3474 46.0664 97.3206 46.1066 97.2804 46.12C97.2134 46.12 97.1329 46.1334 97.0659 46.1468C96.6101 45.9056 96.1007 45.7983 95.5913 45.7581C95.7656 45.5168 95.8594 45.2353 95.8862 44.9136C96.0069 44.7527 96.1275 44.6052 96.2348 44.431C96.4895 43.9886 96.1543 43.4256 95.6583 43.4256C95.3634 43.4256 95.0685 43.4792 94.787 43.5596C94.0497 43.2111 93.0845 43.4122 92.4411 43.935C92.2132 44.1226 91.9853 44.3639 91.7842 44.632C91.5161 44.7125 91.2614 44.8197 91.0067 44.9538C90.6716 45.128 90.2828 45.4096 89.9477 45.7313C88.6876 45.7313 87.575 47.1656 86.9315 48.0772C86.4087 48.8145 85.4435 50.2891 86.0199 51.2006C83.2987 53.9219 80.564 56.6566 77.8427 59.3779C75.8855 60.8391 73.8613 62.2064 71.7835 63.5067C71.7031 63.5603 71.636 63.614 71.569 63.6676C71.502 63.6676 71.4484 63.681 71.3813 63.681C71.006 62.4075 70.5904 61.1474 70.1749 59.8873C69.5984 57.729 69.0488 55.5574 68.459 53.4259C68.3115 52.4607 68.1641 51.4956 68.0568 50.5036C67.9496 49.4714 67.5206 48.6536 66.9442 48.037C65.9924 44.6991 64.5849 41.6427 62.373 38.975C61.6625 37.916 60.8984 36.8972 60.0271 35.8918C59.2898 35.0473 58.4318 34.6719 57.5605 34.6317C56.3406 33.6397 55.0671 32.8488 53.4719 32.1785C52.5335 31.7764 51.6219 31.7361 50.7908 31.9238C50.4959 31.8434 50.201 31.7361 49.8927 31.6691C49.5441 31.5887 49.2224 31.5485 48.9007 31.5351C49.276 29.6449 49.5977 27.7414 49.8524 25.8244C50.1205 23.7868 50.402 21.7224 50.402 19.6714C51.0321 19.8188 51.7024 19.8322 52.3324 19.6446C53.3512 19.3496 54.2092 18.7196 54.8124 17.8483C55.0403 17.607 55.2414 17.3254 55.429 17.0573C55.4827 16.9903 55.5229 16.9233 55.5631 16.8563C55.6569 16.682 55.7374 16.4809 55.8178 16.2932C55.8982 16.1056 56.0055 15.9045 56.0591 15.69C56.1529 15.3281 56.2065 14.9393 56.2199 14.5505C56.2602 14.3093 56.287 14.068 56.3004 13.8267C56.3004 13.7462 56.3004 13.6792 56.3004 13.5988C56.2736 13.2636 56.2334 12.9017 56.1529 12.5666C56.1395 12.4995 56.1127 12.4325 56.0859 12.3789C56.0725 12.3119 56.0591 12.2448 56.0457 12.1912C55.8982 11.7891 55.7508 11.3735 55.4961 11.0115C55.0939 10.4217 54.8392 10.1402 54.3164 9.73804C53.7936 9.33589 53.4719 9.16162 52.7882 8.92032C52.6944 8.8801 52.6005 8.85329 52.4933 8.83989C52.3056 8.79967 52.1045 8.77286 51.89 8.74605C51.5147 8.22324 51.1661 7.67363 50.8578 7.1106C50.8578 7.05698 50.8846 7.00336 50.8846 6.94974C50.9785 6.50737 50.9651 6.06499 50.831 5.60921C50.6031 5.00597 50.3752 4.36252 49.9999 3.83971C49.343 2.91474 48.5253 2.17745 47.4127 1.85573C46.9837 1.73508 46.5145 1.68146 46.0587 1.69486C45.8442 1.62784 45.6298 1.58762 45.4019 1.57421C45.0265 1.52059 44.6378 1.534 44.249 1.60103C44.1418 1.5474 44.0345 1.49378 43.9273 1.45357C42.7208 1.038 41.206 1.11843 39.9861 1.66805C39.3427 1.73508 38.6858 1.81551 38.0155 1.96297C36.9565 2.20426 35.9109 2.57961 34.9189 3.03539C34.1682 3.35712 33.4577 3.74587 32.8009 4.21506C32.6802 4.29549 32.573 4.40273 32.4657 4.49657C31.1386 5.27408 29.8919 6.19904 28.7927 7.28487C28.605 7.45914 28.4576 7.66022 28.3369 7.88811C28.1895 8.03557 28.0286 8.18303 27.8811 8.34389C27.2913 8.98735 26.9562 9.83188 26.9294 10.6898C26.5272 11.4807 26.2725 12.3521 26.1519 13.277C25.9642 13.4111 25.7631 13.5451 25.6022 13.7194C25.2671 14.0546 25.0258 14.4165 24.8247 14.7784C24.5968 14.9929 24.3824 15.2342 24.1679 15.5023C24.1411 15.5291 24.1277 15.5559 24.1008 15.5828C23.3367 16.5882 23.6719 17.9421 24.1008 18.9609C24.3019 19.4435 24.6371 19.8188 25.0392 20.1137C25.5486 20.784 26.0982 21.4141 26.6747 22.0173C27.479 23.6393 28.6586 25.1139 30.0796 26.2802L29.3155 26.6019C29.0876 26.6287 28.8463 26.6555 28.605 26.7226C26.7551 27.1917 25.1331 27.8754 23.5512 28.8406C22.8541 29.1355 22.1705 29.417 21.4734 29.7119C20.039 29.9935 18.7119 30.4626 17.3848 31.2401C16.6475 31.5217 15.8968 31.8032 15.1729 32.1249C14.6501 32.0445 14.1005 32.0847 13.5375 32.2455C6.58011 34.2295 6.03049 41.1199 6.39244 47.6616C6.28519 50.5036 6.31201 53.3321 6.47287 56.174C6.47287 56.3751 6.52649 56.5628 6.5533 56.737C6.25838 61.3753 5.96347 66.0269 5.66855 70.6651C5.48088 71.5365 5.2798 72.4078 5.10553 73.2926C3.55051 77.7431 2.65236 82.3814 2.41106 87.0866C2.39766 87.1269 2.37085 87.1671 2.35744 87.2207C1.90166 89.9018 1.70058 92.623 1.79442 95.3309C1.66037 95.4381 1.56653 95.599 1.56653 95.8403C1.59334 99.071 1.76761 102.302 2.07593 105.519C2.07593 105.8 2.07593 106.082 2.07593 106.363C1.79442 106.886 1.7542 107.543 2.15636 108.053C2.20998 108.12 2.29041 108.16 2.35744 108.227C2.45128 109.031 2.54512 109.849 2.65236 110.653C2.73279 111.203 3.65776 111.323 3.87224 110.814C4.19397 110.077 4.47548 109.326 4.7838 108.589C5.05191 108.656 5.36023 108.589 5.50769 108.294C6.21817 106.886 6.808 105.425 7.304 103.924C7.54529 103.32 7.74637 102.69 7.86702 102.047C7.93405 101.658 7.71956 101.39 7.43805 101.269C7.46486 101.149 7.47827 101.042 7.49167 100.921C7.61232 100.519 7.74637 100.117 7.86702 99.7144C8.99307 111.35 10.7894 122.879 13.323 134.273C13.323 134.394 13.2962 134.501 13.3096 134.622C13.6715 142.182 14.5697 149.649 15.937 157.089C16.0979 157.987 16.4866 158.684 16.996 159.261C16.9558 159.341 16.9156 159.435 16.9022 159.529C16.8218 160.628 16.9156 162.036 17.7199 162.853C17.7735 162.934 17.8406 162.987 17.921 163.028C18.1087 163.175 18.3098 163.296 18.551 163.376C18.6583 163.416 18.7789 163.416 18.8996 163.443C20.1865 163.993 21.5002 164.1 22.8407 164.02C23.8595 164.207 25.0794 164.1 25.7363 164.087C27.7605 164.046 29.7713 163.872 31.7687 163.577C32.2245 163.537 32.6802 163.483 33.136 163.43C33.4041 163.483 33.6722 163.537 33.9403 163.591C34.3693 163.685 34.6642 163.403 34.7447 163.081C34.9055 163.108 35.0798 163.148 35.2406 163.175C35.8841 163.282 36.4337 162.384 35.8439 162.009C35.9377 161.875 35.9779 161.687 35.9109 161.473C35.1736 159.127 34.1146 156.942 32.8947 154.837C32.7875 154.623 32.6936 154.421 32.573 154.207C32.0502 152.974 31.4469 151.781 30.7901 150.614C30.7901 150.521 30.7901 150.44 30.7767 150.333C30.4013 149.006 30.2673 147.679 30.3343 146.311C30.3477 145.99 30.2539 145.762 30.1198 145.561C30.2271 145.105 30.2807 144.622 30.2405 144.086C29.4227 133.885 28.8865 123.656 28.6184 113.428C28.6184 113.24 28.6452 113.066 28.6586 112.878C30.0126 112.597 31.3665 112.315 32.7205 112.047C44.7718 110.827 56.7562 109.205 68.4054 105.747L68.4992 106.565C68.888 121.994 70.081 137.37 72.0918 152.679C72.1186 153.148 72.1454 153.604 72.1723 154.073C71.9578 154.368 71.8103 154.743 71.8103 155.186C71.8103 157.21 71.8103 159.247 71.8103 161.272C71.8103 162.264 72.5744 163.135 73.553 163.242C73.8077 163.269 74.0758 163.242 74.3439 163.175C74.7327 163.47 75.175 163.698 75.7247 163.805C77.3065 164.127 79.1296 163.698 80.698 163.483C81.0332 163.443 81.3549 163.376 81.69 163.323C82.7356 163.296 83.7678 163.148 84.7732 162.84C86.9315 163.041 89.1166 162.88 91.2882 162.626C92.3875 164.288 95.0015 163.363 94.9747 161.526C95.3098 161.044 95.4707 160.44 95.2696 159.864C94.3044 157.076 93.0041 154.421 91.4089 151.941C91.1408 151.486 90.8458 151.043 90.5375 150.614C90.3364 146.928 90.0683 143.255 89.693 139.582C89.1568 132.303 88.6206 125.024 88.0709 117.745C88.0173 116.967 87.776 116.324 87.4275 115.774C87.4811 115.466 87.5079 115.144 87.4677 114.782C86.5561 105.546 87.3739 93.9502 80.8991 86.5504C80.5238 86.1215 80.1216 85.8265 79.6926 85.6255C78.0036 84.2447 75.8185 83.4806 73.2581 83.36C69.6521 82.1401 66.0728 82.5422 62.1049 84.2045H62.0781C60.2281 84.5798 58.9546 85.3171 57.8152 86.4566C57.775 86.4968 57.7213 86.5236 57.6811 86.5638C56.7159 83.9364 55.8446 81.2821 55.0135 78.6145C54.9062 74.1773 55.2682 69.7402 55.8312 65.303C57.0645 67.2334 58.4988 68.9493 60.2147 70.5177C61.1531 72.1531 62.2121 73.5339 63.4722 74.7135C66.0326 77.8638 69.4376 80.1025 72.7353 78.5072C73.2715 78.4536 73.8211 78.266 74.3841 77.9442C75.3225 77.408 75.9123 77.0461 76.4485 76.6439C76.7435 76.6439 77.025 76.5769 77.2931 76.416C77.4003 76.349 77.5076 76.2954 77.6148 76.2283C77.8159 76.1881 78.017 76.1077 78.2046 75.987C78.5264 75.7726 78.8615 75.5581 79.1832 75.3436C79.5184 75.1291 79.7328 74.861 79.8937 74.5795C81.8643 72.8636 83.6472 70.9869 85.2692 68.9493C88.7278 65.5041 91.9451 61.8311 94.9211 57.9569L94.9479 57.9301C95.0551 57.7961 95.1623 57.662 95.2696 57.5279C95.5243 57.1928 95.6315 56.8711 95.6315 56.5494C96.1275 56.1606 96.6369 55.7719 97.1061 55.3563C100.431 53.3723 103.433 50.8655 105.913 47.8761C107.133 46.415 106.021 43.935 103.956 44.5114L104.01 44.498ZM39.2086 13.7328C39.2086 13.7328 39.222 13.7328 39.2354 13.7328C39.2086 13.7328 39.2086 13.7328 39.1952 13.7328H39.2086ZM39.9995 15.7704C39.9995 15.7704 39.9995 15.8106 39.9995 15.8375C39.9995 15.8777 39.9861 15.9045 39.9861 15.9447C39.9727 15.9447 39.9593 15.9581 39.9459 15.9715C39.9459 15.9313 39.9861 15.8509 40.0129 15.7838L39.9995 15.7704ZM39.088 13.7864C39.088 13.7864 39.1014 13.7864 39.1148 13.7864C39.1148 13.7864 39.1684 13.773 39.222 13.7596C39.1952 13.7999 39.088 13.8267 39.0075 13.8401C39.0344 13.8267 39.0612 13.8133 39.088 13.7999V13.7864ZM5.97687 80.2499C5.97687 80.2499 5.97687 80.1293 6.00368 80.0757C6.03049 79.9684 6.0439 79.8746 6.07071 79.7673C6.07071 79.8344 6.07071 79.888 6.07071 79.955C6.0439 80.0489 6.00368 80.1427 5.97687 80.2499ZM30.5488 155.48C30.5354 155.373 30.522 155.266 30.5086 155.172C30.6024 155.373 30.7097 155.574 30.8035 155.762C30.7231 155.668 30.6292 155.574 30.5488 155.48ZM19.2749 161.272C19.2749 161.272 19.2749 161.245 19.2749 161.231C19.2749 161.231 19.3017 161.231 19.3151 161.258C19.3151 161.258 19.3017 161.258 19.2883 161.272H19.2749Z" fill="#944EBE"/>
<path d="M35.5223 18.7733C35.4419 18.8404 35.4821 18.7733 35.6027 18.7733C35.777 18.8002 35.7636 18.7733 35.9647 18.8538C36.206 18.9342 36.4339 19.1085 36.6215 19.2827C37.1577 19.7653 37.4527 20.4892 37.828 21.1059C38.7262 22.6207 39.9729 23.8137 41.8094 23.8942C43.4716 23.9612 45.0803 23.0496 46.0723 21.7627C47.1849 20.3015 47.5469 18.5186 47.7211 16.7223L45.2277 17.3926C47.6943 21.4678 54.6651 21.7493 56.8501 17.2049C57.8823 15.0601 57.6947 12.4058 56.4212 10.3816C55.8179 9.42985 54.9734 8.57191 53.9546 8.07591C53.4318 7.82121 52.6677 7.72737 52.2119 7.36543C51.7963 7.0437 51.8232 6.33322 51.7561 5.85063C50.8982 -0.275592 42.922 -0.543698 38.2302 0.421484C35.3614 1.01132 32.5731 2.25801 30.2272 4.02751C29.0475 4.92567 27.9617 5.89085 27.077 7.08392C26.6346 7.67375 26.2995 8.2904 26.0313 8.97407C25.7364 9.72476 25.6694 10.5291 25.4281 11.2932C25.0259 12.6203 23.8329 13.5587 23.1358 14.7249C22.2913 16.1459 22.2108 17.7277 22.9213 19.2157C23.6854 20.8244 25.1064 22.1649 26.2592 23.5188C27.6266 25.1275 28.9939 26.7361 30.3747 28.3447C31.0851 29.1759 32.2916 28.6128 32.6133 27.7549C33.7796 24.6046 34.9459 21.441 36.1121 18.2908C36.7154 16.6687 34.1281 15.9716 33.5249 17.5803C32.3586 20.7305 31.1924 23.8942 30.0261 27.0444L32.2648 26.4546C30.254 24.0952 28.2298 21.7627 26.2458 19.39C25.6292 18.6393 24.8383 17.6741 25.1734 16.6419C25.4817 15.7169 26.2994 14.9528 26.8759 14.1887C27.5998 13.2235 27.9885 12.2182 28.2432 11.0385C28.4979 9.85882 29.0073 8.84001 29.8653 7.92845C31.5275 6.14555 33.6992 4.7648 35.9647 3.89346C38.2302 3.02211 40.6833 2.59314 43.1365 2.70039C44.9596 2.78082 47.2787 3.14276 48.4852 4.67096C49.1689 5.5289 49.0348 6.61473 49.2895 7.60673C49.6381 8.93385 50.563 9.68455 51.8097 10.1403C53.4452 10.7436 54.531 11.8696 54.7723 13.6525C55.0136 15.4354 54.102 17.2049 52.2923 17.7143C50.4826 18.2237 48.4718 17.6339 47.5066 16.0521C46.7693 14.8456 45.1339 15.4488 45.0133 16.7223C44.8926 17.9958 44.5843 19.6849 43.4985 20.5965C42.4126 21.508 41.233 21.3874 40.4555 20.2747C39.5841 19.0415 39.0881 17.6875 37.7878 16.8162C36.4875 15.9448 34.9057 15.8644 33.6322 16.8832C33.0691 17.3256 33.163 18.3042 33.6322 18.7733C34.1952 19.3364 34.9593 19.2291 35.5223 18.7733Z" fill="black"/>
<path d="M48.6998 19.8459C48.3245 22.661 47.9492 25.4627 47.5738 28.2778C47.2387 30.6907 46.8767 33.2243 45.6568 35.3826C44.6783 37.1253 42.8819 38.7473 40.7907 38.868C38.485 38.9886 36.7423 37.1789 35.6565 35.3424C34.1819 32.8624 32.9352 29.9937 32.1711 27.2054C31.7153 25.5431 29.1281 26.2536 29.5839 27.9158C30.3748 30.8248 31.6885 33.8008 33.1899 36.4282C34.5304 38.7876 36.6351 40.9994 39.4368 41.4418C42.2385 41.8842 44.7453 40.6241 46.5416 38.6669C48.5256 36.5221 49.3969 33.6533 49.8661 30.8248C50.4828 27.1786 50.8849 23.4921 51.3675 19.819C51.4613 19.0952 50.6838 18.4785 50.027 18.4785C49.2227 18.4785 48.7803 19.0952 48.6864 19.819L48.6998 19.8459Z" fill="black"/>
<path d="M87.1864 50.451C88.3393 48.3329 90.1624 46.6304 92.3877 45.6787C92.8837 45.4642 93.4065 45.3033 93.9293 45.1693C94.251 45.0888 94.5727 45.0084 94.8945 44.9682C94.9883 44.9682 95.4307 44.9682 95.4709 44.9414C95.0285 45.3972 95.1626 44.1505 95.2162 44.1237C95.0687 44.1773 94.8408 44.5392 94.747 44.6599C94.3448 45.1559 94.0767 45.6921 94.0767 46.3489C94.0767 47.1264 94.68 47.609 95.4173 47.6895C97.3878 47.904 99.2378 47.1533 101.047 46.4964C101.919 46.1747 102.844 45.8261 103.782 45.7591C104.184 45.7323 104.586 45.8663 104.962 45.8395C105.015 45.8395 105.082 45.8663 105.123 45.8932C104.989 45.6116 104.935 45.5714 104.962 45.7725C104.895 45.8261 104.868 46.3489 104.828 46.4696C104.506 47.4482 103.769 48.2257 103.072 48.9496C102.308 49.7539 101.49 50.5046 100.659 51.2285C98.9429 52.6896 97.0661 53.9229 95.0821 54.982C93.5673 55.7997 94.9079 58.1188 96.4361 57.3011C98.8356 56.0142 101.074 54.4591 103.099 52.6494C105.123 50.8397 107.428 48.7887 107.629 46.0272C107.857 42.9306 104.292 42.7965 102.107 43.3327C99.9215 43.869 97.7766 45.2631 95.4039 45.0084L96.7444 46.3489C96.7444 46.55 96.9053 46.2417 96.9723 46.1613C97.2002 45.9066 97.4147 45.6519 97.5755 45.3435C97.9777 44.566 97.857 43.6008 97.2404 42.9574C96.0741 41.7509 93.8623 42.3542 92.4815 42.7965C89.2508 43.8421 86.4625 46.1076 84.8539 49.097C84.0362 50.6118 86.3419 51.9658 87.173 50.451H87.1864Z" fill="black"/>
<path d="M57.3325 50.2091C56.2198 56.1075 53.9812 61.7377 53.2439 67.7165C52.5066 73.6952 54.1018 79.9689 55.9919 85.8538C56.5148 87.4893 59.102 86.7922 58.5792 85.1434C56.7561 79.4729 55.1474 73.7489 55.9249 67.7433C56.7024 61.7377 58.8607 56.5901 59.9331 50.9196C60.2548 49.2306 57.6676 48.5067 57.3459 50.2091H57.3325Z" fill="black"/>
<path d="M47.4662 32.9434C48.7665 35.4904 49.1954 38.3458 49.3295 41.1743C49.4636 44.2307 49.3563 47.3139 49.1954 50.3703C48.8603 56.6172 48.0694 62.8507 46.8227 68.9769C46.1122 72.5025 45.2409 75.9878 44.2355 79.433C43.7529 81.0953 46.3401 81.8058 46.8227 80.1435C48.6458 73.8564 49.9998 67.4487 50.8711 60.9605C51.7425 54.4723 52.2519 48.0512 52.024 41.6033C51.9033 38.1447 51.3805 34.6995 49.7853 31.5761C48.9944 30.0345 46.6887 31.3884 47.4662 32.93V32.9434Z" fill="black"/>
<path d="M41.1256 40.2494C40.938 47.7563 40.7503 55.2767 40.7503 62.7971C40.7503 66.3495 40.643 69.9555 41.1659 73.4945C41.6484 76.7654 42.9219 79.7414 44.9596 82.3554C47.091 85.1035 49.7855 87.2886 52.5738 89.3262C53.1636 89.7552 54.0752 89.42 54.4103 88.8436C54.8124 88.1599 54.5175 87.436 53.9277 87.0071C51.6086 85.318 49.3699 83.4815 47.52 81.283C45.5494 78.9505 44.3161 76.2426 43.8201 73.2264C43.2705 69.9153 43.4313 66.4701 43.4313 63.1322C43.4313 59.5664 43.4716 56.0006 43.5386 52.4482C43.6056 48.3864 43.7129 44.3246 43.8067 40.2628C43.8469 38.5335 41.1659 38.5335 41.1256 40.2628V40.2494Z" fill="black"/>
<path d="M32.1307 43.9755C32.7072 45.3429 33.297 46.6968 33.8868 48.0641C34.4767 49.4315 34.9727 50.705 35.6027 51.9651C35.9379 52.6353 36.5009 53.1984 37.2382 53.4128C37.9755 53.6273 38.7932 53.4665 39.4903 53.1447C40.7235 52.5817 41.6887 51.4825 42.4796 50.4235C42.8952 49.8604 42.5869 48.8953 41.997 48.5869C41.3 48.2116 40.6163 48.4663 40.1605 49.0695C40.2544 48.9355 39.9997 49.2572 40.0131 49.2572C39.9326 49.351 39.8522 49.4449 39.7718 49.5253C39.5975 49.7264 39.4098 49.9141 39.2087 50.0883C39.1015 50.1822 38.9943 50.276 38.887 50.3698L38.7798 50.4637C38.8468 50.4101 38.8468 50.4101 38.7798 50.4637C38.6859 50.5307 38.5921 50.5843 38.4983 50.6514C38.4983 50.6514 38.1229 50.839 38.3374 50.7452C38.2302 50.7854 38.1229 50.7988 38.0291 50.839C37.8682 50.8926 38.2033 50.7854 37.9486 50.839C38.0827 50.8658 38.1095 50.8658 38.0023 50.839C37.9084 50.8122 37.9218 50.8256 38.0425 50.8658C37.9755 50.772 38.2168 50.9865 38.0425 50.8658C38.1229 50.9865 37.9486 50.705 37.9352 50.6782C37.8682 50.5575 37.828 50.4369 37.7744 50.3162C37.6403 50.0347 37.5197 49.7398 37.399 49.4583C36.3936 47.1928 35.415 44.9139 34.4499 42.635C34.1684 41.9647 33.1898 41.8173 32.6133 42.1524C31.9297 42.5546 31.8492 43.3187 32.1307 43.9889V43.9755Z" fill="black"/>
<path d="M30.227 31.1062C32.0501 44.9136 32.6936 58.8819 32.1305 72.7967C31.9831 76.3759 32.0903 80.3036 30.6291 83.6549C30.3342 84.3118 30.4281 85.0893 31.1117 85.4915C31.6748 85.8266 32.6533 85.6791 32.9483 85.0089C34.3022 81.9123 34.5301 78.6012 34.7044 75.2632C34.892 71.6974 34.9859 68.145 35.0127 64.5792C35.0663 57.4476 34.7982 50.316 34.2084 43.2111C33.8732 39.1627 33.4443 35.1277 32.908 31.1062C32.8142 30.3823 32.3584 29.7656 31.5675 29.7656C30.9107 29.7656 30.1331 30.3823 30.227 31.1062Z" fill="black"/>
<path d="M30.2004 25.5293C24.5166 27.3256 18.8193 29.0817 13.1489 30.9317C10.6019 31.7628 8.47045 33.0229 7.12992 35.4224C5.78939 37.822 5.32021 40.3958 5.0387 42.9964C4.73037 45.8518 4.82421 48.7339 4.91805 51.5892C5.01189 54.4446 5.13253 57.5412 5.22637 60.5038C5.32021 63.4663 5.44085 66.4557 5.53469 69.4317C5.62853 72.2468 5.66874 75.1155 6.27198 77.877C7.55889 83.6949 12.0363 87.3814 16.6343 90.7059C17.0767 91.0276 17.9078 90.9204 18.2563 90.4914C20.4682 87.8774 23.0688 85.8934 26.0448 84.2445C27.573 83.4 28.5382 82.0997 28.002 80.3034C27.573 78.8958 26.7553 77.6491 25.8437 76.4963C24.1547 74.3648 21.8624 72.5953 20.6961 70.0751C19.9722 68.5067 19.9052 66.7238 19.9186 65.0213C19.9186 63.0776 19.9722 61.1338 19.9588 59.19C19.9454 54.7261 19.7711 50.2487 19.4762 45.7981C19.3556 44.0823 16.6745 44.0689 16.7951 45.7981C17.0498 49.6589 17.2107 53.5062 17.2643 57.3803C17.2911 59.2571 17.2911 61.1338 17.2643 63.0105C17.2375 64.8873 17.1839 66.6166 17.452 68.4129C17.9078 71.4559 19.7041 73.7348 21.7417 75.9333C22.6533 76.9119 23.605 77.877 24.3557 78.9897C24.7043 79.4991 25.026 80.0353 25.2539 80.5983C25.5488 81.3222 25.5622 81.4428 24.8919 81.8316C23.3503 82.7432 21.8355 83.6011 20.4146 84.7137C18.9266 85.88 17.5727 87.1803 16.3528 88.6281L17.9748 88.4136C14.3822 85.8264 10.5483 82.9174 9.18093 78.4937C8.43024 76.0539 8.3364 73.4801 8.25597 70.9465C8.16213 68.1314 8.05489 65.3297 7.96105 62.5146C7.77338 57.0318 7.35781 51.5088 7.50527 46.026C7.62592 41.6827 8.14873 35.6369 12.8674 33.8674C15.7495 32.7816 18.7523 31.9639 21.6881 31.0389L30.8841 28.1165C32.5196 27.5937 31.8225 25.0065 30.1736 25.5293H30.2004Z" fill="black"/>
<path d="M23.8061 28.9208C24.7311 43.0903 25.951 57.2463 27.4792 71.3754C27.9081 75.3434 28.3639 79.3114 28.8331 83.2794C28.9135 84.0032 29.3827 84.6199 30.1736 84.6199C30.8305 84.6199 31.5946 84.0032 31.5142 83.2794C29.8251 69.177 28.4309 55.0344 27.3317 40.8784C27.0234 36.897 26.7419 32.9156 26.4872 28.9208C26.3799 27.205 23.6989 27.1916 23.8061 28.9208Z" fill="black"/>
<path d="M18.082 89.6468C20.4279 90.7863 22.6398 92.1938 24.6104 93.9097C26.6882 95.7194 28.4979 97.5693 31.0986 98.6418C32.2916 99.1378 33.5383 99.4729 34.7984 99.7678C36.0585 100.063 37.332 100.438 38.6189 100.304C41.2866 100.023 42.6808 97.5157 42.292 95.0089C42.0641 93.4941 41.2732 92.1268 40.4689 90.8533C39.6646 89.5798 38.6726 88.2795 37.6404 87.0998L36.6886 89.3921C37.4393 89.3251 38.1766 89.2447 38.9273 89.1776C39.5841 89.1106 40.3482 88.6146 40.2678 87.8371C39.9595 85.0086 36.3803 84.4992 34.1416 83.8557C31.2996 83.038 28.4041 82.4214 25.4683 81.979C24.7579 81.8717 24.0206 82.1532 23.8195 82.9174C23.6452 83.5474 24.034 84.459 24.7579 84.5662C27.1574 84.9281 29.5436 85.4107 31.9029 86.0274C33.0289 86.3223 34.1416 86.644 35.2542 86.9926C35.8306 87.1668 36.4205 87.3277 36.9701 87.5556C37.131 87.6226 37.6001 87.9711 37.5867 87.8371L38.9273 86.4966C38.1766 86.5636 37.4393 86.644 36.6886 86.7111C35.5223 86.8183 34.9325 88.0918 35.7368 89.0034C36.7288 90.1294 37.6135 91.3225 38.3911 92.596C39.0211 93.6282 39.812 94.8749 39.6914 96.1216C39.5707 97.3683 38.686 97.7704 37.5197 97.623C36.1926 97.4621 34.8386 97.0599 33.5651 96.6712C32.2916 96.2824 30.9913 95.7596 29.8653 94.9687C28.7392 94.1778 27.707 93.0652 26.6212 92.1134C24.4495 90.2098 22.0366 88.6012 19.436 87.3411C17.8943 86.5904 16.527 88.8961 18.082 89.6602V89.6468Z" fill="black"/>
<path d="M53.0028 89.6066C58.2308 88.8157 62.1318 84.4724 67.3464 83.7753C70.376 83.3732 73.6872 84.1104 76.5693 85.0354C79.0761 85.8397 80.7786 87.4216 81.784 89.8479C82.843 92.4083 83.2451 95.2637 83.7545 97.9849C84.3712 101.256 84.9342 104.54 85.4436 107.824C86.449 114.339 87.2131 120.895 87.7493 127.463C88.3526 134.863 88.6609 142.289 88.7011 149.703C88.7011 151.432 91.3956 151.432 91.3822 149.703C91.3285 135.882 90.2695 122.074 88.2319 108.401C87.7225 104.996 87.1595 101.604 86.5294 98.2262C85.9932 95.3039 85.5509 92.2743 84.5052 89.486C83.5267 86.8853 81.9448 84.5528 79.3844 83.2793C78.0439 82.6091 76.6095 82.2069 75.1483 81.8718C73.4727 81.483 71.7568 81.1479 70.0275 81.0272C66.6226 80.7993 63.593 81.845 60.617 83.4268C57.9359 84.8611 55.3353 86.5502 52.2655 87.0194C51.555 87.1266 51.1528 88.0248 51.3271 88.6683C51.5416 89.4324 52.2521 89.7139 52.976 89.6066H53.0028Z" fill="black"/>
<path d="M5.60162 58.9619C5.23968 65.8388 3.56401 72.5146 2.14305 79.2307C0.72209 85.9467 -0.323524 93.0918 0.0920407 100.21C0.333336 104.352 0.896359 108.468 1.44598 112.57C1.58003 113.615 3.04121 113.79 3.68466 113.16C7.14323 109.768 8.48376 105.063 9.30149 100.424C9.71705 98.0919 10.0388 95.7326 10.4946 93.4135C10.8163 91.7646 11.5134 87.5688 14.1006 88.5742C14.7708 88.8423 15.5752 88.2793 15.7494 87.6358C15.9639 86.8717 15.4947 86.2551 14.8111 85.987C11.8083 84.8207 9.35511 87.542 8.52398 90.1292C7.73306 92.569 7.46496 95.1964 7.04939 97.7032C6.27189 102.502 5.40054 107.704 1.78111 111.269L4.01979 111.859C3.06802 104.768 2.21008 97.663 2.93397 90.5045C3.61764 83.7215 5.42735 77.1126 6.74107 70.4368C7.49177 66.6431 8.0816 62.8226 8.28268 58.9619C8.37652 57.2326 5.69546 57.246 5.60162 58.9619Z" fill="black"/>
<path d="M6.52656 98.4C8.18882 109.781 9.83767 121.162 11.4999 132.543C12.3311 138.241 13.1622 143.924 13.9799 149.622L15.2132 158.08C15.4143 159.448 15.5483 160.855 15.8164 162.209C16.0577 163.402 16.7012 164.448 17.8809 164.89C19.1812 165.386 20.7898 165.266 22.1571 165.306C23.6988 165.346 25.227 165.36 26.7686 165.333C30.0127 165.266 33.2433 165.038 36.4606 164.662C37.3185 164.555 37.9888 163.885 37.7475 162.96C36.4204 157.879 34.2219 153.027 31.2325 148.71C30.2539 147.303 27.9348 148.643 28.9134 150.064C31.7822 154.206 33.8868 158.791 35.1603 163.67L36.4472 161.968C30.9912 162.611 25.4951 162.812 20.0123 162.531C19.6504 162.518 18.9935 162.571 18.6852 162.316C18.4305 162.089 18.4037 161.539 18.35 161.244C18.1087 159.85 17.9345 158.429 17.7334 157.021L16.5805 149.059L11.8083 116.242L9.10038 97.6761C8.99314 96.9657 8.08158 96.5635 7.45153 96.7378C6.68743 96.9522 6.40592 97.6627 6.51316 98.3866L6.52656 98.4Z" fill="black"/>
<path d="M16.5002 154.53L23.1626 152.586C24.2485 152.264 25.3343 151.943 26.4335 151.634C27.4523 151.339 28.4309 151.058 29.5033 151.192C30.2272 151.286 30.8439 150.508 30.8439 149.852C30.8439 149.047 30.2272 148.605 29.5033 148.511C28.3505 148.35 27.1842 148.618 26.085 148.94C24.9858 149.262 23.8329 149.597 22.7069 149.919L15.7897 151.943C14.1409 152.425 14.8379 155.013 16.5002 154.53Z" fill="black"/>
<path d="M31.7955 149.957C30.1868 136.364 29.6104 122.65 30.1064 108.977C30.2405 105.116 30.4683 101.255 30.7767 97.408C30.9107 95.6921 28.2297 95.6921 28.0956 97.408C27.0232 111.055 26.983 124.782 28.0018 138.428C28.2967 142.276 28.6586 146.123 29.1144 149.957C29.1948 150.681 29.664 151.297 30.4549 151.297C31.1118 151.297 31.8759 150.681 31.7955 149.957Z" fill="black"/>
<path d="M28.9001 113.629C42.3456 112.315 55.6839 110.023 68.7943 106.765C70.4699 106.349 69.7595 103.762 68.0838 104.178C55.2013 107.382 42.1043 109.647 28.9001 110.948C28.1762 111.015 27.5596 111.511 27.5596 112.288C27.5596 112.958 28.1762 113.696 28.9001 113.629Z" fill="black"/>
<path d="M67.0112 104.996C68.6467 119.782 69.7861 134.622 70.443 149.488C70.6307 153.697 70.7647 157.92 70.872 162.143C70.9122 163.858 73.5932 163.872 73.553 162.143C73.1777 147.263 72.3197 132.41 70.9658 117.583C70.577 113.388 70.1615 109.178 69.6923 104.996C69.6119 104.272 69.1293 103.655 68.3518 103.655C67.6949 103.655 66.9308 104.272 67.0112 104.996Z" fill="black"/>
<path d="M71.0196 163.994C75.2423 164.275 79.4783 164.382 83.7144 164.275C85.8057 164.221 87.8969 164.128 89.9747 163.98C90.9667 163.913 91.9453 163.833 92.9373 163.739C93.8488 163.658 94.9749 163.699 95.7792 163.216C97.5621 162.144 96.5165 159.61 95.9803 158.122C95.2832 156.178 94.3448 154.369 93.2724 152.612C91.4493 149.636 89.4787 146.526 85.7654 145.896C83.6608 145.534 81.516 145.829 79.4247 146.138C77.1458 146.459 74.9071 146.955 72.6953 147.585C71.033 148.055 71.7435 150.642 73.4057 150.173C75.8991 149.462 78.4461 148.913 81.02 148.604C83.205 148.35 85.7118 148.068 87.5751 149.502C89.2776 150.816 90.3903 152.974 91.4627 154.784C92.0927 155.856 92.6692 156.956 93.1383 158.109C93.3662 158.685 93.5673 159.261 93.7416 159.851C93.8756 160.307 94.2242 161.018 94.0499 161.473L94.3984 160.883C94.3984 160.883 94.5861 160.964 94.2644 160.937C94.0633 160.924 93.8086 160.977 93.6075 161.004C93.1115 161.058 92.6155 161.098 92.1329 161.138C91.141 161.219 90.1624 161.299 89.1704 161.366C87.1328 161.5 85.1086 161.581 83.071 161.621C79.0494 161.701 75.0412 161.594 71.033 161.326C69.3171 161.205 69.3171 163.886 71.033 164.007L71.0196 163.994Z" fill="black"/>
<path d="M40.549 93.5471C45.1873 92.0993 49.7451 90.3834 54.209 88.4665C54.8793 88.185 55.0268 87.2064 54.6916 86.6299C54.2895 85.9463 53.5254 85.8658 52.8551 86.1473C48.6056 87.9839 44.2623 89.5791 39.8386 90.9599C38.2031 91.4693 38.9002 94.0565 40.549 93.5471Z" fill="black"/>
<path d="M48.3916 33.158C56.3275 32.5682 62.3197 39.4585 65.0275 46.188C66.7032 50.3436 67.6282 54.7271 68.6738 59.0705C68.9285 60.1295 69.1966 61.2019 69.4781 62.2609C69.7328 63.2395 69.9205 64.4862 70.9125 65.0358C71.9983 65.6391 73.0439 65.0358 73.9286 64.379C74.8804 63.6819 75.8188 62.958 76.7304 62.2207C80.5777 59.0839 83.996 55.4778 87.0122 51.5233C87.4546 50.9468 87.1061 50.0219 86.5296 49.6867C85.846 49.2846 85.1355 49.5929 84.6931 50.1693C82.1193 53.5475 79.1701 56.6307 75.9529 59.3922C75.1619 60.0759 74.3442 60.7327 73.5131 61.3762C73.1243 61.6711 72.7356 61.966 72.3468 62.2475L72.1055 62.4218C71.7972 62.529 71.8106 62.6363 72.1592 62.7435C72.6954 63.1859 72.2932 62.395 72.2262 62.1537C71.6498 60.0356 71.1538 57.9042 70.6444 55.7728C68.781 47.9441 66.4083 39.6998 59.8397 34.4717C56.5822 31.8711 52.6142 30.2088 48.3916 30.5172C46.6757 30.6378 46.6623 33.3323 48.3916 33.1982V33.158Z" fill="black"/>
<path d="M85.5107 51.6164C89.3715 52.6754 92.7362 55.2224 94.7738 58.6542C95.6585 60.1422 97.9777 58.7883 97.0929 57.3003C94.6934 53.2653 90.7522 50.2625 86.2212 49.0292C84.559 48.5734 83.8485 51.1606 85.5107 51.6164Z" fill="black"/>
<path d="M53.9814 64.3376C58.861 69.378 60.8181 77.7295 68.2983 79.8744C75.7784 82.0192 81.7572 74.4854 86.2346 69.6059C89.5323 66.0133 92.7898 62.367 95.9802 58.6806C97.1063 57.3803 95.2161 55.4767 94.0901 56.7904C91.4224 59.8603 88.728 62.9033 85.9933 65.906C83.4999 68.6541 81.0467 71.5229 78.2986 74.0163C76.06 76.0405 73.1778 77.944 70.0142 77.515C66.8505 77.0861 64.4376 74.6463 62.6949 72.2334C60.3758 69.0027 58.6867 65.343 55.8984 62.4609C54.6919 61.2142 52.8018 63.1177 54.0082 64.351L53.9814 64.3376Z" fill="black"/>
<mask id="mask0_136_1396" style="mask-type:alpha" maskUnits="userSpaceOnUse" x="0" y="-13" width="107" height="179">
<path d="M0.538696 107.298L2.0387 81.7979L5.5387 67.7979V40.2979L16.0387 24.2979L27.0387 -0.202148L57.0387 -12.2021L62.0387 32.7979L72.0387 63.2979L86.0387 47.2979L103 40.2979L106.5 45L95.0387 58.7979L81.0387 73.7979V83.7979L84.0387 90.7979L92.5387 150.798L96.5387 161.798L75.0387 165.298H35.5387H16.0387L7.5387 107.298L2.0387 111.798L0.538696 107.298Z" fill="#D9D9D9"/>
</mask>
<g mask="url(#mask0_136_1396)">
<rect x="-503.461" y="47.5361" width="815.042" height="130.031" fill="url(#paint0_linear_136_1396)"/>
</g>
</g>
<defs>
<linearGradient id="paint0_linear_136_1396" x1="-95.9401" y1="177.568" x2="-95.9401" y2="47.5361" gradientUnits="userSpaceOnUse">
<stop stop-color="#191817"/>
<stop offset="1" stop-color="#191817" stop-opacity="0"/>
</linearGradient>
<clipPath id="clip0_136_1396">
<rect width="107.64" height="165.347" fill="white"/>
</clipPath>
</defs>
</svg>
