<svg width="78" height="170" viewBox="0 0 78 170" fill="none" xmlns="http://www.w3.org/2000/svg">
<g clip-path="url(#clip0_136_1395)">
<path d="M75.7874 103.666C75.9483 101.454 75.5863 99.2959 74.219 97.3656C74.219 97.3656 74.219 97.3522 74.219 97.3388C73.6828 95.9982 72.9589 94.4432 71.7524 93.5719C70.8945 92.5665 69.8891 91.6817 68.7496 90.998C68.3341 90.7567 67.9051 90.6495 67.4895 90.6495C67.4359 90.6093 67.3957 90.5825 67.3421 90.5423C68.4011 90.1803 69.3931 89.4966 70.1572 88.4242C70.5191 87.9148 70.8409 87.4054 71.1492 86.8826C71.739 86.0649 72.168 85.2338 72.5165 84.1881C74.8491 78.7054 75.0099 72.6328 74.7954 66.5602C74.782 66.0642 74.7016 65.6218 74.6078 65.2062C74.5675 60.635 74.0447 56.1443 73.093 51.6133C73.0662 51.4926 73.0125 51.3854 72.9857 51.2647C72.9589 50.3666 72.8651 49.455 72.6238 48.5971C71.672 45.3664 69.7684 42.6719 67.2483 40.4869C66.6986 40.0177 66.1088 39.6825 65.4788 39.4681C63.8567 38.2616 62.181 37.1489 60.3847 36.1569C60.1971 35.2454 59.7279 34.3338 58.8968 33.5429C58.8699 33.5161 58.8431 33.4893 58.8029 33.4625C59.0576 33.1676 59.2989 32.8458 59.4866 32.4571C60.1434 31.13 60.626 30.0039 60.9612 28.5561C61.1086 27.9395 61.1354 27.3631 61.0952 26.8269C61.4304 25.3389 61.6985 23.8375 61.9129 22.3361C62.3687 19.6014 62.5966 16.8935 62.4894 14.0784C62.4626 13.502 62.3553 12.9926 62.1945 12.51C62.181 12.2553 62.1676 12.014 62.1274 11.7459C61.5376 8.70289 60.13 6.26312 57.8645 4.14508C56.8323 3.1799 55.7465 2.71072 54.6875 2.59007C53.6285 2.10748 52.5828 1.9198 51.2423 2.05386C50.9876 2.08067 50.7329 2.13429 50.4916 2.20131C49.4862 2.1745 48.4808 2.20131 47.462 2.33537C46.7381 2.24153 45.974 2.30856 45.1429 2.65709C44.982 2.72412 44.8212 2.79115 44.6469 2.85817C44.285 2.89839 43.923 2.96542 43.5611 3.09947C39.325 4.58746 37.4617 7.49641 36.6439 11.8531C36.1211 14.6012 36.0407 17.4163 36.3222 20.1778C36.4161 21.076 37.4349 26.17 38.0515 26.3979C37.8102 26.7196 37.5689 27.0681 37.3276 27.4703C36.9121 28.154 36.6573 28.8108 36.5233 29.4409C36.0809 29.5615 35.6117 29.7224 35.1426 29.9637C26.1744 34.669 17.3805 39.6691 13.4528 49.4684C10.4366 56.9888 9.2167 65.528 8.82794 73.8259C8.78773 74.0269 8.7341 74.2146 8.70729 74.4425C8.45259 77.0565 8.18449 79.684 7.92979 82.298C7.84935 83.0487 7.92979 83.6921 8.10405 84.282C7.97 86.3598 7.84935 88.4242 7.7153 90.502C7.28633 90.9444 6.83055 91.4404 6.37477 91.9766C5.47662 92.6201 4.72592 93.4244 4.1763 94.336C3.06366 95.7569 2.31296 97.4996 2.28615 99.3093C2.28615 99.4702 2.31296 99.6176 2.32637 99.7651C2.29956 99.8053 2.27275 99.8321 2.25934 99.8724C1.29416 101.722 1.03946 103.559 1.33438 105.57C1.37459 108.17 1.93762 110.704 2.6615 113.237C2.6481 113.519 2.6615 113.827 2.75534 114.149C3.18431 115.717 3.59987 117.286 4.02884 118.868C4.01544 119.122 4.01544 119.39 4.06906 119.685C5.28894 125.745 6.80374 131.737 8.55983 137.662C8.62686 137.943 8.70729 138.225 8.77432 138.52C8.78773 138.614 8.78772 138.721 8.81454 138.815C9.32394 140.799 9.83334 142.783 10.3427 144.753C10.3964 144.954 10.4634 145.129 10.5438 145.303C10.45 145.464 10.3696 145.651 10.3561 145.853C10.3159 146.362 10.4232 146.751 10.6243 147.032C11.4554 149.311 14.0292 149.646 16.3215 149.284C16.4422 150.652 16.5494 152.019 16.67 153.386C15.9864 154.727 15.3563 156.108 14.8067 157.515C14.3375 158.36 13.8281 159.177 13.2651 159.982C12.2865 160.598 11.4152 161.322 10.6243 162.14C9.90036 162.703 9.18988 163.266 8.49281 163.842C8.14427 164.137 8.06384 164.62 8.15768 165.049C7.83595 165.183 7.51422 165.33 7.2059 165.464C6.50882 165.759 7.00482 166.926 7.72871 166.684C8.466 166.43 9.21669 166.269 9.96739 166.162C10.0478 166.242 10.1283 166.309 10.2489 166.336C10.7851 166.483 11.3347 166.55 11.8843 166.577C12.6753 166.818 13.5868 166.899 14.3911 166.952C14.4984 167.1 14.6592 167.207 14.9005 167.221C19.8873 167.502 24.8473 166.993 29.8072 166.456C30.2094 166.416 30.6116 166.054 30.4507 165.612C30.2764 165.103 30.1022 164.607 29.9145 164.097C29.9011 164.017 29.8743 163.95 29.8341 163.883C29.3246 162.435 28.8152 160.987 28.3058 159.539L26.1208 151.067C26.0672 150.88 25.9599 150.745 25.8259 150.678C25.0484 147.059 24.3245 143.44 23.6676 139.793C22.3271 131.844 21.4557 123.841 21.0536 115.784C25.7052 116.549 30.4105 116.763 35.1023 116.414C42.0865 117.219 49.1109 117.675 56.1487 117.715C55.3443 126.495 55.1031 135.303 55.4248 144.11C55.1433 145.893 54.9422 147.676 54.7813 149.459C54.7679 149.499 54.7411 149.539 54.7277 149.593C53.8698 152.729 53.347 155.92 53.1057 159.151C52.8107 160.853 52.5292 162.556 52.2343 164.258C51.8187 165.022 51.9662 165.974 52.556 166.604C52.6365 166.952 52.7571 167.288 53.052 167.596C53.7893 168.387 54.8215 168.467 55.8403 168.454C57.0736 168.44 58.3203 168.293 59.5402 168.065C60.7333 168.186 61.8995 168.226 63.0792 168.172C64.4599 168.668 65.8541 168.534 67.2885 167.891C67.503 167.797 67.6772 167.663 67.8247 167.529C68.1732 167.918 68.8033 167.837 68.9775 167.301C69.1786 166.711 69.0178 166.175 68.6022 165.733C68.562 165.692 68.5352 165.679 68.4949 165.652C68.0124 164.888 67.5164 164.124 67.0338 163.346C65.4922 160.692 64.2723 157.877 63.4009 154.915C63.3071 154.606 63.0792 154.459 62.8245 154.445C62.7977 154.284 62.7709 154.124 62.7575 153.976C62.8647 152.22 62.972 150.464 63.0792 148.708C63.8701 148.855 64.661 148.896 65.4519 148.802C65.6396 148.802 65.8139 148.842 66.0016 148.842C66.2429 148.815 66.4707 148.775 66.712 148.748C67.0606 148.668 67.3689 148.507 67.6236 148.265C67.8247 148.145 67.9855 147.984 68.1062 147.783C68.3475 147.528 68.5084 147.22 68.5888 146.871C68.696 146.402 68.696 145.92 68.5888 145.45C68.562 145.33 68.5083 145.209 68.4547 145.102C68.5486 144.968 68.629 144.807 68.6826 144.606C68.8569 143.869 69.0043 143.145 69.1652 142.407C69.2456 142.3 69.3127 142.179 69.3663 142.032C71.3503 135.504 72.6104 128.801 73.589 122.058C74.2994 118.278 74.9295 114.498 75.4121 110.677C75.5327 109.779 75.6534 108.881 75.7472 107.969C75.774 107.755 75.7472 107.567 75.6936 107.406C75.8813 106.83 75.9751 106.2 75.9617 105.516C75.9617 104.899 75.8947 104.256 75.8142 103.626L75.7874 103.666ZM66.8863 98.4514C66.8327 97.7811 67.1678 98.3173 66.8863 98.7061C66.8863 98.6257 66.8863 98.5318 66.8863 98.4514ZM20.075 152.595C20.075 152.461 20.075 152.327 20.075 152.193C20.1018 152.314 20.1152 152.435 20.142 152.569C20.1152 152.569 20.1018 152.595 20.075 152.595ZM60.2373 163.387C60.2909 163.481 60.3445 163.574 60.4115 163.668C60.3445 163.682 60.2909 163.695 60.2239 163.708C60.2239 163.601 60.2239 163.494 60.2373 163.373V163.387ZM65.09 163.467C65.2241 163.655 65.3715 163.829 65.5056 164.003C65.4519 164.003 65.3983 164.003 65.3447 163.99C65.2643 163.816 65.1838 163.641 65.09 163.467Z" fill="#944EBE"/>
<path d="M61.5644 13.0594C61.5242 18.0998 60.8673 23.1 59.5536 27.9795C59.0978 29.6686 58.6152 31.5319 57.4088 32.8724C56.953 33.3818 56.3899 33.8108 55.6929 33.8912C54.6473 34.0253 53.5882 33.5695 52.5292 33.6097C50.0358 33.717 49.1109 35.8618 48.1055 37.7922C47.2073 39.5349 46.4164 41.7065 44.982 43.0873C43.427 44.5887 41.9927 42.6985 41.0275 41.4384C39.7272 39.7628 38.762 37.819 38.1855 35.7814C37.5689 33.5963 37.1265 31.0359 38.3196 28.9849C39.392 27.1484 40.8934 25.5933 40.88 23.3279C40.88 21.5986 38.1855 21.5986 38.199 23.3279C38.199 25.2314 36.3758 26.7194 35.6251 28.3682C34.5661 30.6606 34.8342 33.3014 35.3972 35.7009C35.9603 38.1005 36.912 40.2185 38.2526 42.1489C39.4993 43.9586 41.2286 46.2777 43.6415 46.385C45.8266 46.4788 47.4218 44.6423 48.4272 42.9264C49.0707 41.8406 49.6203 40.6877 50.1967 39.5617C50.6793 38.6367 51.1083 37.323 51.8724 36.5857C52.6365 35.8484 54.1513 36.4919 55.0494 36.5589C56.095 36.6259 57.1809 36.3712 58.0656 35.7948C59.7949 34.6821 60.8003 32.7786 61.4706 30.8884C62.4491 28.1672 63.0256 25.2314 63.468 22.3761C63.9505 19.2929 64.2186 16.1694 64.2455 13.046C64.2589 11.3167 61.5778 11.3167 61.5644 13.046V13.0594Z" fill="black"/>
<path d="M46.3628 21.411C46.9928 19.9364 46.7381 18.3948 45.7059 17.1615C44.6737 15.9282 43.1857 15.5395 41.6977 15.8478C40.317 16.1293 39.0301 17.1883 38.4402 18.4484C37.7297 19.9766 37.837 21.6389 38.4938 23.1671C39.2043 24.8026 40.7862 26.3039 42.6763 26.2637C43.3734 26.2503 44.0436 25.6605 44.0168 24.9232C43.99 24.1859 43.427 23.5693 42.6763 23.5827C42.5691 23.5827 42.3278 23.5559 42.5557 23.5961C42.435 23.5693 42.3278 23.529 42.2071 23.5022C42.4082 23.5559 42.1803 23.4888 42.0865 23.4352C42.0328 23.4084 41.9792 23.3682 41.9256 23.3414C41.8854 23.3146 41.6843 23.1403 41.8586 23.3012C41.6709 23.1403 41.51 22.966 41.3492 22.7784C41.4966 22.9392 41.309 22.7247 41.2687 22.6577C41.1883 22.5371 41.1213 22.4164 41.0409 22.2958C40.9872 22.1885 40.9336 22.0813 40.88 21.974C40.813 21.84 40.88 21.9874 40.8934 22.0142C40.8666 21.9606 40.8532 21.907 40.8264 21.84C40.7325 21.5987 40.6789 21.344 40.6253 21.0893C40.5717 20.8346 40.6253 21.0357 40.6253 21.0893C40.6253 21.0357 40.6253 20.9686 40.6253 20.915C40.6253 20.7944 40.6253 20.6737 40.6253 20.5531C40.6253 20.4994 40.6521 20.1777 40.6253 20.3118C40.5985 20.4726 40.6253 20.2716 40.6387 20.2582C40.6521 20.1777 40.6789 20.0973 40.6923 20.0303C40.7191 19.9096 40.7727 19.8024 40.7996 19.6817C40.7325 19.8962 40.7996 19.7085 40.8398 19.6013C40.8934 19.5075 40.947 19.4136 41.014 19.3198C41.014 19.3064 41.1347 19.1455 41.0409 19.2796C40.947 19.4136 41.0945 19.2259 41.1079 19.1991C41.1883 19.1053 41.2821 19.0115 41.376 18.931C41.4564 18.864 41.6307 18.7434 41.443 18.864C41.5368 18.8104 41.6173 18.7434 41.7111 18.6897C41.7647 18.6629 41.805 18.6361 41.8586 18.6093C41.8854 18.5959 42.0999 18.4887 41.939 18.5557C41.7916 18.6227 42.0865 18.5021 42.1267 18.4887C42.2339 18.4618 42.3412 18.435 42.435 18.4082C42.5825 18.368 42.368 18.4082 42.3412 18.4082C42.3948 18.4082 42.4484 18.4082 42.502 18.4082C42.6227 18.4082 42.7567 18.4082 42.8774 18.4082C42.6227 18.4082 42.8506 18.4082 42.9846 18.4484C43.0382 18.4618 43.3064 18.5825 43.1455 18.5021C42.9846 18.4082 43.2527 18.5691 43.2929 18.5959C43.3332 18.6227 43.3734 18.6495 43.4136 18.6763C43.5476 18.7702 43.4404 18.7165 43.3734 18.6495C43.4538 18.7299 43.5476 18.8104 43.6281 18.8908C43.6683 18.931 43.6951 18.9712 43.7219 18.9981C43.6549 18.931 43.6147 18.8372 43.6951 18.9712C43.7621 19.0651 43.8157 19.1723 43.8694 19.2662C43.8962 19.3064 43.9096 19.36 43.9364 19.4002C43.8962 19.3198 43.8694 19.1991 43.9096 19.36C43.923 19.4136 44.0436 19.6817 44.0034 19.7353C44.0034 19.7488 44.0034 19.4538 43.99 19.6147C43.99 19.6817 43.99 19.7488 43.99 19.8024C43.99 19.856 43.99 19.8962 43.99 19.9498C43.99 20.1643 44.0168 19.8962 43.99 19.8828C44.0168 19.9096 43.8158 20.4056 43.99 20.0303C43.7219 20.6737 43.7755 21.4914 44.4726 21.8668C45.049 22.1751 46.0142 22.0813 46.3091 21.3842L46.3628 21.411Z" fill="black"/>
<path d="M44.4592 20.5663C44.0034 22.9927 46.2689 25.419 48.7891 24.8292C51.5774 24.1723 51.7785 20.888 52.0063 18.5823C52.1538 17.0675 52.2744 15.5527 52.4621 14.0379C52.5828 13.0862 52.7436 11.9735 53.8563 11.8529C56.5507 11.5311 59.4597 12.7778 61.5643 14.3597C62.4357 15.0165 63.5349 14.105 63.5751 13.2068C63.9371 6.10199 57.65 0.0427954 50.639 0.351117C48.6282 0.444955 46.5772 0.806898 44.6066 1.26268C42.7969 1.67824 41.0274 2.3217 39.5528 3.48796C36.6036 5.82048 35.5714 9.6678 35.1023 13.247C34.4856 17.9925 34.9682 22.872 36.4294 27.4298C36.9522 29.0653 39.5394 28.3682 39.0166 26.7193C37.8772 23.1669 37.3678 19.4671 37.5554 15.727C37.7163 12.684 38.1855 9.17181 40.1158 6.69183C42.0462 4.21184 45.7461 3.66223 48.7757 3.23326C51.8053 2.80429 54.7946 3.13942 57.221 5.17703C59.6474 7.21463 61.0549 10.0968 60.8941 13.2336L62.9049 12.0808C60.827 10.5123 58.3605 9.57397 55.7732 9.27905C54.5131 9.13159 53.0654 9.05116 51.9259 9.70802C50.9205 10.2844 50.3173 11.3301 50.0358 12.4293C49.3789 14.9495 49.5398 17.6842 49.1376 20.2446C49.0438 20.821 48.8561 22.2018 48.0518 22.2688C47.6362 22.2956 46.9391 21.7594 47.0196 21.3036C47.3413 19.6145 44.7541 18.8907 44.4323 20.5931L44.4592 20.5663Z" fill="black"/>
<path d="M36.0943 28.5683C29.2308 31.799 22.0188 35.271 16.9918 41.1425C14.2437 44.3463 12.4608 48.0998 11.3347 52.1616C10.0612 56.706 9.31052 61.4247 8.53302 66.0629C7.62146 71.4787 6.87076 76.9212 6.26752 82.3638C6.16028 83.3156 7.20589 83.7847 7.96999 83.6507C12.0586 82.9804 16.2679 85.2861 18.1312 88.919C18.6942 90.0316 20.209 89.6026 20.5844 88.5972C24.1234 78.8516 25.4371 68.2882 24.3513 57.9661C24.043 55.017 23.5604 52.0946 22.8767 49.2125C22.4879 47.5368 19.9007 48.2473 20.2895 49.9229C23.2386 62.4837 22.4075 75.7684 17.9972 87.8868L20.4503 87.565C17.9972 82.7793 12.501 80.1921 7.25951 81.0635L8.96199 82.3504C9.98079 73.1543 11.2811 63.8779 13.426 54.8829C14.3643 50.9552 15.7183 47.1346 18.1982 43.904C20.3967 41.0486 23.252 38.7429 26.2682 36.7992C29.834 34.5068 33.6546 32.6703 37.4751 30.874C39.0301 30.1367 37.6761 27.831 36.1211 28.5549L36.0943 28.5683Z" fill="black"/>
<path d="M56.5776 35.2718C59.996 37.095 63.4948 38.9717 66.3635 41.6125C67.7442 42.8861 68.9507 44.307 69.8623 45.9559C70.9615 47.9398 71.5111 50.1651 71.9133 52.377C72.7578 57.1091 73.1198 61.9484 73.2806 66.7475C73.3611 69.1336 73.3611 71.5332 73.294 73.9193C73.227 76.3055 73.16 78.5307 72.7176 80.7828C71.9133 84.7508 69.2993 89.3086 64.661 89.1612C62.9317 89.1075 62.9317 91.7886 64.661 91.8422C69.0982 91.9897 72.7042 88.6383 74.3128 84.7374C75.2512 82.4719 75.6131 80.0321 75.8008 77.6058C76.0019 74.9649 76.0287 72.3107 76.0153 69.6698C75.9751 64.3345 75.5595 59.0126 74.8222 53.7309C74.1654 49.0257 72.8651 44.6287 69.6076 41.0361C66.3501 37.4435 62.1006 35.1512 57.9316 32.9259C56.4168 32.1082 55.0494 34.4273 56.5776 35.245V35.2718Z" fill="black"/>
<path d="M55.8269 85.3277C57.4623 85.4618 59.205 86.065 60.7064 87.0034C60.8941 87.1241 61.0683 87.2447 61.2426 87.3653C61.3364 87.4324 61.4437 87.4994 61.5375 87.5798C61.4169 87.486 61.6314 87.6469 61.6582 87.6871C62.0067 87.9686 62.3552 88.2769 62.677 88.612C63.374 89.3225 63.7896 89.8721 64.299 90.7435C64.661 91.3735 65.5055 91.588 66.1355 91.2261C66.7656 90.8641 66.9801 90.0196 66.6181 89.3895C64.3526 85.5288 60.264 83.022 55.8269 82.6601C55.103 82.6065 54.4863 83.3169 54.4863 84.0006C54.4863 84.7781 55.103 85.2875 55.8269 85.3411V85.3277Z" fill="black"/>
<path d="M62.315 50.2324C61.4705 55.5811 60.6125 60.9298 59.768 66.2785L58.5213 74.1474C58.1594 76.4129 58.1326 79.2817 56.6982 81.1718C55.3577 82.9547 53.3201 84.3087 51.6712 85.7966C49.8615 87.4321 48.092 89.1212 46.3761 90.8504C42.9578 94.309 39.7003 97.9553 36.7511 101.816C33.8019 105.677 30.8126 111.012 32.5418 116.186C32.7965 116.937 33.44 117.245 34.1907 117.125C39.3517 116.307 44.057 113.264 46.9525 108.921C48.5612 106.508 49.5532 103.733 51.3897 101.454C52.9849 99.4701 54.9689 97.8346 57.0869 96.4405C59.6071 94.7782 62.2882 93.4109 64.9827 92.0703C66.5243 91.2928 65.1703 88.9871 63.6287 89.7512C59.0039 92.0703 54.2316 94.4967 50.6122 98.2904C48.6818 100.315 47.3681 102.661 46.0678 105.1C44.7675 107.54 43.3331 109.551 41.2151 111.213C38.963 112.969 36.2953 114.082 33.4802 114.524L35.1291 115.463C33.6679 111.106 36.3355 106.749 38.8959 103.384C41.7513 99.6309 44.9686 96.0919 48.2797 92.7406C49.9955 91.0113 51.7516 89.3223 53.5748 87.6868C55.2638 86.172 57.221 84.7912 58.642 83.0083C60.2372 81.011 60.5053 78.6114 60.8941 76.1582L62.0871 68.6245L64.8888 50.9295C64.9961 50.219 64.7012 49.4817 63.9505 49.2806C63.307 49.1063 62.4223 49.4951 62.3016 50.219L62.315 50.2324Z" fill="black"/>
<path d="M6.64277 83.022C6.92428 84.5234 7.2326 86.132 6.99131 87.6602C6.7232 89.309 5.66418 90.2608 4.56495 91.4271C2.32626 93.8132 1.09297 96.9501 1.06616 100.221C1.06616 101.159 2.24583 102.004 3.07696 101.374C6.79023 98.5989 11.4687 98.5989 15.9058 98.5185C17.0855 98.4917 18.3054 98.3844 19.3242 97.7276C20.343 97.0707 21.0401 95.9581 20.973 94.765C20.906 93.5719 20.1285 92.6202 19.4985 91.6818C18.7344 90.5826 17.9434 89.5101 17.1257 88.4511V90.3413C17.9568 89.4699 18.5467 88.4377 18.788 87.258C19.1365 85.569 16.5627 84.8585 16.2007 86.5476C16.0399 87.2848 15.7584 87.9015 15.2222 88.4511C14.6859 89.0007 14.7664 89.7648 15.2222 90.3413C15.9058 91.2126 16.5493 92.1242 17.1793 93.0357C17.5011 93.5183 18.4797 94.5103 18.2384 95.1001C17.9166 95.8777 16.5895 95.824 15.9192 95.8374C14.9138 95.8508 13.895 95.8508 12.8896 95.8911C9.0021 96.0519 4.94029 96.6686 1.73643 99.0547L3.74722 100.208C3.74722 98.6391 4.09576 97.0841 4.80624 95.6766C5.57034 94.1886 6.69639 93.1698 7.76881 91.9365C10.1952 89.1616 9.86004 85.6762 9.21659 82.2981C8.89486 80.609 6.30763 81.3195 6.62936 83.0086L6.64277 83.022Z" fill="black"/>
<path d="M19.0561 87.9683C19.9274 89.9523 22.0723 90.8772 24.0563 91.333C26.6971 91.9228 29.4586 92.2043 32.1531 92.3518C37.6895 92.6601 43.2795 92.1239 48.6684 90.837C50.3441 90.4348 49.6336 87.8476 47.9579 88.2498C43.0918 89.4026 38.105 89.8986 33.0914 89.711C30.6249 89.6171 28.1717 89.3624 25.7453 88.9334C24.1099 88.6385 22.0857 88.29 21.3484 86.6143C21.0535 85.9575 20.0883 85.7966 19.5119 86.1317C18.8282 86.5339 18.7344 87.298 19.0293 87.9683H19.0561Z" fill="black"/>
<path d="M65.0899 92.9678C68.2669 92.2841 71.2965 94.5496 72.8113 97.177C74.7819 100.582 74.5674 104.858 74.2055 108.639C73.3744 117.124 71.8998 125.583 70.0364 133.894C68.9506 138.707 67.7039 143.492 66.3232 148.224L67.6101 147.246C63.5081 147.098 59.4597 146.495 55.5051 145.45L56.4837 146.736C56.7652 132.902 57.7572 119.081 59.4597 105.341C59.5535 104.617 58.776 104 58.1191 104C57.3148 104 56.8724 104.617 56.7786 105.341C55.0761 119.081 54.0841 132.902 53.8026 146.736C53.8026 147.313 54.2316 147.876 54.7812 148.023C58.9637 149.136 63.2802 149.766 67.6101 149.913C68.1999 149.94 68.7361 149.485 68.897 148.935C71.5378 139.98 73.6157 130.865 75.1305 121.642C75.8811 117.084 76.5514 112.486 76.9536 107.874C77.3155 103.732 77.2217 99.1342 74.9294 95.5014C72.6371 91.8685 68.6289 89.469 64.366 90.3805C62.6769 90.7425 63.3874 93.3297 65.0765 92.9678H65.0899Z" fill="black"/>
<path d="M53.8294 146.2C52.9447 151.884 52.0733 157.568 51.1886 163.252C50.84 165.544 50.5585 168.252 53.253 169.19C54.379 169.579 55.7062 169.552 56.8858 169.646C58.1459 169.74 59.4194 169.807 60.6795 169.834C63.6421 169.874 66.6583 169.566 69.4466 168.533C70.2643 168.225 70.6933 167.367 70.2509 166.563C68.5216 163.439 66.7924 160.316 65.0631 157.193C64.299 155.798 63.7762 154.632 63.937 153.01C64.0979 151.388 64.5537 149.914 64.6341 148.318C64.7145 146.589 62.0335 146.602 61.953 148.318C61.8726 150.034 61.3498 151.616 61.2426 153.305C61.1353 154.994 61.6581 156.536 62.4624 158.024C64.2722 161.335 66.1087 164.633 67.9452 167.93L68.7495 165.96C66.0148 166.978 63.1461 167.233 60.2372 167.166C58.7224 167.126 57.2076 167.019 55.6928 166.898C54.7008 166.818 53.5881 166.925 53.5881 165.692C53.5881 164.297 53.9635 162.89 54.1646 161.522L54.9287 156.549L56.4166 146.951C56.5239 146.24 56.229 145.503 55.4783 145.302C54.8482 145.128 53.9367 145.517 53.8294 146.24V146.2Z" fill="black"/>
<path d="M53.6821 157.006C56.4436 155.974 59.3794 155.706 62.2213 156.309C62.9318 156.456 63.6691 156.094 63.8702 155.371C64.0578 154.7 63.6423 153.869 62.9318 153.722C59.6207 153.025 56.1353 153.226 52.9583 154.419C52.2746 154.674 51.8188 155.33 52.0199 156.068C52.1941 156.711 52.9851 157.261 53.6687 157.006H53.6821Z" fill="black"/>
<path d="M20.6916 116.522C32.4749 117.795 44.3252 118.452 56.1754 118.479C57.9047 118.479 57.9047 115.798 56.1754 115.798C44.3252 115.771 32.4749 115.114 20.6916 113.841C19.9677 113.76 19.3511 114.511 19.3511 115.181C19.3511 115.972 19.9677 116.442 20.6916 116.522Z" fill="black"/>
<path d="M18.8953 104.296C19.15 120.771 21.3351 137.219 25.4103 153.199C26.5632 157.73 27.8769 162.22 29.3381 166.657C29.8743 168.293 32.4615 167.596 31.9253 165.947C26.8447 150.464 23.5738 134.391 22.2467 118.144C21.8713 113.532 21.6568 108.921 21.5764 104.296C21.5496 102.567 18.8685 102.567 18.8953 104.296Z" fill="black"/>
<path d="M1.58904 98.5043C-0.0866225 100.931 -0.126838 103.987 0.235105 106.816C0.664074 110.167 1.34774 113.505 2.04482 116.816C3.506 123.653 5.11463 130.463 6.7903 137.259C7.72867 141.093 8.70726 144.927 9.69925 148.747C9.86011 149.377 10.3963 149.659 10.9862 149.726C15.7719 150.289 20.5709 149.444 24.9411 147.434C25.5979 147.125 25.7588 146.187 25.4237 145.597C25.0349 144.927 24.244 144.806 23.5871 145.115C19.646 146.924 15.2893 147.541 10.9862 147.045L12.2731 148.024C10.5706 141.495 8.94855 134.94 7.39354 128.385C5.83852 121.83 4.31032 115.382 3.21108 108.8C2.71509 105.877 2.08504 102.486 3.88135 99.8717C4.85993 98.4507 2.54082 97.1102 1.56223 98.5177L1.58904 98.5043Z" fill="black"/>
<path d="M15.5708 150.088C15.5306 153.359 14.2839 156.59 12.0318 158.976C9.7797 161.362 7.03161 162.89 5.85194 166.027C5.51681 166.912 6.36135 167.663 7.13885 167.73C15.182 168.427 23.2654 168.494 31.3086 167.958C33.0245 167.837 33.0379 165.156 31.3086 165.276C23.252 165.826 15.182 165.746 7.13885 165.049L8.42576 166.751C8.94857 165.357 10.1148 164.311 11.2141 163.346C12.4742 162.247 13.7477 161.201 14.7933 159.874C16.9918 157.086 18.1982 153.654 18.2384 150.102C18.2653 148.372 15.5842 148.372 15.5574 150.102L15.5708 150.088Z" fill="black"/>
<path d="M17.1392 155.531C20.4101 155.531 23.6274 155.974 26.7911 156.818C27.4881 157.006 28.2522 156.577 28.4399 155.88C28.6276 155.183 28.1986 154.419 27.5015 154.231C24.1234 153.32 20.638 152.85 17.1392 152.837C15.41 152.837 15.41 155.518 17.1392 155.518V155.531Z" fill="black"/>
<mask id="mask0_136_1395" style="mask-type:alpha" maskUnits="userSpaceOnUse" x="-1" y="-3" width="77" height="172">
<path d="M12 47L35.5 28.5L31.5 13L47.5 -3L65.5 3.5L60.5 33.5L71.5 35.5L76 78L69.5 90.5L76 94V110L68 148.5L63.5 156L71 168L59 169L30.5 168H9L6.5 163.5L12 154L9 145L-0.5 103L2 97L6.5 90.5L12 47Z" fill="#D9D9D9"/>
</mask>
<g mask="url(#mask0_136_1395)">
<rect x="-535" y="53.2383" width="815.042" height="130.031" fill="url(#paint0_linear_136_1395)"/>
</g>
</g>
<defs>
<linearGradient id="paint0_linear_136_1395" x1="-127.479" y1="183.27" x2="-127.479" y2="53.2383" gradientUnits="userSpaceOnUse">
<stop stop-color="#191817"/>
<stop offset="1" stop-color="#191817" stop-opacity="0"/>
</linearGradient>
<clipPath id="clip0_136_1395">
<rect width="77.0618" height="169.498" fill="white" transform="translate(0.0511475 0.339844)"/>
</clipPath>
</defs>
</svg>
