<svg width="81" height="124" viewBox="0 0 81 124" fill="none" xmlns="http://www.w3.org/2000/svg">
<path d="M77.5992 33.194C76.9392 33.374 76.2892 33.584 75.6392 33.794C75.5992 33.794 75.5592 33.794 75.5092 33.794C75.1192 33.904 74.7392 34.014 74.3592 34.124C74.2592 33.984 74.0792 33.904 73.8592 33.974C73.4592 34.104 73.0592 34.234 72.6592 34.364C72.6292 34.364 72.6092 34.394 72.5792 34.404C72.5292 34.404 72.4692 34.414 72.4192 34.424C72.0792 34.244 71.6992 34.164 71.3192 34.134C71.4492 33.954 71.5192 33.744 71.5392 33.504C71.6292 33.384 71.7192 33.274 71.7992 33.144C71.9892 32.814 71.7392 32.394 71.3692 32.394C71.1492 32.394 70.9292 32.434 70.7192 32.494C70.1692 32.234 69.4492 32.384 68.9692 32.774C68.7992 32.914 68.6292 33.094 68.4792 33.294C68.2792 33.354 68.0892 33.434 67.8992 33.534C67.6492 33.664 67.3592 33.874 67.1092 34.114C66.1692 34.114 65.3392 35.184 64.8592 35.864C64.4692 36.414 63.7492 37.514 64.1792 38.194C62.1492 40.224 60.1092 42.264 58.0792 44.294C56.6192 45.384 55.1092 46.404 53.5592 47.374C53.4992 47.414 53.4492 47.454 53.3992 47.494C53.3492 47.494 53.3092 47.504 53.2592 47.504C52.9792 46.554 52.6692 45.614 52.3592 44.674C51.9292 43.064 51.5192 41.444 51.0792 39.854C50.9692 39.134 50.8592 38.414 50.7792 37.674C50.6992 36.904 50.3792 36.294 49.9492 35.834C49.2392 33.344 48.1892 31.064 46.5392 29.074C46.0092 28.284 45.4392 27.524 44.7892 26.774C44.2392 26.144 43.5992 25.864 42.9492 25.834C42.0392 25.094 41.0892 24.504 39.8992 24.004C39.1992 23.704 38.5192 23.674 37.8992 23.814C37.6792 23.754 37.4592 23.674 37.2292 23.624C36.9692 23.564 36.7292 23.534 36.4892 23.524C36.7692 22.114 37.0092 20.694 37.1992 19.264C37.3992 17.744 37.6092 16.204 37.6092 14.674C38.0792 14.784 38.5792 14.794 39.0492 14.654C39.8092 14.434 40.4492 13.964 40.8992 13.314C41.0692 13.134 41.2192 12.924 41.3592 12.724C41.3992 12.674 41.4292 12.624 41.4592 12.574C41.5292 12.444 41.5892 12.294 41.6492 12.154C41.7092 12.014 41.7892 11.864 41.8292 11.704C41.8992 11.434 41.9392 11.144 41.9492 10.854C41.9792 10.674 41.9992 10.494 42.0092 10.314C42.0092 10.254 42.0092 10.204 42.0092 10.144C41.9892 9.89399 41.9592 9.62399 41.8992 9.37399C41.8892 9.32399 41.8692 9.27399 41.8492 9.23399C41.8392 9.18399 41.8292 9.13399 41.8192 9.09399C41.7092 8.79399 41.5992 8.48399 41.4092 8.21399C41.1092 7.77399 40.9192 7.56399 40.5292 7.26399C40.1392 6.96399 39.8992 6.83399 39.3892 6.65399C39.3192 6.62399 39.2492 6.60399 39.1692 6.59399C39.0292 6.56399 38.8792 6.54399 38.7192 6.52399C38.4392 6.13399 38.1792 5.72399 37.9492 5.30399C37.9492 5.26399 37.9692 5.22399 37.9692 5.18399C38.0392 4.85399 38.0292 4.52399 37.9292 4.18399C37.7592 3.73399 37.5892 3.25399 37.3092 2.86399C36.8192 2.17399 36.2092 1.62399 35.3792 1.38399C35.0592 1.29399 34.7092 1.25399 34.3692 1.26399C34.2092 1.21399 34.0492 1.18399 33.8792 1.17399C33.5992 1.13399 33.3092 1.14399 33.0192 1.19399C32.9392 1.15399 32.8592 1.11399 32.7792 1.08399C31.8792 0.773989 30.7492 0.833988 29.8392 1.24399C29.3592 1.29399 28.8692 1.35399 28.3692 1.46399C27.5792 1.64399 26.7992 1.92399 26.0592 2.26399C25.4992 2.50399 24.9692 2.79399 24.4792 3.14399C24.3892 3.20399 24.3092 3.28399 24.2292 3.35399C23.2392 3.93399 22.3092 4.62399 21.4892 5.43399C21.3492 5.56399 21.2392 5.71399 21.1492 5.88399C21.0392 5.99399 20.9192 6.10399 20.8092 6.22399C20.3692 6.70399 20.1192 7.33399 20.0992 7.97399C19.7992 8.56399 19.6092 9.21399 19.5192 9.90399C19.3792 10.004 19.2292 10.104 19.1092 10.234C18.8592 10.484 18.6792 10.754 18.5292 11.024C18.3592 11.184 18.1992 11.364 18.0392 11.564C18.0192 11.584 18.0092 11.604 17.9892 11.624C17.4192 12.374 17.6692 13.384 17.9892 14.144C18.1392 14.504 18.3892 14.784 18.6892 15.004C19.0692 15.504 19.4792 15.974 19.9092 16.424C20.5092 17.634 21.3892 18.734 22.4492 19.604L21.8792 19.844C21.7092 19.864 21.5292 19.884 21.3492 19.934C19.9692 20.284 18.7592 20.794 17.5792 21.514C17.0592 21.734 16.5492 21.944 16.0292 22.164C14.9592 22.374 13.9692 22.724 12.9792 23.304C12.4292 23.514 11.8692 23.724 11.3292 23.964C10.9392 23.904 10.5292 23.934 10.1092 24.054C4.9192 25.534 4.5092 30.674 4.7792 35.554C4.6992 37.674 4.7192 39.784 4.8392 41.904C4.8392 42.054 4.8792 42.194 4.8992 42.324C4.6792 45.784 4.4592 49.254 4.2392 52.714C4.0992 53.364 3.9492 54.014 3.8192 54.674C2.6592 57.994 1.9892 61.454 1.8092 64.964C1.7992 64.994 1.7792 65.024 1.7692 65.064C1.4292 67.064 1.2792 69.094 1.3492 71.114C1.2492 71.194 1.1792 71.314 1.1792 71.494C1.1992 73.904 1.3292 76.314 1.5592 78.714C1.5592 78.924 1.5592 79.134 1.5592 79.344C1.3492 79.734 1.3192 80.224 1.6192 80.604C1.6592 80.654 1.7192 80.684 1.7692 80.734C1.8392 81.334 1.9092 81.944 1.9892 82.544C2.0492 82.954 2.7392 83.044 2.8992 82.664C3.1392 82.114 3.3492 81.554 3.5792 81.004C3.7792 81.054 4.0092 81.004 4.1192 80.784C4.6492 79.734 5.0892 78.644 5.4592 77.524C5.6392 77.074 5.7892 76.604 5.8792 76.124C5.9292 75.834 5.7692 75.634 5.5592 75.544C5.5792 75.454 5.5892 75.374 5.5992 75.284C5.6892 74.984 5.7892 74.684 5.8792 74.384C6.7192 83.064 8.0592 91.664 9.9492 100.164C9.9492 100.254 9.9292 100.334 9.9392 100.424C10.2092 106.064 10.8792 111.634 11.8992 117.184C12.0192 117.854 12.3092 118.374 12.6892 118.804C12.6592 118.864 12.6292 118.934 12.6192 119.004C12.5592 119.824 12.6292 120.874 13.2292 121.484C13.2692 121.544 13.3192 121.584 13.3792 121.614C13.5192 121.724 13.6692 121.814 13.8492 121.874C13.9292 121.904 14.0192 121.904 14.1092 121.924C15.0692 122.334 16.0492 122.414 17.0492 122.354C17.8092 122.494 18.7192 122.414 19.2092 122.404C20.7192 122.374 22.2192 122.244 23.7092 122.024C24.0492 121.994 24.3892 121.954 24.7292 121.914C24.9292 121.954 25.1292 121.994 25.3292 122.034C25.6492 122.104 25.8692 121.894 25.9292 121.654C26.0492 121.674 26.1792 121.704 26.2992 121.724C26.7792 121.804 27.1892 121.134 26.7492 120.854C26.8192 120.754 26.8492 120.614 26.7992 120.454C26.2492 118.704 25.4592 117.074 24.5492 115.504C24.4692 115.344 24.3992 115.194 24.3092 115.034C23.9192 114.114 23.4692 113.224 22.9792 112.354C22.9792 112.284 22.9792 112.224 22.9692 112.144C22.6892 111.154 22.5892 110.164 22.6392 109.144C22.6492 108.904 22.5792 108.734 22.4792 108.584C22.5592 108.244 22.5992 107.884 22.5692 107.484C21.9592 99.874 21.5592 92.244 21.3592 84.614C21.3592 84.474 21.3792 84.344 21.3892 84.204C22.3992 83.994 23.4092 83.784 24.4192 83.584C33.4092 82.674 42.3492 81.464 51.0392 78.884L51.1092 79.494C51.3992 91.004 52.2892 102.474 53.7892 113.894C53.8092 114.244 53.8292 114.584 53.8492 114.934C53.6892 115.154 53.5792 115.434 53.5792 115.764C53.5792 117.274 53.5792 118.794 53.5792 120.304C53.5792 121.044 54.1492 121.694 54.8792 121.774C55.0692 121.794 55.2692 121.774 55.4692 121.724C55.7592 121.944 56.0892 122.114 56.4992 122.194C57.6792 122.434 59.0392 122.114 60.2092 121.954C60.4592 121.924 60.6992 121.874 60.9492 121.834C61.7292 121.814 62.4992 121.704 63.2492 121.474C64.8592 121.624 66.4892 121.504 68.1092 121.314C68.9292 122.554 70.8792 121.864 70.8592 120.494C71.1092 120.134 71.2292 119.684 71.0792 119.254C70.3592 117.174 69.3892 115.194 68.1992 113.344C67.9992 113.004 67.7792 112.674 67.5492 112.354C67.3992 109.604 67.1992 106.864 66.9192 104.124C66.5192 98.694 66.1192 93.264 65.7092 87.834C65.6692 87.254 65.4892 86.774 65.2292 86.364C65.2692 86.134 65.2892 85.894 65.2592 85.624C64.5792 78.734 65.1892 70.084 60.3592 64.564C60.0792 64.244 59.7792 64.024 59.4592 63.874C58.1992 62.844 56.5692 62.274 54.6592 62.184C51.9692 61.274 49.2992 61.574 46.3392 62.814H46.3192C44.9392 63.094 43.9892 63.644 43.1392 64.494C43.1092 64.524 43.0692 64.544 43.0392 64.574C42.3192 62.614 41.6692 60.634 41.0492 58.644C40.9692 55.334 41.2392 52.024 41.6592 48.714C42.5792 50.154 43.6492 51.434 44.9292 52.604C45.6292 53.824 46.4192 54.854 47.3592 55.734C49.2692 58.084 51.8092 59.754 54.2692 58.564C54.6692 58.524 55.0792 58.384 55.4992 58.144C56.1992 57.744 56.6392 57.474 57.0392 57.174C57.2592 57.174 57.4692 57.124 57.6692 57.004C57.7492 56.954 57.8292 56.914 57.9092 56.864C58.0592 56.834 58.2092 56.774 58.3492 56.684C58.5892 56.524 58.8392 56.364 59.0792 56.204C59.3292 56.044 59.4892 55.844 59.6092 55.634C61.0792 54.354 62.4092 52.954 63.6192 51.434C66.1992 48.864 68.5992 46.124 70.8192 43.234L70.8392 43.214C70.9192 43.114 70.9992 43.014 71.0792 42.914C71.2692 42.664 71.3492 42.424 71.3492 42.184C71.7192 41.894 72.0992 41.604 72.4492 41.294C74.9292 39.814 77.1692 37.944 79.0192 35.714C79.9292 34.624 79.0992 32.774 77.5592 33.204L77.5992 33.194ZM29.2592 10.244C29.2592 10.244 29.2692 10.244 29.2792 10.244C29.2592 10.244 29.2592 10.244 29.2492 10.244H29.2592ZM29.8492 11.764C29.8492 11.764 29.8492 11.794 29.8492 11.814C29.8492 11.844 29.8392 11.864 29.8392 11.894C29.8292 11.894 29.8192 11.904 29.8092 11.914C29.8092 11.884 29.8392 11.824 29.8592 11.774L29.8492 11.764ZM29.1692 10.284C29.1692 10.284 29.1792 10.284 29.1892 10.284C29.1892 10.284 29.2292 10.274 29.2692 10.264C29.2492 10.294 29.1692 10.314 29.1092 10.324C29.1292 10.314 29.1492 10.304 29.1692 10.294V10.284ZM4.4692 59.864C4.4692 59.864 4.4692 59.774 4.4892 59.734C4.5092 59.654 4.5192 59.584 4.5392 59.504C4.5392 59.554 4.5392 59.594 4.5392 59.644C4.5192 59.714 4.4892 59.784 4.4692 59.864ZM22.7992 115.984C22.7892 115.904 22.7792 115.824 22.7692 115.754C22.8392 115.904 22.9192 116.054 22.9892 116.194C22.9292 116.124 22.8592 116.054 22.7992 115.984ZM14.3892 120.304C14.3892 120.304 14.3892 120.284 14.3892 120.274C14.3892 120.274 14.4092 120.274 14.4192 120.294C14.4192 120.294 14.4092 120.294 14.3992 120.304H14.3892Z" fill="#673B82"/>
<path d="M26.5093 14.0044C26.4493 14.0544 26.4793 14.0044 26.5693 14.0044C26.6993 14.0244 26.6893 14.0044 26.8393 14.0644C27.0193 14.1244 27.1893 14.2544 27.3293 14.3844C27.7293 14.7444 27.9493 15.2844 28.2293 15.7444C28.8993 16.8744 29.8293 17.7644 31.1993 17.8244C32.4393 17.8744 33.6393 17.1944 34.3793 16.2344C35.2093 15.1444 35.4793 13.8144 35.6093 12.4744L33.7493 12.9744C35.5893 16.0144 40.7893 16.2244 42.4193 12.8344C43.1893 11.2344 43.0493 9.25442 42.0993 7.74442C41.6493 7.03442 41.0193 6.39442 40.2593 6.02442C39.8693 5.83442 39.2993 5.76442 38.9593 5.49442C38.6493 5.25442 38.6693 4.72442 38.6193 4.36442C37.9793 -0.205585 32.0293 -0.405584 28.5293 0.314416C26.3893 0.754416 24.3093 1.68442 22.5593 3.00442C21.6793 3.67442 20.8693 4.39442 20.2093 5.28442C19.8793 5.72442 19.6293 6.18442 19.4293 6.69442C19.2093 7.25442 19.1593 7.85442 18.9793 8.42442C18.6793 9.41442 17.7893 10.1144 17.2693 10.9844C16.6393 12.0444 16.5793 13.2244 17.1093 14.3344C17.6793 15.5344 18.7393 16.5344 19.5993 17.5444C20.6193 18.7444 21.6393 19.9444 22.6693 21.1444C23.1993 21.7644 24.0993 21.3444 24.3393 20.7044C25.2093 18.3544 26.0793 15.9944 26.9493 13.6444C27.3993 12.4344 25.4693 11.9144 25.0193 13.1144C24.1493 15.4644 23.2793 17.8244 22.4093 20.1744L24.0793 19.7344C22.5793 17.9744 21.0693 16.2344 19.5893 14.4644C19.1293 13.9044 18.5393 13.1844 18.7893 12.4144C19.0193 11.7244 19.6293 11.1544 20.0593 10.5844C20.5993 9.86442 20.8893 9.11442 21.0793 8.23442C21.2693 7.35442 21.6493 6.59442 22.2893 5.91442C23.5293 4.58442 25.1493 3.55442 26.8393 2.90442C28.5293 2.25442 30.3593 1.93442 32.1893 2.01442C33.5493 2.07442 35.2793 2.34442 36.1793 3.48442C36.6893 4.12442 36.5893 4.93442 36.7793 5.67442C37.0393 6.66442 37.7293 7.22442 38.6593 7.56442C39.8793 8.01442 40.6893 8.85442 40.8693 10.1844C41.0493 11.5144 40.3693 12.8344 39.0193 13.2144C37.6693 13.5944 36.1693 13.1544 35.4493 11.9744C34.8993 11.0744 33.6793 11.5244 33.5893 12.4744C33.4993 13.4244 33.2693 14.6844 32.4593 15.3644C31.6493 16.0444 30.7693 15.9544 30.1893 15.1244C29.5393 14.2044 29.1693 13.1944 28.1993 12.5444C27.2293 11.8944 26.0493 11.8344 25.0993 12.5944C24.6793 12.9244 24.7493 13.6544 25.0993 14.0044C25.5193 14.4244 26.0893 14.3444 26.5093 14.0044Z" fill="#191817"/>
<path d="M36.3393 14.8042C36.0593 16.9042 35.7793 18.9942 35.4993 21.0942C35.2493 22.8942 34.9793 24.7842 34.0693 26.3942C33.3393 27.6942 31.9993 28.9042 30.4393 28.9942C28.7193 29.0842 27.4193 27.7342 26.6093 26.3642C25.5093 24.5142 24.5793 22.3742 24.0093 20.2942C23.6693 19.0542 21.7393 19.5842 22.0793 20.8242C22.6693 22.9942 23.6493 25.2142 24.7693 27.1742C25.7693 28.9342 27.3393 30.5842 29.4293 30.9142C31.5193 31.2442 33.3893 30.3042 34.7293 28.8442C36.2093 27.2442 36.8593 25.1042 37.2093 22.9942C37.6693 20.2742 37.9693 17.5242 38.3293 14.7842C38.3993 14.2442 37.8193 13.7842 37.3293 13.7842C36.7293 13.7842 36.3993 14.2442 36.3293 14.7842L36.3393 14.8042Z" fill="#191817"/>
<path d="M65.0493 37.6348C65.9093 36.0548 67.2693 34.7848 68.9293 34.0748C69.2993 33.9148 69.6893 33.7948 70.0793 33.6948C70.3193 33.6348 70.5593 33.5748 70.7993 33.5448C70.8693 33.5448 71.1993 33.5448 71.2293 33.5248C70.8993 33.8648 70.9993 32.9348 71.0393 32.9148C70.9293 32.9548 70.7593 33.2248 70.6893 33.3148C70.3893 33.6848 70.1893 34.0848 70.1893 34.5748C70.1893 35.1548 70.6393 35.5148 71.1893 35.5748C72.6593 35.7348 74.0393 35.1748 75.3893 34.6848C76.0393 34.4448 76.7293 34.1848 77.4293 34.1348C77.7293 34.1148 78.0293 34.2148 78.3093 34.1948C78.3493 34.1948 78.3993 34.2148 78.4293 34.2348C78.3293 34.0248 78.2893 33.9948 78.3093 34.1448C78.2593 34.1848 78.2393 34.5748 78.2093 34.6648C77.9693 35.3948 77.4193 35.9748 76.8993 36.5148C76.3293 37.1148 75.7193 37.6748 75.0993 38.2148C73.8193 39.3048 72.4193 40.2248 70.9393 41.0148C69.8093 41.6248 70.8093 43.3548 71.9493 42.7448C73.7393 41.7848 75.4093 40.6248 76.9193 39.2748C78.4293 37.9248 80.1493 36.3948 80.2993 34.3348C80.4693 32.0248 77.8093 31.9248 76.1793 32.3248C74.5493 32.7248 72.9493 33.7648 71.1793 33.5748L72.1793 34.5748C72.1793 34.7248 72.2993 34.4948 72.3493 34.4348C72.5193 34.2448 72.6793 34.0548 72.7993 33.8248C73.0993 33.2448 73.0093 32.5248 72.5493 32.0448C71.6793 31.1448 70.0293 31.5948 68.9993 31.9248C66.5893 32.7048 64.5093 34.3948 63.3093 36.6248C62.6993 37.7548 64.4193 38.7648 65.0393 37.6348H65.0493Z" fill="#191817"/>
<path d="M42.7793 37.4545C41.9493 41.8545 40.2793 46.0545 39.7293 50.5145C39.1793 54.9745 40.3693 59.6545 41.7793 64.0445C42.1693 65.2645 44.0993 64.7445 43.7093 63.5145C42.3493 59.2845 41.1493 55.0145 41.7293 50.5345C42.3093 46.0545 43.9193 42.2145 44.7193 37.9845C44.9593 36.7245 43.0293 36.1845 42.7893 37.4545H42.7793Z" fill="#191817"/>
<path d="M35.4193 24.5748C36.3893 26.4748 36.7093 28.6048 36.8093 30.7148C36.9093 32.9948 36.8293 35.2948 36.7093 37.5748C36.4593 42.2348 35.8693 46.8848 34.9393 51.4548C34.4093 54.0848 33.7593 56.6848 33.0093 59.2548C32.6493 60.4948 34.5793 61.0248 34.9393 59.7848C36.2993 55.0948 37.3093 50.3148 37.9593 45.4748C38.6093 40.6348 38.9893 35.8448 38.8193 31.0348C38.7293 28.4548 38.3393 25.8848 37.1493 23.5548C36.5593 22.4048 34.8393 23.4148 35.4193 24.5648V24.5748Z" fill="#191817"/>
<path d="M30.6892 30.0249C30.5492 35.6249 30.4092 41.2349 30.4092 46.8449C30.4092 49.4949 30.3292 52.1849 30.7192 54.8249C31.0792 57.2649 32.0292 59.4849 33.5492 61.4349C35.1392 63.4849 37.1492 65.1149 39.2292 66.6349C39.6692 66.9549 40.3492 66.7049 40.5992 66.2749C40.8992 65.7649 40.6792 65.2249 40.2392 64.9049C38.5092 63.6449 36.8392 62.2749 35.4592 60.6349C33.9892 58.8949 33.0692 56.8749 32.6992 54.6249C32.2892 52.1549 32.4092 49.5849 32.4092 47.0949C32.4092 44.4349 32.4392 41.7749 32.4892 39.1249C32.5392 36.0949 32.6192 33.0649 32.6892 30.0349C32.7192 28.7449 30.7192 28.7449 30.6892 30.0349V30.0249Z" fill="#191817"/>
<path d="M23.9793 32.8044C24.4093 33.8244 24.8493 34.8344 25.2893 35.8544C25.7293 36.8744 26.0993 37.8244 26.5693 38.7644C26.8193 39.2644 27.2393 39.6844 27.7893 39.8444C28.3393 40.0044 28.9493 39.8844 29.4693 39.6444C30.3893 39.2244 31.1093 38.4044 31.6993 37.6144C32.0093 37.1944 31.7793 36.4744 31.3393 36.2444C30.8193 35.9644 30.3093 36.1544 29.9693 36.6044C30.0393 36.5044 29.8493 36.7444 29.8593 36.7444C29.7993 36.8144 29.7393 36.8844 29.6793 36.9444C29.5493 37.0944 29.4093 37.2344 29.2593 37.3644C29.1793 37.4344 29.0993 37.5044 29.0193 37.5744L28.9393 37.6444C28.9893 37.6044 28.9893 37.6044 28.9393 37.6444C28.8693 37.6944 28.7993 37.7344 28.7293 37.7844C28.7293 37.7844 28.4493 37.9244 28.6093 37.8544C28.5293 37.8844 28.4493 37.8944 28.3793 37.9244C28.2593 37.9644 28.5093 37.8844 28.3193 37.9244C28.4193 37.9444 28.4393 37.9444 28.3593 37.9244C28.2893 37.9044 28.2993 37.9144 28.3893 37.9444C28.5193 38.0344 28.3393 37.8744 28.3893 37.9444C28.4493 38.0344 28.3193 37.8244 28.3093 37.8044C28.2593 37.7144 28.2293 37.6244 28.1893 37.5344C28.0893 37.3244 27.9993 37.1044 27.9093 36.8944C27.1593 35.2044 26.4293 33.5044 25.7093 31.8044C25.4993 31.3044 24.7693 31.1944 24.3393 31.4444C23.8293 31.7444 23.7693 32.3144 23.9793 32.8144V32.8044Z" fill="#191817"/>
<path d="M22.5592 23.2041C23.9192 33.5041 24.3992 43.9241 23.9792 54.3041C23.8692 56.9741 23.9492 59.9041 22.8592 62.4041C22.6392 62.8941 22.7092 63.4741 23.2192 63.7741C23.6392 64.0241 24.3692 63.9141 24.5892 63.4141C25.5992 61.1041 25.7692 58.6341 25.8992 56.1441C26.0392 53.4841 26.1092 50.8341 26.1292 48.1741C26.1692 42.8541 25.9692 37.5341 25.5292 32.2341C25.2792 29.2141 24.9592 26.2041 24.5592 23.2041C24.4892 22.6641 24.1492 22.2041 23.5592 22.2041C23.0692 22.2041 22.4892 22.6641 22.5592 23.2041Z" fill="#191817"/>
<path d="M22.5393 19.0439C18.2993 20.3839 14.0493 21.6939 9.81932 23.0739C7.91932 23.6939 6.32932 24.6339 5.32932 26.4239C4.32932 28.2139 3.97932 30.1339 3.76932 32.0739C3.53932 34.2039 3.60932 36.3539 3.67932 38.4839C3.74932 40.6139 3.83932 42.9239 3.90932 45.1339C3.97932 47.3439 4.06932 49.5739 4.13932 51.7939C4.20932 53.8939 4.23932 56.0339 4.68932 58.0939C5.64932 62.4339 8.98932 65.1839 12.4193 67.6639C12.7493 67.9039 13.3693 67.8239 13.6293 67.5039C15.2793 65.5539 17.2193 64.0739 19.4393 62.8439C20.5793 62.2139 21.2993 61.2439 20.8993 59.9039C20.5793 58.8539 19.9693 57.9239 19.2893 57.0639C18.0293 55.4739 16.3193 54.1539 15.4493 52.2739C14.9093 51.1039 14.8593 49.7739 14.8693 48.5039C14.8693 47.0539 14.9093 45.6039 14.8993 44.1539C14.8893 40.8239 14.7593 37.4839 14.5393 34.1639C14.4493 32.8839 12.4493 32.8739 12.5393 34.1639C12.7293 37.0439 12.8493 39.9139 12.8893 42.8039C12.9093 44.2039 12.9093 45.6039 12.8893 47.0039C12.8693 48.4039 12.8293 49.6939 13.0293 51.0339C13.3693 53.3039 14.7093 55.0039 16.2293 56.6439C16.9093 57.3739 17.6193 58.0939 18.1793 58.9239C18.4393 59.3039 18.6793 59.7039 18.8493 60.1239C19.0693 60.6639 19.0793 60.7539 18.5793 61.0439C17.4293 61.7239 16.2993 62.3639 15.2393 63.1939C14.1293 64.0639 13.1193 65.0339 12.2093 66.1139L13.4193 65.9539C10.7393 64.0239 7.87932 61.8539 6.85932 58.5539C6.29932 56.7339 6.22932 54.8139 6.16932 52.9239C6.09932 50.8239 6.01932 48.7339 5.94932 46.6339C5.80932 42.5439 5.49932 38.4239 5.60932 34.3339C5.69932 31.0939 6.08932 26.5839 9.60932 25.2639C11.7593 24.4539 13.9993 23.8439 16.1893 23.1539L23.0493 20.9739C24.2693 20.5839 23.7493 18.6539 22.5193 19.0439H22.5393Z" fill="#191817"/>
<path d="M17.7693 21.5741C18.4593 32.1441 19.3693 42.7041 20.5093 53.2441C20.8293 56.2041 21.1693 59.1641 21.5193 62.1241C21.5793 62.6641 21.9293 63.1241 22.5193 63.1241C23.0093 63.1241 23.5793 62.6641 23.5193 62.1241C22.2593 51.6041 21.2193 41.0541 20.3993 30.4941C20.1693 27.5241 19.9593 24.5541 19.7693 21.5741C19.6893 20.2941 17.6893 20.2841 17.7693 21.5741Z" fill="#191817"/>
<path d="M13.4993 66.8741C15.2493 67.7241 16.8993 68.7741 18.3693 70.0541C19.9193 71.4041 21.2693 72.7841 23.2093 73.5841C24.0993 73.9541 25.0293 74.2041 25.9693 74.4241C26.9093 74.6441 27.8593 74.9241 28.8193 74.8241C30.8093 74.6141 31.8493 72.7441 31.5593 70.8741C31.3893 69.7441 30.7993 68.7241 30.1993 67.7741C29.5993 66.8241 28.8593 65.8541 28.0893 64.9741L27.3793 66.6841C27.9393 66.6341 28.4893 66.5741 29.0493 66.5241C29.5393 66.4741 30.1093 66.1041 30.0493 65.5241C29.8193 63.4141 27.1493 63.0341 25.4793 62.5541C23.3593 61.9441 21.1993 61.4841 19.0093 61.1541C18.4793 61.0741 17.9293 61.2841 17.7793 61.8541C17.6493 62.3241 17.9393 63.0041 18.4793 63.0841C20.2693 63.3541 22.0493 63.7141 23.8093 64.1741C24.6493 64.3941 25.4793 64.6341 26.3093 64.8941C26.7393 65.0241 27.1793 65.1441 27.5893 65.3141C27.7093 65.3641 28.0593 65.6241 28.0493 65.5241L29.0493 64.5241C28.4893 64.5741 27.9393 64.6341 27.3793 64.6841C26.5093 64.7641 26.0693 65.7141 26.6693 66.3941C27.4093 67.2341 28.0693 68.1241 28.6493 69.0741C29.1193 69.8441 29.7093 70.7741 29.6193 71.7041C29.5293 72.6341 28.8693 72.9341 27.9993 72.8241C27.0093 72.7041 25.9993 72.4041 25.0493 72.1141C24.0993 71.8241 23.1293 71.4341 22.2893 70.8441C21.4493 70.2541 20.6793 69.4241 19.8693 68.7141C18.2493 67.2941 16.4493 66.0941 14.5093 65.1541C13.3593 64.5941 12.3393 66.3141 13.4993 66.8841V66.8741Z" fill="#191817"/>
<path d="M39.5493 66.8441C43.4493 66.2541 46.3592 63.0141 50.2492 62.4941C52.5092 62.1941 54.9792 62.7441 57.1292 63.4341C58.9992 64.0341 60.2692 65.2141 61.0192 67.0241C61.8092 68.9341 62.1092 71.0641 62.4892 73.0941C62.9492 75.5341 63.3692 77.9841 63.7492 80.4341C64.4992 85.2941 65.0693 90.1841 65.4693 95.0841C65.9193 100.604 66.1493 106.144 66.1793 111.674C66.1793 112.964 68.1893 112.964 68.1793 111.674C68.1393 101.364 67.3492 91.0641 65.8292 80.8641C65.4492 78.3241 65.0292 75.7941 64.5592 73.2741C64.1592 71.0941 63.8292 68.8341 63.0492 66.7541C62.3192 64.8141 61.1392 63.0741 59.2292 62.1241C58.2292 61.6241 57.1593 61.3241 56.0693 61.0741C54.8193 60.7841 53.5392 60.5341 52.2492 60.4441C49.7092 60.2741 47.4493 61.0541 45.2293 62.2341C43.2293 63.3041 41.2892 64.5641 38.9992 64.9141C38.4692 64.9941 38.1692 65.6641 38.2992 66.1441C38.4592 66.7141 38.9892 66.9241 39.5292 66.8441H39.5493Z" fill="#191817"/>
<path d="M4.18928 43.9843C3.91928 49.1143 2.66928 54.0943 1.60928 59.1043C0.54928 64.1143 -0.23072 69.4443 0.07928 74.7543C0.25928 77.8443 0.67928 80.9143 1.08928 83.9743C1.18928 84.7543 2.27928 84.8843 2.75928 84.4143C5.33928 81.8843 6.33928 78.3743 6.94928 74.9143C7.25928 73.1743 7.49928 71.4143 7.83928 69.6843C8.07928 68.4543 8.59928 65.3243 10.5293 66.0743C11.0293 66.2743 11.6293 65.8543 11.7593 65.3743C11.9193 64.8043 11.5693 64.3443 11.0593 64.1443C8.81928 63.2743 6.98928 65.3043 6.36928 67.2343C5.77928 69.0543 5.57928 71.0143 5.26928 72.8843C4.68928 76.4643 4.03928 80.3443 1.33928 83.0043L3.00928 83.4443C2.29928 78.1543 1.65928 72.8543 2.19928 67.5143C2.70928 62.4543 4.05928 57.5243 5.03928 52.5443C5.59928 49.7143 6.03928 46.8643 6.18928 43.9843C6.25928 42.6943 4.25928 42.7043 4.18928 43.9843Z" fill="#191817"/>
<path d="M4.87928 73.404C6.11928 81.894 7.34928 90.384 8.58928 98.874C9.20928 103.124 9.82928 107.364 10.4393 111.614L11.3593 117.924C11.5093 118.944 11.6093 119.994 11.8093 121.004C11.9893 121.894 12.4693 122.674 13.3493 123.004C14.3193 123.374 15.5193 123.284 16.5393 123.314C17.6893 123.344 18.8293 123.354 19.9793 123.334C22.3993 123.284 24.8093 123.114 27.2093 122.834C27.8493 122.754 28.3493 122.254 28.1693 121.564C27.1793 117.774 25.5393 114.154 23.3093 110.934C22.5793 109.884 20.8493 110.884 21.5793 111.944C23.7193 115.034 25.2893 118.454 26.2393 122.094L27.1993 120.824C23.1293 121.304 19.0293 121.454 14.9393 121.244C14.6693 121.234 14.1793 121.274 13.9493 121.084C13.7593 120.914 13.7393 120.504 13.6993 120.284C13.5193 119.244 13.3893 118.184 13.2393 117.134L12.3793 111.194L8.81928 86.714L6.79928 72.864C6.71928 72.334 6.03928 72.034 5.56928 72.164C4.99928 72.324 4.78928 72.854 4.86928 73.394L4.87928 73.404Z" fill="#191817"/>
<path d="M12.3193 115.275L17.2893 113.825C18.0993 113.585 18.9093 113.345 19.7293 113.115C20.4893 112.895 21.2193 112.685 22.0193 112.785C22.5593 112.855 23.0193 112.275 23.0193 111.785C23.0193 111.185 22.5593 110.855 22.0193 110.785C21.1593 110.665 20.2893 110.865 19.4693 111.105C18.6493 111.345 17.7893 111.595 16.9493 111.835L11.7893 113.345C10.5593 113.705 11.0793 115.635 12.3193 115.275Z" fill="#191817"/>
<path d="M23.7292 111.864C22.5292 101.724 22.0992 91.4941 22.4692 81.2941C22.5692 78.4141 22.7392 75.5341 22.9692 72.6641C23.0692 71.3841 21.0692 71.3841 20.9692 72.6641C20.1692 82.8441 20.1392 93.0841 20.8992 103.264C21.1192 106.134 21.3892 109.004 21.7292 111.864C21.7892 112.404 22.1392 112.864 22.7292 112.864C23.2192 112.864 23.7892 112.404 23.7292 111.864Z" fill="#191817"/>
<path d="M21.5693 84.7642C31.5993 83.7842 41.5493 82.0742 51.3293 79.6442C52.5793 79.3342 52.0493 77.4042 50.7993 77.7142C41.1893 80.1042 31.4193 81.7942 21.5693 82.7642C21.0293 82.8142 20.5693 83.1842 20.5693 83.7642C20.5693 84.2642 21.0293 84.8142 21.5693 84.7642Z" fill="#191817"/>
<path d="M49.9992 78.3242C51.2192 89.3542 52.0692 100.424 52.5592 111.514C52.6992 114.654 52.7992 117.804 52.8792 120.954C52.9092 122.234 54.9092 122.244 54.8792 120.954C54.5992 109.854 53.9592 98.7742 52.9492 87.7142C52.6592 84.5842 52.3492 81.4442 51.9992 78.3242C51.9392 77.7842 51.5792 77.3242 50.9992 77.3242C50.5092 77.3242 49.9392 77.7842 49.9992 78.3242Z" fill="#191817"/>
<path d="M52.9893 122.334C56.1393 122.544 59.2993 122.624 62.4593 122.544C64.0193 122.504 65.5793 122.434 67.1293 122.324C67.8693 122.274 68.5993 122.214 69.3393 122.144C70.0193 122.084 70.8593 122.114 71.4593 121.754C72.7893 120.954 72.0093 119.064 71.6093 117.954C71.0893 116.504 70.3893 115.154 69.5893 113.844C68.2293 111.624 66.7593 109.304 63.9893 108.834C62.4193 108.564 60.8193 108.784 59.2593 109.014C57.5593 109.254 55.8893 109.624 54.2393 110.094C52.9993 110.444 53.5293 112.374 54.7693 112.024C56.6293 111.494 58.5293 111.084 60.4493 110.854C62.0793 110.664 63.9493 110.454 65.3393 111.524C66.6093 112.504 67.4393 114.114 68.2393 115.464C68.7093 116.264 69.1393 117.084 69.4893 117.944C69.6593 118.374 69.8093 118.804 69.9393 119.244C70.0393 119.584 70.2993 120.114 70.1693 120.454L70.4293 120.014C70.4293 120.014 70.5693 120.074 70.3293 120.054C70.1793 120.044 69.9893 120.084 69.8393 120.104C69.4693 120.144 69.0993 120.174 68.7393 120.204C67.9993 120.264 67.2693 120.324 66.5293 120.374C65.0093 120.474 63.4993 120.534 61.9793 120.564C58.9793 120.624 55.9893 120.544 52.9993 120.344C51.7193 120.254 51.7193 122.254 52.9993 122.344L52.9893 122.334Z" fill="#191817"/>
<path d="M30.2593 69.784C33.7193 68.704 37.1193 67.424 40.4493 65.994C40.9493 65.784 41.0593 65.054 40.8093 64.624C40.5093 64.114 39.9393 64.054 39.4393 64.264C36.2693 65.634 33.0293 66.824 29.7293 67.854C28.5093 68.234 29.0293 70.164 30.2593 69.784Z" fill="#191817"/>
<path d="M36.1093 24.7347C42.0293 24.2947 46.4993 29.4347 48.5193 34.4547C49.7693 37.5547 50.4593 40.8247 51.2393 44.0647C51.4293 44.8547 51.6293 45.6547 51.8393 46.4447C52.0293 47.1747 52.1693 48.1047 52.9093 48.5147C53.7193 48.9647 54.4993 48.5147 55.1593 48.0247C55.8693 47.5047 56.5693 46.9647 57.2493 46.4147C60.1193 44.0747 62.6693 41.3847 64.9193 38.4347C65.2493 38.0047 64.9893 37.3147 64.5593 37.0647C64.0493 36.7647 63.5193 36.9947 63.1893 37.4247C61.2693 39.9447 59.0693 42.2447 56.6693 44.3047C56.0793 44.8147 55.4693 45.3047 54.8493 45.7847C54.5593 46.0047 54.2693 46.2247 53.9793 46.4347L53.7993 46.5647C53.5693 46.6447 53.5793 46.7247 53.8393 46.8047C54.2393 47.1347 53.9393 46.5447 53.8893 46.3647C53.4593 44.7847 53.0893 43.1947 52.7093 41.6047C51.3193 35.7647 49.5493 29.6147 44.6493 25.7147C42.2193 23.7747 39.2593 22.5347 36.1093 22.7647C34.8293 22.8547 34.8193 24.8647 36.1093 24.7647V24.7347Z" fill="#191817"/>
<path d="M63.7993 38.5042C66.6793 39.2942 69.1893 41.1942 70.7093 43.7542C71.3693 44.8642 73.0993 43.8542 72.4393 42.7442C70.6493 39.7342 67.7093 37.4942 64.3293 36.5742C63.0893 36.2342 62.5593 38.1642 63.7993 38.5042Z" fill="#191817"/>
<path d="M40.2793 47.9945C43.9193 51.7545 45.3793 57.9845 50.9593 59.5845C56.5393 61.1845 60.9993 55.5645 64.3393 51.9245C66.7993 49.2445 69.2293 46.5245 71.6093 43.7745C72.4493 42.8045 71.0393 41.3845 70.1993 42.3645C68.2093 44.6545 66.1993 46.9245 64.1593 49.1645C62.2993 51.2145 60.4693 53.3545 58.4193 55.2145C56.7493 56.7245 54.5993 58.1445 52.2393 57.8245C49.8793 57.5045 48.0793 55.6845 46.7793 53.8845C45.0493 51.4745 43.7893 48.7445 41.7093 46.5945C40.8093 45.6645 39.3993 47.0845 40.2993 48.0045L40.2793 47.9945Z" fill="#191817"/>
</svg>
