<svg width="119" height="125" viewBox="0 0 119 125" fill="none" xmlns="http://www.w3.org/2000/svg">
<path d="M110.377 115.481C110.497 115.281 110.547 115.031 110.457 114.731C109.647 111.871 108.957 108.991 108.317 106.091C107.767 102.181 107.207 98.2807 106.657 94.3707C106.187 88.7407 105.417 83.1407 104.357 77.6007C104.477 77.3207 104.547 77.0107 104.547 76.6807C104.547 76.3607 104.527 76.0407 104.477 75.7107C104.427 75.1107 104.347 74.5207 104.217 73.9307C104.137 73.5707 104.027 73.2207 103.907 72.8707C103.907 72.8607 103.907 72.8507 103.897 72.8307C103.857 72.7007 103.817 72.5707 103.767 72.4407C103.687 72.1907 103.587 71.9507 103.487 71.7107C103.017 68.1707 101.127 64.9207 98.147 62.8207C98.357 62.6707 98.547 62.5107 98.727 62.3307C98.957 62.0907 99.137 61.8207 99.287 61.5307C99.797 60.9807 100.077 60.3107 100.157 59.5807C100.387 58.5707 100.257 57.4907 99.827 56.5107C99.827 56.4907 99.827 56.4707 99.827 56.4507C99.897 56.0807 99.907 55.6907 99.827 55.3007C99.727 54.7907 99.607 54.2807 99.497 53.7707C99.427 53.3107 99.347 52.8907 99.287 52.5407C98.717 49.3307 97.747 46.2107 96.697 43.1307C96.957 42.6107 97.047 42.0107 96.827 41.4607C96.467 40.5307 96.087 39.6007 95.707 38.6707C95.427 37.8307 95.087 37.0107 94.707 36.2007C94.667 36.1207 94.617 36.0607 94.577 35.9907C94.337 35.1907 94.087 34.4007 93.787 33.6207C92.977 31.4907 92.057 29.2307 90.677 27.3907C89.227 25.4807 87.187 24.5207 84.867 24.1207C82.467 23.7007 80.047 23.3907 77.647 23.0407C77.057 22.9507 76.477 23.0207 75.957 23.2307C75.967 22.4707 75.877 21.6907 75.787 20.9407C75.877 20.8307 75.947 20.7307 76.027 20.6207C76.027 20.6107 76.037 20.6007 76.047 20.5907C77.287 18.9007 77.657 16.9807 77.237 15.0207C77.217 14.3807 77.177 13.7407 77.127 13.1207C77.077 12.5407 77.007 11.9507 76.937 11.3707C77.427 8.88069 77.087 6.32069 75.877 3.95069C75.447 3.11069 74.747 2.74069 74.027 2.71069C73.867 2.55069 73.707 2.39069 73.517 2.26069C72.387 1.45069 71.067 1.27069 69.707 1.24069C69.487 1.18069 69.267 1.13069 69.047 1.09069C65.687 0.510686 61.897 1.88069 60.357 5.09069C60.347 5.11069 60.337 5.14069 60.327 5.16069C58.827 7.46069 58.217 10.3607 59.687 12.1307C59.637 14.5407 59.757 16.9507 60.067 19.3507C60.157 20.0607 60.277 20.7807 60.397 21.4907C56.547 20.6507 52.677 21.8507 48.987 23.3707C48.987 23.3707 48.987 23.3807 48.987 23.3907C48.787 23.4707 48.587 23.5407 48.387 23.6307C47.987 23.8007 47.697 24.1107 47.497 24.4907C47.377 24.5107 47.257 24.5407 47.137 24.5707C38.497 25.1007 29.887 26.0207 21.327 27.3507C20.807 27.4307 20.387 27.7307 20.077 28.1407L17.647 28.1007C17.337 28.1007 17.067 28.1507 16.827 28.2207C16.787 28.0807 16.687 27.9507 16.497 27.8907C14.907 27.4107 13.277 27.1007 11.637 26.9507C10.637 26.7707 9.62703 26.6507 8.60703 26.6307C8.40703 26.6307 8.26703 26.7407 8.18703 26.8907C7.92703 26.9007 7.67703 26.8907 7.41703 26.9207C7.15703 26.9407 6.90703 27.1307 6.91703 27.4207C6.93703 27.8207 7.05703 28.2007 7.24703 28.5407C7.08703 28.8807 6.98703 29.2407 6.97703 29.6207C7.02703 29.9707 7.05703 30.3207 7.15703 30.6607C6.05703 31.2107 4.95703 31.7707 3.86703 32.3307C2.60703 32.9807 1.48703 34.0707 1.56703 35.6007C1.63703 37.2007 2.85703 38.3907 4.41703 38.6007C5.50703 38.7507 6.59703 38.5207 7.66703 38.3007C8.65703 38.1007 9.62703 37.8407 10.587 37.5207C12.197 36.9807 13.767 36.2907 15.247 35.4707C16.817 35.2007 18.337 34.6907 19.777 33.9607C20.307 33.9807 20.847 33.9907 21.377 34.0007C21.587 34.0707 21.817 34.1207 22.047 34.1507C28.227 34.9407 34.447 35.0907 40.657 34.6107C41.177 34.9807 41.867 35.1507 42.697 34.9607C44.177 34.6107 45.657 34.2607 47.147 33.9107C47.447 35.6107 49.327 36.2307 50.847 35.5807C51.477 35.3107 52.117 35.0707 52.757 34.8307C54.067 34.8407 55.377 34.8207 56.687 34.7507C56.817 35.4207 56.947 36.0907 57.077 36.7607C57.017 37.0807 57.017 37.4207 57.087 37.7907C57.347 39.0407 57.627 40.2807 57.907 41.5207C57.477 42.1207 57.277 42.8807 57.537 43.5907C58.867 47.3007 60.007 51.0707 60.977 54.8807C61.007 56.1907 60.987 57.5007 60.927 58.8007C60.927 58.8507 60.927 58.9107 60.917 58.9607C59.887 58.9607 58.907 59.1707 58.017 59.5907C56.787 59.6907 55.517 60.1707 54.627 60.7707C54.147 61.1007 53.727 61.5407 53.407 62.0407C52.827 62.5607 52.337 63.2007 51.987 63.9507C50.907 66.2207 51.097 68.7507 51.167 71.1907C51.217 72.8807 51.257 74.5707 51.307 76.2707C51.057 80.1907 50.857 84.1207 50.717 88.0407C50.517 90.1807 50.337 92.3107 50.197 94.4507C49.647 97.7107 49.257 100.981 49.297 104.301C49.297 104.351 49.307 104.381 49.317 104.421C49.277 104.811 49.237 105.201 49.207 105.591C49.087 105.671 48.997 105.791 48.987 105.991L48.967 107.361C48.917 107.761 48.837 108.161 48.707 108.561C48.637 108.791 48.797 109.141 49.057 109.181C49.477 109.241 49.887 109.301 50.307 109.361C50.347 109.531 50.377 109.711 50.397 109.881C50.357 109.931 50.327 109.991 50.297 110.061C49.837 111.501 49.297 112.921 48.717 114.311C48.627 114.351 48.547 114.401 48.487 114.511C48.047 115.271 47.637 116.051 47.237 116.831C47.087 117.131 46.937 117.421 46.787 117.721C46.577 118.161 46.367 118.611 46.167 119.061C45.997 119.441 45.807 119.801 45.647 120.181C45.367 120.851 44.727 121.851 45.137 122.581C45.517 123.261 46.647 123.391 47.337 123.501C49.317 123.811 51.357 123.611 53.357 123.521C54.327 123.481 55.307 123.431 56.277 123.391C56.287 123.391 56.297 123.401 56.307 123.411C57.427 123.841 58.647 124.221 59.807 123.691C59.817 123.691 59.827 123.681 59.837 123.671L60.007 123.711C60.637 123.851 61.257 123.401 61.277 122.781C61.357 122.701 61.407 122.591 61.407 122.431C61.287 118.581 61.157 114.731 61.037 110.881C61.427 103.751 61.537 96.6107 61.327 89.4707C61.327 89.3907 61.307 89.3307 61.297 89.2607C61.527 84.7507 61.757 80.2407 61.997 75.7407C62.947 75.8307 63.887 75.8907 64.837 75.9307C64.767 76.1507 64.727 76.3707 64.707 76.6007C64.637 76.6807 64.557 76.7607 64.497 76.8507C64.167 77.3407 64.077 77.8807 64.177 78.3907C64.127 78.7607 64.177 79.1507 64.337 79.4907C64.637 80.1307 65.297 80.4107 65.967 80.4407C66.297 80.4607 66.637 80.4107 66.967 80.3407C67.067 80.3707 67.167 80.3907 67.267 80.3807C68.377 80.2607 69.317 79.7507 70.047 78.9507C70.637 78.5107 71.077 77.8807 71.327 77.1907C71.337 77.1507 71.347 77.1107 71.357 77.0707C77.207 76.9207 83.037 76.6207 88.867 76.1507C89.657 76.2007 90.457 76.2507 91.247 76.2807C91.437 76.8907 91.617 77.5107 91.807 78.1207C92.537 81.4507 93.257 84.7807 93.987 88.1007C93.967 88.2107 93.957 88.3307 93.977 88.4607C94.997 94.7907 96.177 101.101 97.497 107.381C97.577 108.311 97.667 109.241 97.777 110.161C97.747 110.291 97.747 110.421 97.777 110.571C97.837 110.931 97.907 111.301 97.967 111.661C98.227 113.531 98.567 115.391 98.957 117.241C99.017 117.581 99.077 117.921 99.137 118.251C99.057 118.391 98.997 118.551 98.997 118.751C98.997 119.501 99.157 120.151 99.447 120.771C99.477 121.001 99.527 121.221 99.547 121.451C99.547 121.471 99.547 121.481 99.557 121.491C99.497 121.711 99.527 121.951 99.627 122.161C99.657 122.671 100.097 123.211 100.637 123.241C105.897 123.571 111.167 123.411 116.397 122.771C117.147 122.681 117.847 121.681 117.107 121.061C114.867 119.201 112.637 117.351 110.397 115.491L110.377 115.481ZM90.017 68.2207C90.017 68.2207 90.007 68.2207 89.997 68.2207C89.997 68.2207 90.007 68.2207 90.017 68.2207ZM55.167 119.081C55.227 119.191 55.297 119.281 55.377 119.351C55.287 119.411 55.207 119.491 55.127 119.561C55.147 119.401 55.157 119.241 55.167 119.081ZM56.987 118.331C56.937 118.051 56.887 117.771 56.837 117.491C56.847 117.511 56.867 117.541 56.877 117.561C56.997 117.941 57.117 118.321 57.237 118.701C57.147 118.701 57.067 118.711 56.987 118.721C57.007 118.601 57.017 118.471 56.987 118.331ZM97.967 96.1207V96.1507C97.967 96.1507 97.967 96.1307 97.967 96.1207ZM105.077 99.8807C105.047 99.7907 105.007 99.7407 104.967 99.6707C104.887 99.1207 104.817 98.5707 104.737 98.0307C104.747 98.0007 104.767 97.9807 104.777 97.9507C104.887 98.6407 104.997 99.3207 105.117 100.011C105.107 99.9707 105.097 99.9307 105.087 99.8907L105.077 99.8807ZM104.097 93.3207C104.047 92.9607 103.997 92.6107 103.947 92.2507C103.947 92.2507 103.957 92.2507 103.967 92.2507C104.027 92.6407 104.087 93.0307 104.157 93.4207C104.157 93.4707 104.137 93.5207 104.147 93.5707C104.127 93.4907 104.117 93.4007 104.097 93.3207ZM101.267 118.151C101.267 118.151 101.287 118.201 101.287 118.221C101.247 118.241 101.197 118.251 101.157 118.271C101.137 118.181 101.127 118.091 101.107 118.001C101.107 117.961 101.107 117.921 101.107 117.881C101.147 117.981 101.197 118.071 101.267 118.141V118.151ZM90.647 74.0007C90.857 73.9707 91.047 73.9207 91.237 73.8507C91.267 73.9807 91.307 74.1207 91.337 74.2507C91.317 74.2507 91.287 74.2507 91.267 74.2507C91.127 74.1007 90.917 74.0107 90.647 74.0007ZM51.397 109.881C51.397 109.881 51.447 109.821 51.457 109.781C51.467 109.751 51.477 109.711 51.497 109.681C51.467 109.781 51.437 109.881 51.417 109.991C51.417 109.961 51.407 109.921 51.407 109.891L51.397 109.881ZM49.947 108.201C49.947 108.201 49.967 108.251 49.977 108.271C49.977 108.271 49.977 108.281 49.977 108.291H49.927C49.927 108.291 49.947 108.231 49.947 108.201ZM111.017 121.121C111.217 121.141 111.417 121.161 111.617 121.181C111.417 121.191 111.207 121.201 111.007 121.211C111.007 121.181 111.007 121.151 111.007 121.121H111.017ZM6.10703 36.7807C6.03703 36.8507 5.92703 36.8607 6.10703 36.7807Z" fill="#673B82"/>
<path d="M58.367 10.5712C58.587 15.2312 59.137 19.8812 60.027 24.4612C60.407 26.4112 60.957 28.3212 62.627 29.5512C64.117 30.6512 66.137 30.8912 67.847 30.1912C69.777 29.3912 71.087 27.6312 71.727 25.6912C72.137 24.4712 70.207 23.9412 69.797 25.1612C69.267 26.7512 68.007 28.3512 66.237 28.5812C65.347 28.7012 64.397 28.4112 63.687 27.8712C62.897 27.2712 62.517 26.3412 62.267 25.4112C61.637 23.0512 61.317 20.5612 61.007 18.1412C60.697 15.7212 60.477 13.1012 60.357 10.5712C60.297 9.29118 58.297 9.28118 58.357 10.5712H58.367Z" fill="#191817"/>
<path d="M62.0269 22.5715C61.9269 22.1615 62.7769 22.2015 62.9869 22.2415C63.7769 22.3915 64.4769 22.8415 65.2569 23.0315C66.7269 23.3815 68.3269 22.9615 69.4069 21.9015C69.7969 21.5215 70.0669 20.8015 70.5669 20.5615C70.5169 20.5915 70.4869 20.5215 70.4669 20.5015C70.5369 20.5815 70.5569 20.7515 70.5669 20.8615C70.5969 21.1015 70.5669 21.3915 70.5469 21.6415C70.4369 23.3115 69.9969 24.9715 69.2869 26.4915C69.0569 26.9815 69.1469 27.5715 69.6469 27.8615C70.0769 28.1115 70.7869 27.9915 71.0169 27.5015C71.7669 25.9015 72.2469 24.2515 72.4669 22.5015C72.6369 21.1715 72.7769 19.1515 71.1469 18.6515C70.3269 18.3915 69.4569 18.7715 68.8869 19.3715C68.4069 19.8815 68.1369 20.4915 67.5169 20.8515C66.1369 21.6415 64.9569 20.6615 63.6169 20.3415C62.7169 20.1215 61.7369 20.1615 60.9769 20.7415C60.2169 21.3215 59.8769 22.2015 60.0969 23.1115C60.4069 24.3615 62.3369 23.8315 62.0269 22.5815V22.5715Z" fill="#191817"/>
<path d="M75.117 18.0114C75.167 17.6114 75.197 17.1614 75.397 16.7114C75.447 16.6014 75.537 16.4714 75.647 16.3514C75.777 16.2014 75.557 16.3814 75.737 16.2814C75.777 16.2614 75.987 16.1614 75.827 16.2214C75.887 16.2014 76.217 16.1614 75.997 16.1614H76.087C76.207 16.1614 76.207 16.1614 76.087 16.1614C76.187 16.1914 76.197 16.1914 76.137 16.1614C76.077 16.1314 76.087 16.1414 76.177 16.1914C76.067 16.0214 76.267 16.3014 76.157 16.1514C76.197 16.2014 76.227 16.2614 76.247 16.3114C76.207 16.2214 76.207 16.2214 76.247 16.3414C76.247 16.3814 76.307 16.6514 76.287 16.4614C76.317 16.6714 76.307 16.8914 76.287 17.1114C76.287 17.1614 76.287 17.2114 76.267 17.2714C76.277 17.1814 76.277 17.2014 76.267 17.3214C76.247 17.4314 76.227 17.5314 76.207 17.6414C76.157 17.8714 76.097 18.0914 76.027 18.3214C75.877 18.8014 75.787 19.0114 75.537 19.4614C75.427 19.6614 75.307 19.8614 75.167 20.0514C75.107 20.1414 75.047 20.2314 74.977 20.3114C75.047 20.2214 74.857 20.4614 74.827 20.4814C74.677 20.6614 74.517 20.8314 74.347 20.9914C74.267 21.0614 74.187 21.1414 74.107 21.2114C74.077 21.2414 73.817 21.4514 73.887 21.3914C73.457 21.7214 73.237 22.2514 73.527 22.7614C73.777 23.1814 74.467 23.4514 74.897 23.1214C76.547 21.8714 77.767 20.0714 78.147 18.0114C78.347 16.9414 78.407 15.7414 77.647 14.8714C76.887 14.0014 75.577 13.9914 74.677 14.5914C73.507 15.3714 73.257 16.7214 73.107 18.0214C73.047 18.5614 73.607 19.0214 74.107 19.0214C74.697 19.0214 75.047 18.5614 75.107 18.0214L75.117 18.0114Z" fill="#191817"/>
<path d="M60.7471 10.0415C60.1571 8.08146 60.4871 5.90146 61.8071 4.30146C63.1271 2.70146 65.0471 1.99146 67.0971 1.99146C69.1471 1.99146 71.4571 2.18146 73.1971 3.28146C74.8171 4.30146 75.4571 6.21146 75.7471 8.01146C76.1571 10.5315 76.0371 13.1915 75.8271 15.7215C75.7171 17.0015 77.7171 17.0015 77.8271 15.7215C78.0471 13.0515 78.1071 10.3215 77.7071 7.66146C77.3671 5.39146 76.4571 3.16146 74.5371 1.77146C72.5171 0.331459 69.7371 0.0414595 67.3271 0.00145952C64.9171 -0.0385405 62.3871 0.741459 60.6471 2.61146C58.6671 4.74146 57.9871 7.80146 58.8271 10.5715C59.1971 11.8015 61.1271 11.2815 60.7571 10.0415H60.7471Z" fill="#191817"/>
<path d="M59.9071 11.6415C63.0271 11.8315 66.1371 12.2115 69.2071 12.8115C69.8071 12.9315 70.6571 12.9615 71.1771 13.3015C71.6571 13.6115 71.8471 14.3915 71.9971 14.9015C72.4271 16.2915 72.5471 17.7515 72.6671 19.1915C72.7371 20.0015 73.7371 20.5815 74.3771 19.9015C75.1371 19.0915 75.4271 17.9715 75.0671 16.9015C74.6471 15.6915 72.7171 16.2115 73.1371 17.4315C73.2671 17.8215 73.2571 18.1715 72.9671 18.4815L74.6771 19.1915C74.5371 17.5415 74.4071 15.8515 73.8971 14.2615C73.6571 13.5015 73.3671 12.7215 72.8371 12.1115C72.3071 11.5015 71.4971 11.2315 70.6971 11.0615C67.1471 10.3115 63.5371 9.84148 59.9171 9.62148C58.6271 9.54148 58.6371 11.5415 59.9171 11.6215L59.9071 11.6415Z" fill="#191817"/>
<path d="M74.6671 21.6212C74.8771 24.5612 75.1071 27.7112 73.9871 30.5212C73.5171 31.7012 72.7071 33.0712 71.4771 33.5812C70.3271 34.0612 68.9471 33.6712 68.0571 32.8612C67.1071 32.0012 65.6871 33.4112 66.6471 34.2712C67.9671 35.4612 69.7471 36.0312 71.4971 35.6512C73.2471 35.2712 74.5071 33.8612 75.3171 32.3712C77.1071 29.0912 76.9271 25.2112 76.6771 21.6112C76.5871 20.3312 74.5871 20.3212 74.6771 21.6112L74.6671 21.6212Z" fill="#191817"/>
<path d="M60.2671 20.2911C57.5871 19.9411 54.8971 20.4911 52.3471 21.2811C49.7971 22.0711 47.1171 23.1011 44.5171 24.0311C43.3171 24.4611 43.8371 26.3911 45.0471 25.9611C47.5771 25.0611 50.0871 24.1011 52.6471 23.2911C55.2071 22.4811 57.6571 21.9611 60.2571 22.3011C60.7971 22.3711 61.2571 21.7911 61.2571 21.3011C61.2571 20.7011 60.7971 20.3711 60.2571 20.3011L60.2671 20.2911Z" fill="#191817"/>
<path d="M45.397 25.8012C45.937 29.2312 46.737 32.6212 47.767 35.9412C48.147 37.1612 50.077 36.6412 49.697 35.4112C48.667 32.0912 47.867 28.7012 47.327 25.2712C47.247 24.7412 46.577 24.4412 46.097 24.5712C45.527 24.7312 45.317 25.2612 45.397 25.8012Z" fill="#191817"/>
<path d="M48.9771 36.941C51.1371 36.391 53.3171 35.711 55.5071 35.271C55.5571 35.261 55.7971 35.251 55.7571 35.221C55.7071 35.191 55.7571 35.281 55.7571 35.281C55.8771 35.421 55.9371 35.701 55.9971 35.861C56.1671 36.351 56.2871 36.851 56.3871 37.361C56.5771 38.381 56.6471 39.411 56.7271 40.441C56.8971 42.541 57.2771 44.581 57.8771 46.601C58.4771 48.621 59.1671 50.591 59.6271 52.631C60.1771 55.071 60.3171 57.571 60.1271 60.061C60.0271 61.341 62.0271 61.341 62.1271 60.061C62.3071 57.631 62.1671 55.181 61.6971 52.791C61.2271 50.401 60.4571 48.301 59.8071 46.071C59.1571 43.841 58.8471 41.711 58.6471 39.431C58.5471 38.271 58.4271 37.091 58.1171 35.961C57.8671 35.021 57.5271 33.831 56.5671 33.391C55.9371 33.101 55.2671 33.251 54.6271 33.411C53.9871 33.571 53.2771 33.751 52.6071 33.931L48.4471 34.991C47.1971 35.311 47.7271 37.241 48.9771 36.921V36.941Z" fill="#191817"/>
<path d="M75.997 24.4415C78.577 24.1715 81.1871 24.2615 83.7271 24.8115C84.9071 25.0615 86.1171 25.3615 87.2271 25.8515C88.3371 26.3415 89.147 27.0915 89.817 28.0715C91.197 30.0815 92.297 32.3415 93.267 34.5715C93.757 35.7015 94.197 36.8615 94.597 38.0215C94.787 38.5915 94.977 39.1715 95.147 39.7415C95.237 40.0315 95.317 40.3215 95.397 40.6115C95.437 40.7415 95.437 40.9315 95.507 41.0415C95.607 41.1915 95.627 41.0415 95.577 41.0715C95.317 41.2515 94.897 41.3215 94.597 41.4315C94.247 41.5615 93.907 41.6915 93.557 41.8215C92.827 42.0915 92.087 42.3615 91.357 42.6415C89.887 43.1815 88.427 43.7315 86.957 44.2715L88.187 44.9715C87.267 42.1415 86.127 39.3715 84.807 36.7015C84.237 35.5515 82.507 36.5615 83.077 37.7115C84.327 40.2315 85.377 42.8315 86.257 45.5015C86.417 45.9815 86.957 46.3915 87.487 46.2015C90.387 45.1215 93.327 44.1215 96.197 42.9715C96.787 42.7315 97.277 42.3815 97.467 41.7415C97.667 41.0615 97.377 40.3015 97.187 39.6615C96.797 38.3215 96.357 37.0015 95.857 35.7015C94.827 33.0215 93.577 30.4215 92.097 27.9615C91.387 26.7915 90.5871 25.6815 89.4771 24.8615C88.3671 24.0415 87.087 23.6515 85.817 23.2915C82.627 22.3915 79.2671 22.1115 75.9771 22.4615C75.4371 22.5215 74.9771 22.8815 74.9771 23.4615C74.9771 23.9615 75.4371 24.5215 75.9771 24.4615L75.997 24.4415Z" fill="#191817"/>
<path d="M16.427 29.2617C25.827 28.3217 35.217 27.2517 44.597 26.0517C45.137 25.9817 45.597 25.6417 45.597 25.0517C45.597 24.5617 45.137 23.9817 44.597 24.0517C35.227 25.2517 25.837 26.3217 16.427 27.2617C15.887 27.3117 15.427 27.6817 15.427 28.2617C15.427 28.7617 15.887 29.3117 16.427 29.2617Z" fill="#191817"/>
<path d="M17.1571 35.1311C19.7071 35.0511 22.2671 34.9811 24.8171 35.0711C27.3671 35.1611 29.8171 35.5711 32.3271 35.7811C37.3771 36.2011 42.4071 35.2011 47.3371 34.2111C48.5971 33.9611 48.0671 32.0311 46.8071 32.2811C41.9571 33.2511 37.0571 34.2011 32.0871 33.7611C29.6571 33.5411 27.2571 33.1611 24.8171 33.0711C22.3771 32.9811 19.7071 33.0511 17.1571 33.1311C15.8771 33.1711 15.8671 35.1711 17.1571 35.1311Z" fill="#191817"/>
<path d="M17.067 27.0114L12.257 26.0414C10.877 25.7614 9.25702 25.1814 7.88702 25.7314C6.64702 26.2214 5.95702 27.6514 6.62702 28.8714C6.75702 29.1014 6.90702 29.2114 6.84702 29.4714C6.78702 29.7314 6.50702 29.9214 6.30702 30.0514C5.74702 30.4314 5.09702 30.6914 4.50702 31.0214C2.31702 32.2614 0.107018 34.7114 1.34702 37.4014C2.58702 40.0914 6.16702 39.8314 8.60702 39.1414C11.757 38.2514 14.777 36.8814 17.527 35.1114C18.607 34.4214 17.607 32.6814 16.517 33.3814C14.467 34.7014 12.287 35.8014 9.98702 36.6014C8.83702 37.0114 7.63702 37.3914 6.43702 37.6014C5.44702 37.7714 4.26702 37.7414 3.49702 37.0114C2.77702 36.3214 2.95702 35.2814 3.42702 34.5014C3.97702 33.6014 4.95702 33.0414 5.86702 32.5514C6.83702 32.0314 7.95702 31.5814 8.51702 30.5814C8.79702 30.0814 8.92702 29.4914 8.82702 28.9214C8.77702 28.6514 8.67702 28.4114 8.54702 28.1714C8.43702 27.9714 8.30702 27.9414 8.38702 27.7614C8.59702 27.3214 9.46702 27.5214 9.82702 27.5814C10.547 27.7114 11.257 27.8714 11.977 28.0114L16.547 28.9314C17.807 29.1814 18.337 27.2614 17.077 27.0014L17.067 27.0114Z" fill="#191817"/>
<path d="M86.3571 45.7118C87.9371 48.1318 88.9371 50.8918 89.1971 53.7818L89.6971 52.9218C85.7471 55.2518 81.5971 57.2418 77.2971 58.8218C75.3071 59.5518 73.0971 60.0618 71.3571 61.3118C69.6171 62.5618 68.5971 64.5118 67.6471 66.4118C66.6171 68.4818 65.6171 70.5718 64.8071 72.7418C64.4271 73.7818 64.0871 74.8318 63.8171 75.9118C63.5471 76.9918 63.2371 78.1118 63.2871 79.1718C63.3971 81.4418 66.1371 81.8618 67.9271 81.5118C69.8971 81.1218 71.3571 79.7018 72.0771 77.8718C72.8671 75.8918 72.8971 73.7518 74.0171 71.8918C75.1371 70.0318 76.6371 68.3918 76.9571 66.1918C77.0371 65.6618 76.8271 65.1218 76.2571 64.9618C75.7871 64.8318 75.1071 65.1218 75.0271 65.6618C74.7771 67.3518 73.7271 68.6918 72.8071 70.0818C71.8171 71.5618 71.2271 73.0818 70.8471 74.8218C70.5071 76.3618 70.1971 78.1718 68.7371 79.0718C68.0871 79.4718 67.3571 79.6618 66.5971 79.6318C66.2571 79.6218 65.8971 79.5518 65.5771 79.4218C65.2271 79.2718 65.2771 79.0718 65.3071 78.7218C65.7371 74.6718 67.6671 70.8118 69.4671 67.2218C70.2671 65.6318 71.0871 63.8718 72.6171 62.8618C74.2371 61.7918 76.2271 61.3418 78.0271 60.6718C82.4171 59.0418 86.6571 57.0318 90.6871 54.6518C90.9671 54.4818 91.2171 54.1318 91.1871 53.7918C90.8971 50.5518 89.8571 47.4418 88.0771 44.7118C87.3771 43.6418 85.6471 44.6418 86.3471 45.7218L86.3571 45.7118Z" fill="#191817"/>
<path d="M75.9171 67.2514C78.6771 67.4114 81.4171 67.0114 84.1171 66.4914C86.8171 65.9714 89.5771 65.3114 92.2871 64.6114C93.5271 64.2814 93.0071 62.3514 91.7571 62.6814C89.1371 63.3714 86.4871 63.9914 83.8271 64.5214C81.1671 65.0514 78.5871 65.4214 75.9171 65.2614C74.6271 65.1814 74.6371 67.1814 75.9171 67.2614V67.2514Z" fill="#191817"/>
<path d="M95.307 41.7211C96.657 44.9711 97.717 48.3411 98.437 51.7811C98.787 53.4711 99.067 55.1811 99.247 56.9011C99.337 57.7211 99.427 58.5411 99.457 59.3711C99.457 59.6211 99.527 60.4811 99.197 60.5911C97.977 60.9911 98.497 62.9211 99.727 62.5211C101.467 61.9511 101.517 60.0611 101.397 58.5211C101.247 56.5411 100.987 54.5711 100.627 52.6211C99.907 48.7011 98.767 44.8711 97.237 41.1911C97.027 40.6911 96.577 40.3411 96.007 40.4911C95.537 40.6211 95.097 41.2211 95.307 41.7211Z" fill="#191817"/>
<path d="M92.8569 64.3516C94.0969 63.2516 95.8369 63.2516 97.3369 63.7616C99.1069 64.3616 100.387 65.6916 101.247 67.3316C102.257 69.2516 102.647 71.4616 102.957 73.5916C103.327 76.1116 103.637 78.6416 103.977 81.1616C104.677 86.4216 105.377 91.6816 106.087 96.9316C106.797 102.182 107.397 107.432 108.187 112.662C108.377 113.942 108.807 115.092 109.677 116.062C110.437 116.892 111.417 117.502 112.357 118.112C114.437 119.462 116.057 121.202 117.117 123.452C117.667 124.612 119.397 123.602 118.847 122.442C117.847 120.332 116.337 118.522 114.467 117.132C112.817 115.902 110.757 115.102 110.257 112.892C109.967 111.582 109.857 110.212 109.687 108.892C109.517 107.572 109.327 106.182 109.147 104.822C108.777 102.072 108.417 99.3216 108.047 96.5616C107.317 91.0616 106.577 85.5516 105.847 80.0516C105.507 77.4816 105.207 74.9016 104.797 72.3516C104.437 70.1216 103.907 67.8616 102.757 65.8916C101.607 63.9216 99.8069 62.3916 97.5769 61.7416C95.3469 61.0916 93.1569 61.4416 91.4669 62.9416C90.5069 63.8016 91.9269 65.2116 92.8769 64.3516H92.8569Z" fill="#191817"/>
<path d="M89.4771 73.3313C91.6271 82.2913 93.5171 91.3013 95.1171 100.371C95.9171 104.901 96.6571 109.451 97.3171 114.011C97.6471 116.301 97.9671 118.591 98.2671 120.891C98.3971 121.901 98.4171 123.031 99.3371 123.681C100.137 124.251 101.257 124.301 102.207 124.381C104.727 124.571 107.307 124.241 109.827 124.071C112.347 123.901 115.037 123.721 117.647 123.541C118.927 123.451 118.937 121.451 117.647 121.541C113.247 121.841 108.827 122.261 104.417 122.411C103.387 122.451 102.337 122.451 101.317 122.281C101.007 122.231 100.587 122.221 100.427 121.931C100.217 121.531 100.257 120.851 100.207 120.411C99.9171 118.221 99.6171 116.031 99.3071 113.851C98.0271 105.021 96.4871 96.2213 94.6871 87.4813C93.6771 82.5713 92.5871 77.6813 91.4071 72.8013C91.1071 71.5513 89.1771 72.0813 89.4771 73.3313Z" fill="#191817"/>
<path d="M98.1071 113.372C101.747 113.982 105.417 114.022 109.067 113.492C109.607 113.412 109.897 112.732 109.767 112.262C109.607 111.692 109.077 111.482 108.537 111.562C105.267 112.032 101.897 111.992 98.6371 111.442C98.1071 111.352 97.5571 111.582 97.4071 112.142C97.2771 112.622 97.5671 113.282 98.1071 113.372Z" fill="#191817"/>
<path d="M71.497 77.9212C77.937 77.4912 84.397 77.3612 90.847 77.5312C92.137 77.5612 92.137 75.5612 90.847 75.5312C84.397 75.3612 77.937 75.4912 71.497 75.9212C70.217 76.0112 70.207 78.0112 71.497 77.9212Z" fill="#191817"/>
<path d="M64.747 75.0715C64.777 75.1415 64.817 75.2215 64.847 75.3015C64.847 75.3015 64.847 75.2915 64.847 75.2815L64.887 75.5515C64.837 75.7115 64.797 75.8815 64.747 76.0515C64.697 76.1115 64.647 76.1815 64.587 76.2515C64.517 76.3015 64.457 76.3515 64.387 76.4015C64.387 76.4015 64.387 76.4015 64.397 76.4015L64.157 76.5015C64.157 76.5015 64.167 76.5015 64.177 76.5015L63.907 76.5415C63.907 76.5415 63.927 76.5415 63.937 76.5415L63.667 76.5015C63.667 76.5015 63.697 76.5015 63.707 76.5115L63.467 76.4115C63.467 76.4115 63.477 76.4115 63.487 76.4215L63.287 76.2615C63.287 76.2615 63.297 76.2615 63.297 76.2715L63.137 76.0715C63.107 76.0015 63.067 75.9215 63.037 75.8415C63.037 75.8415 63.037 75.8515 63.037 75.8615L62.997 75.5915C63.007 75.5115 63.017 75.4215 63.037 75.3415C63.037 75.3515 63.037 75.3615 63.037 75.3715L63.137 75.1315C63.137 75.1315 63.127 75.1515 63.117 75.1615L63.277 74.9615C63.277 74.9615 63.257 74.9815 63.247 74.9815L63.447 74.8215C63.447 74.8215 63.427 74.8315 63.417 74.8415L63.657 74.7415C63.657 74.7415 63.607 74.7615 63.587 74.7615L63.857 74.7215C63.757 74.7315 63.657 74.7215 63.557 74.7115C63.427 74.7015 63.307 74.6915 63.177 74.6715C62.927 74.6515 62.667 74.6215 62.417 74.6015C62.277 74.6015 62.147 74.6215 62.027 74.6915C61.907 74.7315 61.797 74.8015 61.707 74.9015C61.537 75.0715 61.407 75.3615 61.417 75.6115C61.427 75.8615 61.517 76.1415 61.707 76.3215L61.907 76.4815C62.067 76.5715 62.227 76.6215 62.407 76.6215C62.687 76.6515 62.957 76.6715 63.237 76.7015C63.557 76.7315 63.867 76.7915 64.187 76.7015C64.387 76.6415 64.537 76.5415 64.697 76.4015C64.877 76.2415 64.967 76.0015 64.997 75.7715C65.017 75.6015 65.027 75.5415 64.977 75.3515C64.957 75.2615 64.917 75.1715 64.867 75.0915C64.747 74.8915 64.567 74.7515 64.357 74.6615C64.197 74.5915 64.107 74.5615 63.917 74.5615C63.727 74.5615 63.537 74.6115 63.367 74.7015C63.137 74.8315 62.957 75.0615 62.887 75.3215C62.817 75.5815 62.857 75.8915 62.997 76.1315C63.127 76.3515 63.347 76.5215 63.597 76.5915C63.847 76.6615 64.157 76.6315 64.367 76.4915C64.577 76.3515 64.767 76.1515 64.827 75.8915C64.887 75.6315 64.867 75.3515 64.727 75.1215L64.747 75.0715Z" fill="#191817"/>
<path d="M61.187 72.0914C60.537 85.4114 60.217 98.7514 60.217 112.101C60.217 115.911 60.247 119.721 60.307 123.531C60.327 124.821 62.327 124.821 62.307 123.531C62.117 110.191 62.247 96.8514 62.707 83.5214C62.837 79.7114 62.997 75.9014 63.187 72.1014C63.247 70.8114 61.247 70.8214 61.187 72.1014V72.0914Z" fill="#191817"/>
<path d="M61.3671 122.701C55.8871 122.771 50.4171 122.371 45.0071 121.491L45.7071 122.721C46.0871 121.581 46.4571 120.431 46.9271 119.321C47.4271 118.141 48.0871 117.051 48.7671 115.971C50.0771 113.891 51.1171 111.661 51.0971 109.151C51.0871 107.861 49.0871 107.861 49.0971 109.151C49.1171 111.581 47.9171 113.571 46.6671 115.561C45.4171 117.551 44.5471 119.881 43.7771 122.191C43.6171 122.661 43.9571 123.341 44.4771 123.421C50.0571 124.331 55.7071 124.771 61.3671 124.701C62.6571 124.681 62.6571 122.681 61.3671 122.701Z" fill="#191817"/>
<path d="M50.167 110.532C53.847 110.532 57.537 110.642 61.207 110.882C62.487 110.962 62.487 108.962 61.207 108.882C57.527 108.642 53.847 108.522 50.167 108.532C48.877 108.532 48.877 110.532 50.167 110.532Z" fill="#191817"/>
<path d="M50.1771 107.992C49.4871 107.942 48.7971 108.032 48.1271 108.222L49.3971 109.182C50.3971 100.992 51.137 92.7616 51.617 84.5216C51.847 80.4816 52.0171 76.4416 52.1271 72.4016C52.2071 69.3316 51.8771 65.4516 53.9871 62.9216C56.7071 59.6816 61.557 60.3416 65.247 60.8316C65.787 60.9016 66.247 60.3216 66.247 59.8316C66.247 59.2316 65.787 58.9016 65.247 58.8316C61.517 58.3316 57.3271 57.9116 54.0571 60.1916C51.0471 62.2916 50.347 65.8416 50.207 69.2916C50.037 73.4616 49.9771 77.6316 49.7671 81.7916C49.5571 85.9516 49.2571 90.3616 48.8971 94.6316C48.4871 99.4816 47.9871 104.332 47.3971 109.162C47.3171 109.812 48.097 110.292 48.667 110.122C49.187 109.972 49.6471 109.932 50.1771 109.962C51.4671 110.042 51.4571 108.042 50.1771 107.962V107.992Z" fill="#191817"/>
<path d="M64.7371 30.2014C64.9471 31.4714 65.4271 32.7114 66.1371 33.7814C66.4271 34.2214 67.0371 34.4414 67.5071 34.1414C67.9471 33.8614 68.1671 33.2414 67.8671 32.7714C67.5771 32.3314 67.3371 31.8714 67.1271 31.3814L67.2271 31.6214C66.9671 30.9914 66.7771 30.3414 66.6671 29.6614C66.6271 29.4314 66.3971 29.1814 66.2071 29.0614C65.9971 28.9314 65.6771 28.8814 65.4371 28.9614C65.1971 29.0414 64.9571 29.1914 64.8371 29.4214C64.7071 29.6714 64.6871 29.9114 64.7371 30.1914V30.2014Z" fill="#191817"/>
<path d="M65.107 61.0211C67.257 61.1111 69.307 61.4811 71.377 62.1511C71.877 62.3111 72.487 61.9611 72.607 61.4511C72.727 60.9011 72.437 60.3911 71.907 60.2211C69.707 59.5111 67.417 59.1111 65.107 59.0211C64.587 59.0011 64.087 59.4911 64.107 60.0211C64.137 60.5811 64.547 61.0011 65.107 61.0211Z" fill="#191817"/>
</svg>
