<svg width="74" height="123" viewBox="0 0 74 123" fill="none" xmlns="http://www.w3.org/2000/svg">
<path d="M71.6393 117.506C71.6393 117.506 71.6193 117.466 71.6093 117.446C70.9693 116.056 69.5893 114.766 68.5193 113.936C67.0093 112.756 65.2493 111.956 63.3793 111.576C62.9993 111.326 62.6293 111.076 62.2793 110.806C61.7593 110.286 61.2593 109.746 60.7693 109.186C60.7093 108.726 60.6493 108.266 60.5893 107.806C60.3193 105.726 60.0593 103.646 59.7893 101.566C59.4593 93.7661 58.6793 85.9861 57.7993 78.2261C57.7593 77.6761 57.7193 77.1361 57.6593 76.5961C58.2493 76.4161 58.7893 75.9961 59.1993 75.4661C59.8793 74.5761 60.2293 73.4661 60.2993 72.3461C60.5293 70.9761 60.4493 69.5561 60.0793 68.2261C59.7093 66.3761 58.6493 64.6561 56.8993 63.4661C56.5793 63.2461 56.2493 63.1361 55.9293 63.0961C54.8293 62.1061 53.5993 61.2461 52.3993 60.3961C50.5293 59.0761 48.6593 57.7661 46.7893 56.4461C46.4493 56.2061 46.0893 56.0961 45.7393 56.0661C45.6893 56.0261 45.6493 55.9861 45.5993 55.9461C45.1393 54.9561 44.7393 53.9461 44.3893 52.9161C44.3893 52.8561 44.3893 52.7961 44.3893 52.7261C44.2793 51.6661 44.1593 50.6161 44.0493 49.5561C43.9493 45.6261 45.0393 41.6761 44.7393 37.7361C44.4093 33.4761 42.8593 29.3461 39.1393 26.9361C38.9793 26.8361 38.8093 26.7661 38.6393 26.7061C37.8793 25.9161 37.0093 25.3461 35.9793 25.2161C34.0993 24.1361 31.9193 23.6761 29.8093 24.1461C29.7793 24.1061 29.7493 24.0761 29.7193 24.0361C30.9993 23.2361 31.7293 21.5061 32.2593 20.0161C32.9993 17.9361 33.5593 15.8061 33.9593 13.6361C34.0293 13.2561 34.0193 12.8661 33.9593 12.5061C33.9893 12.3561 34.0093 12.1961 34.0293 12.0461C34.6493 10.7861 34.9393 9.38612 34.7393 7.99612C34.7893 6.38612 34.3093 4.72612 32.7193 4.00612C32.6993 4.00612 32.6893 3.99612 32.6693 3.98612C32.5493 3.86612 32.4093 3.74612 32.2793 3.63612C32.2693 3.61612 32.2593 3.60612 32.2493 3.58612C32.0393 3.32612 31.7493 3.14612 31.4393 3.02612C31.3393 2.96612 31.2493 2.89612 31.1393 2.83612C30.1893 2.02612 29.0993 1.41612 27.8593 1.15612C26.9693 0.966123 26.0593 0.956123 25.1693 1.09612C23.3093 0.946123 21.4793 1.65612 20.1793 3.05612C18.7993 4.53612 18.1793 6.45612 17.6893 8.37612C17.5693 8.83612 17.5893 9.27612 17.7093 9.66612C17.6293 10.0061 17.5693 10.3561 17.5393 10.7061C17.4993 10.8661 17.4493 11.0261 17.4293 11.1961C17.4293 11.2561 17.4193 11.3161 17.4093 11.3761C17.3493 11.7261 17.3093 12.0861 17.2993 12.4461C16.8993 13.7861 17.1693 15.2961 18.3393 16.3561C18.5393 16.5361 18.7493 16.6761 18.9893 16.7961C19.0393 17.7261 19.1893 18.6461 19.4393 19.4761C19.5893 19.9861 19.7893 20.4861 20.0093 20.9761C19.5693 21.5561 19.1393 22.1361 18.6993 22.7161C18.5293 22.7661 18.3593 22.8261 18.1893 22.9061C18.0393 22.9761 17.8793 23.0461 17.7293 23.1261C17.6893 23.1461 17.6193 23.1761 17.5693 23.1961C17.2693 23.3161 16.9793 23.4261 16.6793 23.5361C16.3693 23.3861 16.0193 23.2961 15.6393 23.2861C14.5393 23.2461 13.5993 23.5961 12.8093 24.2061C12.6693 24.1861 12.5293 24.1661 12.3893 24.1461C10.5593 23.9661 8.75926 24.5161 7.29926 25.5561C6.99926 25.7161 6.69926 25.8961 6.41926 26.1061C5.76926 26.6061 5.24926 27.2061 4.86926 27.8761C4.73926 27.9961 4.61926 28.1161 4.50926 28.2561C4.01926 28.8461 3.70926 29.5061 3.50926 30.1961C3.49926 30.2261 3.48926 30.2561 3.47926 30.2861C3.22926 31.0061 3.11926 31.7861 3.16926 32.5661C3.19926 32.9661 3.31926 33.3561 3.49926 33.7161C3.46926 34.0661 3.44926 34.4261 3.41926 34.7761C3.31926 35.0461 3.23926 35.3161 3.19926 35.6161C2.17926 43.3861 2.16926 51.1561 3.11926 58.8361C3.38926 61.5261 3.81926 64.1861 4.44926 66.7861C4.77926 68.3261 5.13926 69.8661 5.54926 71.4061C5.01926 74.3761 4.69926 77.3561 4.55926 80.3361C3.12926 89.3761 3.03926 98.4461 3.63926 107.576C3.12926 110.976 2.60926 114.376 2.09926 117.776C2.03926 118.156 2.09926 118.526 2.23926 118.846C1.47926 119.036 1.31926 120.326 2.05926 120.656C3.65926 121.356 5.53926 121.206 7.30926 121.096C8.09926 121.196 8.87926 121.256 9.66926 121.306C9.83926 121.436 10.0593 121.516 10.2993 121.546C12.1193 121.766 13.9393 121.836 15.7693 121.756C16.4893 122.016 17.2493 122.076 17.7693 121.466C17.8293 121.396 17.8593 121.336 17.8993 121.266C17.9993 121.196 18.0793 121.106 18.1493 121.006C18.6393 120.886 19.0493 120.446 18.8893 119.806C18.5793 118.596 18.2793 117.376 17.9693 116.166C17.7193 114.956 17.5393 113.736 17.4093 112.506C17.3793 112.236 17.2593 112.026 17.0993 111.876C17.1393 110.466 17.1293 109.056 17.0593 107.636C17.0593 107.096 17.0793 106.546 17.0893 106.006C17.0893 105.816 17.0693 105.646 17.0493 105.466C17.7793 97.3761 18.3993 89.2761 18.8493 81.1661C21.5093 80.7361 24.1693 80.3961 26.8493 80.1561C29.8093 80.1161 32.7693 80.0861 35.7293 80.0761C38.3593 80.2161 40.9793 80.3261 43.6093 80.4061C44.4093 81.9961 45.2093 83.5861 46.0093 85.1761C46.5093 87.8361 47.0093 90.4961 47.5093 93.1561C47.8293 97.6861 48.3093 102.196 49.1093 106.666C48.6393 107.616 48.6093 108.736 49.0993 109.746C48.9293 110.076 48.8293 110.446 48.8593 110.836C48.9993 112.556 49.2193 114.276 49.5093 115.986C49.5393 116.236 49.5693 116.496 49.5993 116.746C49.6293 117.066 49.7093 117.366 49.8193 117.646C49.8993 118.026 49.9693 118.406 50.0493 118.786C50.0693 118.856 50.0993 118.926 50.1293 118.996C49.9793 119.306 50.0193 119.666 50.1793 119.946C50.1093 120.556 50.5993 121.226 51.4093 121.066C52.2393 120.896 53.0693 120.736 53.9093 120.576C54.0293 120.646 54.1693 120.706 54.3293 120.726C56.5493 121.006 58.7693 120.856 60.9993 120.656C62.1293 120.556 63.2493 120.456 64.3793 120.346C65.3393 120.436 66.3093 120.526 67.2693 120.616C68.9393 120.766 72.2893 121.306 71.9693 118.556C71.9293 118.196 71.8093 117.846 71.6493 117.496L71.6393 117.506ZM45.1593 66.9361C43.9093 66.8361 42.6593 66.7161 41.4093 66.5861L40.3493 66.4361C40.0993 64.9661 39.8393 63.5061 39.5293 62.0461C40.7893 63.1361 42.1093 64.1761 43.4493 65.1761C44.0093 65.7661 44.5793 66.3561 45.1593 66.9261V66.9361ZM5.33926 117.436C5.38926 117.536 5.44926 117.626 5.51926 117.716C5.43926 117.696 5.35926 117.696 5.28926 117.686C5.28926 117.666 5.29926 117.656 5.30926 117.636C5.31926 117.576 5.33926 117.506 5.34926 117.446L5.33926 117.436Z" fill="#673B82"/>
<path d="M19.1993 17.4258C19.7893 19.5458 20.6493 21.6458 22.1893 23.2658C23.5793 24.7358 25.6493 25.7158 27.6993 25.5758C32.4293 25.2458 33.3893 20.1458 34.2793 16.4158C34.5693 15.1858 34.8593 13.9658 35.1493 12.7358C35.4393 11.5058 35.7993 10.2458 35.9593 8.97583C36.2593 6.65583 35.2093 4.70583 33.5593 3.13583C30.7693 0.465827 26.4093 -0.824173 22.6993 0.565827C18.5693 2.10583 15.8493 6.49583 16.6293 10.8758C16.7193 11.3958 17.3793 11.7258 17.8593 11.5758C18.8693 11.2558 19.8693 11.9158 20.0593 12.9358C20.1493 13.4358 20.8093 13.8058 21.2893 13.6358C22.7293 13.1158 23.6693 11.9658 24.2393 10.5758C24.5693 9.75583 24.7493 8.90583 24.9693 8.05583C25.0293 7.83583 25.0893 7.19583 25.2593 7.04583C25.1193 7.16583 25.3493 7.12583 25.4893 7.15583C25.7193 7.20583 25.9593 7.26583 26.1893 7.32583C27.8193 7.72583 29.4493 8.21583 31.0993 8.51583C32.5193 8.77583 33.9893 8.67583 34.8693 7.39583C35.5893 6.32583 33.8593 5.32583 33.1393 6.38583C32.6193 7.14583 30.5993 6.35583 29.9793 6.19583C29.1693 5.99583 28.3493 5.79583 27.5393 5.59583C26.7793 5.40583 25.9593 5.10583 25.1793 5.09583C23.3493 5.07583 23.1393 7.18583 22.7993 8.52583C22.4993 9.69583 22.0493 11.2458 20.7693 11.7058L21.9993 12.4058C21.6193 10.3458 19.3093 9.02583 17.3393 9.64583L18.5693 10.3458C18.0393 7.35583 19.8593 4.28583 22.4493 2.86583C25.2493 1.32583 28.7493 1.98583 31.2493 3.78583C32.4793 4.66583 33.8893 6.11583 34.0393 7.69583C34.1293 8.73583 33.8093 9.78583 33.5693 10.7758C33.3193 11.8458 33.0693 12.9158 32.8093 13.9858C32.3593 15.8858 31.9893 17.8358 31.3993 19.7058C30.9593 21.1058 30.2693 22.6058 28.8793 23.2758C27.3093 24.0358 25.2893 23.3958 24.0493 22.2858C22.4893 20.8758 21.6993 18.8858 21.1393 16.9058C20.7893 15.6658 18.8593 16.1958 19.2093 17.4358L19.1993 17.4258Z" fill="#191817"/>
<path d="M17.0792 9.98597C16.7992 10.116 16.5292 10.226 16.3592 10.506C16.1992 10.776 16.1992 11.116 16.1692 11.416C16.1292 11.786 16.1192 12.156 16.1292 12.526C16.1592 13.366 16.2892 14.226 16.5392 15.036C16.7892 15.846 17.0892 16.636 17.7492 17.156C18.4892 17.726 19.6092 17.766 20.2792 17.056C20.6392 16.676 20.6892 16.016 20.2792 15.646C19.8692 15.276 19.2492 15.236 18.8692 15.646C18.7792 15.736 18.8492 15.666 18.9092 15.626C18.9792 15.586 19.0692 15.586 18.9492 15.606C19.0192 15.606 19.1192 15.606 18.9992 15.596C18.8792 15.586 18.9692 15.596 19.0392 15.596C18.9292 15.576 18.9892 15.576 19.0692 15.626C19.0692 15.626 18.8792 15.496 18.9792 15.576C19.0792 15.656 18.9392 15.526 18.9292 15.516C18.9892 15.626 18.8292 15.446 18.9292 15.516C18.8692 15.416 18.8092 15.326 18.7592 15.226C18.7292 15.176 18.7092 15.126 18.6892 15.076C18.7392 15.236 18.6192 14.946 18.6892 15.076C18.5992 14.806 18.4892 14.536 18.4192 14.256C18.3492 13.996 18.2892 13.736 18.2392 13.466C18.2292 13.396 18.2192 13.336 18.2092 13.266C18.2292 13.376 18.2092 13.296 18.2092 13.226C18.1992 13.096 18.1792 12.956 18.1692 12.826C18.1492 12.536 18.1492 12.256 18.1592 11.966C18.1592 11.826 18.1692 11.696 18.1792 11.566C18.1792 11.496 18.1892 11.436 18.1992 11.366C18.1992 11.336 18.2292 11.116 18.1992 11.276L17.7392 11.876L18.0992 11.716C18.5792 11.496 18.7292 10.766 18.4592 10.346C18.1392 9.85597 17.5992 9.75597 17.0892 9.98597H17.0792Z" fill="#191817"/>
<path d="M6.35926 72.6054C7.41926 70.3454 9.95926 68.8554 12.4593 69.4454C13.6593 69.7254 14.7393 70.3954 15.5393 71.3354C16.4793 72.4354 16.7993 73.8754 16.8693 75.2954C16.9593 77.0054 16.8493 78.7354 16.8193 80.4454C16.7893 82.1554 16.7493 83.9354 16.7193 85.6854C16.6493 89.2654 16.5793 92.8454 16.5093 96.4154C16.4293 100.405 16.3493 104.405 16.2693 108.395C16.2393 109.685 18.2393 109.685 18.2693 108.395C18.4193 100.655 18.5693 92.9154 18.7293 85.1754C18.7693 83.1754 18.8093 81.1854 18.8493 79.1854C18.8893 77.3854 18.9993 75.5654 18.7193 73.7754C18.2393 70.7554 16.0193 68.2054 12.9993 67.5054C9.67926 66.7354 6.08926 68.4954 4.63926 71.5854C4.40926 72.0754 4.49926 72.6654 4.99926 72.9554C5.42926 73.2054 6.13926 73.0854 6.36926 72.5954L6.35926 72.6054Z" fill="#191817"/>
<path d="M18.6793 18.2359C19.5193 19.4659 18.8093 21.1059 17.7093 21.9259C16.1693 23.0759 14.0293 23.096 12.1993 23.196C10.2493 23.306 8.18925 23.4859 6.47925 24.5159C4.89925 25.4659 3.89925 27.0259 3.28925 28.7259C2.63925 30.5459 2.43925 32.5159 2.21925 34.4259C1.95925 36.7059 1.75925 38.9859 1.63925 41.2759C1.38925 45.8959 1.42925 50.526 1.74925 55.146C2.10925 60.366 2.83925 65.5659 3.90925 70.6959C4.09925 71.6159 5.69925 71.6859 5.83925 70.6959C6.27925 67.5959 8.15925 64.1659 11.6793 64.0559C13.0993 64.0059 14.4593 64.5759 15.1693 65.8559C15.7293 66.8559 15.8693 68.2959 15.1193 69.2459C14.7893 69.6659 14.7093 70.246 15.1193 70.656C15.4693 71.006 16.1993 71.086 16.5293 70.656C18.4393 68.226 17.6693 64.5359 15.0593 62.9159C12.1593 61.1059 8.23925 62.276 6.16925 64.796C4.90925 66.336 4.16925 68.196 3.89925 70.156H5.82925C3.91925 61.026 3.16925 51.6759 3.57925 42.3559C3.67925 40.0259 3.85925 37.6959 4.09925 35.3759C4.30925 33.4459 4.48925 31.466 5.08925 29.606C5.60925 27.976 6.57925 26.526 8.21925 25.866C9.99925 25.146 11.9793 25.2559 13.8593 25.0859C15.9993 24.9059 18.3393 24.4159 19.7793 22.6859C21.0293 21.1859 21.5793 18.9459 20.4093 17.2259C19.6893 16.1659 17.9493 17.1659 18.6793 18.2359Z" fill="#191817"/>
<path d="M2.60919 52.076C5.91919 50.846 9.41919 50.396 12.9392 50.726C13.4792 50.776 13.9392 50.226 13.9392 49.726C13.9392 49.146 13.4792 48.776 12.9392 48.726C9.26919 48.376 5.52919 48.866 2.07919 50.146C1.56919 50.336 1.22919 50.826 1.37919 51.376C1.50919 51.866 2.09919 52.266 2.60919 52.076Z" fill="#191817"/>
<path d="M14.0492 49.6354C13.9592 44.3554 14.1392 39.0854 14.5992 33.8254C14.7092 32.5454 12.7092 32.5554 12.5992 33.8254C12.1392 39.0854 11.9592 44.3654 12.0492 49.6354C12.0692 50.9254 14.0692 50.9254 14.0492 49.6354Z" fill="#191817"/>
<path d="M16.9292 23.8961C18.7192 26.8561 20.6692 29.7161 22.7792 32.4561C23.6392 33.5761 25.0492 36.0561 26.7792 35.0261C27.4892 34.6061 27.6592 33.7561 27.8592 33.0261C28.0992 32.1561 28.3292 31.2761 28.5492 30.4061C29.0492 28.4061 29.5092 26.3961 29.9092 24.3761C30.1592 23.1161 28.2392 22.5861 27.9792 23.8461C27.5792 25.8261 27.1392 27.8061 26.6492 29.7661C26.3992 30.7461 26.1492 31.7261 25.8792 32.7061C25.8292 32.8761 25.7292 33.0861 25.7192 33.2661C25.7192 33.3361 25.6992 33.3861 25.6492 33.4261C26.0092 33.3961 26.1192 33.3461 25.9792 33.2461C25.9792 33.1661 25.6892 32.9461 25.6292 32.8761C25.4692 32.6961 25.3292 32.4961 25.1792 32.3061C22.7992 29.3161 20.6292 26.1561 18.6492 22.8861C17.9792 21.7861 16.2492 22.7861 16.9192 23.8961H16.9292Z" fill="#191817"/>
<path d="M12.0992 49.0658C11.2392 53.7658 10.4692 58.7358 12.5692 63.2258C12.7992 63.7158 13.4992 63.8358 13.9392 63.5858C14.4392 63.2958 14.5292 62.7058 14.2992 62.2158C12.4592 58.2758 13.2792 53.6958 14.0292 49.5958C14.2592 48.3358 12.3292 47.7958 12.0992 49.0658Z" fill="#191817"/>
<path d="M35.4392 35.5056L34.7092 42.3256C34.4692 44.5956 34.0992 46.9056 34.1192 49.1956C34.1392 51.4856 34.7292 53.4756 35.4992 55.5156C36.2692 57.5556 37.1692 59.7256 38.0092 61.8256C38.2092 62.3256 38.6792 62.6756 39.2392 62.5256C39.7192 62.3956 40.1392 61.7956 39.9392 61.2956C39.1192 59.2256 38.2692 57.1656 37.4692 55.0956C36.6692 53.0256 36.1092 51.1056 36.1192 48.9656C36.1292 46.8256 36.4692 44.5356 36.7092 42.3356L37.4392 35.5156C37.4992 34.9756 36.9392 34.5156 36.4392 34.5156C35.8492 34.5156 35.4992 34.9756 35.4392 35.5156V35.5056Z" fill="#191817"/>
<path d="M18.4793 81.6061C27.1493 80.9861 35.8593 80.9861 44.5193 81.6261C45.7993 81.7161 45.7993 79.7161 44.5193 79.6261C35.8493 78.9861 27.1493 78.9861 18.4793 79.6061C17.1993 79.6961 17.1893 81.6961 18.4793 81.6061Z" fill="#191817"/>
<path d="M37.8892 68.2359C41.6892 67.6759 45.5692 67.5759 49.3892 67.9259C50.2592 68.0059 51.1292 68.1059 51.9892 68.2359C52.8492 68.3659 53.9092 68.4459 54.7292 68.8359C56.0192 69.4459 56.0992 71.1459 56.2192 72.3859C56.9592 80.2259 57.6892 88.0659 58.4192 95.8959C58.8392 100.356 59.2492 104.806 59.6692 109.266C59.7192 109.806 60.0892 110.266 60.6692 110.266C61.1692 110.266 61.7192 109.806 61.6692 109.266C60.8892 100.976 60.1192 92.6859 59.3392 84.3959C58.9492 80.2559 58.5892 76.1059 58.1692 71.9659C58.0092 70.4059 57.7292 68.6659 56.4492 67.6059C55.0092 66.4159 52.8192 66.3359 51.0492 66.1159C46.4892 65.5459 41.8792 65.6459 37.3392 66.3159C36.8092 66.3959 36.5092 67.0659 36.6392 67.5459C36.7992 68.1159 37.3292 68.3259 37.8692 68.2459L37.8892 68.2359Z" fill="#191817"/>
<path d="M43.5892 81.1256C45.6192 86.2656 46.4992 91.7456 46.9892 97.2256C47.2392 99.9956 47.3992 102.776 47.5792 105.556C47.6192 106.206 47.6592 106.846 47.7092 107.496C47.7592 108.146 47.7392 108.906 47.9292 109.546C48.2992 110.806 49.5092 111.186 50.6792 111.336C53.8992 111.736 57.1892 111.526 60.3492 110.826C61.6092 110.546 61.0693 108.626 59.8193 108.896C57.2093 109.466 54.5292 109.656 51.8592 109.446C51.3192 109.406 50.7392 109.396 50.2192 109.226C49.7792 109.076 49.8092 108.836 49.7792 108.396C49.6792 107.106 49.5992 105.816 49.5192 104.526C49.1892 99.3156 48.8692 94.0956 47.8892 88.9556C47.3492 86.1056 46.5792 83.2956 45.5192 80.5856C45.3192 80.0856 44.8492 79.7356 44.2892 79.8856C43.8092 80.0156 43.3892 80.6056 43.5892 81.1156V81.1256Z" fill="#191817"/>
<path d="M48.2292 109.776C48.3492 111.826 48.5092 113.866 48.7292 115.916C48.8392 116.896 48.9492 117.876 49.0792 118.846C49.1892 119.656 49.1992 120.606 49.8092 121.226C50.4192 121.846 51.2692 121.846 52.0692 121.796C53.1392 121.736 54.2092 121.666 55.2892 121.596C57.2592 121.476 59.2192 121.346 61.1892 121.256C63.1592 121.166 65.2692 121.146 67.2992 121.296C68.1792 121.356 69.0492 121.476 69.9292 121.586C70.8092 121.696 71.6792 121.566 72.3192 120.916C73.3792 119.826 73.2092 118.116 72.6192 116.846C71.9692 115.446 70.7492 114.396 69.4592 113.586C68.0492 112.706 66.4792 112.136 65.0192 111.346C63.6492 110.606 62.2092 109.646 61.6592 108.106C61.2292 106.906 59.2992 107.426 59.7292 108.636C60.6992 111.326 63.1992 112.746 65.6692 113.886C66.8892 114.446 68.1392 115.006 69.2092 115.826C70.0792 116.486 71.0092 117.486 71.0992 118.626C71.1192 118.956 71.0992 119.436 70.7692 119.606C70.5092 119.736 70.0292 119.596 69.7592 119.556C69.2692 119.486 68.7792 119.426 68.2792 119.376C66.4992 119.196 64.6992 119.166 62.9092 119.196C59.3392 119.266 55.7692 119.556 52.2092 119.776C52.0092 119.786 51.3792 119.906 51.2392 119.796C51.1292 119.716 51.1092 118.986 51.0892 118.826C50.9592 117.846 50.8392 116.876 50.7392 115.896C50.5192 113.856 50.3592 111.806 50.2392 109.756C50.1692 108.476 48.1692 108.466 48.2392 109.756L48.2292 109.776Z" fill="#191817"/>
<path d="M30.7592 25.3755C34.6192 24.5455 38.4892 26.9355 40.5392 30.1055C42.9892 33.8955 43.4292 38.5355 43.4592 42.9455C43.4792 45.5255 43.3692 48.0955 43.4392 50.6755C43.4692 51.8555 43.4892 53.0855 43.7692 54.2455C44.0492 55.4055 44.6892 56.3455 45.5492 57.1355C48.8892 60.2155 53.3792 61.7355 56.6092 64.9655C58.0892 66.4455 59.3492 68.3455 59.5092 70.4855C59.6492 72.3355 59.0992 74.3855 57.5192 75.5155C57.0792 75.8255 56.8692 76.3855 57.1592 76.8855C57.4092 77.3155 58.0892 77.5555 58.5292 77.2455C62.0492 74.7355 62.2292 69.8055 60.1792 66.2955C57.7092 62.0855 53.1392 60.0355 49.2392 57.4355C48.2592 56.7855 47.2392 56.0955 46.4492 55.2055C45.6592 54.3155 45.5592 53.1555 45.4992 52.0255C45.3392 49.2455 45.4592 46.4655 45.4592 43.6855C45.4592 38.8655 45.0592 33.7855 42.5392 29.5455C40.0192 25.3055 35.1892 22.3855 30.2292 23.4555C28.9692 23.7255 29.4992 25.6555 30.7592 25.3855V25.3755Z" fill="#191817"/>
<path d="M38.0492 60.8455C40.0492 63.2855 42.3192 65.4855 44.7992 67.4255C45.2292 67.7555 45.7992 67.8455 46.2092 67.4255C46.5592 67.0755 46.6392 66.3455 46.2092 66.0155C43.7192 64.0755 41.4592 61.8755 39.4592 59.4355C39.1192 59.0155 38.3992 59.0755 38.0492 59.4355C37.6392 59.8455 37.7092 60.4355 38.0492 60.8455Z" fill="#191817"/>
<path d="M36.3793 53.6656C38.7493 52.5356 41.3693 51.9856 43.9893 52.0156C45.2793 52.0256 45.2793 50.0256 43.9893 50.0156C40.9993 49.9856 38.0693 50.6556 35.3693 51.9356C34.8793 52.1656 34.7593 52.8656 35.0093 53.3056C35.2993 53.8056 35.8893 53.8956 36.3793 53.6656Z" fill="#191817"/>
<path d="M37.6992 60.7356C38.4292 62.5856 39.1592 64.4356 39.8792 66.2956C40.0692 66.7856 40.5592 67.1756 41.1092 66.9956C41.5792 66.8456 42.0092 66.2856 41.8092 65.7656C41.0792 63.9156 40.3492 62.0656 39.6292 60.2056C39.4392 59.7156 38.9492 59.3256 38.3992 59.5056C37.9292 59.6556 37.4992 60.2156 37.6992 60.7356Z" fill="#191817"/>
<path d="M17.0992 67.8857L37.6092 67.9657C38.8992 67.9657 38.8992 65.9757 37.6092 65.9657L17.0992 65.8857C15.8092 65.8857 15.8092 67.8757 17.0992 67.8857Z" fill="#191817"/>
<path d="M4.49921 71.5259C3.52921 79.5659 2.89921 87.6359 2.59921 95.7259C2.45921 99.6859 2.38921 103.656 2.40921 107.616C2.40921 108.506 2.22921 109.676 2.67921 110.476C3.12921 111.276 4.06921 111.376 4.88921 111.426C6.84921 111.536 8.81921 111.636 10.7792 111.736C11.8892 111.796 12.9992 111.886 14.1092 111.906C15.0392 111.926 16.0092 111.836 16.8392 111.396C18.3992 110.566 19.0492 108.466 17.8292 107.076C16.9792 106.106 15.5692 107.526 16.4192 108.486C16.6492 108.746 16.3692 109.226 16.1792 109.416C15.7192 109.886 14.9292 109.896 14.3192 109.896C12.6492 109.896 10.9692 109.736 9.29921 109.646C8.43921 109.596 7.57921 109.556 6.71921 109.506C6.30921 109.486 5.89921 109.466 5.48921 109.436C5.28921 109.426 5.07921 109.416 4.87921 109.406C4.81921 109.406 4.42921 109.326 4.34921 109.356L4.26921 109.336C4.40921 109.556 4.45921 109.546 4.41921 109.336C4.48921 109.196 4.41921 108.756 4.41921 108.596C4.41921 108.186 4.41921 107.766 4.41921 107.356C4.41921 106.446 4.41921 105.536 4.41921 104.626C4.45921 97.5659 4.74921 90.5059 5.30921 83.4659C5.61921 79.4759 6.01921 75.4859 6.49921 71.5059C6.55921 70.9659 5.98921 70.5059 5.49921 70.5059C4.90921 70.5059 4.55921 70.9659 4.49921 71.5059V71.5259Z" fill="#191817"/>
<path d="M16.0892 110.616C16.1692 114.366 16.6592 118.106 17.5392 121.746L18.4992 120.476C13.9692 120.616 9.43922 120.476 4.92922 120.036C4.35922 119.976 3.77922 119.926 3.20922 119.856C3.05922 119.836 2.96922 119.826 2.83922 119.796C2.96922 120.036 3.01922 120.036 2.98922 119.806C2.98922 119.726 2.99922 119.646 3.00922 119.566C3.11922 118.486 3.29922 117.396 3.44922 116.316C3.75922 114.036 4.06922 111.756 4.37922 109.476C4.44922 108.946 4.24922 108.406 3.67922 108.246C3.20922 108.116 2.51922 108.406 2.44922 108.946C2.10922 111.466 1.76922 113.996 1.41922 116.516C1.32922 117.166 1.23922 117.816 1.15922 118.466C1.08922 119.016 0.949216 119.576 1.00922 120.136C1.12922 121.376 2.12922 121.726 3.21922 121.856C8.28922 122.446 13.4092 122.636 18.5092 122.476C19.1692 122.456 19.6292 121.856 19.4692 121.206C18.6292 117.726 18.1692 114.186 18.0892 110.606C18.0592 109.316 16.0592 109.316 16.0892 110.606V110.616Z" fill="#191817"/>
</svg>
