<svg width="59" height="127" viewBox="0 0 59 127" fill="none" xmlns="http://www.w3.org/2000/svg">
<path d="M57.4893 77.0785C57.6093 75.4285 57.3393 73.8185 56.3193 72.3785C56.3193 72.3785 56.3193 72.3685 56.3193 72.3585C55.9193 71.3585 55.3793 70.1985 54.4793 69.5485C53.8393 68.7985 53.0893 68.1385 52.2393 67.6285C51.9293 67.4485 51.6093 67.3685 51.2993 67.3685C51.2593 67.3385 51.2293 67.3185 51.1893 67.2885C51.9793 67.0185 52.7193 66.5085 53.2893 65.7085C53.5593 65.3285 53.7993 64.9485 54.0293 64.5585C54.4693 63.9485 54.7893 63.3285 55.0493 62.5485C56.7893 58.4585 56.9093 53.9285 56.7493 49.3985C56.7393 49.0285 56.6793 48.6985 56.6093 48.3885C56.5793 44.9785 56.1893 41.6285 55.4793 38.2485C55.4593 38.1585 55.4193 38.0785 55.3993 37.9885C55.3793 37.3185 55.3093 36.6385 55.1293 35.9985C54.4193 33.5885 52.9993 31.5785 51.1193 29.9485C50.7093 29.5985 50.2693 29.3485 49.7993 29.1885C48.5893 28.2885 47.3393 27.4585 45.9993 26.7185C45.8593 26.0385 45.5093 25.3585 44.8893 24.7685C44.8693 24.7485 44.8493 24.7285 44.8193 24.7085C45.0093 24.4885 45.1893 24.2485 45.3293 23.9585C45.8193 22.9685 46.1793 22.1285 46.4293 21.0485C46.5393 20.5885 46.5593 20.1585 46.5293 19.7585C46.7793 18.6485 46.9793 17.5285 47.1393 16.4085C47.4793 14.3685 47.6493 12.3485 47.5693 10.2485C47.5493 9.8185 47.4693 9.4385 47.3493 9.0785C47.3393 8.8885 47.3293 8.7085 47.2993 8.5085C46.8593 6.2385 45.8093 4.4185 44.1193 2.8385C43.3493 2.1185 42.5393 1.7685 41.7493 1.6785C40.9593 1.3185 40.1793 1.1785 39.1793 1.2785C38.9893 1.2985 38.7993 1.3385 38.6193 1.3885C37.8693 1.3685 37.1193 1.3885 36.3593 1.4885C35.8193 1.4185 35.2493 1.4685 34.6293 1.7285C34.5093 1.7785 34.3893 1.8285 34.2593 1.8785C33.9893 1.9085 33.7193 1.9585 33.4493 2.0585C30.2893 3.1685 28.8993 5.3385 28.2893 8.5885C27.8993 10.6385 27.8393 12.7385 28.0493 14.7985C28.1193 15.4685 28.8793 19.2685 29.3393 19.4385C29.1593 19.6785 28.9793 19.9385 28.7993 20.2385C28.4893 20.7485 28.2993 21.2385 28.1993 21.7085C27.8693 21.7985 27.5193 21.9185 27.1693 22.0985C20.4793 25.6085 13.9193 29.3385 10.9893 36.6485C8.73926 42.2585 7.82926 48.6285 7.53926 54.8185C7.50926 54.9685 7.46926 55.1085 7.44926 55.2785C7.25926 57.2285 7.05926 59.1885 6.86926 61.1385C6.80926 61.6985 6.86926 62.1785 6.99926 62.6185C6.89926 64.1685 6.80926 65.7085 6.70926 67.2585C6.38926 67.5885 6.04926 67.9585 5.70926 68.3585C5.03926 68.8385 4.47926 69.4385 4.06926 70.1185C3.23926 71.1785 2.67926 72.4785 2.65926 73.8285C2.65926 73.9485 2.67926 74.0585 2.68926 74.1685C2.66926 74.1985 2.64926 74.2185 2.63926 74.2485C1.91926 75.6285 1.72926 76.9985 1.94926 78.4985C1.97926 80.4385 2.39926 82.3285 2.93926 84.2185C2.92926 84.4285 2.93926 84.6585 3.00926 84.8985C3.32926 86.0685 3.63926 87.2385 3.95926 88.4185C3.94926 88.6085 3.94926 88.8085 3.98926 89.0285C4.89926 93.5485 6.02926 98.0185 7.33926 102.439C7.38926 102.649 7.44926 102.859 7.49926 103.079C7.50926 103.149 7.50926 103.229 7.52926 103.299C7.90926 104.779 8.28926 106.259 8.66926 107.729C8.70926 107.879 8.75926 108.009 8.81926 108.139C8.74926 108.259 8.68926 108.399 8.67926 108.549C8.64926 108.929 8.72926 109.219 8.87926 109.429C9.49926 111.129 11.4193 111.379 13.1293 111.109C13.2193 112.129 13.2993 113.149 13.3893 114.169C12.8793 115.169 12.4093 116.199 11.9993 117.249C11.6493 117.879 11.2693 118.489 10.8493 119.089C10.1193 119.549 9.46926 120.089 8.87926 120.699C8.33926 121.119 7.80926 121.539 7.28926 121.969C7.02926 122.189 6.96926 122.549 7.03926 122.869C6.79926 122.969 6.55926 123.079 6.32926 123.179C5.80926 123.399 6.17926 124.269 6.71926 124.089C7.26926 123.899 7.82926 123.779 8.38926 123.699C8.44926 123.759 8.50926 123.809 8.59926 123.829C8.99926 123.939 9.40926 123.989 9.81926 124.009C10.4093 124.189 11.0893 124.249 11.6893 124.289C11.7693 124.399 11.8893 124.479 12.0693 124.489C15.7893 124.699 19.4893 124.319 23.1893 123.919C23.4893 123.889 23.7893 123.619 23.6693 123.289C23.5393 122.909 23.4093 122.539 23.2693 122.159C23.2593 122.099 23.2393 122.049 23.2093 121.999C22.8293 120.919 22.4493 119.839 22.0693 118.759L20.4393 112.439C20.3993 112.299 20.3193 112.199 20.2193 112.149C19.6393 109.449 19.0993 106.749 18.6093 104.029C17.6093 98.0985 16.9593 92.1285 16.6593 86.1185C20.1293 86.6885 23.6393 86.8485 27.1393 86.5885C32.3493 87.1885 37.5893 87.5285 42.8393 87.5585C42.2393 94.1085 42.0593 100.679 42.2993 107.249C42.0893 108.579 41.9393 109.909 41.8193 111.239C41.8093 111.269 41.7893 111.299 41.7793 111.339C41.1393 113.679 40.7493 116.059 40.5693 118.469C40.3493 119.739 40.1393 121.009 39.9193 122.279C39.6093 122.849 39.7193 123.559 40.1593 124.029C40.2193 124.289 40.3093 124.539 40.5293 124.769C41.0793 125.359 41.8493 125.419 42.6093 125.409C43.5293 125.399 44.4593 125.289 45.3693 125.119C46.2593 125.209 47.1293 125.239 48.0093 125.199C49.0393 125.569 50.0793 125.469 51.1493 124.989C51.3093 124.919 51.4393 124.819 51.5493 124.719C51.8093 125.009 52.2793 124.949 52.4093 124.549C52.5593 124.109 52.4393 123.709 52.1293 123.379C52.0993 123.349 52.0793 123.339 52.0493 123.319C51.6893 122.749 51.3193 122.179 50.9593 121.599C49.8093 119.619 48.8993 117.519 48.2493 115.309C48.1793 115.079 48.0093 114.969 47.8193 114.959C47.7993 114.839 47.7793 114.719 47.7693 114.609C47.8493 113.299 47.9293 111.989 48.0093 110.679C48.5993 110.789 49.1893 110.819 49.7793 110.749C49.9193 110.749 50.0493 110.779 50.1893 110.779C50.3693 110.759 50.5393 110.729 50.7193 110.709C50.9793 110.649 51.2093 110.529 51.3993 110.349C51.5493 110.259 51.6693 110.139 51.7593 109.989C51.9393 109.799 52.0593 109.569 52.1193 109.309C52.1993 108.959 52.1993 108.599 52.1193 108.249C52.0993 108.159 52.0593 108.069 52.0193 107.989C52.0893 107.889 52.1493 107.769 52.1893 107.619C52.3193 107.069 52.4293 106.529 52.5493 105.979C52.6093 105.899 52.6593 105.809 52.6993 105.699C54.1793 100.829 55.1193 95.8285 55.8493 90.7985C56.3793 87.9785 56.8493 85.1585 57.2093 82.3085C57.2993 81.6385 57.3893 80.9685 57.4593 80.2885C57.4793 80.1285 57.4593 79.9885 57.4193 79.8685C57.5593 79.4385 57.6293 78.9685 57.6193 78.4585C57.6193 77.9985 57.5693 77.5185 57.5093 77.0485L57.4893 77.0785ZM50.8493 73.1885C50.8093 72.6885 51.0593 73.0885 50.8493 73.3785C50.8493 73.3185 50.8493 73.2485 50.8493 73.1885ZM15.9293 113.579C15.9293 113.479 15.9293 113.379 15.9293 113.279C15.9493 113.369 15.9593 113.459 15.9793 113.559C15.9593 113.559 15.9493 113.579 15.9293 113.579ZM45.8893 121.629C45.9293 121.699 45.9693 121.769 46.0193 121.839C45.9693 121.849 45.9293 121.859 45.8793 121.869C45.8793 121.789 45.8793 121.709 45.8893 121.619V121.629ZM49.5093 121.689C49.6093 121.829 49.7193 121.959 49.8193 122.089C49.7793 122.089 49.7393 122.089 49.6993 122.079C49.6393 121.949 49.5793 121.819 49.5093 121.689Z" fill="#673B82"/>
<path d="M46.8793 9.48824C46.8493 13.2482 46.3593 16.9782 45.3793 20.6182C45.0393 21.8782 44.6793 23.2682 43.7793 24.2682C43.4393 24.6482 43.0193 24.9682 42.4993 25.0282C41.7193 25.1282 40.9293 24.7882 40.1393 24.8182C38.2793 24.8982 37.5893 26.4982 36.8393 27.9382C36.1693 29.2382 35.5793 30.8582 34.5093 31.8882C33.3493 33.0082 32.2793 31.5982 31.5593 30.6582C30.5893 29.4082 29.8693 27.9582 29.4393 26.4382C28.9793 24.8082 28.6493 22.8982 29.5393 21.3682C30.3393 19.9982 31.4593 18.8382 31.4493 17.1482C31.4493 15.8582 29.4393 15.8582 29.4493 17.1482C29.4493 18.5682 28.0893 19.6782 27.5293 20.9082C26.7393 22.6182 26.9393 24.5882 27.3593 26.3782C27.7793 28.1682 28.4893 29.7482 29.4893 31.1882C30.4193 32.5382 31.7093 34.2682 33.5093 34.3482C35.1393 34.4182 36.3293 33.0482 37.0793 31.7682C37.5593 30.9582 37.9693 30.0982 38.3993 29.2582C38.7593 28.5682 39.0793 27.5882 39.6493 27.0382C40.2193 26.4882 41.3493 26.9682 42.0193 27.0182C42.7993 27.0682 43.6093 26.8782 44.2693 26.4482C45.5593 25.6182 46.3093 24.1982 46.8093 22.7882C47.5393 20.7582 47.9693 18.5682 48.2993 16.4382C48.6593 14.1382 48.8593 11.8082 48.8793 9.47824C48.8893 8.18824 46.8893 8.18824 46.8793 9.47824V9.48824Z" fill="#191817"/>
<path d="M35.5393 15.7183C36.0093 14.6183 35.8193 13.4683 35.0493 12.5483C34.2793 11.6283 33.1693 11.3383 32.0593 11.5683C31.0293 11.7783 30.0693 12.5683 29.6293 13.5083C29.0993 14.6483 29.1793 15.8883 29.6693 17.0283C30.1993 18.2483 31.3793 19.3683 32.7893 19.3383C33.3093 19.3283 33.8093 18.8883 33.7893 18.3383C33.7693 17.7883 33.3493 17.3283 32.7893 17.3383C32.7093 17.3383 32.5293 17.3183 32.6993 17.3483C32.6093 17.3283 32.5293 17.2983 32.4393 17.2783C32.5893 17.3183 32.4193 17.2683 32.3493 17.2283C32.3093 17.2083 32.2693 17.1783 32.2293 17.1583C32.1993 17.1383 32.0493 17.0083 32.1793 17.1283C32.0393 17.0083 31.9193 16.8783 31.7993 16.7383C31.9093 16.8583 31.7693 16.6983 31.7393 16.6483C31.6793 16.5583 31.6293 16.4683 31.5693 16.3783C31.5293 16.2983 31.4893 16.2183 31.4493 16.1383C31.3993 16.0383 31.4493 16.1483 31.4593 16.1683C31.4393 16.1283 31.4293 16.0883 31.4093 16.0383C31.3393 15.8583 31.2993 15.6683 31.2593 15.4783C31.2593 15.4383 31.2193 15.2883 31.2593 15.4783C31.2593 15.4383 31.2593 15.3883 31.2593 15.3483C31.2593 15.2583 31.2593 15.1683 31.2593 15.0783C31.2593 15.0383 31.2793 14.7983 31.2593 14.8983C31.2393 15.0183 31.2593 14.8683 31.2693 14.8583C31.2793 14.7983 31.2993 14.7383 31.3093 14.6883C31.3293 14.5983 31.3693 14.5183 31.3893 14.4283C31.3393 14.5883 31.3893 14.4483 31.4193 14.3683C31.4593 14.2983 31.4993 14.2283 31.5493 14.1583C31.5493 14.1483 31.6393 14.0283 31.5693 14.1283C31.4993 14.2283 31.6093 14.0883 31.6193 14.0683C31.6793 13.9983 31.7493 13.9283 31.8193 13.8683C31.8793 13.8183 32.0093 13.7283 31.8693 13.8183C31.9393 13.7783 31.9993 13.7283 32.0693 13.6883C32.1093 13.6683 32.1393 13.6483 32.1793 13.6283C32.1993 13.6183 32.3593 13.5383 32.2393 13.5883C32.1293 13.6383 32.3493 13.5483 32.3793 13.5383C32.4593 13.5183 32.5393 13.4983 32.6093 13.4783C32.7193 13.4483 32.5593 13.4783 32.5393 13.4783C32.5793 13.4783 32.6193 13.4783 32.6593 13.4783C32.7493 13.4783 32.8493 13.4783 32.9393 13.4783C32.7493 13.4783 32.9193 13.4783 33.0193 13.5083C33.0593 13.5183 33.2593 13.6083 33.1393 13.5483C33.0193 13.4783 33.2193 13.5983 33.2493 13.6183C33.2793 13.6383 33.3093 13.6583 33.3393 13.6783C33.4393 13.7483 33.3593 13.7083 33.3093 13.6583C33.3693 13.7183 33.4393 13.7783 33.4993 13.8383C33.5293 13.8683 33.5493 13.8983 33.5693 13.9183C33.5193 13.8683 33.4893 13.7983 33.5493 13.8983C33.5993 13.9683 33.6393 14.0483 33.6793 14.1183C33.6993 14.1483 33.7093 14.1883 33.7293 14.2183C33.6993 14.1583 33.6793 14.0683 33.7093 14.1883C33.7193 14.2283 33.8093 14.4283 33.7793 14.4683C33.7793 14.4783 33.7793 14.2583 33.7693 14.3783C33.7693 14.4283 33.7693 14.4783 33.7693 14.5183C33.7693 14.5583 33.7693 14.5883 33.7693 14.6283C33.7693 14.7883 33.7893 14.5883 33.7693 14.5783C33.7893 14.5983 33.6393 14.9683 33.7693 14.6883C33.5693 15.1683 33.6093 15.7783 34.1293 16.0583C34.5593 16.2883 35.2793 16.2183 35.4993 15.6983L35.5393 15.7183Z" fill="#191817"/>
<path d="M34.1193 15.0884C33.7793 16.8984 35.4693 18.7084 37.3493 18.2684C39.4293 17.7784 39.5793 15.3284 39.7493 13.6084C39.8593 12.4784 39.9493 11.3484 40.0893 10.2184C40.1793 9.50841 40.2993 8.67841 41.1293 8.58841C43.1393 8.34841 45.3093 9.27841 46.8793 10.4584C47.5293 10.9484 48.3493 10.2684 48.3793 9.59841C48.6493 4.29841 43.9593 -0.22159 38.7293 0.00840984C37.2293 0.0784098 35.6993 0.34841 34.2293 0.68841C32.8793 0.99841 31.5593 1.47841 30.4593 2.34841C28.2593 4.08841 27.4893 6.95841 27.1393 9.62841C26.6793 13.1684 27.0393 16.8084 28.1293 20.2084C28.5193 21.4284 30.4493 20.9084 30.0593 19.6784C29.2093 17.0284 28.8293 14.2684 28.9693 11.4784C29.0893 9.20841 29.4393 6.58841 30.8793 4.73841C32.3193 2.88841 35.0793 2.47841 37.3393 2.15841C39.5993 1.83841 41.8293 2.08841 43.6393 3.60841C45.4493 5.12841 46.4993 7.27841 46.3793 9.61841L47.8793 8.75841C46.3293 7.58841 44.4893 6.88841 42.5593 6.66841C41.6193 6.55841 40.5393 6.49841 39.6893 6.98841C38.9393 7.41841 38.4893 8.19841 38.2793 9.01841C37.7893 10.8984 37.9093 12.9384 37.6093 14.8484C37.5393 15.2784 37.3993 16.3084 36.7993 16.3584C36.4893 16.3784 35.9693 15.9784 36.0293 15.6384C36.2693 14.3784 34.3393 13.8384 34.0993 15.1084L34.1193 15.0884Z" fill="#191817"/>
<path d="M27.8794 21.0579C22.7594 23.4679 17.3794 26.0579 13.6294 30.4379C11.5794 32.8279 10.2494 35.6279 9.40935 38.6579C8.45935 42.0479 7.89935 45.5679 7.31935 49.0279C6.63935 53.0679 6.07935 57.1279 5.62935 61.1879C5.54935 61.8979 6.32935 62.2479 6.89935 62.1479C9.94935 61.6479 13.0894 63.3679 14.4794 66.0779C14.8994 66.9079 16.0294 66.5879 16.3094 65.8379C18.9494 58.5679 19.9294 50.6879 19.1194 42.9879C18.8894 40.7879 18.5294 38.6079 18.0194 36.4579C17.7294 35.2079 15.7994 35.7379 16.0894 36.9879C18.2894 46.3579 17.6694 56.2679 14.3794 65.3079L16.2094 65.0679C14.3794 61.4979 10.2794 59.5679 6.36935 60.2179L7.63935 61.1779C8.39935 54.3179 9.36935 47.3979 10.9694 40.6879C11.6694 37.7579 12.6794 34.9079 14.5294 32.4979C16.1694 30.3679 18.2994 28.6479 20.5494 27.1979C23.2094 25.4879 26.0594 24.1179 28.9094 22.7779C30.0694 22.2279 29.0594 20.5079 27.8994 21.0479L27.8794 21.0579Z" fill="#191817"/>
<path d="M43.1593 26.058C45.7093 27.418 48.3193 28.818 50.4593 30.788C51.4893 31.738 52.3893 32.798 53.0693 34.028C53.8893 35.508 54.2993 37.168 54.5993 38.818C55.2293 42.348 55.4993 45.958 55.6193 49.538C55.6793 51.318 55.6793 53.108 55.6293 54.888C55.5793 56.668 55.5293 58.328 55.1993 60.008C54.5993 62.968 52.6493 66.368 49.1893 66.258C47.8993 66.218 47.8993 68.218 49.1893 68.258C52.4993 68.368 55.1893 65.868 56.3893 62.958C57.0893 61.268 57.3593 59.448 57.4993 57.638C57.6493 55.668 57.6693 53.688 57.6593 51.718C57.6293 47.738 57.3193 43.768 56.7693 39.828C56.2793 36.318 55.3093 33.038 52.8793 30.358C50.4493 27.678 47.2793 25.968 44.1693 24.308C43.0393 23.698 42.0193 25.428 43.1593 26.038V26.058Z" fill="#191817"/>
<path d="M42.5992 63.3984C43.8192 63.4984 45.1192 63.9484 46.2392 64.6484C46.3792 64.7384 46.5092 64.8284 46.6392 64.9184C46.7092 64.9684 46.7892 65.0184 46.8592 65.0784C46.7692 65.0084 46.9292 65.1284 46.9492 65.1584C47.2092 65.3684 47.4692 65.5984 47.7092 65.8484C48.2292 66.3784 48.5392 66.7884 48.9192 67.4384C49.1892 67.9084 49.8192 68.0684 50.2892 67.7984C50.7592 67.5284 50.9192 66.8984 50.6492 66.4284C48.9592 63.5484 45.9092 61.6784 42.5992 61.4084C42.0592 61.3684 41.5992 61.8984 41.5992 62.4084C41.5992 62.9884 42.0592 63.3684 42.5992 63.4084V63.3984Z" fill="#191817"/>
<path d="M47.4393 37.2184C46.8093 41.2084 46.1693 45.1984 45.5393 49.1884L44.6093 55.0584C44.3393 56.7484 44.3193 58.8884 43.2493 60.2984C42.2493 61.6284 40.7293 62.6384 39.4993 63.7484C38.1493 64.9684 36.8293 66.2284 35.5493 67.5184C32.9993 70.0984 30.5693 72.8184 28.3693 75.6984C26.1693 78.5784 23.9393 82.5584 25.2293 86.4184C25.4193 86.9784 25.8993 87.2084 26.4593 87.1184C30.3093 86.5084 33.8193 84.2384 35.9793 80.9984C37.1793 79.1984 37.9193 77.1284 39.2893 75.4284C40.4793 73.9484 41.9593 72.7284 43.5393 71.6884C45.4193 70.4484 47.4193 69.4284 49.4293 68.4284C50.5793 67.8484 49.5693 66.1284 48.4193 66.6984C44.9693 68.4284 41.4093 70.2384 38.7093 73.0684C37.2693 74.5784 36.2893 76.3284 35.3193 78.1484C34.3493 79.9684 33.2793 81.4684 31.6993 82.7084C30.0193 84.0184 28.0293 84.8484 25.9293 85.1784L27.1593 85.8784C26.0693 82.6284 28.0593 79.3784 29.9693 76.8684C32.0993 74.0684 34.4993 71.4284 36.9693 68.9284C38.2493 67.6384 39.5593 66.3784 40.9193 65.1584C42.1793 64.0284 43.6393 62.9984 44.6993 61.6684C45.8893 60.1784 46.0893 58.3884 46.3793 56.5584L47.2693 50.9384L49.3593 37.7384C49.4393 37.2084 49.2193 36.6584 48.6593 36.5084C48.1793 36.3784 47.5193 36.6684 47.4293 37.2084L47.4393 37.2184Z" fill="#191817"/>
<path d="M5.90927 61.6786C6.11927 62.7986 6.34927 63.9986 6.16927 65.1386C5.96927 66.3686 5.17927 67.0786 4.35927 67.9486C2.68927 69.7286 1.76927 72.0686 1.74927 74.5086C1.74927 75.2086 2.62927 75.8386 3.24927 75.3686C6.01927 73.2986 9.50927 73.2986 12.8193 73.2386C13.6993 73.2186 14.6093 73.1386 15.3693 72.6486C16.1293 72.1586 16.6493 71.3286 16.5993 70.4386C16.5493 69.5486 15.9693 68.8386 15.4993 68.1386C14.9293 67.3186 14.3393 66.5186 13.7293 65.7286V67.1386C14.3493 66.4886 14.7893 65.7186 14.9693 64.8386C15.2293 63.5786 13.3093 63.0486 13.0393 64.3086C12.9193 64.8586 12.7093 65.3186 12.3093 65.7286C11.9093 66.1386 11.9693 66.7086 12.3093 67.1386C12.8193 67.7886 13.2993 68.4686 13.7693 69.1486C14.0093 69.5086 14.7393 70.2486 14.5593 70.6886C14.3193 71.2686 13.3293 71.2286 12.8293 71.2386C12.0793 71.2486 11.3193 71.2486 10.5693 71.2786C7.66927 71.3986 4.63927 71.8586 2.24927 73.6386L3.74927 74.4986C3.74927 73.3286 4.00927 72.1686 4.53927 71.1186C5.10927 70.0086 5.94927 69.2486 6.74927 68.3286C8.55927 66.2586 8.30927 63.6586 7.82927 61.1386C7.58927 59.8786 5.65927 60.4086 5.89927 61.6686L5.90927 61.6786Z" fill="#191817"/>
<path d="M15.1692 65.3688C15.8192 66.8488 17.4192 67.5388 18.8992 67.8788C20.8692 68.3188 22.9292 68.5288 24.9392 68.6388C29.0692 68.8688 33.2392 68.4688 37.2592 67.5088C38.5092 67.2088 37.9792 65.2788 36.7292 65.5788C33.0992 66.4388 29.3792 66.8088 25.6392 66.6688C23.7992 66.5988 21.9692 66.4088 20.1592 66.0888C18.9392 65.8688 17.4292 65.6088 16.8792 64.3588C16.6592 63.8688 15.9392 63.7488 15.5092 63.9988C14.9992 64.2988 14.9292 64.8688 15.1492 65.3688H15.1692Z" fill="#191817"/>
<path d="M49.5092 69.0982C51.8792 68.5882 54.1392 70.2782 55.2692 72.2382C56.7392 74.7782 56.5792 77.9682 56.3092 80.7882C55.6892 87.1182 54.5892 93.4282 53.1992 99.6282C52.3892 103.218 51.4592 106.788 50.4292 110.318L51.3892 109.588C48.3292 109.478 45.3092 109.028 42.3592 108.248L43.0892 109.208C43.2992 98.8882 44.0392 88.5782 45.3092 78.3282C45.3792 77.7882 44.7992 77.3282 44.3092 77.3282C43.7092 77.3282 43.3792 77.7882 43.3092 78.3282C42.0392 88.5782 41.2992 98.8882 41.0892 109.208C41.0892 109.638 41.4092 110.058 41.8192 110.168C44.9392 110.998 48.1592 111.468 51.3892 111.578C51.8292 111.598 52.2292 111.258 52.3492 110.848C54.3192 104.168 55.8692 97.3682 56.9992 90.4882C57.5592 87.0882 58.0592 83.6582 58.3592 80.2182C58.6292 77.1282 58.5592 73.6982 56.8492 70.9882C55.1392 68.2782 52.1492 66.4882 48.9692 67.1682C47.7092 67.4382 48.2392 69.3682 49.4992 69.0982H49.5092Z" fill="#191817"/>
<path d="M41.1092 108.808C40.4492 113.048 39.7992 117.288 39.1392 121.528C38.8792 123.238 38.6692 125.258 40.6792 125.958C41.5192 126.248 42.5092 126.228 43.3892 126.298C44.3292 126.368 45.2792 126.418 46.2192 126.438C48.4292 126.468 50.6792 126.238 52.7592 125.468C53.3692 125.238 53.6892 124.598 53.3592 123.998C52.0692 121.668 50.7792 119.338 49.4892 117.008C48.9192 115.968 48.5292 115.098 48.6492 113.888C48.7692 112.678 49.1092 111.578 49.1692 110.388C49.2292 109.098 47.2292 109.108 47.1692 110.388C47.1092 111.668 46.7192 112.848 46.6392 114.108C46.5592 115.368 46.9492 116.518 47.5492 117.628C48.8992 120.098 50.2692 122.558 51.6392 125.018L52.2392 123.548C50.1992 124.308 48.0592 124.498 45.8892 124.448C44.7592 124.418 43.6292 124.338 42.4992 124.248C41.7592 124.188 40.9292 124.268 40.9292 123.348C40.9292 122.308 41.2092 121.258 41.3592 120.238L41.9292 116.528L43.0392 109.368C43.1192 108.838 42.8992 108.288 42.3392 108.138C41.8692 108.008 41.1892 108.298 41.1092 108.838V108.808Z" fill="#191817"/>
<path d="M40.9993 116.869C43.0593 116.099 45.2493 115.899 47.3693 116.349C47.8993 116.459 48.4493 116.189 48.5993 115.649C48.7393 115.149 48.4293 114.529 47.8993 114.419C45.4293 113.899 42.8293 114.049 40.4593 114.939C39.9493 115.129 39.6093 115.619 39.7593 116.169C39.8893 116.649 40.4793 117.059 40.9893 116.869H40.9993Z" fill="#191817"/>
<path d="M16.3893 86.6685C25.1793 87.6185 34.0193 88.1085 42.8593 88.1285C44.1493 88.1285 44.1493 86.1285 42.8593 86.1285C34.0193 86.1085 25.1793 85.6185 16.3893 84.6685C15.8493 84.6085 15.3893 85.1685 15.3893 85.6685C15.3893 86.2585 15.8493 86.6085 16.3893 86.6685Z" fill="#191817"/>
<path d="M15.0493 77.5486C15.2393 89.8386 16.8693 102.109 19.9093 114.029C20.7693 117.409 21.7493 120.759 22.8393 124.069C23.2393 125.289 25.1693 124.769 24.7693 123.539C20.9793 111.989 18.5393 99.9985 17.5493 87.8785C17.2693 84.4385 17.1093 80.9986 17.0493 77.5486C17.0293 76.2586 15.0293 76.2586 15.0493 77.5486Z" fill="#191817"/>
<path d="M2.13929 73.2282C0.889293 75.0382 0.859293 77.3182 1.12929 79.4282C1.44929 81.9282 1.95929 84.4182 2.47929 86.8882C3.56929 91.9882 4.76929 97.0682 6.01929 102.138C6.71929 104.998 7.44929 107.858 8.18929 110.708C8.30929 111.178 8.70929 111.388 9.14929 111.438C12.7193 111.858 16.2993 111.228 19.5593 109.728C20.0493 109.498 20.1693 108.798 19.9193 108.358C19.6293 107.858 19.0393 107.768 18.5493 107.998C15.6093 109.348 12.3593 109.808 9.14929 109.438L10.1093 110.168C8.83929 105.298 7.62929 100.408 6.46929 95.5182C5.30929 90.6282 4.16929 85.8182 3.34929 80.9082C2.97929 78.7282 2.50929 76.1982 3.84929 74.2482C4.57929 73.1882 2.84929 72.1882 2.11929 73.2382L2.13929 73.2282Z" fill="#191817"/>
<path d="M12.5693 111.708C12.5393 114.148 11.6093 116.558 9.92935 118.338C8.24935 120.118 6.19935 121.258 5.31935 123.598C5.06935 124.258 5.69935 124.818 6.27935 124.868C12.2793 125.388 18.3093 125.438 24.3093 125.038C25.5893 124.948 25.5993 122.948 24.3093 123.038C18.2993 123.448 12.2793 123.388 6.27935 122.868L7.23935 124.138C7.62935 123.098 8.49935 122.318 9.31935 121.598C10.2593 120.778 11.2093 119.998 11.9893 119.008C13.6293 116.928 14.5293 114.368 14.5593 111.718C14.5793 110.428 12.5793 110.428 12.5593 111.718L12.5693 111.708Z" fill="#191817"/>
<path d="M13.7394 115.769C16.1794 115.769 18.5794 116.099 20.9394 116.729C21.4594 116.869 22.0294 116.549 22.1694 116.029C22.3094 115.509 21.9893 114.939 21.4693 114.799C18.9493 114.119 16.3494 113.769 13.7394 113.759C12.4494 113.759 12.4494 115.759 13.7394 115.759V115.769Z" fill="#191817"/>
</svg>
