<svg width="59" height="125" viewBox="0 0 59 125" fill="none" xmlns="http://www.w3.org/2000/svg">
<g id="nb" clip-path="url(#clip0_111_24794)">
<g id="fill">
<path id="Vector" d="M55.9401 99.8997C55.5001 98.8897 54.7401 98.1597 53.6701 97.7697C52.3801 96.4697 51.0601 95.1897 49.7101 93.9497C49.6001 93.8197 49.4901 93.6997 49.3701 93.5797C49.1401 93.2497 48.9101 92.9197 48.6901 92.5797C48.0601 91.5097 47.4301 90.4397 46.8001 89.3697C46.8001 88.9397 46.7001 88.4997 46.5101 88.0897C45.4701 85.8297 44.4401 83.5797 43.4001 81.3197C43.0001 80.4497 42.6301 79.4797 42.1901 78.5597C44.1801 78.5497 46.3001 77.2697 46.5501 74.7297C47.0001 69.9397 46.6001 65.2197 45.4901 60.5397C45.4401 60.3497 45.3701 60.1797 45.3001 60.0097C45.4101 59.9797 45.5101 59.9397 45.6101 59.8997C47.9901 60.9997 51.3001 58.7797 51.0901 56.1297L50.3101 46.6597C50.5301 44.5697 50.5901 42.5097 50.4701 40.4397C51.6801 37.2597 50.5401 34.4597 48.2601 32.3397C47.7801 31.5697 47.2201 30.8497 46.5701 30.1997C46.4601 30.0897 46.3601 29.9797 46.2501 29.8697C46.2301 29.8497 46.2101 29.8297 46.1901 29.8097C45.5801 29.2297 44.8901 28.7097 44.1001 28.2397C43.8101 28.0597 43.5101 27.8897 43.2001 27.7397C41.9501 27.1297 40.7501 27.1997 39.7401 27.6597C39.4301 27.4897 39.1101 27.3597 38.8001 27.2097C38.4001 26.9097 37.9301 26.6797 37.3501 26.5497C37.1101 26.4997 36.8701 26.4497 36.6301 26.3897C36.0301 26.2197 35.4101 26.0797 34.7701 25.9897C34.7001 25.9797 34.6401 25.9897 34.5801 25.9797C35.0101 23.4397 35.4801 20.9097 36.0101 18.3997C36.0501 18.3997 36.0801 18.3997 36.1201 18.3897C36.3001 18.3897 36.4701 18.3397 36.6201 18.2497C36.7901 18.1997 36.9401 18.1197 37.0601 17.9897C37.2801 17.8497 37.4501 17.6597 37.5801 17.4297C37.7301 17.2097 37.8701 16.9897 38.0201 16.7697C38.1701 16.5397 38.2501 16.2897 38.2601 16.0297C38.3101 15.8197 38.3001 15.5997 38.2601 15.3897C38.2601 15.3697 38.2601 15.3497 38.2601 15.3397C38.2601 15.2597 38.2601 15.1697 38.2601 15.0897C38.2401 14.9097 38.2101 14.7397 38.1901 14.5597L37.9901 14.0797C37.8901 13.9497 37.7801 13.8097 37.6801 13.6797C37.6501 13.6497 37.6101 13.6197 37.5801 13.5897C38.5101 10.8797 39.0201 7.90972 38.8501 5.05972C38.7301 3.06972 37.4701 2.25972 35.6801 1.81972C34.0601 1.41972 32.3701 1.19972 30.7001 1.15972C29.1701 1.12972 27.4501 1.13972 26.0801 1.91972C24.8101 2.63972 24.0701 3.95972 23.8501 5.36972C23.7101 6.25972 23.6701 7.39972 23.8501 8.46972C23.5801 9.22972 23.4501 10.0597 23.4201 10.8197C23.4001 11.2297 23.4001 11.6497 23.4001 12.0597C23.1001 14.3697 22.9601 16.6997 23.1101 19.0097C23.2301 20.8997 23.9301 22.7997 25.3201 23.8297C25.1601 24.3597 25.0101 24.8897 24.8501 25.4197C22.3601 25.5697 19.8401 25.6297 17.3701 25.9097C16.9101 25.9597 16.4701 26.0697 16.0401 26.2097C15.7001 26.1097 15.3501 26.0997 15.0301 26.2297C13.2701 26.9397 11.9401 28.1997 11.3601 30.0097C9.02006 33.0897 7.20006 36.5297 5.93006 40.2097C5.40006 40.4097 4.94006 40.8797 4.74006 41.3497C4.43006 42.0797 4.58006 42.9697 5.15006 43.5297C5.23006 43.6097 5.31006 43.6897 5.39006 43.7697C5.07006 44.0197 4.82006 44.3697 4.65006 44.7997C4.45006 45.3197 4.25006 45.8297 4.05006 46.3497C3.87006 46.6497 3.69006 46.9497 3.52006 47.2597C2.45006 49.1197 1.61006 51.0797 1.51006 53.2497C1.51006 53.3297 1.51006 53.4197 1.53006 53.4997C1.41006 53.7897 1.35006 54.1097 1.33006 54.4497C1.30006 55.4297 1.74006 56.4597 2.29006 57.2597C2.47006 57.5197 2.67006 57.7597 2.88006 57.9897C2.97006 58.3197 3.14006 58.6297 3.37006 58.9197C5.47006 61.5597 8.58006 63.0697 11.8301 63.4097C10.5901 64.5997 9.63006 66.0697 9.07006 67.7097C8.80006 68.0497 8.61006 68.4197 8.51006 68.8097C7.51006 70.4897 6.60006 72.4597 7.37006 74.3397C8.46006 76.9897 11.8001 76.6297 14.1601 76.6997C15.0601 76.7297 15.9701 76.7297 16.8701 76.7397C17.3301 76.8497 17.8001 76.9597 18.2601 77.0797C19.0401 77.2697 19.8501 77.5597 20.6601 77.5697C20.7201 77.5697 20.7801 77.5497 20.8401 77.5497C20.7301 77.9897 20.6301 78.4397 20.5301 78.8797C18.9401 83.4097 17.5801 88.0097 16.4501 92.6697C15.4401 95.0097 14.4801 97.3797 13.5901 99.7697C12.7801 101.22 12.2801 102.76 12.0601 104.5C11.9501 105.39 12.7701 106.18 13.5301 106.43C13.7201 106.49 13.9101 106.54 14.1001 106.6C13.1601 108.48 12.3101 110.4 11.5601 112.37C11.2001 113.32 10.6801 114.5 10.3701 115.67C9.89006 116.76 9.41006 117.86 8.94006 118.95C8.84006 119.18 8.77006 119.41 8.73006 119.64C7.78006 119.95 7.25006 121.11 7.50006 122.04C7.82006 123.19 8.89006 123.59 9.96006 123.44L12.4901 123.08C13.2101 123.2 13.9501 123.18 14.6701 123.03C15.0001 123.06 15.3301 123.1 15.6701 123.16C17.5001 123.51 19.5701 123.68 20.9301 122.13C21.5701 121.41 21.6501 120.56 21.2401 119.71C20.9001 118.98 20.7101 118.19 20.5901 117.4C20.5601 117.2 20.4801 117.03 20.3801 116.86C20.2501 114.12 20.7001 111.35 21.1601 108.66C21.2001 108.42 21.2001 108.17 21.1801 107.94C21.2201 107.78 21.2601 107.62 21.3001 107.46C21.6401 107.44 21.9901 107.42 22.3301 107.38C22.9301 107.59 23.5901 107.54 24.1001 107.16C25.4201 106.93 25.7201 105.4 25.3201 104.36C26.3401 100.88 27.3501 97.3897 28.3401 93.8997C29.0501 92.4297 29.7601 90.9597 30.4901 89.4997C31.3901 87.7097 32.2301 85.5497 33.8501 84.2597C34.3301 84.9197 34.8201 85.5797 35.3101 86.2397C35.4101 86.5997 35.5501 86.9697 35.7801 87.3397C36.4001 88.1997 36.8901 89.1397 37.2501 90.1397C38.0301 91.9297 39.8201 92.3797 41.4601 91.9697C41.5101 92.0297 41.5501 92.0997 41.6001 92.1597C42.2901 93.5697 42.9801 94.9697 43.6701 96.3797C44.0901 97.2997 44.5001 98.2297 44.8901 99.1597C44.8701 99.3397 44.8801 99.5197 44.9201 99.7097C45.4601 102.1 46.1701 104.45 47.0501 106.73C47.4801 107.83 48.6401 108.15 49.5601 107.39C50.1001 106.95 50.6301 106.51 51.1701 106.06C51.5401 106.17 51.9501 106.14 52.3401 105.95C53.7801 105.22 55.0801 104.21 56.1601 103.01C56.9801 102.6 57.4701 101.46 56.6401 100.6C56.4101 100.36 56.1801 100.12 55.9501 99.8697L55.9401 99.8997ZM14.8201 46.1697C15.3001 45.9697 15.7001 45.7497 15.9801 45.2997C16.1101 46.5397 16.2501 47.7797 16.4101 49.0097C16.6401 51.3397 16.8801 53.6697 17.1101 55.9997C16.8301 55.9197 16.5501 55.8397 16.2701 55.7597C14.4501 55.0897 12.5901 54.5297 10.7001 54.0897C11.3901 51.3897 12.2501 48.7297 13.2801 46.1397C13.7801 46.3297 14.3301 46.3897 14.8301 46.1897L14.8201 46.1697ZM24.4601 69.9497C24.4601 69.9497 24.4601 69.9597 24.4701 69.9697C24.4501 69.9697 24.4301 69.9697 24.4101 69.9697C24.4301 69.9697 24.4401 69.9597 24.4601 69.9597V69.9497ZM15.6401 42.0197C15.6401 42.0197 15.6301 42.0197 15.6201 42.0097C15.6201 42.0097 15.6201 42.0097 15.6301 42.0097C15.6301 42.0097 15.6301 42.0197 15.6301 42.0297L15.6401 42.0197ZM37.8001 69.6897C37.8001 69.6897 37.8001 69.7697 37.8101 69.7997C37.7901 69.7597 37.7701 69.7197 37.7501 69.6797C37.7601 69.6797 37.7801 69.6797 37.7901 69.6897H37.8001ZM11.2601 72.6097C11.2501 72.6097 11.1901 72.6097 11.1301 72.6097C11.1301 72.5797 11.1401 72.5497 11.1501 72.5397C11.1901 72.5697 11.2301 72.5897 11.2701 72.6197L11.2601 72.6097ZM28.1401 5.34972C28.0701 5.53972 28.0101 5.73972 27.9601 5.93972C27.9101 5.91972 27.8501 5.89972 27.8001 5.88972C27.8101 5.83972 27.8201 5.77972 27.8401 5.72972C27.9201 5.48972 27.9201 5.41972 28.1401 5.33972V5.34972Z" fill="#B22700"/>
</g>
<g id="outline">
<path id="Vector_2" d="M22.2156 11.2461C22.0169 13.5412 21.7188 15.8462 21.6592 18.1412C21.6095 20.1084 21.9672 22.175 23.3979 23.6355C24.61 24.8774 26.3884 25.4934 28.0973 25.5033C29.9254 25.5033 31.6144 24.7979 33.0053 23.6355C34.6347 22.2843 35.7176 20.3568 36.3634 18.3598C36.7608 17.1378 34.8433 16.6211 34.4459 17.8332C33.5915 20.486 31.5349 23.3175 28.5145 23.5063C27.2329 23.5858 25.8618 23.2579 24.918 22.3439C23.7555 21.2311 23.6065 19.562 23.6562 18.0319C23.7257 15.7667 24.0139 13.4915 24.2126 11.2362C24.3218 9.96448 22.3348 9.97442 22.2255 11.2362L22.2156 11.2461Z" fill="black"/>
<path id="Vector_3" d="M37.4464 14.6748C37.3272 14.8834 37.3371 14.6052 37.4464 14.9231C37.5855 15.3007 37.3669 15.8769 37.2278 16.2247C36.8205 17.1983 36.1052 17.7547 35.2905 18.3707C34.2373 19.1655 34.128 20.3081 33.9194 21.5202C33.6909 22.8316 33.4524 24.153 33.2239 25.4645C33.1345 25.9911 33.363 26.5375 33.9194 26.6865C34.3963 26.8157 35.052 26.5276 35.1414 25.9911C35.4395 24.312 35.7177 22.6329 36.0257 20.9539C36.0853 20.626 36.1151 20.2882 36.3535 20.0498C36.5721 19.8312 36.89 19.6722 37.1384 19.4835C37.7147 19.0463 38.1916 18.5098 38.589 17.9037C39.3242 16.7612 39.8607 15.0424 39.1155 13.7806C38.3704 12.5188 36.4728 12.3896 35.7375 13.6812C35.1017 14.794 36.8205 15.7975 37.4564 14.6847L37.4464 14.6748Z" fill="black"/>
<path id="Vector_4" d="M23.7953 23.8048L23.3382 24.9871C23.2985 25.1162 23.2885 25.2553 23.3184 25.3845C23.3184 25.5136 23.368 25.6428 23.4376 25.7521C23.4972 25.8713 23.5866 25.9607 23.6959 26.0303C23.7953 26.1197 23.9045 26.1793 24.0337 26.2091C24.292 26.2687 24.5702 26.2588 24.7987 26.1098L24.9974 25.9508C25.1166 25.8316 25.2061 25.6825 25.2557 25.5136L25.7128 24.3313C25.7525 24.2022 25.7624 24.0631 25.7326 23.9339C25.7326 23.8048 25.683 23.6756 25.6134 23.5663C25.5538 23.4471 25.4644 23.3577 25.3551 23.2881C25.2557 23.1987 25.1465 23.1391 25.0173 23.1093C24.759 23.0497 24.4808 23.0596 24.2523 23.2086L24.0536 23.3676C23.9343 23.4868 23.8449 23.6359 23.7953 23.8048Z" fill="black"/>
<path id="Vector_5" d="M23.8847 12.0714C24.2225 9.88566 24.461 7.66015 24.9279 5.49425C25.1167 4.61001 25.4247 3.78538 26.1003 3.15946C26.7064 2.60308 27.5012 2.28515 28.2861 2.11625C30.2731 1.6791 32.449 2.28515 34.3665 2.78192C35.1613 2.99056 35.9959 3.23894 36.6417 3.77545C37.3173 4.35169 37.6153 5.20613 37.7544 6.06057C38.1518 8.51458 37.3173 11.0481 36.6118 13.363C36.2343 14.5851 38.1518 15.1116 38.5294 13.8896C39.811 9.68695 41.4007 3.27868 36.0853 1.23201C35.0222 0.824663 33.8697 0.596152 32.757 0.36764C31.515 0.109322 30.2235 -0.089384 28.9517 0.0199043C26.8256 0.19874 24.6398 1.1724 23.6364 3.14952C23.0402 4.32189 22.8813 5.63335 22.6826 6.915L21.9672 11.525C21.8877 12.0516 22.1063 12.598 22.6627 12.747C23.1296 12.8762 23.8053 12.5881 23.8847 12.0516V12.0714Z" fill="black"/>
<path id="Vector_6" d="M24.1032 9.20031C26.7559 8.98173 29.4385 9.07115 32.0614 9.53811C32.6376 9.63746 33.2536 9.71694 33.81 9.90571C34.2869 10.0647 34.2571 10.5515 34.3167 11.0085C34.4856 12.3597 34.4955 13.7209 34.3863 15.082C34.3266 15.7775 35.0619 16.1451 35.648 16.0358C36.7807 15.8371 37.6152 15.0125 37.9928 13.9494C38.4299 12.7472 36.5025 12.2206 36.0753 13.4228C35.9163 13.85 35.5487 14.0388 35.1215 14.1183L36.3832 15.0721C36.5124 13.5023 36.4627 11.9424 36.2342 10.3925C36.1349 9.71694 35.966 9.04134 35.4394 8.56445C34.9128 8.08755 34.1975 7.93852 33.5318 7.79943C30.4419 7.15363 27.2626 6.95493 24.1132 7.21325C22.8514 7.32253 22.8414 9.30959 24.1132 9.20031H24.1032Z" fill="black"/>
<path id="Vector_7" d="M33.661 25.9907C37.3669 27.4313 41.4403 27.9777 44.878 30.0642C46.3484 30.9583 47.6499 32.1307 48.4745 33.6508C49.3687 35.2901 49.6171 37.1878 49.6568 39.0258C49.7065 41.1122 49.5476 43.1986 49.4482 45.2751C49.3389 47.5403 49.2396 49.7957 49.1303 52.0609C49.0806 53.124 49.0508 54.197 48.9812 55.2601C48.9415 55.9257 48.862 56.6311 48.6037 57.2571C48.3454 57.883 47.8983 58.3102 47.2028 58.3003C46.249 58.3003 45.2555 57.8929 44.3613 57.5949C40.0892 56.1642 36.3435 53.8095 32.9556 50.8786C31.9919 50.044 30.5811 51.4449 31.5547 52.2795C34.9129 55.1806 38.5492 57.5452 42.722 59.115C44.5402 59.7906 47.0439 60.9133 48.9018 59.8601C50.4815 58.9659 50.8491 56.9888 50.9683 55.3396C51.1372 52.9352 51.1968 50.5209 51.316 48.1067C51.4353 45.6924 51.5744 43.3377 51.6439 40.9433C51.7035 38.8271 51.6439 36.6413 51.018 34.6046C50.3921 32.5679 49.2793 30.9683 47.7294 29.6667C43.8646 26.4179 38.7578 25.8417 34.1975 24.0732C33.7008 23.8745 33.1046 24.2917 32.9755 24.7686C32.8165 25.335 33.1642 25.792 33.6709 25.9907H33.661Z" fill="black"/>
<path id="Vector_8" d="M22.0766 26.1492C21.401 27.9773 21.6493 30.0935 22.6329 31.7627C23.6165 33.4318 25.6533 35.0016 27.7596 34.326C29.7069 33.7001 31.5449 32.4383 33.0849 31.1268C34.6248 29.8154 36.0555 28.1065 37.1186 26.2883C37.7644 25.1855 36.0456 24.182 35.3998 25.2849C33.6909 28.1959 31.1574 30.5506 28.1172 32.021C27.3423 32.3985 26.6468 32.7165 25.842 32.2594C25.2161 31.9018 24.7094 31.3653 24.3517 30.7493C23.6165 29.4974 23.4973 28.0171 23.9941 26.6659C24.4412 25.4637 22.5237 24.9471 22.0766 26.1393V26.1492Z" fill="black"/>
<path id="Vector_9" d="M42.9603 46.447C45.3746 46.4868 47.7392 46.914 50.0144 47.6989C50.5211 47.8678 51.0973 47.5002 51.2364 47.0034C51.3855 46.457 51.0477 45.9602 50.541 45.7814C48.0969 44.9468 45.5336 44.5096 42.9603 44.46C42.4238 44.46 41.9668 44.9269 41.9668 45.4535C41.9668 45.9801 42.4238 46.4371 42.9603 46.447Z" fill="black"/>
<path id="Vector_10" d="M39.7611 34.6933L38.8371 39.1146C38.5291 40.5651 38.1417 42.0355 37.943 43.506C37.7641 44.8472 38.2609 46.109 39.6618 46.4667C41.0626 46.8244 42.6821 46.8442 44.1426 46.7945C45.4143 46.7548 45.4242 44.7677 44.1426 44.8075C42.9305 44.8472 41.7084 44.8075 40.5063 44.6088C40.3374 44.579 40.0492 44.569 39.9101 44.4399C39.9896 44.5094 39.8803 44.2809 39.8704 44.1915C39.8307 43.6947 40.0095 43.1682 40.1088 42.7012L41.6786 35.2299C41.9369 33.978 40.0294 33.4514 39.7611 34.7033V34.6933Z" fill="black"/>
<path id="Vector_11" d="M40.9238 45.7822L40.129 50.0941L41.5895 49.498C39.1951 47.8785 36.6517 46.6366 33.9691 45.5636C32.8166 45.1065 31.7238 44.57 31.0283 43.507C30.3328 42.4439 29.6373 41.5895 28.4153 41.1225C26.3488 40.3376 23.3781 40.9635 21.8083 42.5333C19.5629 44.7787 22.2157 47.6997 24.2226 48.9316C24.8386 49.3092 25.5241 49.6172 26.2196 49.8358C26.9946 50.0841 27.7993 50.1636 28.5842 50.3921C30.0546 50.8193 31.2866 51.8228 32.459 52.7667C32.8762 53.1045 33.4525 53.174 33.8598 52.7667C34.2076 52.4189 34.2771 51.7036 33.8598 51.3658C32.8862 50.5809 31.9125 49.7761 30.7998 49.18C29.6175 48.5442 28.3954 48.3554 27.1138 48.0275C26.1004 47.7593 25.1267 47.2625 24.3319 46.567C23.7755 46.0802 22.5137 44.9476 23.0602 44.113C23.547 43.3679 24.779 43.0301 25.5937 42.8711C26.4084 42.7121 27.3324 42.7419 28.0775 43.1493C29.0313 43.6659 29.379 44.8284 30.1242 45.5735C30.9488 46.4081 32.0119 46.9048 33.075 47.342C35.7078 48.4249 38.2115 49.6172 40.5761 51.2168C41.0828 51.5546 41.9273 51.2366 42.0366 50.6206L42.8314 46.3087C43.0599 45.0569 41.1524 44.5204 40.9139 45.7822H40.9238Z" fill="black"/>
<path id="Vector_12" d="M4.71938 44.0829C7.61055 45.0168 10.4918 45.9507 13.383 46.8946C13.8897 47.0635 14.4659 46.7058 14.605 46.1991C14.754 45.6626 14.4262 45.146 13.9095 44.9771C11.0184 44.0432 8.13712 43.1092 5.24595 42.1654C4.73925 41.9965 4.163 42.3542 4.02391 42.8609C3.87488 43.3974 4.20274 43.914 4.71938 44.0829Z" fill="black"/>
<path id="Vector_13" d="M17.5956 54.7526C16.8604 49.2485 16.2444 43.7145 15.7576 38.1805L14.7641 39.1741C17.8639 39.1542 20.9637 39.1443 24.0635 39.1244H26.2691C26.6864 39.1145 27.5409 38.9456 27.829 39.3529C28.0476 39.6609 27.988 40.2073 27.9979 40.565C28.0178 41.1512 28.0376 41.7473 28.1966 42.3236C28.5344 43.5555 30.4519 43.029 30.1141 41.797C29.7962 40.6445 30.1737 39.3827 29.5081 38.3097C28.6139 36.8691 26.746 37.1274 25.2856 37.1373C21.7784 37.1572 18.2712 37.1771 14.7641 37.1969C14.2574 37.1969 13.7209 37.654 13.7705 38.1905C14.2673 43.7244 14.8734 49.2485 15.6086 54.7626C15.6781 55.2991 16.0159 55.7561 16.6021 55.7561C17.079 55.7561 17.6652 55.2991 17.5956 54.7626V54.7526Z" fill="black"/>
<path id="Vector_14" d="M29.4683 50.7893L30.4121 59.8105L31.6739 58.8567C28.6039 58.1811 25.5339 57.5155 22.4639 56.8399C21.9373 56.7206 21.3909 56.9988 21.2419 57.5353C21.1028 58.0321 21.4108 58.6381 21.9373 58.7574C25.0073 59.433 28.0774 60.0986 31.1474 60.7742C31.7137 60.9034 32.4787 60.496 32.4091 59.8204L31.4653 50.7992C31.4057 50.2627 31.048 49.8057 30.4718 49.8057C29.975 49.8057 29.4186 50.2627 29.4782 50.7992L29.4683 50.7893Z" fill="black"/>
<path id="Vector_15" d="M17.0989 35.8165L16.5326 37.3465C16.4928 37.4757 16.4829 37.6148 16.5127 37.7439C16.5127 37.8731 16.5624 38.0023 16.6319 38.1115C16.7511 38.3202 16.9896 38.5189 17.228 38.5686C17.4864 38.6282 17.7645 38.6182 17.9931 38.4692L18.1918 38.3102C18.311 38.191 18.4004 38.042 18.4501 37.8731L19.0164 36.3431C19.0561 36.2139 19.0661 36.0748 19.0363 35.9456C19.0363 35.8165 18.9866 35.6873 18.917 35.578C18.7978 35.3694 18.5594 35.1707 18.3209 35.121C18.0626 35.0614 17.7844 35.0713 17.5559 35.2204L17.3572 35.3793C17.238 35.4986 17.1485 35.6476 17.0989 35.8165Z" fill="black"/>
<path id="Vector_16" d="M14.2276 44.6192C14.1879 44.8378 14.1283 45.0564 14.0388 45.2551L14.1382 45.0166C14.0488 45.2352 13.9295 45.4438 13.7805 45.6326L13.9395 45.4339C13.9395 45.4339 13.8997 45.4836 13.8799 45.5035L14.8436 45.2451C14.6648 45.1955 14.4859 45.1359 14.2972 45.0862C14.168 45.0464 14.0289 45.0365 13.8997 45.0663C13.7706 45.0663 13.6414 45.116 13.5321 45.1855C13.4129 45.2451 13.3235 45.3346 13.2539 45.4438C13.1645 45.5432 13.1049 45.6525 13.0751 45.7816C13.0155 46.04 13.0254 46.3182 13.1745 46.5467C13.3235 46.7752 13.5123 46.9242 13.7706 47.0037C13.9494 47.0534 14.1283 47.113 14.317 47.1627C14.4959 47.2123 14.6648 47.2123 14.8436 47.1627C15.0125 47.113 15.1615 47.0335 15.2808 46.9043C15.4894 46.646 15.6881 46.3877 15.8173 46.0797C15.9464 45.7717 16.0756 45.4737 16.1253 45.1458C16.165 45.0166 16.1749 44.8775 16.1451 44.7484C16.1451 44.6192 16.0954 44.4901 16.0259 44.3808C15.9663 44.2615 15.8769 44.1721 15.7676 44.1026C15.6682 44.0132 15.5589 43.9536 15.4298 43.9237C15.1715 43.8641 14.8933 43.8741 14.6648 44.0231L14.4661 44.1821C14.3468 44.3013 14.2574 44.4503 14.2077 44.6192H14.2276Z" fill="black"/>
<path id="Vector_17" d="M44.4706 59.5032C45.027 62.9706 45.4343 66.4877 45.5138 69.9949C45.5436 71.4454 45.484 72.9159 45.0568 74.3068C44.8084 75.1215 43.954 77.3569 42.7717 76.9098C42.2749 76.7211 41.6788 77.1185 41.5496 77.6053C41.4006 78.1617 41.7384 78.6386 42.2451 78.8273C44.0235 79.503 45.5734 77.8636 46.3186 76.4329C47.1531 74.8234 47.4412 73.0053 47.5009 71.207C47.5605 69.2696 47.3816 67.3223 47.2028 65.3948C47.0041 63.2389 46.7259 61.1028 46.3881 58.9667C46.2987 58.4401 45.643 58.1421 45.1661 58.2712C44.5997 58.4302 44.3911 58.9568 44.4706 59.4933V59.5032Z" fill="black"/>
<path id="Vector_18" d="M32.2899 60.9142C34.0783 60.5367 35.8468 61.3514 37.2576 62.4045C38.6684 63.4577 40.109 64.8784 41.3608 66.2296C43.7354 68.7929 44.7786 72.2703 43.9341 75.698C43.6261 76.9399 45.5436 77.4665 45.8516 76.2245C46.8749 72.0915 45.6231 67.9186 42.7617 64.8188C39.9004 61.719 36.2541 58.0529 31.7633 58.9967C30.5115 59.2551 31.0381 61.1726 32.2899 60.9142Z" fill="black"/>
<path id="Vector_19" d="M8.85237 64.8082C6.8355 67.5801 5.8221 71.5642 6.78583 74.9322C7.3422 76.8895 9.01133 77.3068 10.8295 77.426C12.9258 77.5651 15.0321 77.7042 17.1285 77.8532C18.0624 77.9128 19.1751 78.1612 20.0892 77.9228C20.9337 77.7042 21.4305 76.9889 21.6987 76.204C22.1061 75.0117 22.2054 73.5413 23.3182 72.7266C24.5501 71.8225 25.6132 73.5612 26.1497 74.4554C27.2426 76.2536 28.3256 78.0619 29.4284 79.8502C31.9321 83.9237 34.4854 87.9574 37.0984 91.9613C37.7939 93.0244 39.5127 92.0309 38.8172 90.9579C36.5818 87.5302 34.396 84.0827 32.2401 80.6053C31.177 78.8865 30.1139 77.1578 29.0707 75.429C28.1865 73.9586 27.3817 72.1802 25.961 71.1469C24.6892 70.2229 23.0598 70.3421 21.8875 71.3456C20.7946 72.2795 20.2581 73.7599 19.9302 75.121C19.8805 75.3495 19.8408 75.7271 19.6818 75.9059C19.4931 76.1146 19.0857 76.0053 18.8175 75.9854C17.8041 75.9158 16.8006 75.8463 15.7872 75.7867C14.7738 75.7271 13.6909 75.6476 12.6377 75.578C11.7435 75.5184 10.8196 75.5184 9.93532 75.3793C9.0014 75.2303 8.73315 74.7633 8.57418 73.8592C8.41522 72.9551 8.40528 72.0113 8.4947 71.1072C8.67353 69.1896 9.42862 67.3715 10.5612 65.8216C10.8792 65.3844 10.6308 64.7188 10.2036 64.4604C9.69687 64.1624 9.16036 64.381 8.84243 64.8181L8.85237 64.8082Z" fill="black"/>
<path id="Vector_20" d="M31.4952 60.2681C36.6615 68.107 40.8641 76.562 43.9342 85.4342C44.1428 86.0403 44.3415 86.6364 44.5402 87.2424C44.7389 87.8485 44.8581 88.5837 45.2754 89.0705C46.259 90.223 48.1169 89.1103 47.3916 87.7193C46.8055 86.5867 45.0866 87.5902 45.6728 88.7228L45.7225 88.8221L45.6232 88.0571L45.5933 88.1664L45.8517 87.7293C46.0206 87.6895 46.1895 87.6398 46.3484 87.5902H46.2193C46.3882 87.6299 46.5571 87.6697 46.716 87.7193C46.8253 87.7889 46.7558 87.7988 46.7657 87.6696C46.7756 87.5405 46.6664 87.3716 46.6266 87.2424C46.5571 87.0239 46.4875 86.8152 46.418 86.6066C46.2391 86.0701 46.0603 85.5435 45.8815 85.007C45.5536 84.0532 45.2059 83.0994 44.8581 82.1556C44.1229 80.1784 43.3182 78.2311 42.4737 76.3037C40.8244 72.5283 38.9665 68.8522 36.9198 65.2755C35.7475 63.2288 34.5056 61.2219 33.204 59.2547C32.4986 58.1916 30.7798 59.1852 31.4852 60.2582L31.4952 60.2681Z" fill="black"/>
<path id="Vector_21" d="M38.1616 92.5074C41.1124 91.9213 43.9539 90.9476 46.6563 89.6361C47.0438 89.4474 47.2226 88.9109 47.1133 88.5135C47.014 88.1657 46.9246 87.818 46.8252 87.4702C46.4874 86.2383 44.5699 86.7648 44.9077 87.9968C45.0071 88.3446 45.0965 88.6923 45.1958 89.04L45.6529 87.9173C43.1094 89.1592 40.407 90.0435 37.6251 90.5899C37.0986 90.6893 36.8005 91.3251 36.9297 91.812C37.0787 92.3584 37.6251 92.6068 38.1517 92.5074H38.1616Z" fill="black"/>
<path id="Vector_22" d="M45.325 88.8118C46.5669 90.7989 47.9379 92.7065 49.4084 94.5445C49.7362 94.9518 50.4814 94.9121 50.8092 94.5445C51.2067 94.1173 51.157 93.5708 50.8092 93.1436C50.4317 92.6766 50.1933 92.3687 49.8753 91.9414C49.5375 91.4943 49.2097 91.0473 48.8917 90.5902C48.2459 89.6861 47.6299 88.7522 47.0438 87.8083C46.7656 87.3712 46.1397 87.1526 45.6826 87.4507C45.2256 87.7487 45.0368 88.3349 45.325 88.8118Z" fill="black"/>
<path id="Vector_23" d="M39.5128 92.0102C41.1323 94.3748 42.6722 96.7493 43.3876 99.561C44.0135 102.075 44.252 104.876 45.7621 107.062C46.1397 107.619 46.6563 108.086 47.3518 108.155C48.0969 108.225 48.7725 107.817 49.4183 107.499C50.7397 106.854 52.0214 106.138 53.2732 105.373C54.5251 104.608 55.6676 103.843 56.7903 102.979C57.913 102.114 58.4594 100.863 57.605 99.5809C57.1579 98.9152 56.5121 98.3688 55.9458 97.8124C55.3199 97.2064 54.694 96.6003 54.0581 96.0042C52.7864 94.812 51.4849 93.6595 50.1535 92.5268C49.1799 91.7022 47.769 93.1031 48.7526 93.9277C50.7695 95.6465 52.7367 97.4349 54.6244 99.2928C55.0318 99.6902 55.4888 100.088 55.8464 100.525C56.2041 100.962 55.9557 101.111 55.5484 101.429C54.5648 102.184 53.5117 102.869 52.4684 103.515C51.4252 104.161 50.2628 104.817 49.1302 105.403C48.8619 105.542 48.5937 105.671 48.3254 105.81C48.1367 105.9 47.8088 106.148 47.6001 106.148C47.6001 106.148 47.8386 106.307 47.5703 106.128C47.5008 106.079 47.4213 105.93 47.3816 105.88C47.2127 105.622 47.0736 105.343 46.9345 105.065C45.931 102.989 45.7721 100.604 45.1461 98.3986C44.3712 95.6664 42.8213 93.3018 41.2316 90.9769C40.5163 89.9238 38.7875 90.9173 39.5128 91.9804V92.0102Z" fill="black"/>
<path id="Vector_24" d="M49.1105 92.6267C46.6863 93.0639 44.421 94.2263 42.6029 95.8954C42.2154 96.2432 42.2154 96.9486 42.6029 97.2963C43.0102 97.6739 43.5964 97.6739 44.0037 97.2963C44.2024 97.1175 44.4111 96.9387 44.6197 96.7698C44.6495 96.74 44.739 96.6704 44.6595 96.74C44.729 96.6903 44.7986 96.6406 44.8582 96.5909C44.9675 96.5114 45.0768 96.432 45.186 96.3624C45.6431 96.0544 46.1299 95.7663 46.6267 95.5179C46.7459 95.4583 46.8651 95.3987 46.9943 95.349C47.0539 95.3192 47.1135 95.2894 47.183 95.2695C47.0837 95.3093 47.183 95.2695 47.2228 95.2497C47.4712 95.1503 47.7295 95.0509 47.9779 94.9715C48.5243 94.7926 49.0807 94.6535 49.6371 94.5542C50.1537 94.4648 50.4816 93.809 50.3325 93.3321C50.1537 92.7857 49.6569 92.5373 49.1105 92.6367V92.6267Z" fill="black"/>
<path id="Vector_25" d="M20.3975 74.5938C17.2579 84.4397 14.1184 94.2756 10.9788 104.122C10.8596 104.509 11.0484 105.065 11.4358 105.244C15.4 107.102 19.7517 107.996 24.1331 107.788C24.5802 107.768 24.9677 107.49 25.0869 107.062C27.3621 99.1042 30.144 91.295 33.4326 83.7045C33.6412 83.2077 33.5816 82.6414 33.0749 82.3433C32.6576 82.0949 31.9324 82.2042 31.7138 82.701C28.3556 90.4505 25.4943 98.4087 23.1694 106.536L24.1232 105.811C20.0994 105.999 16.0856 105.244 12.4294 103.535L12.8864 104.658C16.0259 94.8121 19.1655 84.9762 22.3051 75.1303C22.6925 73.9083 20.775 73.3817 20.3875 74.6037L20.3975 74.5938Z" fill="black"/>
<path id="Vector_26" d="M12.8762 105.275C10.1937 110.64 8.05757 116.273 6.55734 122.075C6.43812 122.552 6.71631 123.208 7.25281 123.297C9.39884 123.645 11.5548 123.814 13.7306 123.754C15.9065 123.695 18.0525 123.516 20.0892 122.95C21.9074 122.443 22.5134 120.833 22.2849 119.095C22.1756 118.29 21.9471 117.535 21.7484 116.75C21.51 115.796 21.3808 114.832 21.3609 113.859C21.3013 111.693 21.7385 109.517 22.6525 107.56C22.881 107.073 22.7916 106.487 22.2949 106.199C21.8676 105.95 21.1622 106.069 20.9337 106.556C19.3639 109.895 18.9367 113.69 19.8309 117.286C19.9998 117.972 20.2382 118.658 20.3277 119.373C20.3873 119.83 20.4469 120.505 20.0395 120.843C19.7812 121.062 19.3739 121.102 19.0659 121.161C18.5691 121.27 18.0624 121.36 17.5657 121.439C16.5721 121.598 15.5687 121.698 14.5553 121.757C12.2999 121.877 10.0248 121.767 7.78932 121.41L8.48479 122.632C9.95522 116.988 11.992 111.514 14.6049 106.308C15.1812 105.165 13.4624 104.162 12.8861 105.304L12.8762 105.275Z" fill="black"/>
<path id="Vector_27" d="M11.5053 114.345C12.3101 113.014 13.8401 112.159 15.3403 112.05C16.1053 111.99 16.8406 112.08 17.536 112.378C18.2315 112.676 19.0859 113.282 19.1555 114.107C19.1952 114.643 19.5827 115.1 20.149 115.1C20.6557 115.1 21.1823 114.643 21.1425 114.107C20.9339 111.404 18.0527 109.973 15.5887 110.053C13.1248 110.132 11.0085 111.335 9.78649 113.342C9.12083 114.434 10.8396 115.438 11.5053 114.345Z" fill="black"/>
<path id="Vector_28" d="M23.6961 23.9838C22.2952 24.8879 20.6062 24.7886 19.0066 24.6992C17.3176 24.6098 15.5193 24.4707 13.9098 25.0966C12.042 25.8219 10.9392 27.3916 9.92576 29.031C8.76333 30.9286 7.65058 32.856 6.5875 34.8133C5.38533 37.0487 4.25271 39.3239 3.18963 41.6289C2.96112 42.1157 3.05054 42.7019 3.5473 42.9901C3.97452 43.2384 4.67993 43.1192 4.90844 42.6324C6.71666 38.6881 8.74346 34.853 10.9789 31.1372C11.8631 29.6668 12.7673 27.7294 14.4463 27.0141C15.9167 26.3882 17.6554 26.6167 19.1954 26.6962C21.0831 26.7955 23.0602 26.7657 24.6996 25.7026C25.7726 25.0072 24.7691 23.2884 23.6961 23.9838Z" fill="black"/>
<path id="Vector_29" d="M4.18298 42.712C3.4279 44.6097 2.71255 46.5272 2.03695 48.4547C1.36135 50.3821 0.576466 52.2897 0.129377 54.2569C-0.0891995 55.2504 0.0200889 56.1545 0.54666 57.0288C0.983813 57.7541 1.54019 58.4297 2.11644 59.0357C3.22919 60.2081 4.57046 61.2016 6.02101 61.907C7.71995 62.7317 9.52817 63.2185 11.4159 63.3278C12.6975 63.4073 12.6876 61.4202 11.4159 61.3407C7.85904 61.1321 4.34194 59.2046 2.37475 56.2042C2.06676 55.7273 1.91773 55.3497 2.03695 54.7834C2.14624 54.2469 2.35488 53.7204 2.52378 53.1938C2.88145 52.091 3.24906 50.9882 3.6266 49.8853C4.40156 47.6499 5.22619 45.4343 6.09056 43.2287C6.28926 42.7319 5.87198 42.1358 5.39509 42.0066C4.82877 41.8477 4.37175 42.1954 4.17304 42.7021L4.18298 42.712Z" fill="black"/>
<path id="Vector_30" d="M9.95533 66.507C13.3135 62.2647 18.1221 59.4033 23.4574 58.4793C23.984 58.3899 24.282 57.7342 24.1529 57.2573C24.0038 56.7009 23.4574 56.4724 22.9308 56.5618C17.3174 57.5355 12.1014 60.6253 8.55445 65.0962C8.21665 65.5135 8.1471 66.0898 8.55445 66.4971C8.90219 66.8448 9.62746 66.9243 9.95533 66.4971V66.507Z" fill="black"/>
<path id="Vector_31" d="M11.843 45.6229L9.42871 52.9651C9.24987 53.5115 9.64728 53.9983 10.1242 54.1871C11.8728 54.8726 13.6214 55.5582 15.37 56.2437C16.2344 56.5815 17.1087 56.9889 18.0525 56.9889C18.897 56.9889 19.6521 56.6511 20.447 56.4325C22.9407 55.7469 25.7723 56.8696 27.1632 59.0455C27.8488 60.1185 29.5676 59.1249 28.882 58.042C27.2725 55.5184 24.2224 53.9685 21.212 54.2865C20.3774 54.3759 19.6323 54.6342 18.8275 54.8627C17.9234 55.121 17.208 54.8329 16.3635 54.505C14.4659 53.7599 12.5583 53.0147 10.6607 52.2696L11.3562 53.4916L13.7704 46.1494C14.1678 44.9274 12.2503 44.4108 11.8529 45.6229H11.843Z" fill="black"/>
</g>
</g>
<defs>
<clipPath id="clip0_111_24794">
<rect width="58.44" height="124.58" fill="white"/>
</clipPath>
</defs>
</svg>
